<svg version="1.1" viewBox="0.0 0.0 191.002624671916 100.0" fill="none" stroke="none" stroke-linecap="square" stroke-miterlimit="10" xmlns:xlink="http://www.w3.org/1999/xlink" xmlns="http://www.w3.org/2000/svg"><clipPath id="p.0"><path d="m0 0l191.00262 0l0 100.0l-191.00262 0l0 -100.0z" clip-rule="nonzero"/></clipPath><g clip-path="url(#p.0)"><path fill="#000000" fill-opacity="0.0" d="m0 0l191.00262 0l0 100.0l-191.00262 0z" fill-rule="evenodd"/><path fill="#9fc5e8" d="m106.37627 24.240297l18.091064 -13.210198l-5.6429977 21.38276l17.428734 -6.5672474l-9.801743 11.089724l23.018936 5.19635l-22.56157 6.100174l4.2272186 8.242416l-9.155334 2.0898895l8.48259 14.718613l-17.763168 -8.673386l-0.99993134 11.580948l-11.1156845 -7.897316l-4.7635574 10.362396l-6.5631638 -7.1012726l-7.0 7.6951065l-3.9643478 -7.01326l-14.2419815 10.621315l2.104042 -12.679924l-15.2602005 -4.772293l10.951775 -7.3197937l-12.81131 -12.377136l18.41259 -1.2118454l-9.660038 -14.961851l18.941845 2.1449108l-0.60749054 -16.487503l15.785278 14.021934l8.665886 -15.754447z" fill-rule="evenodd"/><path stroke="#000000" stroke-width="1.0" stroke-linejoin="round" stroke-linecap="butt" d="m106.37627 24.240297l18.091064 -13.210198l-5.6429977 21.38276l17.428734 -6.5672474l-9.801743 11.089724l23.018936 5.19635l-22.56157 6.100174l4.2272186 8.242416l-9.155334 2.0898895l8.48259 14.718613l-17.763168 -8.673386l-0.99993134 11.580948l-11.1156845 -7.897316l-4.7635574 10.362396l-6.5631638 -7.1012726l-7.0 7.6951065l-3.9643478 -7.01326l-14.2419815 10.621315l2.104042 -12.679924l-15.2602005 -4.772293l10.951775 -7.3197937l-12.81131 -12.377136l18.41259 -1.2118454l-9.660038 -14.961851l18.941845 2.1449108l-0.60749054 -16.487503l15.785278 14.021934l8.665886 -15.754447z" fill-rule="evenodd"/><path fill="#000000" fill-opacity="0.0" d="m-293.0486 146.80565l89.44881 0l0 31.62204l-89.44881 0z" fill-rule="evenodd"/><path fill="#000000" d="m-270.24344 169.88565l0 -0.953125q-0.71875 1.125 -2.125 1.125q-0.90625 0 -1.671875 -0.5q-0.75 -0.5 -1.171875 -1.390625q-0.421875 -0.90625 -0.421875 -2.078125q0 -1.140625 0.375 -2.0625q0.390625 -0.921875 1.140625 -1.40625q0.765625 -0.5 1.703125 -0.5q0.6875 0 1.21875 0.296875q0.53125 0.28125 0.875 0.734375l0 -3.75l1.28125 0l0 10.484375l-1.203125 0zm-4.0625 -3.796875q0 1.46875 0.609375 2.1875q0.625 0.71875 1.453125 0.71875q0.84375 0 1.4375 -0.6875q0.59375 -0.6875 0.59375 -2.109375q0 -1.5625 -0.609375 -2.28125q-0.59375 -0.734375 -1.484375 -0.734375q-0.84375 0 -1.421875 0.703125q-0.578125 0.703125 -0.578125 2.203125zm7.2917175 -5.21875l0 -1.46875l1.296875 0l0 1.46875l-1.296875 0zm0 9.015625l0 -7.59375l1.296875 0l0 7.59375l-1.296875 0zm2.7405396 -2.265625l1.265625 -0.203125q0.109375 0.765625 0.59375 1.171875q0.5 0.40625 1.375 0.40625q0.890625 0 1.3125 -0.359375q0.4375 -0.359375 0.4375 -0.84375q0 -0.4375 -0.375 -0.6875q-0.265625 -0.171875 -1.3125 -0.4375q-1.421875 -0.359375 -1.96875 -0.609375q-0.546875 -0.265625 -0.828125 -0.734375q-0.28125 -0.46875 -0.28125 -1.015625q0 -0.515625 0.21875 -0.9375q0.234375 -0.4375 0.640625 -0.734375q0.296875 -0.21875 0.8125 -0.359375q0.53125 -0.15625 1.125 -0.15625q0.890625 0 1.5625 0.265625q0.671875 0.25 1.0 0.6875q0.328125 0.4375 0.4375 1.171875l-1.25 0.171875q-0.09375 -0.578125 -0.5 -0.90625q-0.40625 -0.34375 -1.15625 -0.34375q-0.890625 0 -1.28125 0.296875q-0.375 0.296875 -0.375 0.6875q0 0.25 0.15625 0.453125q0.15625 0.203125 0.5 0.34375q0.1875 0.078125 1.140625 0.328125q1.359375 0.359375 1.890625 0.59375q0.546875 0.234375 0.859375 0.6875q0.3125 0.4375 0.3125 1.09375q0 0.640625 -0.375 1.21875q-0.375 0.5625 -1.09375 0.875q-0.703125 0.3125 -1.59375 0.3125q-1.484375 0 -2.265625 -0.609375q-0.765625 -0.625 -0.984375 -1.828125zm10.65625 1.109375l0.1875 1.140625q-0.546875 0.109375 -0.984375 0.109375q-0.6875 0 -1.078125 -0.21875q-0.390625 -0.21875 -0.546875 -0.578125q-0.15625 -0.359375 -0.15625 -1.515625l0 -4.375l-0.953125 0l0 -1.0l0.953125 0l0 -1.890625l1.28125 -0.765625l0 2.65625l1.296875 0l0 1.0l-1.296875 0l0 4.4375q0 0.546875 0.0625 0.71875q0.078125 0.15625 0.21875 0.25q0.15625 0.078125 0.453125 0.078125q0.203125 0 0.5625 -0.046875zm1.2438507 1.15625l0 -7.59375l1.15625 0l0 1.140625q0.453125 -0.796875 0.828125 -1.046875q0.375 -0.265625 0.8125 -0.265625q0.65625 0 1.328125 0.40625l-0.4375 1.203125q-0.46875 -0.28125 -0.953125 -0.28125q-0.421875 0 -0.765625 0.25q-0.328125 0.25 -0.46875 0.703125q-0.21875 0.6875 -0.21875 1.5l0 3.984375l-1.28125 0zm4.8962708 -9.015625l0 -1.46875l1.296875 0l0 1.46875l-1.296875 0zm0 9.015625l0 -7.59375l1.296875 0l0 7.59375l-1.296875 0zm4.4436493 0l-1.203125 0l0 -10.484375l1.296875 0l0 3.734375q0.8125 -1.015625 2.078125 -1.015625q0.703125 0 1.328125 0.28125q0.625 0.28125 1.03125 0.796875q0.40625 0.5 0.625 1.234375q0.234375 0.71875 0.234375 1.53125q0 1.96875 -0.96875 3.03125q-0.953125 1.0625 -2.3125 1.0625q-1.34375 0 -2.109375 -1.125l0 0.953125zm-0.015625 -3.859375q0 1.375 0.375 1.984375q0.609375 0.984375 1.640625 0.984375q0.84375 0 1.453125 -0.734375q0.625 -0.734375 0.625 -2.1875q0 -1.484375 -0.59375 -2.1875q-0.59375 -0.71875 -1.421875 -0.71875q-0.84375 0 -1.46875 0.734375q-0.609375 0.734375 -0.609375 2.125zm11.963608 3.859375l0 -1.109375q-0.890625 1.28125 -2.421875 1.28125q-0.671875 0 -1.25 -0.25q-0.578125 -0.265625 -0.875 -0.65625q-0.28125 -0.390625 -0.390625 -0.953125q-0.078125 -0.375 -0.078125 -1.203125l0 -4.703125l1.28125 0l0 4.203125q0 1.015625 0.078125 1.359375q0.125 0.515625 0.515625 0.8125q0.40625 0.28125 0.984375 0.28125q0.578125 0 1.078125 -0.296875q0.515625 -0.296875 0.71875 -0.8125q0.21875 -0.515625 0.21875 -1.484375l0 -4.0625l1.28125 0l0 7.59375l-1.140625 0zm3.1667328 -9.015625l0 -1.46875l1.296875 0l0 1.46875l-1.296875 0zm0 9.015625l0 -7.59375l1.296875 0l0 7.59375l-1.296875 0zm3.2405243 0l0 -7.59375l1.15625 0l0 1.140625q0.453125 -0.796875 0.828125 -1.046875q0.375 -0.265625 0.8125 -0.265625q0.65625 0 1.328125 0.40625l-0.4375 1.203125q-0.46875 -0.28125 -0.953125 -0.28125q-0.421875 0 -0.765625 0.25q-0.328125 0.25 -0.46875 0.703125q-0.21875 0.6875 -0.21875 1.5l0 3.984375l-1.28125 0zm10.099396 -2.453125l1.328125 0.171875q-0.3125 1.171875 -1.171875 1.8125q-0.84375 0.640625 -2.171875 0.640625q-1.671875 0 -2.65625 -1.015625q-0.96875 -1.03125 -0.96875 -2.890625q0 -1.921875 0.984375 -2.96875q1.0 -1.0625 2.578125 -1.0625q1.515625 0 2.484375 1.03125q0.96875 1.03125 0.96875 2.921875q0 0.109375 -0.015625 0.34375l-5.65625 0q0.0625 1.25 0.703125 1.921875q0.640625 0.65625 1.59375 0.65625q0.703125 0 1.203125 -0.359375q0.5 -0.375 0.796875 -1.203125zm-4.234375 -2.078125l4.25 0q-0.09375 -0.953125 -0.484375 -1.4375q-0.625 -0.75 -1.609375 -0.75q-0.875 0 -1.484375 0.59375q-0.609375 0.59375 -0.671875 1.59375z" fill-rule="nonzero"/><path fill="#000000" fill-opacity="0.0" d="m-305.28748 169.28947l102.110245 0l0 33.95276l-102.110245 0z" fill-rule="evenodd"/><path fill="#000000" d="m-282.9095 192.36948l0 -7.59375l1.15625 0l0 1.140625q0.453125 -0.796875 0.828125 -1.046875q0.375 -0.265625 0.8125 -0.265625q0.65625 0 1.328125 0.40625l-0.4375 1.203125q-0.46875 -0.28125 -0.953125 -0.28125q-0.421875 0 -0.765625 0.25q-0.328125 0.25 -0.46875 0.703125q-0.21875 0.6875 -0.21875 1.5l0 3.984375l-1.28125 0zm9.849396 -0.9375q-0.71875 0.609375 -1.375 0.859375q-0.65625 0.25 -1.421875 0.25q-1.25 0 -1.921875 -0.609375q-0.671875 -0.609375 -0.671875 -1.5625q0 -0.5625 0.25 -1.015625q0.25 -0.46875 0.65625 -0.75q0.421875 -0.28125 0.9375 -0.421875q0.375 -0.09375 1.140625 -0.1875q1.5625 -0.1875 2.296875 -0.453125q0.015625 -0.265625 0.015625 -0.328125q0 -0.796875 -0.375 -1.109375q-0.484375 -0.4375 -1.453125 -0.4375q-0.921875 0 -1.359375 0.328125q-0.421875 0.3125 -0.625 1.109375l-1.265625 -0.171875q0.171875 -0.796875 0.5625 -1.296875q0.390625 -0.5 1.140625 -0.765625q0.75 -0.265625 1.71875 -0.265625q0.984375 0 1.59375 0.234375q0.609375 0.21875 0.890625 0.5625q0.28125 0.34375 0.40625 0.875q0.0625 0.328125 0.0625 1.1875l0 1.71875q0 1.796875 0.078125 2.28125q0.078125 0.46875 0.328125 0.90625l-1.34375 0q-0.203125 -0.40625 -0.265625 -0.9375zm-0.109375 -2.875q-0.703125 0.28125 -2.09375 0.484375q-0.796875 0.109375 -1.125 0.265625q-0.328125 0.140625 -0.515625 0.421875q-0.171875 0.265625 -0.171875 0.59375q0 0.515625 0.390625 0.859375q0.390625 0.34375 1.140625 0.34375q0.734375 0 1.3125 -0.3125q0.59375 -0.328125 0.859375 -0.890625q0.203125 -0.4375 0.203125 -1.296875l0 -0.46875zm8.260498 1.03125l1.265625 0.15625q-0.203125 1.3125 -1.0625 2.0625q-0.84375 0.734375 -2.09375 0.734375q-1.5625 0 -2.515625 -1.015625q-0.9375 -1.03125 -0.9375 -2.921875q0 -1.234375 0.40625 -2.15625q0.40625 -0.921875 1.234375 -1.375q0.84375 -0.46875 1.8125 -0.46875q1.25 0 2.03125 0.625q0.78125 0.625 1.015625 1.765625l-1.265625 0.203125q-0.171875 -0.765625 -0.625 -1.15625q-0.453125 -0.390625 -1.09375 -0.390625q-0.984375 0 -1.59375 0.703125q-0.609375 0.703125 -0.609375 2.203125q0 1.53125 0.578125 2.234375q0.59375 0.6875 1.546875 0.6875q0.75 0 1.265625 -0.453125q0.515625 -0.46875 0.640625 -1.4375zm7.328125 0l1.265625 0.15625q-0.203125 1.3125 -1.0625 2.0625q-0.84375 0.734375 -2.09375 0.734375q-1.5625 0 -2.515625 -1.015625q-0.9375 -1.03125 -0.9375 -2.921875q0 -1.234375 0.40625 -2.15625q0.40625 -0.921875 1.234375 -1.375q0.84375 -0.46875 1.8125 -0.46875q1.25 0 2.03125 0.625q0.78125 0.625 1.015625 1.765625l-1.265625 0.203125q-0.171875 -0.765625 -0.625 -1.15625q-0.453125 -0.390625 -1.09375 -0.390625q-0.984375 0 -1.59375 0.703125q-0.609375 0.703125 -0.609375 2.203125q0 1.53125 0.578125 2.234375q0.59375 0.6875 1.546875 0.6875q0.75 0 1.265625 -0.453125q0.515625 -0.46875 0.640625 -1.4375zm1.8906097 -1.015625q0 -2.109375 1.171875 -3.125q0.984375 -0.84375 2.390625 -0.84375q1.578125 0 2.5625 1.03125q1.0 1.015625 1.0 2.828125q0 1.46875 -0.4375 2.3125q-0.4375 0.828125 -1.28125 1.296875q-0.84375 0.46875 -1.84375 0.46875q-1.59375 0 -2.578125 -1.015625q-0.984375 -1.03125 -0.984375 -2.953125zm1.328125 0q0 1.453125 0.625 2.1875q0.640625 0.71875 1.609375 0.71875q0.96875 0 1.59375 -0.71875q0.640625 -0.734375 0.640625 -2.234375q0 -1.40625 -0.640625 -2.125q-0.640625 -0.734375 -1.59375 -0.734375q-0.96875 0 -1.609375 0.71875q-0.625 0.71875 -0.625 2.1875zm7.072983 4.421875l1.25 0.1875q0.078125 0.578125 0.4375 0.84375q0.46875 0.359375 1.3125 0.359375q0.890625 0 1.375 -0.359375q0.484375 -0.359375 0.65625 -1.0q0.109375 -0.390625 0.09375 -1.65625q-0.84375 1.0 -2.109375 1.0q-1.5625 0 -2.421875 -1.125q-0.859375 -1.140625 -0.859375 -2.71875q0 -1.09375 0.390625 -2.0q0.40625 -0.921875 1.140625 -1.421875q0.75 -0.5 1.765625 -0.5q1.34375 0 2.21875 1.078125l0 -0.90625l1.1875 0l0 6.5625q0 1.78125 -0.359375 2.515625q-0.359375 0.734375 -1.15625 1.15625q-0.78125 0.4375 -1.921875 0.4375q-1.359375 0 -2.203125 -0.609375q-0.828125 -0.609375 -0.796875 -1.84375zm1.0625 -4.5625q0 1.5 0.59375 2.1875q0.59375 0.6875 1.484375 0.6875q0.890625 0 1.484375 -0.6875q0.609375 -0.6875 0.609375 -2.140625q0 -1.390625 -0.625 -2.09375q-0.609375 -0.71875 -1.484375 -0.71875q-0.859375 0 -1.46875 0.703125q-0.59375 0.6875 -0.59375 2.0625zm7.291733 3.9375l0 -10.484375l1.28125 0l0 10.484375l-1.28125 0zm3.2873993 -9.015625l0 -1.46875l1.296875 0l0 1.46875l-1.296875 0zm0 9.015625l0 -7.59375l1.296875 0l0 7.59375l-1.296875 0zm8.459274 -2.453125l1.328125 0.171875q-0.3125 1.171875 -1.171875 1.8125q-0.84375 0.640625 -2.171875 0.640625q-1.671875 0 -2.65625 -1.015625q-0.96875 -1.03125 -0.96875 -2.890625q0 -1.921875 0.984375 -2.96875q1.0 -1.0625 2.578125 -1.0625q1.515625 0 2.484375 1.03125q0.96875 1.03125 0.96875 2.921875q0 0.109375 -0.015625 0.34375l-5.65625 0q0.0625 1.25 0.703125 1.921875q0.640625 0.65625 1.59375 0.65625q0.703125 0 1.203125 -0.359375q0.5 -0.375 0.796875 -1.203125zm-4.234375 -2.078125l4.25 0q-0.09375 -0.953125 -0.484375 -1.4375q-0.625 -0.75 -1.609375 -0.75q-0.875 0 -1.484375 0.59375q-0.609375 0.59375 -0.671875 1.59375zm7.166733 4.53125l0 -7.59375l1.15625 0l0 1.140625q0.453125 -0.796875 0.828125 -1.046875q0.375 -0.265625 0.8125 -0.265625q0.65625 0 1.328125 0.40625l-0.4375 1.203125q-0.46875 -0.28125 -0.953125 -0.28125q-0.421875 0 -0.765625 0.25q-0.328125 0.25 -0.46875 0.703125q-0.21875 0.6875 -0.21875 1.5l0 3.984375l-1.28125 0zm10.099396 -2.453125l1.328125 0.171875q-0.3125 1.171875 -1.171875 1.8125q-0.84375 0.640625 -2.171875 0.640625q-1.671875 0 -2.65625 -1.015625q-0.96875 -1.03125 -0.96875 -2.890625q0 -1.921875 0.984375 -2.96875q1.0 -1.0625 2.578125 -1.0625q1.515625 0 2.484375 1.03125q0.96875 1.03125 0.96875 2.921875q0 0.109375 -0.015625 0.34375l-5.65625 0q0.0625 1.25 0.703125 1.921875q0.640625 0.65625 1.59375 0.65625q0.703125 0 1.203125 -0.359375q0.5 -0.375 0.796875 -1.203125zm-4.234375 -2.078125l4.25 0q-0.09375 -0.953125 -0.484375 -1.4375q-0.625 -0.75 -1.609375 -0.75q-0.875 0 -1.484375 0.59375q-0.609375 0.59375 -0.671875 1.59375z" fill-rule="nonzero"/><path fill="#000000" fill-opacity="0.0" d="m-307.01453 95.21158l104.91341 0l0 33.95276l-104.91341 0z" fill-rule="evenodd"/><path fill="#000000" d="m-278.48196 115.51033l1.265625 0.15625q-0.203125 1.3125 -1.0625 2.0625q-0.84375 0.734375 -2.09375 0.734375q-1.5625 0 -2.515625 -1.015625q-0.9375 -1.03125 -0.9375 -2.921875q0 -1.234375 0.40625 -2.15625q0.40625 -0.921875 1.234375 -1.375q0.84375 -0.46875 1.8125 -0.46875q1.25 0 2.03125 0.625q0.78125 0.625 1.015625 1.765625l-1.265625 0.203125q-0.171875 -0.765625 -0.625 -1.15625q-0.453125 -0.390625 -1.09375 -0.390625q-0.984375 0 -1.59375 0.703125q-0.609375 0.703125 -0.609375 2.203125q0 1.53125 0.578125 2.234375q0.59375 0.6875 1.546875 0.6875q0.75 0 1.265625 -0.453125q0.515625 -0.46875 0.640625 -1.4375zm1.890625 -1.015625q0 -2.109375 1.171875 -3.125q0.984375 -0.84375 2.390625 -0.84375q1.578125 0 2.5625 1.03125q1.0 1.015625 1.0 2.828125q0 1.46875 -0.4375 2.3125q-0.4375 0.828125 -1.28125 1.296875q-0.84375 0.46875 -1.84375 0.46875q-1.59375 0 -2.578125 -1.015625q-0.984375 -1.03125 -0.984375 -2.953125zm1.328125 0q0 1.453125 0.625 2.1875q0.640625 0.71875 1.609375 0.71875q0.96875 0 1.59375 -0.71875q0.640625 -0.734375 0.640625 -2.234375q0 -1.40625 -0.640625 -2.125q-0.640625 -0.734375 -1.59375 -0.734375q-0.96875 0 -1.609375 0.71875q-0.625 0.71875 -0.625 2.1875zm7.3073425 3.796875l0 -7.59375l1.15625 0l0 1.0625q0.34375 -0.5625 0.9375 -0.890625q0.609375 -0.34375 1.359375 -0.34375q0.84375 0 1.375 0.34375q0.546875 0.34375 0.765625 0.984375q0.90625 -1.328125 2.359375 -1.328125q1.125 0 1.734375 0.625q0.609375 0.625 0.609375 1.921875l0 5.21875l-1.28125 0l0 -4.78125q0 -0.78125 -0.125 -1.109375q-0.125 -0.34375 -0.453125 -0.546875q-0.328125 -0.21875 -0.78125 -0.21875q-0.796875 0 -1.328125 0.53125q-0.53125 0.53125 -0.53125 1.703125l0 4.421875l-1.28125 0l0 -4.9375q0 -0.859375 -0.3125 -1.28125q-0.3125 -0.4375 -1.03125 -0.4375q-0.546875 0 -1.015625 0.296875q-0.453125 0.28125 -0.671875 0.828125q-0.203125 0.546875 -0.203125 1.59375l0 3.9375l-1.28125 0zm12.208771 0l0 -7.59375l1.15625 0l0 1.0625q0.34375 -0.5625 0.9375 -0.890625q0.609375 -0.34375 1.359375 -0.34375q0.84375 0 1.375 0.34375q0.546875 0.34375 0.765625 0.984375q0.90625 -1.328125 2.359375 -1.328125q1.125 0 1.734375 0.625q0.609375 0.625 0.609375 1.921875l0 5.21875l-1.28125 0l0 -4.78125q0 -0.78125 -0.125 -1.109375q-0.125 -0.34375 -0.453125 -0.546875q-0.328125 -0.21875 -0.78125 -0.21875q-0.796875 0 -1.328125 0.53125q-0.53125 0.53125 -0.53125 1.703125l0 4.421875l-1.28125 0l0 -4.9375q0 -0.859375 -0.3125 -1.28125q-0.3125 -0.4375 -1.03125 -0.4375q-0.546875 0 -1.015625 0.296875q-0.453125 0.28125 -0.671875 0.828125q-0.203125 0.546875 -0.203125 1.59375l0 3.9375l-1.28125 0zm17.193146 0l0 -1.109375q-0.890625 1.28125 -2.421875 1.28125q-0.671875 0 -1.25 -0.25q-0.578125 -0.265625 -0.875 -0.65625q-0.28125 -0.390625 -0.390625 -0.953125q-0.078125 -0.375 -0.078125 -1.203125l0 -4.703125l1.28125 0l0 4.203125q0 1.015625 0.078125 1.359375q0.125 0.515625 0.515625 0.8125q0.40625 0.28125 0.984375 0.28125q0.578125 0 1.078125 -0.296875q0.515625 -0.296875 0.71875 -0.8125q0.21875 -0.515625 0.21875 -1.484375l0 -4.0625l1.28125 0l0 7.59375l-1.140625 0zm5.979233 -1.15625l0.1875 1.140625q-0.546875 0.109375 -0.984375 0.109375q-0.6875 0 -1.078125 -0.21875q-0.390625 -0.21875 -0.546875 -0.578125q-0.15625 -0.359375 -0.15625 -1.515625l0 -4.375l-0.953125 0l0 -1.0l0.953125 0l0 -1.890625l1.28125 -0.765625l0 2.65625l1.296875 0l0 1.0l-1.296875 0l0 4.4375q0 0.546875 0.0625 0.71875q0.078125 0.15625 0.21875 0.25q0.15625 0.078125 0.453125 0.078125q0.203125 0 0.5625 -0.046875zm6.2126007 0.21875q-0.71875 0.609375 -1.375 0.859375q-0.65625 0.25 -1.421875 0.25q-1.25 0 -1.921875 -0.609375q-0.671875 -0.609375 -0.671875 -1.5625q0 -0.5625 0.25 -1.015625q0.25 -0.46875 0.65625 -0.75q0.421875 -0.28125 0.9375 -0.421875q0.375 -0.09375 1.140625 -0.1875q1.5625 -0.1875 2.296875 -0.453125q0.015625 -0.265625 0.015625 -0.328125q0 -0.796875 -0.375 -1.109375q-0.484375 -0.4375 -1.453125 -0.4375q-0.921875 0 -1.359375 0.328125q-0.421875 0.3125 -0.625 1.109375l-1.265625 -0.171875q0.171875 -0.796875 0.5625 -1.296875q0.390625 -0.5 1.140625 -0.765625q0.75 -0.265625 1.71875 -0.265625q0.984375 0 1.59375 0.234375q0.609375 0.21875 0.890625 0.5625q0.28125 0.34375 0.40625 0.875q0.0625 0.328125 0.0625 1.1875l0 1.71875q0 1.796875 0.078125 2.28125q0.078125 0.46875 0.328125 0.90625l-1.34375 0q-0.203125 -0.40625 -0.265625 -0.9375zm-0.109375 -2.875q-0.703125 0.28125 -2.09375 0.484375q-0.796875 0.109375 -1.125 0.265625q-0.328125 0.140625 -0.515625 0.421875q-0.171875 0.265625 -0.171875 0.59375q0 0.515625 0.390625 0.859375q0.390625 0.34375 1.140625 0.34375q0.734375 0 1.3125 -0.3125q0.59375 -0.328125 0.859375 -0.890625q0.203125 -0.4375 0.203125 -1.296875l0 -0.46875zm3.2917328 3.8125l0 -7.59375l1.15625 0l0 1.140625q0.453125 -0.796875 0.828125 -1.046875q0.375 -0.265625 0.8125 -0.265625q0.65625 0 1.328125 0.40625l-0.4375 1.203125q-0.46875 -0.28125 -0.953125 -0.28125q-0.421875 0 -0.765625 0.25q-0.328125 0.25 -0.46875 0.703125q-0.21875 0.6875 -0.21875 1.5l0 3.984375l-1.28125 0zm10.099396 -2.453125l1.328125 0.171875q-0.3125 1.171875 -1.171875 1.8125q-0.84375 0.640625 -2.171875 0.640625q-1.671875 0 -2.65625 -1.015625q-0.96875 -1.03125 -0.96875 -2.890625q0 -1.921875 0.984375 -2.96875q1.0 -1.0625 2.578125 -1.0625q1.515625 0 2.484375 1.03125q0.96875 1.03125 0.96875 2.921875q0 0.109375 -0.015625 0.34375l-5.65625 0q0.0625 1.25 0.703125 1.921875q0.640625 0.65625 1.59375 0.65625q0.703125 0 1.203125 -0.359375q0.5 -0.375 0.796875 -1.203125zm-4.234375 -2.078125l4.25 0q-0.09375 -0.953125 -0.484375 -1.4375q-0.625 -0.75 -1.609375 -0.75q-0.875 0 -1.484375 0.59375q-0.609375 0.59375 -0.671875 1.59375z" fill-rule="nonzero"/><path fill="#000000" fill-opacity="0.0" d="m-297.6072 120.229195l96.18898 0l0 27.653542l-96.18898 0z" fill-rule="evenodd"/><path fill="#000000" d="m-267.22195 142.37169q-0.71875 0.609375 -1.375 0.859375q-0.65625 0.25 -1.421875 0.25q-1.25 0 -1.921875 -0.609375q-0.671875 -0.609375 -0.671875 -1.5625q0 -0.5625 0.25 -1.015625q0.25 -0.46875 0.65625 -0.75q0.421875 -0.28125 0.9375 -0.421875q0.375 -0.09375 1.140625 -0.1875q1.5625 -0.1875 2.296875 -0.453125q0.015625 -0.265625 0.015625 -0.328125q0 -0.796875 -0.375 -1.109375q-0.484375 -0.4375 -1.453125 -0.4375q-0.921875 0 -1.359375 0.328125q-0.421875 0.3125 -0.625 1.109375l-1.265625 -0.171875q0.171875 -0.796875 0.5625 -1.296875q0.390625 -0.5 1.140625 -0.765625q0.75 -0.265625 1.71875 -0.265625q0.984375 0 1.59375 0.234375q0.609375 0.21875 0.890625 0.5625q0.28125 0.34375 0.40625 0.875q0.0625 0.328125 0.0625 1.1875l0 1.71875q0 1.796875 0.078125 2.28125q0.078125 0.46875 0.328125 0.90625l-1.34375 0q-0.203125 -0.40625 -0.265625 -0.9375zm-0.109375 -2.875q-0.703125 0.28125 -2.09375 0.484375q-0.796875 0.109375 -1.125 0.265625q-0.328125 0.140625 -0.515625 0.421875q-0.171875 0.265625 -0.171875 0.59375q0 0.515625 0.390625 0.859375q0.390625 0.34375 1.140625 0.34375q0.734375 0 1.3125 -0.3125q0.59375 -0.328125 0.859375 -0.890625q0.203125 -0.4375 0.203125 -1.296875l0 -0.46875zm2.7917175 1.546875l1.265625 -0.203125q0.109375 0.765625 0.59375 1.171875q0.5 0.40625 1.375 0.40625q0.890625 0 1.3125 -0.359375q0.4375 -0.359375 0.4375 -0.84375q0 -0.4375 -0.375 -0.6875q-0.265625 -0.171875 -1.3125 -0.4375q-1.421875 -0.359375 -1.96875 -0.609375q-0.546875 -0.265625 -0.828125 -0.734375q-0.28125 -0.46875 -0.28125 -1.015625q0 -0.515625 0.21875 -0.9375q0.234375 -0.4375 0.640625 -0.734375q0.296875 -0.21875 0.8125 -0.359375q0.53125 -0.15625 1.125 -0.15625q0.890625 0 1.5625 0.265625q0.671875 0.25 1.0 0.6875q0.328125 0.4375 0.4375 1.171875l-1.25 0.171875q-0.09375 -0.578125 -0.5 -0.90625q-0.40625 -0.34375 -1.15625 -0.34375q-0.890625 0 -1.28125 0.296875q-0.375 0.296875 -0.375 0.6875q0 0.25 0.15625 0.453125q0.15625 0.203125 0.5 0.34375q0.1875 0.078125 1.140625 0.328125q1.359375 0.359375 1.890625 0.59375q0.546875 0.234375 0.859375 0.6875q0.3125 0.4375 0.3125 1.09375q0 0.640625 -0.375 1.21875q-0.375 0.5625 -1.09375 0.875q-0.703125 0.3125 -1.59375 0.3125q-1.484375 0 -2.265625 -0.609375q-0.765625 -0.625 -0.984375 -1.828125zm7.328125 0l1.2656403 -0.203125q0.109375 0.765625 0.59375 1.171875q0.5 0.40625 1.375 0.40625q0.890625 0 1.3125 -0.359375q0.4375 -0.359375 0.4375 -0.84375q0 -0.4375 -0.375 -0.6875q-0.265625 -0.171875 -1.3125 -0.4375q-1.421875 -0.359375 -1.96875 -0.609375q-0.54689026 -0.265625 -0.82814026 -0.734375q-0.28125 -0.46875 -0.28125 -1.015625q0 -0.515625 0.21875 -0.9375q0.234375 -0.4375 0.640625 -0.734375q0.29689026 -0.21875 0.81251526 -0.359375q0.53125 -0.15625 1.125 -0.15625q0.890625 0 1.5625 0.265625q0.671875 0.25 1.0 0.6875q0.328125 0.4375 0.4375 1.171875l-1.25 0.171875q-0.09375 -0.578125 -0.5 -0.90625q-0.40625 -0.34375 -1.15625 -0.34375q-0.890625 0 -1.28125 0.296875q-0.375 0.296875 -0.375 0.6875q0 0.25 0.15625 0.453125q0.15625 0.203125 0.5 0.34375q0.1875 0.078125 1.140625 0.328125q1.359375 0.359375 1.890625 0.59375q0.546875 0.234375 0.859375 0.6875q0.3125 0.4375 0.3125 1.09375q0 0.640625 -0.375 1.21875q-0.375 0.5625 -1.09375 0.875q-0.703125 0.3125 -1.59375 0.3125q-1.484375 0 -2.2656403 -0.609375q-0.765625 -0.625 -0.984375 -1.828125zm7.3593903 -1.53125q0 -2.109375 1.171875 -3.125q0.984375 -0.84375 2.390625 -0.84375q1.578125 0 2.5625 1.03125q1.0 1.015625 1.0 2.828125q0 1.46875 -0.4375 2.3125q-0.4375 0.828125 -1.28125 1.296875q-0.84375 0.46875 -1.84375 0.46875q-1.59375 0 -2.578125 -1.015625q-0.984375 -1.03125 -0.984375 -2.953125zm1.328125 0q0 1.453125 0.625 2.1875q0.640625 0.71875 1.609375 0.71875q0.96875 0 1.59375 -0.71875q0.640625 -0.734375 0.640625 -2.234375q0 -1.40625 -0.640625 -2.125q-0.640625 -0.734375 -1.59375 -0.734375q-0.96875 0 -1.609375 0.71875q-0.625 0.71875 -0.625 2.1875zm12.260483 1.015625l1.265625 0.15625q-0.203125 1.3125 -1.0625 2.0625q-0.84375 0.734375 -2.09375 0.734375q-1.5625 0 -2.515625 -1.015625q-0.9375 -1.03125 -0.9375 -2.921875q0 -1.234375 0.40625 -2.15625q0.40625 -0.921875 1.234375 -1.375q0.84375 -0.46875 1.8125 -0.46875q1.25 0 2.03125 0.625q0.78125 0.625 1.015625 1.765625l-1.265625 0.203125q-0.171875 -0.765625 -0.625 -1.15625q-0.453125 -0.390625 -1.09375 -0.390625q-0.984375 0 -1.59375 0.703125q-0.609375 0.703125 -0.609375 2.203125q0 1.53125 0.578125 2.234375q0.59375 0.6875 1.546875 0.6875q0.75 0 1.265625 -0.453125q0.515625 -0.46875 0.640625 -1.4375zm2.375 -6.234375l0 -1.46875l1.296875 0l0 1.46875l-1.296875 0zm0 9.015625l0 -7.59375l1.296875 0l0 7.59375l-1.296875 0zm8.209274 -0.9375q-0.71875 0.609375 -1.375 0.859375q-0.65625 0.25 -1.421875 0.25q-1.25 0 -1.921875 -0.609375q-0.671875 -0.609375 -0.671875 -1.5625q0 -0.5625 0.25 -1.015625q0.25 -0.46875 0.65625 -0.75q0.421875 -0.28125 0.9375 -0.421875q0.375 -0.09375 1.140625 -0.1875q1.5625 -0.1875 2.296875 -0.453125q0.015625 -0.265625 0.015625 -0.328125q0 -0.796875 -0.375 -1.109375q-0.484375 -0.4375 -1.453125 -0.4375q-0.921875 0 -1.359375 0.328125q-0.421875 0.3125 -0.625 1.109375l-1.265625 -0.171875q0.171875 -0.796875 0.5625 -1.296875q0.390625 -0.5 1.140625 -0.765625q0.75 -0.265625 1.71875 -0.265625q0.984375 0 1.59375 0.234375q0.609375 0.21875 0.890625 0.5625q0.28125 0.34375 0.40625 0.875q0.0625 0.328125 0.0625 1.1875l0 1.71875q0 1.796875 0.078125 2.28125q0.078125 0.46875 0.328125 0.90625l-1.34375 0q-0.203125 -0.40625 -0.265625 -0.9375zm-0.109375 -2.875q-0.703125 0.28125 -2.09375 0.484375q-0.796875 0.109375 -1.125 0.265625q-0.328125 0.140625 -0.515625 0.421875q-0.171875 0.265625 -0.171875 0.59375q0 0.515625 0.390625 0.859375q0.390625 0.34375 1.140625 0.34375q0.734375 0 1.3125 -0.3125q0.59375 -0.328125 0.859375 -0.890625q0.203125 -0.4375 0.203125 -1.296875l0 -0.46875zm3.2917328 3.8125l0 -7.59375l1.15625 0l0 1.140625q0.453125 -0.796875 0.828125 -1.046875q0.375 -0.265625 0.8125 -0.265625q0.65625 0 1.328125 0.40625l-0.4375 1.203125q-0.46875 -0.28125 -0.953125 -0.28125q-0.421875 0 -0.765625 0.25q-0.328125 0.25 -0.46875 0.703125q-0.21875 0.6875 -0.21875 1.5l0 3.984375l-1.28125 0zm10.099396 -2.453125l1.328125 0.171875q-0.3125 1.171875 -1.171875 1.8125q-0.84375 0.640625 -2.171875 0.640625q-1.671875 0 -2.65625 -1.015625q-0.96875 -1.03125 -0.96875 -2.890625q0 -1.921875 0.984375 -2.96875q1.0 -1.0625 2.578125 -1.0625q1.515625 0 2.484375 1.03125q0.96875 1.03125 0.96875 2.921875q0 0.109375 -0.015625 0.34375l-5.65625 0q0.0625 1.25 0.703125 1.921875q0.640625 0.65625 1.59375 0.65625q0.703125 0 1.203125 -0.359375q0.5 -0.375 0.796875 -1.203125zm-4.234375 -2.078125l4.25 0q-0.09375 -0.953125 -0.484375 -1.4375q-0.625 -0.75 -1.609375 -0.75q-0.875 0 -1.484375 0.59375q-0.609375 0.59375 -0.671875 1.59375z" fill-rule="nonzero"/><path fill="#000000" fill-opacity="0.0" d="m-285.9199 192.53677l88.06299 0l0 35.307083l-88.06299 0z" fill-rule="evenodd"/><path fill="#000000" d="m-265.05023 213.35115l1.265625 -0.203125q0.109375 0.765625 0.59375 1.171875q0.5 0.40625 1.375 0.40625q0.890625 0 1.3125 -0.359375q0.4375 -0.359375 0.4375 -0.84375q0 -0.4375 -0.375 -0.6875q-0.265625 -0.171875 -1.3125 -0.4375q-1.421875 -0.359375 -1.96875 -0.609375q-0.546875 -0.265625 -0.828125 -0.734375q-0.28125 -0.46875 -0.28125 -1.015625q0 -0.515625 0.21875 -0.9375q0.234375 -0.4375 0.640625 -0.734375q0.296875 -0.21875 0.8125 -0.359375q0.53125 -0.15625 1.125 -0.15625q0.890625 0 1.5625 0.265625q0.671875 0.25 1.0 0.6875q0.328125 0.4375 0.4375 1.171875l-1.25 0.171875q-0.09375 -0.578125 -0.5 -0.90625q-0.40625 -0.34375 -1.15625 -0.34375q-0.890625 0 -1.28125 0.296875q-0.375 0.296875 -0.375 0.6875q0 0.25 0.15625 0.453125q0.15625 0.203125 0.5 0.34375q0.1875 0.078125 1.140625 0.328125q1.359375 0.359375 1.890625 0.59375q0.546875 0.234375 0.859375 0.6875q0.3125 0.4375 0.3125 1.09375q0 0.640625 -0.375 1.21875q-0.375 0.5625 -1.09375 0.875q-0.703125 0.3125 -1.59375 0.3125q-1.484375 0 -2.265625 -0.609375q-0.765625 -0.625 -0.984375 -1.828125zm7.359375 -1.53125q0 -2.109375 1.171875 -3.125q0.984375 -0.84375 2.390625 -0.84375q1.578125 0 2.5625 1.03125q1.0 1.015625 1.0 2.828125q0 1.46875 -0.4375 2.3125q-0.4375 0.828125 -1.28125 1.296875q-0.84375 0.46875 -1.84375 0.46875q-1.59375 0 -2.578125 -1.015625q-0.984375 -1.03125 -0.984375 -2.953125zm1.328125 0q0 1.453125 0.625 2.1875q0.640625 0.71875 1.609375 0.71875q0.96875 0 1.59375 -0.71875q0.640625 -0.734375 0.640625 -2.234375q0 -1.40625 -0.640625 -2.125q-0.640625 -0.734375 -1.59375 -0.734375q-0.96875 0 -1.609375 0.71875q-0.625 0.71875 -0.625 2.1875zm6.791733 1.53125l1.265625 -0.203125q0.109375 0.765625 0.59375 1.171875q0.5 0.40625 1.375 0.40625q0.890625 0 1.3125 -0.359375q0.4375 -0.359375 0.4375 -0.84375q0 -0.4375 -0.375 -0.6875q-0.265625 -0.171875 -1.3125 -0.4375q-1.421875 -0.359375 -1.96875 -0.609375q-0.546875 -0.265625 -0.828125 -0.734375q-0.28125 -0.46875 -0.28125 -1.015625q0 -0.515625 0.21875 -0.9375q0.234375 -0.4375 0.640625 -0.734375q0.296875 -0.21875 0.8125 -0.359375q0.53125 -0.15625 1.125 -0.15625q0.890625 0 1.5625 0.265625q0.671875 0.25 1.0 0.6875q0.328125 0.4375 0.4375 1.171875l-1.25 0.171875q-0.09375 -0.578125 -0.5 -0.90625q-0.40625 -0.34375 -1.15625 -0.34375q-0.890625 0 -1.28125 0.296875q-0.375 0.296875 -0.375 0.6875q0 0.25 0.15625 0.453125q0.15625 0.203125 0.5 0.34375q0.1875 0.078125 1.140625 0.328125q1.359375 0.359375 1.890625 0.59375q0.546875 0.234375 0.859375 0.6875q0.3125 0.4375 0.3125 1.09375q0 0.640625 -0.375 1.21875q-0.375 0.5625 -1.09375 0.875q-0.703125 0.3125 -1.59375 0.3125q-1.484375 0 -2.265625 -0.609375q-0.765625 -0.625 -0.984375 -1.828125zm10.65625 1.109375l0.1875 1.140625q-0.546875 0.109375 -0.984375 0.109375q-0.6875 0 -1.078125 -0.21875q-0.390625 -0.21875 -0.546875 -0.578125q-0.15625 -0.359375 -0.15625 -1.515625l0 -4.375l-0.953125 0l0 -1.0l0.953125 0l0 -1.890625l1.28125 -0.765625l0 2.65625l1.296875 0l0 1.0l-1.296875 0l0 4.4375q0 0.546875 0.0625 0.71875q0.078125 0.15625 0.21875 0.25q0.15625 0.078125 0.453125 0.078125q0.203125 0 0.5625 -0.046875zm1.2594757 -7.859375l0 -1.46875l1.296875 0l0 1.46875l-1.296875 0zm0 9.015625l0 -7.59375l1.296875 0l0 7.59375l-1.296875 0zm6.0686493 -1.15625l0.1875 1.140625q-0.546875 0.109375 -0.984375 0.109375q-0.6875 0 -1.078125 -0.21875q-0.390625 -0.21875 -0.546875 -0.578125q-0.15625 -0.359375 -0.15625 -1.515625l0 -4.375l-0.953125 0l0 -1.0l0.953125 0l0 -1.890625l1.28125 -0.765625l0 2.65625l1.296875 0l0 1.0l-1.296875 0l0 4.4375q0 0.546875 0.0625 0.71875q0.078125 0.15625 0.21875 0.25q0.15625 0.078125 0.453125 0.078125q0.203125 0 0.5625 -0.046875zm6.2438507 1.15625l0 -1.109375q-0.890625 1.28125 -2.421875 1.28125q-0.671875 0 -1.25 -0.25q-0.578125 -0.265625 -0.875 -0.65625q-0.28125 -0.390625 -0.390625 -0.953125q-0.078125 -0.375 -0.078125 -1.203125l0 -4.703125l1.28125 0l0 4.203125q0 1.015625 0.078125 1.359375q0.125 0.515625 0.515625 0.8125q0.40625 0.28125 0.984375 0.28125q0.578125 0 1.078125 -0.296875q0.515625 -0.296875 0.71875 -0.8125q0.21875 -0.515625 0.21875 -1.484375l0 -4.0625l1.28125 0l0 7.59375l-1.140625 0zm3.1667328 -9.015625l0 -1.46875l1.296875 0l0 1.46875l-1.296875 0zm0 9.015625l0 -7.59375l1.296875 0l0 7.59375l-1.296875 0zm3.2405243 0l0 -7.59375l1.15625 0l0 1.140625q0.453125 -0.796875 0.828125 -1.046875q0.375 -0.265625 0.8125 -0.265625q0.65625 0 1.328125 0.40625l-0.4375 1.203125q-0.46875 -0.28125 -0.953125 -0.28125q-0.421875 0 -0.765625 0.25q-0.328125 0.25 -0.46875 0.703125q-0.21875 0.6875 -0.21875 1.5l0 3.984375l-1.28125 0zm10.099396 -2.453125l1.328125 0.171875q-0.3125 1.171875 -1.171875 1.8125q-0.84375 0.640625 -2.171875 0.640625q-1.671875 0 -2.65625 -1.015625q-0.96875 -1.03125 -0.96875 -2.890625q0 -1.921875 0.984375 -2.96875q1.0 -1.0625 2.578125 -1.0625q1.515625 0 2.484375 1.03125q0.96875 1.03125 0.96875 2.921875q0 0.109375 -0.015625 0.34375l-5.65625 0q0.0625 1.25 0.703125 1.921875q0.640625 0.65625 1.59375 0.65625q0.703125 0 1.203125 -0.359375q0.5 -0.375 0.796875 -1.203125zm-4.234375 -2.078125l4.25 0q-0.09375 -0.953125 -0.484375 -1.4375q-0.625 -0.75 -1.609375 -0.75q-0.875 0 -1.484375 0.59375q-0.609375 0.59375 -0.671875 1.59375z" fill-rule="nonzero"/><path fill="#ffffff" d="m262.765 237.69739l48.0 0l0 -24.0l-48.0 0z" fill-rule="evenodd"/><path stroke="#000000" stroke-width="1.0" stroke-linejoin="round" stroke-linecap="butt" d="m262.765 237.69739l48.0 0l0 -24.0l-48.0 0z" fill-rule="evenodd"/><path fill="#000000" fill-opacity="0.0" d="m287.28098 234.83862l19.4534 -8.675568" fill-rule="evenodd"/><path stroke="#000000" stroke-width="2.0" stroke-linejoin="round" stroke-linecap="butt" d="m298.2405 229.95103l8.493866 -3.7879791" fill-rule="evenodd"/><path fill="#000000" stroke="#000000" stroke-width="2.0" stroke-linecap="butt" d="m296.89502 226.934l-6.943756 6.7137604l9.634735 -0.6796875z" fill-rule="evenodd"/><path fill="#000000" fill-opacity="0.0" d="m286.76227 235.69502l0 -20.697006" fill-rule="evenodd"/><path stroke="#000000" stroke-width="2.0" stroke-linejoin="round" stroke-linecap="butt" d="m286.76227 223.69502l0 -8.697006" fill-rule="evenodd"/><path fill="#000000" stroke="#000000" stroke-width="2.0" stroke-linecap="butt" d="m283.45883 223.69502l3.3034363 9.076202l3.3034668 -9.076202z" fill-rule="evenodd"/><path fill="#000000" fill-opacity="0.0" d="m286.24905 234.83862l-19.4534 -8.675568" fill-rule="evenodd"/><path stroke="#000000" stroke-width="2.0" stroke-linejoin="round" stroke-linecap="butt" d="m275.28952 229.95103l-8.493866 -3.7879791" fill-rule="evenodd"/><path fill="#000000" stroke="#000000" stroke-width="2.0" stroke-linecap="butt" d="m273.94403 232.96808l9.634735 0.6796875l-6.943756 -6.7137756z" fill-rule="evenodd"/><path fill="#000000" d="m285.35638 235.00513l0 0c0 0.7685852 0.6230469 1.3916473 1.3916321 1.3916473l0 0c0.3691101 0 0.7230835 -0.1466217 0.9840393 -0.40760803c0.26098633 -0.26098633 0.4076233 -0.6149597 0.4076233 -0.9840393l0 0c0 -0.7685852 -0.6230774 -1.3916473 -1.3916626 -1.3916473l0 0c-0.7685852 0 -1.3916321 0.62306213 -1.3916321 1.3916473z" fill-rule="evenodd"/><path stroke="#000000" stroke-width="1.0" stroke-linejoin="round" stroke-linecap="butt" d="m285.35638 235.00513l0 0c0 0.7685852 0.6230469 1.3916473 1.3916321 1.3916473l0 0c0.3691101 0 0.7230835 -0.1466217 0.9840393 -0.40760803c0.26098633 -0.26098633 0.4076233 -0.6149597 0.4076233 -0.9840393l0 0c0 -0.7685852 -0.6230774 -1.3916473 -1.3916626 -1.3916473l0 0c-0.7685852 0 -1.3916321 0.62306213 -1.3916321 1.3916473z" fill-rule="evenodd"/><path fill="#ffffff" d="m214.76501 237.69739l48.0 0l0 -24.0l-48.0 0z" fill-rule="evenodd"/><path stroke="#000000" stroke-width="1.0" stroke-linejoin="round" stroke-linecap="butt" d="m214.76501 237.69739l48.0 0l0 -24.0l-48.0 0z" fill-rule="evenodd"/><path fill="#000000" fill-opacity="0.0" d="m239.28096 234.83862l19.453415 -8.675568" fill-rule="evenodd"/><path stroke="#000000" stroke-width="2.0" stroke-linejoin="round" stroke-linecap="butt" d="m250.24051 229.95103l8.493866 -3.7879791" fill-rule="evenodd"/><path fill="#000000" stroke="#000000" stroke-width="2.0" stroke-linecap="butt" d="m248.895 226.934l-6.943741 6.7137604l9.634735 -0.6796875z" fill-rule="evenodd"/><path fill="#000000" fill-opacity="0.0" d="m238.76228 235.69502l0 -20.697006" fill-rule="evenodd"/><path stroke="#000000" stroke-width="2.0" stroke-linejoin="round" stroke-linecap="butt" d="m238.76228 223.69502l0 -8.697006" fill-rule="evenodd"/><path fill="#000000" stroke="#000000" stroke-width="2.0" stroke-linecap="butt" d="m235.45882 223.69502l3.3034668 9.076202l3.3034668 -9.076202z" fill-rule="evenodd"/><path fill="#000000" fill-opacity="0.0" d="m238.24907 234.83862l-19.453415 -8.675568" fill-rule="evenodd"/><path stroke="#000000" stroke-width="2.0" stroke-linejoin="round" stroke-linecap="butt" d="m227.28952 229.95103l-8.493851 -3.7879791" fill-rule="evenodd"/><path fill="#000000" stroke="#000000" stroke-width="2.0" stroke-linecap="butt" d="m225.94402 232.96808l9.63475 0.6796875l-6.943741 -6.7137756z" fill-rule="evenodd"/><path fill="#000000" d="m237.35638 235.00513l0 0c0 0.7685852 0.62306213 1.3916473 1.3916473 1.3916473l0 0c0.3690796 0 0.723053 -0.1466217 0.9840393 -0.40760803c0.26098633 -0.26098633 0.40760803 -0.6149597 0.40760803 -0.9840393l0 0c0 -0.7685852 -0.62306213 -1.3916473 -1.3916473 -1.3916473l0 0c-0.7685852 0 -1.3916473 0.62306213 -1.3916473 1.3916473z" fill-rule="evenodd"/><path stroke="#000000" stroke-width="1.0" stroke-linejoin="round" stroke-linecap="butt" d="m237.35638 235.00513l0 0c0 0.7685852 0.62306213 1.3916473 1.3916473 1.3916473l0 0c0.3690796 0 0.723053 -0.1466217 0.9840393 -0.40760803c0.26098633 -0.26098633 0.40760803 -0.6149597 0.40760803 -0.9840393l0 0c0 -0.7685852 -0.62306213 -1.3916473 -1.3916473 -1.3916473l0 0c-0.7685852 0 -1.3916473 0.62306213 -1.3916473 1.3916473z" fill-rule="evenodd"/><path fill="#ffffff" d="m262.765 213.69739l48.0 0l0 -24.0l-48.0 0z" fill-rule="evenodd"/><path stroke="#000000" stroke-width="1.0" stroke-linejoin="round" stroke-linecap="butt" d="m262.765 213.69739l48.0 0l0 -24.0l-48.0 0z" fill-rule="evenodd"/><path fill="#000000" fill-opacity="0.0" d="m287.28098 210.83862l19.4534 -8.675568" fill-rule="evenodd"/><path stroke="#000000" stroke-width="2.0" stroke-linejoin="round" stroke-linecap="butt" d="m287.28098 210.83862l8.493866 -3.7879791" fill-rule="evenodd"/><path fill="#000000" stroke="#000000" stroke-width="2.0" stroke-linecap="butt" d="m297.12033 210.06769l6.943756 -6.7137756l-9.634735 0.6796875z" fill-rule="evenodd"/><path fill="#000000" fill-opacity="0.0" d="m286.76227 211.69502l0 -20.697006" fill-rule="evenodd"/><path stroke="#000000" stroke-width="2.0" stroke-linejoin="round" stroke-linecap="butt" d="m286.76227 211.69502l0 -8.697006" fill-rule="evenodd"/><path fill="#000000" stroke="#000000" stroke-width="2.0" stroke-linecap="butt" d="m290.06573 202.99802l-3.3034668 -9.076202l-3.3034363 9.076202z" fill-rule="evenodd"/><path fill="#000000" fill-opacity="0.0" d="m286.24905 210.83862l-19.4534 -8.675568" fill-rule="evenodd"/><path stroke="#000000" stroke-width="2.0" stroke-linejoin="round" stroke-linecap="butt" d="m286.24905 210.83862l-8.493835 -3.7879791" fill-rule="evenodd"/><path fill="#000000" stroke="#000000" stroke-width="2.0" stroke-linecap="butt" d="m279.1007 204.03362l-9.634735 -0.6796875l6.9437256 6.7137604z" fill-rule="evenodd"/><path fill="#000000" d="m285.35638 211.00513l0 0c0 0.7685852 0.6230469 1.3916473 1.3916321 1.3916473l0 0c0.3691101 0 0.7230835 -0.1466217 0.9840393 -0.40760803c0.26098633 -0.26098633 0.4076233 -0.6149597 0.4076233 -0.9840393l0 0c0 -0.7685852 -0.6230774 -1.3916473 -1.3916626 -1.3916473l0 0c-0.7685852 0 -1.3916321 0.62306213 -1.3916321 1.3916473z" fill-rule="evenodd"/><path stroke="#000000" stroke-width="1.0" stroke-linejoin="round" stroke-linecap="butt" d="m285.35638 211.00513l0 0c0 0.7685852 0.6230469 1.3916473 1.3916321 1.3916473l0 0c0.3691101 0 0.7230835 -0.1466217 0.9840393 -0.40760803c0.26098633 -0.26098633 0.4076233 -0.6149597 0.4076233 -0.9840393l0 0c0 -0.7685852 -0.6230774 -1.3916473 -1.3916626 -1.3916473l0 0c-0.7685852 0 -1.3916321 0.62306213 -1.3916321 1.3916473z" fill-rule="evenodd"/><path fill="#ffffff" d="m214.76501 189.69739l48.0 0l0 24.0l-48.0 0z" fill-rule="evenodd"/><path stroke="#000000" stroke-width="1.0" stroke-linejoin="round" stroke-linecap="butt" d="m214.76501 189.69739l48.0 0l0 24.0l-48.0 0z" fill-rule="evenodd"/><path fill="#000000" fill-opacity="0.0" d="m239.28096 192.55615l19.464584 8.661423" fill-rule="evenodd"/><path stroke="#000000" stroke-width="2.0" stroke-linejoin="round" stroke-linecap="butt" d="m239.28096 192.55614l8.501022 3.7828217" fill-rule="evenodd"/><path fill="#000000" stroke="#000000" stroke-width="2.0" stroke-linecap="butt" d="m246.43896 199.3571l9.635284 0.67178345l-6.949234 -6.708069z" fill-rule="evenodd"/><path fill="#000000" fill-opacity="0.0" d="m238.76228 191.69977l0 20.692902" fill-rule="evenodd"/><path stroke="#000000" stroke-width="2.0" stroke-linejoin="round" stroke-linecap="butt" d="m238.76228 191.69977l0 8.692902" fill-rule="evenodd"/><path fill="#000000" stroke="#000000" stroke-width="2.0" stroke-linecap="butt" d="m235.45882 200.39267l3.3034668 9.076202l3.3034668 -9.076202z" fill-rule="evenodd"/><path fill="#000000" fill-opacity="0.0" d="m238.24907 192.55615l-19.46457 8.661423" fill-rule="evenodd"/><path stroke="#000000" stroke-width="2.0" stroke-linejoin="round" stroke-linecap="butt" d="m238.24905 192.55614l-8.501022 3.7828217" fill-rule="evenodd"/><path fill="#000000" stroke="#000000" stroke-width="2.0" stroke-linecap="butt" d="m228.40501 193.32082l-6.9492493 6.708069l9.635284 -0.67178345z" fill-rule="evenodd"/><path fill="#000000" d="m237.35638 192.38383l0 0c0 -0.7653656 0.6204529 -1.3858185 1.3858337 -1.3858185l0 0c0.36753845 0 0.72003174 0.14601135 0.97991943 0.40589905c0.2598877 0.2598877 0.40589905 0.612381 0.40589905 0.97991943l0 0c0 0.76538086 -0.6204529 1.3858337 -1.3858185 1.3858337l0 0c-0.76538086 0 -1.3858337 -0.6204529 -1.3858337 -1.3858337z" fill-rule="evenodd"/><path stroke="#000000" stroke-width="1.0" stroke-linejoin="round" stroke-linecap="butt" d="m237.35638 192.38383l0 0c0 -0.7653656 0.6204529 -1.3858185 1.3858337 -1.3858185l0 0c0.36753845 0 0.72003174 0.14601135 0.97991943 0.40589905c0.2598877 0.2598877 0.40589905 0.612381 0.40589905 0.97991943l0 0c0 0.76538086 -0.6204529 1.3858337 -1.3858185 1.3858337l0 0c-0.76538086 0 -1.3858337 -0.6204529 -1.3858337 -1.3858337z" fill-rule="evenodd"/><path fill="#ffffff" d="m214.76501 165.69739l48.0 0l0 24.0l-48.0 0z" fill-rule="evenodd"/><path stroke="#000000" stroke-width="1.0" stroke-linejoin="round" stroke-linecap="butt" d="m214.76501 165.69739l48.0 0l0 24.0l-48.0 0z" fill-rule="evenodd"/><path fill="#ffffff" d="m212.98549 107.58721l0 0c0 -1.4901886 1.2080383 -2.6982193 2.6982117 -2.6982193l35.894913 0c0.7156067 0 1.4019165 0.28427124 1.9079285 0.79029083c0.50601196 0.50601196 0.7902832 1.1923141 0.7902832 1.9079285l0 10.7925415c0 1.490181 -1.2080383 2.6982117 -2.6982117 2.6982117l-35.894913 0l0 0c-1.4901733 0 -2.6982117 -1.2080307 -2.6982117 -2.6982117z" fill-rule="evenodd"/><path stroke="#000000" stroke-width="1.0" stroke-linejoin="round" stroke-linecap="butt" d="m212.98549 107.58721l0 0c0 -1.4901886 1.2080383 -2.6982193 2.6982117 -2.6982193l35.894913 0c0.7156067 0 1.4019165 0.28427124 1.9079285 0.79029083c0.50601196 0.50601196 0.7902832 1.1923141 0.7902832 1.9079285l0 10.7925415c0 1.490181 -1.2080383 2.6982117 -2.6982117 2.6982117l-35.894913 0l0 0c-1.4901733 0 -2.6982117 -1.2080307 -2.6982117 -2.6982117z" fill-rule="evenodd"/><path fill="#ffffff" d="m229.24796 109.11475l0 0c0 -1.0350113 0.83903503 -1.874054 1.874054 -1.874054l19.18103 0c0.49702454 0 0.97369385 0.1974411 1.3251495 0.5488968c0.3514557 0.35144806 0.5489044 0.828125 0.5489044 1.3251572l0 7.495987c0 1.0350113 -0.8390503 1.874054 -1.874054 1.874054l-19.18103 0l0 0c-1.0350189 0 -1.874054 -0.83904266 -1.874054 -1.874054z" fill-rule="evenodd"/><path stroke="#999999" stroke-width="1.0" stroke-linejoin="round" stroke-linecap="butt" d="m229.24796 109.11475l0 0c0 -1.0350113 0.83903503 -1.874054 1.874054 -1.874054l19.18103 0c0.49702454 0 0.97369385 0.1974411 1.3251495 0.5488968c0.3514557 0.35144806 0.5489044 0.828125 0.5489044 1.3251572l0 7.495987c0 1.0350113 -0.8390503 1.874054 -1.874054 1.874054l-19.18103 0l0 0c-1.0350189 0 -1.874054 -0.83904266 -1.874054 -1.874054z" fill-rule="evenodd"/><path fill="#000000" fill-opacity="0.0" d="m221.13094 187.38528l0 0c-0.9579468 0 -1.7345123 -1.1112976 -1.7345123 -2.4821472l0 -14.71196l0 0c0 -1.3708496 0.77656555 -2.4821472 1.7345123 -2.4821472z" fill-rule="evenodd"/><path fill="#000000" fill-opacity="0.0" d="m221.13094 187.38528l0 0c-0.9579468 0 -1.7345123 -1.1112976 -1.7345123 -2.4821472l0 -14.71196l0 0c0 -1.3708496 0.77656555 -2.4821472 1.7345123 -2.4821472" fill-rule="evenodd"/><path stroke="#000000" stroke-width="2.0" stroke-linejoin="round" stroke-linecap="butt" d="m221.13094 187.38528l0 0c-0.9579468 0 -1.7345123 -1.1112976 -1.7345123 -2.4821472l0 -14.71196l0 0c0 -1.3708496 0.77656555 -2.4821472 1.7345123 -2.4821472" fill-rule="evenodd"/><path fill="#000000" fill-opacity="0.0" d="m257.37643 187.38528l0 0c0.9579468 0 1.7344971 -1.1112976 1.7344971 -2.4821472l0 -14.71196l0 0c0 -1.3708496 -0.7765503 -2.4821472 -1.7344971 -2.4821472z" fill-rule="evenodd"/><path fill="#000000" fill-opacity="0.0" d="m257.37643 187.38528l0 0c0.9579468 0 1.7344971 -1.1112976 1.7344971 -2.4821472l0 -14.71196l0 0c0 -1.3708496 -0.7765503 -2.4821472 -1.7344971 -2.4821472" fill-rule="evenodd"/><path stroke="#000000" stroke-width="2.0" stroke-linejoin="round" stroke-linecap="butt" d="m257.37643 187.38528l0 0c0.9579468 0 1.7344971 -1.1112976 1.7344971 -2.4821472l0 -14.71196l0 0c0 -1.3708496 -0.7765503 -2.4821472 -1.7344971 -2.4821472" fill-rule="evenodd"/><path fill="#000000" fill-opacity="0.0" d="m237.06725 183.8001l0 0c-0.9579468 0 -1.7345276 -1.1112976 -1.7345276 -2.4821472l0 -7.541565l0 0c0 -1.3708496 0.7765808 -2.4821472 1.7345276 -2.4821472z" fill-rule="evenodd"/><path fill="#000000" fill-opacity="0.0" d="m237.06725 183.8001l0 0c-0.9579468 0 -1.7345276 -1.1112976 -1.7345276 -2.4821472l0 -7.541565l0 0c0 -1.3708496 0.7765808 -2.4821472 1.7345276 -2.4821472" fill-rule="evenodd"/><path stroke="#b7b7b7" stroke-width="2.0" stroke-linejoin="round" stroke-linecap="butt" d="m237.06725 183.8001l0 0c-0.9579468 0 -1.7345276 -1.1112976 -1.7345276 -2.4821472l0 -7.541565l0 0c0 -1.3708496 0.7765808 -2.4821472 1.7345276 -2.4821472" fill-rule="evenodd"/><path fill="#000000" fill-opacity="0.0" d="m253.74785 183.8001l0 0c0.9579468 0 1.7345276 -1.1112976 1.7345276 -2.4821472l0 -7.541565l0 0c0 -1.3708496 -0.7765808 -2.4821472 -1.7345276 -2.4821472z" fill-rule="evenodd"/><path fill="#000000" fill-opacity="0.0" d="m253.74785 183.8001l0 0c0.9579468 0 1.7345276 -1.1112976 1.7345276 -2.4821472l0 -7.541565l0 0c0 -1.3708496 -0.7765808 -2.4821472 -1.7345276 -2.4821472" fill-rule="evenodd"/><path stroke="#b7b7b7" stroke-width="2.0" stroke-linejoin="round" stroke-linecap="butt" d="m253.74785 183.8001l0 0c0.9579468 0 1.7345276 -1.1112976 1.7345276 -2.4821472l0 -7.541565l0 0c0 -1.3708496 -0.7765808 -2.4821472 -1.7345276 -2.4821472" fill-rule="evenodd"/><path fill="#ffffff" d="m214.76501 141.69739l48.0 0l0 24.0l-48.0 0z" fill-rule="evenodd"/><path stroke="#000000" stroke-width="1.0" stroke-linejoin="round" stroke-linecap="butt" d="m214.76501 141.69739l48.0 0l0 24.0l-48.0 0z" fill-rule="evenodd"/><path fill="#000000" fill-opacity="0.0" d="m225.83606 151.2589l0 0c2.0608063 -2.8924103 5.8529663 -4.8937225 10.22493 -5.3962097c4.3719635 -0.5024872 8.807922 0.55311584 11.960846 2.846283l-9.811005 7.361618z" fill-rule="evenodd"/><path fill="#000000" fill-opacity="0.0" d="m225.83606 151.2589l0 0c2.0608063 -2.8924103 5.8529663 -4.8937225 10.22493 -5.3962097c4.3719635 -0.5024872 8.807922 0.55311584 11.960846 2.846283" fill-rule="evenodd"/><path stroke="#000000" stroke-width="2.0" stroke-linejoin="round" stroke-linecap="butt" d="m225.83606 151.2589l0 0c2.0608063 -2.8924103 5.852951 -4.8937225 10.22493 -5.3962097c1.0929871 -0.12562561 2.189972 -0.15385437 3.269928 -0.08973694l0.17897034 0.012573242" fill-rule="evenodd"/><path fill="#000000" stroke="#000000" stroke-width="2.0" stroke-linecap="butt" d="m238.7915 147.87715l6.4650726 -0.11791992l-5.0283203 -4.065338z" fill-rule="evenodd"/><path fill="#ffffff" d="m247.93721 152.93361l0 0c0 1.3220062 1.0716858 2.3937073 2.393692 2.3937073l0 0c0.6348572 0 1.2436981 -0.25219727 1.6926117 -0.7010956c0.44889832 -0.44891357 0.7010956 -1.0577545 0.7010956 -1.6926117l0 0c0 -1.3220062 -1.071701 -2.393692 -2.3937073 -2.393692l0 0c-1.3220062 0 -2.393692 1.0716858 -2.393692 2.393692z" fill-rule="evenodd"/><path stroke="#000000" stroke-width="2.0" stroke-linejoin="round" stroke-linecap="butt" d="m247.93721 152.93361l0 0c0 1.3220062 1.0716858 2.3937073 2.393692 2.3937073l0 0c0.6348572 0 1.2436981 -0.25219727 1.6926117 -0.7010956c0.44889832 -0.44891357 0.7010956 -1.0577545 0.7010956 -1.6926117l0 0c0 -1.3220062 -1.071701 -2.393692 -2.3937073 -2.393692l0 0c-1.3220062 0 -2.393692 1.0716858 -2.393692 2.393692z" fill-rule="evenodd"/><path fill="#ffffff" d="m226.47847 154.4757l0 0c0 -1.3220062 -1.071701 -2.393692 -2.3937073 -2.393692l0 0c-0.6348419 0 -1.2436981 0.252182 -1.6925964 0.7010956c-0.44891357 0.44889832 -0.70111084 1.0577545 -0.70111084 1.6925964l0 0c0 1.3220062 1.071701 2.3937073 2.3937073 2.3937073l0 0c1.3220062 0 2.3937073 -1.071701 2.3937073 -2.3937073z" fill-rule="evenodd"/><path stroke="#000000" stroke-width="2.0" stroke-linejoin="round" stroke-linecap="butt" d="m226.47847 154.4757l0 0c0 -1.3220062 -1.071701 -2.393692 -2.3937073 -2.393692l0 0c-0.6348419 0 -1.2436981 0.252182 -1.6925964 0.7010956c-0.44891357 0.44889832 -0.70111084 1.0577545 -0.70111084 1.6925964l0 0c0 1.3220062 1.071701 2.3937073 2.3937073 2.3937073l0 0c1.3220062 0 2.3937073 -1.071701 2.3937073 -2.3937073z" fill-rule="evenodd"/><path fill="#000000" fill-opacity="0.0" d="m248.9606 156.06978l0 0c-2.0608215 2.8924103 -5.8529663 4.8937225 -10.22493 5.3962097c-4.3719635 0.5024872 -8.807922 -0.55311584 -11.960846 -2.846283l9.811005 -7.361618z" fill-rule="evenodd"/><path fill="#000000" fill-opacity="0.0" d="m248.9606 156.06978l0 0c-2.0608215 2.8924103 -5.8529663 4.8937225 -10.22493 5.3962097c-4.3719635 0.5024872 -8.807922 -0.55311584 -11.960846 -2.846283" fill-rule="evenodd"/><path stroke="#000000" stroke-width="2.0" stroke-linejoin="round" stroke-linecap="butt" d="m248.9606 156.06978l0 0c-2.0608063 2.8924103 -5.8529663 4.8937225 -10.22493 5.3962097c-1.0930023 0.12562561 -2.1899872 0.15386963 -3.2699432 0.08973694l-0.17893982 -0.012557983" fill-rule="evenodd"/><path fill="#000000" stroke="#000000" stroke-width="2.0" stroke-linecap="butt" d="m236.00516 159.45154l-6.4650726 0.11790466l5.0283203 4.0653534z" fill-rule="evenodd"/><path fill="#ffffff" d="m326.0931 215.899l48.0 0l0 -24.0l-48.0 0z" fill-rule="evenodd"/><path stroke="#000000" stroke-width="1.0" stroke-linejoin="round" stroke-linecap="butt" d="m326.0931 215.899l48.0 0l0 -24.0l-48.0 0z" fill-rule="evenodd"/><path fill="#ffffff" d="m326.0931 167.899l48.0 0l0 24.0l-48.0 0z" fill-rule="evenodd"/><path stroke="#000000" stroke-width="1.0" stroke-linejoin="round" stroke-linecap="butt" d="m326.0931 167.899l48.0 0l0 24.0l-48.0 0z" fill-rule="evenodd"/><path fill="#000000" fill-opacity="0.0" d="m350.49374 172.80241l15.114227 6.725586" fill-rule="evenodd"/><path stroke="#000000" stroke-width="1.0" stroke-linejoin="round" stroke-linecap="butt" d="m350.4937 172.80241l9.632477 4.2862854" fill-rule="evenodd"/><path fill="#000000" stroke="#000000" stroke-width="1.0" stroke-linecap="butt" d="m359.4547 178.59778l4.817627 0.33589172l-3.4746094 -3.3540344z" fill-rule="evenodd"/><path fill="#000000" fill-opacity="0.0" d="m350.09097 172.13742l0 16.068054" fill-rule="evenodd"/><path stroke="#000000" stroke-width="1.0" stroke-linejoin="round" stroke-linecap="butt" d="m350.09097 172.13742l0 10.068069" fill-rule="evenodd"/><path fill="#000000" stroke="#000000" stroke-width="1.0" stroke-linecap="butt" d="m348.43924 182.20549l1.6517334 4.538086l1.6517334 -4.538086z" fill-rule="evenodd"/><path fill="#000000" fill-opacity="0.0" d="m349.69247 172.80241l-15.114258 6.725586" fill-rule="evenodd"/><path stroke="#000000" stroke-width="1.0" stroke-linejoin="round" stroke-linecap="butt" d="m349.69247 172.80241l-9.632477 4.2862854" fill-rule="evenodd"/><path fill="#000000" stroke="#000000" stroke-width="1.0" stroke-linecap="butt" d="m339.3885 175.57964l-3.47464 3.3540344l4.8176575 -0.33589172z" fill-rule="evenodd"/><path fill="#000000" d="m348.9993 172.66861l0 0c0 -0.5942993 0.481781 -1.0760956 1.0760803 -1.0760956l0 0c0.2854004 0 0.55911255 0.11338806 0.7609253 0.31518555c0.20181274 0.20181274 0.31518555 0.4755249 0.31518555 0.76091003l0 0c0 0.5943146 -0.481781 1.0760956 -1.0761108 1.0760956l0 0c-0.5942993 0 -1.0760803 -0.481781 -1.0760803 -1.0760956z" fill-rule="evenodd"/><path stroke="#000000" stroke-width="1.0" stroke-linejoin="round" stroke-linecap="butt" d="m348.9993 172.66861l0 0c0 -0.5942993 0.481781 -1.0760956 1.0760803 -1.0760956l0 0c0.2854004 0 0.55911255 0.11338806 0.7609253 0.31518555c0.20181274 0.20181274 0.31518555 0.4755249 0.31518555 0.76091003l0 0c0 0.5943146 -0.481781 1.0760956 -1.0761108 1.0760956l0 0c-0.5942993 0 -1.0760803 -0.481781 -1.0760803 -1.0760956z" fill-rule="evenodd"/><path fill="#ffffff" d="m326.0931 143.899l48.0 0l0 24.0l-48.0 0z" fill-rule="evenodd"/><path stroke="#000000" stroke-width="1.0" stroke-linejoin="round" stroke-linecap="butt" d="m326.0931 143.899l48.0 0l0 24.0l-48.0 0z" fill-rule="evenodd"/><path fill="#000000" fill-opacity="0.0" d="m332.459 165.5869l0 0c-0.9579468 0 -1.7344971 -1.1112976 -1.7344971 -2.4821472l0 -14.71196l0 0c0 -1.3708496 0.7765503 -2.4821472 1.7344971 -2.4821472z" fill-rule="evenodd"/><path fill="#000000" fill-opacity="0.0" d="m332.459 165.5869l0 0c-0.9579468 0 -1.7344971 -1.1112976 -1.7344971 -2.4821472l0 -14.71196l0 0c0 -1.3708496 0.7765503 -2.4821472 1.7344971 -2.4821472" fill-rule="evenodd"/><path stroke="#000000" stroke-width="1.0" stroke-linejoin="round" stroke-linecap="butt" d="m332.459 165.5869l0 0c-0.9579468 0 -1.7344971 -1.1112976 -1.7344971 -2.4821472l0 -14.71196l0 0c0 -1.3708496 0.7765503 -2.4821472 1.7344971 -2.4821472" fill-rule="evenodd"/><path fill="#000000" fill-opacity="0.0" d="m368.7045 165.5869l0 0c0.9579468 0 1.7345276 -1.1112976 1.7345276 -2.4821472l0 -14.71196l0 0c0 -1.3708496 -0.7765808 -2.4821472 -1.7345276 -2.4821472z" fill-rule="evenodd"/><path fill="#000000" fill-opacity="0.0" d="m368.7045 165.5869l0 0c0.9579468 0 1.7345276 -1.1112976 1.7345276 -2.4821472l0 -14.71196l0 0c0 -1.3708496 -0.7765808 -2.4821472 -1.7345276 -2.4821472" fill-rule="evenodd"/><path stroke="#000000" stroke-width="1.0" stroke-linejoin="round" stroke-linecap="butt" d="m368.7045 165.5869l0 0c0.9579468 0 1.7345276 -1.1112976 1.7345276 -2.4821472l0 -14.71196l0 0c0 -1.3708496 -0.7765808 -2.4821472 -1.7345276 -2.4821472" fill-rule="evenodd"/><path fill="#000000" fill-opacity="0.0" d="m348.39532 162.0017l0 0c-0.9579468 0 -1.7345276 -1.1112976 -1.7345276 -2.4821472l0 -7.5415497l0 0c0 -1.3708496 0.7765808 -2.4821472 1.7345276 -2.4821472z" fill-rule="evenodd"/><path fill="#000000" fill-opacity="0.0" d="m348.39532 162.0017l0 0c-0.9579468 0 -1.7345276 -1.1112976 -1.7345276 -2.4821472l0 -7.5415497l0 0c0 -1.3708496 0.7765808 -2.4821472 1.7345276 -2.4821472" fill-rule="evenodd"/><path stroke="#b7b7b7" stroke-width="1.0" stroke-linejoin="round" stroke-linecap="butt" d="m348.39532 162.0017l0 0c-0.9579468 0 -1.7345276 -1.1112976 -1.7345276 -2.4821472l0 -7.5415497l0 0c0 -1.3708496 0.7765808 -2.4821472 1.7345276 -2.4821472" fill-rule="evenodd"/><path fill="#000000" fill-opacity="0.0" d="m365.07593 162.0017l0 0c0.9579468 0 1.7345276 -1.1112976 1.7345276 -2.4821472l0 -7.5415497l0 0c0 -1.3708496 -0.7765808 -2.4821472 -1.7345276 -2.4821472z" fill-rule="evenodd"/><path fill="#000000" fill-opacity="0.0" d="m365.07593 162.0017l0 0c0.9579468 0 1.7345276 -1.1112976 1.7345276 -2.4821472l0 -7.5415497l0 0c0 -1.3708496 -0.7765808 -2.4821472 -1.7345276 -2.4821472" fill-rule="evenodd"/><path stroke="#b7b7b7" stroke-width="1.0" stroke-linejoin="round" stroke-linecap="butt" d="m365.07593 162.0017l0 0c0.9579468 0 1.7345276 -1.1112976 1.7345276 -2.4821472l0 -7.5415497l0 0c0 -1.3708496 -0.7765808 -2.4821472 -1.7345276 -2.4821472" fill-rule="evenodd"/><path fill="#ffffff" d="m326.0931 119.898994l48.0 0l0 24.000008l-48.0 0z" fill-rule="evenodd"/><path stroke="#000000" stroke-width="1.0" stroke-linejoin="round" stroke-linecap="butt" d="m326.0931 119.898994l48.0 0l0 24.000008l-48.0 0z" fill-rule="evenodd"/><path fill="#000000" fill-opacity="0.0" d="m337.16415 129.4605l0 0c2.060791 -2.8924026 5.852936 -4.8937073 10.224915 -5.396202c4.3719482 -0.5024948 8.807922 0.55311584 11.960846 2.846283l-9.811005 7.3616104z" fill-rule="evenodd"/><path fill="#000000" fill-opacity="0.0" d="m337.16415 129.4605l0 0c2.060791 -2.8924026 5.852936 -4.8937073 10.224915 -5.396202c4.3719482 -0.5024948 8.807922 0.55311584 11.960846 2.846283" fill-rule="evenodd"/><path stroke="#000000" stroke-width="1.0" stroke-linejoin="round" stroke-linecap="butt" d="m337.16415 129.4605l0 0c2.060791 -2.8924103 5.852936 -4.8937073 10.224915 -5.396202c2.1859741 -0.25123596 4.38797 -0.112960815 6.4375305 0.37477875c0.51242065 0.12193298 1.0153198 0.2657013 1.5060425 0.43068695l0.005645752 0.0019836426" fill-rule="evenodd"/><path fill="#000000" stroke="#000000" stroke-width="1.0" stroke-linecap="butt" d="m354.83728 125.857506l3.209381 0.39071655l-2.2073975 -2.3622513z" fill-rule="evenodd"/><path fill="#ffffff" d="m359.2653 131.13522l0 0c0 1.3220062 1.0716858 2.393692 2.3937073 2.393692l0 0c0.6348572 0 1.2436829 -0.252182 1.6925964 -0.7010956c0.44891357 -0.44889832 0.70111084 -1.0577545 0.70111084 -1.6925964l0 0c0 -1.3220062 -1.0717163 -2.3937073 -2.3937073 -2.3937073l0 0c-1.3220215 0 -2.3937073 1.071701 -2.3937073 2.3937073z" fill-rule="evenodd"/><path stroke="#000000" stroke-width="1.0" stroke-linejoin="round" stroke-linecap="butt" d="m359.2653 131.13522l0 0c0 1.3220062 1.0716858 2.393692 2.3937073 2.393692l0 0c0.6348572 0 1.2436829 -0.252182 1.6925964 -0.7010956c0.44891357 -0.44889832 0.70111084 -1.0577545 0.70111084 -1.6925964l0 0c0 -1.3220062 -1.0717163 -2.3937073 -2.3937073 -2.3937073l0 0c-1.3220215 0 -2.3937073 1.071701 -2.3937073 2.3937073z" fill-rule="evenodd"/><path fill="#ffffff" d="m337.80655 132.6773l0 0c0 -1.3220062 -1.0716858 -2.3937073 -2.3937073 -2.3937073l0 0c-0.6348572 0 -1.2436829 0.25219727 -1.6925964 0.7010956c-0.44891357 0.44891357 -0.70111084 1.0577545 -0.70111084 1.6926117l0 0c0 1.3220062 1.0717163 2.393692 2.3937073 2.393692l0 0c1.3220215 0 2.3937073 -1.0716858 2.3937073 -2.393692z" fill-rule="evenodd"/><path stroke="#000000" stroke-width="1.0" stroke-linejoin="round" stroke-linecap="butt" d="m337.80655 132.6773l0 0c0 -1.3220062 -1.0716858 -2.3937073 -2.3937073 -2.3937073l0 0c-0.6348572 0 -1.2436829 0.25219727 -1.6925964 0.7010956c-0.44891357 0.44891357 -0.70111084 1.0577545 -0.70111084 1.6926117l0 0c0 1.3220062 1.0717163 2.393692 2.3937073 2.393692l0 0c1.3220215 0 2.3937073 -1.0716858 2.3937073 -2.393692z" fill-rule="evenodd"/><path fill="#000000" fill-opacity="0.0" d="m360.2887 134.2714l0 0c-2.0608215 2.8924103 -5.8529663 4.8937073 -10.224945 5.3962097c-4.3719482 0.5024872 -8.807922 -0.5531311 -11.960846 -2.846283l9.811005 -7.3616333z" fill-rule="evenodd"/><path fill="#000000" fill-opacity="0.0" d="m360.2887 134.2714l0 0c-2.0608215 2.8924103 -5.8529663 4.8937073 -10.224945 5.3962097c-4.3719482 0.5024872 -8.807922 -0.5531311 -11.960846 -2.846283" fill-rule="evenodd"/><path stroke="#000000" stroke-width="1.0" stroke-linejoin="round" stroke-linecap="butt" d="m360.28867 134.2714l0 0c-2.0608215 2.8924103 -5.852936 4.8937225 -10.224884 5.3962097c-2.1860046 0.25123596 -4.38797 0.112960815 -6.437561 -0.37477112c-0.51242065 -0.12194824 -1.0152893 -0.26571655 -1.506012 -0.43070984l-0.0056762695 -0.0019836426" fill-rule="evenodd"/><path fill="#000000" stroke="#000000" stroke-width="1.0" stroke-linecap="butt" d="m342.61554 137.87437l-3.209381 -0.39071655l2.207367 2.362259z" fill-rule="evenodd"/><path fill="#ffffff" d="m374.0931 167.899l48.0 0l0 24.0l-48.0 0z" fill-rule="evenodd"/><path stroke="#000000" stroke-width="1.0" stroke-linejoin="round" stroke-linecap="butt" d="m374.0931 167.899l48.0 0l0 24.0l-48.0 0z" fill-rule="evenodd"/><path fill="#000000" fill-opacity="0.0" d="m398.49374 186.99557l15.114227 -6.725586" fill-rule="evenodd"/><path stroke="#000000" stroke-width="1.0" stroke-linejoin="round" stroke-linecap="butt" d="m398.4937 186.99557l9.632477 -4.2863007" fill-rule="evenodd"/><path fill="#000000" stroke="#000000" stroke-width="1.0" stroke-linecap="butt" d="m408.79773 184.21835l3.4746094 -3.3540192l-4.817627 0.33587646z" fill-rule="evenodd"/><path fill="#000000" fill-opacity="0.0" d="m398.09097 187.66057l0 -16.068054" fill-rule="evenodd"/><path stroke="#000000" stroke-width="1.0" stroke-linejoin="round" stroke-linecap="butt" d="m398.09097 187.66058l0 -10.068069" fill-rule="evenodd"/><path fill="#000000" stroke="#000000" stroke-width="1.0" stroke-linecap="butt" d="m399.7427 177.59251l-1.6517334 -4.538086l-1.6517334 4.538086z" fill-rule="evenodd"/><path fill="#000000" fill-opacity="0.0" d="m397.69247 186.99557l-15.114258 -6.725586" fill-rule="evenodd"/><path stroke="#000000" stroke-width="1.0" stroke-linejoin="round" stroke-linecap="butt" d="m397.69247 186.99557l-9.632446 -4.2862854" fill-rule="evenodd"/><path fill="#000000" stroke="#000000" stroke-width="1.0" stroke-linecap="butt" d="m388.73154 181.20023l-4.8176575 -0.33589172l3.47464 3.3540344z" fill-rule="evenodd"/><path fill="#000000" d="m396.9993 187.12938l0 0c0 0.5943146 0.481781 1.0760956 1.0760803 1.0760956l0 0c0.2854004 0 0.55911255 -0.1133728 0.7609253 -0.31518555c0.20181274 -0.20179749 0.31518555 -0.47550964 0.31518555 -0.76091003l0 0c0 -0.5943146 -0.481781 -1.0760956 -1.0761108 -1.0760956l0 0c-0.5942993 0 -1.0760803 0.481781 -1.0760803 1.0760956z" fill-rule="evenodd"/><path stroke="#000000" stroke-width="1.0" stroke-linejoin="round" stroke-linecap="butt" d="m396.9993 187.12938l0 0c0 0.5943146 0.481781 1.0760956 1.0760803 1.0760956l0 0c0.2854004 0 0.55911255 -0.1133728 0.7609253 -0.31518555c0.20181274 -0.20179749 0.31518555 -0.47550964 0.31518555 -0.76091003l0 0c0 -0.5943146 -0.481781 -1.0760956 -1.0761108 -1.0760956l0 0c-0.5942993 0 -1.0760803 0.481781 -1.0760803 1.0760956z" fill-rule="evenodd"/><path fill="#000000" fill-opacity="0.0" d="m350.49374 196.80241l15.114227 6.725586" fill-rule="evenodd"/><path stroke="#000000" stroke-width="1.0" stroke-linejoin="round" stroke-linecap="butt" d="m355.97552 199.24171l9.632446 4.2863007" fill-rule="evenodd"/><path fill="#000000" stroke="#000000" stroke-width="1.0" stroke-linecap="butt" d="m356.647 197.73264l-4.817627 -0.33589172l3.4746094 3.3540344z" fill-rule="evenodd"/><path fill="#000000" fill-opacity="0.0" d="m350.09097 196.13742l0 16.068054" fill-rule="evenodd"/><path stroke="#000000" stroke-width="1.0" stroke-linejoin="round" stroke-linecap="butt" d="m350.09097 202.13742l0 10.068069" fill-rule="evenodd"/><path fill="#000000" stroke="#000000" stroke-width="1.0" stroke-linecap="butt" d="m351.7427 202.13742l-1.6517334 -4.538086l-1.6517334 4.538086z" fill-rule="evenodd"/><path fill="#000000" fill-opacity="0.0" d="m349.69247 196.80241l-15.114258 6.725586" fill-rule="evenodd"/><path stroke="#000000" stroke-width="1.0" stroke-linejoin="round" stroke-linecap="butt" d="m344.21072 199.24171l-9.632507 4.2863007" fill-rule="evenodd"/><path fill="#000000" stroke="#000000" stroke-width="1.0" stroke-linecap="butt" d="m344.8822 200.75078l3.47464 -3.3540344l-4.8176575 0.33590698z" fill-rule="evenodd"/><path fill="#000000" d="m348.9993 196.66861l0 0c0 -0.5942993 0.481781 -1.0760956 1.0760803 -1.0760956l0 0c0.2854004 0 0.55911255 0.11338806 0.7609253 0.31518555c0.20181274 0.20181274 0.31518555 0.4755249 0.31518555 0.76091003l0 0c0 0.5943146 -0.481781 1.0760956 -1.0761108 1.0760956l0 0c-0.5942993 0 -1.0760803 -0.481781 -1.0760803 -1.0760956z" fill-rule="evenodd"/><path stroke="#000000" stroke-width="1.0" stroke-linejoin="round" stroke-linecap="butt" d="m348.9993 196.66861l0 0c0 -0.5942993 0.481781 -1.0760956 1.0760803 -1.0760956l0 0c0.2854004 0 0.55911255 0.11338806 0.7609253 0.31518555c0.20181274 0.20181274 0.31518555 0.4755249 0.31518555 0.76091003l0 0c0 0.5943146 -0.481781 1.0760956 -1.0761108 1.0760956l0 0c-0.5942993 0 -1.0760803 -0.481781 -1.0760803 -1.0760956z" fill-rule="evenodd"/><path fill="#ffffff" d="m374.0931 215.899l48.0 0l0 -24.0l-48.0 0z" fill-rule="evenodd"/><path stroke="#000000" stroke-width="1.0" stroke-linejoin="round" stroke-linecap="butt" d="m374.0931 215.899l48.0 0l0 -24.0l-48.0 0z" fill-rule="evenodd"/><path fill="#000000" fill-opacity="0.0" d="m398.49374 210.99557l15.114227 -6.725586" fill-rule="evenodd"/><path stroke="#000000" stroke-width="1.0" stroke-linejoin="round" stroke-linecap="butt" d="m403.97552 208.55629l9.632446 -4.2863007" fill-rule="evenodd"/><path fill="#000000" stroke="#000000" stroke-width="1.0" stroke-linecap="butt" d="m403.304 207.04721l-3.4746094 3.3540192l4.817627 -0.33587646z" fill-rule="evenodd"/><path fill="#000000" fill-opacity="0.0" d="m398.09097 211.66057l0 -16.068054" fill-rule="evenodd"/><path stroke="#000000" stroke-width="1.0" stroke-linejoin="round" stroke-linecap="butt" d="m398.09097 205.66058l0 -10.068069" fill-rule="evenodd"/><path fill="#000000" stroke="#000000" stroke-width="1.0" stroke-linecap="butt" d="m396.43924 205.66058l1.6517334 4.538086l1.6517334 -4.538086z" fill-rule="evenodd"/><path fill="#000000" fill-opacity="0.0" d="m397.69247 210.99557l-15.114258 -6.725586" fill-rule="evenodd"/><path stroke="#000000" stroke-width="1.0" stroke-linejoin="round" stroke-linecap="butt" d="m392.21066 208.55626l-9.632416 -4.28627" fill-rule="evenodd"/><path fill="#000000" stroke="#000000" stroke-width="1.0" stroke-linecap="butt" d="m391.53918 210.06534l4.817627 0.33589172l-3.4746094 -3.3540344z" fill-rule="evenodd"/><path fill="#000000" d="m396.9993 211.12938l0 0c0 0.5943146 0.481781 1.0760956 1.0760803 1.0760956l0 0c0.2854004 0 0.55911255 -0.1133728 0.7609253 -0.31518555c0.20181274 -0.20179749 0.31518555 -0.47550964 0.31518555 -0.76091003l0 0c0 -0.5943146 -0.481781 -1.0760956 -1.0761108 -1.0760956l0 0c-0.5942993 0 -1.0760803 0.481781 -1.0760803 1.0760956z" fill-rule="evenodd"/><path stroke="#000000" stroke-width="1.0" stroke-linejoin="round" stroke-linecap="butt" d="m396.9993 211.12938l0 0c0 0.5943146 0.481781 1.0760956 1.0760803 1.0760956l0 0c0.2854004 0 0.55911255 -0.1133728 0.7609253 -0.31518555c0.20181274 -0.20179749 0.31518555 -0.47550964 0.31518555 -0.76091003l0 0c0 -0.5943146 -0.481781 -1.0760956 -1.0761108 -1.0760956l0 0c-0.5942993 0 -1.0760803 0.481781 -1.0760803 1.0760956z" fill-rule="evenodd"/><path fill="#ffffff" d="m326.0931 215.899l48.0 0l0 24.0l-48.0 0z" fill-rule="evenodd"/><path stroke="#000000" stroke-width="1.0" stroke-linejoin="round" stroke-linecap="butt" d="m326.0931 215.899l48.0 0l0 24.0l-48.0 0z" fill-rule="evenodd"/><path fill="#000000" fill-opacity="0.0" d="m337.16415 225.4605l0 0c2.060791 -2.8924103 5.852936 -4.8937073 10.224915 -5.3962097c4.3719482 -0.5024872 8.807922 0.5531311 11.960846 2.846283l-9.811005 7.361618z" fill-rule="evenodd"/><path fill="#000000" fill-opacity="0.0" d="m337.16415 225.4605l0 0c2.060791 -2.8924103 5.852936 -4.8937073 10.224915 -5.3962097c4.3719482 -0.5024872 8.807922 0.5531311 11.960846 2.846283" fill-rule="evenodd"/><path stroke="#000000" stroke-width="1.0" stroke-linejoin="round" stroke-linecap="butt" d="m337.16415 225.46048l0 0c2.060791 -2.8923798 5.852936 -4.893692 10.224915 -5.3961945c2.1859741 -0.25125122 4.38797 -0.112960815 6.4375305 0.37477112c0.51242065 0.12194824 1.0153198 0.26571655 1.5060425 0.43070984l0.005645752 0.0019683838" fill-rule="evenodd"/><path fill="#000000" stroke="#000000" stroke-width="1.0" stroke-linecap="butt" d="m354.83728 221.85751l3.209381 0.39071655l-2.2073975 -2.362259z" fill-rule="evenodd"/><path fill="#ffffff" d="m359.2653 227.13522l0 0c0 1.3220062 1.0716858 2.393692 2.3937073 2.393692l0 0c0.6348572 0 1.2436829 -0.252182 1.6925964 -0.7010956c0.44891357 -0.44889832 0.70111084 -1.0577545 0.70111084 -1.6925964l0 0c0 -1.3220062 -1.0717163 -2.3937073 -2.3937073 -2.3937073l0 0c-1.3220215 0 -2.3937073 1.071701 -2.3937073 2.3937073z" fill-rule="evenodd"/><path stroke="#000000" stroke-width="1.0" stroke-linejoin="round" stroke-linecap="butt" d="m359.2653 227.13522l0 0c0 1.3220062 1.0716858 2.393692 2.3937073 2.393692l0 0c0.6348572 0 1.2436829 -0.252182 1.6925964 -0.7010956c0.44891357 -0.44889832 0.70111084 -1.0577545 0.70111084 -1.6925964l0 0c0 -1.3220062 -1.0717163 -2.3937073 -2.3937073 -2.3937073l0 0c-1.3220215 0 -2.3937073 1.071701 -2.3937073 2.3937073z" fill-rule="evenodd"/><path fill="#000000" d="m337.80655 228.6773l0 0c0 -1.3220062 -1.0716858 -2.3937073 -2.3937073 -2.3937073l0 0c-0.6348572 0 -1.2436829 0.25219727 -1.6925964 0.7010956c-0.44891357 0.44891357 -0.70111084 1.0577545 -0.70111084 1.6926117l0 0c0 1.3220062 1.0717163 2.393692 2.3937073 2.393692l0 0c1.3220215 0 2.3937073 -1.0716858 2.3937073 -2.393692z" fill-rule="evenodd"/><path stroke="#000000" stroke-width="1.0" stroke-linejoin="round" stroke-linecap="butt" d="m337.80655 228.6773l0 0c0 -1.3220062 -1.0716858 -2.3937073 -2.3937073 -2.3937073l0 0c-0.6348572 0 -1.2436829 0.25219727 -1.6925964 0.7010956c-0.44891357 0.44891357 -0.70111084 1.0577545 -0.70111084 1.6926117l0 0c0 1.3220062 1.0717163 2.393692 2.3937073 2.393692l0 0c1.3220215 0 2.3937073 -1.0716858 2.3937073 -2.393692z" fill-rule="evenodd"/><path fill="#000000" fill-opacity="0.0" d="m95.9255 321.2857l46.173836 20.818573" fill-rule="evenodd"/><path stroke="#0000ff" stroke-width="4.0" stroke-linejoin="round" stroke-linecap="butt" d="m95.92549 321.2857l24.294891 10.953918" fill-rule="evenodd"/><path fill="#0000ff" stroke="#0000ff" stroke-width="4.0" stroke-linecap="butt" d="m117.50475 338.26266l19.263771 1.4380798l-13.83252 -13.484161z" fill-rule="evenodd"/><path fill="#000000" fill-opacity="0.0" d="m94.69507 319.22726l0 49.737488" fill-rule="evenodd"/><path stroke="#0000ff" stroke-width="4.0" stroke-linejoin="round" stroke-linecap="butt" d="m94.69507 319.2273l0 25.737488" fill-rule="evenodd"/><path fill="#0000ff" stroke="#0000ff" stroke-width="4.0" stroke-linecap="butt" d="m88.088135 344.96478l6.6069336 18.152374l6.606926 -18.152374z" fill-rule="evenodd"/><path fill="#000000" fill-opacity="0.0" d="m93.47762 321.2857l-46.17385 20.818573" fill-rule="evenodd"/><path stroke="#0000ff" stroke-width="4.0" stroke-linejoin="round" stroke-linecap="butt" d="m93.477615 321.2857l-24.294884 10.953918" fill-rule="evenodd"/><path fill="#0000ff" stroke="#0000ff" stroke-width="4.0" stroke-linecap="butt" d="m66.4671 326.21658l-13.832512 13.484161l19.263763 -1.4380798z" fill-rule="evenodd"/><path fill="#0000ff" d="m91.36 320.87152l0 0c0 -1.8396301 1.4718475 -3.3309631 3.2874603 -3.3309631l0 0c0.8718872 0 1.7080612 0.35092163 2.324585 0.97561646c0.6165161 0.6246643 0.96286774 1.4719238 0.96286774 2.3553467l0 0c0 1.8396606 -1.4718399 3.3309631 -3.2874527 3.3309631l0 0c-1.8156128 0 -3.2874603 -1.4913025 -3.2874603 -3.3309631z" fill-rule="evenodd"/><path stroke="#0000ff" stroke-width="8.0" stroke-linejoin="round" stroke-linecap="butt" d="m91.36 320.87152l0 0c0 -1.8396301 1.4718475 -3.3309631 3.2874603 -3.3309631l0 0c0.8718872 0 1.7080612 0.35092163 2.324585 0.97561646c0.6165161 0.6246643 0.96286774 1.4719238 0.96286774 2.3553467l0 0c0 1.8396606 -1.4718399 3.3309631 -3.2874527 3.3309631l0 0c-1.8156128 0 -3.2874603 -1.4913025 -3.2874603 -3.3309631z" fill-rule="evenodd"/><path fill="#000000" fill-opacity="0.0" d="m23.0919 284.47156l0 0c-3.8317966 0 -6.93808 -4.44516 -6.93808 -9.928589l0 -60.96187l0 0c0 -5.4834137 3.1062832 -9.928604 6.93808 -9.928604z" fill-rule="evenodd"/><path fill="#000000" fill-opacity="0.0" d="m23.0919 284.47156l0 0c-3.8317966 0 -6.93808 -4.44516 -6.93808 -9.928589l0 -60.96187l0 0c0 -5.4834137 3.1062832 -9.928604 6.93808 -9.928604" fill-rule="evenodd"/><path stroke="#0000ff" stroke-width="4.0" stroke-linejoin="round" stroke-linecap="butt" d="m23.0919 284.47156l0 0c-3.8317966 0 -6.93808 -4.44516 -6.93808 -9.928589l0 -60.96187l0 0c0 -5.4834137 3.1062832 -9.928604 6.93808 -9.928604" fill-rule="evenodd"/><path fill="#000000" fill-opacity="0.0" d="m168.07382 284.47156l0 0c3.831787 0 6.93808 -4.44516 6.93808 -9.928589l0 -60.96187l0 0c0 -5.4834137 -3.1062927 -9.928604 -6.93808 -9.928604z" fill-rule="evenodd"/><path fill="#000000" fill-opacity="0.0" d="m168.07382 284.47156l0 0c3.831787 0 6.93808 -4.44516 6.93808 -9.928589l0 -60.96187l0 0c0 -5.4834137 -3.1062927 -9.928604 -6.93808 -9.928604" fill-rule="evenodd"/><path stroke="#0000ff" stroke-width="4.0" stroke-linejoin="round" stroke-linecap="butt" d="m168.07382 284.47156l0 0c3.831787 0 6.93808 -4.44516 6.93808 -9.928589l0 -60.96187l0 0c0 -5.4834137 -3.1062927 -9.928604 -6.93808 -9.928604" fill-rule="evenodd"/><path fill="#000000" fill-opacity="0.0" d="m86.83711 269.7456l0 0c-3.8317947 0 -6.93808 -4.4451904 -6.93808 -9.928589l0 -31.509888l0 0c0 -5.4834137 3.106285 -9.928589 6.93808 -9.928589z" fill-rule="evenodd"/><path fill="#000000" fill-opacity="0.0" d="m86.83711 269.7456l0 0c-3.8317947 0 -6.93808 -4.4451904 -6.93808 -9.928589l0 -31.509888l0 0c0 -5.4834137 3.106285 -9.928589 6.93808 -9.928589" fill-rule="evenodd"/><path stroke="#b7b7b7" stroke-width="4.0" stroke-linejoin="round" stroke-linecap="butt" d="m86.83711 269.7456l0 0c-3.8317947 0 -6.93808 -4.4451904 -6.93808 -9.928589l0 -31.509888l0 0c0 -5.4834137 3.106285 -9.928589 6.93808 -9.928589" fill-rule="evenodd"/><path fill="#000000" fill-opacity="0.0" d="m153.55954 269.7456l0 0c3.831787 0 6.93808 -4.4451904 6.93808 -9.928589l0 -31.509888l0 0c0 -5.4834137 -3.1062927 -9.928589 -6.93808 -9.928589z" fill-rule="evenodd"/><path fill="#000000" fill-opacity="0.0" d="m153.55954 269.7456l0 0c3.831787 0 6.93808 -4.4451904 6.93808 -9.928589l0 -31.509888l0 0c0 -5.4834137 -3.1062927 -9.928589 -6.93808 -9.928589" fill-rule="evenodd"/><path stroke="#b7b7b7" stroke-width="4.0" stroke-linejoin="round" stroke-linecap="butt" d="m153.55954 269.7456l0 0c3.831787 0 6.93808 -4.4451904 6.93808 -9.928589l0 -31.509888l0 0c0 -5.4834137 -3.1062927 -9.928589 -6.93808 -9.928589" fill-rule="evenodd"/><path fill="#000000" fill-opacity="0.0" d="m-1.2984425 104.81463l192.0 0l0 98.55117l-192.0 0z" fill-rule="evenodd"/><path stroke="#000000" stroke-width="4.0" stroke-linejoin="round" stroke-linecap="butt" d="m-1.2984425 104.81463l192.0 0l0 98.55117l-192.0 0z" fill-rule="evenodd"/><path fill="#000000" fill-opacity="0.0" d="m42.708 136.48976l0 0c8.181705 -12.10408 23.519386 -20.498856 41.243584 -22.57386c17.72419 -2.074997 35.685455 2.4214172 48.298492 12.091034l-39.765274 29.837608z" fill-rule="evenodd"/><path fill="#000000" fill-opacity="0.0" d="m42.708 136.48976l0 0c8.181705 -12.10408 23.519386 -20.498856 41.243584 -22.57386c17.72419 -2.074997 35.685455 2.4214172 48.298492 12.091034" fill-rule="evenodd"/><path stroke="#0000ff" stroke-width="4.0" stroke-linejoin="round" stroke-linecap="butt" d="m42.708 136.48976l0 0c8.181705 -12.10408 23.519386 -20.498856 41.243584 -22.573853c8.862099 -1.0375061 17.783455 -0.4321518 26.065926 1.6412811c2.0706253 0.5183487 4.1013107 1.1284637 6.0811615 1.8275986l0.29361725 0.10567474" fill-rule="evenodd"/><path fill="#0000ff" stroke="#0000ff" stroke-width="4.0" stroke-linecap="butt" d="m114.299545 121.38718l12.798859 1.853035l-8.613388 -9.646454z" fill-rule="evenodd"/><path fill="#ffffff" d="m131.39032 142.97345l0 0c0 5.42717 4.286789 9.826767 9.574799 9.826767l0 0c2.5393982 0 4.9747925 -1.0353088 6.7704163 -2.878189c1.7956238 -1.8428802 2.8043823 -4.3423615 2.8043823 -6.948578l0 0c0 -5.427185 -4.2867737 -9.826767 -9.574799 -9.826767l0 0c-5.2880096 0 -9.574799 4.399582 -9.574799 9.826767z" fill-rule="evenodd"/><path stroke="#000000" stroke-width="4.0" stroke-linejoin="round" stroke-linecap="butt" d="m131.39032 142.97345l0 0c0 5.42717 4.286789 9.826767 9.574799 9.826767l0 0c2.5393982 0 4.9747925 -1.0353088 6.7704163 -2.878189c1.7956238 -1.8428802 2.8043823 -4.3423615 2.8043823 -6.948578l0 0c0 -5.427185 -4.2867737 -9.826767 -9.574799 -9.826767l0 0c-5.2880096 0 -9.574799 4.399582 -9.574799 9.826767z" fill-rule="evenodd"/><path fill="#ffffff" d="m45.55535 149.29669l0 0c0 -5.427185 -4.286785 -9.826767 -9.574802 -9.826767l0 0c-2.5393944 0 -4.974785 1.0353088 -6.7704086 2.878189c-1.7956238 1.8428802 -2.8043957 4.342346 -2.8043957 6.948578l0 0c0 5.42717 4.286787 9.826767 9.574804 9.826767l0 0c5.2880173 0 9.574802 -4.399597 9.574802 -9.826767z" fill-rule="evenodd"/><path stroke="#000000" stroke-width="4.0" stroke-linejoin="round" stroke-linecap="butt" d="m45.55535 149.29669l0 0c0 -5.427185 -4.286785 -9.826767 -9.574802 -9.826767l0 0c-2.5393944 0 -4.974785 1.0353088 -6.7704086 2.878189c-1.7956238 1.8428802 -2.8043957 4.342346 -2.8043957 6.948578l0 0c0 5.42717 4.286787 9.826767 9.574804 9.826767l0 0c5.2880173 0 9.574802 -4.399597 9.574802 -9.826767z" fill-rule="evenodd"/><path fill="#000000" fill-opacity="0.0" d="m135.76161 155.44916l0 0c-8.181709 12.10408 -23.519394 20.498856 -41.243584 22.573868c-17.724197 2.074997 -35.685463 -2.4214172 -48.298504 -12.091034l39.765278 -29.837616z" fill-rule="evenodd"/><path fill="#000000" fill-opacity="0.0" d="m135.76161 155.44916l0 0c-8.181709 12.10408 -23.519394 20.498856 -41.243584 22.573868c-17.724197 2.074997 -35.685463 -2.4214172 -48.298504 -12.091034" fill-rule="evenodd"/><path stroke="#0000ff" stroke-width="4.0" stroke-linejoin="round" stroke-linecap="butt" d="m135.76161 155.44916l0 0c-8.181717 12.10408 -23.519394 20.498856 -41.24359 22.573868c-8.862091 1.0375061 -17.783455 0.43214417 -26.065926 -1.6412964c-2.0706177 -0.5183563 -4.101303 -1.1284637 -6.081154 -1.827591l-0.29361725 -0.10568237" fill-rule="evenodd"/><path fill="#0000ff" stroke="#0000ff" stroke-width="4.0" stroke-linecap="butt" d="m64.17006 170.55174l-12.798855 -1.8530273l8.613388 9.646454z" fill-rule="evenodd"/><path fill="#000000" fill-opacity="0.0" d="m42.708 530.81464l0 0c8.181705 -12.104065 23.519386 -20.49884 41.243584 -22.573853c17.72419 -2.0750122 35.685455 2.4214172 48.298492 12.091003l-39.765274 29.837646z" fill-rule="evenodd"/><path fill="#000000" fill-opacity="0.0" d="m42.708 530.81464l0 0c8.181705 -12.104065 23.519386 -20.49884 41.243584 -22.573853c17.72419 -2.0750122 35.685455 2.4214172 48.298492 12.091003" fill-rule="evenodd"/><path stroke="#0000ff" stroke-width="4.0" stroke-linejoin="round" stroke-linecap="butt" d="m42.708 530.81464l0 0c8.181705 -12.104065 23.519386 -20.49884 41.243584 -22.573853c8.862099 -1.0375366 17.783455 -0.4321289 26.065926 1.6412659c2.0706253 0.5183716 4.1013107 1.128479 6.0811615 1.8276367l0.29361725 0.105651855" fill-rule="evenodd"/><path fill="#0000ff" stroke="#0000ff" stroke-width="4.0" stroke-linecap="butt" d="m114.299545 515.71204l12.798859 1.8530273l-8.61338 -9.646423z" fill-rule="evenodd"/><path fill="#ffffff" d="m131.39032 537.29834l0 0c0 5.427185 4.286789 9.826782 9.574799 9.826782l0 0c2.5393982 0 4.9747925 -1.0353394 6.7704163 -2.8782349c1.7956238 -1.8428345 2.8043823 -4.342346 2.8043823 -6.9485474l0 0c0 -5.427185 -4.2867737 -9.826782 -9.574799 -9.826782l0 0c-5.2880096 0 -9.574799 4.399597 -9.574799 9.826782z" fill-rule="evenodd"/><path stroke="#000000" stroke-width="4.0" stroke-linejoin="round" stroke-linecap="butt" d="m131.39032 537.29834l0 0c0 5.427185 4.286789 9.826782 9.574799 9.826782l0 0c2.5393982 0 4.9747925 -1.0353394 6.7704163 -2.8782349c1.7956238 -1.8428345 2.8043823 -4.342346 2.8043823 -6.9485474l0 0c0 -5.427185 -4.2867737 -9.826782 -9.574799 -9.826782l0 0c-5.2880096 0 -9.574799 4.399597 -9.574799 9.826782z" fill-rule="evenodd"/><path fill="#000000" d="m45.55535 543.6216l0 0c0 -5.427185 -4.286785 -9.826782 -9.574802 -9.826782l0 0c-2.5393944 0 -4.974785 1.0353394 -6.7704086 2.8781738c-1.7956238 1.8428955 -2.8043957 4.342346 -2.8043957 6.9486084l0 0c0 5.427185 4.286787 9.826782 9.574804 9.826782l0 0c5.2880173 0 9.574802 -4.399597 9.574802 -9.826782z" fill-rule="evenodd"/><path stroke="#000000" stroke-width="4.0" stroke-linejoin="round" stroke-linecap="butt" d="m45.55535 543.6216l0 0c0 -5.427185 -4.286785 -9.826782 -9.574802 -9.826782l0 0c-2.5393944 0 -4.974785 1.0353394 -6.7704086 2.8781738c-1.7956238 1.8428955 -2.8043957 4.342346 -2.8043957 6.9486084l0 0c0 5.427185 4.286787 9.826782 9.574804 9.826782l0 0c5.2880173 0 9.574802 -4.399597 9.574802 -9.826782z" fill-rule="evenodd"/><path fill="#000000" fill-opacity="0.0" d="m98.37601 420.34055l46.173843 20.818573" fill-rule="evenodd"/><path stroke="#0000ff" stroke-width="4.0" stroke-linejoin="round" stroke-linecap="butt" d="m120.25496 430.20523l24.294891 10.953888" fill-rule="evenodd"/><path fill="#0000ff" stroke="#0000ff" stroke-width="4.0" stroke-linecap="butt" d="m122.97059 424.18216l-19.263771 -1.4380798l13.83252 13.484161z" fill-rule="evenodd"/><path fill="#000000" fill-opacity="0.0" d="m95.42951 422.86542l0 49.737488" fill-rule="evenodd"/><path stroke="#0000ff" stroke-width="4.0" stroke-linejoin="round" stroke-linecap="butt" d="m95.42951 446.86542l0 25.737488" fill-rule="evenodd"/><path fill="#0000ff" stroke="#0000ff" stroke-width="4.0" stroke-linecap="butt" d="m102.036446 446.86542l-6.6069336 -18.152405l-6.606926 18.152405z" fill-rule="evenodd"/><path fill="#000000" fill-opacity="0.0" d="m92.495995 420.34055l-46.173847 20.818573" fill-rule="evenodd"/><path stroke="#0000ff" stroke-width="4.0" stroke-linejoin="round" stroke-linecap="butt" d="m70.617035 430.20523l-24.294888 10.953888" fill-rule="evenodd"/><path fill="#0000ff" stroke="#0000ff" stroke-width="4.0" stroke-linecap="butt" d="m73.33266 436.22824l13.83252 -13.484161l-19.263771 1.4380798z" fill-rule="evenodd"/><path fill="#0000ff" d="m92.094444 419.49738l0 0c0 -1.8396606 1.4718475 -3.3309937 3.2874603 -3.3309937l0 0c0.8718872 0 1.7080612 0.35095215 2.324585 0.97561646c0.6165161 0.6246948 0.96286774 1.4719238 0.96286774 2.3553772l0 0c0 1.8396301 -1.4718399 3.3309631 -3.2874527 3.3309631l0 0c-1.8156128 0 -3.2874603 -1.491333 -3.2874603 -3.3309631z" fill-rule="evenodd"/><path stroke="#0000ff" stroke-width="4.0" stroke-linejoin="round" stroke-linecap="butt" d="m92.094444 419.49738l0 0c0 -1.8396606 1.4718475 -3.3309937 3.2874603 -3.3309937l0 0c0.8718872 0 1.7080612 0.35095215 2.324585 0.97561646c0.6165161 0.6246948 0.96286774 1.4719238 0.96286774 2.3553772l0 0c0 1.8396301 -1.4718399 3.3309631 -3.2874527 3.3309631l0 0c-1.8156128 0 -3.2874603 -1.491333 -3.2874603 -3.3309631z" fill-rule="evenodd"/><path fill="#000000" fill-opacity="0.0" d="m-46.6943 233.17468l-47.54331 82.80316l-47.543304 -82.80316z" fill-rule="evenodd"/><path stroke="#000000" stroke-width="16.0" stroke-linejoin="round" stroke-linecap="butt" d="m-46.6943 233.17468l-47.54331 82.80316l-47.543304 -82.80316z" fill-rule="evenodd"/><path fill="#ffffff" d="m96.353485 60.24614c-6.1441956 4.5554123 -14.739853 3.7177658 -19.888954 -1.9381676c-5.1491013 -5.655937 -5.1784363 -14.292267 -0.06787872 -19.983051c5.1105576 -5.6907883 13.700325 -6.5868073 19.875328 -2.0732422z" fill-rule="evenodd"/><path stroke="#000000" stroke-width="3.0" stroke-linejoin="round" stroke-linecap="butt" d="m96.353485 60.24614c-6.1441956 4.5554123 -14.739853 3.7177658 -19.888954 -1.9381676c-5.1491013 -5.655937 -5.1784363 -14.292267 -0.06787872 -19.983051c5.1105576 -5.6907883 13.700325 -6.5868073 19.875328 -2.0732422z" fill-rule="evenodd"/><path fill="#ffffff" d="m96.67958 60.24614c6.1441956 4.5554123 14.739853 3.7177658 19.888954 -1.9381676c5.1491013 -5.655937 5.1784363 -14.292267 0.06787872 -19.983051c-5.1105576 -5.6907883 -13.700325 -6.5868073 -19.875328 -2.0732422z" fill-rule="evenodd"/><path stroke="#000000" stroke-width="3.0" stroke-linejoin="round" stroke-linecap="butt" d="m96.67958 60.24614c6.1441956 4.5554123 14.739853 3.7177658 19.888954 -1.9381676c5.1491013 -5.655937 5.1784363 -14.292267 0.06787872 -19.983051c-5.1105576 -5.6907883 -13.700325 -6.5868073 -19.875328 -2.0732422z" fill-rule="evenodd"/><path fill="#cfe2f3" d="m196.94612 49.70789l20.988953 -4.5071106l4.5071106 -20.988953l4.5071106 20.988953l20.988953 4.5071106l-20.988953 4.5071106l-4.5071106 20.988949l-4.5071106 -20.988949z" fill-rule="evenodd"/><path stroke="#000000" stroke-width="1.0" stroke-linejoin="round" stroke-linecap="butt" d="m196.94612 49.70789l20.988953 -4.5071106l4.5071106 -20.988953l4.5071106 20.988953l20.988953 4.5071106l-20.988953 4.5071106l-4.5071106 20.988949l-4.5071106 -20.988949z" fill-rule="evenodd"/><path fill="#000000" fill-opacity="0.0" d="m22.992723 47.342857l44.72441 0" fill-rule="evenodd"/><path stroke="#0000ff" stroke-width="4.0" stroke-linejoin="round" stroke-linecap="butt" d="m22.992723 47.342857l20.724405 0" fill-rule="evenodd"/><path fill="#0000ff" stroke="#0000ff" stroke-width="4.0" stroke-linecap="butt" d="m43.717133 53.949787l18.15239 -6.60693l-18.15239 -6.60693z" fill-rule="evenodd"/><path fill="#000000" fill-opacity="0.0" d="m169.5056 47.342857l-44.72441 0" fill-rule="evenodd"/><path stroke="#0000ff" stroke-width="4.0" stroke-linejoin="round" stroke-linecap="butt" d="m169.5056 47.342857l-20.724411 0" fill-rule="evenodd"/><path fill="#0000ff" stroke="#0000ff" stroke-width="4.0" stroke-linecap="butt" d="m148.78119 40.735928l-18.15239 6.60693l18.15239 6.60693z" fill-rule="evenodd"/><path fill="#000000" fill-opacity="0.0" d="m-185.00728 50.267174l44.72441 0" fill-rule="evenodd"/><path stroke="#0000ff" stroke-width="4.0" stroke-linejoin="round" stroke-linecap="butt" d="m-161.00728 50.267174l20.724411 0" fill-rule="evenodd"/><path fill="#0000ff" stroke="#0000ff" stroke-width="4.0" stroke-linecap="butt" d="m-161.00728 43.660244l-18.15239 6.60693l18.15239 6.60693z" fill-rule="evenodd"/><path fill="#000000" fill-opacity="0.0" d="m-22.494406 50.267174l-44.724403 0" fill-rule="evenodd"/><path stroke="#0000ff" stroke-width="4.0" stroke-linejoin="round" stroke-linecap="butt" d="m-46.494404 50.267174l-20.724415 0" fill-rule="evenodd"/><path fill="#0000ff" stroke="#0000ff" stroke-width="4.0" stroke-linecap="butt" d="m-46.494404 56.874104l18.15239 -6.60693l-18.15239 -6.60693z" fill-rule="evenodd"/><path fill="#ffffff" d="m-127.646515 63.170456c-6.1441956 4.5554123 -14.739853 3.7177658 -19.888962 -1.9381714c-5.1490936 -5.6559334 -5.1784363 -14.292263 -0.067871094 -19.983047c5.11055 -5.6907883 13.700333 -6.5868073 19.875328 -2.0732422z" fill-rule="evenodd"/><path stroke="#000000" stroke-width="3.0" stroke-linejoin="round" stroke-linecap="butt" d="m-127.646515 63.170456c-6.1441956 4.5554123 -14.739853 3.7177658 -19.888962 -1.9381714c-5.1490936 -5.6559334 -5.1784363 -14.292263 -0.067871094 -19.983047c5.11055 -5.6907883 13.700333 -6.5868073 19.875328 -2.0732422z" fill-rule="evenodd"/><path fill="#ffffff" d="m-79.32042 63.170456c6.1441956 4.5554123 14.739853 3.7177658 19.888954 -1.9381714c5.1491013 -5.6559334 5.1784363 -14.292263 0.06787872 -19.983047c-5.1105576 -5.6907883 -13.700325 -6.5868073 -19.875328 -2.0732422z" fill-rule="evenodd"/><path stroke="#000000" stroke-width="3.0" stroke-linejoin="round" stroke-linecap="butt" d="m-79.32042 63.170456c6.1441956 4.5554123 14.739853 3.7177658 19.888954 -1.9381714c5.1491013 -5.6559334 5.1784363 -14.292263 0.06787872 -19.983047c-5.1105576 -5.6907883 -13.700325 -6.5868073 -19.875328 -2.0732422z" fill-rule="evenodd"/><path fill="#000000" fill-opacity="0.0" d="m-127.38449 39.175995l0.09449005 24.0" fill-rule="evenodd"/><path stroke="#ffffff" stroke-width="4.0" stroke-linejoin="round" stroke-linecap="butt" d="m-127.38449 39.175995l0.09449005 24.0" fill-rule="evenodd"/><path fill="#000000" fill-opacity="0.0" d="m-79.410675 39.175995l-0.09449005 24.0" fill-rule="evenodd"/><path stroke="#ffffff" stroke-width="4.0" stroke-linejoin="round" stroke-linecap="butt" d="m-79.410675 39.175995l-0.09449005 24.0" fill-rule="evenodd"/><path fill="#000000" fill-opacity="0.0" d="m-128.97252 38.41655c4.224411 2.0126877 16.820213 12.10149 25.346458 12.076115c8.526245 -0.025371552 21.509186 -10.190289 25.811028 -12.228344" fill-rule="evenodd"/><path stroke="#000000" stroke-width="3.0" stroke-linejoin="round" stroke-linecap="butt" d="m-128.97252 38.41655c4.224411 2.0126877 16.820213 12.10149 25.346458 12.076115c8.526245 -0.025371552 21.509186 -10.190289 25.811028 -12.228344" fill-rule="evenodd"/><path fill="#000000" fill-opacity="0.0" d="m-128.88853 63.970345c4.1688614 -1.5380592 16.514008 -9.240158 25.01313 -9.228348c8.499123 0.011810303 21.65136 7.749344 25.981628 9.29921" fill-rule="evenodd"/><path stroke="#000000" stroke-width="3.0" stroke-linejoin="round" stroke-linecap="butt" d="m-128.88853 63.970345c4.1688614 -1.5380592 16.514008 -9.240158 25.01313 -9.228348c8.499123 0.011810303 21.65136 7.749344 25.981628 9.29921" fill-rule="evenodd"/><path fill="#ffffff" d="m-103.646515 -19.753862c-6.1441956 4.5554113 -14.739853 3.7177696 -19.888954 -1.9381676c-5.1491013 -5.6559353 -5.178444 -14.292265 -0.06787872 -19.98305c5.1105576 -5.6907883 13.700325 -6.5868073 19.875328 -2.0732422z" fill-rule="evenodd"/><path stroke="#000000" stroke-width="3.0" stroke-linejoin="round" stroke-linecap="butt" d="m-103.646515 -19.753862c-6.1441956 4.5554113 -14.739853 3.7177696 -19.888954 -1.9381676c-5.1491013 -5.6559353 -5.178444 -14.292265 -0.06787872 -19.98305c5.1105576 -5.6907883 13.700325 -6.5868073 19.875328 -2.0732422z" fill-rule="evenodd"/><path fill="#ffffff" d="m-103.32042 -19.753862c6.1441956 4.5554113 14.739853 3.7177696 19.888954 -1.9381676c5.1491013 -5.6559353 5.1784363 -14.292265 0.06787872 -19.98305c-5.1105576 -5.6907883 -13.700325 -6.5868073 -19.875328 -2.0732422z" fill-rule="evenodd"/><path stroke="#000000" stroke-width="3.0" stroke-linejoin="round" stroke-linecap="butt" d="m-103.32042 -19.753862c6.1441956 4.5554113 14.739853 3.7177696 19.888954 -1.9381676c5.1491013 -5.6559353 5.1784363 -14.292265 0.06787872 -19.98305c-5.1105576 -5.6907883 -13.700325 -6.5868073 -19.875328 -2.0732422z" fill-rule="evenodd"/><path fill="#000000" fill-opacity="0.0" d="m-177.00728 -32.657143l44.72441 0" fill-rule="evenodd"/><path stroke="#0000ff" stroke-width="4.0" stroke-linejoin="round" stroke-linecap="butt" d="m-177.00728 -32.657143l20.724411 0" fill-rule="evenodd"/><path fill="#0000ff" stroke="#0000ff" stroke-width="4.0" stroke-linecap="butt" d="m-156.28287 -26.050215l18.15239 -6.606928l-18.15239 -6.60693z" fill-rule="evenodd"/><path fill="#000000" fill-opacity="0.0" d="m-30.494406 -32.657143l-44.724403 0" fill-rule="evenodd"/><path stroke="#0000ff" stroke-width="4.0" stroke-linejoin="round" stroke-linecap="butt" d="m-30.494404 -32.657143l-20.724411 0" fill-rule="evenodd"/><path fill="#0000ff" stroke="#0000ff" stroke-width="4.0" stroke-linecap="butt" d="m-51.21882 -39.264072l-18.15239 6.60693l18.15239 6.606928z" fill-rule="evenodd"/><path fill="#ffffff" d="m-109.234985 -42.89644l12.692917 0l0 22.33071l-12.692917 0z" fill-rule="evenodd"/><path fill="#ffffff" d="m-103.646515 -91.75386c-6.1441956 4.5554123 -14.739853 3.7177658 -19.888954 -1.9381714c-5.1491013 -5.655937 -5.178444 -14.292259 -0.06787872 -19.983047c5.1105576 -5.6907883 13.700325 -6.5868073 19.875328 -2.0732422z" fill-rule="evenodd"/><path stroke="#000000" stroke-width="3.0" stroke-linejoin="round" stroke-linecap="butt" d="m-103.646515 -91.75386c-6.1441956 4.5554123 -14.739853 3.7177658 -19.888954 -1.9381714c-5.1491013 -5.655937 -5.178444 -14.292259 -0.06787872 -19.983047c5.1105576 -5.6907883 13.700325 -6.5868073 19.875328 -2.0732422z" fill-rule="evenodd"/><path fill="#ffffff" d="m-103.32042 -91.75386c6.1441956 4.5554123 14.739853 3.7177658 19.888954 -1.9381714c5.1491013 -5.655937 5.1784363 -14.292259 0.06787872 -19.983047c-5.1105576 -5.6907883 -13.700325 -6.5868073 -19.875328 -2.0732422z" fill-rule="evenodd"/><path stroke="#000000" stroke-width="3.0" stroke-linejoin="round" stroke-linecap="butt" d="m-103.32042 -91.75386c6.1441956 4.5554123 14.739853 3.7177658 19.888954 -1.9381714c5.1491013 -5.655937 5.1784363 -14.292259 0.06787872 -19.983047c-5.1105576 -5.6907883 -13.700325 -6.5868073 -19.875328 -2.0732422z" fill-rule="evenodd"/><path fill="#000000" fill-opacity="0.0" d="m-177.00728 -104.65714l44.72441 0" fill-rule="evenodd"/><path stroke="#0000ff" stroke-width="4.0" stroke-linejoin="round" stroke-linecap="butt" d="m-177.00728 -104.65714l20.724411 0" fill-rule="evenodd"/><path fill="#0000ff" stroke="#0000ff" stroke-width="4.0" stroke-linecap="butt" d="m-156.28287 -98.05021l18.15239 -6.6069336l-18.15239 -6.606926z" fill-rule="evenodd"/><path fill="#000000" fill-opacity="0.0" d="m-30.494406 -104.65714l-44.724403 0" fill-rule="evenodd"/><path stroke="#0000ff" stroke-width="4.0" stroke-linejoin="round" stroke-linecap="butt" d="m-30.494404 -104.65714l-20.724411 0" fill-rule="evenodd"/><path fill="#0000ff" stroke="#0000ff" stroke-width="4.0" stroke-linecap="butt" d="m-51.21882 -111.26407l-18.15239 6.606926l18.15239 6.6069336z" fill-rule="evenodd"/><path fill="#ffffff" d="m97.38029 -93.40109l0 0c-6.1980057 6.114151 -16.172646 6.0671463 -22.312744 -0.105155945c-6.1400986 -6.1722946 -6.1349335 -16.147049 0.011550903 -22.312988c6.146492 -6.1659317 16.121178 -6.202614 22.312843 -0.08204651z" fill-rule="evenodd"/><path stroke="#000000" stroke-width="3.0" stroke-linejoin="round" stroke-linecap="butt" d="m97.38029 -93.40109l0 0c-6.1980057 6.114151 -16.172646 6.0671463 -22.312744 -0.105155945c-6.1400986 -6.1722946 -6.1349335 -16.147049 0.011550903 -22.312988c6.146492 -6.1659317 16.121178 -6.202614 22.312843 -0.08204651z" fill-rule="evenodd"/><path fill="#000000" fill-opacity="0.0" d="m17.835545 -105.650375l47.466015 0" fill-rule="evenodd"/><path stroke="#0000ff" stroke-width="4.0" stroke-linejoin="round" stroke-linecap="butt" d="m17.835545 -105.650375l23.466015 0" fill-rule="evenodd"/><path fill="#0000ff" stroke="#0000ff" stroke-width="4.0" stroke-linecap="butt" d="m41.301563 -99.04344l18.15239 -6.6069336l-18.15239 -6.606926z" fill-rule="evenodd"/><path fill="#000000" fill-opacity="0.0" d="m173.32965 -105.650375l-47.46601 0" fill-rule="evenodd"/><path stroke="#0000ff" stroke-width="4.0" stroke-linejoin="round" stroke-linecap="butt" d="m173.32967 -105.650375l-23.466019 0" fill-rule="evenodd"/><path fill="#0000ff" stroke="#0000ff" stroke-width="4.0" stroke-linecap="butt" d="m149.86363 -112.2573l-18.15239 6.606926l18.15239 6.6069336z" fill-rule="evenodd"/><path fill="#ffffff" d="m97.72911 -93.40109l0 0c6.1980057 6.114151 16.172646 6.0671463 22.312744 -0.105155945c6.1400986 -6.1722946 6.1349335 -16.147049 -0.011550903 -22.312988c-6.146492 -6.1659317 -16.121178 -6.202614 -22.312843 -0.08204651z" fill-rule="evenodd"/><path stroke="#000000" stroke-width="3.0" stroke-linejoin="round" stroke-linecap="butt" d="m97.72911 -93.40109l0 0c6.1980057 6.114151 16.172646 6.0671463 22.312744 -0.105155945c6.1400986 -6.1722946 6.1349335 -16.147049 -0.011550903 -22.312988c-6.146492 -6.1659317 -16.121178 -6.202614 -22.312843 -0.08204651z" fill-rule="evenodd"/><path fill="#ffffff" d="m90.547806 -115.04587l13.470993 0l0 20.858307l-13.470993 0z" fill-rule="evenodd"/><path fill="#ffffff" d="m-100.7329 410.85718c-10.346405 7.67099 -24.820915 6.2604675 -33.491646 -3.2637634c-8.670746 -9.5242 -8.720139 -24.0672 -0.11430359 -33.650085c8.605827 -9.582916 23.07042 -11.091736 33.468697 -3.491211z" fill-rule="evenodd"/><path stroke="#000000" stroke-width="3.0" stroke-linejoin="round" stroke-linecap="butt" d="m-100.7329 410.85718c-10.346405 7.67099 -24.820915 6.2604675 -33.491646 -3.2637634c-8.670746 -9.5242 -8.720139 -24.0672 -0.11430359 -33.650085c8.605827 -9.582916 23.07042 -11.091736 33.468697 -3.491211z" fill-rule="evenodd"/><path fill="#000000" d="m-100.189804 410.85718c10.346405 7.67099 24.820915 6.2604675 33.491653 -3.2637634c8.670734 -9.5242 8.720135 -24.0672 0.11430359 -33.650085c-8.605835 -9.582916 -23.070427 -11.091736 -33.468704 -3.491211z" fill-rule="evenodd"/><path stroke="#000000" stroke-width="3.0" stroke-linejoin="round" stroke-linecap="butt" d="m-100.189804 410.85718c10.346405 7.67099 24.820915 6.2604675 33.491653 -3.2637634c8.670734 -9.5242 8.720135 -24.0672 0.11430359 -33.650085c-8.605835 -9.582916 -23.070427 -11.091736 -33.468704 -3.491211z" fill-rule="evenodd"/><path fill="#9fc5e8" d="m-85.586174 119.99517l20.171967 -14.72892l-6.2919464 23.841553l19.433502 -7.3220825l-10.92915 12.364777l25.666843 5.794403l-25.15678 6.801178l4.7135353 9.190353l-10.20845 2.330017l9.458443 16.411362l-19.806519 -9.671158l-1.1148682 12.912689l-12.394371 -8.80571l-5.311432 11.553909l-7.3181686 -7.9180145l-7.805153 8.5798645l-4.420418 -7.8198395l-15.880157 11.8424225l2.3459778 -14.138016l-17.01561 -5.321411l12.211502 -8.161301l-14.28508 -13.80072l20.530563 -1.3508148l-10.771347 -16.682594l21.120743 2.3919601l-0.67749023 -18.383492l17.60115 15.63472l9.662605 -17.565948z" fill-rule="evenodd"/><path stroke="#000000" stroke-width="1.0" stroke-linejoin="round" stroke-linecap="butt" d="m-85.586174 119.99517l20.171967 -14.72892l-6.2919464 23.841553l19.433502 -7.3220825l-10.92915 12.364777l25.666843 5.794403l-25.15678 6.801178l4.7135353 9.190353l-10.20845 2.330017l9.458443 16.411362l-19.806519 -9.671158l-1.1148682 12.912689l-12.394371 -8.80571l-5.311432 11.553909l-7.3181686 -7.9180145l-7.805153 8.5798645l-4.420418 -7.8198395l-15.880157 11.8424225l2.3459778 -14.138016l-17.01561 -5.321411l12.211502 -8.161301l-14.28508 -13.80072l20.530563 -1.3508148l-10.771347 -16.682594l21.120743 2.3919601l-0.67749023 -18.383492l17.60115 15.63472l9.662605 -17.565948z" fill-rule="evenodd"/></g></svg>