<?xml version="1.0" encoding="UTF-8"?>
<!DOCTYPE svg PUBLIC "-//W3C//DTD SVG 1.1//EN" "http://www.w3.org/Graphics/SVG/1.1/DTD/svg11.dtd">
<svg version="1.2" width="29.96mm" height="29.96mm" viewBox="5017 7163 2996 2996" preserveAspectRatio="xMidYMid" fill-rule="evenodd" stroke-width="28.222" stroke-linejoin="round" xmlns="http://www.w3.org/2000/svg" xmlns:ooo="http://xml.openoffice.org/svg/export" xmlns:xlink="http://www.w3.org/1999/xlink" xmlns:presentation="http://sun.com/xmlns/staroffice/presentation" xmlns:smil="http://www.w3.org/2001/SMIL20/" xmlns:anim="urn:oasis:names:tc:opendocument:xmlns:animation:1.0" xml:space="preserve">
 <defs class="EmbeddedBulletChars">
  <g id="bullet-char-template-57356" transform="scale(0.00048828125,-0.00048828125)">
   <path d="M 580,1141 L 1163,571 580,0 -4,571 580,1141 Z"/>
  </g>
  <g id="bullet-char-template-57354" transform="scale(0.00048828125,-0.00048828125)">
   <path d="M 8,1128 L 1137,1128 1137,0 8,0 8,1128 Z"/>
  </g>
  <g id="bullet-char-template-10146" transform="scale(0.00048828125,-0.00048828125)">
   <path d="M 174,0 L 602,739 174,1481 1456,739 174,0 Z M 1358,739 L 309,1346 659,739 1358,739 Z"/>
  </g>
  <g id="bullet-char-template-10132" transform="scale(0.00048828125,-0.00048828125)">
   <path d="M 2015,739 L 1276,0 717,0 1260,543 174,543 174,936 1260,936 717,1481 1274,1481 2015,739 Z"/>
  </g>
  <g id="bullet-char-template-10007" transform="scale(0.00048828125,-0.00048828125)">
   <path d="M 0,-2 C -7,14 -16,27 -25,37 L 356,567 C 262,823 215,952 215,954 215,979 228,992 255,992 264,992 276,990 289,987 310,991 331,999 354,1012 L 381,999 492,748 772,1049 836,1024 860,1049 C 881,1039 901,1025 922,1006 886,937 835,863 770,784 769,783 710,716 594,584 L 774,223 C 774,196 753,168 711,139 L 727,119 C 717,90 699,76 672,76 641,76 570,178 457,381 L 164,-76 C 142,-110 111,-127 72,-127 30,-127 9,-110 8,-76 1,-67 -2,-52 -2,-32 -2,-23 -1,-13 0,-2 Z"/>
  </g>
  <g id="bullet-char-template-10004" transform="scale(0.00048828125,-0.00048828125)">
   <path d="M 285,-33 C 182,-33 111,30 74,156 52,228 41,333 41,471 41,549 55,616 82,672 116,743 169,778 240,778 293,778 328,747 346,684 L 369,508 C 377,444 397,411 428,410 L 1163,1116 C 1174,1127 1196,1133 1229,1133 1271,1133 1292,1118 1292,1087 L 1292,965 C 1292,929 1282,901 1262,881 L 442,47 C 390,-6 338,-33 285,-33 Z"/>
  </g>
  <g id="bullet-char-template-9679" transform="scale(0.00048828125,-0.00048828125)">
   <path d="M 813,0 C 632,0 489,54 383,161 276,268 223,411 223,592 223,773 276,916 383,1023 489,1130 632,1184 813,1184 992,1184 1136,1130 1245,1023 1353,916 1407,772 1407,592 1407,412 1353,268 1245,161 1136,54 992,0 813,0 Z"/>
  </g>
  <g id="bullet-char-template-8226" transform="scale(0.00048828125,-0.00048828125)">
   <path d="M 346,457 C 273,457 209,483 155,535 101,586 74,649 74,723 74,796 101,859 155,911 209,963 273,989 346,989 419,989 480,963 531,910 582,859 608,796 608,723 608,648 583,586 532,535 482,483 420,457 346,457 Z"/>
  </g>
  <g id="bullet-char-template-8211" transform="scale(0.00048828125,-0.00048828125)">
   <path d="M -4,459 L 1135,459 1135,606 -4,606 -4,459 Z"/>
  </g>
  <g id="bullet-char-template-61548" transform="scale(0.00048828125,-0.00048828125)">
   <path d="M 173,740 C 173,903 231,1043 346,1159 462,1274 601,1332 765,1332 928,1332 1067,1274 1183,1159 1299,1043 1357,903 1357,740 1357,577 1299,437 1183,322 1067,206 928,148 765,148 601,148 462,206 346,322 231,437 173,577 173,740 Z"/>
  </g>
 </defs>
 <g class="Page">
  <g class="com.sun.star.drawing.CustomShape">
   <g id="id3">
    <rect class="BoundingBox" stroke="none" fill="none" x="5017" y="7163" width="2996" height="2996"/>
   </g>
  </g>
  <g class="Group">
   <g class="com.sun.star.drawing.ClosedBezierShape">
    <g id="id4">
     <rect class="BoundingBox" stroke="none" fill="none" x="6224" y="8096" width="1746" height="1211"/>
     <path fill="rgb(255,255,255)" stroke="none" d="M 6551,8103 C 6559,8098 6568,8096 6578,8096 L 7623,8100 C 7632,8100 7641,8103 7649,8107 7650,8108 7651,8108 7652,8109 7698,8139 7740,8174 7778,8213 7815,8253 7848,8297 7875,8344 7906,8397 7929,8454 7945,8512 7961,8571 7969,8632 7969,8692 7969,8753 7961,8814 7945,8872 7929,8930 7906,8987 7875,9040 7845,9093 7807,9141 7765,9184 7723,9226 7675,9262 7623,9293 7616,9297 7609,9301 7602,9303 7597,9305 7591,9306 7585,9306 L 6627,9303 C 6621,9305 6614,9306 6608,9306 6599,9306 6590,9304 6582,9300 6579,9299 6576,9297 6573,9296 6571,9294 6568,9292 6566,9290 6515,9260 6469,9225 6428,9183 6385,9141 6348,9092 6317,9039 6287,8987 6263,8930 6248,8872 6232,8813 6224,8753 6224,8692 6224,8631 6232,8570 6248,8512 6263,8454 6287,8397 6317,8344 6345,8297 6378,8253 6415,8213 6453,8174 6495,8139 6541,8109 6542,8108 6543,8108 6544,8107 6545,8106 6546,8106 6548,8105 6549,8104 6550,8104 6551,8103 Z"/>
    </g>
   </g>
  </g>
  <g class="com.sun.star.drawing.CustomShape">
   <g id="id5">
    <rect class="BoundingBox" stroke="none" fill="none" x="7319" y="8455" width="522" height="522"/>
    <path fill="rgb(153,153,153)" stroke="none" d="M 7839,8716 C 7839,8761 7827,8806 7804,8846 7781,8885 7749,8918 7709,8941 7669,8964 7625,8976 7579,8976 7533,8976 7489,8964 7449,8941 7409,8918 7377,8885 7354,8846 7331,8806 7319,8761 7319,8716 7319,8670 7331,8625 7354,8585 7377,8546 7409,8513 7449,8490 7489,8467 7533,8455 7579,8455 7625,8455 7669,8467 7709,8490 7749,8513 7781,8546 7804,8585 7827,8625 7839,8670 7839,8716 L 7839,8716 Z"/>
   </g>
  </g>
  <g class="com.sun.star.drawing.LineShape">
   <g id="id6">
    <rect class="BoundingBox" stroke="none" fill="none" x="6925" y="7934" width="637" height="421"/>
    <path fill="none" stroke="rgb(0,0,0)" stroke-width="80" stroke-linejoin="round" stroke-linecap="round" d="M 6965,8144 L 7316,8144"/>
    <path fill="rgb(0,0,0)" stroke="none" d="M 7288,7934 L 7561,8144 7288,8354 7288,7934 Z"/>
   </g>
  </g>
  <g class="Group">
   <g class="com.sun.star.drawing.ClosedBezierShape">
    <g id="id7">
     <rect class="BoundingBox" stroke="none" fill="none" x="5262" y="8096" width="1746" height="1211"/>
     <path fill="rgb(221,221,221)" stroke="none" d="M 5589,8103 C 5597,8098 5606,8096 5616,8096 L 6661,8100 C 6670,8100 6679,8103 6687,8107 6688,8108 6689,8108 6690,8109 6736,8139 6778,8174 6816,8213 6853,8253 6886,8297 6913,8344 6944,8397 6967,8454 6983,8512 6999,8571 7007,8632 7007,8692 7007,8753 6999,8814 6983,8872 6967,8930 6944,8987 6913,9040 6883,9093 6845,9141 6803,9184 6761,9226 6713,9262 6661,9293 6654,9297 6647,9301 6640,9303 6635,9305 6629,9306 6623,9306 L 5665,9303 C 5659,9305 5652,9306 5646,9306 5637,9306 5628,9304 5620,9300 5617,9299 5614,9297 5611,9296 5609,9294 5606,9292 5604,9290 5553,9260 5507,9225 5466,9183 5423,9141 5386,9092 5355,9039 5325,8987 5301,8930 5286,8872 5270,8813 5262,8753 5262,8692 5262,8631 5270,8570 5286,8512 5301,8454 5325,8397 5355,8344 5383,8297 5416,8253 5453,8213 5491,8174 5533,8139 5579,8109 5580,8108 5581,8108 5582,8107 5583,8106 5584,8106 5586,8105 5587,8104 5588,8104 5589,8103 Z"/>
    </g>
   </g>
   <g class="com.sun.star.drawing.EllipseShape">
    <g id="id8">
     <rect class="BoundingBox" stroke="none" fill="none" x="6594" y="8085" width="443" height="1237"/>
     <path fill="none" stroke="rgb(0,0,0)" stroke-width="100" stroke-linejoin="round" stroke-linecap="round" d="M 6684,8136 C 6772,8193 6845,8270 6897,8360 6955,8461 6986,8575 6986,8692 6986,8808 6955,8922 6897,9023 6839,9123 6755,9207 6654,9265 6651,9267 6648,9269 6644,9271"/>
    </g>
   </g>
   <g class="com.sun.star.drawing.EllipseShape">
    <g id="id9">
     <rect class="BoundingBox" stroke="none" fill="none" x="5244" y="8085" width="443" height="1237"/>
     <path fill="none" stroke="rgb(0,0,0)" stroke-width="100" stroke-linejoin="round" stroke-linecap="round" d="M 5636,9271 C 5632,9269 5629,9267 5626,9265 5525,9207 5441,9123 5383,9023 5325,8922 5294,8808 5294,8692 5294,8575 5325,8461 5383,8360 5435,8270 5509,8193 5597,8136"/>
    </g>
   </g>
  </g>
  <g class="Group">
   <g class="com.sun.star.drawing.CustomShape">
    <g id="id10">
     <rect class="BoundingBox" stroke="none" fill="none" x="5379" y="8441" width="521" height="522"/>
     <path fill="rgb(153,153,153)" stroke="none" d="M 5899,8702 C 5899,8747 5887,8792 5864,8832 5841,8871 5809,8904 5769,8927 5729,8950 5685,8962 5639,8962 5593,8962 5549,8950 5509,8927 5469,8904 5437,8871 5414,8832 5391,8792 5379,8747 5379,8702 5379,8656 5391,8611 5414,8571 5437,8532 5469,8499 5509,8476 5549,8453 5593,8441 5639,8441 5685,8441 5729,8453 5769,8476 5809,8499 5841,8532 5864,8571 5887,8611 5899,8656 5899,8702 L 5899,8702 Z"/>
    </g>
   </g>
   <g class="com.sun.star.drawing.CustomShape">
    <g id="id11">
     <rect class="BoundingBox" stroke="none" fill="none" x="6370" y="8441" width="521" height="522"/>
     <path fill="rgb(153,153,153)" stroke="none" d="M 6890,8702 C 6890,8747 6878,8792 6855,8832 6832,8871 6800,8904 6760,8927 6720,8950 6676,8962 6630,8962 6584,8962 6540,8950 6500,8927 6460,8904 6428,8871 6405,8832 6382,8792 6370,8747 6370,8702 6370,8656 6382,8611 6405,8571 6428,8532 6460,8499 6500,8476 6540,8453 6584,8441 6630,8441 6676,8441 6720,8453 6760,8476 6800,8499 6832,8532 6855,8571 6878,8611 6890,8656 6890,8702 L 6890,8702 Z"/>
    </g>
   </g>
  </g>
 </g>
</svg>