<?xml version="1.0" encoding="UTF-8"?>
<!DOCTYPE svg PUBLIC "-//W3C//DTD SVG 1.1//EN" "http://www.w3.org/Graphics/SVG/1.1/DTD/svg11.dtd">
<svg version="1.2" width="29.96mm" height="29.96mm" viewBox="11358 16017 2996 2996" preserveAspectRatio="xMidYMid" fill-rule="evenodd" stroke-width="28.222" stroke-linejoin="round" xmlns="http://www.w3.org/2000/svg" xmlns:ooo="http://xml.openoffice.org/svg/export" xmlns:xlink="http://www.w3.org/1999/xlink" xmlns:presentation="http://sun.com/xmlns/staroffice/presentation" xmlns:smil="http://www.w3.org/2001/SMIL20/" xmlns:anim="urn:oasis:names:tc:opendocument:xmlns:animation:1.0" xml:space="preserve">
 <defs class="EmbeddedBulletChars">
  <g id="bullet-char-template-57356" transform="scale(0.00048828125,-0.00048828125)">
   <path d="M 580,1141 L 1163,571 580,0 -4,571 580,1141 Z"/>
  </g>
  <g id="bullet-char-template-57354" transform="scale(0.00048828125,-0.00048828125)">
   <path d="M 8,1128 L 1137,1128 1137,0 8,0 8,1128 Z"/>
  </g>
  <g id="bullet-char-template-10146" transform="scale(0.00048828125,-0.00048828125)">
   <path d="M 174,0 L 602,739 174,1481 1456,739 174,0 Z M 1358,739 L 309,1346 659,739 1358,739 Z"/>
  </g>
  <g id="bullet-char-template-10132" transform="scale(0.00048828125,-0.00048828125)">
   <path d="M 2015,739 L 1276,0 717,0 1260,543 174,543 174,936 1260,936 717,1481 1274,1481 2015,739 Z"/>
  </g>
  <g id="bullet-char-template-10007" transform="scale(0.00048828125,-0.00048828125)">
   <path d="M 0,-2 C -7,14 -16,27 -25,37 L 356,567 C 262,823 215,952 215,954 215,979 228,992 255,992 264,992 276,990 289,987 310,991 331,999 354,1012 L 381,999 492,748 772,1049 836,1024 860,1049 C 881,1039 901,1025 922,1006 886,937 835,863 770,784 769,783 710,716 594,584 L 774,223 C 774,196 753,168 711,139 L 727,119 C 717,90 699,76 672,76 641,76 570,178 457,381 L 164,-76 C 142,-110 111,-127 72,-127 30,-127 9,-110 8,-76 1,-67 -2,-52 -2,-32 -2,-23 -1,-13 0,-2 Z"/>
  </g>
  <g id="bullet-char-template-10004" transform="scale(0.00048828125,-0.00048828125)">
   <path d="M 285,-33 C 182,-33 111,30 74,156 52,228 41,333 41,471 41,549 55,616 82,672 116,743 169,778 240,778 293,778 328,747 346,684 L 369,508 C 377,444 397,411 428,410 L 1163,1116 C 1174,1127 1196,1133 1229,1133 1271,1133 1292,1118 1292,1087 L 1292,965 C 1292,929 1282,901 1262,881 L 442,47 C 390,-6 338,-33 285,-33 Z"/>
  </g>
  <g id="bullet-char-template-9679" transform="scale(0.00048828125,-0.00048828125)">
   <path d="M 813,0 C 632,0 489,54 383,161 276,268 223,411 223,592 223,773 276,916 383,1023 489,1130 632,1184 813,1184 992,1184 1136,1130 1245,1023 1353,916 1407,772 1407,592 1407,412 1353,268 1245,161 1136,54 992,0 813,0 Z"/>
  </g>
  <g id="bullet-char-template-8226" transform="scale(0.00048828125,-0.00048828125)">
   <path d="M 346,457 C 273,457 209,483 155,535 101,586 74,649 74,723 74,796 101,859 155,911 209,963 273,989 346,989 419,989 480,963 531,910 582,859 608,796 608,723 608,648 583,586 532,535 482,483 420,457 346,457 Z"/>
  </g>
  <g id="bullet-char-template-8211" transform="scale(0.00048828125,-0.00048828125)">
   <path d="M -4,459 L 1135,459 1135,606 -4,606 -4,459 Z"/>
  </g>
  <g id="bullet-char-template-61548" transform="scale(0.00048828125,-0.00048828125)">
   <path d="M 173,740 C 173,903 231,1043 346,1159 462,1274 601,1332 765,1332 928,1332 1067,1274 1183,1159 1299,1043 1357,903 1357,740 1357,577 1299,437 1183,322 1067,206 928,148 765,148 601,148 462,206 346,322 231,437 173,577 173,740 Z"/>
  </g>
 </defs>
 <g class="Page">
  <g class="com.sun.star.drawing.CustomShape">
   <g id="id3">
    <rect class="BoundingBox" stroke="none" fill="none" x="11358" y="16017" width="2996" height="2996"/>
    <path fill="rgb(255,255,255)" stroke="none" d="M 11857,16017 L 11857,16017 C 11770,16017 11683,16040 11608,16084 11532,16128 11469,16191 11425,16267 11381,16342 11358,16429 11358,16516 L 11358,18512 11358,18513 C 11358,18600 11381,18687 11425,18762 11469,18838 11532,18901 11608,18945 11683,18989 11770,19012 11857,19012 L 13853,19011 13854,19012 C 13941,19012 14028,18989 14103,18945 14179,18901 14242,18838 14286,18762 14330,18687 14353,18600 14353,18513 L 14352,16516 14353,16516 14353,16516 C 14353,16429 14330,16342 14286,16267 14242,16191 14179,16128 14103,16084 14028,16040 13941,16017 13854,16017 L 11857,16017 Z"/>
   </g>
  </g>
  <g class="com.sun.star.drawing.OpenBezierShape">
   <g id="id4">
    <rect class="BoundingBox" stroke="none" fill="none" x="12919" y="16260" width="1002" height="2073"/>
    <path fill="none" stroke="rgb(0,0,0)" stroke-width="100" stroke-linejoin="round" stroke-linecap="round" d="M 13081,17998 C 13429,17229 13874,16239 13870,16314"/>
    <path fill="rgb(0,0,0)" stroke="none" d="M 12921,17929 L 12919,18310 12922,18322 12929,18330 12942,18331 12952,18326 13237,18072 13241,18068 13242,18066 13243,18058 13243,18050 13239,18044 13233,18039 12949,17911 12942,17909 12933,17910 12927,17915 12923,17921 12922,17924 12921,17929 Z"/>
   </g>
  </g>
  <g class="com.sun.star.drawing.OpenBezierShape">
   <g id="id5">
    <rect class="BoundingBox" stroke="none" fill="none" x="11847" y="16260" width="1003" height="2073"/>
    <path fill="none" stroke="rgb(0,0,0)" stroke-width="100" stroke-linejoin="round" stroke-linecap="round" d="M 12686,17999 C 12344,17251 11893,16239 11898,16314"/>
    <path fill="rgb(0,0,0)" stroke="none" d="M 12529,18073 L 12815,18325 12826,18332 12837,18331 12846,18322 12849,18311 12844,17929 12844,17924 12843,17921 12838,17916 12831,17911 12824,17909 12817,17911 12533,18041 12527,18045 12523,18052 12523,18060 12525,18067 12526,18070 12529,18073 Z"/>
   </g>
  </g>
  <g class="com.sun.star.drawing.CustomShape">
   <g id="id6">
    <rect class="BoundingBox" stroke="none" fill="none" x="12675" y="18400" width="474" height="474"/>
    <path fill="rgb(153,153,153)" stroke="none" d="M 13148,18637 C 13148,18678 13137,18719 13116,18755 13096,18791 13066,18821 13030,18841 12994,18862 12953,18873 12912,18873 12870,18873 12829,18862 12793,18841 12757,18821 12727,18791 12707,18755 12686,18719 12675,18678 12675,18637 12675,18595 12686,18554 12707,18518 12727,18482 12757,18452 12793,18432 12829,18411 12870,18400 12912,18400 12953,18400 12994,18411 13030,18432 13066,18452 13096,18482 13116,18518 13137,18554 13148,18595 13148,18637 L 13148,18637 Z"/>
   </g>
  </g>
 </g>
</svg>