<?xml version="1.0" encoding="UTF-8"?>
<!DOCTYPE svg PUBLIC "-//W3C//DTD SVG 1.1//EN" "http://www.w3.org/Graphics/SVG/1.1/DTD/svg11.dtd">
<svg version="1.2" width="29.96mm" height="29.96mm" viewBox="5016 9162 2996 2996" preserveAspectRatio="xMidYMid" fill-rule="evenodd" stroke-width="28.222" stroke-linejoin="round" xmlns="http://www.w3.org/2000/svg" xmlns:ooo="http://xml.openoffice.org/svg/export" xmlns:xlink="http://www.w3.org/1999/xlink" xmlns:presentation="http://sun.com/xmlns/staroffice/presentation" xmlns:smil="http://www.w3.org/2001/SMIL20/" xmlns:anim="urn:oasis:names:tc:opendocument:xmlns:animation:1.0" xml:space="preserve">
 <defs class="EmbeddedBulletChars">
  <g id="bullet-char-template-57356" transform="scale(0.00048828125,-0.00048828125)">
   <path d="M 580,1141 L 1163,571 580,0 -4,571 580,1141 Z"/>
  </g>
  <g id="bullet-char-template-57354" transform="scale(0.00048828125,-0.00048828125)">
   <path d="M 8,1128 L 1137,1128 1137,0 8,0 8,1128 Z"/>
  </g>
  <g id="bullet-char-template-10146" transform="scale(0.00048828125,-0.00048828125)">
   <path d="M 174,0 L 602,739 174,1481 1456,739 174,0 Z M 1358,739 L 309,1346 659,739 1358,739 Z"/>
  </g>
  <g id="bullet-char-template-10132" transform="scale(0.00048828125,-0.00048828125)">
   <path d="M 2015,739 L 1276,0 717,0 1260,543 174,543 174,936 1260,936 717,1481 1274,1481 2015,739 Z"/>
  </g>
  <g id="bullet-char-template-10007" transform="scale(0.00048828125,-0.00048828125)">
   <path d="M 0,-2 C -7,14 -16,27 -25,37 L 356,567 C 262,823 215,952 215,954 215,979 228,992 255,992 264,992 276,990 289,987 310,991 331,999 354,1012 L 381,999 492,748 772,1049 836,1024 860,1049 C 881,1039 901,1025 922,1006 886,937 835,863 770,784 769,783 710,716 594,584 L 774,223 C 774,196 753,168 711,139 L 727,119 C 717,90 699,76 672,76 641,76 570,178 457,381 L 164,-76 C 142,-110 111,-127 72,-127 30,-127 9,-110 8,-76 1,-67 -2,-52 -2,-32 -2,-23 -1,-13 0,-2 Z"/>
  </g>
  <g id="bullet-char-template-10004" transform="scale(0.00048828125,-0.00048828125)">
   <path d="M 285,-33 C 182,-33 111,30 74,156 52,228 41,333 41,471 41,549 55,616 82,672 116,743 169,778 240,778 293,778 328,747 346,684 L 369,508 C 377,444 397,411 428,410 L 1163,1116 C 1174,1127 1196,1133 1229,1133 1271,1133 1292,1118 1292,1087 L 1292,965 C 1292,929 1282,901 1262,881 L 442,47 C 390,-6 338,-33 285,-33 Z"/>
  </g>
  <g id="bullet-char-template-9679" transform="scale(0.00048828125,-0.00048828125)">
   <path d="M 813,0 C 632,0 489,54 383,161 276,268 223,411 223,592 223,773 276,916 383,1023 489,1130 632,1184 813,1184 992,1184 1136,1130 1245,1023 1353,916 1407,772 1407,592 1407,412 1353,268 1245,161 1136,54 992,0 813,0 Z"/>
  </g>
  <g id="bullet-char-template-8226" transform="scale(0.00048828125,-0.00048828125)">
   <path d="M 346,457 C 273,457 209,483 155,535 101,586 74,649 74,723 74,796 101,859 155,911 209,963 273,989 346,989 419,989 480,963 531,910 582,859 608,796 608,723 608,648 583,586 532,535 482,483 420,457 346,457 Z"/>
  </g>
  <g id="bullet-char-template-8211" transform="scale(0.00048828125,-0.00048828125)">
   <path d="M -4,459 L 1135,459 1135,606 -4,606 -4,459 Z"/>
  </g>
  <g id="bullet-char-template-61548" transform="scale(0.00048828125,-0.00048828125)">
   <path d="M 173,740 C 173,903 231,1043 346,1159 462,1274 601,1332 765,1332 928,1332 1067,1274 1183,1159 1299,1043 1357,903 1357,740 1357,577 1299,437 1183,322 1067,206 928,148 765,148 601,148 462,206 346,322 231,437 173,577 173,740 Z"/>
  </g>
 </defs>
 <g class="Page">
  <g class="com.sun.star.drawing.CustomShape">
   <g id="id3">
    <rect class="BoundingBox" stroke="none" fill="none" x="5016" y="9162" width="2996" height="2996"/>
    <path fill="rgb(255,255,255)" stroke="none" d="M 5515,9162 L 5515,9162 C 5428,9162 5341,9185 5266,9229 5190,9273 5127,9336 5083,9412 5039,9487 5016,9574 5016,9661 L 5016,11657 5016,11658 C 5016,11745 5039,11832 5083,11907 5127,11983 5190,12046 5266,12090 5341,12134 5428,12157 5515,12157 L 7511,12156 7512,12157 C 7599,12157 7686,12134 7761,12090 7837,12046 7900,11983 7944,11907 7988,11832 8011,11745 8011,11658 L 8010,9661 8011,9661 8011,9661 C 8011,9574 7988,9487 7944,9412 7900,9336 7837,9273 7761,9229 7686,9185 7599,9162 7512,9162 L 5515,9162 Z"/>
   </g>
  </g>
  <g class="Group">
   <g class="com.sun.star.drawing.CustomShape">
    <g id="id4">
     <rect class="BoundingBox" stroke="none" fill="none" x="5806" y="10098" width="382" height="381"/>
     <path fill="rgb(204,204,204)" stroke="none" d="M 6187,10289 C 6187,10322 6178,10354 6162,10383 6145,10412 6121,10436 6092,10453 6063,10469 6030,10478 5997,10478 5964,10478 5931,10469 5902,10453 5873,10436 5849,10412 5832,10383 5816,10354 5807,10322 5807,10289 5807,10255 5816,10223 5832,10194 5849,10165 5873,10141 5902,10124 5931,10108 5964,10099 5997,10099 6030,10099 6063,10108 6092,10124 6121,10141 6145,10165 6162,10194 6178,10223 6187,10255 6187,10289 L 6187,10289 Z"/>
    </g>
   </g>
   <g class="com.sun.star.drawing.CustomShape">
    <g id="id5">
     <rect class="BoundingBox" stroke="none" fill="none" x="7416" y="10083" width="381" height="380"/>
     <path fill="rgb(204,204,204)" stroke="none" d="M 7796,10272 C 7796,10306 7787,10338 7771,10367 7754,10396 7730,10420 7701,10437 7672,10453 7639,10462 7606,10462 7573,10462 7540,10453 7511,10437 7482,10420 7458,10396 7441,10367 7425,10338 7416,10306 7416,10272 7416,10239 7425,10207 7441,10178 7458,10149 7482,10125 7511,10108 7540,10092 7573,10083 7606,10083 7639,10083 7672,10092 7701,10108 7730,10125 7754,10149 7771,10178 7787,10207 7796,10239 7796,10272 L 7796,10272 Z"/>
    </g>
   </g>
   <g class="Group">
    <g class="com.sun.star.drawing.CustomShape">
     <g id="id6">
      <rect class="BoundingBox" stroke="none" fill="none" x="5229" y="10398" width="840" height="840"/>
      <path fill="rgb(51,51,51)" stroke="none" d="M 5648,10399 L 6067,11236 5230,11236 5648,10399 Z"/>
      <path fill="none" stroke="rgb(52,101,164)" d="M 5648,10399 L 6067,11236 5230,11236 5648,10399 Z"/>
     </g>
    </g>
    <g class="com.sun.star.drawing.CustomShape">
     <g id="id7">
      <rect class="BoundingBox" stroke="none" fill="none" x="6699" y="10474" width="762" height="762"/>
      <path fill="rgb(51,51,51)" stroke="none" d="M 7080,11234 L 6700,11234 6700,10475 7459,10475 7459,11234 7080,11234 Z"/>
      <path fill="none" stroke="rgb(52,101,164)" d="M 7080,11234 L 6700,11234 6700,10475 7459,10475 7459,11234 7080,11234 Z"/>
     </g>
    </g>
   </g>
  </g>
 </g>
</svg>