<?xml version="1.0" encoding="UTF-8"?>
<!DOCTYPE svg PUBLIC "-//W3C//DTD SVG 1.1//EN" "http://www.w3.org/Graphics/SVG/1.1/DTD/svg11.dtd">
<svg version="1.2" width="29.96mm" height="29.96mm" viewBox="2015 9161 2996 2996" preserveAspectRatio="xMidYMid" fill-rule="evenodd" stroke-width="28.222" stroke-linejoin="round" xmlns="http://www.w3.org/2000/svg" xmlns:ooo="http://xml.openoffice.org/svg/export" xmlns:xlink="http://www.w3.org/1999/xlink" xmlns:presentation="http://sun.com/xmlns/staroffice/presentation" xmlns:smil="http://www.w3.org/2001/SMIL20/" xmlns:anim="urn:oasis:names:tc:opendocument:xmlns:animation:1.0" xml:space="preserve">
 <defs class="EmbeddedBulletChars">
  <g id="bullet-char-template-57356" transform="scale(0.00048828125,-0.00048828125)">
   <path d="M 580,1141 L 1163,571 580,0 -4,571 580,1141 Z"/>
  </g>
  <g id="bullet-char-template-57354" transform="scale(0.00048828125,-0.00048828125)">
   <path d="M 8,1128 L 1137,1128 1137,0 8,0 8,1128 Z"/>
  </g>
  <g id="bullet-char-template-10146" transform="scale(0.00048828125,-0.00048828125)">
   <path d="M 174,0 L 602,739 174,1481 1456,739 174,0 Z M 1358,739 L 309,1346 659,739 1358,739 Z"/>
  </g>
  <g id="bullet-char-template-10132" transform="scale(0.00048828125,-0.00048828125)">
   <path d="M 2015,739 L 1276,0 717,0 1260,543 174,543 174,936 1260,936 717,1481 1274,1481 2015,739 Z"/>
  </g>
  <g id="bullet-char-template-10007" transform="scale(0.00048828125,-0.00048828125)">
   <path d="M 0,-2 C -7,14 -16,27 -25,37 L 356,567 C 262,823 215,952 215,954 215,979 228,992 255,992 264,992 276,990 289,987 310,991 331,999 354,1012 L 381,999 492,748 772,1049 836,1024 860,1049 C 881,1039 901,1025 922,1006 886,937 835,863 770,784 769,783 710,716 594,584 L 774,223 C 774,196 753,168 711,139 L 727,119 C 717,90 699,76 672,76 641,76 570,178 457,381 L 164,-76 C 142,-110 111,-127 72,-127 30,-127 9,-110 8,-76 1,-67 -2,-52 -2,-32 -2,-23 -1,-13 0,-2 Z"/>
  </g>
  <g id="bullet-char-template-10004" transform="scale(0.00048828125,-0.00048828125)">
   <path d="M 285,-33 C 182,-33 111,30 74,156 52,228 41,333 41,471 41,549 55,616 82,672 116,743 169,778 240,778 293,778 328,747 346,684 L 369,508 C 377,444 397,411 428,410 L 1163,1116 C 1174,1127 1196,1133 1229,1133 1271,1133 1292,1118 1292,1087 L 1292,965 C 1292,929 1282,901 1262,881 L 442,47 C 390,-6 338,-33 285,-33 Z"/>
  </g>
  <g id="bullet-char-template-9679" transform="scale(0.00048828125,-0.00048828125)">
   <path d="M 813,0 C 632,0 489,54 383,161 276,268 223,411 223,592 223,773 276,916 383,1023 489,1130 632,1184 813,1184 992,1184 1136,1130 1245,1023 1353,916 1407,772 1407,592 1407,412 1353,268 1245,161 1136,54 992,0 813,0 Z"/>
  </g>
  <g id="bullet-char-template-8226" transform="scale(0.00048828125,-0.00048828125)">
   <path d="M 346,457 C 273,457 209,483 155,535 101,586 74,649 74,723 74,796 101,859 155,911 209,963 273,989 346,989 419,989 480,963 531,910 582,859 608,796 608,723 608,648 583,586 532,535 482,483 420,457 346,457 Z"/>
  </g>
  <g id="bullet-char-template-8211" transform="scale(0.00048828125,-0.00048828125)">
   <path d="M -4,459 L 1135,459 1135,606 -4,606 -4,459 Z"/>
  </g>
  <g id="bullet-char-template-61548" transform="scale(0.00048828125,-0.00048828125)">
   <path d="M 173,740 C 173,903 231,1043 346,1159 462,1274 601,1332 765,1332 928,1332 1067,1274 1183,1159 1299,1043 1357,903 1357,740 1357,577 1299,437 1183,322 1067,206 928,148 765,148 601,148 462,206 346,322 231,437 173,577 173,740 Z"/>
  </g>
 </defs>
 <g class="Page">
  <g class="com.sun.star.drawing.CustomShape">
   <g id="id3">
    <rect class="BoundingBox" stroke="none" fill="none" x="2015" y="9161" width="2996" height="2996"/>
    <path fill="rgb(255,255,255)" stroke="none" d="M 2514,9161 L 2514,9161 C 2427,9161 2340,9184 2265,9228 2189,9272 2126,9335 2082,9411 2038,9486 2015,9573 2015,9660 L 2015,11656 2015,11657 C 2015,11744 2038,11831 2082,11906 2126,11982 2189,12045 2265,12089 2340,12133 2427,12156 2514,12156 L 4510,12155 4511,12156 C 4598,12156 4685,12133 4760,12089 4836,12045 4899,11982 4943,11906 4987,11831 5010,11744 5010,11657 L 5009,9660 5010,9660 5010,9660 C 5010,9573 4987,9486 4943,9411 4899,9335 4836,9272 4760,9228 4685,9184 4598,9161 4511,9161 L 2514,9161 Z"/>
   </g>
  </g>
  <g class="Group">
   <g class="com.sun.star.drawing.CustomShape">
    <g id="id4">
     <rect class="BoundingBox" stroke="none" fill="none" x="2234" y="10329" width="860" height="860"/>
     <path fill="rgb(204,204,204)" stroke="none" d="M 3093,10759 C 3093,10834 3073,10908 3035,10973 2998,11039 2944,11093 2878,11130 2813,11168 2739,11188 2664,11188 2588,11188 2514,11168 2449,11130 2383,11093 2329,11039 2292,10973 2254,10908 2234,10834 2234,10759 2234,10683 2254,10609 2292,10544 2329,10478 2383,10424 2449,10387 2514,10349 2588,10329 2664,10329 2739,10329 2813,10349 2878,10387 2944,10424 2998,10478 3035,10544 3073,10609 3093,10683 3093,10759 L 3093,10759 Z"/>
    </g>
   </g>
   <g class="com.sun.star.drawing.CustomShape">
    <g id="id5">
     <rect class="BoundingBox" stroke="none" fill="none" x="3661" y="10329" width="860" height="860"/>
     <path fill="rgb(204,204,204)" stroke="none" d="M 4520,10759 C 4520,10834 4500,10908 4462,10973 4425,11039 4371,11093 4305,11130 4240,11168 4166,11188 4091,11188 4015,11188 3941,11168 3876,11130 3810,11093 3756,11039 3719,10973 3681,10908 3661,10834 3661,10759 3661,10683 3681,10609 3719,10544 3756,10478 3810,10424 3876,10387 3941,10349 4015,10329 4091,10329 4166,10329 4240,10349 4305,10387 4371,10424 4425,10478 4462,10544 4500,10609 4520,10683 4520,10759 L 4520,10759 Z"/>
    </g>
   </g>
   <g class="com.sun.star.drawing.CustomShape">
    <g id="id6">
     <rect class="BoundingBox" stroke="none" fill="none" x="3029" y="10128" width="352" height="352"/>
     <path fill="rgb(51,51,51)" stroke="none" d="M 3204,10129 L 3379,10478 3030,10478 3204,10129 Z"/>
     <path fill="none" stroke="rgb(52,101,164)" d="M 3204,10129 L 3379,10478 3030,10478 3204,10129 Z"/>
    </g>
   </g>
   <g class="com.sun.star.drawing.CustomShape">
    <g id="id7">
     <rect class="BoundingBox" stroke="none" fill="none" x="4474" y="10158" width="319" height="319"/>
     <path fill="rgb(51,51,51)" stroke="none" d="M 4633,10475 L 4475,10475 4475,10159 4791,10159 4791,10475 4633,10475 Z"/>
     <path fill="none" stroke="rgb(52,101,164)" d="M 4633,10475 L 4475,10475 4475,10159 4791,10159 4791,10475 4633,10475 Z"/>
    </g>
   </g>
  </g>
 </g>
</svg>