<?xml version="1.0" encoding="UTF-8"?>
<!DOCTYPE svg PUBLIC "-//W3C//DTD SVG 1.1//EN" "http://www.w3.org/Graphics/SVG/1.1/DTD/svg11.dtd">
<svg version="1.2" width="29.96mm" height="29.96mm" viewBox="11359 13018 2996 2996" preserveAspectRatio="xMidYMid" fill-rule="evenodd" stroke-width="28.222" stroke-linejoin="round" xmlns="http://www.w3.org/2000/svg" xmlns:ooo="http://xml.openoffice.org/svg/export" xmlns:xlink="http://www.w3.org/1999/xlink" xmlns:presentation="http://sun.com/xmlns/staroffice/presentation" xmlns:smil="http://www.w3.org/2001/SMIL20/" xmlns:anim="urn:oasis:names:tc:opendocument:xmlns:animation:1.0" xml:space="preserve">
 <defs class="EmbeddedBulletChars">
  <g id="bullet-char-template-57356" transform="scale(0.00048828125,-0.00048828125)">
   <path d="M 580,1141 L 1163,571 580,0 -4,571 580,1141 Z"/>
  </g>
  <g id="bullet-char-template-57354" transform="scale(0.00048828125,-0.00048828125)">
   <path d="M 8,1128 L 1137,1128 1137,0 8,0 8,1128 Z"/>
  </g>
  <g id="bullet-char-template-10146" transform="scale(0.00048828125,-0.00048828125)">
   <path d="M 174,0 L 602,739 174,1481 1456,739 174,0 Z M 1358,739 L 309,1346 659,739 1358,739 Z"/>
  </g>
  <g id="bullet-char-template-10132" transform="scale(0.00048828125,-0.00048828125)">
   <path d="M 2015,739 L 1276,0 717,0 1260,543 174,543 174,936 1260,936 717,1481 1274,1481 2015,739 Z"/>
  </g>
  <g id="bullet-char-template-10007" transform="scale(0.00048828125,-0.00048828125)">
   <path d="M 0,-2 C -7,14 -16,27 -25,37 L 356,567 C 262,823 215,952 215,954 215,979 228,992 255,992 264,992 276,990 289,987 310,991 331,999 354,1012 L 381,999 492,748 772,1049 836,1024 860,1049 C 881,1039 901,1025 922,1006 886,937 835,863 770,784 769,783 710,716 594,584 L 774,223 C 774,196 753,168 711,139 L 727,119 C 717,90 699,76 672,76 641,76 570,178 457,381 L 164,-76 C 142,-110 111,-127 72,-127 30,-127 9,-110 8,-76 1,-67 -2,-52 -2,-32 -2,-23 -1,-13 0,-2 Z"/>
  </g>
  <g id="bullet-char-template-10004" transform="scale(0.00048828125,-0.00048828125)">
   <path d="M 285,-33 C 182,-33 111,30 74,156 52,228 41,333 41,471 41,549 55,616 82,672 116,743 169,778 240,778 293,778 328,747 346,684 L 369,508 C 377,444 397,411 428,410 L 1163,1116 C 1174,1127 1196,1133 1229,1133 1271,1133 1292,1118 1292,1087 L 1292,965 C 1292,929 1282,901 1262,881 L 442,47 C 390,-6 338,-33 285,-33 Z"/>
  </g>
  <g id="bullet-char-template-9679" transform="scale(0.00048828125,-0.00048828125)">
   <path d="M 813,0 C 632,0 489,54 383,161 276,268 223,411 223,592 223,773 276,916 383,1023 489,1130 632,1184 813,1184 992,1184 1136,1130 1245,1023 1353,916 1407,772 1407,592 1407,412 1353,268 1245,161 1136,54 992,0 813,0 Z"/>
  </g>
  <g id="bullet-char-template-8226" transform="scale(0.00048828125,-0.00048828125)">
   <path d="M 346,457 C 273,457 209,483 155,535 101,586 74,649 74,723 74,796 101,859 155,911 209,963 273,989 346,989 419,989 480,963 531,910 582,859 608,796 608,723 608,648 583,586 532,535 482,483 420,457 346,457 Z"/>
  </g>
  <g id="bullet-char-template-8211" transform="scale(0.00048828125,-0.00048828125)">
   <path d="M -4,459 L 1135,459 1135,606 -4,606 -4,459 Z"/>
  </g>
  <g id="bullet-char-template-61548" transform="scale(0.00048828125,-0.00048828125)">
   <path d="M 173,740 C 173,903 231,1043 346,1159 462,1274 601,1332 765,1332 928,1332 1067,1274 1183,1159 1299,1043 1357,903 1357,740 1357,577 1299,437 1183,322 1067,206 928,148 765,148 601,148 462,206 346,322 231,437 173,577 173,740 Z"/>
  </g>
 </defs>
 <g class="Page">
  <g class="com.sun.star.drawing.CustomShape">
   <g id="id3">
    <rect class="BoundingBox" stroke="none" fill="none" x="11359" y="13018" width="2996" height="2996"/>
    <path fill="rgb(255,255,255)" stroke="none" d="M 11858,13018 L 11858,13018 C 11771,13018 11684,13041 11609,13085 11533,13129 11470,13192 11426,13268 11382,13343 11359,13430 11359,13517 L 11359,15513 11359,15514 C 11359,15601 11382,15688 11426,15763 11470,15839 11533,15902 11609,15946 11684,15990 11771,16013 11858,16013 L 13854,16012 13855,16013 C 13942,16013 14029,15990 14104,15946 14180,15902 14243,15839 14287,15763 14331,15688 14354,15601 14354,15514 L 14353,13517 14354,13517 14354,13517 C 14354,13430 14331,13343 14287,13268 14243,13192 14180,13129 14104,13085 14029,13041 13942,13018 13855,13018 L 11858,13018 Z"/>
   </g>
  </g>
  <g class="com.sun.star.drawing.CustomShape">
   <g id="id4">
    <rect class="BoundingBox" stroke="none" fill="none" x="12213" y="13395" width="1766" height="2297"/>
    <path fill="rgb(255,255,255)" stroke="none" d="M 12728,13445 L 12729,13445 C 12647,13445 12567,13467 12496,13507 12425,13548 12366,13607 12325,13678 12285,13749 12263,13829 12263,13911 L 12263,15175 12263,15175 C 12263,15257 12285,15337 12325,15408 12366,15479 12425,15538 12496,15579 12567,15619 12647,15641 12729,15641 L 13461,15641 13461,15641 C 13543,15641 13623,15619 13694,15579 13765,15538 13824,15479 13865,15408 13905,15337 13927,15257 13927,15175 L 13927,13910 13927,13911 13927,13911 C 13927,13829 13905,13749 13865,13678 13824,13607 13765,13548 13694,13507 13623,13467 13543,13445 13461,13445 L 12728,13445 Z"/>
    <path fill="none" stroke="rgb(0,0,0)" stroke-width="100" stroke-linejoin="round" d="M 12728,13445 L 12729,13445 C 12647,13445 12567,13467 12496,13507 12425,13548 12366,13607 12325,13678 12285,13749 12263,13829 12263,13911 L 12263,15175 12263,15175 C 12263,15257 12285,15337 12325,15408 12366,15479 12425,15538 12496,15579 12567,15619 12647,15641 12729,15641 L 13461,15641 13461,15641 C 13543,15641 13623,15619 13694,15579 13765,15538 13824,15479 13865,15408 13905,15337 13927,15257 13927,15175 L 13927,13910 13927,13911 13927,13911 C 13927,13829 13905,13749 13865,13678 13824,13607 13765,13548 13694,13507 13623,13467 13543,13445 13461,13445 L 12728,13445 Z"/>
   </g>
  </g>
  <g class="com.sun.star.drawing.CustomShape">
   <g id="id5">
    <rect class="BoundingBox" stroke="none" fill="none" x="11732" y="13619" width="1766" height="2297"/>
    <path fill="rgb(255,255,255)" stroke="none" d="M 12247,13669 L 12248,13669 C 12166,13669 12086,13691 12015,13731 11944,13772 11885,13831 11844,13902 11804,13973 11782,14053 11782,14135 L 11782,15399 11782,15399 C 11782,15481 11804,15561 11844,15632 11885,15703 11944,15762 12015,15803 12086,15843 12166,15865 12248,15865 L 12980,15865 12980,15865 C 13062,15865 13142,15843 13213,15803 13284,15762 13343,15703 13384,15632 13424,15561 13446,15481 13446,15399 L 13446,14134 13446,14135 13446,14135 C 13446,14053 13424,13973 13384,13902 13343,13831 13284,13772 13213,13731 13142,13691 13062,13669 12980,13669 L 12247,13669 Z"/>
    <path fill="none" stroke="rgb(0,0,0)" stroke-width="100" stroke-linejoin="round" d="M 12247,13669 L 12248,13669 C 12166,13669 12086,13691 12015,13731 11944,13772 11885,13831 11844,13902 11804,13973 11782,14053 11782,14135 L 11782,15399 11782,15399 C 11782,15481 11804,15561 11844,15632 11885,15703 11944,15762 12015,15803 12086,15843 12166,15865 12248,15865 L 12980,15865 12980,15865 C 13062,15865 13142,15843 13213,15803 13284,15762 13343,15703 13384,15632 13424,15561 13446,15481 13446,15399 L 13446,14134 13446,14135 13446,14135 C 13446,14053 13424,13973 13384,13902 13343,13831 13284,13772 13213,13731 13142,13691 13062,13669 12980,13669 L 12247,13669 Z"/>
   </g>
  </g>
  <g class="Group">
   <g class="Group">
    <g class="com.sun.star.drawing.CustomShape">
     <g id="id6">
      <rect class="BoundingBox" stroke="none" fill="none" x="11733" y="15291" width="623" height="622"/>
      <path fill="rgb(221,221,221)" stroke="none" d="M 12355,15602 C 12355,15656 12341,15710 12313,15757 12286,15804 12247,15843 12200,15870 12152,15898 12099,15912 12044,15912 11989,15912 11936,15898 11889,15870 11841,15843 11802,15804 11775,15757 11747,15710 11733,15656 11733,15602 11733,15547 11747,15493 11775,15446 11802,15399 11841,15360 11889,15333 11936,15305 11989,15291 12044,15291 12099,15291 12152,15305 12200,15333 12247,15360 12286,15399 12313,15446 12341,15493 12355,15547 12355,15602 L 12355,15602 Z"/>
     </g>
    </g>
    <g class="com.sun.star.drawing.CustomShape">
     <g id="id7">
      <rect class="BoundingBox" stroke="none" fill="none" x="11896" y="15454" width="298" height="298"/>
      <path fill="rgb(255,255,255)" stroke="none" d="M 11932,15603 L 11932,15602 12044,15602 12044,15490 12046,15490 12046,15602 12158,15602 12158,15603 12046,15603 12046,15715 12044,15715 12044,15603 11932,15603 11932,15603 Z"/>
      <path fill="none" stroke="rgb(0,0,0)" stroke-width="70" stroke-linejoin="round" d="M 11932,15603 L 11932,15602 12044,15602 12044,15490 12046,15490 12046,15602 12158,15602 12158,15603 12046,15603 12046,15715 12044,15715 12044,15603 11932,15603 11932,15603 Z"/>
     </g>
    </g>
   </g>
  </g>
 </g>
</svg>