<?xml version="1.0" encoding="UTF-8"?>
<!DOCTYPE svg PUBLIC "-//W3C//DTD SVG 1.1//EN" "http://www.w3.org/Graphics/SVG/1.1/DTD/svg11.dtd">
<svg version="1.2" width="27.73mm" height="16.54mm" viewBox="11156 11237 2773 1654" preserveAspectRatio="xMidYMid" fill-rule="evenodd" stroke-width="28.222" stroke-linejoin="round" xmlns="http://www.w3.org/2000/svg" xmlns:ooo="http://xml.openoffice.org/svg/export" xmlns:xlink="http://www.w3.org/1999/xlink" xmlns:presentation="http://sun.com/xmlns/staroffice/presentation" xmlns:smil="http://www.w3.org/2001/SMIL20/" xmlns:anim="urn:oasis:names:tc:opendocument:xmlns:animation:1.0" xml:space="preserve">
 <defs class="EmbeddedBulletChars">
  <g id="bullet-char-template-57356" transform="scale(0.00048828125,-0.00048828125)">
   <path d="M 580,1141 L 1163,571 580,0 -4,571 580,1141 Z"/>
  </g>
  <g id="bullet-char-template-57354" transform="scale(0.00048828125,-0.00048828125)">
   <path d="M 8,1128 L 1137,1128 1137,0 8,0 8,1128 Z"/>
  </g>
  <g id="bullet-char-template-10146" transform="scale(0.00048828125,-0.00048828125)">
   <path d="M 174,0 L 602,739 174,1481 1456,739 174,0 Z M 1358,739 L 309,1346 659,739 1358,739 Z"/>
  </g>
  <g id="bullet-char-template-10132" transform="scale(0.00048828125,-0.00048828125)">
   <path d="M 2015,739 L 1276,0 717,0 1260,543 174,543 174,936 1260,936 717,1481 1274,1481 2015,739 Z"/>
  </g>
  <g id="bullet-char-template-10007" transform="scale(0.00048828125,-0.00048828125)">
   <path d="M 0,-2 C -7,14 -16,27 -25,37 L 356,567 C 262,823 215,952 215,954 215,979 228,992 255,992 264,992 276,990 289,987 310,991 331,999 354,1012 L 381,999 492,748 772,1049 836,1024 860,1049 C 881,1039 901,1025 922,1006 886,937 835,863 770,784 769,783 710,716 594,584 L 774,223 C 774,196 753,168 711,139 L 727,119 C 717,90 699,76 672,76 641,76 570,178 457,381 L 164,-76 C 142,-110 111,-127 72,-127 30,-127 9,-110 8,-76 1,-67 -2,-52 -2,-32 -2,-23 -1,-13 0,-2 Z"/>
  </g>
  <g id="bullet-char-template-10004" transform="scale(0.00048828125,-0.00048828125)">
   <path d="M 285,-33 C 182,-33 111,30 74,156 52,228 41,333 41,471 41,549 55,616 82,672 116,743 169,778 240,778 293,778 328,747 346,684 L 369,508 C 377,444 397,411 428,410 L 1163,1116 C 1174,1127 1196,1133 1229,1133 1271,1133 1292,1118 1292,1087 L 1292,965 C 1292,929 1282,901 1262,881 L 442,47 C 390,-6 338,-33 285,-33 Z"/>
  </g>
  <g id="bullet-char-template-9679" transform="scale(0.00048828125,-0.00048828125)">
   <path d="M 813,0 C 632,0 489,54 383,161 276,268 223,411 223,592 223,773 276,916 383,1023 489,1130 632,1184 813,1184 992,1184 1136,1130 1245,1023 1353,916 1407,772 1407,592 1407,412 1353,268 1245,161 1136,54 992,0 813,0 Z"/>
  </g>
  <g id="bullet-char-template-8226" transform="scale(0.00048828125,-0.00048828125)">
   <path d="M 346,457 C 273,457 209,483 155,535 101,586 74,649 74,723 74,796 101,859 155,911 209,963 273,989 346,989 419,989 480,963 531,910 582,859 608,796 608,723 608,648 583,586 532,535 482,483 420,457 346,457 Z"/>
  </g>
  <g id="bullet-char-template-8211" transform="scale(0.00048828125,-0.00048828125)">
   <path d="M -4,459 L 1135,459 1135,606 -4,606 -4,459 Z"/>
  </g>
  <g id="bullet-char-template-61548" transform="scale(0.00048828125,-0.00048828125)">
   <path d="M 173,740 C 173,903 231,1043 346,1159 462,1274 601,1332 765,1332 928,1332 1067,1274 1183,1159 1299,1043 1357,903 1357,740 1357,577 1299,437 1183,322 1067,206 928,148 765,148 601,148 462,206 346,322 231,437 173,577 173,740 Z"/>
  </g>
 </defs>
 <g class="Page">
  <g class="com.sun.star.drawing.CustomShape">
   <g id="id3">
    <rect class="BoundingBox" stroke="none" fill="none" x="11624" y="11237" width="265" height="1632"/>
    <path fill="rgb(189,189,189)" stroke="none" d="M 11756,11237 L 11756,11237 C 11733,11237 11710,11243 11690,11255 11670,11266 11653,11283 11642,11303 11630,11323 11624,11346 11624,11369 L 11624,12735 11624,12735 C 11624,12758 11630,12781 11642,12801 11653,12821 11670,12838 11690,12849 11710,12861 11733,12867 11756,12867 L 11756,12867 11756,12867 C 11779,12867 11802,12861 11822,12849 11842,12838 11859,12821 11870,12801 11882,12781 11888,12758 11888,12735 L 11888,11369 11888,11369 11888,11369 C 11888,11346 11882,11323 11870,11303 11859,11283 11842,11266 11822,11255 11802,11243 11779,11237 11756,11237 L 11756,11237 Z"/>
   </g>
  </g>
  <g class="com.sun.star.drawing.CustomShape">
   <g id="id4">
    <rect class="BoundingBox" stroke="none" fill="none" x="11156" y="12383" width="1173" height="500"/>
    <path fill="rgb(255,255,255)" stroke="none" d="M 11356,12433 L 11357,12433 C 11330,12433 11304,12440 11281,12453 11258,12466 11239,12485 11226,12508 11213,12531 11206,12557 11206,12583 L 11206,12681 11206,12682 C 11206,12708 11213,12734 11226,12757 11239,12780 11258,12799 11281,12812 11304,12825 11330,12832 11357,12832 L 12127,12832 12127,12832 C 12154,12832 12180,12825 12203,12812 12226,12799 12245,12780 12258,12757 12271,12734 12278,12708 12278,12682 L 12278,12583 12278,12583 12278,12583 C 12278,12557 12271,12531 12258,12508 12245,12485 12226,12466 12203,12453 12180,12440 12154,12433 12127,12433 L 11356,12433 Z"/>
    <path fill="none" stroke="rgb(97,97,97)" stroke-width="100" stroke-linejoin="round" d="M 11356,12433 L 11357,12433 C 11330,12433 11304,12440 11281,12453 11258,12466 11239,12485 11226,12508 11213,12531 11206,12557 11206,12583 L 11206,12681 11206,12682 C 11206,12708 11213,12734 11226,12757 11239,12780 11258,12799 11281,12812 11304,12825 11330,12832 11357,12832 L 12127,12832 12127,12832 C 12154,12832 12180,12825 12203,12812 12226,12799 12245,12780 12258,12757 12271,12734 12278,12708 12278,12682 L 12278,12583 12278,12583 12278,12583 C 12278,12557 12271,12531 12258,12508 12245,12485 12226,12466 12203,12453 12180,12440 12154,12433 12127,12433 L 11356,12433 Z"/>
   </g>
  </g>
  <g class="com.sun.star.drawing.CustomShape">
   <g id="id5">
    <rect class="BoundingBox" stroke="none" fill="none" x="11319" y="11905" width="851" height="500"/>
    <path fill="rgb(255,255,255)" stroke="none" d="M 11519,11955 L 11519,11955 C 11493,11955 11467,11962 11444,11975 11421,11988 11402,12007 11389,12030 11376,12053 11369,12079 11369,12106 L 11369,12203 11369,12204 C 11369,12230 11376,12256 11389,12279 11402,12302 11421,12321 11444,12334 11467,12347 11493,12354 11519,12354 L 11968,12354 11969,12354 C 11995,12354 12021,12347 12044,12334 12067,12321 12086,12302 12099,12279 12112,12256 12119,12230 12119,12204 L 12119,12105 12119,12106 12119,12106 C 12119,12079 12112,12053 12099,12030 12086,12007 12067,11988 12044,11975 12021,11962 11995,11955 11969,11955 L 11519,11955 Z"/>
    <path fill="none" stroke="rgb(97,97,97)" stroke-width="100" stroke-linejoin="round" d="M 11519,11955 L 11519,11955 C 11493,11955 11467,11962 11444,11975 11421,11988 11402,12007 11389,12030 11376,12053 11369,12079 11369,12106 L 11369,12203 11369,12204 C 11369,12230 11376,12256 11389,12279 11402,12302 11421,12321 11444,12334 11467,12347 11493,12354 11519,12354 L 11968,12354 11969,12354 C 11995,12354 12021,12347 12044,12334 12067,12321 12086,12302 12099,12279 12112,12256 12119,12230 12119,12204 L 12119,12105 12119,12106 12119,12106 C 12119,12079 12112,12053 12099,12030 12086,12007 12067,11988 12044,11975 12021,11962 11995,11955 11969,11955 L 11519,11955 Z"/>
   </g>
  </g>
  <g class="com.sun.star.drawing.CustomShape">
   <g id="id6">
    <rect class="BoundingBox" stroke="none" fill="none" x="13224" y="11245" width="265" height="1632"/>
    <path fill="rgb(189,189,189)" stroke="none" d="M 13356,11245 L 13356,11245 C 13333,11245 13310,11251 13290,11263 13270,11274 13253,11291 13242,11311 13230,11331 13224,11354 13224,11377 L 13224,12743 13224,12743 C 13224,12766 13230,12789 13242,12809 13253,12829 13270,12846 13290,12857 13310,12869 13333,12875 13356,12875 L 13356,12875 13356,12875 C 13379,12875 13402,12869 13422,12857 13442,12846 13459,12829 13470,12809 13482,12789 13488,12766 13488,12743 L 13488,11377 13488,11377 13488,11377 C 13488,11354 13482,11331 13470,11311 13459,11291 13442,11274 13422,11263 13402,11251 13379,11245 13356,11245 L 13356,11245 Z"/>
   </g>
  </g>
  <g class="com.sun.star.drawing.CustomShape">
   <g id="id7">
    <rect class="BoundingBox" stroke="none" fill="none" x="12756" y="12391" width="1173" height="500"/>
    <path fill="rgb(255,255,255)" stroke="none" d="M 12956,12441 L 12957,12441 C 12930,12441 12904,12448 12881,12461 12858,12474 12839,12493 12826,12516 12813,12539 12806,12565 12806,12592 L 12806,12689 12806,12690 C 12806,12716 12813,12742 12826,12765 12839,12788 12858,12807 12881,12820 12904,12833 12930,12840 12957,12840 L 13727,12840 13727,12840 C 13754,12840 13780,12833 13803,12820 13826,12807 13845,12788 13858,12765 13871,12742 13878,12716 13878,12690 L 13878,12591 13878,12592 13878,12592 C 13878,12565 13871,12539 13858,12516 13845,12493 13826,12474 13803,12461 13780,12448 13754,12441 13727,12441 L 12956,12441 Z"/>
    <path fill="none" stroke="rgb(97,97,97)" stroke-width="100" stroke-linejoin="round" d="M 12956,12441 L 12957,12441 C 12930,12441 12904,12448 12881,12461 12858,12474 12839,12493 12826,12516 12813,12539 12806,12565 12806,12592 L 12806,12689 12806,12690 C 12806,12716 12813,12742 12826,12765 12839,12788 12858,12807 12881,12820 12904,12833 12930,12840 12957,12840 L 13727,12840 13727,12840 C 13754,12840 13780,12833 13803,12820 13826,12807 13845,12788 13858,12765 13871,12742 13878,12716 13878,12690 L 13878,12591 13878,12592 13878,12592 C 13878,12565 13871,12539 13858,12516 13845,12493 13826,12474 13803,12461 13780,12448 13754,12441 13727,12441 L 12956,12441 Z"/>
   </g>
  </g>
  <g class="com.sun.star.drawing.OpenFreeHandShape">
   <g id="id8">
    <rect class="BoundingBox" stroke="none" fill="none" x="11957" y="11644" width="1246" height="506"/>
    <path fill="none" stroke="rgb(0,0,0)" stroke-width="100" stroke-linejoin="round" d="M 12007,11815 C 12362,11623 12628,11663 12965,11924"/>
    <path fill="rgb(0,0,0)" stroke="none" d="M 13066,11782 L 13201,12149 12826,12036 13066,11782 Z"/>
   </g>
  </g>
 </g>
</svg>