<?xml version="1.0" encoding="UTF-8"?>
<!DOCTYPE svg PUBLIC "-//W3C//DTD SVG 1.1//EN" "http://www.w3.org/Graphics/SVG/1.1/DTD/svg11.dtd">
<svg version="1.2" width="29.96mm" height="29.96mm" viewBox="8016 9162 2996 2996" preserveAspectRatio="xMidYMid" fill-rule="evenodd" stroke-width="28.222" stroke-linejoin="round" xmlns="http://www.w3.org/2000/svg" xmlns:ooo="http://xml.openoffice.org/svg/export" xmlns:xlink="http://www.w3.org/1999/xlink" xmlns:presentation="http://sun.com/xmlns/staroffice/presentation" xmlns:smil="http://www.w3.org/2001/SMIL20/" xmlns:anim="urn:oasis:names:tc:opendocument:xmlns:animation:1.0" xml:space="preserve">
 <defs class="EmbeddedBulletChars">
  <g id="bullet-char-template-57356" transform="scale(0.00048828125,-0.00048828125)">
   <path d="M 580,1141 L 1163,571 580,0 -4,571 580,1141 Z"/>
  </g>
  <g id="bullet-char-template-57354" transform="scale(0.00048828125,-0.00048828125)">
   <path d="M 8,1128 L 1137,1128 1137,0 8,0 8,1128 Z"/>
  </g>
  <g id="bullet-char-template-10146" transform="scale(0.00048828125,-0.00048828125)">
   <path d="M 174,0 L 602,739 174,1481 1456,739 174,0 Z M 1358,739 L 309,1346 659,739 1358,739 Z"/>
  </g>
  <g id="bullet-char-template-10132" transform="scale(0.00048828125,-0.00048828125)">
   <path d="M 2015,739 L 1276,0 717,0 1260,543 174,543 174,936 1260,936 717,1481 1274,1481 2015,739 Z"/>
  </g>
  <g id="bullet-char-template-10007" transform="scale(0.00048828125,-0.00048828125)">
   <path d="M 0,-2 C -7,14 -16,27 -25,37 L 356,567 C 262,823 215,952 215,954 215,979 228,992 255,992 264,992 276,990 289,987 310,991 331,999 354,1012 L 381,999 492,748 772,1049 836,1024 860,1049 C 881,1039 901,1025 922,1006 886,937 835,863 770,784 769,783 710,716 594,584 L 774,223 C 774,196 753,168 711,139 L 727,119 C 717,90 699,76 672,76 641,76 570,178 457,381 L 164,-76 C 142,-110 111,-127 72,-127 30,-127 9,-110 8,-76 1,-67 -2,-52 -2,-32 -2,-23 -1,-13 0,-2 Z"/>
  </g>
  <g id="bullet-char-template-10004" transform="scale(0.00048828125,-0.00048828125)">
   <path d="M 285,-33 C 182,-33 111,30 74,156 52,228 41,333 41,471 41,549 55,616 82,672 116,743 169,778 240,778 293,778 328,747 346,684 L 369,508 C 377,444 397,411 428,410 L 1163,1116 C 1174,1127 1196,1133 1229,1133 1271,1133 1292,1118 1292,1087 L 1292,965 C 1292,929 1282,901 1262,881 L 442,47 C 390,-6 338,-33 285,-33 Z"/>
  </g>
  <g id="bullet-char-template-9679" transform="scale(0.00048828125,-0.00048828125)">
   <path d="M 813,0 C 632,0 489,54 383,161 276,268 223,411 223,592 223,773 276,916 383,1023 489,1130 632,1184 813,1184 992,1184 1136,1130 1245,1023 1353,916 1407,772 1407,592 1407,412 1353,268 1245,161 1136,54 992,0 813,0 Z"/>
  </g>
  <g id="bullet-char-template-8226" transform="scale(0.00048828125,-0.00048828125)">
   <path d="M 346,457 C 273,457 209,483 155,535 101,586 74,649 74,723 74,796 101,859 155,911 209,963 273,989 346,989 419,989 480,963 531,910 582,859 608,796 608,723 608,648 583,586 532,535 482,483 420,457 346,457 Z"/>
  </g>
  <g id="bullet-char-template-8211" transform="scale(0.00048828125,-0.00048828125)">
   <path d="M -4,459 L 1135,459 1135,606 -4,606 -4,459 Z"/>
  </g>
  <g id="bullet-char-template-61548" transform="scale(0.00048828125,-0.00048828125)">
   <path d="M 173,740 C 173,903 231,1043 346,1159 462,1274 601,1332 765,1332 928,1332 1067,1274 1183,1159 1299,1043 1357,903 1357,740 1357,577 1299,437 1183,322 1067,206 928,148 765,148 601,148 462,206 346,322 231,437 173,577 173,740 Z"/>
  </g>
 </defs>
 <g class="Page">
  <g class="com.sun.star.drawing.CustomShape">
   <g id="id3">
    <rect class="BoundingBox" stroke="none" fill="none" x="8016" y="9162" width="2996" height="2996"/>
    <path fill="rgb(255,255,255)" stroke="none" d="M 8515,9162 L 8515,9162 C 8428,9162 8341,9185 8266,9229 8190,9273 8127,9336 8083,9412 8039,9487 8016,9574 8016,9661 L 8016,11657 8016,11658 C 8016,11745 8039,11832 8083,11907 8127,11983 8190,12046 8266,12090 8341,12134 8428,12157 8515,12157 L 10511,12156 10512,12157 C 10599,12157 10686,12134 10761,12090 10837,12046 10900,11983 10944,11907 10988,11832 11011,11745 11011,11658 L 11010,9661 11011,9661 11011,9661 C 11011,9574 10988,9487 10944,9412 10900,9336 10837,9273 10761,9229 10686,9185 10599,9162 10512,9162 L 8515,9162 Z"/>
   </g>
  </g>
  <g class="com.sun.star.drawing.CustomShape">
   <g id="id4">
    <rect class="BoundingBox" stroke="none" fill="none" x="8992" y="10439" width="861" height="860"/>
    <path fill="rgb(204,204,204)" stroke="none" d="M 9852,10868 C 9852,10944 9832,11018 9794,11083 9757,11149 9703,11203 9637,11240 9572,11278 9498,11298 9423,11298 9347,11298 9273,11278 9208,11240 9142,11203 9088,11149 9051,11083 9013,11018 8993,10944 8993,10868 8993,10793 9013,10719 9051,10654 9088,10588 9142,10534 9208,10497 9273,10459 9347,10439 9423,10439 9498,10439 9572,10459 9637,10497 9703,10534 9757,10588 9794,10654 9832,10719 9852,10793 9852,10868 L 9852,10868 Z"/>
   </g>
  </g>
  <g class="com.sun.star.drawing.CustomShape">
   <g id="id5">
    <rect class="BoundingBox" stroke="none" fill="none" x="9788" y="10238" width="352" height="352"/>
    <path fill="rgb(51,51,51)" stroke="none" d="M 9963,10239 L 10138,10588 9789,10588 9963,10239 Z"/>
    <path fill="none" stroke="rgb(52,101,164)" d="M 9963,10239 L 10138,10588 9789,10588 9963,10239 Z"/>
   </g>
  </g>
  <g class="com.sun.star.drawing.CustomShape">
   <g id="id6">
    <rect class="BoundingBox" stroke="none" fill="none" x="10233" y="9868" width="319" height="319"/>
    <path fill="rgb(51,51,51)" stroke="none" d="M 10392,10185 L 10234,10185 10234,9869 10550,9869 10550,10185 10392,10185 Z"/>
    <path fill="none" stroke="rgb(52,101,164)" d="M 10392,10185 L 10234,10185 10234,9869 10550,9869 10550,10185 10392,10185 Z"/>
   </g>
  </g>
  <g class="Group">
   <g class="com.sun.star.drawing.EllipseShape">
    <g id="id7">
     <rect class="BoundingBox" stroke="none" fill="none" x="9817" y="9965" width="561" height="1631"/>
     <path fill="none" stroke="rgb(153,153,153)" stroke-width="100" stroke-linejoin="round" stroke-linecap="round" d="M 9920,10016 C 10038,10092 10137,10196 10207,10318 10286,10454 10327,10607 10327,10764 10327,10921 10286,11074 10207,11210 10129,11346 10016,11458 9881,11536 9876,11539 9872,11542 9867,11544"/>
    </g>
   </g>
   <g class="com.sun.star.drawing.EllipseShape">
    <g id="id8">
     <rect class="BoundingBox" stroke="none" fill="none" x="8513" y="9965" width="561" height="1631"/>
     <path fill="none" stroke="rgb(153,153,153)" stroke-width="100" stroke-linejoin="round" stroke-linecap="round" d="M 9023,11544 C 9018,11542 9014,11539 9009,11536 8874,11458 8761,11346 8683,11210 8604,11074 8563,10921 8563,10764 8563,10607 8604,10454 8683,10318 8753,10196 8852,10092 8970,10015"/>
    </g>
   </g>
  </g>
 </g>
</svg>