<?xml version="1.0" encoding="UTF-8"?>
<!DOCTYPE svg PUBLIC "-//W3C//DTD SVG 1.1//EN" "http://www.w3.org/Graphics/SVG/1.1/DTD/svg11.dtd">
<svg version="1.2" width="29.96mm" height="29.96mm" viewBox="14360 13019 2996 2996" preserveAspectRatio="xMidYMid" fill-rule="evenodd" stroke-width="28.222" stroke-linejoin="round" xmlns="http://www.w3.org/2000/svg" xmlns:ooo="http://xml.openoffice.org/svg/export" xmlns:xlink="http://www.w3.org/1999/xlink" xmlns:presentation="http://sun.com/xmlns/staroffice/presentation" xmlns:smil="http://www.w3.org/2001/SMIL20/" xmlns:anim="urn:oasis:names:tc:opendocument:xmlns:animation:1.0" xml:space="preserve">
 <defs class="EmbeddedBulletChars">
  <g id="bullet-char-template-57356" transform="scale(0.00048828125,-0.00048828125)">
   <path d="M 580,1141 L 1163,571 580,0 -4,571 580,1141 Z"/>
  </g>
  <g id="bullet-char-template-57354" transform="scale(0.00048828125,-0.00048828125)">
   <path d="M 8,1128 L 1137,1128 1137,0 8,0 8,1128 Z"/>
  </g>
  <g id="bullet-char-template-10146" transform="scale(0.00048828125,-0.00048828125)">
   <path d="M 174,0 L 602,739 174,1481 1456,739 174,0 Z M 1358,739 L 309,1346 659,739 1358,739 Z"/>
  </g>
  <g id="bullet-char-template-10132" transform="scale(0.00048828125,-0.00048828125)">
   <path d="M 2015,739 L 1276,0 717,0 1260,543 174,543 174,936 1260,936 717,1481 1274,1481 2015,739 Z"/>
  </g>
  <g id="bullet-char-template-10007" transform="scale(0.00048828125,-0.00048828125)">
   <path d="M 0,-2 C -7,14 -16,27 -25,37 L 356,567 C 262,823 215,952 215,954 215,979 228,992 255,992 264,992 276,990 289,987 310,991 331,999 354,1012 L 381,999 492,748 772,1049 836,1024 860,1049 C 881,1039 901,1025 922,1006 886,937 835,863 770,784 769,783 710,716 594,584 L 774,223 C 774,196 753,168 711,139 L 727,119 C 717,90 699,76 672,76 641,76 570,178 457,381 L 164,-76 C 142,-110 111,-127 72,-127 30,-127 9,-110 8,-76 1,-67 -2,-52 -2,-32 -2,-23 -1,-13 0,-2 Z"/>
  </g>
  <g id="bullet-char-template-10004" transform="scale(0.00048828125,-0.00048828125)">
   <path d="M 285,-33 C 182,-33 111,30 74,156 52,228 41,333 41,471 41,549 55,616 82,672 116,743 169,778 240,778 293,778 328,747 346,684 L 369,508 C 377,444 397,411 428,410 L 1163,1116 C 1174,1127 1196,1133 1229,1133 1271,1133 1292,1118 1292,1087 L 1292,965 C 1292,929 1282,901 1262,881 L 442,47 C 390,-6 338,-33 285,-33 Z"/>
  </g>
  <g id="bullet-char-template-9679" transform="scale(0.00048828125,-0.00048828125)">
   <path d="M 813,0 C 632,0 489,54 383,161 276,268 223,411 223,592 223,773 276,916 383,1023 489,1130 632,1184 813,1184 992,1184 1136,1130 1245,1023 1353,916 1407,772 1407,592 1407,412 1353,268 1245,161 1136,54 992,0 813,0 Z"/>
  </g>
  <g id="bullet-char-template-8226" transform="scale(0.00048828125,-0.00048828125)">
   <path d="M 346,457 C 273,457 209,483 155,535 101,586 74,649 74,723 74,796 101,859 155,911 209,963 273,989 346,989 419,989 480,963 531,910 582,859 608,796 608,723 608,648 583,586 532,535 482,483 420,457 346,457 Z"/>
  </g>
  <g id="bullet-char-template-8211" transform="scale(0.00048828125,-0.00048828125)">
   <path d="M -4,459 L 1135,459 1135,606 -4,606 -4,459 Z"/>
  </g>
  <g id="bullet-char-template-61548" transform="scale(0.00048828125,-0.00048828125)">
   <path d="M 173,740 C 173,903 231,1043 346,1159 462,1274 601,1332 765,1332 928,1332 1067,1274 1183,1159 1299,1043 1357,903 1357,740 1357,577 1299,437 1183,322 1067,206 928,148 765,148 601,148 462,206 346,322 231,437 173,577 173,740 Z"/>
  </g>
 </defs>
 <g class="Page">
  <g class="com.sun.star.drawing.CustomShape">
   <g id="id3">
    <rect class="BoundingBox" stroke="none" fill="none" x="14360" y="13019" width="2996" height="2996"/>
    <path fill="rgb(255,255,255)" stroke="none" d="M 14859,13019 L 14859,13019 C 14772,13019 14685,13042 14610,13086 14534,13130 14471,13193 14427,13269 14383,13344 14360,13431 14360,13518 L 14360,15514 14360,15515 C 14360,15602 14383,15689 14427,15764 14471,15840 14534,15903 14610,15947 14685,15991 14772,16014 14859,16014 L 16855,16013 16856,16014 C 16943,16014 17030,15991 17105,15947 17181,15903 17244,15840 17288,15764 17332,15689 17355,15602 17355,15515 L 17354,13518 17355,13518 17355,13518 C 17355,13431 17332,13344 17288,13269 17244,13193 17181,13130 17105,13086 17030,13042 16943,13019 16856,13019 L 14859,13019 Z"/>
   </g>
  </g>
  <g class="com.sun.star.drawing.CustomShape">
   <g id="id4">
    <rect class="BoundingBox" stroke="none" fill="none" x="15212" y="13394" width="1766" height="2297"/>
    <path fill="rgb(255,255,255)" stroke="none" d="M 15727,13444 L 15728,13444 C 15646,13444 15566,13466 15495,13506 15424,13547 15365,13606 15324,13677 15284,13748 15262,13828 15262,13910 L 15262,15174 15262,15174 C 15262,15256 15284,15336 15324,15407 15365,15478 15424,15537 15495,15578 15566,15618 15646,15640 15728,15640 L 16460,15640 16460,15640 C 16542,15640 16622,15618 16693,15578 16764,15537 16823,15478 16864,15407 16904,15336 16926,15256 16926,15174 L 16926,13909 16926,13910 16926,13910 C 16926,13828 16904,13748 16864,13677 16823,13606 16764,13547 16693,13506 16622,13466 16542,13444 16460,13444 L 15727,13444 Z"/>
    <path fill="none" stroke="rgb(0,0,0)" stroke-width="100" stroke-linejoin="round" d="M 15727,13444 L 15728,13444 C 15646,13444 15566,13466 15495,13506 15424,13547 15365,13606 15324,13677 15284,13748 15262,13828 15262,13910 L 15262,15174 15262,15174 C 15262,15256 15284,15336 15324,15407 15365,15478 15424,15537 15495,15578 15566,15618 15646,15640 15728,15640 L 16460,15640 16460,15640 C 16542,15640 16622,15618 16693,15578 16764,15537 16823,15478 16864,15407 16904,15336 16926,15256 16926,15174 L 16926,13909 16926,13910 16926,13910 C 16926,13828 16904,13748 16864,13677 16823,13606 16764,13547 16693,13506 16622,13466 16542,13444 16460,13444 L 15727,13444 Z"/>
   </g>
  </g>
  <g class="com.sun.star.drawing.CustomShape">
   <g id="id5">
    <rect class="BoundingBox" stroke="none" fill="none" x="14731" y="13618" width="1766" height="2297"/>
    <path fill="rgb(255,255,255)" stroke="none" d="M 15246,13668 L 15247,13668 C 15165,13668 15085,13690 15014,13730 14943,13771 14884,13830 14843,13901 14803,13972 14781,14052 14781,14134 L 14781,15398 14781,15398 C 14781,15480 14803,15560 14843,15631 14884,15702 14943,15761 15014,15802 15085,15842 15165,15864 15247,15864 L 15979,15864 15979,15864 C 16061,15864 16141,15842 16212,15802 16283,15761 16342,15702 16383,15631 16423,15560 16445,15480 16445,15398 L 16445,14133 16445,14134 16445,14134 C 16445,14052 16423,13972 16383,13901 16342,13830 16283,13771 16212,13730 16141,13690 16061,13668 15979,13668 L 15246,13668 Z"/>
    <path fill="none" stroke="rgb(0,0,0)" stroke-width="100" stroke-linejoin="round" d="M 15246,13668 L 15247,13668 C 15165,13668 15085,13690 15014,13730 14943,13771 14884,13830 14843,13901 14803,13972 14781,14052 14781,14134 L 14781,15398 14781,15398 C 14781,15480 14803,15560 14843,15631 14884,15702 14943,15761 15014,15802 15085,15842 15165,15864 15247,15864 L 15979,15864 15979,15864 C 16061,15864 16141,15842 16212,15802 16283,15761 16342,15702 16383,15631 16423,15560 16445,15480 16445,15398 L 16445,14133 16445,14134 16445,14134 C 16445,14052 16423,13972 16383,13901 16342,13830 16283,13771 16212,13730 16141,13690 16061,13668 15979,13668 L 15246,13668 Z"/>
   </g>
  </g>
  <g class="Group">
   <g class="Group">
    <g class="com.sun.star.drawing.CustomShape">
     <g id="id6">
      <rect class="BoundingBox" stroke="none" fill="none" x="16432" y="13290" width="623" height="622"/>
      <path fill="rgb(143,145,163)" stroke="none" d="M 17054,13601 C 17054,13655 17040,13709 17012,13756 16985,13803 16946,13842 16899,13869 16851,13897 16798,13911 16743,13911 16688,13911 16635,13897 16588,13869 16540,13842 16501,13803 16474,13756 16446,13709 16432,13655 16432,13601 16432,13546 16446,13492 16474,13445 16501,13398 16540,13359 16588,13332 16635,13304 16688,13290 16743,13290 16798,13290 16851,13304 16899,13332 16946,13359 16985,13398 17012,13445 17040,13492 17054,13546 17054,13601 L 17054,13601 Z"/>
     </g>
    </g>
    <g class="com.sun.star.drawing.CustomShape">
     <g id="id7">
      <rect class="BoundingBox" stroke="none" fill="none" x="16628" y="13485" width="232" height="233"/>
      <path fill="rgb(255,255,255)" stroke="none" d="M 16664,13521 L 16664,13521 16743,13600 16822,13521 16824,13523 16745,13602 16824,13681 16823,13682 16744,13602 16665,13682 16663,13680 16743,13601 16664,13521 16664,13521 Z"/>
      <path fill="none" stroke="rgb(0,0,0)" stroke-width="70" stroke-linejoin="round" d="M 16664,13521 L 16664,13521 16743,13600 16822,13521 16824,13523 16745,13602 16824,13681 16823,13682 16744,13602 16665,13682 16663,13680 16743,13601 16664,13521 16664,13521 Z"/>
     </g>
    </g>
   </g>
  </g>
 </g>
</svg>