<?xml version="1.0" encoding="UTF-8"?>
<!DOCTYPE svg PUBLIC "-//W3C//DTD SVG 1.1//EN" "http://www.w3.org/Graphics/SVG/1.1/DTD/svg11.dtd">
<svg version="1.2" width="89.2mm" height="30.02mm" viewBox="3756 4526 8920 3002" preserveAspectRatio="xMidYMid" fill-rule="evenodd" stroke-width="28.222" stroke-linejoin="round" xmlns="http://www.w3.org/2000/svg" xmlns:ooo="http://xml.openoffice.org/svg/export" xmlns:xlink="http://www.w3.org/1999/xlink" xmlns:presentation="http://sun.com/xmlns/staroffice/presentation" xmlns:smil="http://www.w3.org/2001/SMIL20/" xmlns:anim="urn:oasis:names:tc:opendocument:xmlns:animation:1.0" xml:space="preserve">
 <defs class="EmbeddedBulletChars">
  <g id="bullet-char-template-57356" transform="scale(0.00048828125,-0.00048828125)">
   <path d="M 580,1141 L 1163,571 580,0 -4,571 580,1141 Z"/>
  </g>
  <g id="bullet-char-template-57354" transform="scale(0.00048828125,-0.00048828125)">
   <path d="M 8,1128 L 1137,1128 1137,0 8,0 8,1128 Z"/>
  </g>
  <g id="bullet-char-template-10146" transform="scale(0.00048828125,-0.00048828125)">
   <path d="M 174,0 L 602,739 174,1481 1456,739 174,0 Z M 1358,739 L 309,1346 659,739 1358,739 Z"/>
  </g>
  <g id="bullet-char-template-10132" transform="scale(0.00048828125,-0.00048828125)">
   <path d="M 2015,739 L 1276,0 717,0 1260,543 174,543 174,936 1260,936 717,1481 1274,1481 2015,739 Z"/>
  </g>
  <g id="bullet-char-template-10007" transform="scale(0.00048828125,-0.00048828125)">
   <path d="M 0,-2 C -7,14 -16,27 -25,37 L 356,567 C 262,823 215,952 215,954 215,979 228,992 255,992 264,992 276,990 289,987 310,991 331,999 354,1012 L 381,999 492,748 772,1049 836,1024 860,1049 C 881,1039 901,1025 922,1006 886,937 835,863 770,784 769,783 710,716 594,584 L 774,223 C 774,196 753,168 711,139 L 727,119 C 717,90 699,76 672,76 641,76 570,178 457,381 L 164,-76 C 142,-110 111,-127 72,-127 30,-127 9,-110 8,-76 1,-67 -2,-52 -2,-32 -2,-23 -1,-13 0,-2 Z"/>
  </g>
  <g id="bullet-char-template-10004" transform="scale(0.00048828125,-0.00048828125)">
   <path d="M 285,-33 C 182,-33 111,30 74,156 52,228 41,333 41,471 41,549 55,616 82,672 116,743 169,778 240,778 293,778 328,747 346,684 L 369,508 C 377,444 397,411 428,410 L 1163,1116 C 1174,1127 1196,1133 1229,1133 1271,1133 1292,1118 1292,1087 L 1292,965 C 1292,929 1282,901 1262,881 L 442,47 C 390,-6 338,-33 285,-33 Z"/>
  </g>
  <g id="bullet-char-template-9679" transform="scale(0.00048828125,-0.00048828125)">
   <path d="M 813,0 C 632,0 489,54 383,161 276,268 223,411 223,592 223,773 276,916 383,1023 489,1130 632,1184 813,1184 992,1184 1136,1130 1245,1023 1353,916 1407,772 1407,592 1407,412 1353,268 1245,161 1136,54 992,0 813,0 Z"/>
  </g>
  <g id="bullet-char-template-8226" transform="scale(0.00048828125,-0.00048828125)">
   <path d="M 346,457 C 273,457 209,483 155,535 101,586 74,649 74,723 74,796 101,859 155,911 209,963 273,989 346,989 419,989 480,963 531,910 582,859 608,796 608,723 608,648 583,586 532,535 482,483 420,457 346,457 Z"/>
  </g>
  <g id="bullet-char-template-8211" transform="scale(0.00048828125,-0.00048828125)">
   <path d="M -4,459 L 1135,459 1135,606 -4,606 -4,459 Z"/>
  </g>
  <g id="bullet-char-template-61548" transform="scale(0.00048828125,-0.00048828125)">
   <path d="M 173,740 C 173,903 231,1043 346,1159 462,1274 601,1332 765,1332 928,1332 1067,1274 1183,1159 1299,1043 1357,903 1357,740 1357,577 1299,437 1183,322 1067,206 928,148 765,148 601,148 462,206 346,322 231,437 173,577 173,740 Z"/>
  </g>
 </defs>
 <g class="Page">
  <g class="com.sun.star.drawing.ClosedBezierShape">
   <g id="id3">
    <rect class="BoundingBox" stroke="none" fill="none" x="3756" y="4526" width="8920" height="3002"/>
    <path fill="rgb(255,255,255)" stroke="none" d="M 8225,6475 C 7319,6475 6021,7368 5200,7425 5084,7434 4965,7410 4852,7379 4739,7348 4631,7305 4528,7245 4425,7185 4333,7115 4249,7032 4165,6949 4096,6857 4036,6754 3976,6651 3932,6542 3902,6429 3872,6316 3856,6200 3856,6082 3856,5964 3872,5847 3902,5734 3932,5621 3977,5512 4036,5410 4095,5308 4166,5214 4249,5131 4332,5048 4426,4977 4528,4918 4630,4859 4739,4814 4852,4784 4965,4754 5083,4734 5199,4738 6211,4858 7225,5800 8225,5750 9225,5700 10523,4690 11231,4627 11348,4626 11466,4643 11579,4673 11692,4703 11800,4747 11903,4807 12006,4867 12100,4939 12182,5021 12265,5104 12335,5196 12395,5299 12455,5402 12499,5510 12529,5624 12559,5736 12575,5853 12575,5970 12575,6089 12559,6207 12529,6319 12499,6432 12455,6540 12395,6643 12335,6746 12266,6839 12182,6922 12098,7005 12006,7075 11903,7135 11800,7195 11692,7238 11579,7269 11466,7300 11350,7315 11232,7315 11114,7315 10996,7300 10883,7269 10259,7048 9131,6475 8225,6475 Z"/>
    <path fill="none" stroke="rgb(0,0,0)" stroke-width="200" stroke-linejoin="round" d="M 8225,6475 C 7319,6475 6021,7368 5200,7425 5084,7434 4965,7410 4852,7379 4739,7348 4631,7305 4528,7245 4425,7185 4333,7115 4249,7032 4165,6949 4096,6857 4036,6754 3976,6651 3932,6542 3902,6429 3872,6316 3856,6200 3856,6082 3856,5964 3872,5847 3902,5734 3932,5621 3977,5512 4036,5410 4095,5308 4166,5214 4249,5131 4332,5048 4426,4977 4528,4918 4630,4859 4739,4814 4852,4784 4965,4754 5083,4734 5199,4738 6211,4858 7225,5800 8225,5750 9225,5700 10523,4690 11231,4627 11348,4626 11466,4643 11579,4673 11692,4703 11800,4747 11903,4807 12006,4867 12100,4939 12182,5021 12265,5104 12335,5196 12395,5299 12455,5402 12499,5510 12529,5624 12559,5736 12575,5853 12575,5970 12575,6089 12559,6207 12529,6319 12499,6432 12455,6540 12395,6643 12335,6746 12266,6839 12182,6922 12098,7005 12006,7075 11903,7135 11800,7195 11692,7238 11579,7269 11466,7300 11350,7315 11232,7315 11114,7315 10996,7300 10883,7269 10259,7048 9131,6475 8225,6475 Z"/>
   </g>
  </g>
 </g>
</svg>