<?xml version="1.0" encoding="UTF-8"?>
<!DOCTYPE svg PUBLIC "-//W3C//DTD SVG 1.1//EN" "http://www.w3.org/Graphics/SVG/1.1/DTD/svg11.dtd">
<svg version="1.2" width="92.64mm" height="44.23mm" viewBox="3682 19783 9264 4423" preserveAspectRatio="xMidYMid" fill-rule="evenodd" stroke-width="28.222" stroke-linejoin="round" xmlns="http://www.w3.org/2000/svg" xmlns:ooo="http://xml.openoffice.org/svg/export" xmlns:xlink="http://www.w3.org/1999/xlink" xmlns:presentation="http://sun.com/xmlns/staroffice/presentation" xmlns:smil="http://www.w3.org/2001/SMIL20/" xmlns:anim="urn:oasis:names:tc:opendocument:xmlns:animation:1.0" xml:space="preserve">
 <defs class="EmbeddedBulletChars">
  <g id="bullet-char-template-57356" transform="scale(0.00048828125,-0.00048828125)">
   <path d="M 580,1141 L 1163,571 580,0 -4,571 580,1141 Z"/>
  </g>
  <g id="bullet-char-template-57354" transform="scale(0.00048828125,-0.00048828125)">
   <path d="M 8,1128 L 1137,1128 1137,0 8,0 8,1128 Z"/>
  </g>
  <g id="bullet-char-template-10146" transform="scale(0.00048828125,-0.00048828125)">
   <path d="M 174,0 L 602,739 174,1481 1456,739 174,0 Z M 1358,739 L 309,1346 659,739 1358,739 Z"/>
  </g>
  <g id="bullet-char-template-10132" transform="scale(0.00048828125,-0.00048828125)">
   <path d="M 2015,739 L 1276,0 717,0 1260,543 174,543 174,936 1260,936 717,1481 1274,1481 2015,739 Z"/>
  </g>
  <g id="bullet-char-template-10007" transform="scale(0.00048828125,-0.00048828125)">
   <path d="M 0,-2 C -7,14 -16,27 -25,37 L 356,567 C 262,823 215,952 215,954 215,979 228,992 255,992 264,992 276,990 289,987 310,991 331,999 354,1012 L 381,999 492,748 772,1049 836,1024 860,1049 C 881,1039 901,1025 922,1006 886,937 835,863 770,784 769,783 710,716 594,584 L 774,223 C 774,196 753,168 711,139 L 727,119 C 717,90 699,76 672,76 641,76 570,178 457,381 L 164,-76 C 142,-110 111,-127 72,-127 30,-127 9,-110 8,-76 1,-67 -2,-52 -2,-32 -2,-23 -1,-13 0,-2 Z"/>
  </g>
  <g id="bullet-char-template-10004" transform="scale(0.00048828125,-0.00048828125)">
   <path d="M 285,-33 C 182,-33 111,30 74,156 52,228 41,333 41,471 41,549 55,616 82,672 116,743 169,778 240,778 293,778 328,747 346,684 L 369,508 C 377,444 397,411 428,410 L 1163,1116 C 1174,1127 1196,1133 1229,1133 1271,1133 1292,1118 1292,1087 L 1292,965 C 1292,929 1282,901 1262,881 L 442,47 C 390,-6 338,-33 285,-33 Z"/>
  </g>
  <g id="bullet-char-template-9679" transform="scale(0.00048828125,-0.00048828125)">
   <path d="M 813,0 C 632,0 489,54 383,161 276,268 223,411 223,592 223,773 276,916 383,1023 489,1130 632,1184 813,1184 992,1184 1136,1130 1245,1023 1353,916 1407,772 1407,592 1407,412 1353,268 1245,161 1136,54 992,0 813,0 Z"/>
  </g>
  <g id="bullet-char-template-8226" transform="scale(0.00048828125,-0.00048828125)">
   <path d="M 346,457 C 273,457 209,483 155,535 101,586 74,649 74,723 74,796 101,859 155,911 209,963 273,989 346,989 419,989 480,963 531,910 582,859 608,796 608,723 608,648 583,586 532,535 482,483 420,457 346,457 Z"/>
  </g>
  <g id="bullet-char-template-8211" transform="scale(0.00048828125,-0.00048828125)">
   <path d="M -4,459 L 1135,459 1135,606 -4,606 -4,459 Z"/>
  </g>
  <g id="bullet-char-template-61548" transform="scale(0.00048828125,-0.00048828125)">
   <path d="M 173,740 C 173,903 231,1043 346,1159 462,1274 601,1332 765,1332 928,1332 1067,1274 1183,1159 1299,1043 1357,903 1357,740 1357,577 1299,437 1183,322 1067,206 928,148 765,148 601,148 462,206 346,322 231,437 173,577 173,740 Z"/>
  </g>
 </defs>
 <g class="Page">
  <g class="com.sun.star.drawing.ClosedBezierShape">
   <g id="id3">
    <rect class="BoundingBox" stroke="none" fill="none" x="3682" y="20243" width="9264" height="3963"/>
    <path fill="rgb(255,255,255)" stroke="none" d="M 5290,23987 C 4974,23934 4808,23843 4672,23764 4536,23685 4413,23591 4303,23482 4194,23372 4099,23248 4021,23113 3942,22977 3883,22833 3843,22683 3803,22534 3782,22380 3782,22223 3782,22067 3803,21912 3843,21762 3883,21612 3942,21468 4021,21332 4099,21197 4194,21073 4303,20963 4413,20854 4536,20760 4672,20681 4808,20602 4952,20543 5102,20503 5252,20463 5406,20442 5562,20442 5719,20442 5874,20463 6023,20503 6173,20543 6317,20602 6453,20681 6588,20759 6712,20854 6822,20963 6887,21029 6948,21100 7003,21176 7071,21074 7149,20980 7235,20894 7350,20778 7481,20677 7624,20595 7767,20512 7920,20449 8078,20407 8236,20365 8399,20343 8564,20343 8721,20343 10808,20344 10964,20344 11130,20344 11293,20366 11451,20408 11609,20450 11762,20513 11905,20596 12048,20678 12179,20779 12294,20895 12410,21010 12511,21141 12593,21284 12676,21427 12739,21580 12781,21738 12823,21896 12845,22060 12845,22225 12845,22391 12823,22553 12781,22711 12739,22869 12676,23022 12593,23165 12510,23308 12410,23438 12294,23554 12178,23670 12048,23770 11905,23853 11762,23936 11609,23999 11451,24041 11293,24083 11130,24105 10965,24105 10808,24105 5439,24027 5290,23987 Z"/>
    <path fill="none" stroke="rgb(0,0,0)" stroke-width="200" stroke-linejoin="round" d="M 5290,23987 C 4974,23934 4808,23843 4672,23764 4536,23685 4413,23591 4303,23482 4194,23372 4099,23248 4021,23113 3942,22977 3883,22833 3843,22683 3803,22534 3782,22380 3782,22223 3782,22067 3803,21912 3843,21762 3883,21612 3942,21468 4021,21332 4099,21197 4194,21073 4303,20963 4413,20854 4536,20760 4672,20681 4808,20602 4952,20543 5102,20503 5252,20463 5406,20442 5562,20442 5719,20442 5874,20463 6023,20503 6173,20543 6317,20602 6453,20681 6588,20759 6712,20854 6822,20963 6887,21029 6948,21100 7003,21176 7071,21074 7149,20980 7235,20894 7350,20778 7481,20677 7624,20595 7767,20512 7920,20449 8078,20407 8236,20365 8399,20343 8564,20343 8721,20343 10808,20344 10964,20344 11130,20344 11293,20366 11451,20408 11609,20450 11762,20513 11905,20596 12048,20678 12179,20779 12294,20895 12410,21010 12511,21141 12593,21284 12676,21427 12739,21580 12781,21738 12823,21896 12845,22060 12845,22225 12845,22391 12823,22553 12781,22711 12739,22869 12676,23022 12593,23165 12510,23308 12410,23438 12294,23554 12178,23670 12048,23770 11905,23853 11762,23936 11609,23999 11451,24041 11293,24083 11130,24105 10965,24105 10808,24105 5439,24027 5290,23987 Z"/>
   </g>
  </g>
  <g class="com.sun.star.drawing.CustomShape">
   <g id="id4">
    <rect class="BoundingBox" stroke="none" fill="none" x="6380" y="19783" width="1242" height="1242"/>
    <path fill="rgb(0,0,0)" stroke="none" d="M 7000,21024 L 7621,19783 6380,19783 7000,21024 Z"/>
   </g>
  </g>
  <g class="com.sun.star.drawing.CustomShape">
   <g id="id5">
    <rect class="BoundingBox" stroke="none" fill="none" x="10380" y="21500" width="1522" height="1523"/>
    <path fill="rgb(114,159,207)" stroke="none" d="M 11901,22261 C 11901,22394 11866,22525 11799,22641 11732,22756 11636,22852 11521,22919 11405,22986 11274,23021 11141,23021 11007,23021 10876,22986 10760,22919 10645,22852 10549,22756 10482,22641 10415,22525 10380,22394 10380,22261 10380,22127 10415,21996 10482,21880 10549,21765 10645,21669 10760,21602 10876,21535 11007,21500 11141,21500 11274,21500 11405,21535 11521,21602 11636,21669 11732,21765 11799,21880 11866,21996 11901,22127 11901,22261 L 11901,22261 Z"/>
   </g>
  </g>
  <g class="com.sun.star.drawing.CustomShape">
   <g id="id6">
    <rect class="BoundingBox" stroke="none" fill="none" x="7881" y="21501" width="1522" height="1522"/>
    <path fill="rgb(236,155,164)" stroke="none" d="M 9402,22262 C 9402,22395 9367,22526 9300,22642 9233,22757 9137,22853 9022,22920 8906,22987 8775,23022 8642,23022 8508,23022 8377,22987 8261,22920 8146,22853 8050,22757 7983,22642 7916,22526 7881,22395 7881,22262 7881,22128 7916,21997 7983,21881 8050,21766 8146,21670 8261,21603 8377,21536 8508,21501 8642,21501 8775,21501 8906,21536 9022,21603 9137,21670 9233,21766 9300,21881 9367,21997 9402,22128 9402,22262 L 9402,22262 Z"/>
   </g>
  </g>
  <g class="com.sun.star.drawing.CustomShape">
   <g id="id7">
    <rect class="BoundingBox" stroke="none" fill="none" x="4782" y="21502" width="1523" height="1523"/>
    <path fill="rgb(175,208,149)" stroke="none" d="M 6303,22263 C 6303,22396 6268,22527 6201,22643 6134,22758 6038,22854 5923,22921 5807,22988 5676,23023 5543,23023 5409,23023 5278,22988 5162,22921 5047,22854 4951,22758 4884,22643 4817,22527 4782,22396 4782,22263 4782,22129 4817,21998 4884,21882 4951,21767 5047,21671 5162,21604 5278,21537 5409,21502 5542,21502 5676,21502 5807,21537 5923,21604 6038,21671 6134,21767 6201,21882 6268,21998 6303,22129 6303,22263 L 6303,22263 Z"/>
   </g>
  </g>
 </g>
</svg>