<?xml version="1.0" encoding="UTF-8"?>
<!DOCTYPE svg PUBLIC "-//W3C//DTD SVG 1.1//EN" "http://www.w3.org/Graphics/SVG/1.1/DTD/svg11.dtd">
<svg version="1.2" width="29.96mm" height="29.96mm" viewBox="11017 9163 2996 2996" preserveAspectRatio="xMidYMid" fill-rule="evenodd" stroke-width="28.222" stroke-linejoin="round" xmlns="http://www.w3.org/2000/svg" xmlns:ooo="http://xml.openoffice.org/svg/export" xmlns:xlink="http://www.w3.org/1999/xlink" xmlns:presentation="http://sun.com/xmlns/staroffice/presentation" xmlns:smil="http://www.w3.org/2001/SMIL20/" xmlns:anim="urn:oasis:names:tc:opendocument:xmlns:animation:1.0" xml:space="preserve">
 <defs class="EmbeddedBulletChars">
  <g id="bullet-char-template-57356" transform="scale(0.00048828125,-0.00048828125)">
   <path d="M 580,1141 L 1163,571 580,0 -4,571 580,1141 Z"/>
  </g>
  <g id="bullet-char-template-57354" transform="scale(0.00048828125,-0.00048828125)">
   <path d="M 8,1128 L 1137,1128 1137,0 8,0 8,1128 Z"/>
  </g>
  <g id="bullet-char-template-10146" transform="scale(0.00048828125,-0.00048828125)">
   <path d="M 174,0 L 602,739 174,1481 1456,739 174,0 Z M 1358,739 L 309,1346 659,739 1358,739 Z"/>
  </g>
  <g id="bullet-char-template-10132" transform="scale(0.00048828125,-0.00048828125)">
   <path d="M 2015,739 L 1276,0 717,0 1260,543 174,543 174,936 1260,936 717,1481 1274,1481 2015,739 Z"/>
  </g>
  <g id="bullet-char-template-10007" transform="scale(0.00048828125,-0.00048828125)">
   <path d="M 0,-2 C -7,14 -16,27 -25,37 L 356,567 C 262,823 215,952 215,954 215,979 228,992 255,992 264,992 276,990 289,987 310,991 331,999 354,1012 L 381,999 492,748 772,1049 836,1024 860,1049 C 881,1039 901,1025 922,1006 886,937 835,863 770,784 769,783 710,716 594,584 L 774,223 C 774,196 753,168 711,139 L 727,119 C 717,90 699,76 672,76 641,76 570,178 457,381 L 164,-76 C 142,-110 111,-127 72,-127 30,-127 9,-110 8,-76 1,-67 -2,-52 -2,-32 -2,-23 -1,-13 0,-2 Z"/>
  </g>
  <g id="bullet-char-template-10004" transform="scale(0.00048828125,-0.00048828125)">
   <path d="M 285,-33 C 182,-33 111,30 74,156 52,228 41,333 41,471 41,549 55,616 82,672 116,743 169,778 240,778 293,778 328,747 346,684 L 369,508 C 377,444 397,411 428,410 L 1163,1116 C 1174,1127 1196,1133 1229,1133 1271,1133 1292,1118 1292,1087 L 1292,965 C 1292,929 1282,901 1262,881 L 442,47 C 390,-6 338,-33 285,-33 Z"/>
  </g>
  <g id="bullet-char-template-9679" transform="scale(0.00048828125,-0.00048828125)">
   <path d="M 813,0 C 632,0 489,54 383,161 276,268 223,411 223,592 223,773 276,916 383,1023 489,1130 632,1184 813,1184 992,1184 1136,1130 1245,1023 1353,916 1407,772 1407,592 1407,412 1353,268 1245,161 1136,54 992,0 813,0 Z"/>
  </g>
  <g id="bullet-char-template-8226" transform="scale(0.00048828125,-0.00048828125)">
   <path d="M 346,457 C 273,457 209,483 155,535 101,586 74,649 74,723 74,796 101,859 155,911 209,963 273,989 346,989 419,989 480,963 531,910 582,859 608,796 608,723 608,648 583,586 532,535 482,483 420,457 346,457 Z"/>
  </g>
  <g id="bullet-char-template-8211" transform="scale(0.00048828125,-0.00048828125)">
   <path d="M -4,459 L 1135,459 1135,606 -4,606 -4,459 Z"/>
  </g>
  <g id="bullet-char-template-61548" transform="scale(0.00048828125,-0.00048828125)">
   <path d="M 173,740 C 173,903 231,1043 346,1159 462,1274 601,1332 765,1332 928,1332 1067,1274 1183,1159 1299,1043 1357,903 1357,740 1357,577 1299,437 1183,322 1067,206 928,148 765,148 601,148 462,206 346,322 231,437 173,577 173,740 Z"/>
  </g>
 </defs>
 <g class="Page">
  <g class="com.sun.star.drawing.CustomShape">
   <g id="id3">
    <rect class="BoundingBox" stroke="none" fill="none" x="11017" y="9163" width="2996" height="2996"/>
    <path fill="rgb(255,255,255)" stroke="none" d="M 11516,9163 L 11516,9163 C 11429,9163 11342,9186 11267,9230 11191,9274 11128,9337 11084,9413 11040,9488 11017,9575 11017,9662 L 11017,11658 11017,11659 C 11017,11746 11040,11833 11084,11908 11128,11984 11191,12047 11267,12091 11342,12135 11429,12158 11516,12158 L 13512,12157 13513,12158 C 13600,12158 13687,12135 13762,12091 13838,12047 13901,11984 13945,11908 13989,11833 14012,11746 14012,11659 L 14011,9662 14012,9662 14012,9662 C 14012,9575 13989,9488 13945,9413 13901,9337 13838,9274 13762,9230 13687,9186 13600,9163 13513,9163 L 11516,9163 Z"/>
   </g>
  </g>
  <g class="com.sun.star.drawing.CustomShape">
   <g id="id4">
    <rect class="BoundingBox" stroke="none" fill="none" x="13319" y="10455" width="521" height="522"/>
    <path fill="rgb(153,153,153)" stroke="none" d="M 13839,10716 C 13839,10761 13827,10806 13804,10846 13781,10885 13749,10918 13709,10941 13669,10964 13625,10976 13579,10976 13533,10976 13489,10964 13449,10941 13409,10918 13377,10885 13354,10846 13331,10806 13319,10761 13319,10716 13319,10670 13331,10625 13354,10585 13377,10546 13409,10513 13449,10490 13489,10467 13533,10455 13579,10455 13625,10455 13669,10467 13709,10490 13749,10513 13781,10546 13804,10585 13827,10625 13839,10670 13839,10716 L 13839,10716 Z"/>
   </g>
  </g>
  <g class="com.sun.star.drawing.LineShape">
   <g id="id5">
    <rect class="BoundingBox" stroke="none" fill="none" x="12924" y="9934" width="638" height="422"/>
    <path fill="none" stroke="rgb(0,0,0)" stroke-width="80" stroke-linejoin="round" stroke-linecap="round" d="M 12965,10144 L 13316,10144"/>
    <path fill="rgb(0,0,0)" stroke="none" d="M 13288,9934 L 13561,10144 13288,10354 13288,9934 Z"/>
   </g>
  </g>
  <g class="Group">
   <g class="com.sun.star.drawing.ClosedBezierShape">
    <g id="id6">
     <rect class="BoundingBox" stroke="none" fill="none" x="11262" y="10110" width="1746" height="1212"/>
     <path fill="rgb(221,221,221)" stroke="none" d="M 11589,10117 C 11597,10112 11606,10110 11616,10110 11616,10110 11616,10110 11616,10110 L 12661,10114 C 12670,10114 12679,10117 12687,10121 12688,10122 12689,10122 12690,10123 12736,10153 12778,10188 12816,10227 12853,10267 12886,10311 12913,10358 L 12913,10358 C 12913,10358 12913,10358 12913,10358 12913,10358 12913,10358 12913,10358 L 12913,10358 C 12944,10411 12967,10468 12983,10526 12999,10585 13007,10646 13007,10706 13007,10767 12999,10828 12983,10886 12967,10944 12944,11001 12913,11054 12883,11107 12845,11155 12803,11198 12761,11240 12713,11276 12661,11307 12654,11311 12647,11315 12640,11317 12635,11319 12629,11320 12623,11320 12623,11320 12623,11320 12623,11320 L 11665,11317 C 11659,11319 11652,11320 11646,11320 11637,11320 11628,11318 11620,11314 11617,11313 11614,11311 11611,11310 11609,11308 11606,11306 11604,11304 11553,11274 11507,11239 11466,11197 11423,11155 11386,11106 11355,11053 11325,11001 11301,10944 11286,10886 11270,10827 11262,10767 11262,10706 11262,10645 11270,10584 11286,10526 11301,10468 11325,10411 11355,10358 11383,10311 11416,10267 11453,10227 11491,10188 11533,10153 11579,10123 11580,10122 11581,10122 11582,10121 11583,10120 11584,10120 11586,10119 11587,10118 11588,10118 11589,10117 Z"/>
    </g>
   </g>
   <g class="com.sun.star.drawing.EllipseShape">
    <g id="id7">
     <rect class="BoundingBox" stroke="none" fill="none" x="12594" y="10099" width="443" height="1237"/>
     <path fill="none" stroke="rgb(0,0,0)" stroke-width="100" stroke-linejoin="round" stroke-linecap="round" d="M 12684,10150 C 12772,10207 12845,10284 12897,10374 12955,10475 12986,10589 12986,10706 12986,10822 12955,10936 12897,11037 12839,11137 12755,11221 12654,11279 12651,11281 12648,11283 12644,11285"/>
    </g>
   </g>
   <g class="com.sun.star.drawing.EllipseShape">
    <g id="id8">
     <rect class="BoundingBox" stroke="none" fill="none" x="11244" y="10099" width="443" height="1237"/>
     <path fill="none" stroke="rgb(0,0,0)" stroke-width="100" stroke-linejoin="round" stroke-linecap="round" d="M 11636,11285 C 11632,11283 11629,11281 11626,11279 11525,11221 11441,11137 11383,11037 11325,10936 11294,10822 11294,10706 11294,10589 11325,10475 11383,10374 11435,10284 11509,10207 11597,10150"/>
    </g>
   </g>
  </g>
  <g class="Group">
   <g class="com.sun.star.drawing.CustomShape">
    <g id="id9">
     <rect class="BoundingBox" stroke="none" fill="none" x="11379" y="10455" width="521" height="522"/>
     <path fill="rgb(153,153,153)" stroke="none" d="M 11899,10716 C 11899,10761 11887,10806 11864,10846 11841,10885 11809,10918 11769,10941 11729,10964 11685,10976 11639,10976 11593,10976 11549,10964 11509,10941 11469,10918 11437,10885 11414,10846 11391,10806 11379,10761 11379,10716 11379,10670 11391,10625 11414,10585 11437,10546 11469,10513 11509,10490 11549,10467 11593,10455 11639,10455 11685,10455 11729,10467 11769,10490 11809,10513 11841,10546 11864,10585 11887,10625 11899,10670 11899,10716 L 11899,10716 Z"/>
    </g>
   </g>
   <g class="com.sun.star.drawing.CustomShape">
    <g id="id10">
     <rect class="BoundingBox" stroke="none" fill="none" x="12370" y="10455" width="521" height="522"/>
     <path fill="rgb(153,153,153)" stroke="none" d="M 12890,10716 C 12890,10761 12878,10806 12855,10846 12832,10885 12800,10918 12760,10941 12720,10964 12676,10976 12630,10976 12584,10976 12540,10964 12500,10941 12460,10918 12428,10885 12405,10846 12382,10806 12370,10761 12370,10716 12370,10670 12382,10625 12405,10585 12428,10546 12460,10513 12500,10490 12540,10467 12584,10455 12630,10455 12676,10455 12720,10467 12760,10490 12800,10513 12832,10546 12855,10585 12878,10625 12890,10670 12890,10716 L 12890,10716 Z"/>
    </g>
   </g>
  </g>
 </g>
</svg>