<?xml version="1.0" encoding="UTF-8"?>
<!DOCTYPE svg PUBLIC "-//W3C//DTD SVG 1.1//EN" "http://www.w3.org/Graphics/SVG/1.1/DTD/svg11.dtd">
<svg version="1.2" width="29.96mm" height="29.96mm" viewBox="8019 7165 2996 2996" preserveAspectRatio="xMidYMid" fill-rule="evenodd" stroke-width="28.222" stroke-linejoin="round" xmlns="http://www.w3.org/2000/svg" xmlns:ooo="http://xml.openoffice.org/svg/export" xmlns:xlink="http://www.w3.org/1999/xlink" xmlns:presentation="http://sun.com/xmlns/staroffice/presentation" xmlns:smil="http://www.w3.org/2001/SMIL20/" xmlns:anim="urn:oasis:names:tc:opendocument:xmlns:animation:1.0" xml:space="preserve">
 <defs class="EmbeddedBulletChars">
  <g id="bullet-char-template-57356" transform="scale(0.00048828125,-0.00048828125)">
   <path d="M 580,1141 L 1163,571 580,0 -4,571 580,1141 Z"/>
  </g>
  <g id="bullet-char-template-57354" transform="scale(0.00048828125,-0.00048828125)">
   <path d="M 8,1128 L 1137,1128 1137,0 8,0 8,1128 Z"/>
  </g>
  <g id="bullet-char-template-10146" transform="scale(0.00048828125,-0.00048828125)">
   <path d="M 174,0 L 602,739 174,1481 1456,739 174,0 Z M 1358,739 L 309,1346 659,739 1358,739 Z"/>
  </g>
  <g id="bullet-char-template-10132" transform="scale(0.00048828125,-0.00048828125)">
   <path d="M 2015,739 L 1276,0 717,0 1260,543 174,543 174,936 1260,936 717,1481 1274,1481 2015,739 Z"/>
  </g>
  <g id="bullet-char-template-10007" transform="scale(0.00048828125,-0.00048828125)">
   <path d="M 0,-2 C -7,14 -16,27 -25,37 L 356,567 C 262,823 215,952 215,954 215,979 228,992 255,992 264,992 276,990 289,987 310,991 331,999 354,1012 L 381,999 492,748 772,1049 836,1024 860,1049 C 881,1039 901,1025 922,1006 886,937 835,863 770,784 769,783 710,716 594,584 L 774,223 C 774,196 753,168 711,139 L 727,119 C 717,90 699,76 672,76 641,76 570,178 457,381 L 164,-76 C 142,-110 111,-127 72,-127 30,-127 9,-110 8,-76 1,-67 -2,-52 -2,-32 -2,-23 -1,-13 0,-2 Z"/>
  </g>
  <g id="bullet-char-template-10004" transform="scale(0.00048828125,-0.00048828125)">
   <path d="M 285,-33 C 182,-33 111,30 74,156 52,228 41,333 41,471 41,549 55,616 82,672 116,743 169,778 240,778 293,778 328,747 346,684 L 369,508 C 377,444 397,411 428,410 L 1163,1116 C 1174,1127 1196,1133 1229,1133 1271,1133 1292,1118 1292,1087 L 1292,965 C 1292,929 1282,901 1262,881 L 442,47 C 390,-6 338,-33 285,-33 Z"/>
  </g>
  <g id="bullet-char-template-9679" transform="scale(0.00048828125,-0.00048828125)">
   <path d="M 813,0 C 632,0 489,54 383,161 276,268 223,411 223,592 223,773 276,916 383,1023 489,1130 632,1184 813,1184 992,1184 1136,1130 1245,1023 1353,916 1407,772 1407,592 1407,412 1353,268 1245,161 1136,54 992,0 813,0 Z"/>
  </g>
  <g id="bullet-char-template-8226" transform="scale(0.00048828125,-0.00048828125)">
   <path d="M 346,457 C 273,457 209,483 155,535 101,586 74,649 74,723 74,796 101,859 155,911 209,963 273,989 346,989 419,989 480,963 531,910 582,859 608,796 608,723 608,648 583,586 532,535 482,483 420,457 346,457 Z"/>
  </g>
  <g id="bullet-char-template-8211" transform="scale(0.00048828125,-0.00048828125)">
   <path d="M -4,459 L 1135,459 1135,606 -4,606 -4,459 Z"/>
  </g>
  <g id="bullet-char-template-61548" transform="scale(0.00048828125,-0.00048828125)">
   <path d="M 173,740 C 173,903 231,1043 346,1159 462,1274 601,1332 765,1332 928,1332 1067,1274 1183,1159 1299,1043 1357,903 1357,740 1357,577 1299,437 1183,322 1067,206 928,148 765,148 601,148 462,206 346,322 231,437 173,577 173,740 Z"/>
  </g>
 </defs>
 <g class="Page">
  <g class="com.sun.star.drawing.CustomShape">
   <g id="id3">
    <rect class="BoundingBox" stroke="none" fill="none" x="8019" y="7165" width="2996" height="2996"/>
   </g>
  </g>
  <g class="Group">
   <g class="Group">
    <g class="com.sun.star.drawing.ClosedBezierShape">
     <g id="id4">
      <rect class="BoundingBox" stroke="none" fill="none" x="8136" y="8057" width="1746" height="1211"/>
      <path fill="rgb(255,255,255)" stroke="none" d="M 8463,8064 C 8471,8059 8480,8057 8490,8057 L 9535,8061 C 9544,8061 9553,8064 9561,8068 9562,8069 9563,8069 9564,8070 9610,8100 9652,8135 9690,8174 9727,8214 9760,8258 9787,8305 9818,8358 9841,8415 9857,8473 9873,8532 9881,8593 9881,8653 9881,8714 9873,8775 9857,8833 9841,8891 9818,8948 9787,9001 9757,9054 9719,9102 9677,9145 9635,9187 9587,9223 9535,9254 9528,9258 9521,9262 9514,9264 9509,9266 9503,9267 9497,9267 L 8539,9264 C 8533,9266 8526,9267 8520,9267 8511,9267 8502,9265 8494,9261 8491,9260 8488,9258 8485,9257 8483,9255 8480,9253 8478,9251 8427,9221 8381,9186 8340,9144 8297,9102 8260,9053 8229,9000 8199,8948 8175,8891 8160,8833 8144,8774 8136,8714 8136,8653 8136,8592 8144,8531 8160,8473 8175,8415 8199,8358 8229,8305 8257,8258 8290,8214 8327,8174 8365,8135 8407,8100 8453,8070 8454,8069 8455,8069 8456,8068 8457,8067 8458,8067 8460,8066 8461,8065 8462,8065 8463,8064 Z"/>
     </g>
    </g>
    <g class="com.sun.star.drawing.ClosedBezierShape">
     <g id="id5">
      <rect class="BoundingBox" stroke="none" fill="none" x="9137" y="8057" width="1746" height="1211"/>
      <path fill="rgb(255,255,255)" stroke="none" d="M 9464,8064 C 9472,8059 9481,8057 9491,8057 L 10536,8061 C 10545,8061 10554,8064 10562,8068 10563,8069 10564,8069 10565,8070 10611,8100 10653,8135 10691,8174 10728,8214 10761,8258 10788,8305 10819,8358 10842,8415 10858,8473 10874,8532 10882,8593 10882,8653 10882,8714 10874,8775 10858,8833 10842,8891 10819,8948 10788,9001 10758,9054 10720,9102 10678,9145 10636,9187 10588,9223 10536,9254 10529,9258 10522,9262 10515,9264 10510,9266 10504,9267 10498,9267 L 9540,9264 C 9534,9266 9527,9267 9521,9267 9512,9267 9503,9265 9495,9261 9492,9260 9489,9258 9486,9257 9484,9255 9481,9253 9479,9251 9428,9221 9382,9186 9341,9144 9298,9102 9261,9053 9230,9000 9200,8948 9176,8891 9161,8833 9145,8774 9137,8714 9137,8653 9137,8592 9145,8531 9161,8473 9176,8415 9200,8358 9230,8305 9258,8258 9291,8214 9328,8174 9366,8135 9408,8100 9454,8070 9455,8069 9456,8069 9457,8068 9458,8067 9459,8067 9461,8066 9462,8065 9463,8065 9464,8064 Z"/>
     </g>
    </g>
   </g>
  </g>
  <g class="Group">
   <g class="Group">
    <g class="com.sun.star.drawing.ClosedBezierShape">
     <g id="id6">
      <rect class="BoundingBox" stroke="none" fill="none" x="8803" y="8168" width="1427" height="991"/>
      <path fill="rgb(238,238,238)" stroke="none" d="M 9070,8174 C 9077,8170 9084,8168 9092,8168 L 9946,8171 C 9954,8172 9961,8174 9968,8177 9969,8178 9969,8178 9970,8179 10007,8203 10042,8232 10073,8264 10104,8296 10131,8332 10153,8371 10178,8414 10197,8461 10210,8508 10222,8556 10229,8606 10229,8656 10229,8705 10222,8755 10210,8802 10197,8850 10178,8896 10153,8939 10128,8983 10097,9022 10062,9057 10028,9091 9989,9121 9946,9146 9941,9150 9935,9153 9929,9155 9925,9156 9920,9157 9916,9157 L 9915,9157 9132,9154 C 9127,9156 9122,9157 9117,9157 9109,9157 9102,9155 9096,9152 9093,9151 9091,9150 9089,9149 9086,9147 9084,9146 9082,9144 9041,9120 9003,9090 8970,9057 8935,9022 8904,8982 8879,8939 8854,8896 8835,8850 8822,8802 8810,8754 8803,8705 8803,8655 8803,8605 8810,8556 8822,8508 8835,8460 8854,8414 8879,8371 8902,8332 8929,8296 8959,8264 8990,8232 9025,8203 9062,8178 9063,8178 9064,8178 9064,8177 9065,8177 9067,8176 9068,8175 9069,8175 9069,8174 9070,8174 Z"/>
     </g>
    </g>
    <g class="com.sun.star.drawing.EllipseShape">
     <g id="id7">
      <rect class="BoundingBox" stroke="none" fill="none" x="9882" y="8150" width="381" height="1030"/>
      <path fill="none" stroke="rgb(0,0,0)" stroke-width="100" stroke-linejoin="round" stroke-linecap="round" d="M 9965,8200 C 10037,8247 10096,8310 10139,8384 10187,8466 10212,8559 10212,8655 10212,8750 10187,8843 10139,8925 10092,9008 10023,9076 9941,9123 9938,9125 9935,9127 9933,9128"/>
     </g>
    </g>
    <g class="com.sun.star.drawing.EllipseShape">
     <g id="id8">
      <rect class="BoundingBox" stroke="none" fill="none" x="8779" y="8150" width="381" height="1030"/>
      <path fill="none" stroke="rgb(0,0,0)" stroke-width="100" stroke-linejoin="round" stroke-linecap="round" d="M 9108,9128 C 9106,9127 9103,9125 9100,9123 9018,9076 8949,9008 8902,8925 8854,8843 8829,8750 8829,8655 8829,8559 8854,8466 8902,8384 8945,8310 9004,8247 9076,8200"/>
     </g>
    </g>
   </g>
   <g class="Group">
    <g class="com.sun.star.drawing.CustomShape">
     <g id="id9">
      <rect class="BoundingBox" stroke="none" fill="none" x="8898" y="8449" width="427" height="427"/>
      <path fill="rgb(153,153,153)" stroke="none" d="M 9324,8662 C 9324,8699 9314,8736 9295,8769 9277,8801 9250,8828 9218,8846 9185,8865 9148,8875 9111,8875 9074,8875 9037,8865 9005,8846 8972,8828 8945,8801 8927,8769 8908,8736 8898,8699 8898,8662 8898,8625 8908,8588 8927,8556 8945,8523 8972,8496 9005,8478 9037,8459 9074,8449 9111,8449 9148,8449 9185,8459 9218,8478 9250,8496 9277,8523 9295,8556 9314,8588 9324,8625 9324,8662 L 9324,8662 Z"/>
     </g>
    </g>
    <g class="com.sun.star.drawing.CustomShape">
     <g id="id10">
      <rect class="BoundingBox" stroke="none" fill="none" x="9708" y="8449" width="427" height="427"/>
      <path fill="rgb(153,153,153)" stroke="none" d="M 10134,8662 C 10134,8699 10124,8736 10105,8769 10087,8801 10060,8828 10028,8846 9995,8865 9958,8875 9921,8875 9884,8875 9847,8865 9815,8846 9782,8828 9755,8801 9737,8769 9718,8736 9708,8699 9708,8662 9708,8625 9718,8588 9737,8556 9755,8523 9782,8496 9815,8478 9847,8459 9884,8449 9921,8449 9958,8449 9995,8459 10028,8478 10060,8496 10087,8523 10105,8556 10124,8588 10134,8625 10134,8662 L 10134,8662 Z"/>
     </g>
    </g>
   </g>
  </g>
  <g class="Group">
   <g class="com.sun.star.drawing.CustomShape">
    <g id="id11">
     <rect class="BoundingBox" stroke="none" fill="none" x="10403" y="8449" width="427" height="427"/>
     <path fill="rgb(153,153,153)" stroke="none" d="M 10829,8662 C 10829,8699 10819,8736 10801,8769 10782,8801 10755,8828 10723,8846 10690,8865 10654,8875 10616,8875 10579,8875 10543,8865 10510,8846 10478,8828 10451,8801 10432,8769 10414,8736 10404,8699 10404,8662 10404,8625 10414,8588 10432,8556 10451,8523 10478,8496 10510,8478 10543,8459 10579,8449 10616,8449 10654,8449 10690,8459 10723,8478 10755,8496 10782,8523 10801,8556 10819,8588 10829,8625 10829,8662 L 10829,8662 Z"/>
    </g>
   </g>
   <g class="com.sun.star.drawing.CustomShape">
    <g id="id12">
     <rect class="BoundingBox" stroke="none" fill="none" x="8205" y="8449" width="426" height="427"/>
     <path fill="rgb(153,153,153)" stroke="none" d="M 8630,8662 C 8630,8699 8620,8736 8602,8769 8583,8801 8556,8828 8524,8846 8491,8865 8455,8875 8418,8875 8380,8875 8344,8865 8311,8846 8279,8828 8252,8801 8233,8769 8215,8736 8205,8699 8205,8662 8205,8625 8215,8588 8233,8556 8252,8523 8279,8496 8311,8478 8344,8459 8380,8449 8418,8449 8455,8449 8491,8459 8524,8478 8556,8496 8583,8523 8602,8556 8620,8588 8630,8625 8630,8662 L 8630,8662 Z"/>
    </g>
   </g>
  </g>
 </g>
</svg>