<svg version="1.1" viewBox="0.0 0.0 191.002624671916 100.0" fill="none" stroke="none" stroke-linecap="square" stroke-miterlimit="10" xmlns:xlink="http://www.w3.org/1999/xlink" xmlns="http://www.w3.org/2000/svg"><clipPath id="p.0"><path d="m0 0l191.00262 0l0 100.0l-191.00262 0l0 -100.0z" clip-rule="nonzero"/></clipPath><g clip-path="url(#p.0)"><path fill="#000000" fill-opacity="0.0" d="m0 0l191.00262 0l0 100.0l-191.00262 0z" fill-rule="evenodd"/><path fill="#9fc5e8" d="m106.37627 -167.7597l18.091064 -13.21019l-5.6429977 21.382751l17.428734 -6.5672455l-9.801743 11.089722l23.018936 5.19635l-22.56157 6.100174l4.2272186 8.242416l-9.155334 2.0898895l8.48259 14.718613l-17.763168 -8.673386l-0.99993134 11.580948l-11.1156845 -7.897316l-4.7635574 10.362396l-6.5631638 -7.1012726l-7.0 7.6951065l-3.9643478 -7.01326l-14.2419815 10.621315l2.104042 -12.679924l-15.2602005 -4.772293l10.951775 -7.3197937l-12.81131 -12.377136l18.41259 -1.2118378l-9.660038 -14.961853l18.941845 2.1449127l-0.60749054 -16.487503l15.785278 14.021927l8.665886 -15.75444z" fill-rule="evenodd"/><path stroke="#000000" stroke-width="1.0" stroke-linejoin="round" stroke-linecap="butt" d="m106.37627 -167.7597l18.091064 -13.21019l-5.6429977 21.382751l17.428734 -6.5672455l-9.801743 11.089722l23.018936 5.19635l-22.56157 6.100174l4.2272186 8.242416l-9.155334 2.0898895l8.48259 14.718613l-17.763168 -8.673386l-0.99993134 11.580948l-11.1156845 -7.897316l-4.7635574 10.362396l-6.5631638 -7.1012726l-7.0 7.6951065l-3.9643478 -7.01326l-14.2419815 10.621315l2.104042 -12.679924l-15.2602005 -4.772293l10.951775 -7.3197937l-12.81131 -12.377136l18.41259 -1.2118378l-9.660038 -14.961853l18.941845 2.1449127l-0.60749054 -16.487503l15.785278 14.021927l8.665886 -15.75444z" fill-rule="evenodd"/><path fill="#000000" fill-opacity="0.0" d="m-293.0486 -45.19435l89.44881 0l0 31.622047l-89.44881 0z" fill-rule="evenodd"/><path fill="#000000" d="m-270.24344 -22.114351l0 -0.953125q-0.71875 1.125 -2.125 1.125q-0.90625 0 -1.671875 -0.5q-0.75 -0.5 -1.171875 -1.390625q-0.421875 -0.90625 -0.421875 -2.078125q0 -1.140625 0.375 -2.0625q0.390625 -0.921875 1.140625 -1.40625q0.765625 -0.5 1.703125 -0.5q0.6875 0 1.21875 0.296875q0.53125 0.28125 0.875 0.734375l0 -3.750002l1.28125 0l0 10.484377l-1.203125 0zm-4.0625 -3.796875q0 1.46875 0.609375 2.1875q0.625 0.71875 1.453125 0.71875q0.84375 0 1.4375 -0.6875q0.59375 -0.6875 0.59375 -2.109375q0 -1.5625 -0.609375 -2.28125q-0.59375 -0.734375 -1.484375 -0.734375q-0.84375 0 -1.421875 0.703125q-0.578125 0.703125 -0.578125 2.203125zm7.2917175 -5.21875l0 -1.4687519l1.296875 0l0 1.4687519l-1.296875 0zm0 9.015625l0 -7.59375l1.296875 0l0 7.59375l-1.296875 0zm2.7405396 -2.265625l1.265625 -0.203125q0.109375 0.765625 0.59375 1.171875q0.5 0.40625 1.375 0.40625q0.890625 0 1.3125 -0.359375q0.4375 -0.359375 0.4375 -0.84375q0 -0.4375 -0.375 -0.6875q-0.265625 -0.171875 -1.3125 -0.4375q-1.421875 -0.359375 -1.96875 -0.609375q-0.546875 -0.265625 -0.828125 -0.734375q-0.28125 -0.46875 -0.28125 -1.015625q0 -0.515625 0.21875 -0.9375q0.234375 -0.4375 0.640625 -0.734375q0.296875 -0.21875 0.8125 -0.359375q0.53125 -0.15625 1.125 -0.15625q0.890625 0 1.5625 0.265625q0.671875 0.25 1.0 0.6875q0.328125 0.4375 0.4375 1.171875l-1.25 0.171875q-0.09375 -0.578125 -0.5 -0.90625q-0.40625 -0.34375 -1.15625 -0.34375q-0.890625 0 -1.28125 0.296875q-0.375 0.296875 -0.375 0.6875q0 0.25 0.15625 0.453125q0.15625 0.203125 0.5 0.34375q0.1875 0.078125 1.140625 0.328125q1.359375 0.359375 1.890625 0.59375q0.546875 0.234375 0.859375 0.6875q0.3125 0.4375 0.3125 1.09375q0 0.640625 -0.375 1.21875q-0.375 0.5625 -1.09375 0.875q-0.703125 0.3125 -1.59375 0.3125q-1.484375 0 -2.265625 -0.609375q-0.765625 -0.625 -0.984375 -1.828125zm10.65625 1.109375l0.1875 1.140625q-0.546875 0.109375 -0.984375 0.109375q-0.6875 0 -1.078125 -0.21875q-0.390625 -0.21875 -0.546875 -0.578125q-0.15625 -0.359375 -0.15625 -1.515625l0 -4.375l-0.953125 0l0 -1.0l0.953125 0l0 -1.890625l1.28125 -0.7656269l0 2.656252l1.296875 0l0 1.0l-1.296875 0l0 4.4375q0 0.546875 0.0625 0.71875q0.078125 0.15625 0.21875 0.25q0.15625 0.078125 0.453125 0.078125q0.203125 0 0.5625 -0.046875zm1.2438507 1.15625l0 -7.59375l1.15625 0l0 1.140625q0.453125 -0.796875 0.828125 -1.046875q0.375 -0.265625 0.8125 -0.265625q0.65625 0 1.328125 0.40625l-0.4375 1.203125q-0.46875 -0.28125 -0.953125 -0.28125q-0.421875 0 -0.765625 0.25q-0.328125 0.25 -0.46875 0.703125q-0.21875 0.6875 -0.21875 1.5l0 3.984375l-1.28125 0zm4.8962708 -9.015625l0 -1.4687519l1.296875 0l0 1.4687519l-1.296875 0zm0 9.015625l0 -7.59375l1.296875 0l0 7.59375l-1.296875 0zm4.4436493 0l-1.203125 0l0 -10.484377l1.296875 0l0 3.734377q0.8125 -1.015625 2.078125 -1.015625q0.703125 0 1.328125 0.28125q0.625 0.28125 1.03125 0.796875q0.40625 0.5 0.625 1.234375q0.234375 0.71875 0.234375 1.53125q0 1.96875 -0.96875 3.03125q-0.953125 1.0625 -2.3125 1.0625q-1.34375 0 -2.109375 -1.125l0 0.953125zm-0.015625 -3.859375q0 1.375 0.375 1.984375q0.609375 0.984375 1.640625 0.984375q0.84375 0 1.453125 -0.734375q0.625 -0.734375 0.625 -2.1875q0 -1.484375 -0.59375 -2.1875q-0.59375 -0.71875 -1.421875 -0.71875q-0.84375 0 -1.46875 0.734375q-0.609375 0.734375 -0.609375 2.125zm11.963608 3.859375l0 -1.109375q-0.890625 1.28125 -2.421875 1.28125q-0.671875 0 -1.25 -0.25q-0.578125 -0.265625 -0.875 -0.65625q-0.28125 -0.390625 -0.390625 -0.953125q-0.078125 -0.375 -0.078125 -1.203125l0 -4.703125l1.28125 0l0 4.203125q0 1.015625 0.078125 1.359375q0.125 0.515625 0.515625 0.8125q0.40625 0.28125 0.984375 0.28125q0.578125 0 1.078125 -0.296875q0.515625 -0.296875 0.71875 -0.8125q0.21875 -0.515625 0.21875 -1.484375l0 -4.0625l1.28125 0l0 7.59375l-1.140625 0zm3.1667328 -9.015625l0 -1.4687519l1.296875 0l0 1.4687519l-1.296875 0zm0 9.015625l0 -7.59375l1.296875 0l0 7.59375l-1.296875 0zm3.2405243 0l0 -7.59375l1.15625 0l0 1.140625q0.453125 -0.796875 0.828125 -1.046875q0.375 -0.265625 0.8125 -0.265625q0.65625 0 1.328125 0.40625l-0.4375 1.203125q-0.46875 -0.28125 -0.953125 -0.28125q-0.421875 0 -0.765625 0.25q-0.328125 0.25 -0.46875 0.703125q-0.21875 0.6875 -0.21875 1.5l0 3.984375l-1.28125 0zm10.099396 -2.453125l1.328125 0.171875q-0.3125 1.171875 -1.171875 1.8125q-0.84375 0.640625 -2.171875 0.640625q-1.671875 0 -2.65625 -1.015625q-0.96875 -1.03125 -0.96875 -2.890625q0 -1.921875 0.984375 -2.96875q1.0 -1.0625 2.578125 -1.0625q1.515625 0 2.484375 1.03125q0.96875 1.03125 0.96875 2.921875q0 0.109375 -0.015625 0.34375l-5.65625 0q0.0625 1.25 0.703125 1.921875q0.640625 0.65625 1.59375 0.65625q0.703125 0 1.203125 -0.359375q0.5 -0.375 0.796875 -1.203125zm-4.234375 -2.078125l4.25 0q-0.09375 -0.953125 -0.484375 -1.4375q-0.625 -0.75 -1.609375 -0.75q-0.875 0 -1.484375 0.59375q-0.609375 0.59375 -0.671875 1.59375z" fill-rule="nonzero"/><path fill="#000000" fill-opacity="0.0" d="m-305.28748 -22.710526l102.110245 0l0 33.952755l-102.110245 0z" fill-rule="evenodd"/><path fill="#000000" d="m-282.9095 0.36947393l0 -7.59375l1.15625 0l0 1.140625q0.453125 -0.796875 0.828125 -1.046875q0.375 -0.265625 0.8125 -0.265625q0.65625 0 1.328125 0.40625l-0.4375 1.203125q-0.46875 -0.28125 -0.953125 -0.28125q-0.421875 0 -0.765625 0.25q-0.328125 0.25 -0.46875 0.703125q-0.21875 0.6875 -0.21875 1.5l0 3.984375l-1.28125 0zm9.849396 -0.9375q-0.71875 0.609375 -1.375 0.859375q-0.65625 0.25 -1.421875 0.25q-1.25 0 -1.921875 -0.609375q-0.671875 -0.609375 -0.671875 -1.5625q0 -0.5625 0.25 -1.015625q0.25 -0.46875 0.65625 -0.75q0.421875 -0.28125 0.9375 -0.421875q0.375 -0.09375 1.140625 -0.1875q1.5625 -0.1875 2.296875 -0.453125q0.015625 -0.265625 0.015625 -0.328125q0 -0.796875 -0.375 -1.109375q-0.484375 -0.4375 -1.453125 -0.4375q-0.921875 0 -1.359375 0.328125q-0.421875 0.3125 -0.625 1.109375l-1.265625 -0.171875q0.171875 -0.796875 0.5625 -1.296875q0.390625 -0.5 1.140625 -0.765625q0.75 -0.265625 1.71875 -0.265625q0.984375 0 1.59375 0.234375q0.609375 0.21875 0.890625 0.5625q0.28125 0.34375 0.40625 0.875q0.0625 0.328125 0.0625 1.1875l0 1.71875q0 1.796875 0.078125 2.28125q0.078125 0.46875 0.328125 0.90625l-1.34375 0q-0.203125 -0.40625 -0.265625 -0.9375zm-0.109375 -2.875q-0.703125 0.28125 -2.09375 0.484375q-0.796875 0.109375 -1.125 0.265625q-0.328125 0.140625 -0.515625 0.421875q-0.171875 0.265625 -0.171875 0.59375q0 0.515625 0.390625 0.859375q0.390625 0.34375 1.140625 0.34375q0.734375 0 1.3125 -0.3125q0.59375 -0.328125 0.859375 -0.890625q0.203125 -0.4375 0.203125 -1.296875l0 -0.46875zm8.260498 1.03125l1.265625 0.15625q-0.203125 1.3125 -1.0625 2.0625q-0.84375 0.734375 -2.09375 0.734375q-1.5625 0 -2.515625 -1.015625q-0.9375 -1.03125 -0.9375 -2.921875q0 -1.234375 0.40625 -2.15625q0.40625 -0.921875 1.234375 -1.375q0.84375 -0.46875 1.8125 -0.46875q1.25 0 2.03125 0.625q0.78125 0.625 1.015625 1.765625l-1.265625 0.203125q-0.171875 -0.765625 -0.625 -1.15625q-0.453125 -0.390625 -1.09375 -0.390625q-0.984375 0 -1.59375 0.703125q-0.609375 0.703125 -0.609375 2.203125q0 1.53125 0.578125 2.234375q0.59375 0.6875 1.546875 0.6875q0.75 0 1.265625 -0.453125q0.515625 -0.46875 0.640625 -1.4375zm7.328125 0l1.265625 0.15625q-0.203125 1.3125 -1.0625 2.0625q-0.84375 0.734375 -2.09375 0.734375q-1.5625 0 -2.515625 -1.015625q-0.9375 -1.03125 -0.9375 -2.921875q0 -1.234375 0.40625 -2.15625q0.40625 -0.921875 1.234375 -1.375q0.84375 -0.46875 1.8125 -0.46875q1.25 0 2.03125 0.625q0.78125 0.625 1.015625 1.765625l-1.265625 0.203125q-0.171875 -0.765625 -0.625 -1.15625q-0.453125 -0.390625 -1.09375 -0.390625q-0.984375 0 -1.59375 0.703125q-0.609375 0.703125 -0.609375 2.203125q0 1.53125 0.578125 2.234375q0.59375 0.6875 1.546875 0.6875q0.75 0 1.265625 -0.453125q0.515625 -0.46875 0.640625 -1.4375zm1.8906097 -1.015625q0 -2.109375 1.171875 -3.125q0.984375 -0.84375 2.390625 -0.84375q1.578125 0 2.5625 1.03125q1.0 1.015625 1.0 2.828125q0 1.46875 -0.4375 2.3125q-0.4375 0.828125 -1.28125 1.296875q-0.84375 0.46875 -1.84375 0.46875q-1.59375 0 -2.578125 -1.015625q-0.984375 -1.03125 -0.984375 -2.953125zm1.328125 0q0 1.453125 0.625 2.1875q0.640625 0.71875 1.609375 0.71875q0.96875 0 1.59375 -0.71875q0.640625 -0.734375 0.640625 -2.234375q0 -1.40625 -0.640625 -2.125q-0.640625 -0.734375 -1.59375 -0.734375q-0.96875 0 -1.609375 0.71875q-0.625 0.71875 -0.625 2.1875zm7.072983 4.421875l1.25 0.1875q0.078125 0.578125 0.4375 0.84375q0.46875 0.359375 1.3125 0.359375q0.890625 0 1.375 -0.359375q0.484375 -0.359375 0.65625 -1.0q0.109375 -0.390625 0.09375 -1.65625q-0.84375 1.0 -2.109375 1.0q-1.5625 0 -2.421875 -1.125q-0.859375 -1.140625 -0.859375 -2.71875q0 -1.09375 0.390625 -2.0q0.40625 -0.921875 1.140625 -1.421875q0.75 -0.5 1.765625 -0.5q1.34375 0 2.21875 1.078125l0 -0.90625l1.1875 0l0 6.5625q0 1.78125 -0.359375 2.515625q-0.359375 0.734375 -1.15625 1.15625q-0.78125 0.4375 -1.921875 0.4375q-1.359375 0 -2.203125 -0.609375q-0.828125 -0.609375 -0.796875 -1.84375zm1.0625 -4.5625q0 1.5 0.59375 2.1875q0.59375 0.6875 1.484375 0.6875q0.890625 0 1.484375 -0.6875q0.609375 -0.6875 0.609375 -2.140625q0 -1.390625 -0.625 -2.09375q-0.609375 -0.71875 -1.484375 -0.71875q-0.859375 0 -1.46875 0.703125q-0.59375 0.6875 -0.59375 2.0625zm7.291733 3.9375l0 -10.484375l1.28125 0l0 10.484375l-1.28125 0zm3.2873993 -9.015625l0 -1.46875l1.296875 0l0 1.46875l-1.296875 0zm0 9.015625l0 -7.59375l1.296875 0l0 7.59375l-1.296875 0zm8.459274 -2.453125l1.328125 0.171875q-0.3125 1.171875 -1.171875 1.8125q-0.84375 0.640625 -2.171875 0.640625q-1.671875 0 -2.65625 -1.015625q-0.96875 -1.03125 -0.96875 -2.890625q0 -1.921875 0.984375 -2.96875q1.0 -1.0625 2.578125 -1.0625q1.515625 0 2.484375 1.03125q0.96875 1.03125 0.96875 2.921875q0 0.109375 -0.015625 0.34375l-5.65625 0q0.0625 1.25 0.703125 1.921875q0.640625 0.65625 1.59375 0.65625q0.703125 0 1.203125 -0.359375q0.5 -0.375 0.796875 -1.203125zm-4.234375 -2.078125l4.25 0q-0.09375 -0.953125 -0.484375 -1.4375q-0.625 -0.75 -1.609375 -0.75q-0.875 0 -1.484375 0.59375q-0.609375 0.59375 -0.671875 1.59375zm7.166733 4.53125l0 -7.59375l1.15625 0l0 1.140625q0.453125 -0.796875 0.828125 -1.046875q0.375 -0.265625 0.8125 -0.265625q0.65625 0 1.328125 0.40625l-0.4375 1.203125q-0.46875 -0.28125 -0.953125 -0.28125q-0.421875 0 -0.765625 0.25q-0.328125 0.25 -0.46875 0.703125q-0.21875 0.6875 -0.21875 1.5l0 3.984375l-1.28125 0zm10.099396 -2.453125l1.328125 0.171875q-0.3125 1.171875 -1.171875 1.8125q-0.84375 0.640625 -2.171875 0.640625q-1.671875 0 -2.65625 -1.015625q-0.96875 -1.03125 -0.96875 -2.890625q0 -1.921875 0.984375 -2.96875q1.0 -1.0625 2.578125 -1.0625q1.515625 0 2.484375 1.03125q0.96875 1.03125 0.96875 2.921875q0 0.109375 -0.015625 0.34375l-5.65625 0q0.0625 1.25 0.703125 1.921875q0.640625 0.65625 1.59375 0.65625q0.703125 0 1.203125 -0.359375q0.5 -0.375 0.796875 -1.203125zm-4.234375 -2.078125l4.25 0q-0.09375 -0.953125 -0.484375 -1.4375q-0.625 -0.75 -1.609375 -0.75q-0.875 0 -1.484375 0.59375q-0.609375 0.59375 -0.671875 1.59375z" fill-rule="nonzero"/><path fill="#000000" fill-opacity="0.0" d="m-307.01453 -96.78842l104.91341 0l0 33.952755l-104.91341 0z" fill-rule="evenodd"/><path fill="#000000" d="m-278.48196 -76.48967l1.265625 0.15625q-0.203125 1.3125 -1.0625 2.0625q-0.84375 0.734375 -2.09375 0.734375q-1.5625 0 -2.515625 -1.015625q-0.9375 -1.03125 -0.9375 -2.921875q0 -1.234375 0.40625 -2.15625q0.40625 -0.921875 1.234375 -1.375q0.84375 -0.46875 1.8125 -0.46875q1.25 0 2.03125 0.625q0.78125 0.625 1.015625 1.765625l-1.265625 0.203125q-0.171875 -0.765625 -0.625 -1.15625q-0.453125 -0.390625 -1.09375 -0.390625q-0.984375 0 -1.59375 0.703125q-0.609375 0.703125 -0.609375 2.203125q0 1.53125 0.578125 2.234375q0.59375 0.6875 1.546875 0.6875q0.75 0 1.265625 -0.453125q0.515625 -0.46875 0.640625 -1.4375zm1.890625 -1.015625q0 -2.109375 1.171875 -3.125q0.984375 -0.84375 2.390625 -0.84375q1.578125 0 2.5625 1.03125q1.0 1.015625 1.0 2.828125q0 1.46875 -0.4375 2.3125q-0.4375 0.828125 -1.28125 1.296875q-0.84375 0.46875 -1.84375 0.46875q-1.59375 0 -2.578125 -1.015625q-0.984375 -1.03125 -0.984375 -2.953125zm1.328125 0q0 1.453125 0.625 2.1875q0.640625 0.71875 1.609375 0.71875q0.96875 0 1.59375 -0.71875q0.640625 -0.734375 0.640625 -2.234375q0 -1.40625 -0.640625 -2.125q-0.640625 -0.734375 -1.59375 -0.734375q-0.96875 0 -1.609375 0.71875q-0.625 0.71875 -0.625 2.1875zm7.3073425 3.796875l0 -7.59375l1.15625 0l0 1.0625q0.34375 -0.5625 0.9375 -0.890625q0.609375 -0.34375 1.359375 -0.34375q0.84375 0 1.375 0.34375q0.546875 0.34375 0.765625 0.984375q0.90625 -1.328125 2.359375 -1.328125q1.125 0 1.734375 0.625q0.609375 0.625 0.609375 1.921875l0 5.21875l-1.28125 0l0 -4.78125q0 -0.78125 -0.125 -1.109375q-0.125 -0.34375 -0.453125 -0.546875q-0.328125 -0.21875 -0.78125 -0.21875q-0.796875 0 -1.328125 0.53125q-0.53125 0.53125 -0.53125 1.703125l0 4.421875l-1.28125 0l0 -4.9375q0 -0.859375 -0.3125 -1.28125q-0.3125 -0.4375 -1.03125 -0.4375q-0.546875 0 -1.015625 0.296875q-0.453125 0.28125 -0.671875 0.828125q-0.203125 0.546875 -0.203125 1.59375l0 3.9375l-1.28125 0zm12.208771 0l0 -7.59375l1.15625 0l0 1.0625q0.34375 -0.5625 0.9375 -0.890625q0.609375 -0.34375 1.359375 -0.34375q0.84375 0 1.375 0.34375q0.546875 0.34375 0.765625 0.984375q0.90625 -1.328125 2.359375 -1.328125q1.125 0 1.734375 0.625q0.609375 0.625 0.609375 1.921875l0 5.21875l-1.28125 0l0 -4.78125q0 -0.78125 -0.125 -1.109375q-0.125 -0.34375 -0.453125 -0.546875q-0.328125 -0.21875 -0.78125 -0.21875q-0.796875 0 -1.328125 0.53125q-0.53125 0.53125 -0.53125 1.703125l0 4.421875l-1.28125 0l0 -4.9375q0 -0.859375 -0.3125 -1.28125q-0.3125 -0.4375 -1.03125 -0.4375q-0.546875 0 -1.015625 0.296875q-0.453125 0.28125 -0.671875 0.828125q-0.203125 0.546875 -0.203125 1.59375l0 3.9375l-1.28125 0zm17.193146 0l0 -1.109375q-0.890625 1.28125 -2.421875 1.28125q-0.671875 0 -1.25 -0.25q-0.578125 -0.265625 -0.875 -0.65625q-0.28125 -0.390625 -0.390625 -0.953125q-0.078125 -0.375 -0.078125 -1.203125l0 -4.703125l1.28125 0l0 4.203125q0 1.015625 0.078125 1.359375q0.125 0.515625 0.515625 0.8125q0.40625 0.28125 0.984375 0.28125q0.578125 0 1.078125 -0.296875q0.515625 -0.296875 0.71875 -0.8125q0.21875 -0.515625 0.21875 -1.484375l0 -4.0625l1.28125 0l0 7.59375l-1.140625 0zm5.979233 -1.15625l0.1875 1.140625q-0.546875 0.109375 -0.984375 0.109375q-0.6875 0 -1.078125 -0.21875q-0.390625 -0.21875 -0.546875 -0.578125q-0.15625 -0.359375 -0.15625 -1.515625l0 -4.375l-0.953125 0l0 -1.0l0.953125 0l0 -1.890625l1.28125 -0.765625l0 2.65625l1.296875 0l0 1.0l-1.296875 0l0 4.4375q0 0.546875 0.0625 0.71875q0.078125 0.15625 0.21875 0.25q0.15625 0.078125 0.453125 0.078125q0.203125 0 0.5625 -0.046875zm6.2126007 0.21875q-0.71875 0.609375 -1.375 0.859375q-0.65625 0.25 -1.421875 0.25q-1.25 0 -1.921875 -0.609375q-0.671875 -0.609375 -0.671875 -1.5625q0 -0.5625 0.25 -1.015625q0.25 -0.46875 0.65625 -0.75q0.421875 -0.28125 0.9375 -0.421875q0.375 -0.09375 1.140625 -0.1875q1.5625 -0.1875 2.296875 -0.453125q0.015625 -0.265625 0.015625 -0.328125q0 -0.796875 -0.375 -1.109375q-0.484375 -0.4375 -1.453125 -0.4375q-0.921875 0 -1.359375 0.328125q-0.421875 0.3125 -0.625 1.109375l-1.265625 -0.171875q0.171875 -0.796875 0.5625 -1.296875q0.390625 -0.5 1.140625 -0.765625q0.75 -0.265625 1.71875 -0.265625q0.984375 0 1.59375 0.234375q0.609375 0.21875 0.890625 0.5625q0.28125 0.34375 0.40625 0.875q0.0625 0.328125 0.0625 1.1875l0 1.71875q0 1.796875 0.078125 2.28125q0.078125 0.46875 0.328125 0.90625l-1.34375 0q-0.203125 -0.40625 -0.265625 -0.9375zm-0.109375 -2.875q-0.703125 0.28125 -2.09375 0.484375q-0.796875 0.109375 -1.125 0.265625q-0.328125 0.140625 -0.515625 0.421875q-0.171875 0.265625 -0.171875 0.59375q0 0.515625 0.390625 0.859375q0.390625 0.34375 1.140625 0.34375q0.734375 0 1.3125 -0.3125q0.59375 -0.328125 0.859375 -0.890625q0.203125 -0.4375 0.203125 -1.296875l0 -0.46875zm3.2917328 3.8125l0 -7.59375l1.15625 0l0 1.140625q0.453125 -0.796875 0.828125 -1.046875q0.375 -0.265625 0.8125 -0.265625q0.65625 0 1.328125 0.40625l-0.4375 1.203125q-0.46875 -0.28125 -0.953125 -0.28125q-0.421875 0 -0.765625 0.25q-0.328125 0.25 -0.46875 0.703125q-0.21875 0.6875 -0.21875 1.5l0 3.984375l-1.28125 0zm10.099396 -2.453125l1.328125 0.171875q-0.3125 1.171875 -1.171875 1.8125q-0.84375 0.640625 -2.171875 0.640625q-1.671875 0 -2.65625 -1.015625q-0.96875 -1.03125 -0.96875 -2.890625q0 -1.921875 0.984375 -2.96875q1.0 -1.0625 2.578125 -1.0625q1.515625 0 2.484375 1.03125q0.96875 1.03125 0.96875 2.921875q0 0.109375 -0.015625 0.34375l-5.65625 0q0.0625 1.25 0.703125 1.921875q0.640625 0.65625 1.59375 0.65625q0.703125 0 1.203125 -0.359375q0.5 -0.375 0.796875 -1.203125zm-4.234375 -2.078125l4.25 0q-0.09375 -0.953125 -0.484375 -1.4375q-0.625 -0.75 -1.609375 -0.75q-0.875 0 -1.484375 0.59375q-0.609375 0.59375 -0.671875 1.59375z" fill-rule="nonzero"/><path fill="#000000" fill-opacity="0.0" d="m-297.6072 -71.770805l96.18898 0l0 27.653542l-96.18898 0z" fill-rule="evenodd"/><path fill="#000000" d="m-267.22195 -49.628307q-0.71875 0.609375 -1.375 0.859375q-0.65625 0.25 -1.421875 0.25q-1.25 0 -1.921875 -0.609375q-0.671875 -0.609375 -0.671875 -1.5625q0 -0.5625 0.25 -1.015625q0.25 -0.46875 0.65625 -0.75q0.421875 -0.28125 0.9375 -0.421875q0.375 -0.09375 1.140625 -0.1875q1.5625 -0.1875 2.296875 -0.453125q0.015625 -0.265625 0.015625 -0.328125q0 -0.796875 -0.375 -1.109375q-0.484375 -0.4375 -1.453125 -0.4375q-0.921875 0 -1.359375 0.328125q-0.421875 0.3125 -0.625 1.109375l-1.265625 -0.171875q0.171875 -0.796875 0.5625 -1.296875q0.390625 -0.5 1.140625 -0.765625q0.75 -0.265625 1.71875 -0.265625q0.984375 0 1.59375 0.234375q0.609375 0.21875 0.890625 0.5625q0.28125 0.34375 0.40625 0.875q0.0625 0.328125 0.0625 1.1875l0 1.71875q0 1.796875 0.078125 2.28125q0.078125 0.46875 0.328125 0.90625l-1.34375 0q-0.203125 -0.40625 -0.265625 -0.9375zm-0.109375 -2.875q-0.703125 0.28125 -2.09375 0.484375q-0.796875 0.109375 -1.125 0.265625q-0.328125 0.140625 -0.515625 0.421875q-0.171875 0.265625 -0.171875 0.59375q0 0.515625 0.390625 0.859375q0.390625 0.34375 1.140625 0.34375q0.734375 0 1.3125 -0.3125q0.59375 -0.328125 0.859375 -0.890625q0.203125 -0.4375 0.203125 -1.296875l0 -0.46875zm2.7917175 1.546875l1.265625 -0.203125q0.109375 0.765625 0.59375 1.171875q0.5 0.40625 1.375 0.40625q0.890625 0 1.3125 -0.359375q0.4375 -0.359375 0.4375 -0.84375q0 -0.4375 -0.375 -0.6875q-0.265625 -0.171875 -1.3125 -0.4375q-1.421875 -0.359375 -1.96875 -0.609375q-0.546875 -0.265625 -0.828125 -0.734375q-0.28125 -0.46875 -0.28125 -1.015625q0 -0.515625 0.21875 -0.9375q0.234375 -0.4375 0.640625 -0.734375q0.296875 -0.21875 0.8125 -0.359375q0.53125 -0.15625 1.125 -0.15625q0.890625 0 1.5625 0.265625q0.671875 0.25 1.0 0.6875q0.328125 0.4375 0.4375 1.171875l-1.25 0.171875q-0.09375 -0.578125 -0.5 -0.90625q-0.40625 -0.34375 -1.15625 -0.34375q-0.890625 0 -1.28125 0.296875q-0.375 0.296875 -0.375 0.6875q0 0.25 0.15625 0.453125q0.15625 0.203125 0.5 0.34375q0.1875 0.078125 1.140625 0.328125q1.359375 0.359375 1.890625 0.59375q0.546875 0.234375 0.859375 0.6875q0.3125 0.4375 0.3125 1.09375q0 0.640625 -0.375 1.21875q-0.375 0.5625 -1.09375 0.875q-0.703125 0.3125 -1.59375 0.3125q-1.484375 0 -2.265625 -0.609375q-0.765625 -0.625 -0.984375 -1.828125zm7.328125 0l1.2656403 -0.203125q0.109375 0.765625 0.59375 1.171875q0.5 0.40625 1.375 0.40625q0.890625 0 1.3125 -0.359375q0.4375 -0.359375 0.4375 -0.84375q0 -0.4375 -0.375 -0.6875q-0.265625 -0.171875 -1.3125 -0.4375q-1.421875 -0.359375 -1.96875 -0.609375q-0.54689026 -0.265625 -0.82814026 -0.734375q-0.28125 -0.46875 -0.28125 -1.015625q0 -0.515625 0.21875 -0.9375q0.234375 -0.4375 0.640625 -0.734375q0.29689026 -0.21875 0.81251526 -0.359375q0.53125 -0.15625 1.125 -0.15625q0.890625 0 1.5625 0.265625q0.671875 0.25 1.0 0.6875q0.328125 0.4375 0.4375 1.171875l-1.25 0.171875q-0.09375 -0.578125 -0.5 -0.90625q-0.40625 -0.34375 -1.15625 -0.34375q-0.890625 0 -1.28125 0.296875q-0.375 0.296875 -0.375 0.6875q0 0.25 0.15625 0.453125q0.15625 0.203125 0.5 0.34375q0.1875 0.078125 1.140625 0.328125q1.359375 0.359375 1.890625 0.59375q0.546875 0.234375 0.859375 0.6875q0.3125 0.4375 0.3125 1.09375q0 0.640625 -0.375 1.21875q-0.375 0.5625 -1.09375 0.875q-0.703125 0.3125 -1.59375 0.3125q-1.484375 0 -2.2656403 -0.609375q-0.765625 -0.625 -0.984375 -1.828125zm7.3593903 -1.53125q0 -2.109375 1.171875 -3.125q0.984375 -0.84375 2.390625 -0.84375q1.578125 0 2.5625 1.03125q1.0 1.015625 1.0 2.828125q0 1.46875 -0.4375 2.3125q-0.4375 0.828125 -1.28125 1.296875q-0.84375 0.46875 -1.84375 0.46875q-1.59375 0 -2.578125 -1.015625q-0.984375 -1.03125 -0.984375 -2.953125zm1.328125 0q0 1.453125 0.625 2.1875q0.640625 0.71875 1.609375 0.71875q0.96875 0 1.59375 -0.71875q0.640625 -0.734375 0.640625 -2.234375q0 -1.40625 -0.640625 -2.125q-0.640625 -0.734375 -1.59375 -0.734375q-0.96875 0 -1.609375 0.71875q-0.625 0.71875 -0.625 2.1875zm12.260483 1.015625l1.265625 0.15625q-0.203125 1.3125 -1.0625 2.0625q-0.84375 0.734375 -2.09375 0.734375q-1.5625 0 -2.515625 -1.015625q-0.9375 -1.03125 -0.9375 -2.921875q0 -1.234375 0.40625 -2.15625q0.40625 -0.921875 1.234375 -1.375q0.84375 -0.46875 1.8125 -0.46875q1.25 0 2.03125 0.625q0.78125 0.625 1.015625 1.765625l-1.265625 0.203125q-0.171875 -0.765625 -0.625 -1.15625q-0.453125 -0.390625 -1.09375 -0.390625q-0.984375 0 -1.59375 0.703125q-0.609375 0.703125 -0.609375 2.203125q0 1.53125 0.578125 2.234375q0.59375 0.6875 1.546875 0.6875q0.75 0 1.265625 -0.453125q0.515625 -0.46875 0.640625 -1.4375zm2.375 -6.234375l0 -1.46875l1.296875 0l0 1.46875l-1.296875 0zm0 9.015625l0 -7.59375l1.296875 0l0 7.59375l-1.296875 0zm8.209274 -0.9375q-0.71875 0.609375 -1.375 0.859375q-0.65625 0.25 -1.421875 0.25q-1.25 0 -1.921875 -0.609375q-0.671875 -0.609375 -0.671875 -1.5625q0 -0.5625 0.25 -1.015625q0.25 -0.46875 0.65625 -0.75q0.421875 -0.28125 0.9375 -0.421875q0.375 -0.09375 1.140625 -0.1875q1.5625 -0.1875 2.296875 -0.453125q0.015625 -0.265625 0.015625 -0.328125q0 -0.796875 -0.375 -1.109375q-0.484375 -0.4375 -1.453125 -0.4375q-0.921875 0 -1.359375 0.328125q-0.421875 0.3125 -0.625 1.109375l-1.265625 -0.171875q0.171875 -0.796875 0.5625 -1.296875q0.390625 -0.5 1.140625 -0.765625q0.75 -0.265625 1.71875 -0.265625q0.984375 0 1.59375 0.234375q0.609375 0.21875 0.890625 0.5625q0.28125 0.34375 0.40625 0.875q0.0625 0.328125 0.0625 1.1875l0 1.71875q0 1.796875 0.078125 2.28125q0.078125 0.46875 0.328125 0.90625l-1.34375 0q-0.203125 -0.40625 -0.265625 -0.9375zm-0.109375 -2.875q-0.703125 0.28125 -2.09375 0.484375q-0.796875 0.109375 -1.125 0.265625q-0.328125 0.140625 -0.515625 0.421875q-0.171875 0.265625 -0.171875 0.59375q0 0.515625 0.390625 0.859375q0.390625 0.34375 1.140625 0.34375q0.734375 0 1.3125 -0.3125q0.59375 -0.328125 0.859375 -0.890625q0.203125 -0.4375 0.203125 -1.296875l0 -0.46875zm3.2917328 3.8125l0 -7.59375l1.15625 0l0 1.140625q0.453125 -0.796875 0.828125 -1.046875q0.375 -0.265625 0.8125 -0.265625q0.65625 0 1.328125 0.40625l-0.4375 1.203125q-0.46875 -0.28125 -0.953125 -0.28125q-0.421875 0 -0.765625 0.25q-0.328125 0.25 -0.46875 0.703125q-0.21875 0.6875 -0.21875 1.5l0 3.984375l-1.28125 0zm10.099396 -2.453125l1.328125 0.171875q-0.3125 1.171875 -1.171875 1.8125q-0.84375 0.640625 -2.171875 0.640625q-1.671875 0 -2.65625 -1.015625q-0.96875 -1.03125 -0.96875 -2.890625q0 -1.921875 0.984375 -2.96875q1.0 -1.0625 2.578125 -1.0625q1.515625 0 2.484375 1.03125q0.96875 1.03125 0.96875 2.921875q0 0.109375 -0.015625 0.34375l-5.65625 0q0.0625 1.25 0.703125 1.921875q0.640625 0.65625 1.59375 0.65625q0.703125 0 1.203125 -0.359375q0.5 -0.375 0.796875 -1.203125zm-4.234375 -2.078125l4.25 0q-0.09375 -0.953125 -0.484375 -1.4375q-0.625 -0.75 -1.609375 -0.75q-0.875 0 -1.484375 0.59375q-0.609375 0.59375 -0.671875 1.59375z" fill-rule="nonzero"/><path fill="#000000" fill-opacity="0.0" d="m-285.9199 0.53677166l88.06299 0l0 35.307087l-88.06299 0z" fill-rule="evenodd"/><path fill="#000000" d="m-265.05023 21.351147l1.265625 -0.203125q0.109375 0.765625 0.59375 1.171875q0.5 0.40625 1.375 0.40625q0.890625 0 1.3125 -0.359375q0.4375 -0.359375 0.4375 -0.84375q0 -0.4375 -0.375 -0.6875q-0.265625 -0.171875 -1.3125 -0.4375q-1.421875 -0.359375 -1.96875 -0.609375q-0.546875 -0.265625 -0.828125 -0.734375q-0.28125 -0.46875 -0.28125 -1.015625q0 -0.515625 0.21875 -0.9375q0.234375 -0.4375 0.640625 -0.734375q0.296875 -0.21875 0.8125 -0.359375q0.53125 -0.15625 1.125 -0.15625q0.890625 0 1.5625 0.265625q0.671875 0.25 1.0 0.6875q0.328125 0.4375 0.4375 1.171875l-1.25 0.171875q-0.09375 -0.578125 -0.5 -0.90625q-0.40625 -0.34375 -1.15625 -0.34375q-0.890625 0 -1.28125 0.296875q-0.375 0.296875 -0.375 0.6875q0 0.25 0.15625 0.453125q0.15625 0.203125 0.5 0.34375q0.1875 0.078125 1.140625 0.328125q1.359375 0.359375 1.890625 0.59375q0.546875 0.234375 0.859375 0.6875q0.3125 0.4375 0.3125 1.09375q0 0.640625 -0.375 1.21875q-0.375 0.5625 -1.09375 0.875q-0.703125 0.3125 -1.59375 0.3125q-1.484375 0 -2.265625 -0.609375q-0.765625 -0.625 -0.984375 -1.828125zm7.359375 -1.53125q0 -2.109375 1.171875 -3.125q0.984375 -0.84375 2.390625 -0.84375q1.578125 0 2.5625 1.03125q1.0 1.015625 1.0 2.828125q0 1.46875 -0.4375 2.3125q-0.4375 0.828125 -1.28125 1.296875q-0.84375 0.46875 -1.84375 0.46875q-1.59375 0 -2.578125 -1.015625q-0.984375 -1.03125 -0.984375 -2.953125zm1.328125 0q0 1.453125 0.625 2.1875q0.640625 0.71875 1.609375 0.71875q0.96875 0 1.59375 -0.71875q0.640625 -0.734375 0.640625 -2.234375q0 -1.40625 -0.640625 -2.125q-0.640625 -0.734375 -1.59375 -0.734375q-0.96875 0 -1.609375 0.71875q-0.625 0.71875 -0.625 2.1875zm6.791733 1.53125l1.265625 -0.203125q0.109375 0.765625 0.59375 1.171875q0.5 0.40625 1.375 0.40625q0.890625 0 1.3125 -0.359375q0.4375 -0.359375 0.4375 -0.84375q0 -0.4375 -0.375 -0.6875q-0.265625 -0.171875 -1.3125 -0.4375q-1.421875 -0.359375 -1.96875 -0.609375q-0.546875 -0.265625 -0.828125 -0.734375q-0.28125 -0.46875 -0.28125 -1.015625q0 -0.515625 0.21875 -0.9375q0.234375 -0.4375 0.640625 -0.734375q0.296875 -0.21875 0.8125 -0.359375q0.53125 -0.15625 1.125 -0.15625q0.890625 0 1.5625 0.265625q0.671875 0.25 1.0 0.6875q0.328125 0.4375 0.4375 1.171875l-1.25 0.171875q-0.09375 -0.578125 -0.5 -0.90625q-0.40625 -0.34375 -1.15625 -0.34375q-0.890625 0 -1.28125 0.296875q-0.375 0.296875 -0.375 0.6875q0 0.25 0.15625 0.453125q0.15625 0.203125 0.5 0.34375q0.1875 0.078125 1.140625 0.328125q1.359375 0.359375 1.890625 0.59375q0.546875 0.234375 0.859375 0.6875q0.3125 0.4375 0.3125 1.09375q0 0.640625 -0.375 1.21875q-0.375 0.5625 -1.09375 0.875q-0.703125 0.3125 -1.59375 0.3125q-1.484375 0 -2.265625 -0.609375q-0.765625 -0.625 -0.984375 -1.828125zm10.65625 1.109375l0.1875 1.140625q-0.546875 0.109375 -0.984375 0.109375q-0.6875 0 -1.078125 -0.21875q-0.390625 -0.21875 -0.546875 -0.578125q-0.15625 -0.359375 -0.15625 -1.515625l0 -4.375l-0.953125 0l0 -1.0l0.953125 0l0 -1.890625l1.28125 -0.765625l0 2.65625l1.296875 0l0 1.0l-1.296875 0l0 4.4375q0 0.546875 0.0625 0.71875q0.078125 0.15625 0.21875 0.25q0.15625 0.078125 0.453125 0.078125q0.203125 0 0.5625 -0.046875zm1.2594757 -7.859375l0 -1.46875l1.296875 0l0 1.46875l-1.296875 0zm0 9.015625l0 -7.59375l1.296875 0l0 7.59375l-1.296875 0zm6.0686493 -1.15625l0.1875 1.140625q-0.546875 0.109375 -0.984375 0.109375q-0.6875 0 -1.078125 -0.21875q-0.390625 -0.21875 -0.546875 -0.578125q-0.15625 -0.359375 -0.15625 -1.515625l0 -4.375l-0.953125 0l0 -1.0l0.953125 0l0 -1.890625l1.28125 -0.765625l0 2.65625l1.296875 0l0 1.0l-1.296875 0l0 4.4375q0 0.546875 0.0625 0.71875q0.078125 0.15625 0.21875 0.25q0.15625 0.078125 0.453125 0.078125q0.203125 0 0.5625 -0.046875zm6.2438507 1.15625l0 -1.109375q-0.890625 1.28125 -2.421875 1.28125q-0.671875 0 -1.25 -0.25q-0.578125 -0.265625 -0.875 -0.65625q-0.28125 -0.390625 -0.390625 -0.953125q-0.078125 -0.375 -0.078125 -1.203125l0 -4.703125l1.28125 0l0 4.203125q0 1.015625 0.078125 1.359375q0.125 0.515625 0.515625 0.8125q0.40625 0.28125 0.984375 0.28125q0.578125 0 1.078125 -0.296875q0.515625 -0.296875 0.71875 -0.8125q0.21875 -0.515625 0.21875 -1.484375l0 -4.0625l1.28125 0l0 7.59375l-1.140625 0zm3.1667328 -9.015625l0 -1.46875l1.296875 0l0 1.46875l-1.296875 0zm0 9.015625l0 -7.59375l1.296875 0l0 7.59375l-1.296875 0zm3.2405243 0l0 -7.59375l1.15625 0l0 1.140625q0.453125 -0.796875 0.828125 -1.046875q0.375 -0.265625 0.8125 -0.265625q0.65625 0 1.328125 0.40625l-0.4375 1.203125q-0.46875 -0.28125 -0.953125 -0.28125q-0.421875 0 -0.765625 0.25q-0.328125 0.25 -0.46875 0.703125q-0.21875 0.6875 -0.21875 1.5l0 3.984375l-1.28125 0zm10.099396 -2.453125l1.328125 0.171875q-0.3125 1.171875 -1.171875 1.8125q-0.84375 0.640625 -2.171875 0.640625q-1.671875 0 -2.65625 -1.015625q-0.96875 -1.03125 -0.96875 -2.890625q0 -1.921875 0.984375 -2.96875q1.0 -1.0625 2.578125 -1.0625q1.515625 0 2.484375 1.03125q0.96875 1.03125 0.96875 2.921875q0 0.109375 -0.015625 0.34375l-5.65625 0q0.0625 1.25 0.703125 1.921875q0.640625 0.65625 1.59375 0.65625q0.703125 0 1.203125 -0.359375q0.5 -0.375 0.796875 -1.203125zm-4.234375 -2.078125l4.25 0q-0.09375 -0.953125 -0.484375 -1.4375q-0.625 -0.75 -1.609375 -0.75q-0.875 0 -1.484375 0.59375q-0.609375 0.59375 -0.671875 1.59375z" fill-rule="nonzero"/><path fill="#ffffff" d="m262.765 45.69739l48.0 0l0 -24.000002l-48.0 0z" fill-rule="evenodd"/><path stroke="#000000" stroke-width="1.0" stroke-linejoin="round" stroke-linecap="butt" d="m262.765 45.69739l48.0 0l0 -24.000002l-48.0 0z" fill-rule="evenodd"/><path fill="#000000" fill-opacity="0.0" d="m287.28098 42.838627l19.4534 -8.675568" fill-rule="evenodd"/><path stroke="#000000" stroke-width="2.0" stroke-linejoin="round" stroke-linecap="butt" d="m298.2405 37.951042l8.493866 -3.787983" fill-rule="evenodd"/><path fill="#000000" stroke="#000000" stroke-width="2.0" stroke-linecap="butt" d="m296.895 34.934006l-6.9437256 6.7137604l9.634735 -0.6796875z" fill-rule="evenodd"/><path fill="#000000" fill-opacity="0.0" d="m286.76227 43.69502l0 -20.697004" fill-rule="evenodd"/><path stroke="#000000" stroke-width="2.0" stroke-linejoin="round" stroke-linecap="butt" d="m286.76227 31.69502l0 -8.697006" fill-rule="evenodd"/><path fill="#000000" stroke="#000000" stroke-width="2.0" stroke-linecap="butt" d="m283.45883 31.69502l3.3034363 9.076197l3.3034668 -9.076197z" fill-rule="evenodd"/><path fill="#000000" fill-opacity="0.0" d="m286.24905 42.838627l-19.4534 -8.675568" fill-rule="evenodd"/><path stroke="#000000" stroke-width="2.0" stroke-linejoin="round" stroke-linecap="butt" d="m275.28952 37.95104l-8.493866 -3.7879791" fill-rule="evenodd"/><path fill="#000000" stroke="#000000" stroke-width="2.0" stroke-linecap="butt" d="m273.94403 40.968075l9.634735 0.6796913l-6.943756 -6.713764z" fill-rule="evenodd"/><path fill="#000000" d="m285.35638 43.005123l0 0c0 0.7685852 0.6230469 1.3916435 1.3916321 1.3916435l0 0c0.3691101 0 0.7230835 -0.14661789 0.9840393 -0.40760422c0.26098633 -0.2609825 0.4076233 -0.6149521 0.4076233 -0.9840393l0 0c0 -0.7685852 -0.6230774 -1.3916435 -1.3916626 -1.3916435l0 0c-0.7685852 0 -1.3916321 0.6230583 -1.3916321 1.3916435z" fill-rule="evenodd"/><path stroke="#000000" stroke-width="1.0" stroke-linejoin="round" stroke-linecap="butt" d="m285.35638 43.005123l0 0c0 0.7685852 0.6230469 1.3916435 1.3916321 1.3916435l0 0c0.3691101 0 0.7230835 -0.14661789 0.9840393 -0.40760422c0.26098633 -0.2609825 0.4076233 -0.6149521 0.4076233 -0.9840393l0 0c0 -0.7685852 -0.6230774 -1.3916435 -1.3916626 -1.3916435l0 0c-0.7685852 0 -1.3916321 0.6230583 -1.3916321 1.3916435z" fill-rule="evenodd"/><path fill="#ffffff" d="m214.76501 45.69739l48.0 0l0 -24.000002l-48.0 0z" fill-rule="evenodd"/><path stroke="#000000" stroke-width="1.0" stroke-linejoin="round" stroke-linecap="butt" d="m214.76501 45.69739l48.0 0l0 -24.000002l-48.0 0z" fill-rule="evenodd"/><path fill="#000000" fill-opacity="0.0" d="m239.28096 42.838627l19.453415 -8.675568" fill-rule="evenodd"/><path stroke="#000000" stroke-width="2.0" stroke-linejoin="round" stroke-linecap="butt" d="m250.24051 37.951042l8.493866 -3.787983" fill-rule="evenodd"/><path fill="#000000" stroke="#000000" stroke-width="2.0" stroke-linecap="butt" d="m248.895 34.934006l-6.943741 6.7137604l9.634735 -0.6796875z" fill-rule="evenodd"/><path fill="#000000" fill-opacity="0.0" d="m238.76228 43.69502l0 -20.697004" fill-rule="evenodd"/><path stroke="#000000" stroke-width="2.0" stroke-linejoin="round" stroke-linecap="butt" d="m238.76228 31.69502l0 -8.697006" fill-rule="evenodd"/><path fill="#000000" stroke="#000000" stroke-width="2.0" stroke-linecap="butt" d="m235.45882 31.69502l3.3034668 9.076197l3.3034668 -9.076197z" fill-rule="evenodd"/><path fill="#000000" fill-opacity="0.0" d="m238.24907 42.838627l-19.453415 -8.675568" fill-rule="evenodd"/><path stroke="#000000" stroke-width="2.0" stroke-linejoin="round" stroke-linecap="butt" d="m227.28952 37.95104l-8.493851 -3.7879791" fill-rule="evenodd"/><path fill="#000000" stroke="#000000" stroke-width="2.0" stroke-linecap="butt" d="m225.94402 40.968075l9.63475 0.6796913l-6.943741 -6.713764z" fill-rule="evenodd"/><path fill="#000000" d="m237.35638 43.005123l0 0c0 0.7685852 0.62306213 1.3916435 1.3916473 1.3916435l0 0c0.3690796 0 0.723053 -0.14661789 0.9840393 -0.40760422c0.26098633 -0.2609825 0.40760803 -0.6149521 0.40760803 -0.9840393l0 0c0 -0.7685852 -0.62306213 -1.3916435 -1.3916473 -1.3916435l0 0c-0.7685852 0 -1.3916473 0.6230583 -1.3916473 1.3916435z" fill-rule="evenodd"/><path stroke="#000000" stroke-width="1.0" stroke-linejoin="round" stroke-linecap="butt" d="m237.35638 43.005123l0 0c0 0.7685852 0.62306213 1.3916435 1.3916473 1.3916435l0 0c0.3690796 0 0.723053 -0.14661789 0.9840393 -0.40760422c0.26098633 -0.2609825 0.40760803 -0.6149521 0.40760803 -0.9840393l0 0c0 -0.7685852 -0.62306213 -1.3916435 -1.3916473 -1.3916435l0 0c-0.7685852 0 -1.3916473 0.6230583 -1.3916473 1.3916435z" fill-rule="evenodd"/><path fill="#ffffff" d="m262.765 21.69739l48.0 0l0 -24.0l-48.0 0z" fill-rule="evenodd"/><path stroke="#000000" stroke-width="1.0" stroke-linejoin="round" stroke-linecap="butt" d="m262.765 21.69739l48.0 0l0 -24.0l-48.0 0z" fill-rule="evenodd"/><path fill="#000000" fill-opacity="0.0" d="m287.28098 18.838629l19.4534 -8.67557" fill-rule="evenodd"/><path stroke="#000000" stroke-width="2.0" stroke-linejoin="round" stroke-linecap="butt" d="m287.28098 18.838627l8.493866 -3.787981" fill-rule="evenodd"/><path fill="#000000" stroke="#000000" stroke-width="2.0" stroke-linecap="butt" d="m297.12033 18.067682l6.943756 -6.7137613l-9.634735 0.67968655z" fill-rule="evenodd"/><path fill="#000000" fill-opacity="0.0" d="m286.76227 19.695019l0 -20.697004" fill-rule="evenodd"/><path stroke="#000000" stroke-width="2.0" stroke-linejoin="round" stroke-linecap="butt" d="m286.76227 19.695019l0 -8.697005" fill-rule="evenodd"/><path fill="#000000" stroke="#000000" stroke-width="2.0" stroke-linecap="butt" d="m290.06573 10.9980135l-3.3034668 -9.076195l-3.3034363 9.076195z" fill-rule="evenodd"/><path fill="#000000" fill-opacity="0.0" d="m286.24905 18.838629l-19.4534 -8.67557" fill-rule="evenodd"/><path stroke="#000000" stroke-width="2.0" stroke-linejoin="round" stroke-linecap="butt" d="m286.24905 18.838627l-8.493835 -3.7879772" fill-rule="evenodd"/><path fill="#000000" stroke="#000000" stroke-width="2.0" stroke-linecap="butt" d="m279.1007 12.033612l-9.634735 -0.6796894l6.9437256 6.713763z" fill-rule="evenodd"/><path fill="#000000" d="m285.35638 19.005123l0 0c0 0.7685833 0.6230469 1.3916435 1.3916321 1.3916435l0 0c0.3691101 0 0.7230835 -0.1466198 0.9840393 -0.4076023c0.26098633 -0.26098442 0.4076233 -0.614954 0.4076233 -0.9840412l0 0c0 -0.7685833 -0.6230774 -1.3916435 -1.3916626 -1.3916435l0 0c-0.7685852 0 -1.3916321 0.6230602 -1.3916321 1.3916435z" fill-rule="evenodd"/><path stroke="#000000" stroke-width="1.0" stroke-linejoin="round" stroke-linecap="butt" d="m285.35638 19.005123l0 0c0 0.7685833 0.6230469 1.3916435 1.3916321 1.3916435l0 0c0.3691101 0 0.7230835 -0.1466198 0.9840393 -0.4076023c0.26098633 -0.26098442 0.4076233 -0.614954 0.4076233 -0.9840412l0 0c0 -0.7685833 -0.6230774 -1.3916435 -1.3916626 -1.3916435l0 0c-0.7685852 0 -1.3916321 0.6230602 -1.3916321 1.3916435z" fill-rule="evenodd"/><path fill="#ffffff" d="m214.76501 -2.3026094l48.0 0l0 24.0l-48.0 0z" fill-rule="evenodd"/><path stroke="#000000" stroke-width="1.0" stroke-linejoin="round" stroke-linecap="butt" d="m214.76501 -2.3026094l48.0 0l0 24.0l-48.0 0z" fill-rule="evenodd"/><path fill="#000000" fill-opacity="0.0" d="m239.28096 0.5561533l19.464584 8.661417" fill-rule="evenodd"/><path stroke="#000000" stroke-width="2.0" stroke-linejoin="round" stroke-linecap="butt" d="m239.28096 0.55615324l8.501022 3.7828183" fill-rule="evenodd"/><path fill="#000000" stroke="#000000" stroke-width="2.0" stroke-linecap="butt" d="m246.43896 7.3571115l9.635284 0.6717868l-6.949234 -6.7080665z" fill-rule="evenodd"/><path fill="#000000" fill-opacity="0.0" d="m238.76228 -0.3002378l0 20.692913" fill-rule="evenodd"/><path stroke="#000000" stroke-width="2.0" stroke-linejoin="round" stroke-linecap="butt" d="m238.76228 -0.3002378l0 8.692914" fill-rule="evenodd"/><path fill="#000000" stroke="#000000" stroke-width="2.0" stroke-linecap="butt" d="m235.45882 8.392676l3.3034668 9.076194l3.3034668 -9.076194z" fill-rule="evenodd"/><path fill="#000000" fill-opacity="0.0" d="m238.24907 0.5561533l-19.46457 8.661417" fill-rule="evenodd"/><path stroke="#000000" stroke-width="2.0" stroke-linejoin="round" stroke-linecap="butt" d="m238.24905 0.55615324l-8.501022 3.7828183" fill-rule="evenodd"/><path fill="#000000" stroke="#000000" stroke-width="2.0" stroke-linecap="butt" d="m228.40501 1.3208317l-6.9492493 6.7080665l9.635284 -0.6717868z" fill-rule="evenodd"/><path fill="#000000" d="m237.35638 0.38384095l0 0c0 -0.76537097 0.6204529 -1.3858267 1.3858337 -1.3858267l0 0c0.36753845 0 0.72003174 0.14600629 0.97991943 0.40589923c0.2598877 0.25989294 0.40589905 0.61238337 0.40589905 0.97992754l0 0c0 0.76537097 -0.6204529 1.3858268 -1.3858185 1.3858268l0 0c-0.76538086 0 -1.3858337 -0.62045586 -1.3858337 -1.3858268z" fill-rule="evenodd"/><path stroke="#000000" stroke-width="1.0" stroke-linejoin="round" stroke-linecap="butt" d="m237.35638 0.38384095l0 0c0 -0.76537097 0.6204529 -1.3858267 1.3858337 -1.3858267l0 0c0.36753845 0 0.72003174 0.14600629 0.97991943 0.40589923c0.2598877 0.25989294 0.40589905 0.61238337 0.40589905 0.97992754l0 0c0 0.76537097 -0.6204529 1.3858268 -1.3858185 1.3858268l0 0c-0.76538086 0 -1.3858337 -0.62045586 -1.3858337 -1.3858268z" fill-rule="evenodd"/><path fill="#ffffff" d="m214.76501 -26.30261l48.0 0l0 24.0l-48.0 0z" fill-rule="evenodd"/><path stroke="#000000" stroke-width="1.0" stroke-linejoin="round" stroke-linecap="butt" d="m214.76501 -26.30261l48.0 0l0 24.0l-48.0 0z" fill-rule="evenodd"/><path fill="#ffffff" d="m212.98549 -84.41279l0 0c0 -1.4901886 1.2080383 -2.6982193 2.6982117 -2.6982193l35.894913 0c0.7156067 0 1.4019165 0.28427124 1.9079285 0.79029083c0.50601196 0.50601196 0.7902832 1.1923141 0.7902832 1.9079285l0 10.7925415c0 1.490181 -1.2080383 2.6982117 -2.6982117 2.6982117l-35.894913 0l0 0c-1.4901733 0 -2.6982117 -1.2080307 -2.6982117 -2.6982117z" fill-rule="evenodd"/><path stroke="#000000" stroke-width="1.0" stroke-linejoin="round" stroke-linecap="butt" d="m212.98549 -84.41279l0 0c0 -1.4901886 1.2080383 -2.6982193 2.6982117 -2.6982193l35.894913 0c0.7156067 0 1.4019165 0.28427124 1.9079285 0.79029083c0.50601196 0.50601196 0.7902832 1.1923141 0.7902832 1.9079285l0 10.7925415c0 1.490181 -1.2080383 2.6982117 -2.6982117 2.6982117l-35.894913 0l0 0c-1.4901733 0 -2.6982117 -1.2080307 -2.6982117 -2.6982117z" fill-rule="evenodd"/><path fill="#ffffff" d="m229.24796 -82.88525l0 0c0 -1.0350113 0.83903503 -1.874054 1.874054 -1.874054l19.18103 0c0.49702454 0 0.97369385 0.1974411 1.3251495 0.5488968c0.3514557 0.35144806 0.5489044 0.828125 0.5489044 1.3251572l0 7.495987c0 1.0350113 -0.8390503 1.874054 -1.874054 1.874054l-19.18103 0l0 0c-1.0350189 0 -1.874054 -0.83904266 -1.874054 -1.874054z" fill-rule="evenodd"/><path stroke="#999999" stroke-width="1.0" stroke-linejoin="round" stroke-linecap="butt" d="m229.24796 -82.88525l0 0c0 -1.0350113 0.83903503 -1.874054 1.874054 -1.874054l19.18103 0c0.49702454 0 0.97369385 0.1974411 1.3251495 0.5488968c0.3514557 0.35144806 0.5489044 0.828125 0.5489044 1.3251572l0 7.495987c0 1.0350113 -0.8390503 1.874054 -1.874054 1.874054l-19.18103 0l0 0c-1.0350189 0 -1.874054 -0.83904266 -1.874054 -1.874054z" fill-rule="evenodd"/><path fill="#000000" fill-opacity="0.0" d="m221.13094 -4.614714l0 0c-0.9579468 0 -1.7345123 -1.1112962 -1.7345123 -2.4821496l0 -14.711955l0 0c0 -1.3708534 0.77656555 -2.482151 1.7345123 -2.482151z" fill-rule="evenodd"/><path fill="#000000" fill-opacity="0.0" d="m221.13094 -4.614714l0 0c-0.9579468 0 -1.7345123 -1.1112962 -1.7345123 -2.4821496l0 -14.711955l0 0c0 -1.3708534 0.77656555 -2.482151 1.7345123 -2.482151" fill-rule="evenodd"/><path stroke="#000000" stroke-width="2.0" stroke-linejoin="round" stroke-linecap="butt" d="m221.13094 -4.614714l0 0c-0.9579468 0 -1.7345123 -1.1112962 -1.7345123 -2.4821496l0 -14.711955l0 0c0 -1.3708534 0.77656555 -2.482151 1.7345123 -2.482151" fill-rule="evenodd"/><path fill="#000000" fill-opacity="0.0" d="m257.37643 -4.614714l0 0c0.9579468 0 1.7344971 -1.1112962 1.7344971 -2.4821496l0 -14.711955l0 0c0 -1.3708534 -0.7765503 -2.482151 -1.7344971 -2.482151z" fill-rule="evenodd"/><path fill="#000000" fill-opacity="0.0" d="m257.37643 -4.614714l0 0c0.9579468 0 1.7344971 -1.1112962 1.7344971 -2.4821496l0 -14.711955l0 0c0 -1.3708534 -0.7765503 -2.482151 -1.7344971 -2.482151" fill-rule="evenodd"/><path stroke="#000000" stroke-width="2.0" stroke-linejoin="round" stroke-linecap="butt" d="m257.37643 -4.614714l0 0c0.9579468 0 1.7344971 -1.1112962 1.7344971 -2.4821496l0 -14.711955l0 0c0 -1.3708534 -0.7765503 -2.482151 -1.7344971 -2.482151" fill-rule="evenodd"/><path fill="#000000" fill-opacity="0.0" d="m237.06725 -8.199909l0 0c-0.9579468 0 -1.7345276 -1.1112957 -1.7345276 -2.4821491l0 -7.5415554l0 0c0 -1.3708534 0.7765808 -2.482151 1.7345276 -2.482151z" fill-rule="evenodd"/><path fill="#000000" fill-opacity="0.0" d="m237.06725 -8.199909l0 0c-0.9579468 0 -1.7345276 -1.1112957 -1.7345276 -2.4821491l0 -7.5415554l0 0c0 -1.3708534 0.7765808 -2.482151 1.7345276 -2.482151" fill-rule="evenodd"/><path stroke="#b7b7b7" stroke-width="2.0" stroke-linejoin="round" stroke-linecap="butt" d="m237.06725 -8.199909l0 0c-0.9579468 0 -1.7345276 -1.1112957 -1.7345276 -2.4821491l0 -7.5415554l0 0c0 -1.3708534 0.7765808 -2.482151 1.7345276 -2.482151" fill-rule="evenodd"/><path fill="#000000" fill-opacity="0.0" d="m253.74785 -8.199909l0 0c0.9579468 0 1.7345276 -1.1112957 1.7345276 -2.4821491l0 -7.5415554l0 0c0 -1.3708534 -0.7765808 -2.482151 -1.7345276 -2.482151z" fill-rule="evenodd"/><path fill="#000000" fill-opacity="0.0" d="m253.74785 -8.199909l0 0c0.9579468 0 1.7345276 -1.1112957 1.7345276 -2.4821491l0 -7.5415554l0 0c0 -1.3708534 -0.7765808 -2.482151 -1.7345276 -2.482151" fill-rule="evenodd"/><path stroke="#b7b7b7" stroke-width="2.0" stroke-linejoin="round" stroke-linecap="butt" d="m253.74785 -8.199909l0 0c0.9579468 0 1.7345276 -1.1112957 1.7345276 -2.4821491l0 -7.5415554l0 0c0 -1.3708534 -0.7765808 -2.482151 -1.7345276 -2.482151" fill-rule="evenodd"/><path fill="#ffffff" d="m214.76501 -50.30261l48.0 0l0 23.999998l-48.0 0z" fill-rule="evenodd"/><path stroke="#000000" stroke-width="1.0" stroke-linejoin="round" stroke-linecap="butt" d="m214.76501 -50.30261l48.0 0l0 23.999998l-48.0 0z" fill-rule="evenodd"/><path fill="#000000" fill-opacity="0.0" d="m225.83606 -40.74111l0 0c2.0608063 -2.8924026 5.8529663 -4.893711 10.22493 -5.396202c4.3719635 -0.502491 8.807922 0.55311584 11.960846 2.846283l-9.811005 7.361618z" fill-rule="evenodd"/><path fill="#000000" fill-opacity="0.0" d="m225.83606 -40.74111l0 0c2.0608063 -2.8924026 5.8529663 -4.893711 10.22493 -5.396202c4.3719635 -0.502491 8.807922 0.55311584 11.960846 2.846283" fill-rule="evenodd"/><path stroke="#000000" stroke-width="2.0" stroke-linejoin="round" stroke-linecap="butt" d="m225.83606 -40.74111l0 0c2.0608063 -2.8924026 5.852951 -4.893711 10.22493 -5.396202c1.0929871 -0.12562561 2.189972 -0.15386581 3.269928 -0.08972931l0.17897034 0.012557983" fill-rule="evenodd"/><path fill="#000000" stroke="#000000" stroke-width="2.0" stroke-linecap="butt" d="m238.7915 -44.122856l6.4650726 -0.11790848l-5.0283203 -4.065346z" fill-rule="evenodd"/><path fill="#ffffff" d="m247.93721 -39.066387l0 0c0 1.3220024 1.0716858 2.3936996 2.393692 2.3936996l0 0c0.6348572 0 1.2436981 -0.25219345 1.6926117 -0.7010994c0.44889832 -0.44890594 0.7010956 -1.0577545 0.7010956 -1.6926003l0 0c0 -1.3220062 -1.071701 -2.3937035 -2.3937073 -2.3937035l0 0c-1.3220062 0 -2.393692 1.0716972 -2.393692 2.3937035z" fill-rule="evenodd"/><path stroke="#000000" stroke-width="2.0" stroke-linejoin="round" stroke-linecap="butt" d="m247.93721 -39.066387l0 0c0 1.3220024 1.0716858 2.3936996 2.393692 2.3936996l0 0c0.6348572 0 1.2436981 -0.25219345 1.6926117 -0.7010994c0.44889832 -0.44890594 0.7010956 -1.0577545 0.7010956 -1.6926003l0 0c0 -1.3220062 -1.071701 -2.3937035 -2.3937073 -2.3937035l0 0c-1.3220062 0 -2.393692 1.0716972 -2.393692 2.3937035z" fill-rule="evenodd"/><path fill="#ffffff" d="m226.47847 -37.524303l0 0c0 -1.3220062 -1.071701 -2.3936996 -2.3937073 -2.3936996l0 0c-0.6348419 0 -1.2436981 0.25219345 -1.6925964 0.7010994c-0.44891357 0.44890594 -0.70111084 1.0577507 -0.70111084 1.6926003l0 0c0 1.3220062 1.071701 2.3936996 2.3937073 2.3936996l0 0c1.3220062 0 2.3937073 -1.0716934 2.3937073 -2.3936996z" fill-rule="evenodd"/><path stroke="#000000" stroke-width="2.0" stroke-linejoin="round" stroke-linecap="butt" d="m226.47847 -37.524303l0 0c0 -1.3220062 -1.071701 -2.3936996 -2.3937073 -2.3936996l0 0c-0.6348419 0 -1.2436981 0.25219345 -1.6925964 0.7010994c-0.44891357 0.44890594 -0.70111084 1.0577507 -0.70111084 1.6926003l0 0c0 1.3220062 1.071701 2.3936996 2.3937073 2.3936996l0 0c1.3220062 0 2.3937073 -1.0716934 2.3937073 -2.3936996z" fill-rule="evenodd"/><path fill="#000000" fill-opacity="0.0" d="m248.9606 -35.930218l0 0c-2.0608215 2.8924065 -5.8529663 4.893713 -10.22493 5.396206c-4.3719635 0.502491 -8.807922 -0.55311966 -11.960846 -2.846283l9.811005 -7.361618z" fill-rule="evenodd"/><path fill="#000000" fill-opacity="0.0" d="m248.9606 -35.930218l0 0c-2.0608215 2.8924065 -5.8529663 4.893713 -10.22493 5.396206c-4.3719635 0.502491 -8.807922 -0.55311966 -11.960846 -2.846283" fill-rule="evenodd"/><path stroke="#000000" stroke-width="2.0" stroke-linejoin="round" stroke-linecap="butt" d="m248.9606 -35.930214l0 0c-2.0608063 2.8924026 -5.8529663 4.893709 -10.22493 5.3962c-1.0930023 0.1256237 -2.1899872 0.1538639 -3.2699432 0.08973503l-0.17893982 -0.012563705" fill-rule="evenodd"/><path fill="#000000" stroke="#000000" stroke-width="2.0" stroke-linecap="butt" d="m236.00516 -32.54847l-6.4650726 0.11790848l5.0283356 4.0653477z" fill-rule="evenodd"/><path fill="#ffffff" d="m326.0931 23.898998l48.0 0l0 -24.0l-48.0 0z" fill-rule="evenodd"/><path stroke="#000000" stroke-width="1.0" stroke-linejoin="round" stroke-linecap="butt" d="m326.0931 23.898998l48.0 0l0 -24.0l-48.0 0z" fill-rule="evenodd"/><path fill="#ffffff" d="m326.0931 -24.101002l48.0 0l0 24.0l-48.0 0z" fill-rule="evenodd"/><path stroke="#000000" stroke-width="1.0" stroke-linejoin="round" stroke-linecap="butt" d="m326.0931 -24.101002l48.0 0l0 24.0l-48.0 0z" fill-rule="evenodd"/><path fill="#000000" fill-opacity="0.0" d="m350.49374 -19.197584l15.114227 6.7255907" fill-rule="evenodd"/><path stroke="#000000" stroke-width="1.0" stroke-linejoin="round" stroke-linecap="butt" d="m350.4937 -19.197584l9.632477 4.286294" fill-rule="evenodd"/><path fill="#000000" stroke="#000000" stroke-width="1.0" stroke-linecap="butt" d="m359.4547 -13.402221l4.817627 0.33589172l-3.4746094 -3.3540316z" fill-rule="evenodd"/><path fill="#000000" fill-opacity="0.0" d="m350.09097 -19.862572l0 16.068047" fill-rule="evenodd"/><path stroke="#000000" stroke-width="1.0" stroke-linejoin="round" stroke-linecap="butt" d="m350.09097 -19.862572l0 10.068048" fill-rule="evenodd"/><path fill="#000000" stroke="#000000" stroke-width="1.0" stroke-linecap="butt" d="m348.43924 -9.794524l1.6517334 4.5380974l1.6517334 -4.5380974z" fill-rule="evenodd"/><path fill="#000000" fill-opacity="0.0" d="m349.69247 -19.197584l-15.114258 6.7255907" fill-rule="evenodd"/><path stroke="#000000" stroke-width="1.0" stroke-linejoin="round" stroke-linecap="butt" d="m349.69247 -19.197584l-9.632477 4.286291" fill-rule="evenodd"/><path fill="#000000" stroke="#000000" stroke-width="1.0" stroke-linecap="butt" d="m339.3885 -16.420362l-3.47464 3.3540325l4.8176575 -0.33589363z" fill-rule="evenodd"/><path fill="#000000" d="m348.9993 -19.331385l0 0c0 -0.59431076 0.481781 -1.0760937 1.0760803 -1.0760937l0 0c0.2854004 0 0.55911255 0.1133728 0.7609253 0.31517982c0.20181274 0.20180702 0.31518555 0.47551537 0.31518555 0.76091385l0 0c0 0.59431076 -0.481781 1.0760937 -1.0761108 1.0760937l0 0c-0.5942993 0 -1.0760803 -0.4817829 -1.0760803 -1.0760937z" fill-rule="evenodd"/><path stroke="#000000" stroke-width="1.0" stroke-linejoin="round" stroke-linecap="butt" d="m348.9993 -19.331385l0 0c0 -0.59431076 0.481781 -1.0760937 1.0760803 -1.0760937l0 0c0.2854004 0 0.55911255 0.1133728 0.7609253 0.31517982c0.20181274 0.20180702 0.31518555 0.47551537 0.31518555 0.76091385l0 0c0 0.59431076 -0.481781 1.0760937 -1.0761108 1.0760937l0 0c-0.5942993 0 -1.0760803 -0.4817829 -1.0760803 -1.0760937z" fill-rule="evenodd"/><path fill="#ffffff" d="m326.0931 -48.101l48.0 0l0 24.0l-48.0 0z" fill-rule="evenodd"/><path stroke="#000000" stroke-width="1.0" stroke-linejoin="round" stroke-linecap="butt" d="m326.0931 -48.101l48.0 0l0 24.0l-48.0 0z" fill-rule="evenodd"/><path fill="#000000" fill-opacity="0.0" d="m332.459 -26.413107l0 0c-0.9579468 0 -1.7344971 -1.1112957 -1.7344971 -2.4821491l0 -14.711956l0 0c0 -1.3708534 0.7765503 -2.482151 1.7344971 -2.482151z" fill-rule="evenodd"/><path fill="#000000" fill-opacity="0.0" d="m332.459 -26.413107l0 0c-0.9579468 0 -1.7344971 -1.1112957 -1.7344971 -2.4821491l0 -14.711956l0 0c0 -1.3708534 0.7765503 -2.482151 1.7344971 -2.482151" fill-rule="evenodd"/><path stroke="#000000" stroke-width="1.0" stroke-linejoin="round" stroke-linecap="butt" d="m332.459 -26.413107l0 0c-0.9579468 0 -1.7344971 -1.1112957 -1.7344971 -2.4821491l0 -14.711956l0 0c0 -1.3708534 0.7765503 -2.482151 1.7344971 -2.482151" fill-rule="evenodd"/><path fill="#000000" fill-opacity="0.0" d="m368.7045 -26.413107l0 0c0.9579468 0 1.7345276 -1.1112957 1.7345276 -2.4821491l0 -14.711956l0 0c0 -1.3708534 -0.7765808 -2.482151 -1.7345276 -2.482151z" fill-rule="evenodd"/><path fill="#000000" fill-opacity="0.0" d="m368.7045 -26.413107l0 0c0.9579468 0 1.7345276 -1.1112957 1.7345276 -2.4821491l0 -14.711956l0 0c0 -1.3708534 -0.7765808 -2.482151 -1.7345276 -2.482151" fill-rule="evenodd"/><path stroke="#000000" stroke-width="1.0" stroke-linejoin="round" stroke-linecap="butt" d="m368.7045 -26.413107l0 0c0.9579468 0 1.7345276 -1.1112957 1.7345276 -2.4821491l0 -14.711956l0 0c0 -1.3708534 -0.7765808 -2.482151 -1.7345276 -2.482151" fill-rule="evenodd"/><path fill="#000000" fill-opacity="0.0" d="m348.39532 -29.9983l0 0c-0.9579468 0 -1.7345276 -1.1112976 -1.7345276 -2.4821491l0 -7.5415573l0 0c0 -1.3708534 0.7765808 -2.482151 1.7345276 -2.482151z" fill-rule="evenodd"/><path fill="#000000" fill-opacity="0.0" d="m348.39532 -29.9983l0 0c-0.9579468 0 -1.7345276 -1.1112976 -1.7345276 -2.4821491l0 -7.5415573l0 0c0 -1.3708534 0.7765808 -2.482151 1.7345276 -2.482151" fill-rule="evenodd"/><path stroke="#b7b7b7" stroke-width="1.0" stroke-linejoin="round" stroke-linecap="butt" d="m348.39532 -29.9983l0 0c-0.9579468 0 -1.7345276 -1.1112976 -1.7345276 -2.4821491l0 -7.5415573l0 0c0 -1.3708534 0.7765808 -2.482151 1.7345276 -2.482151" fill-rule="evenodd"/><path fill="#000000" fill-opacity="0.0" d="m365.07593 -29.9983l0 0c0.9579468 0 1.7345276 -1.1112976 1.7345276 -2.4821491l0 -7.5415573l0 0c0 -1.3708534 -0.7765808 -2.482151 -1.7345276 -2.482151z" fill-rule="evenodd"/><path fill="#000000" fill-opacity="0.0" d="m365.07593 -29.9983l0 0c0.9579468 0 1.7345276 -1.1112976 1.7345276 -2.4821491l0 -7.5415573l0 0c0 -1.3708534 -0.7765808 -2.482151 -1.7345276 -2.482151" fill-rule="evenodd"/><path stroke="#b7b7b7" stroke-width="1.0" stroke-linejoin="round" stroke-linecap="butt" d="m365.07593 -29.9983l0 0c0.9579468 0 1.7345276 -1.1112976 1.7345276 -2.4821491l0 -7.5415573l0 0c0 -1.3708534 -0.7765808 -2.482151 -1.7345276 -2.482151" fill-rule="evenodd"/><path fill="#ffffff" d="m326.0931 -72.101006l48.0 0l0 24.000004l-48.0 0z" fill-rule="evenodd"/><path stroke="#000000" stroke-width="1.0" stroke-linejoin="round" stroke-linecap="butt" d="m326.0931 -72.101006l48.0 0l0 24.000004l-48.0 0z" fill-rule="evenodd"/><path fill="#000000" fill-opacity="0.0" d="m337.16415 -62.539505l0 0c2.060791 -2.8924026 5.852936 -4.8937073 10.224915 -5.396202c4.3719482 -0.5024948 8.807922 0.55311584 11.960846 2.846283l-9.811005 7.361618z" fill-rule="evenodd"/><path fill="#000000" fill-opacity="0.0" d="m337.16415 -62.539505l0 0c2.060791 -2.8924026 5.852936 -4.8937073 10.224915 -5.396202c4.3719482 -0.5024948 8.807922 0.55311584 11.960846 2.846283" fill-rule="evenodd"/><path stroke="#000000" stroke-width="1.0" stroke-linejoin="round" stroke-linecap="butt" d="m337.16415 -62.539505l0 0c2.060791 -2.8924026 5.852936 -4.8937073 10.224915 -5.396202c2.1859741 -0.2512436 4.38797 -0.112960815 6.4375305 0.37477112c0.51242065 0.12193298 1.0153198 0.26570892 1.5060425 0.4307022l0.005645752 0.0019760132" fill-rule="evenodd"/><path fill="#000000" stroke="#000000" stroke-width="1.0" stroke-linecap="butt" d="m354.83728 -66.142494l3.209381 0.39071655l-2.2073975 -2.3622513z" fill-rule="evenodd"/><path fill="#ffffff" d="m359.2653 -60.86478l0 0c0 1.3220024 1.0716858 2.3936996 2.3937073 2.3936996l0 0c0.6348572 0 1.2436829 -0.25219345 1.6925964 -0.7010994c0.44891357 -0.44890594 0.70111084 -1.0577507 0.70111084 -1.6926003l0 0c0 -1.3220062 -1.0717163 -2.3937035 -2.3937073 -2.3937035l0 0c-1.3220215 0 -2.3937073 1.0716972 -2.3937073 2.3937035z" fill-rule="evenodd"/><path stroke="#000000" stroke-width="1.0" stroke-linejoin="round" stroke-linecap="butt" d="m359.2653 -60.86478l0 0c0 1.3220024 1.0716858 2.3936996 2.3937073 2.3936996l0 0c0.6348572 0 1.2436829 -0.25219345 1.6925964 -0.7010994c0.44891357 -0.44890594 0.70111084 -1.0577507 0.70111084 -1.6926003l0 0c0 -1.3220062 -1.0717163 -2.3937035 -2.3937073 -2.3937035l0 0c-1.3220215 0 -2.3937073 1.0716972 -2.3937073 2.3937035z" fill-rule="evenodd"/><path fill="#ffffff" d="m337.80655 -59.322697l0 0c0 -1.3220024 -1.0716858 -2.3936996 -2.3937073 -2.3936996l0 0c-0.6348572 0 -1.2436829 0.25219345 -1.6925964 0.7010994c-0.44891357 0.44890594 -0.70111084 1.0577507 -0.70111084 1.6926003l0 0c0 1.3220062 1.0717163 2.3937035 2.3937073 2.3937035l0 0c1.3220215 0 2.3937073 -1.0716972 2.3937073 -2.3937035z" fill-rule="evenodd"/><path stroke="#000000" stroke-width="1.0" stroke-linejoin="round" stroke-linecap="butt" d="m337.80655 -59.322697l0 0c0 -1.3220024 -1.0716858 -2.3936996 -2.3937073 -2.3936996l0 0c-0.6348572 0 -1.2436829 0.25219345 -1.6925964 0.7010994c-0.44891357 0.44890594 -0.70111084 1.0577507 -0.70111084 1.6926003l0 0c0 1.3220062 1.0717163 2.3937035 2.3937073 2.3937035l0 0c1.3220215 0 2.3937073 -1.0716972 2.3937073 -2.3937035z" fill-rule="evenodd"/><path fill="#000000" fill-opacity="0.0" d="m360.2887 -57.728607l0 0c-2.0608215 2.8924026 -5.8529663 4.893711 -10.224945 5.396202c-4.3719482 0.502491 -8.807922 -0.55311966 -11.960846 -2.846283l9.811005 -7.361618z" fill-rule="evenodd"/><path fill="#000000" fill-opacity="0.0" d="m360.2887 -57.728607l0 0c-2.0608215 2.8924026 -5.8529663 4.893711 -10.224945 5.396202c-4.3719482 0.502491 -8.807922 -0.55311966 -11.960846 -2.846283" fill-rule="evenodd"/><path stroke="#000000" stroke-width="1.0" stroke-linejoin="round" stroke-linecap="butt" d="m360.28867 -57.728607l0 0c-2.0608215 2.8924026 -5.852936 4.893711 -10.224884 5.396202c-2.1860046 0.2512436 -4.38797 0.112968445 -6.437561 -0.37477112c-0.51242065 -0.12193298 -1.0152893 -0.26570892 -1.506012 -0.4307022l-0.0056762695 -0.0019721985" fill-rule="evenodd"/><path fill="#000000" stroke="#000000" stroke-width="1.0" stroke-linecap="butt" d="m342.61554 -54.12562l-3.209381 -0.39071655l2.2073975 2.362255z" fill-rule="evenodd"/><path fill="#ffffff" d="m374.0931 -24.101002l48.0 0l0 24.0l-48.0 0z" fill-rule="evenodd"/><path stroke="#000000" stroke-width="1.0" stroke-linejoin="round" stroke-linecap="butt" d="m374.0931 -24.101002l48.0 0l0 24.0l-48.0 0z" fill-rule="evenodd"/><path fill="#000000" fill-opacity="0.0" d="m398.49374 -5.0044193l15.114227 -6.7255907" fill-rule="evenodd"/><path stroke="#000000" stroke-width="1.0" stroke-linejoin="round" stroke-linecap="butt" d="m398.4937 -5.0044193l9.632477 -4.286294" fill-rule="evenodd"/><path fill="#000000" stroke="#000000" stroke-width="1.0" stroke-linecap="butt" d="m408.79773 -7.781643l3.4746094 -3.3540316l-4.817627 0.33589077z" fill-rule="evenodd"/><path fill="#000000" fill-opacity="0.0" d="m398.09097 -4.339432l0 -16.068047" fill-rule="evenodd"/><path stroke="#000000" stroke-width="1.0" stroke-linejoin="round" stroke-linecap="butt" d="m398.09097 -4.339432l0 -10.068048" fill-rule="evenodd"/><path fill="#000000" stroke="#000000" stroke-width="1.0" stroke-linecap="butt" d="m399.7427 -14.407479l-1.6517334 -4.5380983l-1.6517334 4.5380983z" fill-rule="evenodd"/><path fill="#000000" fill-opacity="0.0" d="m397.69247 -5.0044193l-15.114258 -6.7255907" fill-rule="evenodd"/><path stroke="#000000" stroke-width="1.0" stroke-linejoin="round" stroke-linecap="butt" d="m397.69247 -5.0044193l-9.632477 -4.2862883" fill-rule="evenodd"/><path fill="#000000" stroke="#000000" stroke-width="1.0" stroke-linecap="butt" d="m388.73154 -10.799777l-4.8176575 -0.33589554l3.47464 3.3540344z" fill-rule="evenodd"/><path fill="#000000" d="m396.9993 -4.870619l0 0c0 0.5943103 0.481781 1.0760944 1.0760803 1.0760944l0 0c0.2854004 0 0.55911255 -0.113373995 0.7609253 -0.31518102c0.20181274 -0.20180655 0.31518555 -0.47551537 0.31518555 -0.7609134l0 0c0 -0.59431076 -0.481781 -1.0760946 -1.0761108 -1.0760946l0 0c-0.5942993 0 -1.0760803 0.48178387 -1.0760803 1.0760946z" fill-rule="evenodd"/><path stroke="#000000" stroke-width="1.0" stroke-linejoin="round" stroke-linecap="butt" d="m396.9993 -4.870619l0 0c0 0.5943103 0.481781 1.0760944 1.0760803 1.0760944l0 0c0.2854004 0 0.55911255 -0.113373995 0.7609253 -0.31518102c0.20181274 -0.20180655 0.31518555 -0.47551537 0.31518555 -0.7609134l0 0c0 -0.59431076 -0.481781 -1.0760946 -1.0761108 -1.0760946l0 0c-0.5942993 0 -1.0760803 0.48178387 -1.0760803 1.0760946z" fill-rule="evenodd"/><path fill="#000000" fill-opacity="0.0" d="m350.49374 4.802416l15.114227 6.7255907" fill-rule="evenodd"/><path stroke="#000000" stroke-width="1.0" stroke-linejoin="round" stroke-linecap="butt" d="m355.97552 7.2417126l9.632446 4.286294" fill-rule="evenodd"/><path fill="#000000" stroke="#000000" stroke-width="1.0" stroke-linecap="butt" d="m356.647 5.7326427l-4.817627 -0.33589125l3.4746094 3.3540316z" fill-rule="evenodd"/><path fill="#000000" fill-opacity="0.0" d="m350.09097 4.1374283l0 16.068047" fill-rule="evenodd"/><path stroke="#000000" stroke-width="1.0" stroke-linejoin="round" stroke-linecap="butt" d="m350.09097 10.137428l0 10.068047" fill-rule="evenodd"/><path fill="#000000" stroke="#000000" stroke-width="1.0" stroke-linecap="butt" d="m351.7427 10.137428l-1.6517334 -4.538098l-1.6517334 4.538098z" fill-rule="evenodd"/><path fill="#000000" fill-opacity="0.0" d="m349.69247 4.802416l-15.114258 6.7255907" fill-rule="evenodd"/><path stroke="#000000" stroke-width="1.0" stroke-linejoin="round" stroke-linecap="butt" d="m344.21066 7.2417154l-9.632446 4.286291" fill-rule="evenodd"/><path fill="#000000" stroke="#000000" stroke-width="1.0" stroke-linecap="butt" d="m344.8822 8.750786l3.4746094 -3.3540335l-4.817627 0.33589315z" fill-rule="evenodd"/><path fill="#000000" d="m348.9993 4.6686153l0 0c0 -0.59431076 0.481781 -1.0760944 1.0760803 -1.0760944l0 0c0.2854004 0 0.55911255 0.11337376 0.7609253 0.31518078c0.20181274 0.20180678 0.31518555 0.4755156 0.31518555 0.7609136l0 0c0 0.59431076 -0.481781 1.0760946 -1.0761108 1.0760946l0 0c-0.5942993 0 -1.0760803 -0.48178387 -1.0760803 -1.0760946z" fill-rule="evenodd"/><path stroke="#000000" stroke-width="1.0" stroke-linejoin="round" stroke-linecap="butt" d="m348.9993 4.6686153l0 0c0 -0.59431076 0.481781 -1.0760944 1.0760803 -1.0760944l0 0c0.2854004 0 0.55911255 0.11337376 0.7609253 0.31518078c0.20181274 0.20180678 0.31518555 0.4755156 0.31518555 0.7609136l0 0c0 0.59431076 -0.481781 1.0760946 -1.0761108 1.0760946l0 0c-0.5942993 0 -1.0760803 -0.48178387 -1.0760803 -1.0760946z" fill-rule="evenodd"/><path fill="#ffffff" d="m374.0931 23.898998l48.0 0l0 -24.0l-48.0 0z" fill-rule="evenodd"/><path stroke="#000000" stroke-width="1.0" stroke-linejoin="round" stroke-linecap="butt" d="m374.0931 23.898998l48.0 0l0 -24.0l-48.0 0z" fill-rule="evenodd"/><path fill="#000000" fill-opacity="0.0" d="m398.49374 18.99558l15.114227 -6.7255907" fill-rule="evenodd"/><path stroke="#000000" stroke-width="1.0" stroke-linejoin="round" stroke-linecap="butt" d="m403.97552 16.556284l9.632446 -4.286294" fill-rule="evenodd"/><path fill="#000000" stroke="#000000" stroke-width="1.0" stroke-linecap="butt" d="m403.304 15.047213l-3.4746094 3.3540325l4.817627 -0.33589172z" fill-rule="evenodd"/><path fill="#000000" fill-opacity="0.0" d="m398.09097 19.660568l0 -16.068047" fill-rule="evenodd"/><path stroke="#000000" stroke-width="1.0" stroke-linejoin="round" stroke-linecap="butt" d="m398.09097 13.660567l0 -10.068047" fill-rule="evenodd"/><path fill="#000000" stroke="#000000" stroke-width="1.0" stroke-linecap="butt" d="m396.43924 13.660568l1.6517334 4.5380974l1.6517334 -4.5380974z" fill-rule="evenodd"/><path fill="#000000" fill-opacity="0.0" d="m397.69247 18.99558l-15.114258 -6.7255907" fill-rule="evenodd"/><path stroke="#000000" stroke-width="1.0" stroke-linejoin="round" stroke-linecap="butt" d="m392.21072 16.556278l-9.632477 -4.2862883" fill-rule="evenodd"/><path fill="#000000" stroke="#000000" stroke-width="1.0" stroke-linecap="butt" d="m391.53918 18.065348l4.8176575 0.33589554l-3.47464 -3.3540354z" fill-rule="evenodd"/><path fill="#000000" d="m396.9993 19.129381l0 0c0 0.59431076 0.481781 1.0760937 1.0760803 1.0760937l0 0c0.2854004 0 0.55911255 -0.1133728 0.7609253 -0.31517982c0.20181274 -0.20180702 0.31518555 -0.47551537 0.31518555 -0.76091385l0 0c0 -0.59431076 -0.481781 -1.0760956 -1.0761108 -1.0760956l0 0c-0.5942993 0 -1.0760803 0.48178482 -1.0760803 1.0760956z" fill-rule="evenodd"/><path stroke="#000000" stroke-width="1.0" stroke-linejoin="round" stroke-linecap="butt" d="m396.9993 19.129381l0 0c0 0.59431076 0.481781 1.0760937 1.0760803 1.0760937l0 0c0.2854004 0 0.55911255 -0.1133728 0.7609253 -0.31517982c0.20181274 -0.20180702 0.31518555 -0.47551537 0.31518555 -0.76091385l0 0c0 -0.59431076 -0.481781 -1.0760956 -1.0761108 -1.0760956l0 0c-0.5942993 0 -1.0760803 0.48178482 -1.0760803 1.0760956z" fill-rule="evenodd"/><path fill="#ffffff" d="m326.0931 23.898998l48.0 0l0 24.0l-48.0 0z" fill-rule="evenodd"/><path stroke="#000000" stroke-width="1.0" stroke-linejoin="round" stroke-linecap="butt" d="m326.0931 23.898998l48.0 0l0 24.0l-48.0 0z" fill-rule="evenodd"/><path fill="#000000" fill-opacity="0.0" d="m337.16415 33.460495l0 0c2.060791 -2.8924026 5.852936 -4.893711 10.224915 -5.396202c4.3719482 -0.5024929 8.807922 0.55311775 11.960846 2.846283l-9.811005 7.361618z" fill-rule="evenodd"/><path fill="#000000" fill-opacity="0.0" d="m337.16415 33.460495l0 0c2.060791 -2.8924026 5.852936 -4.893711 10.224915 -5.396202c4.3719482 -0.5024929 8.807922 0.55311775 11.960846 2.846283" fill-rule="evenodd"/><path stroke="#000000" stroke-width="1.0" stroke-linejoin="round" stroke-linecap="butt" d="m337.16415 33.460495l0 0c2.060791 -2.8924026 5.852936 -4.893711 10.224915 -5.396204c2.1859741 -0.2512455 4.38797 -0.11296463 6.4375305 0.37477303c0.51242065 0.121931076 1.0153198 0.26570702 1.5060425 0.4306965l0.005645752 0.0019760132" fill-rule="evenodd"/><path fill="#000000" stroke="#000000" stroke-width="1.0" stroke-linecap="butt" d="m354.83728 29.857508l3.209381 0.39071465l-2.2073975 -2.362255z" fill-rule="evenodd"/><path fill="#ffffff" d="m359.2653 35.13522l0 0c0 1.3220024 1.0716858 2.3936996 2.3937073 2.3936996l0 0c0.6348572 0 1.2436829 -0.25219345 1.6925964 -0.7010994c0.44891357 -0.44890594 0.70111084 -1.0577507 0.70111084 -1.6926003l0 0c0 -1.3220062 -1.0717163 -2.3937035 -2.3937073 -2.3937035l0 0c-1.3220215 0 -2.3937073 1.0716972 -2.3937073 2.3937035z" fill-rule="evenodd"/><path stroke="#000000" stroke-width="1.0" stroke-linejoin="round" stroke-linecap="butt" d="m359.2653 35.13522l0 0c0 1.3220024 1.0716858 2.3936996 2.3937073 2.3936996l0 0c0.6348572 0 1.2436829 -0.25219345 1.6925964 -0.7010994c0.44891357 -0.44890594 0.70111084 -1.0577507 0.70111084 -1.6926003l0 0c0 -1.3220062 -1.0717163 -2.3937035 -2.3937073 -2.3937035l0 0c-1.3220215 0 -2.3937073 1.0716972 -2.3937073 2.3937035z" fill-rule="evenodd"/><path fill="#000000" d="m337.80655 36.677303l0 0c0 -1.3220024 -1.0716858 -2.3936996 -2.3937073 -2.3936996l0 0c-0.6348572 0 -1.2436829 0.25219345 -1.6925964 0.7010994c-0.44891357 0.44890594 -0.70111084 1.0577507 -0.70111084 1.6926003l0 0c0 1.3220062 1.0717163 2.3937035 2.3937073 2.3937035l0 0c1.3220215 0 2.3937073 -1.0716972 2.3937073 -2.3937035z" fill-rule="evenodd"/><path stroke="#000000" stroke-width="1.0" stroke-linejoin="round" stroke-linecap="butt" d="m337.80655 36.677303l0 0c0 -1.3220024 -1.0716858 -2.3936996 -2.3937073 -2.3936996l0 0c-0.6348572 0 -1.2436829 0.25219345 -1.6925964 0.7010994c-0.44891357 0.44890594 -0.70111084 1.0577507 -0.70111084 1.6926003l0 0c0 1.3220062 1.0717163 2.3937035 2.3937073 2.3937035l0 0c1.3220215 0 2.3937073 -1.0716972 2.3937073 -2.3937035z" fill-rule="evenodd"/><path fill="#000000" fill-opacity="0.0" d="m95.9255 129.28569l46.173836 20.818588" fill-rule="evenodd"/><path stroke="#0000ff" stroke-width="4.0" stroke-linejoin="round" stroke-linecap="butt" d="m95.92549 129.28569l24.294891 10.953934" fill-rule="evenodd"/><path fill="#0000ff" stroke="#0000ff" stroke-width="4.0" stroke-linecap="butt" d="m117.50475 146.26265l19.263771 1.4381104l-13.832512 -13.484161z" fill-rule="evenodd"/><path fill="#000000" fill-opacity="0.0" d="m94.69507 127.22727l0 49.73748" fill-rule="evenodd"/><path stroke="#0000ff" stroke-width="4.0" stroke-linejoin="round" stroke-linecap="butt" d="m94.69507 127.22727l0 25.73748" fill-rule="evenodd"/><path fill="#0000ff" stroke="#0000ff" stroke-width="4.0" stroke-linecap="butt" d="m88.088135 152.96475l6.6069336 18.15239l6.606926 -18.15239z" fill-rule="evenodd"/><path fill="#000000" fill-opacity="0.0" d="m93.47762 129.28569l-46.17385 20.818588" fill-rule="evenodd"/><path stroke="#0000ff" stroke-width="4.0" stroke-linejoin="round" stroke-linecap="butt" d="m93.477615 129.28569l-24.294891 10.953934" fill-rule="evenodd"/><path fill="#0000ff" stroke="#0000ff" stroke-width="4.0" stroke-linecap="butt" d="m66.4671 134.2166l-13.832512 13.484161l19.263763 -1.4381104z" fill-rule="evenodd"/><path fill="#0000ff" d="m91.36 128.87152l0 0c0 -1.8396454 1.4718475 -3.3309708 3.2874603 -3.3309708l0 0c0.8718872 0 1.7080612 0.35094452 2.324585 0.97561646c0.6165161 0.62467957 0.96286774 1.4719315 0.96286774 2.3553543l0 0c0 1.8396454 -1.4718399 3.3309784 -3.2874527 3.3309784l0 0c-1.8156128 0 -3.2874603 -1.491333 -3.2874603 -3.3309784z" fill-rule="evenodd"/><path stroke="#0000ff" stroke-width="8.0" stroke-linejoin="round" stroke-linecap="butt" d="m91.36 128.87152l0 0c0 -1.8396454 1.4718475 -3.3309708 3.2874603 -3.3309708l0 0c0.8718872 0 1.7080612 0.35094452 2.324585 0.97561646c0.6165161 0.62467957 0.96286774 1.4719315 0.96286774 2.3553543l0 0c0 1.8396454 -1.4718399 3.3309784 -3.2874527 3.3309784l0 0c-1.8156128 0 -3.2874603 -1.491333 -3.2874603 -3.3309784z" fill-rule="evenodd"/><path fill="#000000" fill-opacity="0.0" d="m23.0919 92.47157l0 0c-3.8317966 0 -6.93808 -4.4451904 -6.93808 -9.928604l0 -60.96187l0 0c0 -5.4834137 3.1062832 -9.928598 6.93808 -9.928598z" fill-rule="evenodd"/><path fill="#000000" fill-opacity="0.0" d="m23.0919 92.47157l0 0c-3.8317966 0 -6.93808 -4.4451904 -6.93808 -9.928604l0 -60.96187l0 0c0 -5.4834137 3.1062832 -9.928598 6.93808 -9.928598" fill-rule="evenodd"/><path stroke="#0000ff" stroke-width="4.0" stroke-linejoin="round" stroke-linecap="butt" d="m23.0919 92.47157l0 0c-3.8317966 0 -6.93808 -4.4451904 -6.93808 -9.928604l0 -60.96187l0 0c0 -5.4834137 3.1062832 -9.928598 6.93808 -9.928598" fill-rule="evenodd"/><path fill="#000000" fill-opacity="0.0" d="m168.07382 92.47157l0 0c3.831787 0 6.93808 -4.4451904 6.93808 -9.928604l0 -60.96187l0 0c0 -5.4834137 -3.1062927 -9.928598 -6.93808 -9.928598z" fill-rule="evenodd"/><path fill="#000000" fill-opacity="0.0" d="m168.07382 92.47157l0 0c3.831787 0 6.93808 -4.4451904 6.93808 -9.928604l0 -60.96187l0 0c0 -5.4834137 -3.1062927 -9.928598 -6.93808 -9.928598" fill-rule="evenodd"/><path stroke="#0000ff" stroke-width="4.0" stroke-linejoin="round" stroke-linecap="butt" d="m168.07382 92.47157l0 0c3.831787 0 6.93808 -4.4451904 6.93808 -9.928604l0 -60.96187l0 0c0 -5.4834137 -3.1062927 -9.928598 -6.93808 -9.928598" fill-rule="evenodd"/><path fill="#000000" fill-opacity="0.0" d="m86.83711 77.745605l0 0c-3.8317947 0 -6.93808 -4.445183 -6.93808 -9.9285965l0 -31.509876l0 0c0 -5.4834137 3.106285 -9.9286 6.93808 -9.9286z" fill-rule="evenodd"/><path fill="#000000" fill-opacity="0.0" d="m86.83711 77.745605l0 0c-3.8317947 0 -6.93808 -4.445183 -6.93808 -9.9285965l0 -31.509876l0 0c0 -5.4834137 3.106285 -9.9286 6.93808 -9.9286" fill-rule="evenodd"/><path stroke="#b7b7b7" stroke-width="4.0" stroke-linejoin="round" stroke-linecap="butt" d="m86.83711 77.745605l0 0c-3.8317947 0 -6.93808 -4.445183 -6.93808 -9.9285965l0 -31.509876l0 0c0 -5.4834137 3.106285 -9.9286 6.93808 -9.9286" fill-rule="evenodd"/><path fill="#000000" fill-opacity="0.0" d="m153.55954 77.745605l0 0c3.831787 0 6.93808 -4.445183 6.93808 -9.9285965l0 -31.509876l0 0c0 -5.4834137 -3.1062927 -9.9286 -6.93808 -9.9286z" fill-rule="evenodd"/><path fill="#000000" fill-opacity="0.0" d="m153.55954 77.745605l0 0c3.831787 0 6.93808 -4.445183 6.93808 -9.9285965l0 -31.509876l0 0c0 -5.4834137 -3.1062927 -9.9286 -6.93808 -9.9286" fill-rule="evenodd"/><path stroke="#b7b7b7" stroke-width="4.0" stroke-linejoin="round" stroke-linecap="butt" d="m153.55954 77.745605l0 0c3.831787 0 6.93808 -4.445183 6.93808 -9.9285965l0 -31.509876l0 0c0 -5.4834137 -3.1062927 -9.9286 -6.93808 -9.9286" fill-rule="evenodd"/><path fill="#000000" fill-opacity="0.0" d="m-1.2984425 -103.18537l192.0 0l0 98.55118l-192.0 0z" fill-rule="evenodd"/><path stroke="#000000" stroke-width="4.0" stroke-linejoin="round" stroke-linecap="butt" d="m-1.2984425 -103.18537l192.0 0l0 98.55118l-192.0 0z" fill-rule="evenodd"/><path fill="#000000" fill-opacity="0.0" d="m42.708 -55.51023l0 0c8.181705 -12.104088 23.519386 -20.498863 41.243584 -22.573868c17.72419 -2.074997 35.685455 2.4214172 48.298492 12.091034l-39.765274 29.837605z" fill-rule="evenodd"/><path fill="#000000" fill-opacity="0.0" d="m42.708 -55.51023l0 0c8.181705 -12.104088 23.519386 -20.498863 41.243584 -22.573868c17.72419 -2.074997 35.685455 2.4214172 48.298492 12.091034" fill-rule="evenodd"/><path stroke="#0000ff" stroke-width="4.0" stroke-linejoin="round" stroke-linecap="butt" d="m42.708 -55.51023l0 0c8.181705 -12.104088 23.519386 -20.498863 41.243584 -22.573868c8.862099 -1.0374985 17.783455 -0.43214417 26.065926 1.6412888c2.0706253 0.5183563 4.1013107 1.1284714 6.0811615 1.8276062l0.293602 0.10567474" fill-rule="evenodd"/><path fill="#0000ff" stroke="#0000ff" stroke-width="4.0" stroke-linecap="butt" d="m114.299545 -70.61282l12.798859 1.853035l-8.613388 -9.646454z" fill-rule="evenodd"/><path fill="#ffffff" d="m131.39032 -49.026554l0 0c0 5.4271774 4.286789 9.826775 9.574799 9.826775l0 0c2.5393982 0 4.9747925 -1.0353203 6.7704163 -2.8781967c1.7956238 -1.8428764 2.8043823 -4.342354 2.8043823 -6.948578l0 0c0 -5.4271736 -4.2867737 -9.826771 -9.574799 -9.826771l0 0c-5.2880096 0 -9.574799 4.399597 -9.574799 9.826771z" fill-rule="evenodd"/><path stroke="#000000" stroke-width="4.0" stroke-linejoin="round" stroke-linecap="butt" d="m131.39032 -49.026554l0 0c0 5.4271774 4.286789 9.826775 9.574799 9.826775l0 0c2.5393982 0 4.9747925 -1.0353203 6.7704163 -2.8781967c1.7956238 -1.8428764 2.8043823 -4.342354 2.8043823 -6.948578l0 0c0 -5.4271736 -4.2867737 -9.826771 -9.574799 -9.826771l0 0c-5.2880096 0 -9.574799 4.399597 -9.574799 9.826771z" fill-rule="evenodd"/><path fill="#ffffff" d="m45.55535 -42.703312l0 0c0 -5.4271736 -4.286785 -9.826771 -9.574802 -9.826771l0 0c-2.5393944 0 -4.974785 1.0353165 -6.7704086 2.8781967c-1.7956238 1.8428764 -2.8043957 4.342354 -2.8043957 6.948574l0 0c0 5.4271774 4.286787 9.826775 9.574804 9.826775l0 0c5.2880173 0 9.574802 -4.399597 9.574802 -9.826775z" fill-rule="evenodd"/><path stroke="#000000" stroke-width="4.0" stroke-linejoin="round" stroke-linecap="butt" d="m45.55535 -42.703312l0 0c0 -5.4271736 -4.286785 -9.826771 -9.574802 -9.826771l0 0c-2.5393944 0 -4.974785 1.0353165 -6.7704086 2.8781967c-1.7956238 1.8428764 -2.8043957 4.342354 -2.8043957 6.948574l0 0c0 5.4271774 4.286787 9.826775 9.574804 9.826775l0 0c5.2880173 0 9.574802 -4.399597 9.574802 -9.826775z" fill-rule="evenodd"/><path fill="#000000" fill-opacity="0.0" d="m135.76161 -36.550846l0 0c-8.181709 12.104086 -23.519394 20.498865 -41.243584 22.573866c-17.724197 2.0749998 -35.685463 -2.4214172 -48.298504 -12.091028l39.765278 -29.837608z" fill-rule="evenodd"/><path fill="#000000" fill-opacity="0.0" d="m135.76161 -36.550846l0 0c-8.181709 12.104086 -23.519394 20.498865 -41.243584 22.573866c-17.724197 2.0749998 -35.685463 -2.4214172 -48.298504 -12.091028" fill-rule="evenodd"/><path stroke="#0000ff" stroke-width="4.0" stroke-linejoin="round" stroke-linecap="butt" d="m135.76161 -36.550846l0 0c-8.181717 12.104086 -23.519394 20.498865 -41.24359 22.573866c-8.862091 1.0375004 -17.783455 0.43214512 -26.065926 -1.641285c-2.0706177 -0.51835823 -4.101303 -1.1284714 -6.081154 -1.8276062l-0.29361725 -0.10567284" fill-rule="evenodd"/><path fill="#0000ff" stroke="#0000ff" stroke-width="4.0" stroke-linecap="butt" d="m64.17006 -21.448256l-12.798855 -1.8530331l8.613384 9.646453z" fill-rule="evenodd"/><path fill="#000000" fill-opacity="0.0" d="m42.708 338.81464l0 0c8.181705 -12.104065 23.519386 -20.49884 41.243584 -22.573853c17.72419 -2.0750122 35.685455 2.4214172 48.298492 12.091034l-39.765274 29.837616z" fill-rule="evenodd"/><path fill="#000000" fill-opacity="0.0" d="m42.708 338.81464l0 0c8.181705 -12.104065 23.519386 -20.49884 41.243584 -22.573853c17.72419 -2.0750122 35.685455 2.4214172 48.298492 12.091034" fill-rule="evenodd"/><path stroke="#0000ff" stroke-width="4.0" stroke-linejoin="round" stroke-linecap="butt" d="m42.708 338.81467l0 0c8.181705 -12.104095 23.519386 -20.49887 41.243584 -22.573883c8.862099 -1.0375061 17.783455 -0.4321289 26.065926 1.6412964c2.0706253 0.51834106 4.1013107 1.1284485 6.0811615 1.8275757l0.29361725 0.10568237" fill-rule="evenodd"/><path fill="#0000ff" stroke="#0000ff" stroke-width="4.0" stroke-linecap="butt" d="m114.299545 323.71207l12.798859 1.8530273l-8.61338 -9.646454z" fill-rule="evenodd"/><path fill="#ffffff" d="m131.39032 345.29834l0 0c0 5.4271545 4.286789 9.826752 9.574799 9.826752l0 0c2.5393982 0 4.9747925 -1.0353088 6.7704163 -2.8782043c1.7956238 -1.842865 2.8043823 -4.342346 2.8043823 -6.9485474l0 0c0 -5.427185 -4.2867737 -9.826782 -9.574799 -9.826782l0 0c-5.2880096 0 -9.574799 4.399597 -9.574799 9.826782z" fill-rule="evenodd"/><path stroke="#000000" stroke-width="4.0" stroke-linejoin="round" stroke-linecap="butt" d="m131.39032 345.29834l0 0c0 5.4271545 4.286789 9.826752 9.574799 9.826752l0 0c2.5393982 0 4.9747925 -1.0353088 6.7704163 -2.8782043c1.7956238 -1.842865 2.8043823 -4.342346 2.8043823 -6.9485474l0 0c0 -5.427185 -4.2867737 -9.826782 -9.574799 -9.826782l0 0c-5.2880096 0 -9.574799 4.399597 -9.574799 9.826782z" fill-rule="evenodd"/><path fill="#000000" d="m45.55535 351.62158l0 0c0 -5.427185 -4.286785 -9.826782 -9.574802 -9.826782l0 0c-2.5393944 0 -4.974785 1.0353088 -6.7704086 2.8782043c-1.7956238 1.842865 -2.8043957 4.342346 -2.8043957 6.948578l0 0c0 5.4271545 4.286787 9.826752 9.574804 9.826752l0 0c5.2880173 0 9.574802 -4.399597 9.574802 -9.826752z" fill-rule="evenodd"/><path stroke="#000000" stroke-width="4.0" stroke-linejoin="round" stroke-linecap="butt" d="m45.55535 351.62158l0 0c0 -5.427185 -4.286785 -9.826782 -9.574802 -9.826782l0 0c-2.5393944 0 -4.974785 1.0353088 -6.7704086 2.8782043c-1.7956238 1.842865 -2.8043957 4.342346 -2.8043957 6.948578l0 0c0 5.4271545 4.286787 9.826752 9.574804 9.826752l0 0c5.2880173 0 9.574802 -4.399597 9.574802 -9.826752z" fill-rule="evenodd"/><path fill="#000000" fill-opacity="0.0" d="m98.37601 228.34055l46.173843 20.818588" fill-rule="evenodd"/><path stroke="#0000ff" stroke-width="4.0" stroke-linejoin="round" stroke-linecap="butt" d="m120.25496 238.2052l24.294891 10.953934" fill-rule="evenodd"/><path fill="#0000ff" stroke="#0000ff" stroke-width="4.0" stroke-linecap="butt" d="m122.97059 232.18217l-19.263771 -1.4380951l13.832512 13.484161z" fill-rule="evenodd"/><path fill="#000000" fill-opacity="0.0" d="m95.42951 230.86542l0 49.737488" fill-rule="evenodd"/><path stroke="#0000ff" stroke-width="4.0" stroke-linejoin="round" stroke-linecap="butt" d="m95.42951 254.86542l0 25.737488" fill-rule="evenodd"/><path fill="#0000ff" stroke="#0000ff" stroke-width="4.0" stroke-linecap="butt" d="m102.036446 254.86542l-6.6069336 -18.15239l-6.606926 18.15239z" fill-rule="evenodd"/><path fill="#000000" fill-opacity="0.0" d="m92.495995 228.34055l-46.173847 20.818588" fill-rule="evenodd"/><path stroke="#0000ff" stroke-width="4.0" stroke-linejoin="round" stroke-linecap="butt" d="m70.61704 238.2052l-24.294895 10.953934" fill-rule="evenodd"/><path fill="#0000ff" stroke="#0000ff" stroke-width="4.0" stroke-linecap="butt" d="m73.332664 244.22824l13.832512 -13.484161l-19.263763 1.4380951z" fill-rule="evenodd"/><path fill="#0000ff" d="m92.094444 227.49736l0 0c0 -1.8396454 1.4718475 -3.3309784 3.2874603 -3.3309784l0 0c0.8718872 0 1.7080612 0.35095215 2.324585 0.9756317c0.6165161 0.62467957 0.96286774 1.4719238 0.96286774 2.3553467l0 0c0 1.8396454 -1.4718399 3.3309784 -3.2874527 3.3309784l0 0c-1.8156128 0 -3.2874603 -1.491333 -3.2874603 -3.3309784z" fill-rule="evenodd"/><path stroke="#0000ff" stroke-width="4.0" stroke-linejoin="round" stroke-linecap="butt" d="m92.094444 227.49736l0 0c0 -1.8396454 1.4718475 -3.3309784 3.2874603 -3.3309784l0 0c0.8718872 0 1.7080612 0.35095215 2.324585 0.9756317c0.6165161 0.62467957 0.96286774 1.4719238 0.96286774 2.3553467l0 0c0 1.8396454 -1.4718399 3.3309784 -3.2874527 3.3309784l0 0c-1.8156128 0 -3.2874603 -1.491333 -3.2874603 -3.3309784z" fill-rule="evenodd"/><path fill="#000000" fill-opacity="0.0" d="m-46.6943 41.174683l-47.54331 82.80315l-47.543304 -82.80315z" fill-rule="evenodd"/><path stroke="#000000" stroke-width="16.0" stroke-linejoin="round" stroke-linecap="butt" d="m-46.6943 41.174683l-47.54331 82.80315l-47.543304 -82.80315z" fill-rule="evenodd"/><path fill="#ffffff" d="m96.353485 -131.75386c-6.1441956 4.5554123 -14.739853 3.7177734 -19.888954 -1.9381714c-5.1491013 -5.6559296 -5.1784363 -14.292267 -0.06787872 -19.983047c5.1105576 -5.690796 13.700325 -6.5868073 19.875328 -2.0732422z" fill-rule="evenodd"/><path stroke="#000000" stroke-width="3.0" stroke-linejoin="round" stroke-linecap="butt" d="m96.353485 -131.75386c-6.1441956 4.5554123 -14.739853 3.7177734 -19.888954 -1.9381714c-5.1491013 -5.6559296 -5.1784363 -14.292267 -0.06787872 -19.983047c5.1105576 -5.690796 13.700325 -6.5868073 19.875328 -2.0732422z" fill-rule="evenodd"/><path fill="#ffffff" d="m96.67958 -131.75386c6.1441956 4.5554123 14.739853 3.7177734 19.888954 -1.9381714c5.1491013 -5.6559296 5.1784363 -14.292267 0.06787872 -19.983047c-5.1105576 -5.690796 -13.700325 -6.5868073 -19.875328 -2.0732422z" fill-rule="evenodd"/><path stroke="#000000" stroke-width="3.0" stroke-linejoin="round" stroke-linecap="butt" d="m96.67958 -131.75386c6.1441956 4.5554123 14.739853 3.7177734 19.888954 -1.9381714c5.1491013 -5.6559296 5.1784363 -14.292267 0.06787872 -19.983047c-5.1105576 -5.690796 -13.700325 -6.5868073 -19.875328 -2.0732422z" fill-rule="evenodd"/><path fill="#cfe2f3" d="m196.94612 -142.29211l20.988953 -4.5071106l4.5071106 -20.988953l4.5071106 20.988953l20.988953 4.5071106l-20.988953 4.5071106l-4.5071106 20.988953l-4.5071106 -20.988953z" fill-rule="evenodd"/><path stroke="#000000" stroke-width="1.0" stroke-linejoin="round" stroke-linecap="butt" d="m196.94612 -142.29211l20.988953 -4.5071106l4.5071106 -20.988953l4.5071106 20.988953l20.988953 4.5071106l-20.988953 4.5071106l-4.5071106 20.988953l-4.5071106 -20.988953z" fill-rule="evenodd"/><path fill="#000000" fill-opacity="0.0" d="m22.992723 -144.65715l44.72441 0" fill-rule="evenodd"/><path stroke="#0000ff" stroke-width="4.0" stroke-linejoin="round" stroke-linecap="butt" d="m22.992723 -144.65714l20.724405 0" fill-rule="evenodd"/><path fill="#0000ff" stroke="#0000ff" stroke-width="4.0" stroke-linecap="butt" d="m43.717133 -138.05022l18.15239 -6.6069183l-18.15239 -6.6069336z" fill-rule="evenodd"/><path fill="#000000" fill-opacity="0.0" d="m169.5056 -144.65715l-44.72441 0" fill-rule="evenodd"/><path stroke="#0000ff" stroke-width="4.0" stroke-linejoin="round" stroke-linecap="butt" d="m169.5056 -144.65714l-20.724411 0" fill-rule="evenodd"/><path fill="#0000ff" stroke="#0000ff" stroke-width="4.0" stroke-linecap="butt" d="m148.78119 -151.26407l-18.15239 6.6069336l18.15239 6.6069183z" fill-rule="evenodd"/><path fill="#000000" fill-opacity="0.0" d="m-185.00728 -141.73283l44.72441 0" fill-rule="evenodd"/><path stroke="#0000ff" stroke-width="4.0" stroke-linejoin="round" stroke-linecap="butt" d="m-161.00728 -141.73283l20.724411 0" fill-rule="evenodd"/><path fill="#0000ff" stroke="#0000ff" stroke-width="4.0" stroke-linecap="butt" d="m-161.00728 -148.33975l-18.15239 6.6069183l18.15239 6.6069336z" fill-rule="evenodd"/><path fill="#000000" fill-opacity="0.0" d="m-22.494406 -141.73283l-44.724403 0" fill-rule="evenodd"/><path stroke="#0000ff" stroke-width="4.0" stroke-linejoin="round" stroke-linecap="butt" d="m-46.494404 -141.73283l-20.724415 0" fill-rule="evenodd"/><path fill="#0000ff" stroke="#0000ff" stroke-width="4.0" stroke-linecap="butt" d="m-46.494404 -135.1259l18.15239 -6.6069336l-18.15239 -6.6069183z" fill-rule="evenodd"/><path fill="#ffffff" d="m-127.646515 -128.82954c-6.1441956 4.5554123 -14.739853 3.7177658 -19.888962 -1.9381714c-5.1490936 -5.6559296 -5.1784363 -14.292267 -0.067871094 -19.983047c5.11055 -5.690796 13.700333 -6.5868073 19.875328 -2.0732422z" fill-rule="evenodd"/><path stroke="#000000" stroke-width="3.0" stroke-linejoin="round" stroke-linecap="butt" d="m-127.646515 -128.82954c-6.1441956 4.5554123 -14.739853 3.7177658 -19.888962 -1.9381714c-5.1490936 -5.6559296 -5.1784363 -14.292267 -0.067871094 -19.983047c5.11055 -5.690796 13.700333 -6.5868073 19.875328 -2.0732422z" fill-rule="evenodd"/><path fill="#ffffff" d="m-79.32042 -128.82954c6.1441956 4.5554123 14.739853 3.7177658 19.888954 -1.9381714c5.1491013 -5.6559296 5.1784363 -14.292267 0.06787872 -19.983047c-5.1105576 -5.690796 -13.700325 -6.5868073 -19.875328 -2.0732422z" fill-rule="evenodd"/><path stroke="#000000" stroke-width="3.0" stroke-linejoin="round" stroke-linecap="butt" d="m-79.32042 -128.82954c6.1441956 4.5554123 14.739853 3.7177658 19.888954 -1.9381714c5.1491013 -5.6559296 5.1784363 -14.292267 0.06787872 -19.983047c-5.1105576 -5.690796 -13.700325 -6.5868073 -19.875328 -2.0732422z" fill-rule="evenodd"/><path fill="#000000" fill-opacity="0.0" d="m-127.38449 -152.824l0.09449005 24.0" fill-rule="evenodd"/><path stroke="#ffffff" stroke-width="4.0" stroke-linejoin="round" stroke-linecap="butt" d="m-127.38449 -152.824l0.09449005 24.0" fill-rule="evenodd"/><path fill="#000000" fill-opacity="0.0" d="m-79.410675 -152.824l-0.09449005 24.0" fill-rule="evenodd"/><path stroke="#ffffff" stroke-width="4.0" stroke-linejoin="round" stroke-linecap="butt" d="m-79.410675 -152.824l-0.09449005 24.0" fill-rule="evenodd"/><path fill="#000000" fill-opacity="0.0" d="m-128.97252 -153.58345c4.224411 2.01268 16.820213 12.101486 25.346458 12.076111c8.526245 -0.025360107 21.509186 -10.190277 25.811028 -12.228348" fill-rule="evenodd"/><path stroke="#000000" stroke-width="3.0" stroke-linejoin="round" stroke-linecap="butt" d="m-128.97252 -153.58345c4.224411 2.01268 16.820213 12.101486 25.346458 12.076111c8.526245 -0.025360107 21.509186 -10.190277 25.811028 -12.228348" fill-rule="evenodd"/><path fill="#000000" fill-opacity="0.0" d="m-128.88853 -128.02966c4.1688614 -1.5380554 16.514008 -9.240158 25.01313 -9.228348c8.499123 0.0118255615 21.65136 7.749344 25.981628 9.299217" fill-rule="evenodd"/><path stroke="#000000" stroke-width="3.0" stroke-linejoin="round" stroke-linecap="butt" d="m-128.88853 -128.02966c4.1688614 -1.5380554 16.514008 -9.240158 25.01313 -9.228348c8.499123 0.0118255615 21.65136 7.749344 25.981628 9.299217" fill-rule="evenodd"/><path fill="#ffffff" d="m-103.646515 -227.75386c-6.1441956 4.5554047 -14.739853 3.7177734 -19.888954 -1.9381714c-5.1491013 -5.6559296 -5.178444 -14.292267 -0.06787872 -19.983047c5.1105576 -5.690796 13.700325 -6.5868225 19.875328 -2.0732422z" fill-rule="evenodd"/><path stroke="#000000" stroke-width="3.0" stroke-linejoin="round" stroke-linecap="butt" d="m-103.646515 -227.75386c-6.1441956 4.5554047 -14.739853 3.7177734 -19.888954 -1.9381714c-5.1491013 -5.6559296 -5.178444 -14.292267 -0.06787872 -19.983047c5.1105576 -5.690796 13.700325 -6.5868225 19.875328 -2.0732422z" fill-rule="evenodd"/><path fill="#ffffff" d="m-103.32042 -227.75386c6.1441956 4.5554047 14.739853 3.7177734 19.888954 -1.9381714c5.1491013 -5.6559296 5.1784363 -14.292267 0.06787872 -19.983047c-5.1105576 -5.690796 -13.700325 -6.5868225 -19.875328 -2.0732422z" fill-rule="evenodd"/><path stroke="#000000" stroke-width="3.0" stroke-linejoin="round" stroke-linecap="butt" d="m-103.32042 -227.75386c6.1441956 4.5554047 14.739853 3.7177734 19.888954 -1.9381714c5.1491013 -5.6559296 5.1784363 -14.292267 0.06787872 -19.983047c-5.1105576 -5.690796 -13.700325 -6.5868225 -19.875328 -2.0732422z" fill-rule="evenodd"/><path fill="#000000" fill-opacity="0.0" d="m-177.00728 -240.65715l44.72441 0" fill-rule="evenodd"/><path stroke="#0000ff" stroke-width="4.0" stroke-linejoin="round" stroke-linecap="butt" d="m-177.00728 -240.65715l20.724411 0" fill-rule="evenodd"/><path fill="#0000ff" stroke="#0000ff" stroke-width="4.0" stroke-linecap="butt" d="m-156.28287 -234.05022l18.15239 -6.6069336l-18.15239 -6.6069336z" fill-rule="evenodd"/><path fill="#000000" fill-opacity="0.0" d="m-30.494406 -240.65715l-44.724403 0" fill-rule="evenodd"/><path stroke="#0000ff" stroke-width="4.0" stroke-linejoin="round" stroke-linecap="butt" d="m-30.494404 -240.65715l-20.724411 0" fill-rule="evenodd"/><path fill="#0000ff" stroke="#0000ff" stroke-width="4.0" stroke-linecap="butt" d="m-51.21882 -247.26408l-18.15239 6.6069336l18.15239 6.6069336z" fill-rule="evenodd"/><path fill="#ffffff" d="m-109.234985 -250.89644l12.692917 0l0 22.330704l-12.692917 0z" fill-rule="evenodd"/><path fill="#ffffff" d="m-103.646515 -283.75388c-6.1441956 4.55542 -14.739853 3.7177734 -19.888954 -1.9381409c-5.1491013 -5.655945 -5.178444 -14.292267 -0.06787872 -19.983063c5.1105576 -5.690796 13.700325 -6.5868225 19.875328 -2.0732422z" fill-rule="evenodd"/><path stroke="#000000" stroke-width="3.0" stroke-linejoin="round" stroke-linecap="butt" d="m-103.646515 -283.75388c-6.1441956 4.55542 -14.739853 3.7177734 -19.888954 -1.9381409c-5.1491013 -5.655945 -5.178444 -14.292267 -0.06787872 -19.983063c5.1105576 -5.690796 13.700325 -6.5868225 19.875328 -2.0732422z" fill-rule="evenodd"/><path fill="#ffffff" d="m-103.32042 -283.75388c6.1441956 4.55542 14.739853 3.7177734 19.888954 -1.9381409c5.1491013 -5.655945 5.1784363 -14.292267 0.06787872 -19.983063c-5.1105576 -5.690796 -13.700325 -6.5868225 -19.875328 -2.0732422z" fill-rule="evenodd"/><path stroke="#000000" stroke-width="3.0" stroke-linejoin="round" stroke-linecap="butt" d="m-103.32042 -283.75388c6.1441956 4.55542 14.739853 3.7177734 19.888954 -1.9381409c5.1491013 -5.655945 5.1784363 -14.292267 0.06787872 -19.983063c-5.1105576 -5.690796 -13.700325 -6.5868225 -19.875328 -2.0732422z" fill-rule="evenodd"/><path fill="#000000" fill-opacity="0.0" d="m-177.00728 -296.65714l44.72441 0" fill-rule="evenodd"/><path stroke="#0000ff" stroke-width="4.0" stroke-linejoin="round" stroke-linecap="butt" d="m-177.00728 -296.65717l20.724411 0" fill-rule="evenodd"/><path fill="#0000ff" stroke="#0000ff" stroke-width="4.0" stroke-linecap="butt" d="m-156.28287 -290.05023l18.15239 -6.6069336l-18.15239 -6.606903z" fill-rule="evenodd"/><path fill="#000000" fill-opacity="0.0" d="m-30.494406 -296.65714l-44.724403 0" fill-rule="evenodd"/><path stroke="#0000ff" stroke-width="4.0" stroke-linejoin="round" stroke-linecap="butt" d="m-30.494404 -296.65717l-20.724411 0" fill-rule="evenodd"/><path fill="#0000ff" stroke="#0000ff" stroke-width="4.0" stroke-linecap="butt" d="m-51.21882 -303.26407l-18.15239 6.606903l18.15239 6.6069336z" fill-rule="evenodd"/><path fill="#ffffff" d="m97.38029 -285.4011l0 0c-6.1980057 6.1141357 -16.172646 6.0671387 -22.312744 -0.105163574c-6.1400986 -6.1723022 -6.1349335 -16.147034 0.011550903 -22.312988c6.146492 -6.165924 16.121178 -6.202606 22.312843 -0.08203125z" fill-rule="evenodd"/><path stroke="#000000" stroke-width="3.0" stroke-linejoin="round" stroke-linecap="butt" d="m97.38029 -285.4011l0 0c-6.1980057 6.1141357 -16.172646 6.0671387 -22.312744 -0.105163574c-6.1400986 -6.1723022 -6.1349335 -16.147034 0.011550903 -22.312988c6.146492 -6.165924 16.121178 -6.202606 22.312843 -0.08203125z" fill-rule="evenodd"/><path fill="#000000" fill-opacity="0.0" d="m17.835545 -297.65036l47.466015 0" fill-rule="evenodd"/><path stroke="#0000ff" stroke-width="4.0" stroke-linejoin="round" stroke-linecap="butt" d="m17.835545 -297.65036l23.466015 0" fill-rule="evenodd"/><path fill="#0000ff" stroke="#0000ff" stroke-width="4.0" stroke-linecap="butt" d="m41.301563 -291.04343l18.15239 -6.6069336l-18.15239 -6.6069336z" fill-rule="evenodd"/><path fill="#000000" fill-opacity="0.0" d="m173.32965 -297.65036l-47.46601 0" fill-rule="evenodd"/><path stroke="#0000ff" stroke-width="4.0" stroke-linejoin="round" stroke-linecap="butt" d="m173.32967 -297.65036l-23.466019 0" fill-rule="evenodd"/><path fill="#0000ff" stroke="#0000ff" stroke-width="4.0" stroke-linecap="butt" d="m149.86363 -304.2573l-18.15239 6.6069336l18.15239 6.6069336z" fill-rule="evenodd"/><path fill="#ffffff" d="m97.72911 -285.4011l0 0c6.1980057 6.1141357 16.172646 6.0671387 22.312744 -0.105163574c6.1400986 -6.1723022 6.1349335 -16.147034 -0.011550903 -22.312988c-6.146492 -6.165924 -16.121178 -6.202606 -22.312843 -0.08203125z" fill-rule="evenodd"/><path stroke="#000000" stroke-width="3.0" stroke-linejoin="round" stroke-linecap="butt" d="m97.72911 -285.4011l0 0c6.1980057 6.1141357 16.172646 6.0671387 22.312744 -0.105163574c6.1400986 -6.1723022 6.1349335 -16.147034 -0.011550903 -22.312988c-6.146492 -6.165924 -16.121178 -6.202606 -22.312843 -0.08203125z" fill-rule="evenodd"/><path fill="#ffffff" d="m90.547806 -307.04587l13.470993 0l0 20.858307l-13.470993 0z" fill-rule="evenodd"/><path fill="#ffffff" d="m-100.7329 218.85716c-10.346405 7.6710052 -24.820915 6.2604675 -33.491646 -3.2637482c-8.670746 -9.5242 -8.720139 -24.0672 -0.11430359 -33.6501c8.605827 -9.582901 23.07042 -11.091736 33.468697 -3.4911957z" fill-rule="evenodd"/><path stroke="#000000" stroke-width="3.0" stroke-linejoin="round" stroke-linecap="butt" d="m-100.7329 218.85716c-10.346405 7.6710052 -24.820915 6.2604675 -33.491646 -3.2637482c-8.670746 -9.5242 -8.720139 -24.0672 -0.11430359 -33.6501c8.605827 -9.582901 23.07042 -11.091736 33.468697 -3.4911957z" fill-rule="evenodd"/><path fill="#000000" d="m-100.189804 218.85716c10.346405 7.6710052 24.820915 6.2604675 33.491653 -3.2637482c8.670734 -9.5242 8.720135 -24.0672 0.11430359 -33.6501c-8.605835 -9.582901 -23.070427 -11.091736 -33.468704 -3.4911957z" fill-rule="evenodd"/><path stroke="#000000" stroke-width="3.0" stroke-linejoin="round" stroke-linecap="butt" d="m-100.189804 218.85716c10.346405 7.6710052 24.820915 6.2604675 33.491653 -3.2637482c8.670734 -9.5242 8.720135 -24.0672 0.11430359 -33.6501c-8.605835 -9.582901 -23.070427 -11.091736 -33.468704 -3.4911957z" fill-rule="evenodd"/><path fill="#9fc5e8" d="m-85.586174 -72.00483l20.171967 -14.72892l-6.2919464 23.841553l19.433502 -7.3220825l-10.92915 12.364784l25.666843 5.794388l-25.15678 6.801193l4.7135353 9.190342l-10.20845 2.3300247l9.458443 16.41136l-19.806519 -9.671158l-1.1148682 12.912681l-12.394371 -8.805705l-5.311432 11.553919l-7.3181686 -7.9180164l-7.805153 8.579859l-4.420418 -7.8198376l-15.880157 11.842415l2.3459778 -14.138016l-17.01561 -5.321398l12.211502 -8.161308l-14.28508 -13.80072l20.530563 -1.350811l-10.771347 -16.682598l21.120743 2.3919678l-0.67749023 -18.3835l17.60115 15.63472l9.662605 -17.565948z" fill-rule="evenodd"/><path stroke="#000000" stroke-width="1.0" stroke-linejoin="round" stroke-linecap="butt" d="m-85.586174 -72.00483l20.171967 -14.72892l-6.2919464 23.841553l19.433502 -7.3220825l-10.92915 12.364784l25.666843 5.794388l-25.15678 6.801193l4.7135353 9.190342l-10.20845 2.3300247l9.458443 16.41136l-19.806519 -9.671158l-1.1148682 12.912681l-12.394371 -8.805705l-5.311432 11.553919l-7.3181686 -7.9180164l-7.805153 8.579859l-4.420418 -7.8198376l-15.880157 11.842415l2.3459778 -14.138016l-17.01561 -5.321398l12.211502 -8.161308l-14.28508 -13.80072l20.530563 -1.350811l-10.771347 -16.682598l21.120743 2.3919678l-0.67749023 -18.3835l17.60115 15.63472l9.662605 -17.565948z" fill-rule="evenodd"/></g></svg>