<?xml version="1.0" encoding="UTF-8"?>
<!DOCTYPE svg PUBLIC "-//W3C//DTD SVG 1.1//EN" "http://www.w3.org/Graphics/SVG/1.1/DTD/svg11.dtd">
<svg version="1.2" width="29.96mm" height="29.96mm" viewBox="17019 9165 2996 2996" preserveAspectRatio="xMidYMid" fill-rule="evenodd" stroke-width="28.222" stroke-linejoin="round" xmlns="http://www.w3.org/2000/svg" xmlns:ooo="http://xml.openoffice.org/svg/export" xmlns:xlink="http://www.w3.org/1999/xlink" xmlns:presentation="http://sun.com/xmlns/staroffice/presentation" xmlns:smil="http://www.w3.org/2001/SMIL20/" xmlns:anim="urn:oasis:names:tc:opendocument:xmlns:animation:1.0" xml:space="preserve">
 <defs class="EmbeddedBulletChars">
  <g id="bullet-char-template-57356" transform="scale(0.00048828125,-0.00048828125)">
   <path d="M 580,1141 L 1163,571 580,0 -4,571 580,1141 Z"/>
  </g>
  <g id="bullet-char-template-57354" transform="scale(0.00048828125,-0.00048828125)">
   <path d="M 8,1128 L 1137,1128 1137,0 8,0 8,1128 Z"/>
  </g>
  <g id="bullet-char-template-10146" transform="scale(0.00048828125,-0.00048828125)">
   <path d="M 174,0 L 602,739 174,1481 1456,739 174,0 Z M 1358,739 L 309,1346 659,739 1358,739 Z"/>
  </g>
  <g id="bullet-char-template-10132" transform="scale(0.00048828125,-0.00048828125)">
   <path d="M 2015,739 L 1276,0 717,0 1260,543 174,543 174,936 1260,936 717,1481 1274,1481 2015,739 Z"/>
  </g>
  <g id="bullet-char-template-10007" transform="scale(0.00048828125,-0.00048828125)">
   <path d="M 0,-2 C -7,14 -16,27 -25,37 L 356,567 C 262,823 215,952 215,954 215,979 228,992 255,992 264,992 276,990 289,987 310,991 331,999 354,1012 L 381,999 492,748 772,1049 836,1024 860,1049 C 881,1039 901,1025 922,1006 886,937 835,863 770,784 769,783 710,716 594,584 L 774,223 C 774,196 753,168 711,139 L 727,119 C 717,90 699,76 672,76 641,76 570,178 457,381 L 164,-76 C 142,-110 111,-127 72,-127 30,-127 9,-110 8,-76 1,-67 -2,-52 -2,-32 -2,-23 -1,-13 0,-2 Z"/>
  </g>
  <g id="bullet-char-template-10004" transform="scale(0.00048828125,-0.00048828125)">
   <path d="M 285,-33 C 182,-33 111,30 74,156 52,228 41,333 41,471 41,549 55,616 82,672 116,743 169,778 240,778 293,778 328,747 346,684 L 369,508 C 377,444 397,411 428,410 L 1163,1116 C 1174,1127 1196,1133 1229,1133 1271,1133 1292,1118 1292,1087 L 1292,965 C 1292,929 1282,901 1262,881 L 442,47 C 390,-6 338,-33 285,-33 Z"/>
  </g>
  <g id="bullet-char-template-9679" transform="scale(0.00048828125,-0.00048828125)">
   <path d="M 813,0 C 632,0 489,54 383,161 276,268 223,411 223,592 223,773 276,916 383,1023 489,1130 632,1184 813,1184 992,1184 1136,1130 1245,1023 1353,916 1407,772 1407,592 1407,412 1353,268 1245,161 1136,54 992,0 813,0 Z"/>
  </g>
  <g id="bullet-char-template-8226" transform="scale(0.00048828125,-0.00048828125)">
   <path d="M 346,457 C 273,457 209,483 155,535 101,586 74,649 74,723 74,796 101,859 155,911 209,963 273,989 346,989 419,989 480,963 531,910 582,859 608,796 608,723 608,648 583,586 532,535 482,483 420,457 346,457 Z"/>
  </g>
  <g id="bullet-char-template-8211" transform="scale(0.00048828125,-0.00048828125)">
   <path d="M -4,459 L 1135,459 1135,606 -4,606 -4,459 Z"/>
  </g>
  <g id="bullet-char-template-61548" transform="scale(0.00048828125,-0.00048828125)">
   <path d="M 173,740 C 173,903 231,1043 346,1159 462,1274 601,1332 765,1332 928,1332 1067,1274 1183,1159 1299,1043 1357,903 1357,740 1357,577 1299,437 1183,322 1067,206 928,148 765,148 601,148 462,206 346,322 231,437 173,577 173,740 Z"/>
  </g>
 </defs>
 <g class="Page">
  <g class="com.sun.star.drawing.CustomShape">
   <g id="id3">
    <rect class="BoundingBox" stroke="none" fill="none" x="17019" y="9165" width="2996" height="2996"/>
    <path fill="rgb(255,255,255)" stroke="none" d="M 17518,9165 L 17518,9165 C 17431,9165 17344,9188 17269,9232 17193,9276 17130,9339 17086,9415 17042,9490 17019,9577 17019,9664 L 17019,11660 17019,11661 C 17019,11748 17042,11835 17086,11910 17130,11986 17193,12049 17269,12093 17344,12137 17431,12160 17518,12160 L 19514,12159 19515,12160 C 19602,12160 19689,12137 19764,12093 19840,12049 19903,11986 19947,11910 19991,11835 20014,11748 20014,11661 L 20013,9664 20014,9664 20014,9664 C 20014,9577 19991,9490 19947,9415 19903,9339 19840,9276 19764,9232 19689,9188 19602,9165 19515,9165 L 17518,9165 Z"/>
   </g>
  </g>
  <g class="Group">
   <g class="Group">
    <g class="com.sun.star.drawing.ClosedBezierShape">
     <g id="id4">
      <rect class="BoundingBox" stroke="none" fill="none" x="17803" y="10168" width="1428" height="991"/>
      <path fill="rgb(238,238,238)" stroke="none" d="M 18070,10174 C 18077,10170 18084,10168 18092,10168 18092,10168 18092,10168 18092,10168 L 18946,10171 C 18954,10172 18961,10174 18968,10177 18969,10178 18969,10178 18970,10179 19007,10203 19042,10232 19073,10264 19104,10296 19131,10332 19153,10371 L 19153,10371 C 19153,10371 19153,10371 19153,10371 19153,10371 19153,10371 19153,10371 L 19153,10371 C 19178,10414 19197,10461 19210,10508 19222,10556 19229,10606 19229,10656 19229,10705 19222,10755 19210,10802 19197,10850 19178,10896 19153,10939 19128,10983 19097,11022 19062,11057 19028,11091 18989,11121 18946,11146 18941,11150 18935,11153 18929,11155 18925,11156 18920,11157 18916,11157 18916,11157 18916,11157 18915,11157 L 18132,11154 C 18127,11156 18122,11157 18117,11157 18109,11157 18102,11155 18096,11152 18093,11151 18091,11150 18089,11149 18086,11147 18084,11146 18082,11144 18041,11120 18003,11090 17970,11057 17935,11022 17904,10982 17879,10939 17854,10896 17835,10850 17822,10802 17810,10754 17803,10705 17803,10655 17803,10605 17810,10556 17822,10508 17835,10460 17854,10414 17879,10371 17902,10332 17929,10296 17959,10264 17990,10232 18025,10203 18062,10178 18063,10178 18064,10178 18064,10177 18065,10177 18067,10176 18068,10175 18069,10175 18069,10174 18070,10174 Z"/>
     </g>
    </g>
    <g class="com.sun.star.drawing.EllipseShape">
     <g id="id5">
      <rect class="BoundingBox" stroke="none" fill="none" x="18882" y="10150" width="381" height="1030"/>
      <path fill="none" stroke="rgb(0,0,0)" stroke-width="100" stroke-linejoin="round" stroke-linecap="round" d="M 18965,10200 C 19037,10247 19096,10310 19139,10384 19187,10466 19212,10559 19212,10655 19212,10750 19187,10843 19139,10925 19092,11008 19023,11076 18941,11123 18938,11125 18935,11127 18933,11128"/>
     </g>
    </g>
    <g class="com.sun.star.drawing.EllipseShape">
     <g id="id6">
      <rect class="BoundingBox" stroke="none" fill="none" x="17779" y="10150" width="381" height="1030"/>
      <path fill="none" stroke="rgb(0,0,0)" stroke-width="100" stroke-linejoin="round" stroke-linecap="round" d="M 18108,11128 C 18106,11127 18103,11125 18100,11123 18018,11076 17949,11008 17902,10925 17854,10843 17829,10750 17829,10655 17829,10559 17854,10466 17902,10384 17945,10310 18004,10247 18076,10200"/>
     </g>
    </g>
   </g>
   <g class="Group">
    <g class="com.sun.star.drawing.CustomShape">
     <g id="id7">
      <rect class="BoundingBox" stroke="none" fill="none" x="17898" y="10449" width="427" height="427"/>
      <path fill="rgb(153,153,153)" stroke="none" d="M 18324,10662 C 18324,10699 18314,10736 18295,10769 18277,10801 18250,10828 18218,10846 18185,10865 18148,10875 18111,10875 18074,10875 18037,10865 18005,10846 17972,10828 17945,10801 17927,10769 17908,10736 17898,10699 17898,10662 17898,10625 17908,10588 17927,10556 17945,10523 17972,10496 18005,10478 18037,10459 18074,10449 18111,10449 18148,10449 18185,10459 18218,10478 18250,10496 18277,10523 18295,10556 18314,10588 18324,10625 18324,10662 L 18324,10662 Z"/>
     </g>
    </g>
    <g class="com.sun.star.drawing.CustomShape">
     <g id="id8">
      <rect class="BoundingBox" stroke="none" fill="none" x="18708" y="10449" width="427" height="427"/>
      <path fill="rgb(153,153,153)" stroke="none" d="M 19134,10662 C 19134,10699 19124,10736 19105,10769 19087,10801 19060,10828 19028,10846 18995,10865 18958,10875 18921,10875 18884,10875 18847,10865 18815,10846 18782,10828 18755,10801 18737,10769 18718,10736 18708,10699 18708,10662 18708,10625 18718,10588 18737,10556 18755,10523 18782,10496 18815,10478 18847,10459 18884,10449 18921,10449 18958,10449 18995,10459 19028,10478 19060,10496 19087,10523 19105,10556 19124,10588 19134,10625 19134,10662 L 19134,10662 Z"/>
     </g>
    </g>
   </g>
  </g>
  <g class="Group">
   <g class="com.sun.star.drawing.CustomShape">
    <g id="id9">
     <rect class="BoundingBox" stroke="none" fill="none" x="19403" y="10449" width="427" height="427"/>
     <path fill="rgb(153,153,153)" stroke="none" d="M 19829,10662 C 19829,10699 19819,10736 19801,10769 19782,10801 19755,10828 19723,10846 19690,10865 19654,10875 19616,10875 19579,10875 19543,10865 19510,10846 19478,10828 19451,10801 19432,10769 19414,10736 19404,10699 19404,10662 19404,10625 19414,10588 19432,10556 19451,10523 19478,10496 19510,10478 19543,10459 19579,10449 19616,10449 19654,10449 19690,10459 19723,10478 19755,10496 19782,10523 19801,10556 19819,10588 19829,10625 19829,10662 L 19829,10662 Z"/>
    </g>
   </g>
   <g class="com.sun.star.drawing.CustomShape">
    <g id="id10">
     <rect class="BoundingBox" stroke="none" fill="none" x="17205" y="10449" width="426" height="427"/>
     <path fill="rgb(153,153,153)" stroke="none" d="M 17630,10662 C 17630,10699 17620,10736 17602,10769 17583,10801 17556,10828 17524,10846 17491,10865 17455,10875 17417,10875 17380,10875 17344,10865 17311,10846 17279,10828 17252,10801 17233,10769 17215,10736 17205,10699 17205,10662 17205,10625 17215,10588 17233,10556 17252,10523 17279,10496 17311,10478 17344,10459 17380,10449 17417,10449 17455,10449 17491,10459 17524,10478 17556,10496 17583,10523 17602,10556 17620,10588 17630,10625 17630,10662 L 17630,10662 Z"/>
    </g>
   </g>
  </g>
 </g>
</svg>