<?xml version="1.0" encoding="UTF-8"?>
<!DOCTYPE svg PUBLIC "-//W3C//DTD SVG 1.1//EN" "http://www.w3.org/Graphics/SVG/1.1/DTD/svg11.dtd">
<svg version="1.2" width="29.96mm" height="29.96mm" viewBox="8360 13019 2996 2996" preserveAspectRatio="xMidYMid" fill-rule="evenodd" stroke-width="28.222" stroke-linejoin="round" xmlns="http://www.w3.org/2000/svg" xmlns:ooo="http://xml.openoffice.org/svg/export" xmlns:xlink="http://www.w3.org/1999/xlink" xmlns:presentation="http://sun.com/xmlns/staroffice/presentation" xmlns:smil="http://www.w3.org/2001/SMIL20/" xmlns:anim="urn:oasis:names:tc:opendocument:xmlns:animation:1.0" xml:space="preserve">
 <defs class="EmbeddedBulletChars">
  <g id="bullet-char-template-57356" transform="scale(0.00048828125,-0.00048828125)">
   <path d="M 580,1141 L 1163,571 580,0 -4,571 580,1141 Z"/>
  </g>
  <g id="bullet-char-template-57354" transform="scale(0.00048828125,-0.00048828125)">
   <path d="M 8,1128 L 1137,1128 1137,0 8,0 8,1128 Z"/>
  </g>
  <g id="bullet-char-template-10146" transform="scale(0.00048828125,-0.00048828125)">
   <path d="M 174,0 L 602,739 174,1481 1456,739 174,0 Z M 1358,739 L 309,1346 659,739 1358,739 Z"/>
  </g>
  <g id="bullet-char-template-10132" transform="scale(0.00048828125,-0.00048828125)">
   <path d="M 2015,739 L 1276,0 717,0 1260,543 174,543 174,936 1260,936 717,1481 1274,1481 2015,739 Z"/>
  </g>
  <g id="bullet-char-template-10007" transform="scale(0.00048828125,-0.00048828125)">
   <path d="M 0,-2 C -7,14 -16,27 -25,37 L 356,567 C 262,823 215,952 215,954 215,979 228,992 255,992 264,992 276,990 289,987 310,991 331,999 354,1012 L 381,999 492,748 772,1049 836,1024 860,1049 C 881,1039 901,1025 922,1006 886,937 835,863 770,784 769,783 710,716 594,584 L 774,223 C 774,196 753,168 711,139 L 727,119 C 717,90 699,76 672,76 641,76 570,178 457,381 L 164,-76 C 142,-110 111,-127 72,-127 30,-127 9,-110 8,-76 1,-67 -2,-52 -2,-32 -2,-23 -1,-13 0,-2 Z"/>
  </g>
  <g id="bullet-char-template-10004" transform="scale(0.00048828125,-0.00048828125)">
   <path d="M 285,-33 C 182,-33 111,30 74,156 52,228 41,333 41,471 41,549 55,616 82,672 116,743 169,778 240,778 293,778 328,747 346,684 L 369,508 C 377,444 397,411 428,410 L 1163,1116 C 1174,1127 1196,1133 1229,1133 1271,1133 1292,1118 1292,1087 L 1292,965 C 1292,929 1282,901 1262,881 L 442,47 C 390,-6 338,-33 285,-33 Z"/>
  </g>
  <g id="bullet-char-template-9679" transform="scale(0.00048828125,-0.00048828125)">
   <path d="M 813,0 C 632,0 489,54 383,161 276,268 223,411 223,592 223,773 276,916 383,1023 489,1130 632,1184 813,1184 992,1184 1136,1130 1245,1023 1353,916 1407,772 1407,592 1407,412 1353,268 1245,161 1136,54 992,0 813,0 Z"/>
  </g>
  <g id="bullet-char-template-8226" transform="scale(0.00048828125,-0.00048828125)">
   <path d="M 346,457 C 273,457 209,483 155,535 101,586 74,649 74,723 74,796 101,859 155,911 209,963 273,989 346,989 419,989 480,963 531,910 582,859 608,796 608,723 608,648 583,586 532,535 482,483 420,457 346,457 Z"/>
  </g>
  <g id="bullet-char-template-8211" transform="scale(0.00048828125,-0.00048828125)">
   <path d="M -4,459 L 1135,459 1135,606 -4,606 -4,459 Z"/>
  </g>
  <g id="bullet-char-template-61548" transform="scale(0.00048828125,-0.00048828125)">
   <path d="M 173,740 C 173,903 231,1043 346,1159 462,1274 601,1332 765,1332 928,1332 1067,1274 1183,1159 1299,1043 1357,903 1357,740 1357,577 1299,437 1183,322 1067,206 928,148 765,148 601,148 462,206 346,322 231,437 173,577 173,740 Z"/>
  </g>
 </defs>
 <g class="Page">
  <g class="com.sun.star.drawing.CustomShape">
   <g id="id3">
    <rect class="BoundingBox" stroke="none" fill="none" x="8360" y="13019" width="2996" height="2996"/>
    <path fill="rgb(255,255,255)" stroke="none" d="M 8859,13019 L 8859,13019 C 8772,13019 8685,13042 8610,13086 8534,13130 8471,13193 8427,13269 8383,13344 8360,13431 8360,13518 L 8360,15514 8360,15515 C 8360,15602 8383,15689 8427,15764 8471,15840 8534,15903 8610,15947 8685,15991 8772,16014 8859,16014 L 10855,16013 10856,16014 C 10943,16014 11030,15991 11105,15947 11181,15903 11244,15840 11288,15764 11332,15689 11355,15602 11355,15515 L 11354,13518 11355,13518 11355,13518 C 11355,13431 11332,13344 11288,13269 11244,13193 11181,13130 11105,13086 11030,13042 10943,13019 10856,13019 L 8859,13019 Z"/>
   </g>
  </g>
  <g class="com.sun.star.drawing.CustomShape">
   <g id="id4">
    <rect class="BoundingBox" stroke="none" fill="none" x="8585" y="14321" width="483" height="483"/>
    <path fill="rgb(204,204,204)" stroke="none" d="M 9067,14562 C 9067,14604 9056,14646 9035,14683 9014,14719 8983,14750 8947,14771 8910,14792 8868,14803 8826,14803 8784,14803 8742,14792 8706,14771 8669,14750 8638,14719 8617,14683 8596,14646 8585,14604 8585,14562 8585,14520 8596,14478 8617,14442 8638,14405 8669,14374 8706,14353 8742,14332 8784,14321 8826,14321 8868,14321 8910,14332 8947,14353 8983,14374 9014,14405 9035,14442 9056,14478 9067,14520 9067,14562 L 9067,14562 Z"/>
   </g>
  </g>
  <g class="com.sun.star.drawing.CustomShape">
   <g id="id5">
    <rect class="BoundingBox" stroke="none" fill="none" x="10541" y="14350" width="483" height="483"/>
    <path fill="rgb(102,102,102)" stroke="none" d="M 11023,14591 C 11023,14633 11012,14675 10991,14712 10970,14748 10939,14779 10903,14800 10866,14821 10824,14832 10782,14832 10740,14832 10698,14821 10662,14800 10625,14779 10594,14748 10573,14712 10552,14675 10541,14633 10541,14591 10541,14549 10552,14507 10573,14471 10594,14434 10625,14403 10662,14382 10698,14361 10740,14350 10782,14350 10824,14350 10866,14361 10903,14382 10939,14403 10970,14434 10991,14471 11012,14507 11023,14549 11023,14591 L 11023,14591 Z"/>
   </g>
  </g>
  <g class="com.sun.star.drawing.OpenBezierShape">
   <g id="id6">
    <rect class="BoundingBox" stroke="none" fill="none" x="9064" y="13945" width="1499" height="382"/>
    <path fill="none" stroke="rgb(0,0,0)" stroke-width="80" stroke-linejoin="round" d="M 9104,14204 C 9402,14063 9898,13986 10342,14145"/>
    <path fill="rgb(0,0,0)" stroke="none" d="M 10404,13945 L 10562,14251 10226,14325 10404,13945 Z"/>
   </g>
  </g>
  <g class="com.sun.star.drawing.OpenBezierShape">
   <g id="id7">
    <rect class="BoundingBox" stroke="none" fill="none" x="9083" y="14766" width="1500" height="382"/>
    <path fill="none" stroke="rgb(0,0,0)" stroke-width="80" stroke-linejoin="round" d="M 10542,14888 C 10244,15029 9748,15106 9304,14947"/>
    <path fill="rgb(0,0,0)" stroke="none" d="M 9242,15147 L 9084,14841 9420,14767 9242,15147 Z"/>
   </g>
  </g>
 </g>
</svg>