<?xml version="1.0" encoding="UTF-8"?>
<!DOCTYPE svg PUBLIC "-//W3C//DTD SVG 1.1//EN" "http://www.w3.org/Graphics/SVG/1.1/DTD/svg11.dtd">
<svg version="1.2" width="29.96mm" height="29.96mm" viewBox="2016 12162 2996 2996" preserveAspectRatio="xMidYMid" fill-rule="evenodd" stroke-width="28.222" stroke-linejoin="round" xmlns="http://www.w3.org/2000/svg" xmlns:ooo="http://xml.openoffice.org/svg/export" xmlns:xlink="http://www.w3.org/1999/xlink" xmlns:presentation="http://sun.com/xmlns/staroffice/presentation" xmlns:smil="http://www.w3.org/2001/SMIL20/" xmlns:anim="urn:oasis:names:tc:opendocument:xmlns:animation:1.0" xml:space="preserve">
 <defs class="EmbeddedBulletChars">
  <g id="bullet-char-template-57356" transform="scale(0.00048828125,-0.00048828125)">
   <path d="M 580,1141 L 1163,571 580,0 -4,571 580,1141 Z"/>
  </g>
  <g id="bullet-char-template-57354" transform="scale(0.00048828125,-0.00048828125)">
   <path d="M 8,1128 L 1137,1128 1137,0 8,0 8,1128 Z"/>
  </g>
  <g id="bullet-char-template-10146" transform="scale(0.00048828125,-0.00048828125)">
   <path d="M 174,0 L 602,739 174,1481 1456,739 174,0 Z M 1358,739 L 309,1346 659,739 1358,739 Z"/>
  </g>
  <g id="bullet-char-template-10132" transform="scale(0.00048828125,-0.00048828125)">
   <path d="M 2015,739 L 1276,0 717,0 1260,543 174,543 174,936 1260,936 717,1481 1274,1481 2015,739 Z"/>
  </g>
  <g id="bullet-char-template-10007" transform="scale(0.00048828125,-0.00048828125)">
   <path d="M 0,-2 C -7,14 -16,27 -25,37 L 356,567 C 262,823 215,952 215,954 215,979 228,992 255,992 264,992 276,990 289,987 310,991 331,999 354,1012 L 381,999 492,748 772,1049 836,1024 860,1049 C 881,1039 901,1025 922,1006 886,937 835,863 770,784 769,783 710,716 594,584 L 774,223 C 774,196 753,168 711,139 L 727,119 C 717,90 699,76 672,76 641,76 570,178 457,381 L 164,-76 C 142,-110 111,-127 72,-127 30,-127 9,-110 8,-76 1,-67 -2,-52 -2,-32 -2,-23 -1,-13 0,-2 Z"/>
  </g>
  <g id="bullet-char-template-10004" transform="scale(0.00048828125,-0.00048828125)">
   <path d="M 285,-33 C 182,-33 111,30 74,156 52,228 41,333 41,471 41,549 55,616 82,672 116,743 169,778 240,778 293,778 328,747 346,684 L 369,508 C 377,444 397,411 428,410 L 1163,1116 C 1174,1127 1196,1133 1229,1133 1271,1133 1292,1118 1292,1087 L 1292,965 C 1292,929 1282,901 1262,881 L 442,47 C 390,-6 338,-33 285,-33 Z"/>
  </g>
  <g id="bullet-char-template-9679" transform="scale(0.00048828125,-0.00048828125)">
   <path d="M 813,0 C 632,0 489,54 383,161 276,268 223,411 223,592 223,773 276,916 383,1023 489,1130 632,1184 813,1184 992,1184 1136,1130 1245,1023 1353,916 1407,772 1407,592 1407,412 1353,268 1245,161 1136,54 992,0 813,0 Z"/>
  </g>
  <g id="bullet-char-template-8226" transform="scale(0.00048828125,-0.00048828125)">
   <path d="M 346,457 C 273,457 209,483 155,535 101,586 74,649 74,723 74,796 101,859 155,911 209,963 273,989 346,989 419,989 480,963 531,910 582,859 608,796 608,723 608,648 583,586 532,535 482,483 420,457 346,457 Z"/>
  </g>
  <g id="bullet-char-template-8211" transform="scale(0.00048828125,-0.00048828125)">
   <path d="M -4,459 L 1135,459 1135,606 -4,606 -4,459 Z"/>
  </g>
  <g id="bullet-char-template-61548" transform="scale(0.00048828125,-0.00048828125)">
   <path d="M 173,740 C 173,903 231,1043 346,1159 462,1274 601,1332 765,1332 928,1332 1067,1274 1183,1159 1299,1043 1357,903 1357,740 1357,577 1299,437 1183,322 1067,206 928,148 765,148 601,148 462,206 346,322 231,437 173,577 173,740 Z"/>
  </g>
 </defs>
 <g class="Page">
  <g class="com.sun.star.drawing.CustomShape">
   <g id="id3">
    <rect class="BoundingBox" stroke="none" fill="none" x="2016" y="12162" width="2996" height="2996"/>
    <path fill="rgb(255,255,255)" stroke="none" d="M 2515,12162 L 2515,12162 C 2428,12162 2341,12185 2266,12229 2190,12273 2127,12336 2083,12412 2039,12487 2016,12574 2016,12661 L 2016,14657 2016,14658 C 2016,14745 2039,14832 2083,14907 2127,14983 2190,15046 2266,15090 2341,15134 2428,15157 2515,15157 L 4511,15156 4512,15157 C 4599,15157 4686,15134 4761,15090 4837,15046 4900,14983 4944,14907 4988,14832 5011,14745 5011,14658 L 5010,12661 5011,12661 5011,12661 C 5011,12574 4988,12487 4944,12412 4900,12336 4837,12273 4761,12229 4686,12185 4599,12162 4512,12162 L 2515,12162 Z"/>
   </g>
  </g>
  <g class="Group">
   <g class="com.sun.star.drawing.CustomShape">
    <g id="id4">
     <rect class="BoundingBox" stroke="none" fill="none" x="2335" y="13330" width="860" height="860"/>
     <path fill="rgb(204,204,204)" stroke="none" d="M 3194,13760 C 3194,13835 3174,13909 3136,13974 3099,14040 3045,14094 2979,14131 2914,14169 2840,14189 2765,14189 2689,14189 2615,14169 2550,14131 2484,14094 2430,14040 2393,13974 2355,13909 2335,13835 2335,13760 2335,13684 2355,13610 2393,13545 2430,13479 2484,13425 2550,13388 2615,13350 2689,13330 2765,13330 2840,13330 2914,13350 2979,13388 3045,13425 3099,13479 3136,13545 3174,13610 3194,13684 3194,13760 L 3194,13760 Z"/>
    </g>
   </g>
   <g class="com.sun.star.drawing.CustomShape">
    <g id="id5">
     <rect class="BoundingBox" stroke="none" fill="none" x="3761" y="13330" width="861" height="860"/>
     <path fill="rgb(204,204,204)" stroke="none" d="M 4621,13760 C 4621,13835 4601,13909 4563,13974 4526,14040 4472,14094 4406,14131 4341,14169 4267,14189 4192,14189 4116,14189 4042,14169 3977,14131 3911,14094 3857,14040 3820,13974 3782,13909 3762,13835 3762,13760 3762,13684 3782,13610 3820,13545 3857,13479 3911,13425 3977,13388 4042,13350 4116,13330 4192,13330 4267,13330 4341,13350 4406,13388 4472,13425 4526,13479 4563,13545 4601,13610 4621,13684 4621,13760 L 4621,13760 Z"/>
    </g>
   </g>
   <g class="com.sun.star.drawing.CustomShape">
    <g id="id6">
     <rect class="BoundingBox" stroke="none" fill="none" x="3130" y="13129" width="352" height="352"/>
     <path fill="rgb(51,51,51)" stroke="none" d="M 3305,13130 L 3480,13479 3131,13479 3305,13130 Z"/>
     <path fill="none" stroke="rgb(52,101,164)" d="M 3305,13130 L 3480,13479 3131,13479 3305,13130 Z"/>
    </g>
   </g>
  </g>
 </g>
</svg>