<svg version="1.1" viewBox="0.0 0.0 191.002624671916 100.0" fill="none" stroke="none" stroke-linecap="square" stroke-miterlimit="10" xmlns:xlink="http://www.w3.org/1999/xlink" xmlns="http://www.w3.org/2000/svg"><clipPath id="p.0"><path d="m0 0l191.00262 0l0 100.0l-191.00262 0l0 -100.0z" clip-rule="nonzero"/></clipPath><g clip-path="url(#p.0)"><path fill="#000000" fill-opacity="0.0" d="m0 0l191.00262 0l0 100.0l-191.00262 0z" fill-rule="evenodd"/><path fill="#9fc5e8" d="m306.37628 104.240295l18.091034 -13.210197l-5.642975 21.38276l17.42871 -6.5672455l-9.801727 11.089722l23.018951 5.19635l-22.561584 6.100174l4.2272034 8.242416l-9.155304 2.0898895l8.482574 14.718613l-17.763184 -8.673386l-0.99990845 11.580948l-11.115692 -7.8973236l-4.76355 10.362396l-6.5631714 -7.1012573l-7.0 7.695099l-3.9643555 -7.01326l-14.241974 10.621323l2.1040344 -12.679932l-15.260193 -4.772293l10.951782 -7.3197937l-12.81131 -12.377136l18.412567 -1.2118454l-9.660034 -14.961853l18.941864 2.1449127l-0.6074829 -16.487503l15.785248 14.0219345l8.665894 -15.754448z" fill-rule="evenodd"/><path stroke="#000000" stroke-width="1.0" stroke-linejoin="round" stroke-linecap="butt" d="m306.37628 104.240295l18.091034 -13.210197l-5.642975 21.38276l17.42871 -6.5672455l-9.801727 11.089722l23.018951 5.19635l-22.561584 6.100174l4.2272034 8.242416l-9.155304 2.0898895l8.482574 14.718613l-17.763184 -8.673386l-0.99990845 11.580948l-11.115692 -7.8973236l-4.76355 10.362396l-6.5631714 -7.1012573l-7.0 7.695099l-3.9643555 -7.01326l-14.241974 10.621323l2.1040344 -12.679932l-15.260193 -4.772293l10.951782 -7.3197937l-12.81131 -12.377136l18.412567 -1.2118454l-9.660034 -14.961853l18.941864 2.1449127l-0.6074829 -16.487503l15.785248 14.0219345l8.665894 -15.754448z" fill-rule="evenodd"/><path fill="#000000" fill-opacity="0.0" d="m-93.04862 226.80565l89.44882 0l0 31.622055l-89.44882 0z" fill-rule="evenodd"/><path fill="#000000" d="m-70.24345 249.88565l0 -0.953125q-0.71875 1.125 -2.125 1.125q-0.90625 0 -1.671875 -0.5q-0.75 -0.5 -1.171875 -1.390625q-0.421875 -0.90625 -0.421875 -2.078125q0 -1.140625 0.375 -2.0625q0.390625 -0.921875 1.140625 -1.40625q0.765625 -0.5 1.703125 -0.5q0.6875 0 1.21875 0.296875q0.53125 0.28125 0.875 0.734375l0 -3.75l1.28125 0l0 10.484375l-1.203125 0zm-4.0625 -3.796875q0 1.46875 0.609375 2.1875q0.625 0.71875 1.453125 0.71875q0.84375 0 1.4375 -0.6875q0.59375 -0.6875 0.59375 -2.109375q0 -1.5625 -0.609375 -2.28125q-0.59375 -0.734375 -1.484375 -0.734375q-0.84375 0 -1.421875 0.703125q-0.578125 0.703125 -0.578125 2.203125zm7.291733 -5.21875l0 -1.46875l1.296875 0l0 1.46875l-1.296875 0zm0 9.015625l0 -7.59375l1.296875 0l0 7.59375l-1.296875 0zm2.7405243 -2.265625l1.265625 -0.203125q0.109375 0.765625 0.59375 1.171875q0.5 0.40625 1.375 0.40625q0.890625 0 1.3125 -0.359375q0.4375 -0.359375 0.4375 -0.84375q0 -0.4375 -0.375 -0.6875q-0.265625 -0.171875 -1.3125 -0.4375q-1.421875 -0.359375 -1.96875 -0.609375q-0.546875 -0.265625 -0.828125 -0.734375q-0.28125 -0.46875 -0.28125 -1.015625q0 -0.515625 0.21875 -0.9375q0.234375 -0.4375 0.640625 -0.734375q0.296875 -0.21875 0.8125 -0.359375q0.53125 -0.15625 1.125 -0.15625q0.890625 0 1.5625 0.265625q0.671875 0.25 1.0 0.6875q0.328125 0.4375 0.4375 1.171875l-1.25 0.171875q-0.09375 -0.578125 -0.5 -0.90625q-0.40625 -0.34375 -1.15625 -0.34375q-0.890625 0 -1.28125 0.296875q-0.375 0.296875 -0.375 0.6875q0 0.25 0.15625 0.453125q0.15625 0.203125 0.5 0.34375q0.1875 0.078125 1.140625 0.328125q1.359375 0.359375 1.890625 0.59375q0.546875 0.234375 0.859375 0.6875q0.3125 0.4375 0.3125 1.09375q0 0.640625 -0.375 1.21875q-0.375 0.5625 -1.09375 0.875q-0.703125 0.3125 -1.59375 0.3125q-1.484375 0 -2.265625 -0.609375q-0.765625 -0.625 -0.984375 -1.828125zm10.65625 1.109375l0.1875 1.140625q-0.546875 0.109375 -0.984375 0.109375q-0.6875 0 -1.078125 -0.21875q-0.390625 -0.21875 -0.546875 -0.578125q-0.15625 -0.359375 -0.15625 -1.515625l0 -4.375l-0.953125 0l0 -1.0l0.953125 0l0 -1.890625l1.28125 -0.765625l0 2.65625l1.296875 0l0 1.0l-1.296875 0l0 4.4375q0 0.546875 0.0625 0.71875q0.078125 0.15625 0.21875 0.25q0.15625 0.078125 0.453125 0.078125q0.203125 0 0.5625 -0.046875zm1.2438507 1.15625l0 -7.59375l1.15625 0l0 1.140625q0.453125 -0.796875 0.828125 -1.046875q0.375 -0.265625 0.8125 -0.265625q0.65625 0 1.328125 0.40625l-0.4375 1.203125q-0.46875 -0.28125 -0.953125 -0.28125q-0.421875 0 -0.765625 0.25q-0.328125 0.25 -0.46875 0.703125q-0.21875 0.6875 -0.21875 1.5l0 3.984375l-1.28125 0zm4.8962708 -9.015625l0 -1.46875l1.296875 0l0 1.46875l-1.296875 0zm0 9.015625l0 -7.59375l1.296875 0l0 7.59375l-1.296875 0zm4.4436493 0l-1.203125 0l0 -10.484375l1.296875 0l0 3.734375q0.8125 -1.015625 2.078125 -1.015625q0.703125 0 1.328125 0.28125q0.625 0.28125 1.03125 0.796875q0.40625 0.5 0.625 1.234375q0.234375 0.71875 0.234375 1.53125q0 1.96875 -0.96875 3.03125q-0.953125 1.0625 -2.3125 1.0625q-1.34375 0 -2.109375 -1.125l0 0.953125zm-0.015625 -3.859375q0 1.375 0.375 1.984375q0.609375 0.984375 1.640625 0.984375q0.84375 0 1.453125 -0.734375q0.625 -0.734375 0.625 -2.1875q0 -1.484375 -0.59375 -2.1875q-0.59375 -0.71875 -1.421875 -0.71875q-0.84375 0 -1.46875 0.734375q-0.609375 0.734375 -0.609375 2.125zm11.96361 3.859375l0 -1.109375q-0.890625 1.28125 -2.421877 1.28125q-0.671875 0 -1.25 -0.25q-0.578125 -0.265625 -0.875 -0.65625q-0.28125 -0.390625 -0.390625 -0.953125q-0.078125 -0.375 -0.078125 -1.203125l0 -4.703125l1.28125 0l0 4.203125q0 1.015625 0.078125 1.359375q0.125 0.515625 0.515625 0.8125q0.40625 0.28125 0.984375 0.28125q0.578125 0 1.078125 -0.296875q0.5156269 -0.296875 0.7187519 -0.8125q0.21875 -0.515625 0.21875 -1.484375l0 -4.0625l1.28125 0l0 7.59375l-1.140625 0zm3.1667328 -9.015625l0 -1.46875l1.296875 0l0 1.46875l-1.296875 0zm0 9.015625l0 -7.59375l1.296875 0l0 7.59375l-1.296875 0zm3.2405243 0l0 -7.59375l1.15625 0l0 1.140625q0.453125 -0.796875 0.828125 -1.046875q0.375 -0.265625 0.8125 -0.265625q0.65625 0 1.328125 0.40625l-0.4375 1.203125q-0.46875 -0.28125 -0.953125 -0.28125q-0.421875 0 -0.765625 0.25q-0.328125 0.25 -0.46875 0.703125q-0.21875 0.6875 -0.21875 1.5l0 3.984375l-1.28125 0zm10.099396 -2.453125l1.328125 0.171875q-0.3125 1.171875 -1.171875 1.8125q-0.84375 0.640625 -2.171875 0.640625q-1.671875 0 -2.65625 -1.015625q-0.96875 -1.03125 -0.96875 -2.890625q0 -1.921875 0.984375 -2.96875q1.0 -1.0625 2.578125 -1.0625q1.515625 0 2.484375 1.03125q0.96875 1.03125 0.96875 2.921875q0 0.109375 -0.015625 0.34375l-5.65625 0q0.0625 1.25 0.703125 1.921875q0.640625 0.65625 1.59375 0.65625q0.703125 0 1.203125 -0.359375q0.5 -0.375 0.796875 -1.203125zm-4.234375 -2.078125l4.25 0q-0.09375 -0.953125 -0.484375 -1.4375q-0.625 -0.75 -1.609375 -0.75q-0.875 0 -1.484375 0.59375q-0.609375 0.59375 -0.671875 1.59375z" fill-rule="nonzero"/><path fill="#000000" fill-opacity="0.0" d="m-105.28747 249.28947l102.11024 0l0 33.952744l-102.11024 0z" fill-rule="evenodd"/><path fill="#000000" d="m-82.909485 272.36948l0 -7.59375l1.15625 0l0 1.140625q0.453125 -0.796875 0.828125 -1.046875q0.375 -0.265625 0.8125 -0.265625q0.65625 0 1.328125 0.40625l-0.4375 1.203125q-0.46875 -0.28125 -0.953125 -0.28125q-0.421875 0 -0.765625 0.25q-0.328125 0.25 -0.46875 0.703125q-0.21875 0.6875 -0.21875 1.5l0 3.984375l-1.28125 0zm9.849396 -0.9375q-0.71875 0.609375 -1.375 0.859375q-0.65625 0.25 -1.421875 0.25q-1.25 0 -1.921875 -0.609375q-0.671875 -0.609375 -0.671875 -1.5625q0 -0.5625 0.25 -1.015625q0.25 -0.46875 0.65625 -0.75q0.421875 -0.28125 0.9375 -0.421875q0.375 -0.09375 1.140625 -0.1875q1.5625 -0.1875 2.296875 -0.453125q0.015625 -0.265625 0.015625 -0.328125q0 -0.796875 -0.375 -1.109375q-0.484375 -0.4375 -1.453125 -0.4375q-0.921875 0 -1.359375 0.328125q-0.421875 0.3125 -0.625 1.109375l-1.265625 -0.171875q0.171875 -0.796875 0.5625 -1.296875q0.390625 -0.5 1.140625 -0.765625q0.75 -0.265625 1.71875 -0.265625q0.984375 0 1.59375 0.234375q0.609375 0.21875 0.890625 0.5625q0.28125 0.34375 0.40625 0.875q0.0625 0.328125 0.0625 1.1875l0 1.71875q0 1.796875 0.078125 2.28125q0.078125 0.46875 0.328125 0.90625l-1.34375 0q-0.203125 -0.40625 -0.265625 -0.9375zm-0.109375 -2.875q-0.703125 0.28125 -2.09375 0.484375q-0.796875 0.109375 -1.125 0.265625q-0.328125 0.140625 -0.515625 0.421875q-0.171875 0.265625 -0.171875 0.59375q0 0.515625 0.390625 0.859375q0.390625 0.34375 1.140625 0.34375q0.734375 0 1.3125 -0.3125q0.59375 -0.328125 0.859375 -0.890625q0.203125 -0.4375 0.203125 -1.296875l0 -0.46875zm8.260483 1.03125l1.2656288 0.15625q-0.203125 1.3125 -1.0625038 2.0625q-0.84375 0.734375 -2.09375 0.734375q-1.5625 0 -2.515625 -1.015625q-0.9375 -1.03125 -0.9375 -2.921875q0 -1.234375 0.40625 -2.15625q0.40625 -0.921875 1.234375 -1.375q0.84375 -0.46875 1.8125 -0.46875q1.25 0 2.03125 0.625q0.7812538 0.625 1.0156288 1.765625l-1.2656288 0.203125q-0.171875 -0.765625 -0.625 -1.15625q-0.453125 -0.390625 -1.09375 -0.390625q-0.984375 0 -1.59375 0.703125q-0.609375 0.703125 -0.609375 2.203125q0 1.53125 0.578125 2.234375q0.59375 0.6875 1.546875 0.6875q0.75 0 1.265625 -0.453125q0.515625 -0.46875 0.640625 -1.4375zm7.328129 0l1.265625 0.15625q-0.203125 1.3125 -1.0625 2.0625q-0.84375 0.734375 -2.09375 0.734375q-1.5625 0 -2.515625 -1.015625q-0.9375 -1.03125 -0.9375 -2.921875q0 -1.234375 0.40625 -2.15625q0.40625 -0.921875 1.234375 -1.375q0.84375 -0.46875 1.8125 -0.46875q1.25 0 2.03125 0.625q0.78125 0.625 1.015625 1.765625l-1.265625 0.203125q-0.171875 -0.765625 -0.625 -1.15625q-0.453125 -0.390625 -1.09375 -0.390625q-0.984375 0 -1.59375 0.703125q-0.609375 0.703125 -0.609375 2.203125q0 1.53125 0.578125 2.234375q0.59375 0.6875 1.546875 0.6875q0.75 0 1.265625 -0.453125q0.515625 -0.46875 0.640625 -1.4375zm1.890625 -1.015625q0 -2.109375 1.171875 -3.125q0.984375 -0.84375 2.390625 -0.84375q1.578125 0 2.5625 1.03125q1.0 1.015625 1.0 2.828125q0 1.46875 -0.4375 2.3125q-0.4375 0.828125 -1.28125 1.296875q-0.84375 0.46875 -1.84375 0.46875q-1.59375 0 -2.578125 -1.015625q-0.984375 -1.03125 -0.984375 -2.953125zm1.328125 0q0 1.453125 0.625 2.1875q0.640625 0.71875 1.609375 0.71875q0.96875 0 1.59375 -0.71875q0.640625 -0.734375 0.640625 -2.234375q0 -1.40625 -0.640625 -2.125q-0.640625 -0.734375 -1.59375 -0.734375q-0.96875 0 -1.609375 0.71875q-0.625 0.71875 -0.625 2.1875zm7.072983 4.421875l1.25 0.1875q0.078125 0.578125 0.4375 0.84375q0.46875 0.359375 1.3125 0.359375q0.890625 0 1.375 -0.359375q0.484375 -0.359375 0.65625 -1.0q0.109375 -0.390625 0.09375 -1.65625q-0.84375 1.0 -2.109375 1.0q-1.5625 0 -2.421875 -1.125q-0.859375 -1.140625 -0.859375 -2.71875q0 -1.09375 0.390625 -2.0q0.40625 -0.921875 1.140625 -1.421875q0.75 -0.5 1.765625 -0.5q1.34375 0 2.21875 1.078125l0 -0.90625l1.1875 0l0 6.5625q0 1.78125 -0.359375 2.515625q-0.359375 0.734375 -1.15625 1.15625q-0.78125 0.4375 -1.921875 0.4375q-1.359375 0 -2.203125 -0.609375q-0.828125 -0.609375 -0.796875 -1.84375zm1.0625 -4.5625q0 1.5 0.59375 2.1875q0.59375 0.6875 1.484375 0.6875q0.890625 0 1.484375 -0.6875q0.609375 -0.6875 0.609375 -2.140625q0 -1.390625 -0.625 -2.09375q-0.609375 -0.71875 -1.484375 -0.71875q-0.859375 0 -1.46875 0.703125q-0.59375 0.6875 -0.59375 2.0625zm7.291733 3.9375l0 -10.484375l1.28125 0l0 10.484375l-1.28125 0zm3.2873993 -9.015625l0 -1.46875l1.296875 0l0 1.46875l-1.296875 0zm0 9.015625l0 -7.59375l1.296875 0l0 7.59375l-1.296875 0zm8.459272 -2.453125l1.328125 0.171875q-0.3125 1.171875 -1.171875 1.8125q-0.84375 0.640625 -2.171875 0.640625q-1.671875 0 -2.65625 -1.015625q-0.9687481 -1.03125 -0.9687481 -2.890625q0 -1.921875 0.9843731 -2.96875q1.0 -1.0625 2.578125 -1.0625q1.515625 0 2.484375 1.03125q0.96875 1.03125 0.96875 2.921875q0 0.109375 -0.015625 0.34375l-5.65625 0q0.0625 1.25 0.703125 1.921875q0.640625 0.65625 1.59375 0.65625q0.703125 0 1.203125 -0.359375q0.5 -0.375 0.796875 -1.203125zm-4.234375 -2.078125l4.25 0q-0.09375 -0.953125 -0.484375 -1.4375q-0.625 -0.75 -1.609375 -0.75q-0.875 0 -1.484375 0.59375q-0.609375 0.59375 -0.671875 1.59375zm7.166733 4.53125l0 -7.59375l1.15625 0l0 1.140625q0.453125 -0.796875 0.828125 -1.046875q0.375 -0.265625 0.8125 -0.265625q0.65625 0 1.328125 0.40625l-0.4375 1.203125q-0.46875 -0.28125 -0.953125 -0.28125q-0.421875 0 -0.765625 0.25q-0.328125 0.25 -0.46875 0.703125q-0.21875 0.6875 -0.21875 1.5l0 3.984375l-1.28125 0zm10.099396 -2.453125l1.328125 0.171875q-0.3125 1.171875 -1.171875 1.8125q-0.84375 0.640625 -2.171875 0.640625q-1.671875 0 -2.65625 -1.015625q-0.96875 -1.03125 -0.96875 -2.890625q0 -1.921875 0.984375 -2.96875q1.0 -1.0625 2.578125 -1.0625q1.515625 0 2.484375 1.03125q0.96875 1.03125 0.96875 2.921875q0 0.109375 -0.015625 0.34375l-5.65625 0q0.0625 1.25 0.703125 1.921875q0.640625 0.65625 1.59375 0.65625q0.703125 0 1.203125 -0.359375q0.5 -0.375 0.796875 -1.203125zm-4.234375 -2.078125l4.25 0q-0.09375 -0.953125 -0.484375 -1.4375q-0.625 -0.75 -1.609375 -0.75q-0.875 0 -1.484375 0.59375q-0.609375 0.59375 -0.671875 1.59375z" fill-rule="nonzero"/><path fill="#000000" fill-opacity="0.0" d="m-107.01451 175.21158l104.91338 0l0 33.95276l-104.91338 0z" fill-rule="evenodd"/><path fill="#000000" d="m-78.48197 195.51033l1.265625 0.15625q-0.203125 1.3125 -1.0625 2.0625q-0.84375 0.734375 -2.09375 0.734375q-1.5625 0 -2.515625 -1.015625q-0.9375 -1.03125 -0.9375 -2.921875q0 -1.234375 0.40625 -2.15625q0.40625 -0.921875 1.234375 -1.375q0.84375 -0.46875 1.8125 -0.46875q1.25 0 2.03125 0.625q0.78125 0.625 1.015625 1.765625l-1.265625 0.203125q-0.171875 -0.765625 -0.625 -1.15625q-0.453125 -0.390625 -1.09375 -0.390625q-0.984375 0 -1.59375 0.703125q-0.609375 0.703125 -0.609375 2.203125q0 1.53125 0.578125 2.234375q0.59375 0.6875 1.546875 0.6875q0.75 0 1.265625 -0.453125q0.515625 -0.46875 0.640625 -1.4375zm1.890625 -1.015625q0 -2.109375 1.171875 -3.125q0.984375 -0.84375 2.390625 -0.84375q1.578125 0 2.5625 1.03125q1.0 1.015625 1.0 2.828125q0 1.46875 -0.4375 2.3125q-0.4375 0.828125 -1.28125 1.296875q-0.84375 0.46875 -1.84375 0.46875q-1.59375 0 -2.578125 -1.015625q-0.984375 -1.03125 -0.984375 -2.953125zm1.328125 0q0 1.453125 0.625 2.1875q0.640625 0.71875 1.609375 0.71875q0.96875 0 1.59375 -0.71875q0.640625 -0.734375 0.640625 -2.234375q0 -1.40625 -0.640625 -2.125q-0.640625 -0.734375 -1.59375 -0.734375q-0.96875 0 -1.609375 0.71875q-0.625 0.71875 -0.625 2.1875zm7.307358 3.796875l0 -7.59375l1.15625 0l0 1.0625q0.34375 -0.5625 0.9375 -0.890625q0.609375 -0.34375 1.359375 -0.34375q0.84375 0 1.375 0.34375q0.546875 0.34375 0.765625 0.984375q0.90625 -1.328125 2.359375 -1.328125q1.125 0 1.734375 0.625q0.609375 0.625 0.609375 1.921875l0 5.21875l-1.28125 0l0 -4.78125q0 -0.78125 -0.125 -1.109375q-0.125 -0.34375 -0.453125 -0.546875q-0.328125 -0.21875 -0.78125 -0.21875q-0.796875 0 -1.328125 0.53125q-0.53125 0.53125 -0.53125 1.703125l0 4.421875l-1.28125 0l0 -4.9375q0 -0.859375 -0.3125 -1.28125q-0.3125 -0.4375 -1.03125 -0.4375q-0.546875 0 -1.015625 0.296875q-0.453125 0.28125 -0.671875 0.828125q-0.203125 0.546875 -0.203125 1.59375l0 3.9375l-1.28125 0zm12.208771 0l0 -7.59375l1.15625 0l0 1.0625q0.34375 -0.5625 0.9375 -0.890625q0.609375 -0.34375 1.359375 -0.34375q0.84375 0 1.375 0.34375q0.546875 0.34375 0.765625 0.984375q0.90625 -1.328125 2.359375 -1.328125q1.125 0 1.734375 0.625q0.609375 0.625 0.609375 1.921875l0 5.21875l-1.28125 0l0 -4.78125q0 -0.78125 -0.125 -1.109375q-0.125 -0.34375 -0.453125 -0.546875q-0.328125 -0.21875 -0.78125 -0.21875q-0.796875 0 -1.328125 0.53125q-0.53125 0.53125 -0.53125 1.703125l0 4.421875l-1.28125 0l0 -4.9375q0 -0.859375 -0.3125 -1.28125q-0.3125 -0.4375 -1.03125 -0.4375q-0.546875 0 -1.015625 0.296875q-0.453125 0.28125 -0.671875 0.828125q-0.203125 0.546875 -0.203125 1.59375l0 3.9375l-1.28125 0zm17.193146 0l0 -1.109375q-0.890625 1.28125 -2.421875 1.28125q-0.671875 0 -1.25 -0.25q-0.578125 -0.265625 -0.875 -0.65625q-0.28125 -0.390625 -0.390625 -0.953125q-0.078125 -0.375 -0.078125 -1.203125l0 -4.703125l1.28125 0l0 4.203125q0 1.015625 0.078125 1.359375q0.125 0.515625 0.515625 0.8125q0.40625 0.28125 0.984375 0.28125q0.578125 0 1.078125 -0.296875q0.515625 -0.296875 0.71875 -0.8125q0.21875 -0.515625 0.21875 -1.484375l0 -4.0625l1.28125 0l0 7.59375l-1.140625 0zm5.979233 -1.15625l0.1875 1.140625q-0.546875 0.109375 -0.984375 0.109375q-0.6875 0 -1.078125 -0.21875q-0.390625 -0.21875 -0.546875 -0.578125q-0.15625 -0.359375 -0.15625 -1.515625l0 -4.375l-0.953125 0l0 -1.0l0.953125 0l0 -1.890625l1.28125 -0.765625l0 2.65625l1.296875 0l0 1.0l-1.296875 0l0 4.4375q0 0.546875 0.0625 0.71875q0.078125 0.15625 0.21875 0.25q0.15625 0.078125 0.453125 0.078125q0.203125 0 0.5625 -0.046875zm6.2126007 0.21875q-0.71875 0.609375 -1.375 0.859375q-0.65625 0.25 -1.421875 0.25q-1.25 0 -1.921875 -0.609375q-0.671875 -0.609375 -0.671875 -1.5625q0 -0.5625 0.25 -1.015625q0.25 -0.46875 0.65625 -0.75q0.421875 -0.28125 0.9375 -0.421875q0.375 -0.09375 1.140625 -0.1875q1.5625 -0.1875 2.296875 -0.453125q0.015625 -0.265625 0.015625 -0.328125q0 -0.796875 -0.375 -1.109375q-0.484375 -0.4375 -1.453125 -0.4375q-0.921875 0 -1.359375 0.328125q-0.421875 0.3125 -0.625 1.109375l-1.265625 -0.171875q0.171875 -0.796875 0.5625 -1.296875q0.390625 -0.5 1.140625 -0.765625q0.75 -0.265625 1.71875 -0.265625q0.984375 0 1.59375 0.234375q0.609375 0.21875 0.890625 0.5625q0.28125 0.34375 0.40625 0.875q0.0625 0.328125 0.0625 1.1875l0 1.71875q0 1.796875 0.078125 2.28125q0.078125 0.46875 0.328125 0.90625l-1.34375 0q-0.203125 -0.40625 -0.265625 -0.9375zm-0.109375 -2.875q-0.703125 0.28125 -2.09375 0.484375q-0.796875 0.109375 -1.125 0.265625q-0.328125 0.140625 -0.515625 0.421875q-0.171875 0.265625 -0.171875 0.59375q0 0.515625 0.390625 0.859375q0.390625 0.34375 1.140625 0.34375q0.734375 0 1.3125 -0.3125q0.59375 -0.328125 0.859375 -0.890625q0.203125 -0.4375 0.203125 -1.296875l0 -0.46875zm3.2917328 3.8125l0 -7.59375l1.15625 0l0 1.140625q0.453125 -0.796875 0.828125 -1.046875q0.375 -0.265625 0.8125 -0.265625q0.65625 0 1.328125 0.40625l-0.4375 1.203125q-0.46875 -0.28125 -0.953125 -0.28125q-0.421875 0 -0.765625 0.25q-0.328125 0.25 -0.46875 0.703125q-0.21875 0.6875 -0.21875 1.5l0 3.984375l-1.28125 0zm10.099395 -2.453125l1.328125 0.171875q-0.3125 1.171875 -1.171875 1.8125q-0.84375 0.640625 -2.171875 0.640625q-1.671874 0 -2.656249 -1.015625q-0.96875 -1.03125 -0.96875 -2.890625q0 -1.921875 0.984375 -2.96875q1.0 -1.0625 2.578124 -1.0625q1.515625 0 2.484375 1.03125q0.96875 1.03125 0.96875 2.921875q0 0.109375 -0.015625 0.34375l-5.656249 0q0.0625 1.25 0.703125 1.921875q0.640625 0.65625 1.593749 0.65625q0.703125 0 1.203125 -0.359375q0.5 -0.375 0.796875 -1.203125zm-4.234374 -2.078125l4.249999 0q-0.09375 -0.953125 -0.484375 -1.4375q-0.625 -0.75 -1.609375 -0.75q-0.87499905 0 -1.484374 0.59375q-0.609375 0.59375 -0.671875 1.59375z" fill-rule="nonzero"/><path fill="#000000" fill-opacity="0.0" d="m-97.60721 200.22919l96.18897 0l0 27.65355l-96.18897 0z" fill-rule="evenodd"/><path fill="#000000" d="m-67.221954 222.37169q-0.71875 0.609375 -1.375 0.859375q-0.65625 0.25 -1.421875 0.25q-1.25 0 -1.921875 -0.609375q-0.671875 -0.609375 -0.671875 -1.5625q0 -0.5625 0.25 -1.015625q0.25 -0.46875 0.65625 -0.75q0.421875 -0.28125 0.9375 -0.421875q0.375 -0.09375 1.140625 -0.1875q1.5625 -0.1875 2.296875 -0.453125q0.015625 -0.265625 0.015625 -0.328125q0 -0.796875 -0.375 -1.109375q-0.484375 -0.4375 -1.453125 -0.4375q-0.921875 0 -1.359375 0.328125q-0.421875 0.3125 -0.625 1.109375l-1.265625 -0.171875q0.171875 -0.796875 0.5625 -1.296875q0.390625 -0.5 1.140625 -0.765625q0.75 -0.265625 1.71875 -0.265625q0.984375 0 1.59375 0.234375q0.609375 0.21875 0.890625 0.5625q0.28125 0.34375 0.40625 0.875q0.0625 0.328125 0.0625 1.1875l0 1.71875q0 1.796875 0.078125 2.28125q0.078125 0.46875 0.328125 0.90625l-1.34375 0q-0.203125 -0.40625 -0.265625 -0.9375zm-0.109375 -2.875q-0.703125 0.28125 -2.09375 0.484375q-0.796875 0.109375 -1.125 0.265625q-0.328125 0.140625 -0.515625 0.421875q-0.171875 0.265625 -0.171875 0.59375q0 0.515625 0.390625 0.859375q0.390625 0.34375 1.140625 0.34375q0.734375 0 1.3125 -0.3125q0.59375 -0.328125 0.859375 -0.890625q0.203125 -0.4375 0.203125 -1.296875l0 -0.46875zm2.7917328 1.546875l1.2656212 -0.203125q0.109375 0.765625 0.59375 1.171875q0.5 0.40625 1.375 0.40625q0.890625 0 1.3125 -0.359375q0.4375 -0.359375 0.4375 -0.84375q0 -0.4375 -0.375 -0.6875q-0.265625 -0.171875 -1.3125 -0.4375q-1.421875 -0.359375 -1.96875 -0.609375q-0.546875 -0.265625 -0.8281212 -0.734375q-0.28125 -0.46875 -0.28125 -1.015625q0 -0.515625 0.21875 -0.9375q0.23437119 -0.4375 0.6406212 -0.734375q0.296875 -0.21875 0.8125 -0.359375q0.53125 -0.15625 1.125 -0.15625q0.890625 0 1.5625 0.265625q0.671875 0.25 1.0 0.6875q0.328125 0.4375 0.4375 1.171875l-1.25 0.171875q-0.09375 -0.578125 -0.5 -0.90625q-0.40625 -0.34375 -1.15625 -0.34375q-0.890625 0 -1.28125 0.296875q-0.375 0.296875 -0.375 0.6875q0 0.25 0.15625 0.453125q0.15625 0.203125 0.5 0.34375q0.1875 0.078125 1.140625 0.328125q1.359375 0.359375 1.890625 0.59375q0.546875 0.234375 0.859375 0.6875q0.3125 0.4375 0.3125 1.09375q0 0.640625 -0.375 1.21875q-0.375 0.5625 -1.09375 0.875q-0.703125 0.3125 -1.59375 0.3125q-1.484375 0 -2.265625 -0.609375q-0.7656212 -0.625 -0.9843712 -1.828125zm7.328121 0l1.265625 -0.203125q0.109375 0.765625 0.59375 1.171875q0.5 0.40625 1.375 0.40625q0.890625 0 1.3125 -0.359375q0.4375 -0.359375 0.4375 -0.84375q0 -0.4375 -0.375 -0.6875q-0.265625 -0.171875 -1.3125 -0.4375q-1.421875 -0.359375 -1.96875 -0.609375q-0.546875 -0.265625 -0.828125 -0.734375q-0.28125 -0.46875 -0.28125 -1.015625q0 -0.515625 0.21875 -0.9375q0.234375 -0.4375 0.640625 -0.734375q0.296875 -0.21875 0.8125 -0.359375q0.53125 -0.15625 1.125 -0.15625q0.890625 0 1.5625 0.265625q0.671875 0.25 1.0 0.6875q0.328125 0.4375 0.4375 1.171875l-1.25 0.171875q-0.09375 -0.578125 -0.5 -0.90625q-0.40625 -0.34375 -1.15625 -0.34375q-0.890625 0 -1.28125 0.296875q-0.375 0.296875 -0.375 0.6875q0 0.25 0.15625 0.453125q0.15625 0.203125 0.5 0.34375q0.1875 0.078125 1.140625 0.328125q1.359375 0.359375 1.890625 0.59375q0.546875 0.234375 0.859375 0.6875q0.3125 0.4375 0.3125 1.09375q0 0.640625 -0.375 1.21875q-0.375 0.5625 -1.09375 0.875q-0.703125 0.3125 -1.59375 0.3125q-1.484375 0 -2.265625 -0.609375q-0.765625 -0.625 -0.984375 -1.828125zm7.359375 -1.53125q0 -2.109375 1.171875 -3.125q0.984375 -0.84375 2.390625 -0.84375q1.578125 0 2.5625 1.03125q1.0 1.015625 1.0 2.828125q0 1.46875 -0.4375 2.3125q-0.4375 0.828125 -1.28125 1.296875q-0.84375 0.46875 -1.84375 0.46875q-1.59375 0 -2.578125 -1.015625q-0.984375 -1.03125 -0.984375 -2.953125zm1.328125 0q0 1.453125 0.625 2.1875q0.640625 0.71875 1.609375 0.71875q0.96875 0 1.59375 -0.71875q0.640625 -0.734375 0.640625 -2.234375q0 -1.40625 -0.640625 -2.125q-0.640625 -0.734375 -1.59375 -0.734375q-0.96875 0 -1.609375 0.71875q-0.625 0.71875 -0.625 2.1875zm12.260483 1.015625l1.265625 0.15625q-0.203125 1.3125 -1.0625 2.0625q-0.84375 0.734375 -2.09375 0.734375q-1.5625 0 -2.515625 -1.015625q-0.9375 -1.03125 -0.9375 -2.921875q0 -1.234375 0.40625 -2.15625q0.40625 -0.921875 1.234375 -1.375q0.84375 -0.46875 1.8125 -0.46875q1.25 0 2.03125 0.625q0.78125 0.625 1.015625 1.765625l-1.265625 0.203125q-0.171875 -0.765625 -0.625 -1.15625q-0.453125 -0.390625 -1.09375 -0.390625q-0.984375 0 -1.59375 0.703125q-0.609375 0.703125 -0.609375 2.203125q0 1.53125 0.578125 2.234375q0.59375 0.6875 1.546875 0.6875q0.75 0 1.265625 -0.453125q0.515625 -0.46875 0.640625 -1.4375zm2.375 -6.234375l0 -1.46875l1.296875 0l0 1.46875l-1.296875 0zm0 9.015625l0 -7.59375l1.296875 0l0 7.59375l-1.296875 0zm8.209276 -0.9375q-0.71875 0.609375 -1.375 0.859375q-0.65625 0.25 -1.421875 0.25q-1.25 0 -1.921875 -0.609375q-0.671875 -0.609375 -0.671875 -1.5625q0 -0.5625 0.25 -1.015625q0.25 -0.46875 0.65625 -0.75q0.421875 -0.28125 0.9375 -0.421875q0.375 -0.09375 1.140625 -0.1875q1.5625 -0.1875 2.296875 -0.453125q0.015625 -0.265625 0.015625 -0.328125q0 -0.796875 -0.375 -1.109375q-0.484375 -0.4375 -1.453125 -0.4375q-0.921875 0 -1.359375 0.328125q-0.421875 0.3125 -0.625 1.109375l-1.265625 -0.171875q0.171875 -0.796875 0.5625 -1.296875q0.390625 -0.5 1.140625 -0.765625q0.75 -0.265625 1.71875 -0.265625q0.984375 0 1.59375 0.234375q0.609375 0.21875 0.890625 0.5625q0.28125 0.34375 0.40625 0.875q0.0625 0.328125 0.0625 1.1875l0 1.71875q0 1.796875 0.078125 2.28125q0.078125 0.46875 0.328125 0.90625l-1.34375 0q-0.203125 -0.40625 -0.265625 -0.9375zm-0.109375 -2.875q-0.703125 0.28125 -2.09375 0.484375q-0.796875 0.109375 -1.125 0.265625q-0.328125 0.140625 -0.515625 0.421875q-0.171875 0.265625 -0.171875 0.59375q0 0.515625 0.390625 0.859375q0.390625 0.34375 1.140625 0.34375q0.734375 0 1.3125 -0.3125q0.59375 -0.328125 0.859375 -0.890625q0.203125 -0.4375 0.203125 -1.296875l0 -0.46875zm3.2917328 3.8125l0 -7.59375l1.15625 0l0 1.140625q0.453125 -0.796875 0.828125 -1.046875q0.375 -0.265625 0.8125 -0.265625q0.65625 0 1.328125 0.40625l-0.4375 1.203125q-0.46875 -0.28125 -0.953125 -0.28125q-0.421875 0 -0.765625 0.25q-0.328125 0.25 -0.46875 0.703125q-0.21875 0.6875 -0.21875 1.5l0 3.984375l-1.28125 0zm10.099395 -2.453125l1.328125 0.171875q-0.3125 1.171875 -1.171875 1.8125q-0.84375 0.640625 -2.171875 0.640625q-1.671874 0 -2.656249 -1.015625q-0.96875 -1.03125 -0.96875 -2.890625q0 -1.921875 0.984375 -2.96875q1.0 -1.0625 2.578124 -1.0625q1.515625 0 2.484375 1.03125q0.96875 1.03125 0.96875 2.921875q0 0.109375 -0.015625 0.34375l-5.656249 0q0.0625 1.25 0.70312405 1.921875q0.640625 0.65625 1.59375 0.65625q0.703125 0 1.203125 -0.359375q0.5 -0.375 0.796875 -1.203125zm-4.234374 -2.078125l4.249999 0q-0.09375 -0.953125 -0.484375 -1.4375q-0.625 -0.75 -1.609375 -0.75q-0.875 0 -1.484375 0.59375q-0.60937405 0.59375 -0.67187405 1.59375z" fill-rule="nonzero"/><path fill="#000000" fill-opacity="0.0" d="m-85.91989 272.53677l88.062996 0l0 35.3071l-88.062996 0z" fill-rule="evenodd"/><path fill="#000000" d="m-65.05024 293.35114l1.265625 -0.203125q0.109375 0.765625 0.59375 1.171875q0.5 0.40625 1.375 0.40625q0.890625 0 1.3125 -0.359375q0.4375 -0.359375 0.4375 -0.84375q0 -0.4375 -0.375 -0.6875q-0.265625 -0.171875 -1.3125 -0.4375q-1.421875 -0.359375 -1.96875 -0.609375q-0.546875 -0.265625 -0.828125 -0.734375q-0.28125 -0.46875 -0.28125 -1.015625q0 -0.515625 0.21875 -0.9375q0.234375 -0.4375 0.640625 -0.734375q0.296875 -0.21875 0.8125 -0.359375q0.53125 -0.15625 1.125 -0.15625q0.890625 0 1.5625 0.265625q0.671875 0.25 1.0 0.6875q0.328125 0.4375 0.4375 1.171875l-1.25 0.171875q-0.09375 -0.578125 -0.5 -0.90625q-0.40625 -0.34375 -1.15625 -0.34375q-0.890625 0 -1.28125 0.296875q-0.375 0.296875 -0.375 0.6875q0 0.25 0.15625 0.453125q0.15625 0.203125 0.5 0.34375q0.1875 0.078125 1.140625 0.328125q1.359375 0.359375 1.890625 0.59375q0.546875 0.234375 0.859375 0.6875q0.3125 0.4375 0.3125 1.09375q0 0.640625 -0.375 1.21875q-0.375 0.5625 -1.09375 0.875q-0.703125 0.3125 -1.59375 0.3125q-1.484375 0 -2.265625 -0.609375q-0.765625 -0.625 -0.984375 -1.828125zm7.359375 -1.53125q0 -2.109375 1.171875 -3.125q0.984375 -0.84375 2.390625 -0.84375q1.578125 0 2.5625 1.03125q1.0 1.015625 1.0 2.828125q0 1.46875 -0.4375 2.3125q-0.4375 0.828125 -1.28125 1.296875q-0.84375 0.46875 -1.84375 0.46875q-1.59375 0 -2.578125 -1.015625q-0.984375 -1.03125 -0.984375 -2.953125zm1.328125 0q0 1.453125 0.625 2.1875q0.640625 0.71875 1.609375 0.71875q0.96875 0 1.59375 -0.71875q0.640625 -0.734375 0.640625 -2.234375q0 -1.40625 -0.640625 -2.125q-0.640625 -0.734375 -1.59375 -0.734375q-0.96875 0 -1.609375 0.71875q-0.625 0.71875 -0.625 2.1875zm6.791733 1.53125l1.265625 -0.203125q0.109375 0.765625 0.59375 1.171875q0.5 0.40625 1.375 0.40625q0.890625 0 1.3125 -0.359375q0.4375 -0.359375 0.4375 -0.84375q0 -0.4375 -0.375 -0.6875q-0.265625 -0.171875 -1.3125 -0.4375q-1.421875 -0.359375 -1.96875 -0.609375q-0.546875 -0.265625 -0.828125 -0.734375q-0.28125 -0.46875 -0.28125 -1.015625q0 -0.515625 0.21875 -0.9375q0.234375 -0.4375 0.640625 -0.734375q0.296875 -0.21875 0.8125 -0.359375q0.53125 -0.15625 1.125 -0.15625q0.890625 0 1.5625 0.265625q0.671875 0.25 1.0 0.6875q0.328125 0.4375 0.4375 1.171875l-1.25 0.171875q-0.09375 -0.578125 -0.5 -0.90625q-0.40625 -0.34375 -1.15625 -0.34375q-0.890625 0 -1.28125 0.296875q-0.375 0.296875 -0.375 0.6875q0 0.25 0.15625 0.453125q0.15625 0.203125 0.5 0.34375q0.1875 0.078125 1.140625 0.328125q1.359375 0.359375 1.890625 0.59375q0.546875 0.234375 0.859375 0.6875q0.3125 0.4375 0.3125 1.09375q0 0.640625 -0.375 1.21875q-0.375 0.5625 -1.09375 0.875q-0.703125 0.3125 -1.59375 0.3125q-1.484375 0 -2.265625 -0.609375q-0.765625 -0.625 -0.984375 -1.828125zm10.65625 1.109375l0.1875 1.140625q-0.546875 0.109375 -0.984375 0.109375q-0.6875 0 -1.078125 -0.21875q-0.390625 -0.21875 -0.546875 -0.578125q-0.15625 -0.359375 -0.15625 -1.515625l0 -4.375l-0.953125 0l0 -1.0l0.953125 0l0 -1.890625l1.28125 -0.765625l0 2.65625l1.296875 0l0 1.0l-1.296875 0l0 4.4375q0 0.546875 0.0625 0.71875q0.078125 0.15625 0.21875 0.25q0.15625 0.078125 0.453125 0.078125q0.203125 0 0.5625 -0.046875zm1.2594757 -7.859375l0 -1.46875l1.296875 0l0 1.46875l-1.296875 0zm0 9.015625l0 -7.59375l1.296875 0l0 7.59375l-1.296875 0zm6.0686493 -1.15625l0.1875 1.140625q-0.546875 0.109375 -0.984375 0.109375q-0.6875 0 -1.078125 -0.21875q-0.390625 -0.21875 -0.546875 -0.578125q-0.15625 -0.359375 -0.15625 -1.515625l0 -4.375l-0.953125 0l0 -1.0l0.953125 0l0 -1.890625l1.28125 -0.765625l0 2.65625l1.296875 0l0 1.0l-1.296875 0l0 4.4375q0 0.546875 0.0625 0.71875q0.078125 0.15625 0.21875 0.25q0.15625 0.078125 0.453125 0.078125q0.203125 0 0.5625 -0.046875zm6.2438507 1.15625l0 -1.109375q-0.890625 1.28125 -2.421875 1.28125q-0.671875 0 -1.25 -0.25q-0.578125 -0.265625 -0.875 -0.65625q-0.28125 -0.390625 -0.390625 -0.953125q-0.078125 -0.375 -0.078125 -1.203125l0 -4.703125l1.28125 0l0 4.203125q0 1.015625 0.078125 1.359375q0.125 0.515625 0.515625 0.8125q0.40625 0.28125 0.984375 0.28125q0.578125 0 1.078125 -0.296875q0.515625 -0.296875 0.71875 -0.8125q0.21875 -0.515625 0.21875 -1.484375l0 -4.0625l1.28125 0l0 7.59375l-1.140625 0zm3.1667328 -9.015625l0 -1.46875l1.296875 0l0 1.46875l-1.296875 0zm0 9.015625l0 -7.59375l1.296875 0l0 7.59375l-1.296875 0zm3.2405243 0l0 -7.59375l1.15625 0l0 1.140625q0.453125 -0.796875 0.828125 -1.046875q0.375 -0.265625 0.8125 -0.265625q0.65625095 0 1.328126 0.40625l-0.4375 1.203125q-0.46875 -0.28125 -0.95312595 -0.28125q-0.421875 0 -0.765625 0.25q-0.328125 0.25 -0.46875 0.703125q-0.21875 0.6875 -0.21875 1.5l0 3.984375l-1.28125 0zm10.099397 -2.453125l1.328125 0.171875q-0.3125 1.171875 -1.171875 1.8125q-0.84375 0.640625 -2.171875 0.640625q-1.671875 0 -2.65625 -1.015625q-0.96875 -1.03125 -0.96875 -2.890625q0 -1.921875 0.984375 -2.96875q1.0 -1.0625 2.578125 -1.0625q1.515625 0 2.484375 1.03125q0.96875 1.03125 0.96875 2.921875q0 0.109375 -0.015625 0.34375l-5.65625 0q0.0625 1.25 0.703125 1.921875q0.640625 0.65625 1.59375 0.65625q0.703125 0 1.203125 -0.359375q0.5 -0.375 0.796875 -1.203125zm-4.234375 -2.078125l4.25 0q-0.09375 -0.953125 -0.484375 -1.4375q-0.625 -0.75 -1.609375 -0.75q-0.875 0 -1.484375 0.59375q-0.609375 0.59375 -0.671875 1.59375z" fill-rule="nonzero"/><path fill="#ffffff" d="m462.765 317.6974l48.0 0l0 -24.0l-48.0 0z" fill-rule="evenodd"/><path stroke="#000000" stroke-width="1.0" stroke-linejoin="round" stroke-linecap="butt" d="m462.765 317.6974l48.0 0l0 -24.0l-48.0 0z" fill-rule="evenodd"/><path fill="#000000" fill-opacity="0.0" d="m487.28098 314.83862l19.4534 -8.675568" fill-rule="evenodd"/><path stroke="#000000" stroke-width="2.0" stroke-linejoin="round" stroke-linecap="butt" d="m498.24048 309.95102l8.4938965 -3.7879639" fill-rule="evenodd"/><path fill="#000000" stroke="#000000" stroke-width="2.0" stroke-linecap="butt" d="m496.89502 306.934l-6.943756 6.7137756l9.634735 -0.6796875z" fill-rule="evenodd"/><path fill="#000000" fill-opacity="0.0" d="m486.76227 315.695l0 -20.696991" fill-rule="evenodd"/><path stroke="#000000" stroke-width="2.0" stroke-linejoin="round" stroke-linecap="butt" d="m486.76227 303.69504l0 -8.6970215" fill-rule="evenodd"/><path fill="#000000" stroke="#000000" stroke-width="2.0" stroke-linecap="butt" d="m483.4588 303.69504l3.3034668 9.076172l3.3034668 -9.076172z" fill-rule="evenodd"/><path fill="#000000" fill-opacity="0.0" d="m486.24905 314.83862l-19.4534 -8.675568" fill-rule="evenodd"/><path stroke="#000000" stroke-width="2.0" stroke-linejoin="round" stroke-linecap="butt" d="m475.28952 309.95102l-8.493866 -3.7879639" fill-rule="evenodd"/><path fill="#000000" stroke="#000000" stroke-width="2.0" stroke-linecap="butt" d="m473.94403 312.96808l9.634735 0.6796875l-6.943756 -6.7137756z" fill-rule="evenodd"/><path fill="#000000" d="m485.35638 315.00513l0 0c0 0.7685852 0.6230469 1.3916321 1.3916321 1.3916321l0 0c0.3691101 0 0.7230835 -0.14660645 0.9840393 -0.40759277c0.26098633 -0.26098633 0.4076233 -0.6149597 0.4076233 -0.9840393l0 0c0 -0.7685852 -0.6230774 -1.3916626 -1.3916626 -1.3916626l0 0c-0.7685852 0 -1.3916321 0.6230774 -1.3916321 1.3916626z" fill-rule="evenodd"/><path stroke="#000000" stroke-width="1.0" stroke-linejoin="round" stroke-linecap="butt" d="m485.35638 315.00513l0 0c0 0.7685852 0.6230469 1.3916321 1.3916321 1.3916321l0 0c0.3691101 0 0.7230835 -0.14660645 0.9840393 -0.40759277c0.26098633 -0.26098633 0.4076233 -0.6149597 0.4076233 -0.9840393l0 0c0 -0.7685852 -0.6230774 -1.3916626 -1.3916626 -1.3916626l0 0c-0.7685852 0 -1.3916321 0.6230774 -1.3916321 1.3916626z" fill-rule="evenodd"/><path fill="#ffffff" d="m414.765 317.6974l48.0 0l0 -24.0l-48.0 0z" fill-rule="evenodd"/><path stroke="#000000" stroke-width="1.0" stroke-linejoin="round" stroke-linecap="butt" d="m414.765 317.6974l48.0 0l0 -24.0l-48.0 0z" fill-rule="evenodd"/><path fill="#000000" fill-opacity="0.0" d="m439.28098 314.83862l19.4534 -8.675568" fill-rule="evenodd"/><path stroke="#000000" stroke-width="2.0" stroke-linejoin="round" stroke-linecap="butt" d="m450.24048 309.95102l8.4938965 -3.7879639" fill-rule="evenodd"/><path fill="#000000" stroke="#000000" stroke-width="2.0" stroke-linecap="butt" d="m448.89502 306.934l-6.943756 6.7137756l9.634735 -0.6796875z" fill-rule="evenodd"/><path fill="#000000" fill-opacity="0.0" d="m438.76227 315.695l0 -20.696991" fill-rule="evenodd"/><path stroke="#000000" stroke-width="2.0" stroke-linejoin="round" stroke-linecap="butt" d="m438.76227 303.69504l0 -8.6970215" fill-rule="evenodd"/><path fill="#000000" stroke="#000000" stroke-width="2.0" stroke-linecap="butt" d="m435.4588 303.69504l3.3034668 9.076172l3.3034668 -9.076172z" fill-rule="evenodd"/><path fill="#000000" fill-opacity="0.0" d="m438.24905 314.83862l-19.4534 -8.675568" fill-rule="evenodd"/><path stroke="#000000" stroke-width="2.0" stroke-linejoin="round" stroke-linecap="butt" d="m427.28952 309.95102l-8.493866 -3.7879639" fill-rule="evenodd"/><path fill="#000000" stroke="#000000" stroke-width="2.0" stroke-linecap="butt" d="m425.94403 312.96808l9.634735 0.6796875l-6.943756 -6.7137756z" fill-rule="evenodd"/><path fill="#000000" d="m437.35638 315.00513l0 0c0 0.7685852 0.6230469 1.3916321 1.3916321 1.3916321l0 0c0.3691101 0 0.7230835 -0.14660645 0.9840393 -0.40759277c0.26098633 -0.26098633 0.4076233 -0.6149597 0.4076233 -0.9840393l0 0c0 -0.7685852 -0.6230774 -1.3916626 -1.3916626 -1.3916626l0 0c-0.7685852 0 -1.3916321 0.6230774 -1.3916321 1.3916626z" fill-rule="evenodd"/><path stroke="#000000" stroke-width="1.0" stroke-linejoin="round" stroke-linecap="butt" d="m437.35638 315.00513l0 0c0 0.7685852 0.6230469 1.3916321 1.3916321 1.3916321l0 0c0.3691101 0 0.7230835 -0.14660645 0.9840393 -0.40759277c0.26098633 -0.26098633 0.4076233 -0.6149597 0.4076233 -0.9840393l0 0c0 -0.7685852 -0.6230774 -1.3916626 -1.3916626 -1.3916626l0 0c-0.7685852 0 -1.3916321 0.6230774 -1.3916321 1.3916626z" fill-rule="evenodd"/><path fill="#ffffff" d="m462.765 293.6974l48.0 0l0 -24.0l-48.0 0z" fill-rule="evenodd"/><path stroke="#000000" stroke-width="1.0" stroke-linejoin="round" stroke-linecap="butt" d="m462.765 293.6974l48.0 0l0 -24.0l-48.0 0z" fill-rule="evenodd"/><path fill="#000000" fill-opacity="0.0" d="m487.28098 290.83862l19.4534 -8.675568" fill-rule="evenodd"/><path stroke="#000000" stroke-width="2.0" stroke-linejoin="round" stroke-linecap="butt" d="m487.28098 290.83862l8.493866 -3.7879639" fill-rule="evenodd"/><path fill="#000000" stroke="#000000" stroke-width="2.0" stroke-linecap="butt" d="m497.12033 290.0677l6.943756 -6.7137756l-9.634735 0.6796875z" fill-rule="evenodd"/><path fill="#000000" fill-opacity="0.0" d="m486.76227 291.695l0 -20.696991" fill-rule="evenodd"/><path stroke="#000000" stroke-width="2.0" stroke-linejoin="round" stroke-linecap="butt" d="m486.76227 291.69504l0 -8.6970215" fill-rule="evenodd"/><path fill="#000000" stroke="#000000" stroke-width="2.0" stroke-linecap="butt" d="m490.06573 282.99802l-3.3034668 -9.076202l-3.3034668 9.076202z" fill-rule="evenodd"/><path fill="#000000" fill-opacity="0.0" d="m486.24905 290.83862l-19.4534 -8.675568" fill-rule="evenodd"/><path stroke="#000000" stroke-width="2.0" stroke-linejoin="round" stroke-linecap="butt" d="m486.24905 290.83862l-8.4938965 -3.7879639" fill-rule="evenodd"/><path fill="#000000" stroke="#000000" stroke-width="2.0" stroke-linecap="butt" d="m479.10068 284.0336l-9.634735 -0.6796875l6.943756 6.7137756z" fill-rule="evenodd"/><path fill="#000000" d="m485.35638 291.00513l0 0c0 0.7685852 0.6230469 1.3916321 1.3916321 1.3916321l0 0c0.3691101 0 0.7230835 -0.14660645 0.9840393 -0.40759277c0.26098633 -0.26098633 0.4076233 -0.6149597 0.4076233 -0.9840393l0 0c0 -0.7685852 -0.6230774 -1.3916626 -1.3916626 -1.3916626l0 0c-0.7685852 0 -1.3916321 0.6230774 -1.3916321 1.3916626z" fill-rule="evenodd"/><path stroke="#000000" stroke-width="1.0" stroke-linejoin="round" stroke-linecap="butt" d="m485.35638 291.00513l0 0c0 0.7685852 0.6230469 1.3916321 1.3916321 1.3916321l0 0c0.3691101 0 0.7230835 -0.14660645 0.9840393 -0.40759277c0.26098633 -0.26098633 0.4076233 -0.6149597 0.4076233 -0.9840393l0 0c0 -0.7685852 -0.6230774 -1.3916626 -1.3916626 -1.3916626l0 0c-0.7685852 0 -1.3916321 0.6230774 -1.3916321 1.3916626z" fill-rule="evenodd"/><path fill="#ffffff" d="m414.765 269.6974l48.0 0l0 24.0l-48.0 0z" fill-rule="evenodd"/><path stroke="#000000" stroke-width="1.0" stroke-linejoin="round" stroke-linecap="butt" d="m414.765 269.6974l48.0 0l0 24.0l-48.0 0z" fill-rule="evenodd"/><path fill="#000000" fill-opacity="0.0" d="m439.28098 272.55615l19.46457 8.661407" fill-rule="evenodd"/><path stroke="#000000" stroke-width="2.0" stroke-linejoin="round" stroke-linecap="butt" d="m439.28098 272.55615l8.501007 3.7828064" fill-rule="evenodd"/><path fill="#000000" stroke="#000000" stroke-width="2.0" stroke-linecap="butt" d="m446.43896 279.35712l9.635284 0.67178345l-6.9492493 -6.708069z" fill-rule="evenodd"/><path fill="#000000" fill-opacity="0.0" d="m438.76227 271.69977l0 20.692902" fill-rule="evenodd"/><path stroke="#000000" stroke-width="2.0" stroke-linejoin="round" stroke-linecap="butt" d="m438.76227 271.69977l0 8.692902" fill-rule="evenodd"/><path fill="#000000" stroke="#000000" stroke-width="2.0" stroke-linecap="butt" d="m435.4588 280.39267l3.3034668 9.076202l3.3034668 -9.076202z" fill-rule="evenodd"/><path fill="#000000" fill-opacity="0.0" d="m438.24905 272.55615l-19.46457 8.661407" fill-rule="evenodd"/><path stroke="#000000" stroke-width="2.0" stroke-linejoin="round" stroke-linecap="butt" d="m438.24905 272.55615l-8.501038 3.7828064" fill-rule="evenodd"/><path fill="#000000" stroke="#000000" stroke-width="2.0" stroke-linecap="butt" d="m428.405 273.32083l-6.9492493 6.708069l9.635315 -0.67178345z" fill-rule="evenodd"/><path fill="#000000" d="m437.35638 272.38385l0 0c0 -0.76538086 0.6204529 -1.3858337 1.3858337 -1.3858337l0 0c0.3675232 0 0.72003174 0.1459961 0.97991943 0.4058838c0.2598877 0.2599182 0.4059143 0.61239624 0.4059143 0.97994995l0 0c0 0.76535034 -0.6204834 1.3858032 -1.3858337 1.3858032l0 0c-0.76538086 0 -1.3858337 -0.6204529 -1.3858337 -1.3858032z" fill-rule="evenodd"/><path stroke="#000000" stroke-width="1.0" stroke-linejoin="round" stroke-linecap="butt" d="m437.35638 272.38385l0 0c0 -0.76538086 0.6204529 -1.3858337 1.3858337 -1.3858337l0 0c0.3675232 0 0.72003174 0.1459961 0.97991943 0.4058838c0.2598877 0.2599182 0.4059143 0.61239624 0.4059143 0.97994995l0 0c0 0.76535034 -0.6204834 1.3858032 -1.3858337 1.3858032l0 0c-0.76538086 0 -1.3858337 -0.6204529 -1.3858337 -1.3858032z" fill-rule="evenodd"/><path fill="#ffffff" d="m414.765 245.69739l48.0 0l0 24.0l-48.0 0z" fill-rule="evenodd"/><path stroke="#000000" stroke-width="1.0" stroke-linejoin="round" stroke-linecap="butt" d="m414.765 245.69739l48.0 0l0 24.0l-48.0 0z" fill-rule="evenodd"/><path fill="#ffffff" d="m412.98547 187.5872l0 0c0 -1.4901733 1.2080383 -2.6982117 2.6982422 -2.6982117l35.894897 0c0.7156067 0 1.4019165 0.28427124 1.9079285 0.7902832c0.50601196 0.50601196 0.7902832 1.1923218 0.7902832 1.9079285l0 10.7925415c0 1.4901886 -1.2080383 2.698227 -2.6982117 2.698227l-35.894897 0l0 0c-1.4902039 0 -2.6982422 -1.2080383 -2.6982422 -2.698227z" fill-rule="evenodd"/><path stroke="#000000" stroke-width="1.0" stroke-linejoin="round" stroke-linecap="butt" d="m412.98547 187.5872l0 0c0 -1.4901733 1.2080383 -2.6982117 2.6982422 -2.6982117l35.894897 0c0.7156067 0 1.4019165 0.28427124 1.9079285 0.7902832c0.50601196 0.50601196 0.7902832 1.1923218 0.7902832 1.9079285l0 10.7925415c0 1.4901886 -1.2080383 2.698227 -2.6982117 2.698227l-35.894897 0l0 0c-1.4902039 0 -2.6982422 -1.2080383 -2.6982422 -2.698227z" fill-rule="evenodd"/><path fill="#ffffff" d="m429.24796 189.11475l0 0c0 -1.0350037 0.8390503 -1.874054 1.874054 -1.874054l19.18103 0c0.4970398 0 0.97369385 0.19744873 1.3251648 0.5489044c0.35144043 0.3514557 0.54888916 0.828125 0.54888916 1.3251495l0 7.495987c0 1.0350189 -0.8390503 1.874054 -1.874054 1.874054l-19.18103 0l0 0c-1.0350037 0 -1.874054 -0.83903503 -1.874054 -1.874054z" fill-rule="evenodd"/><path stroke="#999999" stroke-width="1.0" stroke-linejoin="round" stroke-linecap="butt" d="m429.24796 189.11475l0 0c0 -1.0350037 0.8390503 -1.874054 1.874054 -1.874054l19.18103 0c0.4970398 0 0.97369385 0.19744873 1.3251648 0.5489044c0.35144043 0.3514557 0.54888916 0.828125 0.54888916 1.3251495l0 7.495987c0 1.0350189 -0.8390503 1.874054 -1.874054 1.874054l-19.18103 0l0 0c-1.0350037 0 -1.874054 -0.83903503 -1.874054 -1.874054z" fill-rule="evenodd"/><path fill="#000000" fill-opacity="0.0" d="m421.13095 267.38528l0 0c-0.9579468 0 -1.7345276 -1.1112976 -1.7345276 -2.4821472l0 -14.71196l0 0c0 -1.3708496 0.7765808 -2.4821472 1.7345276 -2.4821472z" fill-rule="evenodd"/><path fill="#000000" fill-opacity="0.0" d="m421.13095 267.38528l0 0c-0.9579468 0 -1.7345276 -1.1112976 -1.7345276 -2.4821472l0 -14.71196l0 0c0 -1.3708496 0.7765808 -2.4821472 1.7345276 -2.4821472" fill-rule="evenodd"/><path stroke="#000000" stroke-width="2.0" stroke-linejoin="round" stroke-linecap="butt" d="m421.13095 267.38528l0 0c-0.9579468 0 -1.7345276 -1.1112976 -1.7345276 -2.4821472l0 -14.71196l0 0c0 -1.3708496 0.7765808 -2.4821472 1.7345276 -2.4821472" fill-rule="evenodd"/><path fill="#000000" fill-opacity="0.0" d="m457.37643 267.38528l0 0c0.9579468 0 1.7344971 -1.1112976 1.7344971 -2.4821472l0 -14.71196l0 0c0 -1.3708496 -0.7765503 -2.4821472 -1.7344971 -2.4821472z" fill-rule="evenodd"/><path fill="#000000" fill-opacity="0.0" d="m457.37643 267.38528l0 0c0.9579468 0 1.7344971 -1.1112976 1.7344971 -2.4821472l0 -14.71196l0 0c0 -1.3708496 -0.7765503 -2.4821472 -1.7344971 -2.4821472" fill-rule="evenodd"/><path stroke="#000000" stroke-width="2.0" stroke-linejoin="round" stroke-linecap="butt" d="m457.37643 267.38528l0 0c0.9579468 0 1.7344971 -1.1112976 1.7344971 -2.4821472l0 -14.71196l0 0c0 -1.3708496 -0.7765503 -2.4821472 -1.7344971 -2.4821472" fill-rule="evenodd"/><path fill="#000000" fill-opacity="0.0" d="m437.06723 263.80008l0 0c-0.9579468 0 -1.7344971 -1.1112976 -1.7344971 -2.4821472l0 -7.5415497l0 0c0 -1.3708496 0.7765503 -2.4821472 1.7344971 -2.4821472z" fill-rule="evenodd"/><path fill="#000000" fill-opacity="0.0" d="m437.06723 263.80008l0 0c-0.9579468 0 -1.7344971 -1.1112976 -1.7344971 -2.4821472l0 -7.5415497l0 0c0 -1.3708496 0.7765503 -2.4821472 1.7344971 -2.4821472" fill-rule="evenodd"/><path stroke="#b7b7b7" stroke-width="2.0" stroke-linejoin="round" stroke-linecap="butt" d="m437.06723 263.80008l0 0c-0.9579468 0 -1.7344971 -1.1112976 -1.7344971 -2.4821472l0 -7.5415497l0 0c0 -1.3708496 0.7765503 -2.4821472 1.7344971 -2.4821472" fill-rule="evenodd"/><path fill="#000000" fill-opacity="0.0" d="m453.74786 263.80008l0 0c0.9579468 0 1.7344971 -1.1112976 1.7344971 -2.4821472l0 -7.5415497l0 0c0 -1.3708496 -0.7765503 -2.4821472 -1.7344971 -2.4821472z" fill-rule="evenodd"/><path fill="#000000" fill-opacity="0.0" d="m453.74786 263.80008l0 0c0.9579468 0 1.7344971 -1.1112976 1.7344971 -2.4821472l0 -7.5415497l0 0c0 -1.3708496 -0.7765503 -2.4821472 -1.7344971 -2.4821472" fill-rule="evenodd"/><path stroke="#b7b7b7" stroke-width="2.0" stroke-linejoin="round" stroke-linecap="butt" d="m453.74786 263.80008l0 0c0.9579468 0 1.7344971 -1.1112976 1.7344971 -2.4821472l0 -7.5415497l0 0c0 -1.3708496 -0.7765503 -2.4821472 -1.7344971 -2.4821472" fill-rule="evenodd"/><path fill="#ffffff" d="m414.765 221.69739l48.0 0l0 24.0l-48.0 0z" fill-rule="evenodd"/><path stroke="#000000" stroke-width="1.0" stroke-linejoin="round" stroke-linecap="butt" d="m414.765 221.69739l48.0 0l0 24.0l-48.0 0z" fill-rule="evenodd"/><path fill="#000000" fill-opacity="0.0" d="m425.83606 231.2589l0 0c2.0608215 -2.8924103 5.8529663 -4.8937225 10.224915 -5.3962097c4.3719788 -0.5024872 8.807922 0.55311584 11.960846 2.846283l-9.811005 7.361618z" fill-rule="evenodd"/><path fill="#000000" fill-opacity="0.0" d="m425.83606 231.2589l0 0c2.0608215 -2.8924103 5.8529663 -4.8937225 10.224915 -5.3962097c4.3719788 -0.5024872 8.807922 0.55311584 11.960846 2.846283" fill-rule="evenodd"/><path stroke="#000000" stroke-width="2.0" stroke-linejoin="round" stroke-linecap="butt" d="m425.83603 231.25888l0 0c2.0608215 -2.892395 5.852997 -4.8937073 10.224945 -5.3962097c1.0929871 -0.12561035 2.1900024 -0.15383911 3.269928 -0.08972168l0.17895508 0.012573242" fill-rule="evenodd"/><path fill="#000000" stroke="#000000" stroke-width="2.0" stroke-linecap="butt" d="m438.79147 227.87714l6.465088 -0.11790466l-5.0283203 -4.0653534z" fill-rule="evenodd"/><path fill="#ffffff" d="m447.9372 232.93361l0 0c0 1.3220062 1.0717163 2.3937073 2.3937073 2.3937073l0 0c0.6348572 0 1.2437134 -0.25219727 1.6925964 -0.7010956c0.44891357 -0.44891357 0.70111084 -1.0577545 0.70111084 -1.6926117l0 0c0 -1.3220062 -1.0716858 -2.393692 -2.3937073 -2.393692l0 0c-1.321991 0 -2.3937073 1.0716858 -2.3937073 2.393692z" fill-rule="evenodd"/><path stroke="#000000" stroke-width="2.0" stroke-linejoin="round" stroke-linecap="butt" d="m447.9372 232.93361l0 0c0 1.3220062 1.0717163 2.3937073 2.3937073 2.3937073l0 0c0.6348572 0 1.2437134 -0.25219727 1.6925964 -0.7010956c0.44891357 -0.44891357 0.70111084 -1.0577545 0.70111084 -1.6926117l0 0c0 -1.3220062 -1.0716858 -2.393692 -2.3937073 -2.393692l0 0c-1.321991 0 -2.3937073 1.0716858 -2.3937073 2.393692z" fill-rule="evenodd"/><path fill="#ffffff" d="m426.47845 234.4757l0 0c0 -1.3220062 -1.0716858 -2.393692 -2.3936768 -2.393692l0 0c-0.6348572 0 -1.2437134 0.252182 -1.692627 0.7010956c-0.44888306 0.44889832 -0.7010803 1.0577545 -0.7010803 1.6925964l0 0c0 1.3220062 1.0716858 2.3937073 2.3937073 2.3937073l0 0c1.321991 0 2.3936768 -1.071701 2.3936768 -2.3937073z" fill-rule="evenodd"/><path stroke="#000000" stroke-width="2.0" stroke-linejoin="round" stroke-linecap="butt" d="m426.47845 234.4757l0 0c0 -1.3220062 -1.0716858 -2.393692 -2.3936768 -2.393692l0 0c-0.6348572 0 -1.2437134 0.252182 -1.692627 0.7010956c-0.44888306 0.44889832 -0.7010803 1.0577545 -0.7010803 1.6925964l0 0c0 1.3220062 1.0716858 2.3937073 2.3937073 2.3937073l0 0c1.321991 0 2.3936768 -1.071701 2.3936768 -2.3937073z" fill-rule="evenodd"/><path fill="#000000" fill-opacity="0.0" d="m448.9606 236.06978l0 0c-2.0608215 2.8924103 -5.8529663 4.8937225 -10.224945 5.3962097c-4.3719482 0.5024872 -8.807892 -0.55311584 -11.960815 -2.846283l9.810974 -7.361618z" fill-rule="evenodd"/><path fill="#000000" fill-opacity="0.0" d="m448.9606 236.06978l0 0c-2.0608215 2.8924103 -5.8529663 4.8937225 -10.224945 5.3962097c-4.3719482 0.5024872 -8.807892 -0.55311584 -11.960815 -2.846283" fill-rule="evenodd"/><path stroke="#000000" stroke-width="2.0" stroke-linejoin="round" stroke-linecap="butt" d="m448.9606 236.06978l0 0c-2.0608215 2.8924103 -5.852936 4.8937225 -10.224915 5.3962097c-1.0929565 0.12562561 -2.1900024 0.15386963 -3.269928 0.08972168l-0.1789856 -0.012542725" fill-rule="evenodd"/><path fill="#000000" stroke="#000000" stroke-width="2.0" stroke-linecap="butt" d="m436.00516 239.45152l-6.465088 0.11791992l5.0283203 4.065338z" fill-rule="evenodd"/><path fill="#ffffff" d="m526.0931 295.899l48.0 0l0 -24.0l-48.0 0z" fill-rule="evenodd"/><path stroke="#000000" stroke-width="1.0" stroke-linejoin="round" stroke-linecap="butt" d="m526.0931 295.899l48.0 0l0 -24.0l-48.0 0z" fill-rule="evenodd"/><path fill="#ffffff" d="m526.0931 247.899l48.0 0l0 23.999985l-48.0 0z" fill-rule="evenodd"/><path stroke="#000000" stroke-width="1.0" stroke-linejoin="round" stroke-linecap="butt" d="m526.0931 247.899l48.0 0l0 23.999985l-48.0 0z" fill-rule="evenodd"/><path fill="#000000" fill-opacity="0.0" d="m550.4937 252.80241l15.114258 6.725601" fill-rule="evenodd"/><path stroke="#000000" stroke-width="1.0" stroke-linejoin="round" stroke-linecap="butt" d="m550.4937 252.80241l9.632446 4.2863007" fill-rule="evenodd"/><path fill="#000000" stroke="#000000" stroke-width="1.0" stroke-linecap="butt" d="m559.4547 258.59778l4.817627 0.33590698l-3.4746094 -3.3540497z" fill-rule="evenodd"/><path fill="#000000" fill-opacity="0.0" d="m550.091 252.13742l0 16.068054" fill-rule="evenodd"/><path stroke="#000000" stroke-width="1.0" stroke-linejoin="round" stroke-linecap="butt" d="m550.09094 252.13742l0 10.068054" fill-rule="evenodd"/><path fill="#000000" stroke="#000000" stroke-width="1.0" stroke-linecap="butt" d="m548.4392 262.20547l1.6517334 4.5381165l1.6517334 -4.5381165z" fill-rule="evenodd"/><path fill="#000000" fill-opacity="0.0" d="m549.69244 252.80241l-15.114197 6.725601" fill-rule="evenodd"/><path stroke="#000000" stroke-width="1.0" stroke-linejoin="round" stroke-linecap="butt" d="m549.69244 252.80241l-9.632446 4.2863007" fill-rule="evenodd"/><path fill="#000000" stroke="#000000" stroke-width="1.0" stroke-linecap="butt" d="m539.3885 255.57964l-3.4746094 3.3540497l4.817627 -0.33590698z" fill-rule="evenodd"/><path fill="#000000" d="m548.99927 252.66861l0 0c0 -0.5942993 0.48181152 -1.0760956 1.0761108 -1.0760956l0 0c0.2854004 0 0.55914307 0.11338806 0.7609253 0.31518555c0.20178223 0.20181274 0.31518555 0.4755249 0.31518555 0.76091003l0 0c0 0.5943146 -0.48181152 1.0760956 -1.0761108 1.0760956l0 0c-0.5942993 0 -1.0761108 -0.481781 -1.0761108 -1.0760956z" fill-rule="evenodd"/><path stroke="#000000" stroke-width="1.0" stroke-linejoin="round" stroke-linecap="butt" d="m548.99927 252.66861l0 0c0 -0.5942993 0.48181152 -1.0760956 1.0761108 -1.0760956l0 0c0.2854004 0 0.55914307 0.11338806 0.7609253 0.31518555c0.20178223 0.20181274 0.31518555 0.4755249 0.31518555 0.76091003l0 0c0 0.5943146 -0.48181152 1.0760956 -1.0761108 1.0760956l0 0c-0.5942993 0 -1.0761108 -0.481781 -1.0761108 -1.0760956z" fill-rule="evenodd"/><path fill="#ffffff" d="m526.0931 223.899l48.0 0l0 24.0l-48.0 0z" fill-rule="evenodd"/><path stroke="#000000" stroke-width="1.0" stroke-linejoin="round" stroke-linecap="butt" d="m526.0931 223.899l48.0 0l0 24.0l-48.0 0z" fill-rule="evenodd"/><path fill="#000000" fill-opacity="0.0" d="m532.45905 245.5869l0 0c-0.9579468 0 -1.7345581 -1.1112976 -1.7345581 -2.4821472l0 -14.71196l0 0c0 -1.3708496 0.7766113 -2.4821472 1.7345581 -2.4821472z" fill-rule="evenodd"/><path fill="#000000" fill-opacity="0.0" d="m532.45905 245.5869l0 0c-0.9579468 0 -1.7345581 -1.1112976 -1.7345581 -2.4821472l0 -14.71196l0 0c0 -1.3708496 0.7766113 -2.4821472 1.7345581 -2.4821472" fill-rule="evenodd"/><path stroke="#000000" stroke-width="1.0" stroke-linejoin="round" stroke-linecap="butt" d="m532.45905 245.5869l0 0c-0.9579468 0 -1.7345581 -1.1112976 -1.7345581 -2.4821472l0 -14.71196l0 0c0 -1.3708496 0.7766113 -2.4821472 1.7345581 -2.4821472" fill-rule="evenodd"/><path fill="#000000" fill-opacity="0.0" d="m568.7045 245.5869l0 0c0.9579468 0 1.7344971 -1.1112976 1.7344971 -2.4821472l0 -14.71196l0 0c0 -1.3708496 -0.7765503 -2.4821472 -1.7344971 -2.4821472z" fill-rule="evenodd"/><path fill="#000000" fill-opacity="0.0" d="m568.7045 245.5869l0 0c0.9579468 0 1.7344971 -1.1112976 1.7344971 -2.4821472l0 -14.71196l0 0c0 -1.3708496 -0.7765503 -2.4821472 -1.7344971 -2.4821472" fill-rule="evenodd"/><path stroke="#000000" stroke-width="1.0" stroke-linejoin="round" stroke-linecap="butt" d="m568.7045 245.5869l0 0c0.9579468 0 1.7344971 -1.1112976 1.7344971 -2.4821472l0 -14.71196l0 0c0 -1.3708496 -0.7765503 -2.4821472 -1.7344971 -2.4821472" fill-rule="evenodd"/><path fill="#000000" fill-opacity="0.0" d="m548.3953 242.0017l0 0c-0.9579468 0 -1.7344971 -1.1112976 -1.7344971 -2.4821472l0 -7.5415497l0 0c0 -1.3708496 0.7765503 -2.4821472 1.7344971 -2.4821472z" fill-rule="evenodd"/><path fill="#000000" fill-opacity="0.0" d="m548.3953 242.0017l0 0c-0.9579468 0 -1.7344971 -1.1112976 -1.7344971 -2.4821472l0 -7.5415497l0 0c0 -1.3708496 0.7765503 -2.4821472 1.7344971 -2.4821472" fill-rule="evenodd"/><path stroke="#b7b7b7" stroke-width="1.0" stroke-linejoin="round" stroke-linecap="butt" d="m548.3953 242.0017l0 0c-0.9579468 0 -1.7344971 -1.1112976 -1.7344971 -2.4821472l0 -7.5415497l0 0c0 -1.3708496 0.7765503 -2.4821472 1.7344971 -2.4821472" fill-rule="evenodd"/><path fill="#000000" fill-opacity="0.0" d="m565.0759 242.0017l0 0c0.9579468 0 1.7344971 -1.1112976 1.7344971 -2.4821472l0 -7.5415497l0 0c0 -1.3708496 -0.7765503 -2.4821472 -1.7344971 -2.4821472z" fill-rule="evenodd"/><path fill="#000000" fill-opacity="0.0" d="m565.0759 242.0017l0 0c0.9579468 0 1.7344971 -1.1112976 1.7344971 -2.4821472l0 -7.5415497l0 0c0 -1.3708496 -0.7765503 -2.4821472 -1.7344971 -2.4821472" fill-rule="evenodd"/><path stroke="#b7b7b7" stroke-width="1.0" stroke-linejoin="round" stroke-linecap="butt" d="m565.0759 242.0017l0 0c0.9579468 0 1.7344971 -1.1112976 1.7344971 -2.4821472l0 -7.5415497l0 0c0 -1.3708496 -0.7765503 -2.4821472 -1.7344971 -2.4821472" fill-rule="evenodd"/><path fill="#ffffff" d="m526.0931 199.899l48.0 0l0 24.0l-48.0 0z" fill-rule="evenodd"/><path stroke="#000000" stroke-width="1.0" stroke-linejoin="round" stroke-linecap="butt" d="m526.0931 199.899l48.0 0l0 24.0l-48.0 0z" fill-rule="evenodd"/><path fill="#000000" fill-opacity="0.0" d="m537.1641 209.4605l0 0c2.060852 -2.8924103 5.8529663 -4.8937073 10.224915 -5.3962097c4.3720093 -0.5024872 8.807922 0.5531311 11.960876 2.846283l-9.810974 7.361618z" fill-rule="evenodd"/><path fill="#000000" fill-opacity="0.0" d="m537.1641 209.4605l0 0c2.060852 -2.8924103 5.8529663 -4.8937073 10.224915 -5.3962097c4.3720093 -0.5024872 8.807922 0.5531311 11.960876 2.846283" fill-rule="evenodd"/><path stroke="#000000" stroke-width="1.0" stroke-linejoin="round" stroke-linecap="butt" d="m537.1641 209.46048l0 0c2.060791 -2.8923798 5.8529663 -4.893692 10.224915 -5.3961945c2.1860352 -0.25125122 4.3880005 -0.112960815 6.437561 0.37477112c0.5124512 0.12194824 1.0153198 0.26571655 1.5060425 0.43070984l0.0056762695 0.0019683838" fill-rule="evenodd"/><path fill="#000000" stroke="#000000" stroke-width="1.0" stroke-linecap="butt" d="m554.8373 205.85751l3.2093506 0.39071655l-2.2073364 -2.362259z" fill-rule="evenodd"/><path fill="#ffffff" d="m559.2653 211.13522l0 0c0 1.3220062 1.0716553 2.393692 2.3936768 2.393692l0 0c0.63482666 0 1.2437134 -0.252182 1.6925659 -0.7010956c0.44891357 -0.44889832 0.70111084 -1.0577545 0.70111084 -1.6925964l0 0c0 -1.3220062 -1.0716553 -2.3937073 -2.3936768 -2.3937073l0 0c-1.3220215 0 -2.3936768 1.071701 -2.3936768 2.3937073z" fill-rule="evenodd"/><path stroke="#000000" stroke-width="1.0" stroke-linejoin="round" stroke-linecap="butt" d="m559.2653 211.13522l0 0c0 1.3220062 1.0716553 2.393692 2.3936768 2.393692l0 0c0.63482666 0 1.2437134 -0.252182 1.6925659 -0.7010956c0.44891357 -0.44889832 0.70111084 -1.0577545 0.70111084 -1.6925964l0 0c0 -1.3220062 -1.0716553 -2.3937073 -2.3936768 -2.3937073l0 0c-1.3220215 0 -2.3936768 1.071701 -2.3936768 2.3937073z" fill-rule="evenodd"/><path fill="#ffffff" d="m537.8065 212.6773l0 0c0 -1.3220062 -1.0716553 -2.3937073 -2.3936768 -2.3937073l0 0c-0.63482666 0 -1.2437134 0.25219727 -1.6925659 0.7010956c-0.44891357 0.44891357 -0.70111084 1.0577545 -0.70111084 1.6926117l0 0c0 1.3220062 1.0716553 2.393692 2.3936768 2.393692l0 0c1.3220215 0 2.3936768 -1.0716858 2.3936768 -2.393692z" fill-rule="evenodd"/><path stroke="#000000" stroke-width="1.0" stroke-linejoin="round" stroke-linecap="butt" d="m537.8065 212.6773l0 0c0 -1.3220062 -1.0716553 -2.3937073 -2.3936768 -2.3937073l0 0c-0.63482666 0 -1.2437134 0.25219727 -1.6925659 0.7010956c-0.44891357 0.44891357 -0.70111084 1.0577545 -0.70111084 1.6926117l0 0c0 1.3220062 1.0716553 2.393692 2.3936768 2.393692l0 0c1.3220215 0 2.3936768 -1.0716858 2.3936768 -2.393692z" fill-rule="evenodd"/><path fill="#000000" fill-opacity="0.0" d="m560.2887 214.2714l0 0c-2.060852 2.8924103 -5.8529663 4.8937073 -10.224915 5.3962097c-4.3720093 0.5024872 -8.807922 -0.5531311 -11.960876 -2.846283l9.811035 -7.3616333z" fill-rule="evenodd"/><path fill="#000000" fill-opacity="0.0" d="m560.2887 214.2714l0 0c-2.060852 2.8924103 -5.8529663 4.8937073 -10.224915 5.3962097c-4.3720093 0.5024872 -8.807922 -0.5531311 -11.960876 -2.846283" fill-rule="evenodd"/><path stroke="#000000" stroke-width="1.0" stroke-linejoin="round" stroke-linecap="butt" d="m560.2887 214.2714l0 0c-2.060852 2.8924103 -5.8529663 4.8937225 -10.224915 5.3961945c-2.1859741 0.25125122 -4.3879395 0.112960815 -6.437622 -0.37475586c-0.5123291 -0.12194824 -1.0151978 -0.2657013 -1.5059814 -0.43070984l-0.0056152344 -0.0019683838" fill-rule="evenodd"/><path fill="#000000" stroke="#000000" stroke-width="1.0" stroke-linecap="butt" d="m542.61554 217.87437l-3.2094116 -0.3907013l2.2073975 2.3622437z" fill-rule="evenodd"/><path fill="#ffffff" d="m574.0931 247.899l48.0 0l0 23.999985l-48.0 0z" fill-rule="evenodd"/><path stroke="#000000" stroke-width="1.0" stroke-linejoin="round" stroke-linecap="butt" d="m574.0931 247.899l48.0 0l0 23.999985l-48.0 0z" fill-rule="evenodd"/><path fill="#000000" fill-opacity="0.0" d="m598.4937 266.99557l15.114258 -6.725586" fill-rule="evenodd"/><path stroke="#000000" stroke-width="1.0" stroke-linejoin="round" stroke-linecap="butt" d="m598.4937 266.99557l9.632446 -4.2862854" fill-rule="evenodd"/><path fill="#000000" stroke="#000000" stroke-width="1.0" stroke-linecap="butt" d="m608.7977 264.21835l3.4746094 -3.3540344l-4.817627 0.33590698z" fill-rule="evenodd"/><path fill="#000000" fill-opacity="0.0" d="m598.091 267.66055l0 -16.068039" fill-rule="evenodd"/><path stroke="#000000" stroke-width="1.0" stroke-linejoin="round" stroke-linecap="butt" d="m598.09094 267.66058l0 -10.068054" fill-rule="evenodd"/><path fill="#000000" stroke="#000000" stroke-width="1.0" stroke-linecap="butt" d="m599.7427 257.59253l-1.6517334 -4.538101l-1.6517334 4.538101z" fill-rule="evenodd"/><path fill="#000000" fill-opacity="0.0" d="m597.69244 266.99557l-15.114197 -6.725586" fill-rule="evenodd"/><path stroke="#000000" stroke-width="1.0" stroke-linejoin="round" stroke-linecap="butt" d="m597.69244 266.99557l-9.632385 -4.2862854" fill-rule="evenodd"/><path fill="#000000" stroke="#000000" stroke-width="1.0" stroke-linecap="butt" d="m588.7315 261.20023l-4.817627 -0.33590698l3.4746094 3.3540344z" fill-rule="evenodd"/><path fill="#000000" d="m596.99927 267.1294l0 0c0 0.5942993 0.48181152 1.0760803 1.0761108 1.0760803l0 0c0.2854004 0 0.55914307 -0.1133728 0.7609253 -0.31518555c0.20178223 -0.20181274 0.31518555 -0.4755249 0.31518555 -0.7608948l0 0c0 -0.59432983 -0.48181152 -1.0761108 -1.0761108 -1.0761108l0 0c-0.5942993 0 -1.0761108 0.481781 -1.0761108 1.0761108z" fill-rule="evenodd"/><path stroke="#000000" stroke-width="1.0" stroke-linejoin="round" stroke-linecap="butt" d="m596.99927 267.1294l0 0c0 0.5942993 0.48181152 1.0760803 1.0761108 1.0760803l0 0c0.2854004 0 0.55914307 -0.1133728 0.7609253 -0.31518555c0.20178223 -0.20181274 0.31518555 -0.4755249 0.31518555 -0.7608948l0 0c0 -0.59432983 -0.48181152 -1.0761108 -1.0761108 -1.0761108l0 0c-0.5942993 0 -1.0761108 0.481781 -1.0761108 1.0761108z" fill-rule="evenodd"/><path fill="#000000" fill-opacity="0.0" d="m550.4937 276.80243l15.114258 6.725586" fill-rule="evenodd"/><path stroke="#000000" stroke-width="1.0" stroke-linejoin="round" stroke-linecap="butt" d="m555.9755 279.24173l9.632446 4.2862854" fill-rule="evenodd"/><path fill="#000000" stroke="#000000" stroke-width="1.0" stroke-linecap="butt" d="m556.64703 277.73264l-4.817688 -0.33587646l3.4746094 3.3540344z" fill-rule="evenodd"/><path fill="#000000" fill-opacity="0.0" d="m550.091 276.13742l0 16.068054" fill-rule="evenodd"/><path stroke="#000000" stroke-width="1.0" stroke-linejoin="round" stroke-linecap="butt" d="m550.09094 282.13742l0 10.068054" fill-rule="evenodd"/><path fill="#000000" stroke="#000000" stroke-width="1.0" stroke-linecap="butt" d="m551.7427 282.13742l-1.6517334 -4.538086l-1.6517334 4.538086z" fill-rule="evenodd"/><path fill="#000000" fill-opacity="0.0" d="m549.69244 276.80243l-15.114197 6.725586" fill-rule="evenodd"/><path stroke="#000000" stroke-width="1.0" stroke-linejoin="round" stroke-linecap="butt" d="m544.2107 279.24173l-9.632446 4.2862854" fill-rule="evenodd"/><path fill="#000000" stroke="#000000" stroke-width="1.0" stroke-linecap="butt" d="m544.8822 280.7508l3.4746094 -3.3540344l-4.817627 0.33587646z" fill-rule="evenodd"/><path fill="#000000" d="m548.99927 276.6686l0 0c0 -0.5942993 0.48181152 -1.0760803 1.0761108 -1.0760803l0 0c0.2854004 0 0.55914307 0.1133728 0.7609253 0.31518555c0.20178223 0.20178223 0.31518555 0.47549438 0.31518555 0.7608948l0 0c0 0.59432983 -0.48181152 1.0761108 -1.0761108 1.0761108l0 0c-0.5942993 0 -1.0761108 -0.481781 -1.0761108 -1.0761108z" fill-rule="evenodd"/><path stroke="#000000" stroke-width="1.0" stroke-linejoin="round" stroke-linecap="butt" d="m548.99927 276.6686l0 0c0 -0.5942993 0.48181152 -1.0760803 1.0761108 -1.0760803l0 0c0.2854004 0 0.55914307 0.1133728 0.7609253 0.31518555c0.20178223 0.20178223 0.31518555 0.47549438 0.31518555 0.7608948l0 0c0 0.59432983 -0.48181152 1.0761108 -1.0761108 1.0761108l0 0c-0.5942993 0 -1.0761108 -0.481781 -1.0761108 -1.0761108z" fill-rule="evenodd"/><path fill="#ffffff" d="m574.0931 295.899l48.0 0l0 -24.0l-48.0 0z" fill-rule="evenodd"/><path stroke="#000000" stroke-width="1.0" stroke-linejoin="round" stroke-linecap="butt" d="m574.0931 295.899l48.0 0l0 -24.0l-48.0 0z" fill-rule="evenodd"/><path fill="#000000" fill-opacity="0.0" d="m598.4937 290.99557l15.114258 -6.725586" fill-rule="evenodd"/><path stroke="#000000" stroke-width="1.0" stroke-linejoin="round" stroke-linecap="butt" d="m603.9755 288.55627l9.632446 -4.2862854" fill-rule="evenodd"/><path fill="#000000" stroke="#000000" stroke-width="1.0" stroke-linecap="butt" d="m603.304 287.0472l-3.4746704 3.3540344l4.817688 -0.33590698z" fill-rule="evenodd"/><path fill="#000000" fill-opacity="0.0" d="m598.091 291.66055l0 -16.068024" fill-rule="evenodd"/><path stroke="#000000" stroke-width="1.0" stroke-linejoin="round" stroke-linecap="butt" d="m598.09094 285.66058l0 -10.068054" fill-rule="evenodd"/><path fill="#000000" stroke="#000000" stroke-width="1.0" stroke-linecap="butt" d="m596.4392 285.66058l1.6517334 4.538086l1.6517334 -4.538086z" fill-rule="evenodd"/><path fill="#000000" fill-opacity="0.0" d="m597.69244 290.99557l-15.114197 -6.725586" fill-rule="evenodd"/><path stroke="#000000" stroke-width="1.0" stroke-linejoin="round" stroke-linecap="butt" d="m592.2107 288.55627l-9.632446 -4.2862854" fill-rule="evenodd"/><path fill="#000000" stroke="#000000" stroke-width="1.0" stroke-linecap="butt" d="m591.5392 290.06534l4.817627 0.33590698l-3.4746094 -3.3540344z" fill-rule="evenodd"/><path fill="#000000" d="m596.99927 291.1294l0 0c0 0.5942993 0.48181152 1.0760803 1.0761108 1.0760803l0 0c0.2854004 0 0.55914307 -0.1133728 0.7609253 -0.31518555c0.20178223 -0.20181274 0.31518555 -0.4755249 0.31518555 -0.7608948l0 0c0 -0.59432983 -0.48181152 -1.0761108 -1.0761108 -1.0761108l0 0c-0.5942993 0 -1.0761108 0.481781 -1.0761108 1.0761108z" fill-rule="evenodd"/><path stroke="#000000" stroke-width="1.0" stroke-linejoin="round" stroke-linecap="butt" d="m596.99927 291.1294l0 0c0 0.5942993 0.48181152 1.0760803 1.0761108 1.0760803l0 0c0.2854004 0 0.55914307 -0.1133728 0.7609253 -0.31518555c0.20178223 -0.20181274 0.31518555 -0.4755249 0.31518555 -0.7608948l0 0c0 -0.59432983 -0.48181152 -1.0761108 -1.0761108 -1.0761108l0 0c-0.5942993 0 -1.0761108 0.481781 -1.0761108 1.0761108z" fill-rule="evenodd"/><path fill="#ffffff" d="m526.0931 295.899l48.0 0l0 24.0l-48.0 0z" fill-rule="evenodd"/><path stroke="#000000" stroke-width="1.0" stroke-linejoin="round" stroke-linecap="butt" d="m526.0931 295.899l48.0 0l0 24.0l-48.0 0z" fill-rule="evenodd"/><path fill="#000000" fill-opacity="0.0" d="m537.1641 305.4605l0 0c2.060852 -2.8924255 5.8529663 -4.893738 10.224915 -5.3962097c4.3720093 -0.50250244 8.807922 0.5531006 11.960876 2.846283l-9.810974 7.361603z" fill-rule="evenodd"/><path fill="#000000" fill-opacity="0.0" d="m537.1641 305.4605l0 0c2.060852 -2.8924255 5.8529663 -4.893738 10.224915 -5.3962097c4.3720093 -0.50250244 8.807922 0.5531006 11.960876 2.846283" fill-rule="evenodd"/><path stroke="#000000" stroke-width="1.0" stroke-linejoin="round" stroke-linecap="butt" d="m537.1641 305.46048l0 0c2.060791 -2.892395 5.8529663 -4.8937073 10.224915 -5.3962097c2.1860352 -0.25125122 4.3880005 -0.11294556 6.437561 0.37478638c0.5124512 0.12194824 1.0153198 0.26571655 1.5060425 0.4307251l0.0056762695 0.001953125" fill-rule="evenodd"/><path fill="#000000" stroke="#000000" stroke-width="1.0" stroke-linecap="butt" d="m554.8373 301.8575l3.2093506 0.39071655l-2.2073364 -2.3622742z" fill-rule="evenodd"/><path fill="#ffffff" d="m559.2653 307.13522l0 0c0 1.321991 1.0716553 2.3937073 2.3936768 2.3937073l0 0c0.63482666 0 1.2437134 -0.25219727 1.6925659 -0.70111084c0.44891357 -0.44891357 0.70111084 -1.0577393 0.70111084 -1.6925964l0 0c0 -1.3220215 -1.0716553 -2.3937073 -2.3936768 -2.3937073l0 0c-1.3220215 0 -2.3936768 1.0716858 -2.3936768 2.3937073z" fill-rule="evenodd"/><path stroke="#000000" stroke-width="1.0" stroke-linejoin="round" stroke-linecap="butt" d="m559.2653 307.13522l0 0c0 1.321991 1.0716553 2.3937073 2.3936768 2.3937073l0 0c0.63482666 0 1.2437134 -0.25219727 1.6925659 -0.70111084c0.44891357 -0.44891357 0.70111084 -1.0577393 0.70111084 -1.6925964l0 0c0 -1.3220215 -1.0716553 -2.3937073 -2.3936768 -2.3937073l0 0c-1.3220215 0 -2.3936768 1.0716858 -2.3936768 2.3937073z" fill-rule="evenodd"/><path fill="#000000" d="m537.8065 308.6773l0 0c0 -1.3220215 -1.0716553 -2.3937073 -2.3936768 -2.3937073l0 0c-0.63482666 0 -1.2437134 0.25219727 -1.6925659 0.70111084c-0.44891357 0.44888306 -0.70111084 1.0577393 -0.70111084 1.6925964l0 0c0 1.321991 1.0716553 2.3937073 2.3936768 2.3937073l0 0c1.3220215 0 2.3936768 -1.0717163 2.3936768 -2.3937073z" fill-rule="evenodd"/><path stroke="#000000" stroke-width="1.0" stroke-linejoin="round" stroke-linecap="butt" d="m537.8065 308.6773l0 0c0 -1.3220215 -1.0716553 -2.3937073 -2.3936768 -2.3937073l0 0c-0.63482666 0 -1.2437134 0.25219727 -1.6925659 0.70111084c-0.44891357 0.44888306 -0.70111084 1.0577393 -0.70111084 1.6925964l0 0c0 1.321991 1.0716553 2.3937073 2.3936768 2.3937073l0 0c1.3220215 0 2.3936768 -1.0717163 2.3936768 -2.3937073z" fill-rule="evenodd"/><path fill="#000000" fill-opacity="0.0" d="m295.9255 401.2857l46.17383 20.818573" fill-rule="evenodd"/><path stroke="#0000ff" stroke-width="4.0" stroke-linejoin="round" stroke-linecap="butt" d="m295.9255 401.28568l24.294891 10.953949" fill-rule="evenodd"/><path fill="#0000ff" stroke="#0000ff" stroke-width="4.0" stroke-linecap="butt" d="m317.50476 418.26266l19.263763 1.4381104l-13.832489 -13.484161z" fill-rule="evenodd"/><path fill="#000000" fill-opacity="0.0" d="m294.69507 399.22726l0 49.737488" fill-rule="evenodd"/><path stroke="#0000ff" stroke-width="4.0" stroke-linejoin="round" stroke-linecap="butt" d="m294.69507 399.2273l0 25.737488" fill-rule="evenodd"/><path fill="#0000ff" stroke="#0000ff" stroke-width="4.0" stroke-linecap="butt" d="m288.08813 424.96478l6.6069336 18.152374l6.6069336 -18.152374z" fill-rule="evenodd"/><path fill="#000000" fill-opacity="0.0" d="m293.47763 401.2857l-46.17386 20.818573" fill-rule="evenodd"/><path stroke="#0000ff" stroke-width="4.0" stroke-linejoin="round" stroke-linecap="butt" d="m293.47763 401.28568l-24.294922 10.953949" fill-rule="evenodd"/><path fill="#0000ff" stroke="#0000ff" stroke-width="4.0" stroke-linecap="butt" d="m266.46707 406.2166l-13.832489 13.484161l19.263763 -1.4381104z" fill-rule="evenodd"/><path fill="#0000ff" d="m291.36 400.87152l0 0c0 -1.8396301 1.4718628 -3.3309631 3.2874756 -3.3309631l0 0c0.8718872 0 1.7080688 0.35092163 2.324585 0.97561646c0.6165161 0.6246643 0.9628601 1.4719238 0.9628601 2.3553467l0 0c0 1.8396606 -1.4718323 3.3309631 -3.287445 3.3309631l0 0c-1.8156128 0 -3.2874756 -1.4913025 -3.2874756 -3.3309631z" fill-rule="evenodd"/><path stroke="#0000ff" stroke-width="8.0" stroke-linejoin="round" stroke-linecap="butt" d="m291.36 400.87152l0 0c0 -1.8396301 1.4718628 -3.3309631 3.2874756 -3.3309631l0 0c0.8718872 0 1.7080688 0.35092163 2.324585 0.97561646c0.6165161 0.6246643 0.9628601 1.4719238 0.9628601 2.3553467l0 0c0 1.8396606 -1.4718323 3.3309631 -3.287445 3.3309631l0 0c-1.8156128 0 -3.2874756 -1.4913025 -3.2874756 -3.3309631z" fill-rule="evenodd"/><path fill="#000000" fill-opacity="0.0" d="m223.0919 364.47156l0 0c-3.8318024 0 -6.93808 -4.44516 -6.93808 -9.928589l0 -60.961884l0 0c0 -5.4833984 3.1062775 -9.928589 6.93808 -9.928589z" fill-rule="evenodd"/><path fill="#000000" fill-opacity="0.0" d="m223.0919 364.47156l0 0c-3.8318024 0 -6.93808 -4.44516 -6.93808 -9.928589l0 -60.961884l0 0c0 -5.4833984 3.1062775 -9.928589 6.93808 -9.928589" fill-rule="evenodd"/><path stroke="#0000ff" stroke-width="4.0" stroke-linejoin="round" stroke-linecap="butt" d="m223.0919 364.47156l0 0c-3.8318024 0 -6.93808 -4.44516 -6.93808 -9.928589l0 -60.961884l0 0c0 -5.4833984 3.1062775 -9.928589 6.93808 -9.928589" fill-rule="evenodd"/><path fill="#000000" fill-opacity="0.0" d="m368.07382 364.47156l0 0c3.831787 0 6.93808 -4.44516 6.93808 -9.928589l0 -60.961884l0 0c0 -5.4833984 -3.1062927 -9.928589 -6.93808 -9.928589z" fill-rule="evenodd"/><path fill="#000000" fill-opacity="0.0" d="m368.07382 364.47156l0 0c3.831787 0 6.93808 -4.44516 6.93808 -9.928589l0 -60.961884l0 0c0 -5.4833984 -3.1062927 -9.928589 -6.93808 -9.928589" fill-rule="evenodd"/><path stroke="#0000ff" stroke-width="4.0" stroke-linejoin="round" stroke-linecap="butt" d="m368.07382 364.47156l0 0c3.831787 0 6.93808 -4.44516 6.93808 -9.928589l0 -60.961884l0 0c0 -5.4833984 -3.1062927 -9.928589 -6.93808 -9.928589" fill-rule="evenodd"/><path fill="#000000" fill-opacity="0.0" d="m286.83713 349.7456l0 0c-3.8318176 0 -6.93808 -4.4451904 -6.93808 -9.928589l0 -31.509888l0 0c0 -5.4833984 3.1062622 -9.928589 6.93808 -9.928589z" fill-rule="evenodd"/><path fill="#000000" fill-opacity="0.0" d="m286.83713 349.7456l0 0c-3.8318176 0 -6.93808 -4.4451904 -6.93808 -9.928589l0 -31.509888l0 0c0 -5.4833984 3.1062622 -9.928589 6.93808 -9.928589" fill-rule="evenodd"/><path stroke="#b7b7b7" stroke-width="4.0" stroke-linejoin="round" stroke-linecap="butt" d="m286.83713 349.7456l0 0c-3.8318176 0 -6.93808 -4.4451904 -6.93808 -9.928589l0 -31.509888l0 0c0 -5.4833984 3.1062622 -9.928589 6.93808 -9.928589" fill-rule="evenodd"/><path fill="#000000" fill-opacity="0.0" d="m353.55954 349.7456l0 0c3.831787 0 6.93808 -4.4451904 6.93808 -9.928589l0 -31.509888l0 0c0 -5.4833984 -3.1062927 -9.928589 -6.93808 -9.928589z" fill-rule="evenodd"/><path fill="#000000" fill-opacity="0.0" d="m353.55954 349.7456l0 0c3.831787 0 6.93808 -4.4451904 6.93808 -9.928589l0 -31.509888l0 0c0 -5.4833984 -3.1062927 -9.928589 -6.93808 -9.928589" fill-rule="evenodd"/><path stroke="#b7b7b7" stroke-width="4.0" stroke-linejoin="round" stroke-linecap="butt" d="m353.55954 349.7456l0 0c3.831787 0 6.93808 -4.4451904 6.93808 -9.928589l0 -31.509888l0 0c0 -5.4833984 -3.1062927 -9.928589 -6.93808 -9.928589" fill-rule="evenodd"/><path fill="#000000" fill-opacity="0.0" d="m198.70155 168.81462l192.00002 0l0 98.55119l-192.00002 0z" fill-rule="evenodd"/><path stroke="#000000" stroke-width="4.0" stroke-linejoin="round" stroke-linecap="butt" d="m198.70155 168.81462l192.00002 0l0 98.55119l-192.00002 0z" fill-rule="evenodd"/><path fill="#000000" fill-opacity="0.0" d="m242.70801 216.48976l0 0c8.181702 -12.10408 23.519379 -20.498856 41.24356 -22.573853c17.724213 -2.0750122 35.685486 2.4214172 48.298523 12.091019l-39.76529 29.837616z" fill-rule="evenodd"/><path fill="#000000" fill-opacity="0.0" d="m242.70801 216.48976l0 0c8.181702 -12.10408 23.519379 -20.498856 41.24356 -22.573853c17.724213 -2.0750122 35.685486 2.4214172 48.298523 12.091019" fill-rule="evenodd"/><path stroke="#0000ff" stroke-width="4.0" stroke-linejoin="round" stroke-linecap="butt" d="m242.70801 216.48976l0 0c8.181702 -12.10408 23.519379 -20.49887 41.24359 -22.573853c8.862091 -1.0375061 17.783447 -0.43214417 26.065918 1.6412811c2.0706177 0.5183563 4.101288 1.1284637 6.0811462 1.827591l0.29360962 0.10568237" fill-rule="evenodd"/><path fill="#0000ff" stroke="#0000ff" stroke-width="4.0" stroke-linecap="butt" d="m314.29956 201.38718l12.798828 1.8530273l-8.613373 -9.646454z" fill-rule="evenodd"/><path fill="#ffffff" d="m331.39032 222.97345l0 0c0 5.42717 4.2867737 9.826767 9.574799 9.826767l0 0c2.5393982 0 4.9747925 -1.0353088 6.7704163 -2.878189c1.7956238 -1.8428802 2.8043823 -4.3423615 2.8043823 -6.948578l0 0c0 -5.427185 -4.2867737 -9.826767 -9.574799 -9.826767l0 0c-5.288025 0 -9.574799 4.399582 -9.574799 9.826767z" fill-rule="evenodd"/><path stroke="#000000" stroke-width="4.0" stroke-linejoin="round" stroke-linecap="butt" d="m331.39032 222.97345l0 0c0 5.42717 4.2867737 9.826767 9.574799 9.826767l0 0c2.5393982 0 4.9747925 -1.0353088 6.7704163 -2.878189c1.7956238 -1.8428802 2.8043823 -4.3423615 2.8043823 -6.948578l0 0c0 -5.427185 -4.2867737 -9.826767 -9.574799 -9.826767l0 0c-5.288025 0 -9.574799 4.399582 -9.574799 9.826767z" fill-rule="evenodd"/><path fill="#ffffff" d="m245.55536 229.29669l0 0c0 -5.427185 -4.286789 -9.826767 -9.574814 -9.826767l0 0c-2.5393982 0 -4.974777 1.0353088 -6.770401 2.878189c-1.7956238 1.8428802 -2.8043976 4.342346 -2.8043976 6.948578l0 0c0 5.42717 4.286789 9.826767 9.574799 9.826767l0 0c5.288025 0 9.574814 -4.399597 9.574814 -9.826767z" fill-rule="evenodd"/><path stroke="#000000" stroke-width="4.0" stroke-linejoin="round" stroke-linecap="butt" d="m245.55536 229.29669l0 0c0 -5.427185 -4.286789 -9.826767 -9.574814 -9.826767l0 0c-2.5393982 0 -4.974777 1.0353088 -6.770401 2.878189c-1.7956238 1.8428802 -2.8043976 4.342346 -2.8043976 6.948578l0 0c0 5.42717 4.286789 9.826767 9.574799 9.826767l0 0c5.288025 0 9.574814 -4.399597 9.574814 -9.826767z" fill-rule="evenodd"/><path fill="#000000" fill-opacity="0.0" d="m335.7616 235.44916l0 0c-8.181702 12.10408 -23.519379 20.498856 -41.24356 22.573853c-17.724213 2.0750122 -35.685486 -2.421402 -48.298508 -12.091019l39.765274 -29.837616z" fill-rule="evenodd"/><path fill="#000000" fill-opacity="0.0" d="m335.7616 235.44916l0 0c-8.181702 12.10408 -23.519379 20.498856 -41.24356 22.573853c-17.724213 2.0750122 -35.685486 -2.421402 -48.298508 -12.091019" fill-rule="evenodd"/><path stroke="#0000ff" stroke-width="4.0" stroke-linejoin="round" stroke-linecap="butt" d="m335.7616 235.44914l0 0c-8.181702 12.104095 -23.519379 20.49887 -41.24356 22.573898c-8.862122 1.0374756 -17.783447 0.4321289 -26.065948 -1.6413269c-2.0706177 -0.51834106 -4.101288 -1.1284485 -6.0811462 -1.8275757l-0.29360962 -0.10568237" fill-rule="evenodd"/><path fill="#0000ff" stroke="#0000ff" stroke-width="4.0" stroke-linecap="butt" d="m264.17007 250.55174l-12.798874 -1.8530426l8.613388 9.646454z" fill-rule="evenodd"/><path fill="#000000" fill-opacity="0.0" d="m242.70801 610.81464l0 0c8.181702 -12.104065 23.519379 -20.49884 41.24356 -22.573853c17.724213 -2.0750122 35.685486 2.4213867 48.298523 12.091003l-39.76529 29.837646z" fill-rule="evenodd"/><path fill="#000000" fill-opacity="0.0" d="m242.70801 610.81464l0 0c8.181702 -12.104065 23.519379 -20.49884 41.24356 -22.573853c17.724213 -2.0750122 35.685486 2.4213867 48.298523 12.091003" fill-rule="evenodd"/><path stroke="#0000ff" stroke-width="4.0" stroke-linejoin="round" stroke-linecap="butt" d="m242.70801 610.81464l0 0c8.181702 -12.104065 23.519379 -20.49884 41.24359 -22.573853c8.862091 -1.0375366 17.783447 -0.4321289 26.065918 1.6412964c2.0706177 0.5183716 4.101288 1.128479 6.0811462 1.8276367l0.29360962 0.10559082" fill-rule="evenodd"/><path fill="#0000ff" stroke="#0000ff" stroke-width="4.0" stroke-linecap="butt" d="m314.29956 595.71204l12.798859 1.8530884l-8.613403 -9.646484z" fill-rule="evenodd"/><path fill="#ffffff" d="m331.39032 617.29834l0 0c0 5.427185 4.2867737 9.826782 9.574799 9.826782l0 0c2.5393982 0 4.9747925 -1.0353394 6.7704163 -2.8782349c1.7956238 -1.8428345 2.8043823 -4.342346 2.8043823 -6.9485474l0 0c0 -5.427185 -4.2867737 -9.826782 -9.574799 -9.826782l0 0c-5.288025 0 -9.574799 4.399597 -9.574799 9.826782z" fill-rule="evenodd"/><path stroke="#000000" stroke-width="4.0" stroke-linejoin="round" stroke-linecap="butt" d="m331.39032 617.29834l0 0c0 5.427185 4.2867737 9.826782 9.574799 9.826782l0 0c2.5393982 0 4.9747925 -1.0353394 6.7704163 -2.8782349c1.7956238 -1.8428345 2.8043823 -4.342346 2.8043823 -6.9485474l0 0c0 -5.427185 -4.2867737 -9.826782 -9.574799 -9.826782l0 0c-5.288025 0 -9.574799 4.399597 -9.574799 9.826782z" fill-rule="evenodd"/><path fill="#000000" d="m245.55536 623.6216l0 0c0 -5.427185 -4.286789 -9.826782 -9.574814 -9.826782l0 0c-2.5393982 0 -4.974777 1.0353394 -6.770401 2.8781738c-1.7956238 1.8428955 -2.8043976 4.342346 -2.8043976 6.9486084l0 0c0 5.427185 4.286789 9.826782 9.574799 9.826782l0 0c5.288025 0 9.574814 -4.399597 9.574814 -9.826782z" fill-rule="evenodd"/><path stroke="#000000" stroke-width="4.0" stroke-linejoin="round" stroke-linecap="butt" d="m245.55536 623.6216l0 0c0 -5.427185 -4.286789 -9.826782 -9.574814 -9.826782l0 0c-2.5393982 0 -4.974777 1.0353394 -6.770401 2.8781738c-1.7956238 1.8428955 -2.8043976 4.342346 -2.8043976 6.9486084l0 0c0 5.427185 4.286789 9.826782 9.574799 9.826782l0 0c5.288025 0 9.574814 -4.399597 9.574814 -9.826782z" fill-rule="evenodd"/><path fill="#000000" fill-opacity="0.0" d="m298.376 500.34055l46.17386 20.818573" fill-rule="evenodd"/><path stroke="#0000ff" stroke-width="4.0" stroke-linejoin="round" stroke-linecap="butt" d="m320.25497 510.20517l24.294891 10.953949" fill-rule="evenodd"/><path fill="#0000ff" stroke="#0000ff" stroke-width="4.0" stroke-linecap="butt" d="m322.97058 504.18216l-19.263763 -1.4380798l13.83252 13.484131z" fill-rule="evenodd"/><path fill="#000000" fill-opacity="0.0" d="m295.4295 502.86542l0 49.737488" fill-rule="evenodd"/><path stroke="#0000ff" stroke-width="4.0" stroke-linejoin="round" stroke-linecap="butt" d="m295.4295 526.8654l0 25.737488" fill-rule="evenodd"/><path fill="#0000ff" stroke="#0000ff" stroke-width="4.0" stroke-linecap="butt" d="m302.03644 526.8654l-6.6069336 -18.152405l-6.6069336 18.152405z" fill-rule="evenodd"/><path fill="#000000" fill-opacity="0.0" d="m292.496 500.34055l-46.17386 20.818573" fill-rule="evenodd"/><path stroke="#0000ff" stroke-width="4.0" stroke-linejoin="round" stroke-linecap="butt" d="m270.61703 510.20523l-24.294876 10.953888" fill-rule="evenodd"/><path fill="#0000ff" stroke="#0000ff" stroke-width="4.0" stroke-linecap="butt" d="m273.33267 516.2282l13.83252 -13.484131l-19.263763 1.4380798z" fill-rule="evenodd"/><path fill="#0000ff" d="m292.09445 499.49738l0 0c0 -1.8396606 1.4718323 -3.3309937 3.287445 -3.3309937l0 0c0.8718872 0 1.7080688 0.35095215 2.324585 0.97561646c0.6165161 0.6246948 0.9628906 1.4719238 0.9628906 2.3553772l0 0c0 1.8396301 -1.4718628 3.3309631 -3.2874756 3.3309631l0 0c-1.8156128 0 -3.287445 -1.491333 -3.287445 -3.3309631z" fill-rule="evenodd"/><path stroke="#0000ff" stroke-width="4.0" stroke-linejoin="round" stroke-linecap="butt" d="m292.09445 499.49738l0 0c0 -1.8396606 1.4718323 -3.3309937 3.287445 -3.3309937l0 0c0.8718872 0 1.7080688 0.35095215 2.324585 0.97561646c0.6165161 0.6246948 0.9628906 1.4719238 0.9628906 2.3553772l0 0c0 1.8396301 -1.4718628 3.3309631 -3.2874756 3.3309631l0 0c-1.8156128 0 -3.287445 -1.491333 -3.287445 -3.3309631z" fill-rule="evenodd"/><path fill="#000000" fill-opacity="0.0" d="m153.3057 313.17468l-47.543304 82.80316l-47.543304 -82.80316z" fill-rule="evenodd"/><path stroke="#000000" stroke-width="16.0" stroke-linejoin="round" stroke-linecap="butt" d="m153.3057 313.17468l-47.543304 82.80316l-47.543304 -82.80316z" fill-rule="evenodd"/><path fill="#ffffff" d="m296.3535 140.24614c-6.1441956 4.5554047 -14.739868 3.7177734 -19.888947 -1.9381714c-5.149109 -5.6559296 -5.1784363 -14.292259 -0.06790161 -19.983047c5.110565 -5.6907883 13.700348 -6.5868073 19.875336 -2.0732422z" fill-rule="evenodd"/><path stroke="#000000" stroke-width="3.0" stroke-linejoin="round" stroke-linecap="butt" d="m296.3535 140.24614c-6.1441956 4.5554047 -14.739868 3.7177734 -19.888947 -1.9381714c-5.149109 -5.6559296 -5.1784363 -14.292259 -0.06790161 -19.983047c5.110565 -5.6907883 13.700348 -6.5868073 19.875336 -2.0732422z" fill-rule="evenodd"/><path fill="#ffffff" d="m296.6796 140.24614c6.144165 4.5554047 14.739838 3.7177734 19.888947 -1.9381714c5.1490784 -5.6559296 5.1784363 -14.292259 0.067871094 -19.983047c-5.110565 -5.6907883 -13.700317 -6.5868073 -19.875336 -2.0732422z" fill-rule="evenodd"/><path stroke="#000000" stroke-width="3.0" stroke-linejoin="round" stroke-linecap="butt" d="m296.6796 140.24614c6.144165 4.5554047 14.739838 3.7177734 19.888947 -1.9381714c5.1490784 -5.6559296 5.1784363 -14.292259 0.067871094 -19.983047c-5.110565 -5.6907883 -13.700317 -6.5868073 -19.875336 -2.0732422z" fill-rule="evenodd"/><path fill="#cfe2f3" d="m396.9461 129.70789l20.988953 -4.507103l4.5071106 -20.98896l4.5071106 20.98896l20.988953 4.507103l-20.988953 4.5071106l-4.5071106 20.988953l-4.5071106 -20.988953z" fill-rule="evenodd"/><path stroke="#000000" stroke-width="1.0" stroke-linejoin="round" stroke-linecap="butt" d="m396.9461 129.70789l20.988953 -4.507103l4.5071106 -20.98896l4.5071106 20.98896l20.988953 4.507103l-20.988953 4.5071106l-4.5071106 20.988953l-4.5071106 -20.988953z" fill-rule="evenodd"/><path fill="#000000" fill-opacity="0.0" d="m222.99272 127.34286l44.72441 0" fill-rule="evenodd"/><path stroke="#0000ff" stroke-width="4.0" stroke-linejoin="round" stroke-linecap="butt" d="m222.99272 127.34286l20.724411 0" fill-rule="evenodd"/><path fill="#0000ff" stroke="#0000ff" stroke-width="4.0" stroke-linecap="butt" d="m243.71713 133.94978l18.152374 -6.606926l-18.152374 -6.606926z" fill-rule="evenodd"/><path fill="#000000" fill-opacity="0.0" d="m369.50558 127.34286l-44.724396 0" fill-rule="evenodd"/><path stroke="#0000ff" stroke-width="4.0" stroke-linejoin="round" stroke-linecap="butt" d="m369.50558 127.34286l-20.724426 0" fill-rule="evenodd"/><path fill="#0000ff" stroke="#0000ff" stroke-width="4.0" stroke-linecap="butt" d="m348.7812 120.73593l-18.152405 6.606926l18.152405 6.606926z" fill-rule="evenodd"/><path fill="#000000" fill-opacity="0.0" d="m14.9927225 130.26717l44.72441 0" fill-rule="evenodd"/><path stroke="#0000ff" stroke-width="4.0" stroke-linejoin="round" stroke-linecap="butt" d="m38.99272 130.26717l20.724407 0" fill-rule="evenodd"/><path fill="#0000ff" stroke="#0000ff" stroke-width="4.0" stroke-linecap="butt" d="m38.99272 123.66024l-18.15239 6.606926l18.15239 6.6069336z" fill-rule="evenodd"/><path fill="#000000" fill-opacity="0.0" d="m177.5056 130.26717l-44.72441 0" fill-rule="evenodd"/><path stroke="#0000ff" stroke-width="4.0" stroke-linejoin="round" stroke-linecap="butt" d="m153.5056 130.26717l-20.724411 0" fill-rule="evenodd"/><path fill="#0000ff" stroke="#0000ff" stroke-width="4.0" stroke-linecap="butt" d="m153.5056 136.8741l18.15239 -6.6069336l-18.15239 -6.606926z" fill-rule="evenodd"/><path fill="#ffffff" d="m72.353485 143.17046c-6.1441956 4.5554047 -14.739853 3.7177734 -19.888954 -1.9381714c-5.1491013 -5.6559296 -5.1784363 -14.292259 -0.06787872 -19.983047c5.1105576 -5.6907883 13.700325 -6.5868073 19.875328 -2.0732422z" fill-rule="evenodd"/><path stroke="#000000" stroke-width="3.0" stroke-linejoin="round" stroke-linecap="butt" d="m72.353485 143.17046c-6.1441956 4.5554047 -14.739853 3.7177734 -19.888954 -1.9381714c-5.1491013 -5.6559296 -5.1784363 -14.292259 -0.06787872 -19.983047c5.1105576 -5.6907883 13.700325 -6.5868073 19.875328 -2.0732422z" fill-rule="evenodd"/><path fill="#ffffff" d="m120.67958 143.17046c6.1441956 4.5554047 14.739853 3.7177734 19.888947 -1.9381714c5.149109 -5.6559296 5.1784515 -14.292259 0.06788635 -19.983047c-5.11055 -5.6907883 -13.700325 -6.5868073 -19.875328 -2.0732422z" fill-rule="evenodd"/><path stroke="#000000" stroke-width="3.0" stroke-linejoin="round" stroke-linecap="butt" d="m120.67958 143.17046c6.1441956 4.5554047 14.739853 3.7177734 19.888947 -1.9381714c5.149109 -5.6559296 5.1784515 -14.292259 0.06788635 -19.983047c-5.11055 -5.6907883 -13.700325 -6.5868073 -19.875328 -2.0732422z" fill-rule="evenodd"/><path fill="#000000" fill-opacity="0.0" d="m72.61551 119.175995l0.09449005 24.0" fill-rule="evenodd"/><path stroke="#ffffff" stroke-width="4.0" stroke-linejoin="round" stroke-linecap="butt" d="m72.61551 119.175995l0.09449005 24.0" fill-rule="evenodd"/><path fill="#000000" fill-opacity="0.0" d="m120.589325 119.175995l-0.09449005 24.0" fill-rule="evenodd"/><path stroke="#ffffff" stroke-width="4.0" stroke-linejoin="round" stroke-linecap="butt" d="m120.589325 119.175995l-0.09449005 24.0" fill-rule="evenodd"/><path fill="#000000" fill-opacity="0.0" d="m71.02748 118.41655c4.224411 2.0126877 16.820213 12.101486 25.346458 12.076111c8.526245 -0.025360107 21.509186 -10.190285 25.811028 -12.22834" fill-rule="evenodd"/><path stroke="#000000" stroke-width="3.0" stroke-linejoin="round" stroke-linecap="butt" d="m71.02748 118.41655c4.224411 2.0126877 16.820213 12.101486 25.346458 12.076111c8.526245 -0.025360107 21.509186 -10.190285 25.811028 -12.22834" fill-rule="evenodd"/><path fill="#000000" fill-opacity="0.0" d="m71.11147 143.97034c4.1688538 -1.5380554 16.514 -9.240158 25.013123 -9.228348c8.499123 0.0118255615 21.65136 7.749344 25.981628 9.299225" fill-rule="evenodd"/><path stroke="#000000" stroke-width="3.0" stroke-linejoin="round" stroke-linecap="butt" d="m71.11147 143.97034c4.1688538 -1.5380554 16.514 -9.240158 25.013123 -9.228348c8.499123 0.0118255615 21.65136 7.749344 25.981628 9.299225" fill-rule="evenodd"/><path fill="#ffffff" d="m96.353485 60.24614c-6.1441956 4.5554123 -14.739853 3.7177658 -19.888954 -1.9381676c-5.1491013 -5.655937 -5.1784363 -14.292267 -0.06787872 -19.983051c5.1105576 -5.6907883 13.700325 -6.5868073 19.875328 -2.0732422z" fill-rule="evenodd"/><path stroke="#000000" stroke-width="3.0" stroke-linejoin="round" stroke-linecap="butt" d="m96.353485 60.24614c-6.1441956 4.5554123 -14.739853 3.7177658 -19.888954 -1.9381676c-5.1491013 -5.655937 -5.1784363 -14.292267 -0.06787872 -19.983051c5.1105576 -5.6907883 13.700325 -6.5868073 19.875328 -2.0732422z" fill-rule="evenodd"/><path fill="#ffffff" d="m96.67958 60.24614c6.1441956 4.5554123 14.739853 3.7177658 19.888954 -1.9381676c5.1491013 -5.655937 5.1784363 -14.292267 0.06787872 -19.983051c-5.1105576 -5.6907883 -13.700325 -6.5868073 -19.875328 -2.0732422z" fill-rule="evenodd"/><path stroke="#000000" stroke-width="3.0" stroke-linejoin="round" stroke-linecap="butt" d="m96.67958 60.24614c6.1441956 4.5554123 14.739853 3.7177658 19.888954 -1.9381676c5.1491013 -5.655937 5.1784363 -14.292267 0.06787872 -19.983051c-5.1105576 -5.6907883 -13.700325 -6.5868073 -19.875328 -2.0732422z" fill-rule="evenodd"/><path fill="#000000" fill-opacity="0.0" d="m22.992723 47.342857l44.72441 0" fill-rule="evenodd"/><path stroke="#0000ff" stroke-width="4.0" stroke-linejoin="round" stroke-linecap="butt" d="m22.992723 47.342857l20.724405 0" fill-rule="evenodd"/><path fill="#0000ff" stroke="#0000ff" stroke-width="4.0" stroke-linecap="butt" d="m43.717133 53.949787l18.15239 -6.60693l-18.15239 -6.60693z" fill-rule="evenodd"/><path fill="#000000" fill-opacity="0.0" d="m169.5056 47.342857l-44.72441 0" fill-rule="evenodd"/><path stroke="#0000ff" stroke-width="4.0" stroke-linejoin="round" stroke-linecap="butt" d="m169.5056 47.342857l-20.724411 0" fill-rule="evenodd"/><path fill="#0000ff" stroke="#0000ff" stroke-width="4.0" stroke-linecap="butt" d="m148.78119 40.735928l-18.15239 6.60693l18.15239 6.60693z" fill-rule="evenodd"/><path fill="#ffffff" d="m90.765015 37.10356l12.692917 0l0 22.330711l-12.692917 0z" fill-rule="evenodd"/><path fill="#ffffff" d="m96.353485 -11.753861c-6.1441956 4.555411 -14.739853 3.7177687 -19.888954 -1.9381685c-5.1491013 -5.6559353 -5.1784363 -14.292263 -0.06787872 -19.98305c5.1105576 -5.6907883 13.700325 -6.5868073 19.875328 -2.0732422z" fill-rule="evenodd"/><path stroke="#000000" stroke-width="3.0" stroke-linejoin="round" stroke-linecap="butt" d="m96.353485 -11.753861c-6.1441956 4.555411 -14.739853 3.7177687 -19.888954 -1.9381685c-5.1491013 -5.6559353 -5.1784363 -14.292263 -0.06787872 -19.98305c5.1105576 -5.6907883 13.700325 -6.5868073 19.875328 -2.0732422z" fill-rule="evenodd"/><path fill="#ffffff" d="m96.67958 -11.753861c6.1441956 4.555411 14.739853 3.7177687 19.888954 -1.9381685c5.1491013 -5.6559353 5.1784363 -14.292263 0.06787872 -19.98305c-5.1105576 -5.6907883 -13.700325 -6.5868073 -19.875328 -2.0732422z" fill-rule="evenodd"/><path stroke="#000000" stroke-width="3.0" stroke-linejoin="round" stroke-linecap="butt" d="m96.67958 -11.753861c6.1441956 4.555411 14.739853 3.7177687 19.888954 -1.9381685c5.1491013 -5.6559353 5.1784363 -14.292263 0.06787872 -19.98305c-5.1105576 -5.6907883 -13.700325 -6.5868073 -19.875328 -2.0732422z" fill-rule="evenodd"/><path fill="#000000" fill-opacity="0.0" d="m22.992723 -24.657143l44.72441 0" fill-rule="evenodd"/><path stroke="#0000ff" stroke-width="4.0" stroke-linejoin="round" stroke-linecap="butt" d="m22.992723 -24.657145l20.724405 0" fill-rule="evenodd"/><path fill="#0000ff" stroke="#0000ff" stroke-width="4.0" stroke-linecap="butt" d="m43.717133 -18.050215l18.15239 -6.60693l-18.15239 -6.60693z" fill-rule="evenodd"/><path fill="#000000" fill-opacity="0.0" d="m169.5056 -24.657143l-44.72441 0" fill-rule="evenodd"/><path stroke="#0000ff" stroke-width="4.0" stroke-linejoin="round" stroke-linecap="butt" d="m169.5056 -24.657145l-20.724411 0" fill-rule="evenodd"/><path fill="#0000ff" stroke="#0000ff" stroke-width="4.0" stroke-linecap="butt" d="m148.78119 -31.264074l-18.15239 6.60693l18.15239 6.60693z" fill-rule="evenodd"/><path fill="#ffffff" d="m297.38028 -13.401096l0 0c-6.197998 6.1141534 -16.172638 6.067147 -22.312744 -0.10515118c-6.140106 -6.1722975 -6.134918 -16.147049 0.011566162 -22.312984c6.1464844 -6.1659393 16.121155 -6.202614 22.312836 -0.08204651z" fill-rule="evenodd"/><path stroke="#000000" stroke-width="3.0" stroke-linejoin="round" stroke-linecap="butt" d="m297.38028 -13.401096l0 0c-6.197998 6.1141534 -16.172638 6.067147 -22.312744 -0.10515118c-6.140106 -6.1722975 -6.134918 -16.147049 0.011566162 -22.312984c6.1464844 -6.1659393 16.121155 -6.202614 22.312836 -0.08204651z" fill-rule="evenodd"/><path fill="#000000" fill-opacity="0.0" d="m217.83554 -25.650372l47.466034 0" fill-rule="evenodd"/><path stroke="#0000ff" stroke-width="4.0" stroke-linejoin="round" stroke-linecap="butt" d="m217.83554 -25.650373l23.466034 0" fill-rule="evenodd"/><path fill="#0000ff" stroke="#0000ff" stroke-width="4.0" stroke-linecap="butt" d="m241.30157 -19.043444l18.152374 -6.60693l-18.152374 -6.606928z" fill-rule="evenodd"/><path fill="#000000" fill-opacity="0.0" d="m373.32965 -25.650372l-47.466003 0" fill-rule="evenodd"/><path stroke="#0000ff" stroke-width="4.0" stroke-linejoin="round" stroke-linecap="butt" d="m373.32965 -25.650373l-23.466003 0" fill-rule="evenodd"/><path fill="#0000ff" stroke="#0000ff" stroke-width="4.0" stroke-linecap="butt" d="m349.86365 -32.2573l-18.152405 6.606928l18.152405 6.60693z" fill-rule="evenodd"/><path fill="#ffffff" d="m297.72913 -13.401096l0 0c6.197998 6.1141534 16.172638 6.067147 22.312744 -0.10515118c6.1400757 -6.1722975 6.134918 -16.147049 -0.011566162 -22.312984c-6.1464844 -6.1659393 -16.121185 -6.202614 -22.312836 -0.08204651z" fill-rule="evenodd"/><path stroke="#000000" stroke-width="3.0" stroke-linejoin="round" stroke-linecap="butt" d="m297.72913 -13.401096l0 0c6.197998 6.1141534 16.172638 6.067147 22.312744 -0.10515118c6.1400757 -6.1722975 6.134918 -16.147049 -0.011566162 -22.312984c-6.1464844 -6.1659393 -16.121185 -6.202614 -22.312836 -0.08204651z" fill-rule="evenodd"/><path fill="#ffffff" d="m290.54782 -35.045864l13.470978 0l0 20.858305l-13.470978 0z" fill-rule="evenodd"/><path fill="#ffffff" d="m99.2671 490.85718c-10.346405 7.67099 -24.820915 6.2604675 -33.491653 -3.2637634c-8.670738 -9.5242 -8.720139 -24.0672 -0.11430359 -33.650085c8.605835 -9.582916 23.070427 -11.091736 33.468704 -3.491211z" fill-rule="evenodd"/><path stroke="#000000" stroke-width="3.0" stroke-linejoin="round" stroke-linecap="butt" d="m99.2671 490.85718c-10.346405 7.67099 -24.820915 6.2604675 -33.491653 -3.2637634c-8.670738 -9.5242 -8.720139 -24.0672 -0.11430359 -33.650085c8.605835 -9.582916 23.070427 -11.091736 33.468704 -3.491211z" fill-rule="evenodd"/><path fill="#000000" d="m99.810196 490.85718c10.346405 7.67099 24.820915 6.2604675 33.491653 -3.2637634c8.670731 -9.5242 8.720139 -24.0672 0.11430359 -33.650085c-8.605835 -9.582916 -23.070427 -11.091736 -33.468704 -3.491211z" fill-rule="evenodd"/><path stroke="#000000" stroke-width="3.0" stroke-linejoin="round" stroke-linecap="butt" d="m99.810196 490.85718c10.346405 7.67099 24.820915 6.2604675 33.491653 -3.2637634c8.670731 -9.5242 8.720139 -24.0672 0.11430359 -33.650085c-8.605835 -9.582916 -23.070427 -11.091736 -33.468704 -3.491211z" fill-rule="evenodd"/><path fill="#9fc5e8" d="m114.413826 199.99518l20.171974 -14.728928l-6.2919617 23.841553l19.433502 -7.3220825l-10.929138 12.364777l25.66684 5.794403l-25.156784 6.801178l4.7135315 9.190353l-10.20845 2.330017l9.45845 16.411362l-19.806519 -9.671158l-1.1148682 12.912689l-12.394371 -8.80571l-5.311432 11.553909l-7.3181686 -7.9180145l-7.805153 8.57988l-4.420418 -7.8198547l-15.88015 11.842407l2.3459702 -14.1380005l-17.015614 -5.321411l12.211498 -8.161301l-14.28508 -13.80072l20.530571 -1.3508148l-10.771339 -16.682602l21.120735 2.3919678l-0.67749023 -18.3835l17.60115 15.634735l9.662605 -17.565964z" fill-rule="evenodd"/><path stroke="#000000" stroke-width="1.0" stroke-linejoin="round" stroke-linecap="butt" d="m114.413826 199.99518l20.171974 -14.728928l-6.2919617 23.841553l19.433502 -7.3220825l-10.929138 12.364777l25.66684 5.794403l-25.156784 6.801178l4.7135315 9.190353l-10.20845 2.330017l9.45845 16.411362l-19.806519 -9.671158l-1.1148682 12.912689l-12.394371 -8.80571l-5.311432 11.553909l-7.3181686 -7.9180145l-7.805153 8.57988l-4.420418 -7.8198547l-15.88015 11.842407l2.3459702 -14.1380005l-17.015614 -5.321411l12.211498 -8.161301l-14.28508 -13.80072l20.530571 -1.3508148l-10.771339 -16.682602l21.120735 2.3919678l-0.67749023 -18.3835l17.60115 15.634735l9.662605 -17.565964z" fill-rule="evenodd"/></g></svg>