<?xml version="1.0" encoding="UTF-8"?>
<!DOCTYPE svg PUBLIC "-//W3C//DTD SVG 1.1//EN" "http://www.w3.org/Graphics/SVG/1.1/DTD/svg11.dtd">
<svg version="1.2" width="29.96mm" height="29.96mm" viewBox="5358 16017 2996 2996" preserveAspectRatio="xMidYMid" fill-rule="evenodd" stroke-width="28.222" stroke-linejoin="round" xmlns="http://www.w3.org/2000/svg" xmlns:ooo="http://xml.openoffice.org/svg/export" xmlns:xlink="http://www.w3.org/1999/xlink" xmlns:presentation="http://sun.com/xmlns/staroffice/presentation" xmlns:smil="http://www.w3.org/2001/SMIL20/" xmlns:anim="urn:oasis:names:tc:opendocument:xmlns:animation:1.0" xml:space="preserve">
 <defs class="EmbeddedBulletChars">
  <g id="bullet-char-template-57356" transform="scale(0.00048828125,-0.00048828125)">
   <path d="M 580,1141 L 1163,571 580,0 -4,571 580,1141 Z"/>
  </g>
  <g id="bullet-char-template-57354" transform="scale(0.00048828125,-0.00048828125)">
   <path d="M 8,1128 L 1137,1128 1137,0 8,0 8,1128 Z"/>
  </g>
  <g id="bullet-char-template-10146" transform="scale(0.00048828125,-0.00048828125)">
   <path d="M 174,0 L 602,739 174,1481 1456,739 174,0 Z M 1358,739 L 309,1346 659,739 1358,739 Z"/>
  </g>
  <g id="bullet-char-template-10132" transform="scale(0.00048828125,-0.00048828125)">
   <path d="M 2015,739 L 1276,0 717,0 1260,543 174,543 174,936 1260,936 717,1481 1274,1481 2015,739 Z"/>
  </g>
  <g id="bullet-char-template-10007" transform="scale(0.00048828125,-0.00048828125)">
   <path d="M 0,-2 C -7,14 -16,27 -25,37 L 356,567 C 262,823 215,952 215,954 215,979 228,992 255,992 264,992 276,990 289,987 310,991 331,999 354,1012 L 381,999 492,748 772,1049 836,1024 860,1049 C 881,1039 901,1025 922,1006 886,937 835,863 770,784 769,783 710,716 594,584 L 774,223 C 774,196 753,168 711,139 L 727,119 C 717,90 699,76 672,76 641,76 570,178 457,381 L 164,-76 C 142,-110 111,-127 72,-127 30,-127 9,-110 8,-76 1,-67 -2,-52 -2,-32 -2,-23 -1,-13 0,-2 Z"/>
  </g>
  <g id="bullet-char-template-10004" transform="scale(0.00048828125,-0.00048828125)">
   <path d="M 285,-33 C 182,-33 111,30 74,156 52,228 41,333 41,471 41,549 55,616 82,672 116,743 169,778 240,778 293,778 328,747 346,684 L 369,508 C 377,444 397,411 428,410 L 1163,1116 C 1174,1127 1196,1133 1229,1133 1271,1133 1292,1118 1292,1087 L 1292,965 C 1292,929 1282,901 1262,881 L 442,47 C 390,-6 338,-33 285,-33 Z"/>
  </g>
  <g id="bullet-char-template-9679" transform="scale(0.00048828125,-0.00048828125)">
   <path d="M 813,0 C 632,0 489,54 383,161 276,268 223,411 223,592 223,773 276,916 383,1023 489,1130 632,1184 813,1184 992,1184 1136,1130 1245,1023 1353,916 1407,772 1407,592 1407,412 1353,268 1245,161 1136,54 992,0 813,0 Z"/>
  </g>
  <g id="bullet-char-template-8226" transform="scale(0.00048828125,-0.00048828125)">
   <path d="M 346,457 C 273,457 209,483 155,535 101,586 74,649 74,723 74,796 101,859 155,911 209,963 273,989 346,989 419,989 480,963 531,910 582,859 608,796 608,723 608,648 583,586 532,535 482,483 420,457 346,457 Z"/>
  </g>
  <g id="bullet-char-template-8211" transform="scale(0.00048828125,-0.00048828125)">
   <path d="M -4,459 L 1135,459 1135,606 -4,606 -4,459 Z"/>
  </g>
  <g id="bullet-char-template-61548" transform="scale(0.00048828125,-0.00048828125)">
   <path d="M 173,740 C 173,903 231,1043 346,1159 462,1274 601,1332 765,1332 928,1332 1067,1274 1183,1159 1299,1043 1357,903 1357,740 1357,577 1299,437 1183,322 1067,206 928,148 765,148 601,148 462,206 346,322 231,437 173,577 173,740 Z"/>
  </g>
 </defs>
 <g class="Page">
  <g class="com.sun.star.drawing.CustomShape">
   <g id="id3">
    <rect class="BoundingBox" stroke="none" fill="none" x="5358" y="16017" width="2996" height="2996"/>
    <path fill="rgb(255,255,255)" stroke="none" d="M 5857,16017 L 5857,16017 C 5770,16017 5683,16040 5608,16084 5532,16128 5469,16191 5425,16267 5381,16342 5358,16429 5358,16516 L 5358,18512 5358,18513 C 5358,18600 5381,18687 5425,18762 5469,18838 5532,18901 5608,18945 5683,18989 5770,19012 5857,19012 L 7853,19011 7854,19012 C 7941,19012 8028,18989 8103,18945 8179,18901 8242,18838 8286,18762 8330,18687 8353,18600 8353,18513 L 8352,16516 8353,16516 8353,16516 C 8353,16429 8330,16342 8286,16267 8242,16191 8179,16128 8103,16084 8028,16040 7941,16017 7854,16017 L 5857,16017 Z"/>
   </g>
  </g>
  <g class="com.sun.star.drawing.ClosedBezierShape">
   <g id="id4">
    <rect class="BoundingBox" stroke="none" fill="none" x="5893" y="16928" width="1869" height="1169"/>
    <path fill="rgb(255,255,255)" stroke="none" d="M 6743,17974 C 6662,18020 6570,18045 6477,18045 6383,18045 6291,18020 6210,17974 6129,17927 6061,17859 6014,17778 5968,17697 5943,17605 5943,17512 5943,17418 5968,17326 6014,17245 6061,17164 6129,17096 6210,17049 6291,17003 6383,16978 6477,16978 6570,16978 6662,17003 6743,17049 6773,17067 6802,17087 6828,17110 6853,17087 6881,17068 6911,17050 6992,17004 7084,16979 7178,16979 7271,16979 7363,17004 7444,17050 7525,17097 7593,17165 7640,17246 7686,17327 7711,17419 7711,17512 7711,17606 7686,17698 7640,17779 7593,17860 7525,17928 7444,17975 7363,18021 7271,18046 7178,18046 7084,18046 6992,18021 6911,17975 6881,17957 6852,17937 6826,17914 6801,17937 6773,17956 6743,17974 Z"/>
    <path fill="none" stroke="rgb(128,128,128)" stroke-width="100" stroke-linejoin="round" d="M 6743,17974 C 6662,18020 6570,18045 6477,18045 6383,18045 6291,18020 6210,17974 6129,17927 6061,17859 6014,17778 5968,17697 5943,17605 5943,17512 5943,17418 5968,17326 6014,17245 6061,17164 6129,17096 6210,17049 6291,17003 6383,16978 6477,16978 6570,16978 6662,17003 6743,17049 6773,17067 6802,17087 6828,17110 6853,17087 6881,17068 6911,17050 6992,17004 7084,16979 7178,16979 7271,16979 7363,17004 7444,17050 7525,17097 7593,17165 7640,17246 7686,17327 7711,17419 7711,17512 7711,17606 7686,17698 7640,17779 7593,17860 7525,17928 7444,17975 7363,18021 7271,18046 7178,18046 7084,18046 6992,18021 6911,17975 6881,17957 6852,17937 6826,17914 6801,17937 6773,17956 6743,17974 Z"/>
   </g>
  </g>
  <g class="com.sun.star.drawing.LineShape">
   <g id="id5">
    <rect class="BoundingBox" stroke="none" fill="none" x="6106" y="17302" width="662" height="421"/>
    <path fill="none" stroke="rgb(0,0,0)" stroke-width="80" stroke-linejoin="round" stroke-linecap="round" d="M 6146,17512 L 6522,17512"/>
    <path fill="rgb(0,0,0)" stroke="none" d="M 6494,17302 L 6767,17512 6494,17722 6494,17302 Z"/>
   </g>
  </g>
  <g class="com.sun.star.drawing.LineShape">
   <g id="id6">
    <rect class="BoundingBox" stroke="none" fill="none" x="6926" y="17302" width="662" height="421"/>
    <path fill="none" stroke="rgb(0,0,0)" stroke-width="80" stroke-linejoin="round" stroke-linecap="round" d="M 7547,17512 L 7171,17512"/>
    <path fill="rgb(0,0,0)" stroke="none" d="M 7199,17722 L 6926,17512 7199,17302 7199,17722 Z"/>
   </g>
  </g>
 </g>
</svg>