<svg version="1.1" viewBox="0.0 0.0 191.002624671916 100.0" fill="none" stroke="none" stroke-linecap="square" stroke-miterlimit="10" xmlns:xlink="http://www.w3.org/1999/xlink" xmlns="http://www.w3.org/2000/svg"><clipPath id="p.0"><path d="m0 0l191.00262 0l0 100.0l-191.00262 0l0 -100.0z" clip-rule="nonzero"/></clipPath><g clip-path="url(#p.0)"><path fill="#000000" fill-opacity="0.0" d="m0 0l191.00262 0l0 100.0l-191.00262 0z" fill-rule="evenodd"/><path fill="#9fc5e8" d="m306.37628 24.240297l18.091034 -13.210198l-5.642975 21.38276l17.42871 -6.5672474l-9.801727 11.089724l23.018951 5.19635l-22.561584 6.100174l4.2272034 8.242416l-9.155304 2.0898895l8.482574 14.718613l-17.763184 -8.673386l-0.99990845 11.580948l-11.115692 -7.897316l-4.76355 10.362396l-6.5631714 -7.1012726l-7.0 7.6951065l-3.9643555 -7.01326l-14.241974 10.621315l2.1040344 -12.679924l-15.260193 -4.772293l10.951782 -7.3197937l-12.81131 -12.377136l18.412567 -1.2118454l-9.660034 -14.961851l18.941864 2.1449108l-0.6074829 -16.487503l15.785248 14.021934l8.665894 -15.754447z" fill-rule="evenodd"/><path stroke="#000000" stroke-width="1.0" stroke-linejoin="round" stroke-linecap="butt" d="m306.37628 24.240297l18.091034 -13.210198l-5.642975 21.38276l17.42871 -6.5672474l-9.801727 11.089724l23.018951 5.19635l-22.561584 6.100174l4.2272034 8.242416l-9.155304 2.0898895l8.482574 14.718613l-17.763184 -8.673386l-0.99990845 11.580948l-11.115692 -7.897316l-4.76355 10.362396l-6.5631714 -7.1012726l-7.0 7.6951065l-3.9643555 -7.01326l-14.241974 10.621315l2.1040344 -12.679924l-15.260193 -4.772293l10.951782 -7.3197937l-12.81131 -12.377136l18.412567 -1.2118454l-9.660034 -14.961851l18.941864 2.1449108l-0.6074829 -16.487503l15.785248 14.021934l8.665894 -15.754447z" fill-rule="evenodd"/><path fill="#000000" fill-opacity="0.0" d="m-93.04862 146.80565l89.44882 0l0 31.62204l-89.44882 0z" fill-rule="evenodd"/><path fill="#000000" d="m-70.24345 169.88565l0 -0.953125q-0.71875 1.125 -2.125 1.125q-0.90625 0 -1.671875 -0.5q-0.75 -0.5 -1.171875 -1.390625q-0.421875 -0.90625 -0.421875 -2.078125q0 -1.140625 0.375 -2.0625q0.390625 -0.921875 1.140625 -1.40625q0.765625 -0.5 1.703125 -0.5q0.6875 0 1.21875 0.296875q0.53125 0.28125 0.875 0.734375l0 -3.75l1.28125 0l0 10.484375l-1.203125 0zm-4.0625 -3.796875q0 1.46875 0.609375 2.1875q0.625 0.71875 1.453125 0.71875q0.84375 0 1.4375 -0.6875q0.59375 -0.6875 0.59375 -2.109375q0 -1.5625 -0.609375 -2.28125q-0.59375 -0.734375 -1.484375 -0.734375q-0.84375 0 -1.421875 0.703125q-0.578125 0.703125 -0.578125 2.203125zm7.291733 -5.21875l0 -1.46875l1.296875 0l0 1.46875l-1.296875 0zm0 9.015625l0 -7.59375l1.296875 0l0 7.59375l-1.296875 0zm2.7405243 -2.265625l1.265625 -0.203125q0.109375 0.765625 0.59375 1.171875q0.5 0.40625 1.375 0.40625q0.890625 0 1.3125 -0.359375q0.4375 -0.359375 0.4375 -0.84375q0 -0.4375 -0.375 -0.6875q-0.265625 -0.171875 -1.3125 -0.4375q-1.421875 -0.359375 -1.96875 -0.609375q-0.546875 -0.265625 -0.828125 -0.734375q-0.28125 -0.46875 -0.28125 -1.015625q0 -0.515625 0.21875 -0.9375q0.234375 -0.4375 0.640625 -0.734375q0.296875 -0.21875 0.8125 -0.359375q0.53125 -0.15625 1.125 -0.15625q0.890625 0 1.5625 0.265625q0.671875 0.25 1.0 0.6875q0.328125 0.4375 0.4375 1.171875l-1.25 0.171875q-0.09375 -0.578125 -0.5 -0.90625q-0.40625 -0.34375 -1.15625 -0.34375q-0.890625 0 -1.28125 0.296875q-0.375 0.296875 -0.375 0.6875q0 0.25 0.15625 0.453125q0.15625 0.203125 0.5 0.34375q0.1875 0.078125 1.140625 0.328125q1.359375 0.359375 1.890625 0.59375q0.546875 0.234375 0.859375 0.6875q0.3125 0.4375 0.3125 1.09375q0 0.640625 -0.375 1.21875q-0.375 0.5625 -1.09375 0.875q-0.703125 0.3125 -1.59375 0.3125q-1.484375 0 -2.265625 -0.609375q-0.765625 -0.625 -0.984375 -1.828125zm10.65625 1.109375l0.1875 1.140625q-0.546875 0.109375 -0.984375 0.109375q-0.6875 0 -1.078125 -0.21875q-0.390625 -0.21875 -0.546875 -0.578125q-0.15625 -0.359375 -0.15625 -1.515625l0 -4.375l-0.953125 0l0 -1.0l0.953125 0l0 -1.890625l1.28125 -0.765625l0 2.65625l1.296875 0l0 1.0l-1.296875 0l0 4.4375q0 0.546875 0.0625 0.71875q0.078125 0.15625 0.21875 0.25q0.15625 0.078125 0.453125 0.078125q0.203125 0 0.5625 -0.046875zm1.2438507 1.15625l0 -7.59375l1.15625 0l0 1.140625q0.453125 -0.796875 0.828125 -1.046875q0.375 -0.265625 0.8125 -0.265625q0.65625 0 1.328125 0.40625l-0.4375 1.203125q-0.46875 -0.28125 -0.953125 -0.28125q-0.421875 0 -0.765625 0.25q-0.328125 0.25 -0.46875 0.703125q-0.21875 0.6875 -0.21875 1.5l0 3.984375l-1.28125 0zm4.8962708 -9.015625l0 -1.46875l1.296875 0l0 1.46875l-1.296875 0zm0 9.015625l0 -7.59375l1.296875 0l0 7.59375l-1.296875 0zm4.4436493 0l-1.203125 0l0 -10.484375l1.296875 0l0 3.734375q0.8125 -1.015625 2.078125 -1.015625q0.703125 0 1.328125 0.28125q0.625 0.28125 1.03125 0.796875q0.40625 0.5 0.625 1.234375q0.234375 0.71875 0.234375 1.53125q0 1.96875 -0.96875 3.03125q-0.953125 1.0625 -2.3125 1.0625q-1.34375 0 -2.109375 -1.125l0 0.953125zm-0.015625 -3.859375q0 1.375 0.375 1.984375q0.609375 0.984375 1.640625 0.984375q0.84375 0 1.453125 -0.734375q0.625 -0.734375 0.625 -2.1875q0 -1.484375 -0.59375 -2.1875q-0.59375 -0.71875 -1.421875 -0.71875q-0.84375 0 -1.46875 0.734375q-0.609375 0.734375 -0.609375 2.125zm11.96361 3.859375l0 -1.109375q-0.890625 1.28125 -2.421877 1.28125q-0.671875 0 -1.25 -0.25q-0.578125 -0.265625 -0.875 -0.65625q-0.28125 -0.390625 -0.390625 -0.953125q-0.078125 -0.375 -0.078125 -1.203125l0 -4.703125l1.28125 0l0 4.203125q0 1.015625 0.078125 1.359375q0.125 0.515625 0.515625 0.8125q0.40625 0.28125 0.984375 0.28125q0.578125 0 1.078125 -0.296875q0.5156269 -0.296875 0.7187519 -0.8125q0.21875 -0.515625 0.21875 -1.484375l0 -4.0625l1.28125 0l0 7.59375l-1.140625 0zm3.1667328 -9.015625l0 -1.46875l1.296875 0l0 1.46875l-1.296875 0zm0 9.015625l0 -7.59375l1.296875 0l0 7.59375l-1.296875 0zm3.2405243 0l0 -7.59375l1.15625 0l0 1.140625q0.453125 -0.796875 0.828125 -1.046875q0.375 -0.265625 0.8125 -0.265625q0.65625 0 1.328125 0.40625l-0.4375 1.203125q-0.46875 -0.28125 -0.953125 -0.28125q-0.421875 0 -0.765625 0.25q-0.328125 0.25 -0.46875 0.703125q-0.21875 0.6875 -0.21875 1.5l0 3.984375l-1.28125 0zm10.099396 -2.453125l1.328125 0.171875q-0.3125 1.171875 -1.171875 1.8125q-0.84375 0.640625 -2.171875 0.640625q-1.671875 0 -2.65625 -1.015625q-0.96875 -1.03125 -0.96875 -2.890625q0 -1.921875 0.984375 -2.96875q1.0 -1.0625 2.578125 -1.0625q1.515625 0 2.484375 1.03125q0.96875 1.03125 0.96875 2.921875q0 0.109375 -0.015625 0.34375l-5.65625 0q0.0625 1.25 0.703125 1.921875q0.640625 0.65625 1.59375 0.65625q0.703125 0 1.203125 -0.359375q0.5 -0.375 0.796875 -1.203125zm-4.234375 -2.078125l4.25 0q-0.09375 -0.953125 -0.484375 -1.4375q-0.625 -0.75 -1.609375 -0.75q-0.875 0 -1.484375 0.59375q-0.609375 0.59375 -0.671875 1.59375z" fill-rule="nonzero"/><path fill="#000000" fill-opacity="0.0" d="m-105.28747 169.28947l102.11024 0l0 33.95276l-102.11024 0z" fill-rule="evenodd"/><path fill="#000000" d="m-82.909485 192.36948l0 -7.59375l1.15625 0l0 1.140625q0.453125 -0.796875 0.828125 -1.046875q0.375 -0.265625 0.8125 -0.265625q0.65625 0 1.328125 0.40625l-0.4375 1.203125q-0.46875 -0.28125 -0.953125 -0.28125q-0.421875 0 -0.765625 0.25q-0.328125 0.25 -0.46875 0.703125q-0.21875 0.6875 -0.21875 1.5l0 3.984375l-1.28125 0zm9.849396 -0.9375q-0.71875 0.609375 -1.375 0.859375q-0.65625 0.25 -1.421875 0.25q-1.25 0 -1.921875 -0.609375q-0.671875 -0.609375 -0.671875 -1.5625q0 -0.5625 0.25 -1.015625q0.25 -0.46875 0.65625 -0.75q0.421875 -0.28125 0.9375 -0.421875q0.375 -0.09375 1.140625 -0.1875q1.5625 -0.1875 2.296875 -0.453125q0.015625 -0.265625 0.015625 -0.328125q0 -0.796875 -0.375 -1.109375q-0.484375 -0.4375 -1.453125 -0.4375q-0.921875 0 -1.359375 0.328125q-0.421875 0.3125 -0.625 1.109375l-1.265625 -0.171875q0.171875 -0.796875 0.5625 -1.296875q0.390625 -0.5 1.140625 -0.765625q0.75 -0.265625 1.71875 -0.265625q0.984375 0 1.59375 0.234375q0.609375 0.21875 0.890625 0.5625q0.28125 0.34375 0.40625 0.875q0.0625 0.328125 0.0625 1.1875l0 1.71875q0 1.796875 0.078125 2.28125q0.078125 0.46875 0.328125 0.90625l-1.34375 0q-0.203125 -0.40625 -0.265625 -0.9375zm-0.109375 -2.875q-0.703125 0.28125 -2.09375 0.484375q-0.796875 0.109375 -1.125 0.265625q-0.328125 0.140625 -0.515625 0.421875q-0.171875 0.265625 -0.171875 0.59375q0 0.515625 0.390625 0.859375q0.390625 0.34375 1.140625 0.34375q0.734375 0 1.3125 -0.3125q0.59375 -0.328125 0.859375 -0.890625q0.203125 -0.4375 0.203125 -1.296875l0 -0.46875zm8.260483 1.03125l1.2656288 0.15625q-0.203125 1.3125 -1.0625038 2.0625q-0.84375 0.734375 -2.09375 0.734375q-1.5625 0 -2.515625 -1.015625q-0.9375 -1.03125 -0.9375 -2.921875q0 -1.234375 0.40625 -2.15625q0.40625 -0.921875 1.234375 -1.375q0.84375 -0.46875 1.8125 -0.46875q1.25 0 2.03125 0.625q0.7812538 0.625 1.0156288 1.765625l-1.2656288 0.203125q-0.171875 -0.765625 -0.625 -1.15625q-0.453125 -0.390625 -1.09375 -0.390625q-0.984375 0 -1.59375 0.703125q-0.609375 0.703125 -0.609375 2.203125q0 1.53125 0.578125 2.234375q0.59375 0.6875 1.546875 0.6875q0.75 0 1.265625 -0.453125q0.515625 -0.46875 0.640625 -1.4375zm7.328129 0l1.265625 0.15625q-0.203125 1.3125 -1.0625 2.0625q-0.84375 0.734375 -2.09375 0.734375q-1.5625 0 -2.515625 -1.015625q-0.9375 -1.03125 -0.9375 -2.921875q0 -1.234375 0.40625 -2.15625q0.40625 -0.921875 1.234375 -1.375q0.84375 -0.46875 1.8125 -0.46875q1.25 0 2.03125 0.625q0.78125 0.625 1.015625 1.765625l-1.265625 0.203125q-0.171875 -0.765625 -0.625 -1.15625q-0.453125 -0.390625 -1.09375 -0.390625q-0.984375 0 -1.59375 0.703125q-0.609375 0.703125 -0.609375 2.203125q0 1.53125 0.578125 2.234375q0.59375 0.6875 1.546875 0.6875q0.75 0 1.265625 -0.453125q0.515625 -0.46875 0.640625 -1.4375zm1.890625 -1.015625q0 -2.109375 1.171875 -3.125q0.984375 -0.84375 2.390625 -0.84375q1.578125 0 2.5625 1.03125q1.0 1.015625 1.0 2.828125q0 1.46875 -0.4375 2.3125q-0.4375 0.828125 -1.28125 1.296875q-0.84375 0.46875 -1.84375 0.46875q-1.59375 0 -2.578125 -1.015625q-0.984375 -1.03125 -0.984375 -2.953125zm1.328125 0q0 1.453125 0.625 2.1875q0.640625 0.71875 1.609375 0.71875q0.96875 0 1.59375 -0.71875q0.640625 -0.734375 0.640625 -2.234375q0 -1.40625 -0.640625 -2.125q-0.640625 -0.734375 -1.59375 -0.734375q-0.96875 0 -1.609375 0.71875q-0.625 0.71875 -0.625 2.1875zm7.072983 4.421875l1.25 0.1875q0.078125 0.578125 0.4375 0.84375q0.46875 0.359375 1.3125 0.359375q0.890625 0 1.375 -0.359375q0.484375 -0.359375 0.65625 -1.0q0.109375 -0.390625 0.09375 -1.65625q-0.84375 1.0 -2.109375 1.0q-1.5625 0 -2.421875 -1.125q-0.859375 -1.140625 -0.859375 -2.71875q0 -1.09375 0.390625 -2.0q0.40625 -0.921875 1.140625 -1.421875q0.75 -0.5 1.765625 -0.5q1.34375 0 2.21875 1.078125l0 -0.90625l1.1875 0l0 6.5625q0 1.78125 -0.359375 2.515625q-0.359375 0.734375 -1.15625 1.15625q-0.78125 0.4375 -1.921875 0.4375q-1.359375 0 -2.203125 -0.609375q-0.828125 -0.609375 -0.796875 -1.84375zm1.0625 -4.5625q0 1.5 0.59375 2.1875q0.59375 0.6875 1.484375 0.6875q0.890625 0 1.484375 -0.6875q0.609375 -0.6875 0.609375 -2.140625q0 -1.390625 -0.625 -2.09375q-0.609375 -0.71875 -1.484375 -0.71875q-0.859375 0 -1.46875 0.703125q-0.59375 0.6875 -0.59375 2.0625zm7.291733 3.9375l0 -10.484375l1.28125 0l0 10.484375l-1.28125 0zm3.2873993 -9.015625l0 -1.46875l1.296875 0l0 1.46875l-1.296875 0zm0 9.015625l0 -7.59375l1.296875 0l0 7.59375l-1.296875 0zm8.459272 -2.453125l1.328125 0.171875q-0.3125 1.171875 -1.171875 1.8125q-0.84375 0.640625 -2.171875 0.640625q-1.671875 0 -2.65625 -1.015625q-0.9687481 -1.03125 -0.9687481 -2.890625q0 -1.921875 0.9843731 -2.96875q1.0 -1.0625 2.578125 -1.0625q1.515625 0 2.484375 1.03125q0.96875 1.03125 0.96875 2.921875q0 0.109375 -0.015625 0.34375l-5.65625 0q0.0625 1.25 0.703125 1.921875q0.640625 0.65625 1.59375 0.65625q0.703125 0 1.203125 -0.359375q0.5 -0.375 0.796875 -1.203125zm-4.234375 -2.078125l4.25 0q-0.09375 -0.953125 -0.484375 -1.4375q-0.625 -0.75 -1.609375 -0.75q-0.875 0 -1.484375 0.59375q-0.609375 0.59375 -0.671875 1.59375zm7.166733 4.53125l0 -7.59375l1.15625 0l0 1.140625q0.453125 -0.796875 0.828125 -1.046875q0.375 -0.265625 0.8125 -0.265625q0.65625 0 1.328125 0.40625l-0.4375 1.203125q-0.46875 -0.28125 -0.953125 -0.28125q-0.421875 0 -0.765625 0.25q-0.328125 0.25 -0.46875 0.703125q-0.21875 0.6875 -0.21875 1.5l0 3.984375l-1.28125 0zm10.099396 -2.453125l1.328125 0.171875q-0.3125 1.171875 -1.171875 1.8125q-0.84375 0.640625 -2.171875 0.640625q-1.671875 0 -2.65625 -1.015625q-0.96875 -1.03125 -0.96875 -2.890625q0 -1.921875 0.984375 -2.96875q1.0 -1.0625 2.578125 -1.0625q1.515625 0 2.484375 1.03125q0.96875 1.03125 0.96875 2.921875q0 0.109375 -0.015625 0.34375l-5.65625 0q0.0625 1.25 0.703125 1.921875q0.640625 0.65625 1.59375 0.65625q0.703125 0 1.203125 -0.359375q0.5 -0.375 0.796875 -1.203125zm-4.234375 -2.078125l4.25 0q-0.09375 -0.953125 -0.484375 -1.4375q-0.625 -0.75 -1.609375 -0.75q-0.875 0 -1.484375 0.59375q-0.609375 0.59375 -0.671875 1.59375z" fill-rule="nonzero"/><path fill="#000000" fill-opacity="0.0" d="m-107.01451 95.21158l104.91338 0l0 33.95276l-104.91338 0z" fill-rule="evenodd"/><path fill="#000000" d="m-78.48197 115.51033l1.265625 0.15625q-0.203125 1.3125 -1.0625 2.0625q-0.84375 0.734375 -2.09375 0.734375q-1.5625 0 -2.515625 -1.015625q-0.9375 -1.03125 -0.9375 -2.921875q0 -1.234375 0.40625 -2.15625q0.40625 -0.921875 1.234375 -1.375q0.84375 -0.46875 1.8125 -0.46875q1.25 0 2.03125 0.625q0.78125 0.625 1.015625 1.765625l-1.265625 0.203125q-0.171875 -0.765625 -0.625 -1.15625q-0.453125 -0.390625 -1.09375 -0.390625q-0.984375 0 -1.59375 0.703125q-0.609375 0.703125 -0.609375 2.203125q0 1.53125 0.578125 2.234375q0.59375 0.6875 1.546875 0.6875q0.75 0 1.265625 -0.453125q0.515625 -0.46875 0.640625 -1.4375zm1.890625 -1.015625q0 -2.109375 1.171875 -3.125q0.984375 -0.84375 2.390625 -0.84375q1.578125 0 2.5625 1.03125q1.0 1.015625 1.0 2.828125q0 1.46875 -0.4375 2.3125q-0.4375 0.828125 -1.28125 1.296875q-0.84375 0.46875 -1.84375 0.46875q-1.59375 0 -2.578125 -1.015625q-0.984375 -1.03125 -0.984375 -2.953125zm1.328125 0q0 1.453125 0.625 2.1875q0.640625 0.71875 1.609375 0.71875q0.96875 0 1.59375 -0.71875q0.640625 -0.734375 0.640625 -2.234375q0 -1.40625 -0.640625 -2.125q-0.640625 -0.734375 -1.59375 -0.734375q-0.96875 0 -1.609375 0.71875q-0.625 0.71875 -0.625 2.1875zm7.307358 3.796875l0 -7.59375l1.15625 0l0 1.0625q0.34375 -0.5625 0.9375 -0.890625q0.609375 -0.34375 1.359375 -0.34375q0.84375 0 1.375 0.34375q0.546875 0.34375 0.765625 0.984375q0.90625 -1.328125 2.359375 -1.328125q1.125 0 1.734375 0.625q0.609375 0.625 0.609375 1.921875l0 5.21875l-1.28125 0l0 -4.78125q0 -0.78125 -0.125 -1.109375q-0.125 -0.34375 -0.453125 -0.546875q-0.328125 -0.21875 -0.78125 -0.21875q-0.796875 0 -1.328125 0.53125q-0.53125 0.53125 -0.53125 1.703125l0 4.421875l-1.28125 0l0 -4.9375q0 -0.859375 -0.3125 -1.28125q-0.3125 -0.4375 -1.03125 -0.4375q-0.546875 0 -1.015625 0.296875q-0.453125 0.28125 -0.671875 0.828125q-0.203125 0.546875 -0.203125 1.59375l0 3.9375l-1.28125 0zm12.208771 0l0 -7.59375l1.15625 0l0 1.0625q0.34375 -0.5625 0.9375 -0.890625q0.609375 -0.34375 1.359375 -0.34375q0.84375 0 1.375 0.34375q0.546875 0.34375 0.765625 0.984375q0.90625 -1.328125 2.359375 -1.328125q1.125 0 1.734375 0.625q0.609375 0.625 0.609375 1.921875l0 5.21875l-1.28125 0l0 -4.78125q0 -0.78125 -0.125 -1.109375q-0.125 -0.34375 -0.453125 -0.546875q-0.328125 -0.21875 -0.78125 -0.21875q-0.796875 0 -1.328125 0.53125q-0.53125 0.53125 -0.53125 1.703125l0 4.421875l-1.28125 0l0 -4.9375q0 -0.859375 -0.3125 -1.28125q-0.3125 -0.4375 -1.03125 -0.4375q-0.546875 0 -1.015625 0.296875q-0.453125 0.28125 -0.671875 0.828125q-0.203125 0.546875 -0.203125 1.59375l0 3.9375l-1.28125 0zm17.193146 0l0 -1.109375q-0.890625 1.28125 -2.421875 1.28125q-0.671875 0 -1.25 -0.25q-0.578125 -0.265625 -0.875 -0.65625q-0.28125 -0.390625 -0.390625 -0.953125q-0.078125 -0.375 -0.078125 -1.203125l0 -4.703125l1.28125 0l0 4.203125q0 1.015625 0.078125 1.359375q0.125 0.515625 0.515625 0.8125q0.40625 0.28125 0.984375 0.28125q0.578125 0 1.078125 -0.296875q0.515625 -0.296875 0.71875 -0.8125q0.21875 -0.515625 0.21875 -1.484375l0 -4.0625l1.28125 0l0 7.59375l-1.140625 0zm5.979233 -1.15625l0.1875 1.140625q-0.546875 0.109375 -0.984375 0.109375q-0.6875 0 -1.078125 -0.21875q-0.390625 -0.21875 -0.546875 -0.578125q-0.15625 -0.359375 -0.15625 -1.515625l0 -4.375l-0.953125 0l0 -1.0l0.953125 0l0 -1.890625l1.28125 -0.765625l0 2.65625l1.296875 0l0 1.0l-1.296875 0l0 4.4375q0 0.546875 0.0625 0.71875q0.078125 0.15625 0.21875 0.25q0.15625 0.078125 0.453125 0.078125q0.203125 0 0.5625 -0.046875zm6.2126007 0.21875q-0.71875 0.609375 -1.375 0.859375q-0.65625 0.25 -1.421875 0.25q-1.25 0 -1.921875 -0.609375q-0.671875 -0.609375 -0.671875 -1.5625q0 -0.5625 0.25 -1.015625q0.25 -0.46875 0.65625 -0.75q0.421875 -0.28125 0.9375 -0.421875q0.375 -0.09375 1.140625 -0.1875q1.5625 -0.1875 2.296875 -0.453125q0.015625 -0.265625 0.015625 -0.328125q0 -0.796875 -0.375 -1.109375q-0.484375 -0.4375 -1.453125 -0.4375q-0.921875 0 -1.359375 0.328125q-0.421875 0.3125 -0.625 1.109375l-1.265625 -0.171875q0.171875 -0.796875 0.5625 -1.296875q0.390625 -0.5 1.140625 -0.765625q0.75 -0.265625 1.71875 -0.265625q0.984375 0 1.59375 0.234375q0.609375 0.21875 0.890625 0.5625q0.28125 0.34375 0.40625 0.875q0.0625 0.328125 0.0625 1.1875l0 1.71875q0 1.796875 0.078125 2.28125q0.078125 0.46875 0.328125 0.90625l-1.34375 0q-0.203125 -0.40625 -0.265625 -0.9375zm-0.109375 -2.875q-0.703125 0.28125 -2.09375 0.484375q-0.796875 0.109375 -1.125 0.265625q-0.328125 0.140625 -0.515625 0.421875q-0.171875 0.265625 -0.171875 0.59375q0 0.515625 0.390625 0.859375q0.390625 0.34375 1.140625 0.34375q0.734375 0 1.3125 -0.3125q0.59375 -0.328125 0.859375 -0.890625q0.203125 -0.4375 0.203125 -1.296875l0 -0.46875zm3.2917328 3.8125l0 -7.59375l1.15625 0l0 1.140625q0.453125 -0.796875 0.828125 -1.046875q0.375 -0.265625 0.8125 -0.265625q0.65625 0 1.328125 0.40625l-0.4375 1.203125q-0.46875 -0.28125 -0.953125 -0.28125q-0.421875 0 -0.765625 0.25q-0.328125 0.25 -0.46875 0.703125q-0.21875 0.6875 -0.21875 1.5l0 3.984375l-1.28125 0zm10.099395 -2.453125l1.328125 0.171875q-0.3125 1.171875 -1.171875 1.8125q-0.84375 0.640625 -2.171875 0.640625q-1.671874 0 -2.656249 -1.015625q-0.96875 -1.03125 -0.96875 -2.890625q0 -1.921875 0.984375 -2.96875q1.0 -1.0625 2.578124 -1.0625q1.515625 0 2.484375 1.03125q0.96875 1.03125 0.96875 2.921875q0 0.109375 -0.015625 0.34375l-5.656249 0q0.0625 1.25 0.703125 1.921875q0.640625 0.65625 1.593749 0.65625q0.703125 0 1.203125 -0.359375q0.5 -0.375 0.796875 -1.203125zm-4.234374 -2.078125l4.249999 0q-0.09375 -0.953125 -0.484375 -1.4375q-0.625 -0.75 -1.609375 -0.75q-0.87499905 0 -1.484374 0.59375q-0.609375 0.59375 -0.671875 1.59375z" fill-rule="nonzero"/><path fill="#000000" fill-opacity="0.0" d="m-97.60721 120.229195l96.18897 0l0 27.653542l-96.18897 0z" fill-rule="evenodd"/><path fill="#000000" d="m-67.221954 142.37169q-0.71875 0.609375 -1.375 0.859375q-0.65625 0.25 -1.421875 0.25q-1.25 0 -1.921875 -0.609375q-0.671875 -0.609375 -0.671875 -1.5625q0 -0.5625 0.25 -1.015625q0.25 -0.46875 0.65625 -0.75q0.421875 -0.28125 0.9375 -0.421875q0.375 -0.09375 1.140625 -0.1875q1.5625 -0.1875 2.296875 -0.453125q0.015625 -0.265625 0.015625 -0.328125q0 -0.796875 -0.375 -1.109375q-0.484375 -0.4375 -1.453125 -0.4375q-0.921875 0 -1.359375 0.328125q-0.421875 0.3125 -0.625 1.109375l-1.265625 -0.171875q0.171875 -0.796875 0.5625 -1.296875q0.390625 -0.5 1.140625 -0.765625q0.75 -0.265625 1.71875 -0.265625q0.984375 0 1.59375 0.234375q0.609375 0.21875 0.890625 0.5625q0.28125 0.34375 0.40625 0.875q0.0625 0.328125 0.0625 1.1875l0 1.71875q0 1.796875 0.078125 2.28125q0.078125 0.46875 0.328125 0.90625l-1.34375 0q-0.203125 -0.40625 -0.265625 -0.9375zm-0.109375 -2.875q-0.703125 0.28125 -2.09375 0.484375q-0.796875 0.109375 -1.125 0.265625q-0.328125 0.140625 -0.515625 0.421875q-0.171875 0.265625 -0.171875 0.59375q0 0.515625 0.390625 0.859375q0.390625 0.34375 1.140625 0.34375q0.734375 0 1.3125 -0.3125q0.59375 -0.328125 0.859375 -0.890625q0.203125 -0.4375 0.203125 -1.296875l0 -0.46875zm2.7917328 1.546875l1.2656212 -0.203125q0.109375 0.765625 0.59375 1.171875q0.5 0.40625 1.375 0.40625q0.890625 0 1.3125 -0.359375q0.4375 -0.359375 0.4375 -0.84375q0 -0.4375 -0.375 -0.6875q-0.265625 -0.171875 -1.3125 -0.4375q-1.421875 -0.359375 -1.96875 -0.609375q-0.546875 -0.265625 -0.8281212 -0.734375q-0.28125 -0.46875 -0.28125 -1.015625q0 -0.515625 0.21875 -0.9375q0.23437119 -0.4375 0.6406212 -0.734375q0.296875 -0.21875 0.8125 -0.359375q0.53125 -0.15625 1.125 -0.15625q0.890625 0 1.5625 0.265625q0.671875 0.25 1.0 0.6875q0.328125 0.4375 0.4375 1.171875l-1.25 0.171875q-0.09375 -0.578125 -0.5 -0.90625q-0.40625 -0.34375 -1.15625 -0.34375q-0.890625 0 -1.28125 0.296875q-0.375 0.296875 -0.375 0.6875q0 0.25 0.15625 0.453125q0.15625 0.203125 0.5 0.34375q0.1875 0.078125 1.140625 0.328125q1.359375 0.359375 1.890625 0.59375q0.546875 0.234375 0.859375 0.6875q0.3125 0.4375 0.3125 1.09375q0 0.640625 -0.375 1.21875q-0.375 0.5625 -1.09375 0.875q-0.703125 0.3125 -1.59375 0.3125q-1.484375 0 -2.265625 -0.609375q-0.7656212 -0.625 -0.9843712 -1.828125zm7.328121 0l1.265625 -0.203125q0.109375 0.765625 0.59375 1.171875q0.5 0.40625 1.375 0.40625q0.890625 0 1.3125 -0.359375q0.4375 -0.359375 0.4375 -0.84375q0 -0.4375 -0.375 -0.6875q-0.265625 -0.171875 -1.3125 -0.4375q-1.421875 -0.359375 -1.96875 -0.609375q-0.546875 -0.265625 -0.828125 -0.734375q-0.28125 -0.46875 -0.28125 -1.015625q0 -0.515625 0.21875 -0.9375q0.234375 -0.4375 0.640625 -0.734375q0.296875 -0.21875 0.8125 -0.359375q0.53125 -0.15625 1.125 -0.15625q0.890625 0 1.5625 0.265625q0.671875 0.25 1.0 0.6875q0.328125 0.4375 0.4375 1.171875l-1.25 0.171875q-0.09375 -0.578125 -0.5 -0.90625q-0.40625 -0.34375 -1.15625 -0.34375q-0.890625 0 -1.28125 0.296875q-0.375 0.296875 -0.375 0.6875q0 0.25 0.15625 0.453125q0.15625 0.203125 0.5 0.34375q0.1875 0.078125 1.140625 0.328125q1.359375 0.359375 1.890625 0.59375q0.546875 0.234375 0.859375 0.6875q0.3125 0.4375 0.3125 1.09375q0 0.640625 -0.375 1.21875q-0.375 0.5625 -1.09375 0.875q-0.703125 0.3125 -1.59375 0.3125q-1.484375 0 -2.265625 -0.609375q-0.765625 -0.625 -0.984375 -1.828125zm7.359375 -1.53125q0 -2.109375 1.171875 -3.125q0.984375 -0.84375 2.390625 -0.84375q1.578125 0 2.5625 1.03125q1.0 1.015625 1.0 2.828125q0 1.46875 -0.4375 2.3125q-0.4375 0.828125 -1.28125 1.296875q-0.84375 0.46875 -1.84375 0.46875q-1.59375 0 -2.578125 -1.015625q-0.984375 -1.03125 -0.984375 -2.953125zm1.328125 0q0 1.453125 0.625 2.1875q0.640625 0.71875 1.609375 0.71875q0.96875 0 1.59375 -0.71875q0.640625 -0.734375 0.640625 -2.234375q0 -1.40625 -0.640625 -2.125q-0.640625 -0.734375 -1.59375 -0.734375q-0.96875 0 -1.609375 0.71875q-0.625 0.71875 -0.625 2.1875zm12.260483 1.015625l1.265625 0.15625q-0.203125 1.3125 -1.0625 2.0625q-0.84375 0.734375 -2.09375 0.734375q-1.5625 0 -2.515625 -1.015625q-0.9375 -1.03125 -0.9375 -2.921875q0 -1.234375 0.40625 -2.15625q0.40625 -0.921875 1.234375 -1.375q0.84375 -0.46875 1.8125 -0.46875q1.25 0 2.03125 0.625q0.78125 0.625 1.015625 1.765625l-1.265625 0.203125q-0.171875 -0.765625 -0.625 -1.15625q-0.453125 -0.390625 -1.09375 -0.390625q-0.984375 0 -1.59375 0.703125q-0.609375 0.703125 -0.609375 2.203125q0 1.53125 0.578125 2.234375q0.59375 0.6875 1.546875 0.6875q0.75 0 1.265625 -0.453125q0.515625 -0.46875 0.640625 -1.4375zm2.375 -6.234375l0 -1.46875l1.296875 0l0 1.46875l-1.296875 0zm0 9.015625l0 -7.59375l1.296875 0l0 7.59375l-1.296875 0zm8.209276 -0.9375q-0.71875 0.609375 -1.375 0.859375q-0.65625 0.25 -1.421875 0.25q-1.25 0 -1.921875 -0.609375q-0.671875 -0.609375 -0.671875 -1.5625q0 -0.5625 0.25 -1.015625q0.25 -0.46875 0.65625 -0.75q0.421875 -0.28125 0.9375 -0.421875q0.375 -0.09375 1.140625 -0.1875q1.5625 -0.1875 2.296875 -0.453125q0.015625 -0.265625 0.015625 -0.328125q0 -0.796875 -0.375 -1.109375q-0.484375 -0.4375 -1.453125 -0.4375q-0.921875 0 -1.359375 0.328125q-0.421875 0.3125 -0.625 1.109375l-1.265625 -0.171875q0.171875 -0.796875 0.5625 -1.296875q0.390625 -0.5 1.140625 -0.765625q0.75 -0.265625 1.71875 -0.265625q0.984375 0 1.59375 0.234375q0.609375 0.21875 0.890625 0.5625q0.28125 0.34375 0.40625 0.875q0.0625 0.328125 0.0625 1.1875l0 1.71875q0 1.796875 0.078125 2.28125q0.078125 0.46875 0.328125 0.90625l-1.34375 0q-0.203125 -0.40625 -0.265625 -0.9375zm-0.109375 -2.875q-0.703125 0.28125 -2.09375 0.484375q-0.796875 0.109375 -1.125 0.265625q-0.328125 0.140625 -0.515625 0.421875q-0.171875 0.265625 -0.171875 0.59375q0 0.515625 0.390625 0.859375q0.390625 0.34375 1.140625 0.34375q0.734375 0 1.3125 -0.3125q0.59375 -0.328125 0.859375 -0.890625q0.203125 -0.4375 0.203125 -1.296875l0 -0.46875zm3.2917328 3.8125l0 -7.59375l1.15625 0l0 1.140625q0.453125 -0.796875 0.828125 -1.046875q0.375 -0.265625 0.8125 -0.265625q0.65625 0 1.328125 0.40625l-0.4375 1.203125q-0.46875 -0.28125 -0.953125 -0.28125q-0.421875 0 -0.765625 0.25q-0.328125 0.25 -0.46875 0.703125q-0.21875 0.6875 -0.21875 1.5l0 3.984375l-1.28125 0zm10.099395 -2.453125l1.328125 0.171875q-0.3125 1.171875 -1.171875 1.8125q-0.84375 0.640625 -2.171875 0.640625q-1.671874 0 -2.656249 -1.015625q-0.96875 -1.03125 -0.96875 -2.890625q0 -1.921875 0.984375 -2.96875q1.0 -1.0625 2.578124 -1.0625q1.515625 0 2.484375 1.03125q0.96875 1.03125 0.96875 2.921875q0 0.109375 -0.015625 0.34375l-5.656249 0q0.0625 1.25 0.70312405 1.921875q0.640625 0.65625 1.59375 0.65625q0.703125 0 1.203125 -0.359375q0.5 -0.375 0.796875 -1.203125zm-4.234374 -2.078125l4.249999 0q-0.09375 -0.953125 -0.484375 -1.4375q-0.625 -0.75 -1.609375 -0.75q-0.875 0 -1.484375 0.59375q-0.60937405 0.59375 -0.67187405 1.59375z" fill-rule="nonzero"/><path fill="#000000" fill-opacity="0.0" d="m-85.91989 192.53677l88.062996 0l0 35.307083l-88.062996 0z" fill-rule="evenodd"/><path fill="#000000" d="m-65.05024 213.35115l1.265625 -0.203125q0.109375 0.765625 0.59375 1.171875q0.5 0.40625 1.375 0.40625q0.890625 0 1.3125 -0.359375q0.4375 -0.359375 0.4375 -0.84375q0 -0.4375 -0.375 -0.6875q-0.265625 -0.171875 -1.3125 -0.4375q-1.421875 -0.359375 -1.96875 -0.609375q-0.546875 -0.265625 -0.828125 -0.734375q-0.28125 -0.46875 -0.28125 -1.015625q0 -0.515625 0.21875 -0.9375q0.234375 -0.4375 0.640625 -0.734375q0.296875 -0.21875 0.8125 -0.359375q0.53125 -0.15625 1.125 -0.15625q0.890625 0 1.5625 0.265625q0.671875 0.25 1.0 0.6875q0.328125 0.4375 0.4375 1.171875l-1.25 0.171875q-0.09375 -0.578125 -0.5 -0.90625q-0.40625 -0.34375 -1.15625 -0.34375q-0.890625 0 -1.28125 0.296875q-0.375 0.296875 -0.375 0.6875q0 0.25 0.15625 0.453125q0.15625 0.203125 0.5 0.34375q0.1875 0.078125 1.140625 0.328125q1.359375 0.359375 1.890625 0.59375q0.546875 0.234375 0.859375 0.6875q0.3125 0.4375 0.3125 1.09375q0 0.640625 -0.375 1.21875q-0.375 0.5625 -1.09375 0.875q-0.703125 0.3125 -1.59375 0.3125q-1.484375 0 -2.265625 -0.609375q-0.765625 -0.625 -0.984375 -1.828125zm7.359375 -1.53125q0 -2.109375 1.171875 -3.125q0.984375 -0.84375 2.390625 -0.84375q1.578125 0 2.5625 1.03125q1.0 1.015625 1.0 2.828125q0 1.46875 -0.4375 2.3125q-0.4375 0.828125 -1.28125 1.296875q-0.84375 0.46875 -1.84375 0.46875q-1.59375 0 -2.578125 -1.015625q-0.984375 -1.03125 -0.984375 -2.953125zm1.328125 0q0 1.453125 0.625 2.1875q0.640625 0.71875 1.609375 0.71875q0.96875 0 1.59375 -0.71875q0.640625 -0.734375 0.640625 -2.234375q0 -1.40625 -0.640625 -2.125q-0.640625 -0.734375 -1.59375 -0.734375q-0.96875 0 -1.609375 0.71875q-0.625 0.71875 -0.625 2.1875zm6.791733 1.53125l1.265625 -0.203125q0.109375 0.765625 0.59375 1.171875q0.5 0.40625 1.375 0.40625q0.890625 0 1.3125 -0.359375q0.4375 -0.359375 0.4375 -0.84375q0 -0.4375 -0.375 -0.6875q-0.265625 -0.171875 -1.3125 -0.4375q-1.421875 -0.359375 -1.96875 -0.609375q-0.546875 -0.265625 -0.828125 -0.734375q-0.28125 -0.46875 -0.28125 -1.015625q0 -0.515625 0.21875 -0.9375q0.234375 -0.4375 0.640625 -0.734375q0.296875 -0.21875 0.8125 -0.359375q0.53125 -0.15625 1.125 -0.15625q0.890625 0 1.5625 0.265625q0.671875 0.25 1.0 0.6875q0.328125 0.4375 0.4375 1.171875l-1.25 0.171875q-0.09375 -0.578125 -0.5 -0.90625q-0.40625 -0.34375 -1.15625 -0.34375q-0.890625 0 -1.28125 0.296875q-0.375 0.296875 -0.375 0.6875q0 0.25 0.15625 0.453125q0.15625 0.203125 0.5 0.34375q0.1875 0.078125 1.140625 0.328125q1.359375 0.359375 1.890625 0.59375q0.546875 0.234375 0.859375 0.6875q0.3125 0.4375 0.3125 1.09375q0 0.640625 -0.375 1.21875q-0.375 0.5625 -1.09375 0.875q-0.703125 0.3125 -1.59375 0.3125q-1.484375 0 -2.265625 -0.609375q-0.765625 -0.625 -0.984375 -1.828125zm10.65625 1.109375l0.1875 1.140625q-0.546875 0.109375 -0.984375 0.109375q-0.6875 0 -1.078125 -0.21875q-0.390625 -0.21875 -0.546875 -0.578125q-0.15625 -0.359375 -0.15625 -1.515625l0 -4.375l-0.953125 0l0 -1.0l0.953125 0l0 -1.890625l1.28125 -0.765625l0 2.65625l1.296875 0l0 1.0l-1.296875 0l0 4.4375q0 0.546875 0.0625 0.71875q0.078125 0.15625 0.21875 0.25q0.15625 0.078125 0.453125 0.078125q0.203125 0 0.5625 -0.046875zm1.2594757 -7.859375l0 -1.46875l1.296875 0l0 1.46875l-1.296875 0zm0 9.015625l0 -7.59375l1.296875 0l0 7.59375l-1.296875 0zm6.0686493 -1.15625l0.1875 1.140625q-0.546875 0.109375 -0.984375 0.109375q-0.6875 0 -1.078125 -0.21875q-0.390625 -0.21875 -0.546875 -0.578125q-0.15625 -0.359375 -0.15625 -1.515625l0 -4.375l-0.953125 0l0 -1.0l0.953125 0l0 -1.890625l1.28125 -0.765625l0 2.65625l1.296875 0l0 1.0l-1.296875 0l0 4.4375q0 0.546875 0.0625 0.71875q0.078125 0.15625 0.21875 0.25q0.15625 0.078125 0.453125 0.078125q0.203125 0 0.5625 -0.046875zm6.2438507 1.15625l0 -1.109375q-0.890625 1.28125 -2.421875 1.28125q-0.671875 0 -1.25 -0.25q-0.578125 -0.265625 -0.875 -0.65625q-0.28125 -0.390625 -0.390625 -0.953125q-0.078125 -0.375 -0.078125 -1.203125l0 -4.703125l1.28125 0l0 4.203125q0 1.015625 0.078125 1.359375q0.125 0.515625 0.515625 0.8125q0.40625 0.28125 0.984375 0.28125q0.578125 0 1.078125 -0.296875q0.515625 -0.296875 0.71875 -0.8125q0.21875 -0.515625 0.21875 -1.484375l0 -4.0625l1.28125 0l0 7.59375l-1.140625 0zm3.1667328 -9.015625l0 -1.46875l1.296875 0l0 1.46875l-1.296875 0zm0 9.015625l0 -7.59375l1.296875 0l0 7.59375l-1.296875 0zm3.2405243 0l0 -7.59375l1.15625 0l0 1.140625q0.453125 -0.796875 0.828125 -1.046875q0.375 -0.265625 0.8125 -0.265625q0.65625095 0 1.328126 0.40625l-0.4375 1.203125q-0.46875 -0.28125 -0.95312595 -0.28125q-0.421875 0 -0.765625 0.25q-0.328125 0.25 -0.46875 0.703125q-0.21875 0.6875 -0.21875 1.5l0 3.984375l-1.28125 0zm10.099397 -2.453125l1.328125 0.171875q-0.3125 1.171875 -1.171875 1.8125q-0.84375 0.640625 -2.171875 0.640625q-1.671875 0 -2.65625 -1.015625q-0.96875 -1.03125 -0.96875 -2.890625q0 -1.921875 0.984375 -2.96875q1.0 -1.0625 2.578125 -1.0625q1.515625 0 2.484375 1.03125q0.96875 1.03125 0.96875 2.921875q0 0.109375 -0.015625 0.34375l-5.65625 0q0.0625 1.25 0.703125 1.921875q0.640625 0.65625 1.59375 0.65625q0.703125 0 1.203125 -0.359375q0.5 -0.375 0.796875 -1.203125zm-4.234375 -2.078125l4.25 0q-0.09375 -0.953125 -0.484375 -1.4375q-0.625 -0.75 -1.609375 -0.75q-0.875 0 -1.484375 0.59375q-0.609375 0.59375 -0.671875 1.59375z" fill-rule="nonzero"/><path fill="#ffffff" d="m462.765 237.69739l48.0 0l0 -24.0l-48.0 0z" fill-rule="evenodd"/><path stroke="#000000" stroke-width="1.0" stroke-linejoin="round" stroke-linecap="butt" d="m462.765 237.69739l48.0 0l0 -24.0l-48.0 0z" fill-rule="evenodd"/><path fill="#000000" fill-opacity="0.0" d="m487.28098 234.83862l19.4534 -8.675568" fill-rule="evenodd"/><path stroke="#000000" stroke-width="2.0" stroke-linejoin="round" stroke-linecap="butt" d="m498.24048 229.95103l8.4938965 -3.7879791" fill-rule="evenodd"/><path fill="#000000" stroke="#000000" stroke-width="2.0" stroke-linecap="butt" d="m496.89502 226.934l-6.943756 6.7137604l9.634735 -0.6796875z" fill-rule="evenodd"/><path fill="#000000" fill-opacity="0.0" d="m486.76227 235.69502l0 -20.697006" fill-rule="evenodd"/><path stroke="#000000" stroke-width="2.0" stroke-linejoin="round" stroke-linecap="butt" d="m486.76227 223.69502l0 -8.697006" fill-rule="evenodd"/><path fill="#000000" stroke="#000000" stroke-width="2.0" stroke-linecap="butt" d="m483.4588 223.69502l3.3034668 9.076202l3.3034668 -9.076202z" fill-rule="evenodd"/><path fill="#000000" fill-opacity="0.0" d="m486.24905 234.83862l-19.4534 -8.675568" fill-rule="evenodd"/><path stroke="#000000" stroke-width="2.0" stroke-linejoin="round" stroke-linecap="butt" d="m475.28952 229.95103l-8.493866 -3.7879791" fill-rule="evenodd"/><path fill="#000000" stroke="#000000" stroke-width="2.0" stroke-linecap="butt" d="m473.94403 232.96808l9.634735 0.6796875l-6.943756 -6.7137604z" fill-rule="evenodd"/><path fill="#000000" d="m485.35638 235.00513l0 0c0 0.7685852 0.6230469 1.3916473 1.3916321 1.3916473l0 0c0.3691101 0 0.7230835 -0.1466217 0.9840393 -0.40760803c0.26098633 -0.26098633 0.4076233 -0.6149597 0.4076233 -0.9840393l0 0c0 -0.7685852 -0.6230774 -1.3916473 -1.3916626 -1.3916473l0 0c-0.7685852 0 -1.3916321 0.62306213 -1.3916321 1.3916473z" fill-rule="evenodd"/><path stroke="#000000" stroke-width="1.0" stroke-linejoin="round" stroke-linecap="butt" d="m485.35638 235.00513l0 0c0 0.7685852 0.6230469 1.3916473 1.3916321 1.3916473l0 0c0.3691101 0 0.7230835 -0.1466217 0.9840393 -0.40760803c0.26098633 -0.26098633 0.4076233 -0.6149597 0.4076233 -0.9840393l0 0c0 -0.7685852 -0.6230774 -1.3916473 -1.3916626 -1.3916473l0 0c-0.7685852 0 -1.3916321 0.62306213 -1.3916321 1.3916473z" fill-rule="evenodd"/><path fill="#ffffff" d="m414.765 237.69739l48.0 0l0 -24.0l-48.0 0z" fill-rule="evenodd"/><path stroke="#000000" stroke-width="1.0" stroke-linejoin="round" stroke-linecap="butt" d="m414.765 237.69739l48.0 0l0 -24.0l-48.0 0z" fill-rule="evenodd"/><path fill="#000000" fill-opacity="0.0" d="m439.28098 234.83862l19.4534 -8.675568" fill-rule="evenodd"/><path stroke="#000000" stroke-width="2.0" stroke-linejoin="round" stroke-linecap="butt" d="m450.24048 229.95103l8.4938965 -3.7879791" fill-rule="evenodd"/><path fill="#000000" stroke="#000000" stroke-width="2.0" stroke-linecap="butt" d="m448.89502 226.934l-6.943756 6.7137604l9.634735 -0.6796875z" fill-rule="evenodd"/><path fill="#000000" fill-opacity="0.0" d="m438.76227 235.69502l0 -20.697006" fill-rule="evenodd"/><path stroke="#000000" stroke-width="2.0" stroke-linejoin="round" stroke-linecap="butt" d="m438.76227 223.69502l0 -8.697006" fill-rule="evenodd"/><path fill="#000000" stroke="#000000" stroke-width="2.0" stroke-linecap="butt" d="m435.4588 223.69502l3.3034668 9.076202l3.3034668 -9.076202z" fill-rule="evenodd"/><path fill="#000000" fill-opacity="0.0" d="m438.24905 234.83862l-19.4534 -8.675568" fill-rule="evenodd"/><path stroke="#000000" stroke-width="2.0" stroke-linejoin="round" stroke-linecap="butt" d="m427.28952 229.95103l-8.493866 -3.7879791" fill-rule="evenodd"/><path fill="#000000" stroke="#000000" stroke-width="2.0" stroke-linecap="butt" d="m425.94403 232.96808l9.634735 0.6796875l-6.943756 -6.7137604z" fill-rule="evenodd"/><path fill="#000000" d="m437.35638 235.00513l0 0c0 0.7685852 0.6230469 1.3916473 1.3916321 1.3916473l0 0c0.3691101 0 0.7230835 -0.1466217 0.9840393 -0.40760803c0.26098633 -0.26098633 0.4076233 -0.6149597 0.4076233 -0.9840393l0 0c0 -0.7685852 -0.6230774 -1.3916473 -1.3916626 -1.3916473l0 0c-0.7685852 0 -1.3916321 0.62306213 -1.3916321 1.3916473z" fill-rule="evenodd"/><path stroke="#000000" stroke-width="1.0" stroke-linejoin="round" stroke-linecap="butt" d="m437.35638 235.00513l0 0c0 0.7685852 0.6230469 1.3916473 1.3916321 1.3916473l0 0c0.3691101 0 0.7230835 -0.1466217 0.9840393 -0.40760803c0.26098633 -0.26098633 0.4076233 -0.6149597 0.4076233 -0.9840393l0 0c0 -0.7685852 -0.6230774 -1.3916473 -1.3916626 -1.3916473l0 0c-0.7685852 0 -1.3916321 0.62306213 -1.3916321 1.3916473z" fill-rule="evenodd"/><path fill="#ffffff" d="m462.765 213.69739l48.0 0l0 -24.0l-48.0 0z" fill-rule="evenodd"/><path stroke="#000000" stroke-width="1.0" stroke-linejoin="round" stroke-linecap="butt" d="m462.765 213.69739l48.0 0l0 -24.0l-48.0 0z" fill-rule="evenodd"/><path fill="#000000" fill-opacity="0.0" d="m487.28098 210.83862l19.4534 -8.675568" fill-rule="evenodd"/><path stroke="#000000" stroke-width="2.0" stroke-linejoin="round" stroke-linecap="butt" d="m487.28098 210.83862l8.493866 -3.7879791" fill-rule="evenodd"/><path fill="#000000" stroke="#000000" stroke-width="2.0" stroke-linecap="butt" d="m497.12033 210.06769l6.943756 -6.7137756l-9.634735 0.6796875z" fill-rule="evenodd"/><path fill="#000000" fill-opacity="0.0" d="m486.76227 211.69502l0 -20.697006" fill-rule="evenodd"/><path stroke="#000000" stroke-width="2.0" stroke-linejoin="round" stroke-linecap="butt" d="m486.76227 211.69502l0 -8.697006" fill-rule="evenodd"/><path fill="#000000" stroke="#000000" stroke-width="2.0" stroke-linecap="butt" d="m490.06573 202.99802l-3.3034668 -9.076202l-3.3034668 9.076202z" fill-rule="evenodd"/><path fill="#000000" fill-opacity="0.0" d="m486.24905 210.83862l-19.4534 -8.675568" fill-rule="evenodd"/><path stroke="#000000" stroke-width="2.0" stroke-linejoin="round" stroke-linecap="butt" d="m486.24905 210.83862l-8.4938965 -3.7879791" fill-rule="evenodd"/><path fill="#000000" stroke="#000000" stroke-width="2.0" stroke-linecap="butt" d="m479.10068 204.0336l-9.634735 -0.6796875l6.943756 6.7137756z" fill-rule="evenodd"/><path fill="#000000" d="m485.35638 211.00513l0 0c0 0.7685852 0.6230469 1.3916473 1.3916321 1.3916473l0 0c0.3691101 0 0.7230835 -0.1466217 0.9840393 -0.40760803c0.26098633 -0.26098633 0.4076233 -0.6149597 0.4076233 -0.9840393l0 0c0 -0.7685852 -0.6230774 -1.3916473 -1.3916626 -1.3916473l0 0c-0.7685852 0 -1.3916321 0.62306213 -1.3916321 1.3916473z" fill-rule="evenodd"/><path stroke="#000000" stroke-width="1.0" stroke-linejoin="round" stroke-linecap="butt" d="m485.35638 211.00513l0 0c0 0.7685852 0.6230469 1.3916473 1.3916321 1.3916473l0 0c0.3691101 0 0.7230835 -0.1466217 0.9840393 -0.40760803c0.26098633 -0.26098633 0.4076233 -0.6149597 0.4076233 -0.9840393l0 0c0 -0.7685852 -0.6230774 -1.3916473 -1.3916626 -1.3916473l0 0c-0.7685852 0 -1.3916321 0.62306213 -1.3916321 1.3916473z" fill-rule="evenodd"/><path fill="#ffffff" d="m414.765 189.69739l48.0 0l0 24.0l-48.0 0z" fill-rule="evenodd"/><path stroke="#000000" stroke-width="1.0" stroke-linejoin="round" stroke-linecap="butt" d="m414.765 189.69739l48.0 0l0 24.0l-48.0 0z" fill-rule="evenodd"/><path fill="#000000" fill-opacity="0.0" d="m439.28098 192.55615l19.46457 8.661423" fill-rule="evenodd"/><path stroke="#000000" stroke-width="2.0" stroke-linejoin="round" stroke-linecap="butt" d="m439.28098 192.55614l8.501007 3.7828217" fill-rule="evenodd"/><path fill="#000000" stroke="#000000" stroke-width="2.0" stroke-linecap="butt" d="m446.43896 199.3571l9.635284 0.67178345l-6.9492493 -6.708069z" fill-rule="evenodd"/><path fill="#000000" fill-opacity="0.0" d="m438.76227 191.69977l0 20.692902" fill-rule="evenodd"/><path stroke="#000000" stroke-width="2.0" stroke-linejoin="round" stroke-linecap="butt" d="m438.76227 191.69977l0 8.692902" fill-rule="evenodd"/><path fill="#000000" stroke="#000000" stroke-width="2.0" stroke-linecap="butt" d="m435.4588 200.39267l3.3034668 9.076202l3.3034668 -9.076202z" fill-rule="evenodd"/><path fill="#000000" fill-opacity="0.0" d="m438.24905 192.55615l-19.46457 8.661423" fill-rule="evenodd"/><path stroke="#000000" stroke-width="2.0" stroke-linejoin="round" stroke-linecap="butt" d="m438.24905 192.55614l-8.501038 3.7828217" fill-rule="evenodd"/><path fill="#000000" stroke="#000000" stroke-width="2.0" stroke-linecap="butt" d="m428.405 193.32082l-6.9492493 6.708069l9.635315 -0.67178345z" fill-rule="evenodd"/><path fill="#000000" d="m437.35638 192.38383l0 0c0 -0.7653656 0.6204529 -1.3858185 1.3858337 -1.3858185l0 0c0.3675232 0 0.72003174 0.14601135 0.97991943 0.40589905c0.2598877 0.2598877 0.4059143 0.612381 0.4059143 0.97991943l0 0c0 0.76538086 -0.6204834 1.3858337 -1.3858337 1.3858337l0 0c-0.76538086 0 -1.3858337 -0.6204529 -1.3858337 -1.3858337z" fill-rule="evenodd"/><path stroke="#000000" stroke-width="1.0" stroke-linejoin="round" stroke-linecap="butt" d="m437.35638 192.38383l0 0c0 -0.7653656 0.6204529 -1.3858185 1.3858337 -1.3858185l0 0c0.3675232 0 0.72003174 0.14601135 0.97991943 0.40589905c0.2598877 0.2598877 0.4059143 0.612381 0.4059143 0.97991943l0 0c0 0.76538086 -0.6204834 1.3858337 -1.3858337 1.3858337l0 0c-0.76538086 0 -1.3858337 -0.6204529 -1.3858337 -1.3858337z" fill-rule="evenodd"/><path fill="#ffffff" d="m414.765 165.69739l48.0 0l0 24.0l-48.0 0z" fill-rule="evenodd"/><path stroke="#000000" stroke-width="1.0" stroke-linejoin="round" stroke-linecap="butt" d="m414.765 165.69739l48.0 0l0 24.0l-48.0 0z" fill-rule="evenodd"/><path fill="#ffffff" d="m412.98547 107.58721l0 0c0 -1.4901886 1.2080383 -2.6982193 2.6982422 -2.6982193l35.894897 0c0.7156067 0 1.4019165 0.28427124 1.9079285 0.79029083c0.50601196 0.50601196 0.7902832 1.1923141 0.7902832 1.9079285l0 10.7925415c0 1.490181 -1.2080383 2.6982117 -2.6982117 2.6982117l-35.894897 0l0 0c-1.4902039 0 -2.6982422 -1.2080307 -2.6982422 -2.6982117z" fill-rule="evenodd"/><path stroke="#000000" stroke-width="1.0" stroke-linejoin="round" stroke-linecap="butt" d="m412.98547 107.58721l0 0c0 -1.4901886 1.2080383 -2.6982193 2.6982422 -2.6982193l35.894897 0c0.7156067 0 1.4019165 0.28427124 1.9079285 0.79029083c0.50601196 0.50601196 0.7902832 1.1923141 0.7902832 1.9079285l0 10.7925415c0 1.490181 -1.2080383 2.6982117 -2.6982117 2.6982117l-35.894897 0l0 0c-1.4902039 0 -2.6982422 -1.2080307 -2.6982422 -2.6982117z" fill-rule="evenodd"/><path fill="#ffffff" d="m429.24796 109.11475l0 0c0 -1.0350113 0.8390503 -1.874054 1.874054 -1.874054l19.18103 0c0.4970398 0 0.97369385 0.1974411 1.3251648 0.5488968c0.35144043 0.35144806 0.54888916 0.828125 0.54888916 1.3251572l0 7.495987c0 1.0350113 -0.8390503 1.874054 -1.874054 1.874054l-19.18103 0l0 0c-1.0350037 0 -1.874054 -0.83904266 -1.874054 -1.874054z" fill-rule="evenodd"/><path stroke="#999999" stroke-width="1.0" stroke-linejoin="round" stroke-linecap="butt" d="m429.24796 109.11475l0 0c0 -1.0350113 0.8390503 -1.874054 1.874054 -1.874054l19.18103 0c0.4970398 0 0.97369385 0.1974411 1.3251648 0.5488968c0.35144043 0.35144806 0.54888916 0.828125 0.54888916 1.3251572l0 7.495987c0 1.0350113 -0.8390503 1.874054 -1.874054 1.874054l-19.18103 0l0 0c-1.0350037 0 -1.874054 -0.83904266 -1.874054 -1.874054z" fill-rule="evenodd"/><path fill="#000000" fill-opacity="0.0" d="m421.13095 187.38528l0 0c-0.9579468 0 -1.7345276 -1.1112976 -1.7345276 -2.4821472l0 -14.71196l0 0c0 -1.3708496 0.7765808 -2.4821472 1.7345276 -2.4821472z" fill-rule="evenodd"/><path fill="#000000" fill-opacity="0.0" d="m421.13095 187.38528l0 0c-0.9579468 0 -1.7345276 -1.1112976 -1.7345276 -2.4821472l0 -14.71196l0 0c0 -1.3708496 0.7765808 -2.4821472 1.7345276 -2.4821472" fill-rule="evenodd"/><path stroke="#000000" stroke-width="2.0" stroke-linejoin="round" stroke-linecap="butt" d="m421.13095 187.38528l0 0c-0.9579468 0 -1.7345276 -1.1112976 -1.7345276 -2.4821472l0 -14.71196l0 0c0 -1.3708496 0.7765808 -2.4821472 1.7345276 -2.4821472" fill-rule="evenodd"/><path fill="#000000" fill-opacity="0.0" d="m457.37643 187.38528l0 0c0.9579468 0 1.7344971 -1.1112976 1.7344971 -2.4821472l0 -14.71196l0 0c0 -1.3708496 -0.7765503 -2.4821472 -1.7344971 -2.4821472z" fill-rule="evenodd"/><path fill="#000000" fill-opacity="0.0" d="m457.37643 187.38528l0 0c0.9579468 0 1.7344971 -1.1112976 1.7344971 -2.4821472l0 -14.71196l0 0c0 -1.3708496 -0.7765503 -2.4821472 -1.7344971 -2.4821472" fill-rule="evenodd"/><path stroke="#000000" stroke-width="2.0" stroke-linejoin="round" stroke-linecap="butt" d="m457.37643 187.38528l0 0c0.9579468 0 1.7344971 -1.1112976 1.7344971 -2.4821472l0 -14.71196l0 0c0 -1.3708496 -0.7765503 -2.4821472 -1.7344971 -2.4821472" fill-rule="evenodd"/><path fill="#000000" fill-opacity="0.0" d="m437.06723 183.8001l0 0c-0.9579468 0 -1.7344971 -1.1112976 -1.7344971 -2.4821472l0 -7.541565l0 0c0 -1.3708496 0.7765503 -2.4821472 1.7344971 -2.4821472z" fill-rule="evenodd"/><path fill="#000000" fill-opacity="0.0" d="m437.06723 183.8001l0 0c-0.9579468 0 -1.7344971 -1.1112976 -1.7344971 -2.4821472l0 -7.541565l0 0c0 -1.3708496 0.7765503 -2.4821472 1.7344971 -2.4821472" fill-rule="evenodd"/><path stroke="#b7b7b7" stroke-width="2.0" stroke-linejoin="round" stroke-linecap="butt" d="m437.06723 183.8001l0 0c-0.9579468 0 -1.7344971 -1.1112976 -1.7344971 -2.4821472l0 -7.541565l0 0c0 -1.3708496 0.7765503 -2.4821472 1.7344971 -2.4821472" fill-rule="evenodd"/><path fill="#000000" fill-opacity="0.0" d="m453.74786 183.8001l0 0c0.9579468 0 1.7344971 -1.1112976 1.7344971 -2.4821472l0 -7.541565l0 0c0 -1.3708496 -0.7765503 -2.4821472 -1.7344971 -2.4821472z" fill-rule="evenodd"/><path fill="#000000" fill-opacity="0.0" d="m453.74786 183.8001l0 0c0.9579468 0 1.7344971 -1.1112976 1.7344971 -2.4821472l0 -7.541565l0 0c0 -1.3708496 -0.7765503 -2.4821472 -1.7344971 -2.4821472" fill-rule="evenodd"/><path stroke="#b7b7b7" stroke-width="2.0" stroke-linejoin="round" stroke-linecap="butt" d="m453.74786 183.8001l0 0c0.9579468 0 1.7344971 -1.1112976 1.7344971 -2.4821472l0 -7.541565l0 0c0 -1.3708496 -0.7765503 -2.4821472 -1.7344971 -2.4821472" fill-rule="evenodd"/><path fill="#ffffff" d="m414.765 141.69739l48.0 0l0 24.0l-48.0 0z" fill-rule="evenodd"/><path stroke="#000000" stroke-width="1.0" stroke-linejoin="round" stroke-linecap="butt" d="m414.765 141.69739l48.0 0l0 24.0l-48.0 0z" fill-rule="evenodd"/><path fill="#000000" fill-opacity="0.0" d="m425.83606 151.2589l0 0c2.0608215 -2.8924103 5.8529663 -4.8937225 10.224915 -5.3962097c4.3719788 -0.5024872 8.807922 0.55311584 11.960846 2.846283l-9.811005 7.361618z" fill-rule="evenodd"/><path fill="#000000" fill-opacity="0.0" d="m425.83606 151.2589l0 0c2.0608215 -2.8924103 5.8529663 -4.8937225 10.224915 -5.3962097c4.3719788 -0.5024872 8.807922 0.55311584 11.960846 2.846283" fill-rule="evenodd"/><path stroke="#000000" stroke-width="2.0" stroke-linejoin="round" stroke-linecap="butt" d="m425.83603 151.2589l0 0c2.0608215 -2.8924103 5.852997 -4.8937225 10.224945 -5.3962097c1.0929871 -0.12562561 2.1900024 -0.15385437 3.269928 -0.08973694l0.17895508 0.012573242" fill-rule="evenodd"/><path fill="#000000" stroke="#000000" stroke-width="2.0" stroke-linecap="butt" d="m438.79147 147.87715l6.465088 -0.11791992l-5.0283203 -4.065338z" fill-rule="evenodd"/><path fill="#ffffff" d="m447.9372 152.93361l0 0c0 1.3220062 1.0717163 2.3937073 2.3937073 2.3937073l0 0c0.6348572 0 1.2437134 -0.25219727 1.6925964 -0.7010956c0.44891357 -0.44891357 0.70111084 -1.0577545 0.70111084 -1.6926117l0 0c0 -1.3220062 -1.0716858 -2.393692 -2.3937073 -2.393692l0 0c-1.321991 0 -2.3937073 1.0716858 -2.3937073 2.393692z" fill-rule="evenodd"/><path stroke="#000000" stroke-width="2.0" stroke-linejoin="round" stroke-linecap="butt" d="m447.9372 152.93361l0 0c0 1.3220062 1.0717163 2.3937073 2.3937073 2.3937073l0 0c0.6348572 0 1.2437134 -0.25219727 1.6925964 -0.7010956c0.44891357 -0.44891357 0.70111084 -1.0577545 0.70111084 -1.6926117l0 0c0 -1.3220062 -1.0716858 -2.393692 -2.3937073 -2.393692l0 0c-1.321991 0 -2.3937073 1.0716858 -2.3937073 2.393692z" fill-rule="evenodd"/><path fill="#ffffff" d="m426.47845 154.4757l0 0c0 -1.3220062 -1.0716858 -2.393692 -2.3936768 -2.393692l0 0c-0.6348572 0 -1.2437134 0.252182 -1.692627 0.7010956c-0.44888306 0.44889832 -0.7010803 1.0577545 -0.7010803 1.6925964l0 0c0 1.3220062 1.0716858 2.3937073 2.3937073 2.3937073l0 0c1.321991 0 2.3936768 -1.071701 2.3936768 -2.3937073z" fill-rule="evenodd"/><path stroke="#000000" stroke-width="2.0" stroke-linejoin="round" stroke-linecap="butt" d="m426.47845 154.4757l0 0c0 -1.3220062 -1.0716858 -2.393692 -2.3936768 -2.393692l0 0c-0.6348572 0 -1.2437134 0.252182 -1.692627 0.7010956c-0.44888306 0.44889832 -0.7010803 1.0577545 -0.7010803 1.6925964l0 0c0 1.3220062 1.0716858 2.3937073 2.3937073 2.3937073l0 0c1.321991 0 2.3936768 -1.071701 2.3936768 -2.3937073z" fill-rule="evenodd"/><path fill="#000000" fill-opacity="0.0" d="m448.9606 156.06978l0 0c-2.0608215 2.8924103 -5.8529663 4.8937225 -10.224945 5.3962097c-4.3719482 0.5024872 -8.807892 -0.55311584 -11.960815 -2.846283l9.810974 -7.361618z" fill-rule="evenodd"/><path fill="#000000" fill-opacity="0.0" d="m448.9606 156.06978l0 0c-2.0608215 2.8924103 -5.8529663 4.8937225 -10.224945 5.3962097c-4.3719482 0.5024872 -8.807892 -0.55311584 -11.960815 -2.846283" fill-rule="evenodd"/><path stroke="#000000" stroke-width="2.0" stroke-linejoin="round" stroke-linecap="butt" d="m448.9606 156.06978l0 0c-2.0608215 2.8924103 -5.852936 4.8937225 -10.224915 5.3962097c-1.0929565 0.12562561 -2.1900024 0.15386963 -3.269928 0.08973694l-0.1789856 -0.012557983" fill-rule="evenodd"/><path fill="#000000" stroke="#000000" stroke-width="2.0" stroke-linecap="butt" d="m436.00516 159.45154l-6.465088 0.11790466l5.0283203 4.065338z" fill-rule="evenodd"/><path fill="#ffffff" d="m526.0931 215.899l48.0 0l0 -24.0l-48.0 0z" fill-rule="evenodd"/><path stroke="#000000" stroke-width="1.0" stroke-linejoin="round" stroke-linecap="butt" d="m526.0931 215.899l48.0 0l0 -24.0l-48.0 0z" fill-rule="evenodd"/><path fill="#ffffff" d="m526.0931 167.899l48.0 0l0 24.0l-48.0 0z" fill-rule="evenodd"/><path stroke="#000000" stroke-width="1.0" stroke-linejoin="round" stroke-linecap="butt" d="m526.0931 167.899l48.0 0l0 24.0l-48.0 0z" fill-rule="evenodd"/><path fill="#000000" fill-opacity="0.0" d="m550.4937 172.80241l15.114258 6.725586" fill-rule="evenodd"/><path stroke="#000000" stroke-width="1.0" stroke-linejoin="round" stroke-linecap="butt" d="m550.4937 172.80241l9.632446 4.2862854" fill-rule="evenodd"/><path fill="#000000" stroke="#000000" stroke-width="1.0" stroke-linecap="butt" d="m559.4547 178.59778l4.817627 0.33589172l-3.4746094 -3.3540344z" fill-rule="evenodd"/><path fill="#000000" fill-opacity="0.0" d="m550.091 172.13742l0 16.068054" fill-rule="evenodd"/><path stroke="#000000" stroke-width="1.0" stroke-linejoin="round" stroke-linecap="butt" d="m550.09094 172.13742l0 10.068069" fill-rule="evenodd"/><path fill="#000000" stroke="#000000" stroke-width="1.0" stroke-linecap="butt" d="m548.4392 182.20549l1.6517334 4.538086l1.6517334 -4.538086z" fill-rule="evenodd"/><path fill="#000000" fill-opacity="0.0" d="m549.69244 172.80241l-15.114197 6.725586" fill-rule="evenodd"/><path stroke="#000000" stroke-width="1.0" stroke-linejoin="round" stroke-linecap="butt" d="m549.69244 172.80241l-9.632446 4.2862854" fill-rule="evenodd"/><path fill="#000000" stroke="#000000" stroke-width="1.0" stroke-linecap="butt" d="m539.3885 175.57964l-3.4746094 3.3540344l4.817627 -0.33589172z" fill-rule="evenodd"/><path fill="#000000" d="m548.99927 172.66861l0 0c0 -0.5942993 0.48181152 -1.0760956 1.0761108 -1.0760956l0 0c0.2854004 0 0.55914307 0.11338806 0.7609253 0.31518555c0.20178223 0.20181274 0.31518555 0.4755249 0.31518555 0.76091003l0 0c0 0.5943146 -0.48181152 1.0760956 -1.0761108 1.0760956l0 0c-0.5942993 0 -1.0761108 -0.481781 -1.0761108 -1.0760956z" fill-rule="evenodd"/><path stroke="#000000" stroke-width="1.0" stroke-linejoin="round" stroke-linecap="butt" d="m548.99927 172.66861l0 0c0 -0.5942993 0.48181152 -1.0760956 1.0761108 -1.0760956l0 0c0.2854004 0 0.55914307 0.11338806 0.7609253 0.31518555c0.20178223 0.20181274 0.31518555 0.4755249 0.31518555 0.76091003l0 0c0 0.5943146 -0.48181152 1.0760956 -1.0761108 1.0760956l0 0c-0.5942993 0 -1.0761108 -0.481781 -1.0761108 -1.0760956z" fill-rule="evenodd"/><path fill="#ffffff" d="m526.0931 143.899l48.0 0l0 24.0l-48.0 0z" fill-rule="evenodd"/><path stroke="#000000" stroke-width="1.0" stroke-linejoin="round" stroke-linecap="butt" d="m526.0931 143.899l48.0 0l0 24.0l-48.0 0z" fill-rule="evenodd"/><path fill="#000000" fill-opacity="0.0" d="m532.45905 165.5869l0 0c-0.9579468 0 -1.7345581 -1.1112976 -1.7345581 -2.4821472l0 -14.71196l0 0c0 -1.3708496 0.7766113 -2.4821472 1.7345581 -2.4821472z" fill-rule="evenodd"/><path fill="#000000" fill-opacity="0.0" d="m532.45905 165.5869l0 0c-0.9579468 0 -1.7345581 -1.1112976 -1.7345581 -2.4821472l0 -14.71196l0 0c0 -1.3708496 0.7766113 -2.4821472 1.7345581 -2.4821472" fill-rule="evenodd"/><path stroke="#000000" stroke-width="1.0" stroke-linejoin="round" stroke-linecap="butt" d="m532.45905 165.5869l0 0c-0.9579468 0 -1.7345581 -1.1112976 -1.7345581 -2.4821472l0 -14.71196l0 0c0 -1.3708496 0.7766113 -2.4821472 1.7345581 -2.4821472" fill-rule="evenodd"/><path fill="#000000" fill-opacity="0.0" d="m568.7045 165.5869l0 0c0.9579468 0 1.7344971 -1.1112976 1.7344971 -2.4821472l0 -14.71196l0 0c0 -1.3708496 -0.7765503 -2.4821472 -1.7344971 -2.4821472z" fill-rule="evenodd"/><path fill="#000000" fill-opacity="0.0" d="m568.7045 165.5869l0 0c0.9579468 0 1.7344971 -1.1112976 1.7344971 -2.4821472l0 -14.71196l0 0c0 -1.3708496 -0.7765503 -2.4821472 -1.7344971 -2.4821472" fill-rule="evenodd"/><path stroke="#000000" stroke-width="1.0" stroke-linejoin="round" stroke-linecap="butt" d="m568.7045 165.5869l0 0c0.9579468 0 1.7344971 -1.1112976 1.7344971 -2.4821472l0 -14.71196l0 0c0 -1.3708496 -0.7765503 -2.4821472 -1.7344971 -2.4821472" fill-rule="evenodd"/><path fill="#000000" fill-opacity="0.0" d="m548.3953 162.0017l0 0c-0.9579468 0 -1.7344971 -1.1112976 -1.7344971 -2.4821472l0 -7.5415497l0 0c0 -1.3708496 0.7765503 -2.4821472 1.7344971 -2.4821472z" fill-rule="evenodd"/><path fill="#000000" fill-opacity="0.0" d="m548.3953 162.0017l0 0c-0.9579468 0 -1.7344971 -1.1112976 -1.7344971 -2.4821472l0 -7.5415497l0 0c0 -1.3708496 0.7765503 -2.4821472 1.7344971 -2.4821472" fill-rule="evenodd"/><path stroke="#b7b7b7" stroke-width="1.0" stroke-linejoin="round" stroke-linecap="butt" d="m548.3953 162.0017l0 0c-0.9579468 0 -1.7344971 -1.1112976 -1.7344971 -2.4821472l0 -7.5415497l0 0c0 -1.3708496 0.7765503 -2.4821472 1.7344971 -2.4821472" fill-rule="evenodd"/><path fill="#000000" fill-opacity="0.0" d="m565.0759 162.0017l0 0c0.9579468 0 1.7344971 -1.1112976 1.7344971 -2.4821472l0 -7.5415497l0 0c0 -1.3708496 -0.7765503 -2.4821472 -1.7344971 -2.4821472z" fill-rule="evenodd"/><path fill="#000000" fill-opacity="0.0" d="m565.0759 162.0017l0 0c0.9579468 0 1.7344971 -1.1112976 1.7344971 -2.4821472l0 -7.5415497l0 0c0 -1.3708496 -0.7765503 -2.4821472 -1.7344971 -2.4821472" fill-rule="evenodd"/><path stroke="#b7b7b7" stroke-width="1.0" stroke-linejoin="round" stroke-linecap="butt" d="m565.0759 162.0017l0 0c0.9579468 0 1.7344971 -1.1112976 1.7344971 -2.4821472l0 -7.5415497l0 0c0 -1.3708496 -0.7765503 -2.4821472 -1.7344971 -2.4821472" fill-rule="evenodd"/><path fill="#ffffff" d="m526.0931 119.898994l48.0 0l0 24.000008l-48.0 0z" fill-rule="evenodd"/><path stroke="#000000" stroke-width="1.0" stroke-linejoin="round" stroke-linecap="butt" d="m526.0931 119.898994l48.0 0l0 24.000008l-48.0 0z" fill-rule="evenodd"/><path fill="#000000" fill-opacity="0.0" d="m537.1641 129.4605l0 0c2.060852 -2.8924026 5.8529663 -4.8937073 10.224915 -5.396202c4.3720093 -0.5024948 8.807922 0.55311584 11.960876 2.846283l-9.810974 7.3616104z" fill-rule="evenodd"/><path fill="#000000" fill-opacity="0.0" d="m537.1641 129.4605l0 0c2.060852 -2.8924026 5.8529663 -4.8937073 10.224915 -5.396202c4.3720093 -0.5024948 8.807922 0.55311584 11.960876 2.846283" fill-rule="evenodd"/><path stroke="#000000" stroke-width="1.0" stroke-linejoin="round" stroke-linecap="butt" d="m537.1641 129.4605l0 0c2.060791 -2.8924103 5.8529663 -4.8937073 10.224915 -5.396202c2.1860352 -0.25123596 4.3880005 -0.112960815 6.437561 0.37477875c0.5124512 0.12193298 1.0153198 0.2657013 1.5060425 0.43068695l0.0056762695 0.0019836426" fill-rule="evenodd"/><path fill="#000000" stroke="#000000" stroke-width="1.0" stroke-linecap="butt" d="m554.8373 125.857506l3.2093506 0.39071655l-2.2073364 -2.3622513z" fill-rule="evenodd"/><path fill="#ffffff" d="m559.2653 131.13522l0 0c0 1.3220062 1.0716553 2.393692 2.3936768 2.393692l0 0c0.63482666 0 1.2437134 -0.252182 1.6925659 -0.7010956c0.44891357 -0.44889832 0.70111084 -1.0577545 0.70111084 -1.6925964l0 0c0 -1.3220062 -1.0716553 -2.3937073 -2.3936768 -2.3937073l0 0c-1.3220215 0 -2.3936768 1.071701 -2.3936768 2.3937073z" fill-rule="evenodd"/><path stroke="#000000" stroke-width="1.0" stroke-linejoin="round" stroke-linecap="butt" d="m559.2653 131.13522l0 0c0 1.3220062 1.0716553 2.393692 2.3936768 2.393692l0 0c0.63482666 0 1.2437134 -0.252182 1.6925659 -0.7010956c0.44891357 -0.44889832 0.70111084 -1.0577545 0.70111084 -1.6925964l0 0c0 -1.3220062 -1.0716553 -2.3937073 -2.3936768 -2.3937073l0 0c-1.3220215 0 -2.3936768 1.071701 -2.3936768 2.3937073z" fill-rule="evenodd"/><path fill="#ffffff" d="m537.8065 132.6773l0 0c0 -1.3220062 -1.0716553 -2.3937073 -2.3936768 -2.3937073l0 0c-0.63482666 0 -1.2437134 0.25219727 -1.6925659 0.7010956c-0.44891357 0.44891357 -0.70111084 1.0577545 -0.70111084 1.6926117l0 0c0 1.3220062 1.0716553 2.393692 2.3936768 2.393692l0 0c1.3220215 0 2.3936768 -1.0716858 2.3936768 -2.393692z" fill-rule="evenodd"/><path stroke="#000000" stroke-width="1.0" stroke-linejoin="round" stroke-linecap="butt" d="m537.8065 132.6773l0 0c0 -1.3220062 -1.0716553 -2.3937073 -2.3936768 -2.3937073l0 0c-0.63482666 0 -1.2437134 0.25219727 -1.6925659 0.7010956c-0.44891357 0.44891357 -0.70111084 1.0577545 -0.70111084 1.6926117l0 0c0 1.3220062 1.0716553 2.393692 2.3936768 2.393692l0 0c1.3220215 0 2.3936768 -1.0716858 2.3936768 -2.393692z" fill-rule="evenodd"/><path fill="#000000" fill-opacity="0.0" d="m560.2887 134.2714l0 0c-2.060852 2.8924103 -5.8529663 4.8937073 -10.224915 5.3962097c-4.3720093 0.5024872 -8.807922 -0.5531311 -11.960876 -2.846283l9.811035 -7.3616333z" fill-rule="evenodd"/><path fill="#000000" fill-opacity="0.0" d="m560.2887 134.2714l0 0c-2.060852 2.8924103 -5.8529663 4.8937073 -10.224915 5.3962097c-4.3720093 0.5024872 -8.807922 -0.5531311 -11.960876 -2.846283" fill-rule="evenodd"/><path stroke="#000000" stroke-width="1.0" stroke-linejoin="round" stroke-linecap="butt" d="m560.2887 134.2714l0 0c-2.060852 2.8924103 -5.8529663 4.8937225 -10.224915 5.3962097c-2.1859741 0.25123596 -4.3879395 0.112960815 -6.437622 -0.37477112c-0.5123291 -0.12194824 -1.0151978 -0.26571655 -1.5059814 -0.43070984l-0.0056762695 -0.0019836426" fill-rule="evenodd"/><path fill="#000000" stroke="#000000" stroke-width="1.0" stroke-linecap="butt" d="m542.61554 137.87437l-3.2094116 -0.39071655l2.2073975 2.362259z" fill-rule="evenodd"/><path fill="#ffffff" d="m574.0931 167.899l48.0 0l0 24.0l-48.0 0z" fill-rule="evenodd"/><path stroke="#000000" stroke-width="1.0" stroke-linejoin="round" stroke-linecap="butt" d="m574.0931 167.899l48.0 0l0 24.0l-48.0 0z" fill-rule="evenodd"/><path fill="#000000" fill-opacity="0.0" d="m598.4937 186.99557l15.114258 -6.725586" fill-rule="evenodd"/><path stroke="#000000" stroke-width="1.0" stroke-linejoin="round" stroke-linecap="butt" d="m598.4937 186.99557l9.632446 -4.2863007" fill-rule="evenodd"/><path fill="#000000" stroke="#000000" stroke-width="1.0" stroke-linecap="butt" d="m608.7977 184.21835l3.4746094 -3.3540192l-4.817627 0.33587646z" fill-rule="evenodd"/><path fill="#000000" fill-opacity="0.0" d="m598.091 187.66057l0 -16.068054" fill-rule="evenodd"/><path stroke="#000000" stroke-width="1.0" stroke-linejoin="round" stroke-linecap="butt" d="m598.09094 187.66058l0 -10.068069" fill-rule="evenodd"/><path fill="#000000" stroke="#000000" stroke-width="1.0" stroke-linecap="butt" d="m599.7427 177.59251l-1.6517334 -4.538086l-1.6517334 4.538086z" fill-rule="evenodd"/><path fill="#000000" fill-opacity="0.0" d="m597.69244 186.99557l-15.114197 -6.725586" fill-rule="evenodd"/><path stroke="#000000" stroke-width="1.0" stroke-linejoin="round" stroke-linecap="butt" d="m597.69244 186.99557l-9.632385 -4.2862854" fill-rule="evenodd"/><path fill="#000000" stroke="#000000" stroke-width="1.0" stroke-linecap="butt" d="m588.7315 181.20023l-4.817627 -0.33589172l3.4746094 3.3540344z" fill-rule="evenodd"/><path fill="#000000" d="m596.99927 187.12938l0 0c0 0.5943146 0.48181152 1.0760956 1.0761108 1.0760956l0 0c0.2854004 0 0.55914307 -0.1133728 0.7609253 -0.31518555c0.20178223 -0.20179749 0.31518555 -0.47550964 0.31518555 -0.76091003l0 0c0 -0.5943146 -0.48181152 -1.0760956 -1.0761108 -1.0760956l0 0c-0.5942993 0 -1.0761108 0.481781 -1.0761108 1.0760956z" fill-rule="evenodd"/><path stroke="#000000" stroke-width="1.0" stroke-linejoin="round" stroke-linecap="butt" d="m596.99927 187.12938l0 0c0 0.5943146 0.48181152 1.0760956 1.0761108 1.0760956l0 0c0.2854004 0 0.55914307 -0.1133728 0.7609253 -0.31518555c0.20178223 -0.20179749 0.31518555 -0.47550964 0.31518555 -0.76091003l0 0c0 -0.5943146 -0.48181152 -1.0760956 -1.0761108 -1.0760956l0 0c-0.5942993 0 -1.0761108 0.481781 -1.0761108 1.0760956z" fill-rule="evenodd"/><path fill="#000000" fill-opacity="0.0" d="m550.4937 196.80241l15.114258 6.725586" fill-rule="evenodd"/><path stroke="#000000" stroke-width="1.0" stroke-linejoin="round" stroke-linecap="butt" d="m555.9755 199.24171l9.632446 4.2863007" fill-rule="evenodd"/><path fill="#000000" stroke="#000000" stroke-width="1.0" stroke-linecap="butt" d="m556.64703 197.73264l-4.817688 -0.33589172l3.4746094 3.3540344z" fill-rule="evenodd"/><path fill="#000000" fill-opacity="0.0" d="m550.091 196.13742l0 16.068054" fill-rule="evenodd"/><path stroke="#000000" stroke-width="1.0" stroke-linejoin="round" stroke-linecap="butt" d="m550.09094 202.13742l0 10.068069" fill-rule="evenodd"/><path fill="#000000" stroke="#000000" stroke-width="1.0" stroke-linecap="butt" d="m551.7427 202.13742l-1.6517334 -4.538086l-1.6517334 4.538086z" fill-rule="evenodd"/><path fill="#000000" fill-opacity="0.0" d="m549.69244 196.80241l-15.114197 6.725586" fill-rule="evenodd"/><path stroke="#000000" stroke-width="1.0" stroke-linejoin="round" stroke-linecap="butt" d="m544.2107 199.24171l-9.632446 4.2863007" fill-rule="evenodd"/><path fill="#000000" stroke="#000000" stroke-width="1.0" stroke-linecap="butt" d="m544.8822 200.75078l3.4746094 -3.3540344l-4.817627 0.33590698z" fill-rule="evenodd"/><path fill="#000000" d="m548.99927 196.66861l0 0c0 -0.5942993 0.48181152 -1.0760956 1.0761108 -1.0760956l0 0c0.2854004 0 0.55914307 0.11338806 0.7609253 0.31518555c0.20178223 0.20181274 0.31518555 0.4755249 0.31518555 0.76091003l0 0c0 0.5943146 -0.48181152 1.0760956 -1.0761108 1.0760956l0 0c-0.5942993 0 -1.0761108 -0.481781 -1.0761108 -1.0760956z" fill-rule="evenodd"/><path stroke="#000000" stroke-width="1.0" stroke-linejoin="round" stroke-linecap="butt" d="m548.99927 196.66861l0 0c0 -0.5942993 0.48181152 -1.0760956 1.0761108 -1.0760956l0 0c0.2854004 0 0.55914307 0.11338806 0.7609253 0.31518555c0.20178223 0.20181274 0.31518555 0.4755249 0.31518555 0.76091003l0 0c0 0.5943146 -0.48181152 1.0760956 -1.0761108 1.0760956l0 0c-0.5942993 0 -1.0761108 -0.481781 -1.0761108 -1.0760956z" fill-rule="evenodd"/><path fill="#ffffff" d="m574.0931 215.899l48.0 0l0 -24.0l-48.0 0z" fill-rule="evenodd"/><path stroke="#000000" stroke-width="1.0" stroke-linejoin="round" stroke-linecap="butt" d="m574.0931 215.899l48.0 0l0 -24.0l-48.0 0z" fill-rule="evenodd"/><path fill="#000000" fill-opacity="0.0" d="m598.4937 210.99557l15.114258 -6.725586" fill-rule="evenodd"/><path stroke="#000000" stroke-width="1.0" stroke-linejoin="round" stroke-linecap="butt" d="m603.9755 208.55629l9.632446 -4.2863007" fill-rule="evenodd"/><path fill="#000000" stroke="#000000" stroke-width="1.0" stroke-linecap="butt" d="m603.304 207.04721l-3.4746704 3.3540192l4.817688 -0.33587646z" fill-rule="evenodd"/><path fill="#000000" fill-opacity="0.0" d="m598.091 211.66057l0 -16.068054" fill-rule="evenodd"/><path stroke="#000000" stroke-width="1.0" stroke-linejoin="round" stroke-linecap="butt" d="m598.09094 205.66058l0 -10.068069" fill-rule="evenodd"/><path fill="#000000" stroke="#000000" stroke-width="1.0" stroke-linecap="butt" d="m596.4392 205.66058l1.6517334 4.538086l1.6517334 -4.538086z" fill-rule="evenodd"/><path fill="#000000" fill-opacity="0.0" d="m597.69244 210.99557l-15.114197 -6.725586" fill-rule="evenodd"/><path stroke="#000000" stroke-width="1.0" stroke-linejoin="round" stroke-linecap="butt" d="m592.2107 208.55626l-9.632446 -4.28627" fill-rule="evenodd"/><path fill="#000000" stroke="#000000" stroke-width="1.0" stroke-linecap="butt" d="m591.5392 210.06534l4.817627 0.33589172l-3.4746094 -3.3540344z" fill-rule="evenodd"/><path fill="#000000" d="m596.99927 211.12938l0 0c0 0.5943146 0.48181152 1.0760956 1.0761108 1.0760956l0 0c0.2854004 0 0.55914307 -0.1133728 0.7609253 -0.31518555c0.20178223 -0.20179749 0.31518555 -0.47550964 0.31518555 -0.76091003l0 0c0 -0.5943146 -0.48181152 -1.0760956 -1.0761108 -1.0760956l0 0c-0.5942993 0 -1.0761108 0.481781 -1.0761108 1.0760956z" fill-rule="evenodd"/><path stroke="#000000" stroke-width="1.0" stroke-linejoin="round" stroke-linecap="butt" d="m596.99927 211.12938l0 0c0 0.5943146 0.48181152 1.0760956 1.0761108 1.0760956l0 0c0.2854004 0 0.55914307 -0.1133728 0.7609253 -0.31518555c0.20178223 -0.20179749 0.31518555 -0.47550964 0.31518555 -0.76091003l0 0c0 -0.5943146 -0.48181152 -1.0760956 -1.0761108 -1.0760956l0 0c-0.5942993 0 -1.0761108 0.481781 -1.0761108 1.0760956z" fill-rule="evenodd"/><path fill="#ffffff" d="m526.0931 215.899l48.0 0l0 24.0l-48.0 0z" fill-rule="evenodd"/><path stroke="#000000" stroke-width="1.0" stroke-linejoin="round" stroke-linecap="butt" d="m526.0931 215.899l48.0 0l0 24.0l-48.0 0z" fill-rule="evenodd"/><path fill="#000000" fill-opacity="0.0" d="m537.1641 225.4605l0 0c2.060852 -2.8924103 5.8529663 -4.8937073 10.224915 -5.3962097c4.3720093 -0.5024872 8.807922 0.5531311 11.960876 2.846283l-9.810974 7.361618z" fill-rule="evenodd"/><path fill="#000000" fill-opacity="0.0" d="m537.1641 225.4605l0 0c2.060852 -2.8924103 5.8529663 -4.8937073 10.224915 -5.3962097c4.3720093 -0.5024872 8.807922 0.5531311 11.960876 2.846283" fill-rule="evenodd"/><path stroke="#000000" stroke-width="1.0" stroke-linejoin="round" stroke-linecap="butt" d="m537.1641 225.46048l0 0c2.060791 -2.8923798 5.8529663 -4.893692 10.224915 -5.3961945c2.1860352 -0.25125122 4.3880005 -0.112960815 6.437561 0.37477112c0.5124512 0.12194824 1.0153198 0.26571655 1.5060425 0.43070984l0.0056762695 0.0019683838" fill-rule="evenodd"/><path fill="#000000" stroke="#000000" stroke-width="1.0" stroke-linecap="butt" d="m554.8373 221.85751l3.2093506 0.39071655l-2.2073364 -2.362259z" fill-rule="evenodd"/><path fill="#ffffff" d="m559.2653 227.13522l0 0c0 1.3220062 1.0716553 2.393692 2.3936768 2.393692l0 0c0.63482666 0 1.2437134 -0.252182 1.6925659 -0.7010956c0.44891357 -0.44889832 0.70111084 -1.0577545 0.70111084 -1.6925964l0 0c0 -1.3220062 -1.0716553 -2.3937073 -2.3936768 -2.3937073l0 0c-1.3220215 0 -2.3936768 1.071701 -2.3936768 2.3937073z" fill-rule="evenodd"/><path stroke="#000000" stroke-width="1.0" stroke-linejoin="round" stroke-linecap="butt" d="m559.2653 227.13522l0 0c0 1.3220062 1.0716553 2.393692 2.3936768 2.393692l0 0c0.63482666 0 1.2437134 -0.252182 1.6925659 -0.7010956c0.44891357 -0.44889832 0.70111084 -1.0577545 0.70111084 -1.6925964l0 0c0 -1.3220062 -1.0716553 -2.3937073 -2.3936768 -2.3937073l0 0c-1.3220215 0 -2.3936768 1.071701 -2.3936768 2.3937073z" fill-rule="evenodd"/><path fill="#000000" d="m537.8065 228.6773l0 0c0 -1.3220062 -1.0716553 -2.3937073 -2.3936768 -2.3937073l0 0c-0.63482666 0 -1.2437134 0.25219727 -1.6925659 0.7010956c-0.44891357 0.44891357 -0.70111084 1.0577545 -0.70111084 1.6926117l0 0c0 1.3220062 1.0716553 2.393692 2.3936768 2.393692l0 0c1.3220215 0 2.3936768 -1.0716858 2.3936768 -2.393692z" fill-rule="evenodd"/><path stroke="#000000" stroke-width="1.0" stroke-linejoin="round" stroke-linecap="butt" d="m537.8065 228.6773l0 0c0 -1.3220062 -1.0716553 -2.3937073 -2.3936768 -2.3937073l0 0c-0.63482666 0 -1.2437134 0.25219727 -1.6925659 0.7010956c-0.44891357 0.44891357 -0.70111084 1.0577545 -0.70111084 1.6926117l0 0c0 1.3220062 1.0716553 2.393692 2.3936768 2.393692l0 0c1.3220215 0 2.3936768 -1.0716858 2.3936768 -2.393692z" fill-rule="evenodd"/><path fill="#000000" fill-opacity="0.0" d="m295.9255 321.2857l46.17383 20.818573" fill-rule="evenodd"/><path stroke="#0000ff" stroke-width="4.0" stroke-linejoin="round" stroke-linecap="butt" d="m295.9255 321.2857l24.294891 10.953918" fill-rule="evenodd"/><path fill="#0000ff" stroke="#0000ff" stroke-width="4.0" stroke-linecap="butt" d="m317.50476 338.26266l19.263763 1.4380798l-13.83252 -13.484161z" fill-rule="evenodd"/><path fill="#000000" fill-opacity="0.0" d="m294.69507 319.22726l0 49.737488" fill-rule="evenodd"/><path stroke="#0000ff" stroke-width="4.0" stroke-linejoin="round" stroke-linecap="butt" d="m294.69507 319.2273l0 25.737488" fill-rule="evenodd"/><path fill="#0000ff" stroke="#0000ff" stroke-width="4.0" stroke-linecap="butt" d="m288.08813 344.96478l6.6069336 18.152374l6.6069336 -18.152374z" fill-rule="evenodd"/><path fill="#000000" fill-opacity="0.0" d="m293.47763 321.2857l-46.17386 20.818573" fill-rule="evenodd"/><path stroke="#0000ff" stroke-width="4.0" stroke-linejoin="round" stroke-linecap="butt" d="m293.47763 321.2857l-24.294922 10.953918" fill-rule="evenodd"/><path fill="#0000ff" stroke="#0000ff" stroke-width="4.0" stroke-linecap="butt" d="m266.4671 326.21658l-13.83252 13.484161l19.263763 -1.4380798z" fill-rule="evenodd"/><path fill="#0000ff" d="m291.36 320.87152l0 0c0 -1.8396301 1.4718628 -3.3309631 3.2874756 -3.3309631l0 0c0.8718872 0 1.7080688 0.35092163 2.324585 0.97561646c0.6165161 0.6246643 0.9628601 1.4719238 0.9628601 2.3553467l0 0c0 1.8396606 -1.4718323 3.3309631 -3.287445 3.3309631l0 0c-1.8156128 0 -3.2874756 -1.4913025 -3.2874756 -3.3309631z" fill-rule="evenodd"/><path stroke="#0000ff" stroke-width="8.0" stroke-linejoin="round" stroke-linecap="butt" d="m291.36 320.87152l0 0c0 -1.8396301 1.4718628 -3.3309631 3.2874756 -3.3309631l0 0c0.8718872 0 1.7080688 0.35092163 2.324585 0.97561646c0.6165161 0.6246643 0.9628601 1.4719238 0.9628601 2.3553467l0 0c0 1.8396606 -1.4718323 3.3309631 -3.287445 3.3309631l0 0c-1.8156128 0 -3.2874756 -1.4913025 -3.2874756 -3.3309631z" fill-rule="evenodd"/><path fill="#000000" fill-opacity="0.0" d="m223.0919 284.47156l0 0c-3.8318024 0 -6.93808 -4.44516 -6.93808 -9.928589l0 -60.96187l0 0c0 -5.4834137 3.1062775 -9.928604 6.93808 -9.928604z" fill-rule="evenodd"/><path fill="#000000" fill-opacity="0.0" d="m223.0919 284.47156l0 0c-3.8318024 0 -6.93808 -4.44516 -6.93808 -9.928589l0 -60.96187l0 0c0 -5.4834137 3.1062775 -9.928604 6.93808 -9.928604" fill-rule="evenodd"/><path stroke="#0000ff" stroke-width="4.0" stroke-linejoin="round" stroke-linecap="butt" d="m223.0919 284.47156l0 0c-3.8318024 0 -6.93808 -4.44516 -6.93808 -9.928589l0 -60.96187l0 0c0 -5.4834137 3.1062775 -9.928604 6.93808 -9.928604" fill-rule="evenodd"/><path fill="#000000" fill-opacity="0.0" d="m368.07382 284.47156l0 0c3.831787 0 6.93808 -4.44516 6.93808 -9.928589l0 -60.96187l0 0c0 -5.4834137 -3.1062927 -9.928604 -6.93808 -9.928604z" fill-rule="evenodd"/><path fill="#000000" fill-opacity="0.0" d="m368.07382 284.47156l0 0c3.831787 0 6.93808 -4.44516 6.93808 -9.928589l0 -60.96187l0 0c0 -5.4834137 -3.1062927 -9.928604 -6.93808 -9.928604" fill-rule="evenodd"/><path stroke="#0000ff" stroke-width="4.0" stroke-linejoin="round" stroke-linecap="butt" d="m368.07382 284.47156l0 0c3.831787 0 6.93808 -4.44516 6.93808 -9.928589l0 -60.96187l0 0c0 -5.4834137 -3.1062927 -9.928604 -6.93808 -9.928604" fill-rule="evenodd"/><path fill="#000000" fill-opacity="0.0" d="m286.83713 269.7456l0 0c-3.8318176 0 -6.93808 -4.4451904 -6.93808 -9.928589l0 -31.509888l0 0c0 -5.4834137 3.1062622 -9.928589 6.93808 -9.928589z" fill-rule="evenodd"/><path fill="#000000" fill-opacity="0.0" d="m286.83713 269.7456l0 0c-3.8318176 0 -6.93808 -4.4451904 -6.93808 -9.928589l0 -31.509888l0 0c0 -5.4834137 3.1062622 -9.928589 6.93808 -9.928589" fill-rule="evenodd"/><path stroke="#b7b7b7" stroke-width="4.0" stroke-linejoin="round" stroke-linecap="butt" d="m286.83713 269.7456l0 0c-3.8318176 0 -6.93808 -4.4451904 -6.93808 -9.928589l0 -31.509888l0 0c0 -5.4834137 3.1062622 -9.928589 6.93808 -9.928589" fill-rule="evenodd"/><path fill="#000000" fill-opacity="0.0" d="m353.55954 269.7456l0 0c3.831787 0 6.93808 -4.4451904 6.93808 -9.928589l0 -31.509888l0 0c0 -5.4834137 -3.1062927 -9.928589 -6.93808 -9.928589z" fill-rule="evenodd"/><path fill="#000000" fill-opacity="0.0" d="m353.55954 269.7456l0 0c3.831787 0 6.93808 -4.4451904 6.93808 -9.928589l0 -31.509888l0 0c0 -5.4834137 -3.1062927 -9.928589 -6.93808 -9.928589" fill-rule="evenodd"/><path stroke="#b7b7b7" stroke-width="4.0" stroke-linejoin="round" stroke-linecap="butt" d="m353.55954 269.7456l0 0c3.831787 0 6.93808 -4.4451904 6.93808 -9.928589l0 -31.509888l0 0c0 -5.4834137 -3.1062927 -9.928589 -6.93808 -9.928589" fill-rule="evenodd"/><path fill="#000000" fill-opacity="0.0" d="m198.70155 88.81463l192.00002 0l0 98.55117l-192.00002 0z" fill-rule="evenodd"/><path stroke="#000000" stroke-width="4.0" stroke-linejoin="round" stroke-linecap="butt" d="m198.70155 88.81463l192.00002 0l0 98.55117l-192.00002 0z" fill-rule="evenodd"/><path fill="#000000" fill-opacity="0.0" d="m242.70801 136.48976l0 0c8.181702 -12.10408 23.519379 -20.498856 41.24356 -22.57386c17.724213 -2.074997 35.685486 2.4214172 48.298523 12.091034l-39.76529 29.837608z" fill-rule="evenodd"/><path fill="#000000" fill-opacity="0.0" d="m242.70801 136.48976l0 0c8.181702 -12.10408 23.519379 -20.498856 41.24356 -22.57386c17.724213 -2.074997 35.685486 2.4214172 48.298523 12.091034" fill-rule="evenodd"/><path stroke="#0000ff" stroke-width="4.0" stroke-linejoin="round" stroke-linecap="butt" d="m242.70801 136.48976l0 0c8.181702 -12.10408 23.519379 -20.498856 41.24359 -22.573853c8.862091 -1.0375061 17.783447 -0.4321518 26.065918 1.6412811c2.0706177 0.5183487 4.101288 1.1284637 6.0811462 1.8275986l0.29360962 0.10567474" fill-rule="evenodd"/><path fill="#0000ff" stroke="#0000ff" stroke-width="4.0" stroke-linecap="butt" d="m314.29953 121.38718l12.798859 1.853035l-8.613373 -9.646454z" fill-rule="evenodd"/><path fill="#ffffff" d="m331.39032 142.97345l0 0c0 5.42717 4.2867737 9.826767 9.574799 9.826767l0 0c2.5393982 0 4.9747925 -1.0353088 6.7704163 -2.878189c1.7956238 -1.8428802 2.8043823 -4.3423615 2.8043823 -6.948578l0 0c0 -5.427185 -4.2867737 -9.826767 -9.574799 -9.826767l0 0c-5.288025 0 -9.574799 4.399582 -9.574799 9.826767z" fill-rule="evenodd"/><path stroke="#000000" stroke-width="4.0" stroke-linejoin="round" stroke-linecap="butt" d="m331.39032 142.97345l0 0c0 5.42717 4.2867737 9.826767 9.574799 9.826767l0 0c2.5393982 0 4.9747925 -1.0353088 6.7704163 -2.878189c1.7956238 -1.8428802 2.8043823 -4.3423615 2.8043823 -6.948578l0 0c0 -5.427185 -4.2867737 -9.826767 -9.574799 -9.826767l0 0c-5.288025 0 -9.574799 4.399582 -9.574799 9.826767z" fill-rule="evenodd"/><path fill="#ffffff" d="m245.55536 149.29669l0 0c0 -5.427185 -4.286789 -9.826767 -9.574814 -9.826767l0 0c-2.5393982 0 -4.974777 1.0353088 -6.770401 2.878189c-1.7956238 1.8428802 -2.8043976 4.342346 -2.8043976 6.948578l0 0c0 5.42717 4.286789 9.826767 9.574799 9.826767l0 0c5.288025 0 9.574814 -4.399597 9.574814 -9.826767z" fill-rule="evenodd"/><path stroke="#000000" stroke-width="4.0" stroke-linejoin="round" stroke-linecap="butt" d="m245.55536 149.29669l0 0c0 -5.427185 -4.286789 -9.826767 -9.574814 -9.826767l0 0c-2.5393982 0 -4.974777 1.0353088 -6.770401 2.878189c-1.7956238 1.8428802 -2.8043976 4.342346 -2.8043976 6.948578l0 0c0 5.42717 4.286789 9.826767 9.574799 9.826767l0 0c5.288025 0 9.574814 -4.399597 9.574814 -9.826767z" fill-rule="evenodd"/><path fill="#000000" fill-opacity="0.0" d="m335.7616 155.44916l0 0c-8.181702 12.10408 -23.519379 20.498856 -41.24356 22.573868c-17.724213 2.074997 -35.685486 -2.4214172 -48.298508 -12.091034l39.765274 -29.837616z" fill-rule="evenodd"/><path fill="#000000" fill-opacity="0.0" d="m335.7616 155.44916l0 0c-8.181702 12.10408 -23.519379 20.498856 -41.24356 22.573868c-17.724213 2.074997 -35.685486 -2.4214172 -48.298508 -12.091034" fill-rule="evenodd"/><path stroke="#0000ff" stroke-width="4.0" stroke-linejoin="round" stroke-linecap="butt" d="m335.7616 155.44916l0 0c-8.181702 12.10408 -23.519379 20.498856 -41.24356 22.573868c-8.862122 1.0375061 -17.783447 0.43214417 -26.065948 -1.6412964c-2.0706177 -0.5183563 -4.101288 -1.1284637 -6.0811462 -1.827591l-0.29360962 -0.10568237" fill-rule="evenodd"/><path fill="#0000ff" stroke="#0000ff" stroke-width="4.0" stroke-linecap="butt" d="m264.17007 170.55174l-12.798859 -1.8530273l8.613373 9.646454z" fill-rule="evenodd"/><path fill="#000000" fill-opacity="0.0" d="m242.70801 530.81464l0 0c8.181702 -12.104065 23.519379 -20.49884 41.24356 -22.573853c17.724213 -2.0750122 35.685486 2.4214172 48.298523 12.091003l-39.76529 29.837646z" fill-rule="evenodd"/><path fill="#000000" fill-opacity="0.0" d="m242.70801 530.81464l0 0c8.181702 -12.104065 23.519379 -20.49884 41.24356 -22.573853c17.724213 -2.0750122 35.685486 2.4214172 48.298523 12.091003" fill-rule="evenodd"/><path stroke="#0000ff" stroke-width="4.0" stroke-linejoin="round" stroke-linecap="butt" d="m242.70801 530.81464l0 0c8.181702 -12.104065 23.519379 -20.49884 41.24359 -22.573853c8.862091 -1.0375366 17.783447 -0.4321289 26.065918 1.6412659c2.0706177 0.5183716 4.101288 1.128479 6.0811462 1.8276367l0.29360962 0.105651855" fill-rule="evenodd"/><path fill="#0000ff" stroke="#0000ff" stroke-width="4.0" stroke-linecap="butt" d="m314.29956 515.71204l12.798859 1.8530884l-8.613403 -9.646484z" fill-rule="evenodd"/><path fill="#ffffff" d="m331.39032 537.29834l0 0c0 5.427185 4.2867737 9.826782 9.574799 9.826782l0 0c2.5393982 0 4.9747925 -1.0353394 6.7704163 -2.8782349c1.7956238 -1.8428345 2.8043823 -4.342346 2.8043823 -6.9485474l0 0c0 -5.427185 -4.2867737 -9.826782 -9.574799 -9.826782l0 0c-5.288025 0 -9.574799 4.399597 -9.574799 9.826782z" fill-rule="evenodd"/><path stroke="#000000" stroke-width="4.0" stroke-linejoin="round" stroke-linecap="butt" d="m331.39032 537.29834l0 0c0 5.427185 4.2867737 9.826782 9.574799 9.826782l0 0c2.5393982 0 4.9747925 -1.0353394 6.7704163 -2.8782349c1.7956238 -1.8428345 2.8043823 -4.342346 2.8043823 -6.9485474l0 0c0 -5.427185 -4.2867737 -9.826782 -9.574799 -9.826782l0 0c-5.288025 0 -9.574799 4.399597 -9.574799 9.826782z" fill-rule="evenodd"/><path fill="#000000" d="m245.55536 543.6216l0 0c0 -5.427185 -4.286789 -9.826782 -9.574814 -9.826782l0 0c-2.5393982 0 -4.974777 1.0353394 -6.770401 2.8781738c-1.7956238 1.8428955 -2.8043976 4.342346 -2.8043976 6.9486084l0 0c0 5.427185 4.286789 9.826782 9.574799 9.826782l0 0c5.288025 0 9.574814 -4.399597 9.574814 -9.826782z" fill-rule="evenodd"/><path stroke="#000000" stroke-width="4.0" stroke-linejoin="round" stroke-linecap="butt" d="m245.55536 543.6216l0 0c0 -5.427185 -4.286789 -9.826782 -9.574814 -9.826782l0 0c-2.5393982 0 -4.974777 1.0353394 -6.770401 2.8781738c-1.7956238 1.8428955 -2.8043976 4.342346 -2.8043976 6.9486084l0 0c0 5.427185 4.286789 9.826782 9.574799 9.826782l0 0c5.288025 0 9.574814 -4.399597 9.574814 -9.826782z" fill-rule="evenodd"/><path fill="#000000" fill-opacity="0.0" d="m298.376 420.34055l46.17386 20.818573" fill-rule="evenodd"/><path stroke="#0000ff" stroke-width="4.0" stroke-linejoin="round" stroke-linecap="butt" d="m320.25497 430.20517l24.294891 10.953949" fill-rule="evenodd"/><path fill="#0000ff" stroke="#0000ff" stroke-width="4.0" stroke-linecap="butt" d="m322.97058 424.18216l-19.263763 -1.4380798l13.83252 13.484131z" fill-rule="evenodd"/><path fill="#000000" fill-opacity="0.0" d="m295.4295 422.86542l0 49.737488" fill-rule="evenodd"/><path stroke="#0000ff" stroke-width="4.0" stroke-linejoin="round" stroke-linecap="butt" d="m295.4295 446.86542l0 25.737488" fill-rule="evenodd"/><path fill="#0000ff" stroke="#0000ff" stroke-width="4.0" stroke-linecap="butt" d="m302.03644 446.86542l-6.6069336 -18.152405l-6.6069336 18.152405z" fill-rule="evenodd"/><path fill="#000000" fill-opacity="0.0" d="m292.496 420.34055l-46.17386 20.818573" fill-rule="evenodd"/><path stroke="#0000ff" stroke-width="4.0" stroke-linejoin="round" stroke-linecap="butt" d="m270.61703 430.20523l-24.294876 10.953888" fill-rule="evenodd"/><path fill="#0000ff" stroke="#0000ff" stroke-width="4.0" stroke-linecap="butt" d="m273.33267 436.22824l13.83252 -13.484161l-19.263763 1.4380798z" fill-rule="evenodd"/><path fill="#0000ff" d="m292.09445 419.49738l0 0c0 -1.8396606 1.4718323 -3.3309937 3.287445 -3.3309937l0 0c0.8718872 0 1.7080688 0.35095215 2.324585 0.97561646c0.6165161 0.6246948 0.9628906 1.4719238 0.9628906 2.3553772l0 0c0 1.8396301 -1.4718628 3.3309631 -3.2874756 3.3309631l0 0c-1.8156128 0 -3.287445 -1.491333 -3.287445 -3.3309631z" fill-rule="evenodd"/><path stroke="#0000ff" stroke-width="4.0" stroke-linejoin="round" stroke-linecap="butt" d="m292.09445 419.49738l0 0c0 -1.8396606 1.4718323 -3.3309937 3.287445 -3.3309937l0 0c0.8718872 0 1.7080688 0.35095215 2.324585 0.97561646c0.6165161 0.6246948 0.9628906 1.4719238 0.9628906 2.3553772l0 0c0 1.8396301 -1.4718628 3.3309631 -3.2874756 3.3309631l0 0c-1.8156128 0 -3.287445 -1.491333 -3.287445 -3.3309631z" fill-rule="evenodd"/><path fill="#000000" fill-opacity="0.0" d="m153.3057 233.17468l-47.543304 82.80316l-47.543304 -82.80316z" fill-rule="evenodd"/><path stroke="#000000" stroke-width="16.0" stroke-linejoin="round" stroke-linecap="butt" d="m153.3057 233.17468l-47.543304 82.80316l-47.543304 -82.80316z" fill-rule="evenodd"/><path fill="#ffffff" d="m296.3535 60.24614c-6.1441956 4.5554123 -14.739868 3.7177658 -19.888947 -1.9381676c-5.149109 -5.655937 -5.1784363 -14.292267 -0.06790161 -19.983051c5.110565 -5.6907883 13.700348 -6.5868073 19.875336 -2.0732422z" fill-rule="evenodd"/><path stroke="#000000" stroke-width="3.0" stroke-linejoin="round" stroke-linecap="butt" d="m296.3535 60.24614c-6.1441956 4.5554123 -14.739868 3.7177658 -19.888947 -1.9381676c-5.149109 -5.655937 -5.1784363 -14.292267 -0.06790161 -19.983051c5.110565 -5.6907883 13.700348 -6.5868073 19.875336 -2.0732422z" fill-rule="evenodd"/><path fill="#ffffff" d="m296.6796 60.24614c6.144165 4.5554123 14.739838 3.7177658 19.888947 -1.9381676c5.1490784 -5.655937 5.1784363 -14.292267 0.067871094 -19.983051c-5.110565 -5.6907883 -13.700317 -6.5868073 -19.875336 -2.0732422z" fill-rule="evenodd"/><path stroke="#000000" stroke-width="3.0" stroke-linejoin="round" stroke-linecap="butt" d="m296.6796 60.24614c6.144165 4.5554123 14.739838 3.7177658 19.888947 -1.9381676c5.1490784 -5.655937 5.1784363 -14.292267 0.067871094 -19.983051c-5.110565 -5.6907883 -13.700317 -6.5868073 -19.875336 -2.0732422z" fill-rule="evenodd"/><path fill="#cfe2f3" d="m396.9461 49.70789l20.988953 -4.5071106l4.5071106 -20.988953l4.5071106 20.988953l20.988953 4.5071106l-20.988953 4.5071106l-4.5071106 20.988949l-4.5071106 -20.988949z" fill-rule="evenodd"/><path stroke="#000000" stroke-width="1.0" stroke-linejoin="round" stroke-linecap="butt" d="m396.9461 49.70789l20.988953 -4.5071106l4.5071106 -20.988953l4.5071106 20.988953l20.988953 4.5071106l-20.988953 4.5071106l-4.5071106 20.988949l-4.5071106 -20.988949z" fill-rule="evenodd"/><path fill="#000000" fill-opacity="0.0" d="m222.99272 47.342857l44.72441 0" fill-rule="evenodd"/><path stroke="#0000ff" stroke-width="4.0" stroke-linejoin="round" stroke-linecap="butt" d="m222.99272 47.342857l20.724411 0" fill-rule="evenodd"/><path fill="#0000ff" stroke="#0000ff" stroke-width="4.0" stroke-linecap="butt" d="m243.71713 53.949787l18.152374 -6.60693l-18.152374 -6.60693z" fill-rule="evenodd"/><path fill="#000000" fill-opacity="0.0" d="m369.50558 47.342857l-44.724396 0" fill-rule="evenodd"/><path stroke="#0000ff" stroke-width="4.0" stroke-linejoin="round" stroke-linecap="butt" d="m369.50558 47.342857l-20.724426 0" fill-rule="evenodd"/><path fill="#0000ff" stroke="#0000ff" stroke-width="4.0" stroke-linecap="butt" d="m348.7812 40.735928l-18.152405 6.60693l18.152405 6.60693z" fill-rule="evenodd"/><path fill="#000000" fill-opacity="0.0" d="m14.9927225 50.267174l44.72441 0" fill-rule="evenodd"/><path stroke="#0000ff" stroke-width="4.0" stroke-linejoin="round" stroke-linecap="butt" d="m38.99272 50.267174l20.724407 0" fill-rule="evenodd"/><path fill="#0000ff" stroke="#0000ff" stroke-width="4.0" stroke-linecap="butt" d="m38.99272 43.660244l-18.15239 6.60693l18.15239 6.60693z" fill-rule="evenodd"/><path fill="#000000" fill-opacity="0.0" d="m177.5056 50.267174l-44.72441 0" fill-rule="evenodd"/><path stroke="#0000ff" stroke-width="4.0" stroke-linejoin="round" stroke-linecap="butt" d="m153.5056 50.267174l-20.724411 0" fill-rule="evenodd"/><path fill="#0000ff" stroke="#0000ff" stroke-width="4.0" stroke-linecap="butt" d="m153.5056 56.874104l18.15239 -6.60693l-18.15239 -6.60693z" fill-rule="evenodd"/><path fill="#ffffff" d="m72.353485 63.170456c-6.1441956 4.5554123 -14.739853 3.7177658 -19.888954 -1.9381714c-5.1491013 -5.6559334 -5.1784363 -14.292263 -0.06787872 -19.983047c5.1105576 -5.6907883 13.700325 -6.5868073 19.875328 -2.0732422z" fill-rule="evenodd"/><path stroke="#000000" stroke-width="3.0" stroke-linejoin="round" stroke-linecap="butt" d="m72.353485 63.170456c-6.1441956 4.5554123 -14.739853 3.7177658 -19.888954 -1.9381714c-5.1491013 -5.6559334 -5.1784363 -14.292263 -0.06787872 -19.983047c5.1105576 -5.6907883 13.700325 -6.5868073 19.875328 -2.0732422z" fill-rule="evenodd"/><path fill="#ffffff" d="m120.67958 63.170456c6.1441956 4.5554123 14.739853 3.7177658 19.888947 -1.9381714c5.149109 -5.6559334 5.1784515 -14.292263 0.06788635 -19.983047c-5.11055 -5.6907883 -13.700325 -6.5868073 -19.875328 -2.0732422z" fill-rule="evenodd"/><path stroke="#000000" stroke-width="3.0" stroke-linejoin="round" stroke-linecap="butt" d="m120.67958 63.170456c6.1441956 4.5554123 14.739853 3.7177658 19.888947 -1.9381714c5.149109 -5.6559334 5.1784515 -14.292263 0.06788635 -19.983047c-5.11055 -5.6907883 -13.700325 -6.5868073 -19.875328 -2.0732422z" fill-rule="evenodd"/><path fill="#000000" fill-opacity="0.0" d="m72.61551 39.175995l0.09449005 24.0" fill-rule="evenodd"/><path stroke="#ffffff" stroke-width="4.0" stroke-linejoin="round" stroke-linecap="butt" d="m72.61551 39.175995l0.09449005 24.0" fill-rule="evenodd"/><path fill="#000000" fill-opacity="0.0" d="m120.589325 39.175995l-0.09449005 24.0" fill-rule="evenodd"/><path stroke="#ffffff" stroke-width="4.0" stroke-linejoin="round" stroke-linecap="butt" d="m120.589325 39.175995l-0.09449005 24.0" fill-rule="evenodd"/><path fill="#000000" fill-opacity="0.0" d="m71.02748 38.41655c4.224411 2.0126877 16.820213 12.10149 25.346458 12.076115c8.526245 -0.025371552 21.509186 -10.190289 25.811028 -12.228344" fill-rule="evenodd"/><path stroke="#000000" stroke-width="3.0" stroke-linejoin="round" stroke-linecap="butt" d="m71.02748 38.41655c4.224411 2.0126877 16.820213 12.10149 25.346458 12.076115c8.526245 -0.025371552 21.509186 -10.190289 25.811028 -12.228344" fill-rule="evenodd"/><path fill="#000000" fill-opacity="0.0" d="m71.11147 63.970345c4.1688538 -1.5380592 16.514 -9.240158 25.013123 -9.228348c8.499123 0.011810303 21.65136 7.749344 25.981628 9.29921" fill-rule="evenodd"/><path stroke="#000000" stroke-width="3.0" stroke-linejoin="round" stroke-linecap="butt" d="m71.11147 63.970345c4.1688538 -1.5380592 16.514 -9.240158 25.013123 -9.228348c8.499123 0.011810303 21.65136 7.749344 25.981628 9.29921" fill-rule="evenodd"/><path fill="#ffffff" d="m96.353485 -19.753862c-6.1441956 4.5554113 -14.739853 3.7177696 -19.888954 -1.9381676c-5.1491013 -5.6559353 -5.1784363 -14.292265 -0.06787872 -19.98305c5.1105576 -5.6907883 13.700325 -6.5868073 19.875328 -2.0732422z" fill-rule="evenodd"/><path stroke="#000000" stroke-width="3.0" stroke-linejoin="round" stroke-linecap="butt" d="m96.353485 -19.753862c-6.1441956 4.5554113 -14.739853 3.7177696 -19.888954 -1.9381676c-5.1491013 -5.6559353 -5.1784363 -14.292265 -0.06787872 -19.98305c5.1105576 -5.6907883 13.700325 -6.5868073 19.875328 -2.0732422z" fill-rule="evenodd"/><path fill="#ffffff" d="m96.67958 -19.753862c6.1441956 4.5554113 14.739853 3.7177696 19.888954 -1.9381676c5.1491013 -5.6559353 5.1784363 -14.292265 0.06787872 -19.98305c-5.1105576 -5.6907883 -13.700325 -6.5868073 -19.875328 -2.0732422z" fill-rule="evenodd"/><path stroke="#000000" stroke-width="3.0" stroke-linejoin="round" stroke-linecap="butt" d="m96.67958 -19.753862c6.1441956 4.5554113 14.739853 3.7177696 19.888954 -1.9381676c5.1491013 -5.6559353 5.1784363 -14.292265 0.06787872 -19.98305c-5.1105576 -5.6907883 -13.700325 -6.5868073 -19.875328 -2.0732422z" fill-rule="evenodd"/><path fill="#000000" fill-opacity="0.0" d="m22.992723 -32.657143l44.72441 0" fill-rule="evenodd"/><path stroke="#0000ff" stroke-width="4.0" stroke-linejoin="round" stroke-linecap="butt" d="m22.992723 -32.657143l20.724405 0" fill-rule="evenodd"/><path fill="#0000ff" stroke="#0000ff" stroke-width="4.0" stroke-linecap="butt" d="m43.717133 -26.050215l18.15239 -6.606928l-18.15239 -6.60693z" fill-rule="evenodd"/><path fill="#000000" fill-opacity="0.0" d="m169.5056 -32.657143l-44.72441 0" fill-rule="evenodd"/><path stroke="#0000ff" stroke-width="4.0" stroke-linejoin="round" stroke-linecap="butt" d="m169.5056 -32.657143l-20.724411 0" fill-rule="evenodd"/><path fill="#0000ff" stroke="#0000ff" stroke-width="4.0" stroke-linecap="butt" d="m148.78119 -39.264072l-18.15239 6.60693l18.15239 6.606928z" fill-rule="evenodd"/><path fill="#ffffff" d="m90.765015 -42.89644l12.692917 0l0 22.33071l-12.692917 0z" fill-rule="evenodd"/><path fill="#ffffff" d="m96.353485 -91.75386c-6.1441956 4.5554123 -14.739853 3.7177658 -19.888954 -1.9381714c-5.1491013 -5.655937 -5.1784363 -14.292259 -0.06787872 -19.983047c5.1105576 -5.6907883 13.700325 -6.5868073 19.875328 -2.0732422z" fill-rule="evenodd"/><path stroke="#000000" stroke-width="3.0" stroke-linejoin="round" stroke-linecap="butt" d="m96.353485 -91.75386c-6.1441956 4.5554123 -14.739853 3.7177658 -19.888954 -1.9381714c-5.1491013 -5.655937 -5.1784363 -14.292259 -0.06787872 -19.983047c5.1105576 -5.6907883 13.700325 -6.5868073 19.875328 -2.0732422z" fill-rule="evenodd"/><path fill="#ffffff" d="m96.67958 -91.75386c6.1441956 4.5554123 14.739853 3.7177658 19.888954 -1.9381714c5.1491013 -5.655937 5.1784363 -14.292259 0.06787872 -19.983047c-5.1105576 -5.6907883 -13.700325 -6.5868073 -19.875328 -2.0732422z" fill-rule="evenodd"/><path stroke="#000000" stroke-width="3.0" stroke-linejoin="round" stroke-linecap="butt" d="m96.67958 -91.75386c6.1441956 4.5554123 14.739853 3.7177658 19.888954 -1.9381714c5.1491013 -5.655937 5.1784363 -14.292259 0.06787872 -19.983047c-5.1105576 -5.6907883 -13.700325 -6.5868073 -19.875328 -2.0732422z" fill-rule="evenodd"/><path fill="#000000" fill-opacity="0.0" d="m22.992723 -104.65714l44.72441 0" fill-rule="evenodd"/><path stroke="#0000ff" stroke-width="4.0" stroke-linejoin="round" stroke-linecap="butt" d="m22.992723 -104.65714l20.724405 0" fill-rule="evenodd"/><path fill="#0000ff" stroke="#0000ff" stroke-width="4.0" stroke-linecap="butt" d="m43.717133 -98.05021l18.15239 -6.6069336l-18.15239 -6.606926z" fill-rule="evenodd"/><path fill="#000000" fill-opacity="0.0" d="m169.5056 -104.65714l-44.72441 0" fill-rule="evenodd"/><path stroke="#0000ff" stroke-width="4.0" stroke-linejoin="round" stroke-linecap="butt" d="m169.5056 -104.65714l-20.724411 0" fill-rule="evenodd"/><path fill="#0000ff" stroke="#0000ff" stroke-width="4.0" stroke-linecap="butt" d="m148.78119 -111.26407l-18.15239 6.606926l18.15239 6.6069336z" fill-rule="evenodd"/><path fill="#ffffff" d="m297.38028 -93.40109l0 0c-6.197998 6.114151 -16.172638 6.0671463 -22.312744 -0.105155945c-6.140106 -6.1722946 -6.134918 -16.147049 0.011566162 -22.312988c6.1464844 -6.1659317 16.121155 -6.202614 22.312836 -0.08204651z" fill-rule="evenodd"/><path stroke="#000000" stroke-width="3.0" stroke-linejoin="round" stroke-linecap="butt" d="m297.38028 -93.40109l0 0c-6.197998 6.114151 -16.172638 6.0671463 -22.312744 -0.105155945c-6.140106 -6.1722946 -6.134918 -16.147049 0.011566162 -22.312988c6.1464844 -6.1659317 16.121155 -6.202614 22.312836 -0.08204651z" fill-rule="evenodd"/><path fill="#000000" fill-opacity="0.0" d="m217.83554 -105.650375l47.466034 0" fill-rule="evenodd"/><path stroke="#0000ff" stroke-width="4.0" stroke-linejoin="round" stroke-linecap="butt" d="m217.83554 -105.650375l23.466034 0" fill-rule="evenodd"/><path fill="#0000ff" stroke="#0000ff" stroke-width="4.0" stroke-linecap="butt" d="m241.30157 -99.04344l18.152374 -6.6069336l-18.152374 -6.606926z" fill-rule="evenodd"/><path fill="#000000" fill-opacity="0.0" d="m373.32965 -105.650375l-47.466003 0" fill-rule="evenodd"/><path stroke="#0000ff" stroke-width="4.0" stroke-linejoin="round" stroke-linecap="butt" d="m373.32965 -105.650375l-23.466003 0" fill-rule="evenodd"/><path fill="#0000ff" stroke="#0000ff" stroke-width="4.0" stroke-linecap="butt" d="m349.86365 -112.2573l-18.152405 6.606926l18.152405 6.6069336z" fill-rule="evenodd"/><path fill="#ffffff" d="m297.72913 -93.40109l0 0c6.197998 6.114151 16.172638 6.0671463 22.312744 -0.105155945c6.1400757 -6.1722946 6.134918 -16.147049 -0.011566162 -22.312988c-6.1464844 -6.1659317 -16.121185 -6.202614 -22.312836 -0.08204651z" fill-rule="evenodd"/><path stroke="#000000" stroke-width="3.0" stroke-linejoin="round" stroke-linecap="butt" d="m297.72913 -93.40109l0 0c6.197998 6.114151 16.172638 6.0671463 22.312744 -0.105155945c6.1400757 -6.1722946 6.134918 -16.147049 -0.011566162 -22.312988c-6.1464844 -6.1659317 -16.121185 -6.202614 -22.312836 -0.08204651z" fill-rule="evenodd"/><path fill="#ffffff" d="m290.54782 -115.04587l13.470978 0l0 20.858307l-13.470978 0z" fill-rule="evenodd"/><path fill="#ffffff" d="m99.2671 410.85718c-10.346405 7.67099 -24.820915 6.2604675 -33.491653 -3.2637634c-8.670738 -9.5242 -8.720139 -24.0672 -0.11430359 -33.650085c8.605835 -9.582916 23.070427 -11.091736 33.468704 -3.491211z" fill-rule="evenodd"/><path stroke="#000000" stroke-width="3.0" stroke-linejoin="round" stroke-linecap="butt" d="m99.2671 410.85718c-10.346405 7.67099 -24.820915 6.2604675 -33.491653 -3.2637634c-8.670738 -9.5242 -8.720139 -24.0672 -0.11430359 -33.650085c8.605835 -9.582916 23.070427 -11.091736 33.468704 -3.491211z" fill-rule="evenodd"/><path fill="#000000" d="m99.810196 410.85718c10.346405 7.67099 24.820915 6.2604675 33.491653 -3.2637634c8.670731 -9.5242 8.720139 -24.0672 0.11430359 -33.650085c-8.605835 -9.582916 -23.070427 -11.091736 -33.468704 -3.491211z" fill-rule="evenodd"/><path stroke="#000000" stroke-width="3.0" stroke-linejoin="round" stroke-linecap="butt" d="m99.810196 410.85718c10.346405 7.67099 24.820915 6.2604675 33.491653 -3.2637634c8.670731 -9.5242 8.720139 -24.0672 0.11430359 -33.650085c-8.605835 -9.582916 -23.070427 -11.091736 -33.468704 -3.491211z" fill-rule="evenodd"/><path fill="#9fc5e8" d="m114.413826 119.99517l20.171974 -14.72892l-6.2919617 23.841553l19.433502 -7.3220825l-10.929138 12.364777l25.66684 5.794403l-25.156784 6.801178l4.7135315 9.190353l-10.20845 2.330017l9.45845 16.411362l-19.806519 -9.671158l-1.1148682 12.912689l-12.394371 -8.80571l-5.311432 11.553909l-7.3181686 -7.9180145l-7.805153 8.5798645l-4.420418 -7.8198395l-15.88015 11.8424225l2.3459702 -14.138016l-17.015614 -5.321411l12.211498 -8.161301l-14.28508 -13.80072l20.530571 -1.3508148l-10.771339 -16.682594l21.120735 2.3919601l-0.67749023 -18.383492l17.60115 15.63472l9.662605 -17.565948z" fill-rule="evenodd"/><path stroke="#000000" stroke-width="1.0" stroke-linejoin="round" stroke-linecap="butt" d="m114.413826 119.99517l20.171974 -14.72892l-6.2919617 23.841553l19.433502 -7.3220825l-10.929138 12.364777l25.66684 5.794403l-25.156784 6.801178l4.7135315 9.190353l-10.20845 2.330017l9.45845 16.411362l-19.806519 -9.671158l-1.1148682 12.912689l-12.394371 -8.80571l-5.311432 11.553909l-7.3181686 -7.9180145l-7.805153 8.5798645l-4.420418 -7.8198395l-15.88015 11.8424225l2.3459702 -14.138016l-17.015614 -5.321411l12.211498 -8.161301l-14.28508 -13.80072l20.530571 -1.3508148l-10.771339 -16.682594l21.120735 2.3919601l-0.67749023 -18.383492l17.60115 15.63472l9.662605 -17.565948z" fill-rule="evenodd"/></g></svg>