<?xml version="1.0" encoding="UTF-8"?>
<!DOCTYPE svg PUBLIC "-//W3C//DTD SVG 1.1//EN" "http://www.w3.org/Graphics/SVG/1.1/DTD/svg11.dtd">
<svg version="1.2" width="29.97mm" height="29.96mm" viewBox="8356 16016 2997 2996" preserveAspectRatio="xMidYMid" fill-rule="evenodd" stroke-width="28.222" stroke-linejoin="round" xmlns="http://www.w3.org/2000/svg" xmlns:ooo="http://xml.openoffice.org/svg/export" xmlns:xlink="http://www.w3.org/1999/xlink" xmlns:presentation="http://sun.com/xmlns/staroffice/presentation" xmlns:smil="http://www.w3.org/2001/SMIL20/" xmlns:anim="urn:oasis:names:tc:opendocument:xmlns:animation:1.0" xml:space="preserve">
 <defs class="EmbeddedBulletChars">
  <g id="bullet-char-template-57356" transform="scale(0.00048828125,-0.00048828125)">
   <path d="M 580,1141 L 1163,571 580,0 -4,571 580,1141 Z"/>
  </g>
  <g id="bullet-char-template-57354" transform="scale(0.00048828125,-0.00048828125)">
   <path d="M 8,1128 L 1137,1128 1137,0 8,0 8,1128 Z"/>
  </g>
  <g id="bullet-char-template-10146" transform="scale(0.00048828125,-0.00048828125)">
   <path d="M 174,0 L 602,739 174,1481 1456,739 174,0 Z M 1358,739 L 309,1346 659,739 1358,739 Z"/>
  </g>
  <g id="bullet-char-template-10132" transform="scale(0.00048828125,-0.00048828125)">
   <path d="M 2015,739 L 1276,0 717,0 1260,543 174,543 174,936 1260,936 717,1481 1274,1481 2015,739 Z"/>
  </g>
  <g id="bullet-char-template-10007" transform="scale(0.00048828125,-0.00048828125)">
   <path d="M 0,-2 C -7,14 -16,27 -25,37 L 356,567 C 262,823 215,952 215,954 215,979 228,992 255,992 264,992 276,990 289,987 310,991 331,999 354,1012 L 381,999 492,748 772,1049 836,1024 860,1049 C 881,1039 901,1025 922,1006 886,937 835,863 770,784 769,783 710,716 594,584 L 774,223 C 774,196 753,168 711,139 L 727,119 C 717,90 699,76 672,76 641,76 570,178 457,381 L 164,-76 C 142,-110 111,-127 72,-127 30,-127 9,-110 8,-76 1,-67 -2,-52 -2,-32 -2,-23 -1,-13 0,-2 Z"/>
  </g>
  <g id="bullet-char-template-10004" transform="scale(0.00048828125,-0.00048828125)">
   <path d="M 285,-33 C 182,-33 111,30 74,156 52,228 41,333 41,471 41,549 55,616 82,672 116,743 169,778 240,778 293,778 328,747 346,684 L 369,508 C 377,444 397,411 428,410 L 1163,1116 C 1174,1127 1196,1133 1229,1133 1271,1133 1292,1118 1292,1087 L 1292,965 C 1292,929 1282,901 1262,881 L 442,47 C 390,-6 338,-33 285,-33 Z"/>
  </g>
  <g id="bullet-char-template-9679" transform="scale(0.00048828125,-0.00048828125)">
   <path d="M 813,0 C 632,0 489,54 383,161 276,268 223,411 223,592 223,773 276,916 383,1023 489,1130 632,1184 813,1184 992,1184 1136,1130 1245,1023 1353,916 1407,772 1407,592 1407,412 1353,268 1245,161 1136,54 992,0 813,0 Z"/>
  </g>
  <g id="bullet-char-template-8226" transform="scale(0.00048828125,-0.00048828125)">
   <path d="M 346,457 C 273,457 209,483 155,535 101,586 74,649 74,723 74,796 101,859 155,911 209,963 273,989 346,989 419,989 480,963 531,910 582,859 608,796 608,723 608,648 583,586 532,535 482,483 420,457 346,457 Z"/>
  </g>
  <g id="bullet-char-template-8211" transform="scale(0.00048828125,-0.00048828125)">
   <path d="M -4,459 L 1135,459 1135,606 -4,606 -4,459 Z"/>
  </g>
  <g id="bullet-char-template-61548" transform="scale(0.00048828125,-0.00048828125)">
   <path d="M 173,740 C 173,903 231,1043 346,1159 462,1274 601,1332 765,1332 928,1332 1067,1274 1183,1159 1299,1043 1357,903 1357,740 1357,577 1299,437 1183,322 1067,206 928,148 765,148 601,148 462,206 346,322 231,437 173,577 173,740 Z"/>
  </g>
 </defs>
 <g class="Page">
  <g class="com.sun.star.drawing.CustomShape">
   <g id="id3">
    <rect class="BoundingBox" stroke="none" fill="none" x="8356" y="16016" width="2997" height="2996"/>
    <path fill="rgb(255,255,255)" stroke="none" d="M 8856,16016 L 8856,16016 C 8769,16016 8682,16039 8607,16083 8531,16127 8468,16190 8424,16266 8380,16341 8357,16428 8357,16515 L 8357,18511 8357,18512 C 8357,18599 8380,18686 8424,18761 8468,18837 8531,18900 8607,18944 8682,18988 8769,19011 8856,19011 L 10852,19010 10853,19011 C 10940,19011 11027,18988 11102,18944 11178,18900 11241,18837 11285,18761 11329,18686 11352,18599 11352,18512 L 11351,16515 11352,16515 11352,16515 C 11352,16428 11329,16341 11285,16266 11241,16190 11178,16127 11102,16083 11027,16039 10940,16016 10853,16016 L 8856,16016 Z"/>
   </g>
  </g>
  <g class="com.sun.star.drawing.ClosedBezierShape">
   <g id="id4">
    <rect class="BoundingBox" stroke="none" fill="none" x="8477" y="16950" width="2665" height="1126"/>
    <path fill="rgb(255,255,255)" stroke="none" d="M 9345,17951 C 9268,17996 9130,18025 9040,18025 8949,18025 8861,18001 8783,17956 8705,17912 8640,17847 8596,17769 8551,17691 8527,17603 8527,17513 8527,17422 8551,17334 8596,17256 8640,17178 8705,17113 8783,17069 8861,17024 8949,17000 9040,17000 9130,17000 9218,17024 9296,17069 9849,17439 10096,17215 10322,17069 10400,17024 10488,17000 10578,17000 10669,17000 10757,17024 10835,17069 10912,17113 10977,17178 11022,17256 11067,17334 11091,17422 11091,17513 11091,17603 11067,17691 11022,17769 10977,17847 10912,17912 10835,17956 10757,18001 10669,18025 10578,18025 10488,18025 10400,18001 10322,17956 10113,17863 9930,17752 9808,17752 9686,17752 9569,17815 9345,17951 Z"/>
    <path fill="none" stroke="rgb(128,128,128)" stroke-width="100" stroke-linejoin="round" d="M 9345,17951 C 9268,17996 9130,18025 9040,18025 8949,18025 8861,18001 8783,17956 8705,17912 8640,17847 8596,17769 8551,17691 8527,17603 8527,17513 8527,17422 8551,17334 8596,17256 8640,17178 8705,17113 8783,17069 8861,17024 8949,17000 9040,17000 9130,17000 9218,17024 9296,17069 9849,17439 10096,17215 10322,17069 10400,17024 10488,17000 10578,17000 10669,17000 10757,17024 10835,17069 10912,17113 10977,17178 11022,17256 11067,17334 11091,17422 11091,17513 11091,17603 11067,17691 11022,17769 10977,17847 10912,17912 10835,17956 10757,18001 10669,18025 10578,18025 10488,18025 10400,18001 10322,17956 10113,17863 9930,17752 9808,17752 9686,17752 9569,17815 9345,17951 Z"/>
   </g>
  </g>
  <g class="com.sun.star.drawing.LineShape">
   <g id="id5">
    <rect class="BoundingBox" stroke="none" fill="none" x="10073" y="17302" width="715" height="421"/>
    <path fill="none" stroke="rgb(0,0,0)" stroke-width="80" stroke-linejoin="round" stroke-linecap="round" d="M 10113,17512 L 10542,17512"/>
    <path fill="rgb(0,0,0)" stroke="none" d="M 10514,17302 L 10787,17512 10514,17722 10514,17302 Z"/>
   </g>
  </g>
  <g class="com.sun.star.drawing.LineShape">
   <g id="id6">
    <rect class="BoundingBox" stroke="none" fill="none" x="8793" y="17302" width="715" height="421"/>
    <path fill="none" stroke="rgb(0,0,0)" stroke-width="80" stroke-linejoin="round" stroke-linecap="round" d="M 9467,17512 L 9038,17512"/>
    <path fill="rgb(0,0,0)" stroke="none" d="M 9066,17722 L 8793,17512 9066,17302 9066,17722 Z"/>
   </g>
  </g>
 </g>
</svg>