<svg version="1.1" viewBox="0.0 0.0 191.002624671916 100.0" fill="none" stroke="none" stroke-linecap="square" stroke-miterlimit="10" xmlns:xlink="http://www.w3.org/1999/xlink" xmlns="http://www.w3.org/2000/svg"><clipPath id="p.0"><path d="m0 0l191.00262 0l0 100.0l-191.00262 0l0 -100.0z" clip-rule="nonzero"/></clipPath><g clip-path="url(#p.0)"><path fill="#000000" fill-opacity="0.0" d="m0 0l191.00262 0l0 100.0l-191.00262 0z" fill-rule="evenodd"/><path fill="#9fc5e8" d="m106.37627 -263.7597l18.091064 -13.210205l-5.6429977 21.382767l17.428734 -6.5672455l-9.801743 11.089722l23.018936 5.19635l-22.56157 6.100174l4.2272186 8.242416l-9.155334 2.0898895l8.48259 14.718613l-17.763168 -8.673386l-0.99993134 11.580948l-11.1156845 -7.8973236l-4.7635574 10.362396l-6.5631638 -7.1012573l-7.0 7.695099l-3.9643478 -7.01326l-14.2419815 10.621323l2.104042 -12.679932l-15.2602005 -4.772293l10.951775 -7.3197937l-12.81131 -12.377136l18.41259 -1.2118378l-9.660038 -14.961868l18.941845 2.144928l-0.60749054 -16.487518l15.785278 14.021942l8.665886 -15.754456z" fill-rule="evenodd"/><path stroke="#000000" stroke-width="1.0" stroke-linejoin="round" stroke-linecap="butt" d="m106.37627 -263.7597l18.091064 -13.210205l-5.6429977 21.382767l17.428734 -6.5672455l-9.801743 11.089722l23.018936 5.19635l-22.56157 6.100174l4.2272186 8.242416l-9.155334 2.0898895l8.48259 14.718613l-17.763168 -8.673386l-0.99993134 11.580948l-11.1156845 -7.8973236l-4.7635574 10.362396l-6.5631638 -7.1012573l-7.0 7.695099l-3.9643478 -7.01326l-14.2419815 10.621323l2.104042 -12.679932l-15.2602005 -4.772293l10.951775 -7.3197937l-12.81131 -12.377136l18.41259 -1.2118378l-9.660038 -14.961868l18.941845 2.144928l-0.60749054 -16.487518l15.785278 14.021942l8.665886 -15.754456z" fill-rule="evenodd"/><path fill="#000000" fill-opacity="0.0" d="m-293.0486 -141.19435l89.44881 0l0 31.622047l-89.44881 0z" fill-rule="evenodd"/><path fill="#000000" d="m-270.24344 -118.11435l0 -0.953125q-0.71875 1.125 -2.125 1.125q-0.90625 0 -1.671875 -0.5q-0.75 -0.5 -1.171875 -1.390625q-0.421875 -0.90625 -0.421875 -2.078125q0 -1.140625 0.375 -2.0625q0.390625 -0.921875 1.140625 -1.40625q0.765625 -0.5 1.703125 -0.5q0.6875 0 1.21875 0.296875q0.53125 0.28125 0.875 0.734375l0 -3.75l1.28125 0l0 10.484375l-1.203125 0zm-4.0625 -3.796875q0 1.46875 0.609375 2.1875q0.625 0.71875 1.453125 0.71875q0.84375 0 1.4375 -0.6875q0.59375 -0.6875 0.59375 -2.109375q0 -1.5625 -0.609375 -2.28125q-0.59375 -0.734375 -1.484375 -0.734375q-0.84375 0 -1.421875 0.703125q-0.578125 0.703125 -0.578125 2.203125zm7.2917175 -5.21875l0 -1.46875l1.296875 0l0 1.46875l-1.296875 0zm0 9.015625l0 -7.59375l1.296875 0l0 7.59375l-1.296875 0zm2.7405396 -2.265625l1.265625 -0.203125q0.109375 0.765625 0.59375 1.171875q0.5 0.40625 1.375 0.40625q0.890625 0 1.3125 -0.359375q0.4375 -0.359375 0.4375 -0.84375q0 -0.4375 -0.375 -0.6875q-0.265625 -0.171875 -1.3125 -0.4375q-1.421875 -0.359375 -1.96875 -0.609375q-0.546875 -0.265625 -0.828125 -0.734375q-0.28125 -0.46875 -0.28125 -1.015625q0 -0.515625 0.21875 -0.9375q0.234375 -0.4375 0.640625 -0.734375q0.296875 -0.21875 0.8125 -0.359375q0.53125 -0.15625 1.125 -0.15625q0.890625 0 1.5625 0.265625q0.671875 0.25 1.0 0.6875q0.328125 0.4375 0.4375 1.171875l-1.25 0.171875q-0.09375 -0.578125 -0.5 -0.90625q-0.40625 -0.34375 -1.15625 -0.34375q-0.890625 0 -1.28125 0.296875q-0.375 0.296875 -0.375 0.6875q0 0.25 0.15625 0.453125q0.15625 0.203125 0.5 0.34375q0.1875 0.078125 1.140625 0.328125q1.359375 0.359375 1.890625 0.59375q0.546875 0.234375 0.859375 0.6875q0.3125 0.4375 0.3125 1.09375q0 0.640625 -0.375 1.21875q-0.375 0.5625 -1.09375 0.875q-0.703125 0.3125 -1.59375 0.3125q-1.484375 0 -2.265625 -0.609375q-0.765625 -0.625 -0.984375 -1.828125zm10.65625 1.109375l0.1875 1.140625q-0.546875 0.109375 -0.984375 0.109375q-0.6875 0 -1.078125 -0.21875q-0.390625 -0.21875 -0.546875 -0.578125q-0.15625 -0.359375 -0.15625 -1.515625l0 -4.375l-0.953125 0l0 -1.0l0.953125 0l0 -1.890625l1.28125 -0.765625l0 2.65625l1.296875 0l0 1.0l-1.296875 0l0 4.4375q0 0.546875 0.0625 0.71875q0.078125 0.15625 0.21875 0.25q0.15625 0.078125 0.453125 0.078125q0.203125 0 0.5625 -0.046875zm1.2438507 1.15625l0 -7.59375l1.15625 0l0 1.140625q0.453125 -0.796875 0.828125 -1.046875q0.375 -0.265625 0.8125 -0.265625q0.65625 0 1.328125 0.40625l-0.4375 1.203125q-0.46875 -0.28125 -0.953125 -0.28125q-0.421875 0 -0.765625 0.25q-0.328125 0.25 -0.46875 0.703125q-0.21875 0.6875 -0.21875 1.5l0 3.984375l-1.28125 0zm4.8962708 -9.015625l0 -1.46875l1.296875 0l0 1.46875l-1.296875 0zm0 9.015625l0 -7.59375l1.296875 0l0 7.59375l-1.296875 0zm4.4436493 0l-1.203125 0l0 -10.484375l1.296875 0l0 3.734375q0.8125 -1.015625 2.078125 -1.015625q0.703125 0 1.328125 0.28125q0.625 0.28125 1.03125 0.796875q0.40625 0.5 0.625 1.234375q0.234375 0.71875 0.234375 1.53125q0 1.96875 -0.96875 3.03125q-0.953125 1.0625 -2.3125 1.0625q-1.34375 0 -2.109375 -1.125l0 0.953125zm-0.015625 -3.859375q0 1.375 0.375 1.984375q0.609375 0.984375 1.640625 0.984375q0.84375 0 1.453125 -0.734375q0.625 -0.734375 0.625 -2.1875q0 -1.484375 -0.59375 -2.1875q-0.59375 -0.71875 -1.421875 -0.71875q-0.84375 0 -1.46875 0.734375q-0.609375 0.734375 -0.609375 2.125zm11.963608 3.859375l0 -1.109375q-0.890625 1.28125 -2.421875 1.28125q-0.671875 0 -1.25 -0.25q-0.578125 -0.265625 -0.875 -0.65625q-0.28125 -0.390625 -0.390625 -0.953125q-0.078125 -0.375 -0.078125 -1.203125l0 -4.703125l1.28125 0l0 4.203125q0 1.015625 0.078125 1.359375q0.125 0.515625 0.515625 0.8125q0.40625 0.28125 0.984375 0.28125q0.578125 0 1.078125 -0.296875q0.515625 -0.296875 0.71875 -0.8125q0.21875 -0.515625 0.21875 -1.484375l0 -4.0625l1.28125 0l0 7.59375l-1.140625 0zm3.1667328 -9.015625l0 -1.46875l1.296875 0l0 1.46875l-1.296875 0zm0 9.015625l0 -7.59375l1.296875 0l0 7.59375l-1.296875 0zm3.2405243 0l0 -7.59375l1.15625 0l0 1.140625q0.453125 -0.796875 0.828125 -1.046875q0.375 -0.265625 0.8125 -0.265625q0.65625 0 1.328125 0.40625l-0.4375 1.203125q-0.46875 -0.28125 -0.953125 -0.28125q-0.421875 0 -0.765625 0.25q-0.328125 0.25 -0.46875 0.703125q-0.21875 0.6875 -0.21875 1.5l0 3.984375l-1.28125 0zm10.099396 -2.453125l1.328125 0.171875q-0.3125 1.171875 -1.171875 1.8125q-0.84375 0.640625 -2.171875 0.640625q-1.671875 0 -2.65625 -1.015625q-0.96875 -1.03125 -0.96875 -2.890625q0 -1.921875 0.984375 -2.96875q1.0 -1.0625 2.578125 -1.0625q1.515625 0 2.484375 1.03125q0.96875 1.03125 0.96875 2.921875q0 0.109375 -0.015625 0.34375l-5.65625 0q0.0625 1.25 0.703125 1.921875q0.640625 0.65625 1.59375 0.65625q0.703125 0 1.203125 -0.359375q0.5 -0.375 0.796875 -1.203125zm-4.234375 -2.078125l4.25 0q-0.09375 -0.953125 -0.484375 -1.4375q-0.625 -0.75 -1.609375 -0.75q-0.875 0 -1.484375 0.59375q-0.609375 0.59375 -0.671875 1.59375z" fill-rule="nonzero"/><path fill="#000000" fill-opacity="0.0" d="m-305.28748 -118.710526l102.110245 0l0 33.95276l-102.110245 0z" fill-rule="evenodd"/><path fill="#000000" d="m-282.9095 -95.63052l0 -7.59375l1.15625 0l0 1.140625q0.453125 -0.796875 0.828125 -1.046875q0.375 -0.265625 0.8125 -0.265625q0.65625 0 1.328125 0.40625l-0.4375 1.203125q-0.46875 -0.28125 -0.953125 -0.28125q-0.421875 0 -0.765625 0.25q-0.328125 0.25 -0.46875 0.703125q-0.21875 0.6875 -0.21875 1.5l0 3.984375l-1.28125 0zm9.849396 -0.9375q-0.71875 0.609375 -1.375 0.859375q-0.65625 0.25 -1.421875 0.25q-1.25 0 -1.921875 -0.609375q-0.671875 -0.609375 -0.671875 -1.5625q0 -0.5625 0.25 -1.015625q0.25 -0.46875 0.65625 -0.75q0.421875 -0.28125 0.9375 -0.421875q0.375 -0.09375 1.140625 -0.1875q1.5625 -0.1875 2.296875 -0.453125q0.015625 -0.265625 0.015625 -0.328125q0 -0.796875 -0.375 -1.109375q-0.484375 -0.4375 -1.453125 -0.4375q-0.921875 0 -1.359375 0.328125q-0.421875 0.3125 -0.625 1.109375l-1.265625 -0.171875q0.171875 -0.796875 0.5625 -1.296875q0.390625 -0.5 1.140625 -0.765625q0.75 -0.265625 1.71875 -0.265625q0.984375 0 1.59375 0.234375q0.609375 0.21875 0.890625 0.5625q0.28125 0.34375 0.40625 0.875q0.0625 0.328125 0.0625 1.1875l0 1.71875q0 1.796875 0.078125 2.28125q0.078125 0.46875 0.328125 0.90625l-1.34375 0q-0.203125 -0.40625 -0.265625 -0.9375zm-0.109375 -2.875q-0.703125 0.28125 -2.09375 0.484375q-0.796875 0.109375 -1.125 0.265625q-0.328125 0.140625 -0.515625 0.421875q-0.171875 0.265625 -0.171875 0.59375q0 0.515625 0.390625 0.859375q0.390625 0.34375 1.140625 0.34375q0.734375 0 1.3125 -0.3125q0.59375 -0.328125 0.859375 -0.890625q0.203125 -0.4375 0.203125 -1.296875l0 -0.46875zm8.260498 1.03125l1.265625 0.15625q-0.203125 1.3125 -1.0625 2.0625q-0.84375 0.734375 -2.09375 0.734375q-1.5625 0 -2.515625 -1.015625q-0.9375 -1.03125 -0.9375 -2.921875q0 -1.234375 0.40625 -2.15625q0.40625 -0.921875 1.234375 -1.375q0.84375 -0.46875 1.8125 -0.46875q1.25 0 2.03125 0.625q0.78125 0.625 1.015625 1.765625l-1.265625 0.203125q-0.171875 -0.765625 -0.625 -1.15625q-0.453125 -0.390625 -1.09375 -0.390625q-0.984375 0 -1.59375 0.703125q-0.609375 0.703125 -0.609375 2.203125q0 1.53125 0.578125 2.234375q0.59375 0.6875 1.546875 0.6875q0.75 0 1.265625 -0.453125q0.515625 -0.46875 0.640625 -1.4375zm7.328125 0l1.265625 0.15625q-0.203125 1.3125 -1.0625 2.0625q-0.84375 0.734375 -2.09375 0.734375q-1.5625 0 -2.515625 -1.015625q-0.9375 -1.03125 -0.9375 -2.921875q0 -1.234375 0.40625 -2.15625q0.40625 -0.921875 1.234375 -1.375q0.84375 -0.46875 1.8125 -0.46875q1.25 0 2.03125 0.625q0.78125 0.625 1.015625 1.765625l-1.265625 0.203125q-0.171875 -0.765625 -0.625 -1.15625q-0.453125 -0.390625 -1.09375 -0.390625q-0.984375 0 -1.59375 0.703125q-0.609375 0.703125 -0.609375 2.203125q0 1.53125 0.578125 2.234375q0.59375 0.6875 1.546875 0.6875q0.75 0 1.265625 -0.453125q0.515625 -0.46875 0.640625 -1.4375zm1.8906097 -1.015625q0 -2.109375 1.171875 -3.125q0.984375 -0.84375 2.390625 -0.84375q1.578125 0 2.5625 1.03125q1.0 1.015625 1.0 2.828125q0 1.46875 -0.4375 2.3125q-0.4375 0.828125 -1.28125 1.296875q-0.84375 0.46875 -1.84375 0.46875q-1.59375 0 -2.578125 -1.015625q-0.984375 -1.03125 -0.984375 -2.953125zm1.328125 0q0 1.453125 0.625 2.1875q0.640625 0.71875 1.609375 0.71875q0.96875 0 1.59375 -0.71875q0.640625 -0.734375 0.640625 -2.234375q0 -1.40625 -0.640625 -2.125q-0.640625 -0.734375 -1.59375 -0.734375q-0.96875 0 -1.609375 0.71875q-0.625 0.71875 -0.625 2.1875zm7.072983 4.421875l1.25 0.1875q0.078125 0.578125 0.4375 0.84375q0.46875 0.359375 1.3125 0.359375q0.890625 0 1.375 -0.359375q0.484375 -0.359375 0.65625 -1.0q0.109375 -0.390625 0.09375 -1.65625q-0.84375 1.0 -2.109375 1.0q-1.5625 0 -2.421875 -1.125q-0.859375 -1.140625 -0.859375 -2.71875q0 -1.09375 0.390625 -2.0q0.40625 -0.921875 1.140625 -1.421875q0.75 -0.5 1.765625 -0.5q1.34375 0 2.21875 1.078125l0 -0.90625l1.1875 0l0 6.5625q0 1.78125 -0.359375 2.515625q-0.359375 0.734375 -1.15625 1.15625q-0.78125 0.4375 -1.921875 0.4375q-1.359375 0 -2.203125 -0.609375q-0.828125 -0.609375 -0.796875 -1.84375zm1.0625 -4.5625q0 1.5 0.59375 2.1875q0.59375 0.6875 1.484375 0.6875q0.890625 0 1.484375 -0.6875q0.609375 -0.6875 0.609375 -2.140625q0 -1.390625 -0.625 -2.09375q-0.609375 -0.71875 -1.484375 -0.71875q-0.859375 0 -1.46875 0.703125q-0.59375 0.6875 -0.59375 2.0625zm7.291733 3.9375l0 -10.484375l1.28125 0l0 10.484375l-1.28125 0zm3.2873993 -9.015625l0 -1.46875l1.296875 0l0 1.46875l-1.296875 0zm0 9.015625l0 -7.59375l1.296875 0l0 7.59375l-1.296875 0zm8.459274 -2.453125l1.328125 0.171875q-0.3125 1.171875 -1.171875 1.8125q-0.84375 0.640625 -2.171875 0.640625q-1.671875 0 -2.65625 -1.015625q-0.96875 -1.03125 -0.96875 -2.890625q0 -1.921875 0.984375 -2.96875q1.0 -1.0625 2.578125 -1.0625q1.515625 0 2.484375 1.03125q0.96875 1.03125 0.96875 2.921875q0 0.109375 -0.015625 0.34375l-5.65625 0q0.0625 1.25 0.703125 1.921875q0.640625 0.65625 1.59375 0.65625q0.703125 0 1.203125 -0.359375q0.5 -0.375 0.796875 -1.203125zm-4.234375 -2.078125l4.25 0q-0.09375 -0.953125 -0.484375 -1.4375q-0.625 -0.75 -1.609375 -0.75q-0.875 0 -1.484375 0.59375q-0.609375 0.59375 -0.671875 1.59375zm7.166733 4.53125l0 -7.59375l1.15625 0l0 1.140625q0.453125 -0.796875 0.828125 -1.046875q0.375 -0.265625 0.8125 -0.265625q0.65625 0 1.328125 0.40625l-0.4375 1.203125q-0.46875 -0.28125 -0.953125 -0.28125q-0.421875 0 -0.765625 0.25q-0.328125 0.25 -0.46875 0.703125q-0.21875 0.6875 -0.21875 1.5l0 3.984375l-1.28125 0zm10.099396 -2.453125l1.328125 0.171875q-0.3125 1.171875 -1.171875 1.8125q-0.84375 0.640625 -2.171875 0.640625q-1.671875 0 -2.65625 -1.015625q-0.96875 -1.03125 -0.96875 -2.890625q0 -1.921875 0.984375 -2.96875q1.0 -1.0625 2.578125 -1.0625q1.515625 0 2.484375 1.03125q0.96875 1.03125 0.96875 2.921875q0 0.109375 -0.015625 0.34375l-5.65625 0q0.0625 1.25 0.703125 1.921875q0.640625 0.65625 1.59375 0.65625q0.703125 0 1.203125 -0.359375q0.5 -0.375 0.796875 -1.203125zm-4.234375 -2.078125l4.25 0q-0.09375 -0.953125 -0.484375 -1.4375q-0.625 -0.75 -1.609375 -0.75q-0.875 0 -1.484375 0.59375q-0.609375 0.59375 -0.671875 1.59375z" fill-rule="nonzero"/><path fill="#000000" fill-opacity="0.0" d="m-307.01453 -192.78842l104.91341 0l0 33.95276l-104.91341 0z" fill-rule="evenodd"/><path fill="#000000" d="m-278.48196 -172.48967l1.265625 0.15625q-0.203125 1.3125 -1.0625 2.0625q-0.84375 0.734375 -2.09375 0.734375q-1.5625 0 -2.515625 -1.015625q-0.9375 -1.03125 -0.9375 -2.921875q0 -1.234375 0.40625 -2.15625q0.40625 -0.921875 1.234375 -1.375q0.84375 -0.46875 1.8125 -0.46875q1.25 0 2.03125 0.625q0.78125 0.625 1.015625 1.765625l-1.265625 0.203125q-0.171875 -0.765625 -0.625 -1.15625q-0.453125 -0.390625 -1.09375 -0.390625q-0.984375 0 -1.59375 0.703125q-0.609375 0.703125 -0.609375 2.203125q0 1.53125 0.578125 2.234375q0.59375 0.6875 1.546875 0.6875q0.75 0 1.265625 -0.453125q0.515625 -0.46875 0.640625 -1.4375zm1.890625 -1.015625q0 -2.109375 1.171875 -3.125q0.984375 -0.84375 2.390625 -0.84375q1.578125 0 2.5625 1.03125q1.0 1.015625 1.0 2.828125q0 1.46875 -0.4375 2.3125q-0.4375 0.828125 -1.28125 1.296875q-0.84375 0.46875 -1.84375 0.46875q-1.59375 0 -2.578125 -1.015625q-0.984375 -1.03125 -0.984375 -2.953125zm1.328125 0q0 1.453125 0.625 2.1875q0.640625 0.71875 1.609375 0.71875q0.96875 0 1.59375 -0.71875q0.640625 -0.734375 0.640625 -2.234375q0 -1.40625 -0.640625 -2.125q-0.640625 -0.734375 -1.59375 -0.734375q-0.96875 0 -1.609375 0.71875q-0.625 0.71875 -0.625 2.1875zm7.3073425 3.796875l0 -7.59375l1.15625 0l0 1.0625q0.34375 -0.5625 0.9375 -0.890625q0.609375 -0.34375 1.359375 -0.34375q0.84375 0 1.375 0.34375q0.546875 0.34375 0.765625 0.984375q0.90625 -1.328125 2.359375 -1.328125q1.125 0 1.734375 0.625q0.609375 0.625 0.609375 1.921875l0 5.21875l-1.28125 0l0 -4.78125q0 -0.78125 -0.125 -1.109375q-0.125 -0.34375 -0.453125 -0.546875q-0.328125 -0.21875 -0.78125 -0.21875q-0.796875 0 -1.328125 0.53125q-0.53125 0.53125 -0.53125 1.703125l0 4.421875l-1.28125 0l0 -4.9375q0 -0.859375 -0.3125 -1.28125q-0.3125 -0.4375 -1.03125 -0.4375q-0.546875 0 -1.015625 0.296875q-0.453125 0.28125 -0.671875 0.828125q-0.203125 0.546875 -0.203125 1.59375l0 3.9375l-1.28125 0zm12.208771 0l0 -7.59375l1.15625 0l0 1.0625q0.34375 -0.5625 0.9375 -0.890625q0.609375 -0.34375 1.359375 -0.34375q0.84375 0 1.375 0.34375q0.546875 0.34375 0.765625 0.984375q0.90625 -1.328125 2.359375 -1.328125q1.125 0 1.734375 0.625q0.609375 0.625 0.609375 1.921875l0 5.21875l-1.28125 0l0 -4.78125q0 -0.78125 -0.125 -1.109375q-0.125 -0.34375 -0.453125 -0.546875q-0.328125 -0.21875 -0.78125 -0.21875q-0.796875 0 -1.328125 0.53125q-0.53125 0.53125 -0.53125 1.703125l0 4.421875l-1.28125 0l0 -4.9375q0 -0.859375 -0.3125 -1.28125q-0.3125 -0.4375 -1.03125 -0.4375q-0.546875 0 -1.015625 0.296875q-0.453125 0.28125 -0.671875 0.828125q-0.203125 0.546875 -0.203125 1.59375l0 3.9375l-1.28125 0zm17.193146 0l0 -1.109375q-0.890625 1.28125 -2.421875 1.28125q-0.671875 0 -1.25 -0.25q-0.578125 -0.265625 -0.875 -0.65625q-0.28125 -0.390625 -0.390625 -0.953125q-0.078125 -0.375 -0.078125 -1.203125l0 -4.703125l1.28125 0l0 4.203125q0 1.015625 0.078125 1.359375q0.125 0.515625 0.515625 0.8125q0.40625 0.28125 0.984375 0.28125q0.578125 0 1.078125 -0.296875q0.515625 -0.296875 0.71875 -0.8125q0.21875 -0.515625 0.21875 -1.484375l0 -4.0625l1.28125 0l0 7.59375l-1.140625 0zm5.979233 -1.15625l0.1875 1.140625q-0.546875 0.109375 -0.984375 0.109375q-0.6875 0 -1.078125 -0.21875q-0.390625 -0.21875 -0.546875 -0.578125q-0.15625 -0.359375 -0.15625 -1.515625l0 -4.375l-0.953125 0l0 -1.0l0.953125 0l0 -1.890625l1.28125 -0.765625l0 2.65625l1.296875 0l0 1.0l-1.296875 0l0 4.4375q0 0.546875 0.0625 0.71875q0.078125 0.15625 0.21875 0.25q0.15625 0.078125 0.453125 0.078125q0.203125 0 0.5625 -0.046875zm6.2126007 0.21875q-0.71875 0.609375 -1.375 0.859375q-0.65625 0.25 -1.421875 0.25q-1.25 0 -1.921875 -0.609375q-0.671875 -0.609375 -0.671875 -1.5625q0 -0.5625 0.25 -1.015625q0.25 -0.46875 0.65625 -0.75q0.421875 -0.28125 0.9375 -0.421875q0.375 -0.09375 1.140625 -0.1875q1.5625 -0.1875 2.296875 -0.453125q0.015625 -0.265625 0.015625 -0.328125q0 -0.796875 -0.375 -1.109375q-0.484375 -0.4375 -1.453125 -0.4375q-0.921875 0 -1.359375 0.328125q-0.421875 0.3125 -0.625 1.109375l-1.265625 -0.171875q0.171875 -0.796875 0.5625 -1.296875q0.390625 -0.5 1.140625 -0.765625q0.75 -0.265625 1.71875 -0.265625q0.984375 0 1.59375 0.234375q0.609375 0.21875 0.890625 0.5625q0.28125 0.34375 0.40625 0.875q0.0625 0.328125 0.0625 1.1875l0 1.71875q0 1.796875 0.078125 2.28125q0.078125 0.46875 0.328125 0.90625l-1.34375 0q-0.203125 -0.40625 -0.265625 -0.9375zm-0.109375 -2.875q-0.703125 0.28125 -2.09375 0.484375q-0.796875 0.109375 -1.125 0.265625q-0.328125 0.140625 -0.515625 0.421875q-0.171875 0.265625 -0.171875 0.59375q0 0.515625 0.390625 0.859375q0.390625 0.34375 1.140625 0.34375q0.734375 0 1.3125 -0.3125q0.59375 -0.328125 0.859375 -0.890625q0.203125 -0.4375 0.203125 -1.296875l0 -0.46875zm3.2917328 3.8125l0 -7.59375l1.15625 0l0 1.140625q0.453125 -0.796875 0.828125 -1.046875q0.375 -0.265625 0.8125 -0.265625q0.65625 0 1.328125 0.40625l-0.4375 1.203125q-0.46875 -0.28125 -0.953125 -0.28125q-0.421875 0 -0.765625 0.25q-0.328125 0.25 -0.46875 0.703125q-0.21875 0.6875 -0.21875 1.5l0 3.984375l-1.28125 0zm10.099396 -2.453125l1.328125 0.171875q-0.3125 1.171875 -1.171875 1.8125q-0.84375 0.640625 -2.171875 0.640625q-1.671875 0 -2.65625 -1.015625q-0.96875 -1.03125 -0.96875 -2.890625q0 -1.921875 0.984375 -2.96875q1.0 -1.0625 2.578125 -1.0625q1.515625 0 2.484375 1.03125q0.96875 1.03125 0.96875 2.921875q0 0.109375 -0.015625 0.34375l-5.65625 0q0.0625 1.25 0.703125 1.921875q0.640625 0.65625 1.59375 0.65625q0.703125 0 1.203125 -0.359375q0.5 -0.375 0.796875 -1.203125zm-4.234375 -2.078125l4.25 0q-0.09375 -0.953125 -0.484375 -1.4375q-0.625 -0.75 -1.609375 -0.75q-0.875 0 -1.484375 0.59375q-0.609375 0.59375 -0.671875 1.59375z" fill-rule="nonzero"/><path fill="#000000" fill-opacity="0.0" d="m-297.6072 -167.77081l96.18898 0l0 27.65355l-96.18898 0z" fill-rule="evenodd"/><path fill="#000000" d="m-267.22195 -145.62831q-0.71875 0.609375 -1.375 0.859375q-0.65625 0.25 -1.421875 0.25q-1.25 0 -1.921875 -0.609375q-0.671875 -0.609375 -0.671875 -1.5625q0 -0.5625 0.25 -1.015625q0.25 -0.46875 0.65625 -0.75q0.421875 -0.28125 0.9375 -0.421875q0.375 -0.09375 1.140625 -0.1875q1.5625 -0.1875 2.296875 -0.453125q0.015625 -0.265625 0.015625 -0.328125q0 -0.796875 -0.375 -1.109375q-0.484375 -0.4375 -1.453125 -0.4375q-0.921875 0 -1.359375 0.328125q-0.421875 0.3125 -0.625 1.109375l-1.265625 -0.171875q0.171875 -0.796875 0.5625 -1.296875q0.390625 -0.5 1.140625 -0.765625q0.75 -0.265625 1.71875 -0.265625q0.984375 0 1.59375 0.234375q0.609375 0.21875 0.890625 0.5625q0.28125 0.34375 0.40625 0.875q0.0625 0.328125 0.0625 1.1875l0 1.71875q0 1.796875 0.078125 2.28125q0.078125 0.46875 0.328125 0.90625l-1.34375 0q-0.203125 -0.40625 -0.265625 -0.9375zm-0.109375 -2.875q-0.703125 0.28125 -2.09375 0.484375q-0.796875 0.109375 -1.125 0.265625q-0.328125 0.140625 -0.515625 0.421875q-0.171875 0.265625 -0.171875 0.59375q0 0.515625 0.390625 0.859375q0.390625 0.34375 1.140625 0.34375q0.734375 0 1.3125 -0.3125q0.59375 -0.328125 0.859375 -0.890625q0.203125 -0.4375 0.203125 -1.296875l0 -0.46875zm2.7917175 1.546875l1.265625 -0.203125q0.109375 0.765625 0.59375 1.171875q0.5 0.40625 1.375 0.40625q0.890625 0 1.3125 -0.359375q0.4375 -0.359375 0.4375 -0.84375q0 -0.4375 -0.375 -0.6875q-0.265625 -0.171875 -1.3125 -0.4375q-1.421875 -0.359375 -1.96875 -0.609375q-0.546875 -0.265625 -0.828125 -0.734375q-0.28125 -0.46875 -0.28125 -1.015625q0 -0.515625 0.21875 -0.9375q0.234375 -0.4375 0.640625 -0.734375q0.296875 -0.21875 0.8125 -0.359375q0.53125 -0.15625 1.125 -0.15625q0.890625 0 1.5625 0.265625q0.671875 0.25 1.0 0.6875q0.328125 0.4375 0.4375 1.171875l-1.25 0.171875q-0.09375 -0.578125 -0.5 -0.90625q-0.40625 -0.34375 -1.15625 -0.34375q-0.890625 0 -1.28125 0.296875q-0.375 0.296875 -0.375 0.6875q0 0.25 0.15625 0.453125q0.15625 0.203125 0.5 0.34375q0.1875 0.078125 1.140625 0.328125q1.359375 0.359375 1.890625 0.59375q0.546875 0.234375 0.859375 0.6875q0.3125 0.4375 0.3125 1.09375q0 0.640625 -0.375 1.21875q-0.375 0.5625 -1.09375 0.875q-0.703125 0.3125 -1.59375 0.3125q-1.484375 0 -2.265625 -0.609375q-0.765625 -0.625 -0.984375 -1.828125zm7.328125 0l1.2656403 -0.203125q0.109375 0.765625 0.59375 1.171875q0.5 0.40625 1.375 0.40625q0.890625 0 1.3125 -0.359375q0.4375 -0.359375 0.4375 -0.84375q0 -0.4375 -0.375 -0.6875q-0.265625 -0.171875 -1.3125 -0.4375q-1.421875 -0.359375 -1.96875 -0.609375q-0.54689026 -0.265625 -0.82814026 -0.734375q-0.28125 -0.46875 -0.28125 -1.015625q0 -0.515625 0.21875 -0.9375q0.234375 -0.4375 0.640625 -0.734375q0.29689026 -0.21875 0.81251526 -0.359375q0.53125 -0.15625 1.125 -0.15625q0.890625 0 1.5625 0.265625q0.671875 0.25 1.0 0.6875q0.328125 0.4375 0.4375 1.171875l-1.25 0.171875q-0.09375 -0.578125 -0.5 -0.90625q-0.40625 -0.34375 -1.15625 -0.34375q-0.890625 0 -1.28125 0.296875q-0.375 0.296875 -0.375 0.6875q0 0.25 0.15625 0.453125q0.15625 0.203125 0.5 0.34375q0.1875 0.078125 1.140625 0.328125q1.359375 0.359375 1.890625 0.59375q0.546875 0.234375 0.859375 0.6875q0.3125 0.4375 0.3125 1.09375q0 0.640625 -0.375 1.21875q-0.375 0.5625 -1.09375 0.875q-0.703125 0.3125 -1.59375 0.3125q-1.484375 0 -2.2656403 -0.609375q-0.765625 -0.625 -0.984375 -1.828125zm7.3593903 -1.53125q0 -2.109375 1.171875 -3.125q0.984375 -0.84375 2.390625 -0.84375q1.578125 0 2.5625 1.03125q1.0 1.015625 1.0 2.828125q0 1.46875 -0.4375 2.3125q-0.4375 0.828125 -1.28125 1.296875q-0.84375 0.46875 -1.84375 0.46875q-1.59375 0 -2.578125 -1.015625q-0.984375 -1.03125 -0.984375 -2.953125zm1.328125 0q0 1.453125 0.625 2.1875q0.640625 0.71875 1.609375 0.71875q0.96875 0 1.59375 -0.71875q0.640625 -0.734375 0.640625 -2.234375q0 -1.40625 -0.640625 -2.125q-0.640625 -0.734375 -1.59375 -0.734375q-0.96875 0 -1.609375 0.71875q-0.625 0.71875 -0.625 2.1875zm12.260483 1.015625l1.265625 0.15625q-0.203125 1.3125 -1.0625 2.0625q-0.84375 0.734375 -2.09375 0.734375q-1.5625 0 -2.515625 -1.015625q-0.9375 -1.03125 -0.9375 -2.921875q0 -1.234375 0.40625 -2.15625q0.40625 -0.921875 1.234375 -1.375q0.84375 -0.46875 1.8125 -0.46875q1.25 0 2.03125 0.625q0.78125 0.625 1.015625 1.765625l-1.265625 0.203125q-0.171875 -0.765625 -0.625 -1.15625q-0.453125 -0.390625 -1.09375 -0.390625q-0.984375 0 -1.59375 0.703125q-0.609375 0.703125 -0.609375 2.203125q0 1.53125 0.578125 2.234375q0.59375 0.6875 1.546875 0.6875q0.75 0 1.265625 -0.453125q0.515625 -0.46875 0.640625 -1.4375zm2.375 -6.234375l0 -1.46875l1.296875 0l0 1.46875l-1.296875 0zm0 9.015625l0 -7.59375l1.296875 0l0 7.59375l-1.296875 0zm8.209274 -0.9375q-0.71875 0.609375 -1.375 0.859375q-0.65625 0.25 -1.421875 0.25q-1.25 0 -1.921875 -0.609375q-0.671875 -0.609375 -0.671875 -1.5625q0 -0.5625 0.25 -1.015625q0.25 -0.46875 0.65625 -0.75q0.421875 -0.28125 0.9375 -0.421875q0.375 -0.09375 1.140625 -0.1875q1.5625 -0.1875 2.296875 -0.453125q0.015625 -0.265625 0.015625 -0.328125q0 -0.796875 -0.375 -1.109375q-0.484375 -0.4375 -1.453125 -0.4375q-0.921875 0 -1.359375 0.328125q-0.421875 0.3125 -0.625 1.109375l-1.265625 -0.171875q0.171875 -0.796875 0.5625 -1.296875q0.390625 -0.5 1.140625 -0.765625q0.75 -0.265625 1.71875 -0.265625q0.984375 0 1.59375 0.234375q0.609375 0.21875 0.890625 0.5625q0.28125 0.34375 0.40625 0.875q0.0625 0.328125 0.0625 1.1875l0 1.71875q0 1.796875 0.078125 2.28125q0.078125 0.46875 0.328125 0.90625l-1.34375 0q-0.203125 -0.40625 -0.265625 -0.9375zm-0.109375 -2.875q-0.703125 0.28125 -2.09375 0.484375q-0.796875 0.109375 -1.125 0.265625q-0.328125 0.140625 -0.515625 0.421875q-0.171875 0.265625 -0.171875 0.59375q0 0.515625 0.390625 0.859375q0.390625 0.34375 1.140625 0.34375q0.734375 0 1.3125 -0.3125q0.59375 -0.328125 0.859375 -0.890625q0.203125 -0.4375 0.203125 -1.296875l0 -0.46875zm3.2917328 3.8125l0 -7.59375l1.15625 0l0 1.140625q0.453125 -0.796875 0.828125 -1.046875q0.375 -0.265625 0.8125 -0.265625q0.65625 0 1.328125 0.40625l-0.4375 1.203125q-0.46875 -0.28125 -0.953125 -0.28125q-0.421875 0 -0.765625 0.25q-0.328125 0.25 -0.46875 0.703125q-0.21875 0.6875 -0.21875 1.5l0 3.984375l-1.28125 0zm10.099396 -2.453125l1.328125 0.171875q-0.3125 1.171875 -1.171875 1.8125q-0.84375 0.640625 -2.171875 0.640625q-1.671875 0 -2.65625 -1.015625q-0.96875 -1.03125 -0.96875 -2.890625q0 -1.921875 0.984375 -2.96875q1.0 -1.0625 2.578125 -1.0625q1.515625 0 2.484375 1.03125q0.96875 1.03125 0.96875 2.921875q0 0.109375 -0.015625 0.34375l-5.65625 0q0.0625 1.25 0.703125 1.921875q0.640625 0.65625 1.59375 0.65625q0.703125 0 1.203125 -0.359375q0.5 -0.375 0.796875 -1.203125zm-4.234375 -2.078125l4.25 0q-0.09375 -0.953125 -0.484375 -1.4375q-0.625 -0.75 -1.609375 -0.75q-0.875 0 -1.484375 0.59375q-0.609375 0.59375 -0.671875 1.59375z" fill-rule="nonzero"/><path fill="#000000" fill-opacity="0.0" d="m-285.9199 -95.46323l88.06299 0l0 35.307083l-88.06299 0z" fill-rule="evenodd"/><path fill="#000000" d="m-265.05023 -74.64886l1.265625 -0.203125q0.109375 0.765625 0.59375 1.171875q0.5 0.40625 1.375 0.40625q0.890625 0 1.3125 -0.359375q0.4375 -0.359375 0.4375 -0.84375q0 -0.4375 -0.375 -0.6875q-0.265625 -0.171875 -1.3125 -0.4375q-1.421875 -0.359375 -1.96875 -0.609375q-0.546875 -0.265625 -0.828125 -0.734375q-0.28125 -0.46875 -0.28125 -1.015625q0 -0.515625 0.21875 -0.9375q0.234375 -0.4375 0.640625 -0.734375q0.296875 -0.21875 0.8125 -0.359375q0.53125 -0.15625 1.125 -0.15625q0.890625 0 1.5625 0.265625q0.671875 0.25 1.0 0.6875q0.328125 0.4375 0.4375 1.171875l-1.25 0.171875q-0.09375 -0.578125 -0.5 -0.90625q-0.40625 -0.34375 -1.15625 -0.34375q-0.890625 0 -1.28125 0.296875q-0.375 0.296875 -0.375 0.6875q0 0.25 0.15625 0.453125q0.15625 0.203125 0.5 0.34375q0.1875 0.078125 1.140625 0.328125q1.359375 0.359375 1.890625 0.59375q0.546875 0.234375 0.859375 0.6875q0.3125 0.4375 0.3125 1.09375q0 0.640625 -0.375 1.21875q-0.375 0.5625 -1.09375 0.875q-0.703125 0.3125 -1.59375 0.3125q-1.484375 0 -2.265625 -0.609375q-0.765625 -0.625 -0.984375 -1.828125zm7.359375 -1.53125q0 -2.109375 1.171875 -3.125q0.984375 -0.84375 2.390625 -0.84375q1.578125 0 2.5625 1.03125q1.0 1.015625 1.0 2.828125q0 1.46875 -0.4375 2.3125q-0.4375 0.828125 -1.28125 1.296875q-0.84375 0.46875 -1.84375 0.46875q-1.59375 0 -2.578125 -1.015625q-0.984375 -1.03125 -0.984375 -2.953125zm1.328125 0q0 1.453125 0.625 2.1875q0.640625 0.71875 1.609375 0.71875q0.96875 0 1.59375 -0.71875q0.640625 -0.734375 0.640625 -2.234375q0 -1.40625 -0.640625 -2.125q-0.640625 -0.734375 -1.59375 -0.734375q-0.96875 0 -1.609375 0.71875q-0.625 0.71875 -0.625 2.1875zm6.791733 1.53125l1.265625 -0.203125q0.109375 0.765625 0.59375 1.171875q0.5 0.40625 1.375 0.40625q0.890625 0 1.3125 -0.359375q0.4375 -0.359375 0.4375 -0.84375q0 -0.4375 -0.375 -0.6875q-0.265625 -0.171875 -1.3125 -0.4375q-1.421875 -0.359375 -1.96875 -0.609375q-0.546875 -0.265625 -0.828125 -0.734375q-0.28125 -0.46875 -0.28125 -1.015625q0 -0.515625 0.21875 -0.9375q0.234375 -0.4375 0.640625 -0.734375q0.296875 -0.21875 0.8125 -0.359375q0.53125 -0.15625 1.125 -0.15625q0.890625 0 1.5625 0.265625q0.671875 0.25 1.0 0.6875q0.328125 0.4375 0.4375 1.171875l-1.25 0.171875q-0.09375 -0.578125 -0.5 -0.90625q-0.40625 -0.34375 -1.15625 -0.34375q-0.890625 0 -1.28125 0.296875q-0.375 0.296875 -0.375 0.6875q0 0.25 0.15625 0.453125q0.15625 0.203125 0.5 0.34375q0.1875 0.078125 1.140625 0.328125q1.359375 0.359375 1.890625 0.59375q0.546875 0.234375 0.859375 0.6875q0.3125 0.4375 0.3125 1.09375q0 0.640625 -0.375 1.21875q-0.375 0.5625 -1.09375 0.875q-0.703125 0.3125 -1.59375 0.3125q-1.484375 0 -2.265625 -0.609375q-0.765625 -0.625 -0.984375 -1.828125zm10.65625 1.109375l0.1875 1.140625q-0.546875 0.109375 -0.984375 0.109375q-0.6875 0 -1.078125 -0.21875q-0.390625 -0.21875 -0.546875 -0.578125q-0.15625 -0.359375 -0.15625 -1.515625l0 -4.375l-0.953125 0l0 -1.0l0.953125 0l0 -1.890625l1.28125 -0.765625l0 2.65625l1.296875 0l0 1.0l-1.296875 0l0 4.4375q0 0.546875 0.0625 0.71875q0.078125 0.15625 0.21875 0.25q0.15625 0.078125 0.453125 0.078125q0.203125 0 0.5625 -0.046875zm1.2594757 -7.859375l0 -1.46875l1.296875 0l0 1.46875l-1.296875 0zm0 9.015625l0 -7.59375l1.296875 0l0 7.59375l-1.296875 0zm6.0686493 -1.15625l0.1875 1.140625q-0.546875 0.109375 -0.984375 0.109375q-0.6875 0 -1.078125 -0.21875q-0.390625 -0.21875 -0.546875 -0.578125q-0.15625 -0.359375 -0.15625 -1.515625l0 -4.375l-0.953125 0l0 -1.0l0.953125 0l0 -1.890625l1.28125 -0.765625l0 2.65625l1.296875 0l0 1.0l-1.296875 0l0 4.4375q0 0.546875 0.0625 0.71875q0.078125 0.15625 0.21875 0.25q0.15625 0.078125 0.453125 0.078125q0.203125 0 0.5625 -0.046875zm6.2438507 1.15625l0 -1.109375q-0.890625 1.28125 -2.421875 1.28125q-0.671875 0 -1.25 -0.25q-0.578125 -0.265625 -0.875 -0.65625q-0.28125 -0.390625 -0.390625 -0.953125q-0.078125 -0.375 -0.078125 -1.203125l0 -4.703125l1.28125 0l0 4.203125q0 1.015625 0.078125 1.359375q0.125 0.515625 0.515625 0.8125q0.40625 0.28125 0.984375 0.28125q0.578125 0 1.078125 -0.296875q0.515625 -0.296875 0.71875 -0.8125q0.21875 -0.515625 0.21875 -1.484375l0 -4.0625l1.28125 0l0 7.59375l-1.140625 0zm3.1667328 -9.015625l0 -1.46875l1.296875 0l0 1.46875l-1.296875 0zm0 9.015625l0 -7.59375l1.296875 0l0 7.59375l-1.296875 0zm3.2405243 0l0 -7.59375l1.15625 0l0 1.140625q0.453125 -0.796875 0.828125 -1.046875q0.375 -0.265625 0.8125 -0.265625q0.65625 0 1.328125 0.40625l-0.4375 1.203125q-0.46875 -0.28125 -0.953125 -0.28125q-0.421875 0 -0.765625 0.25q-0.328125 0.25 -0.46875 0.703125q-0.21875 0.6875 -0.21875 1.5l0 3.984375l-1.28125 0zm10.099396 -2.453125l1.328125 0.171875q-0.3125 1.171875 -1.171875 1.8125q-0.84375 0.640625 -2.171875 0.640625q-1.671875 0 -2.65625 -1.015625q-0.96875 -1.03125 -0.96875 -2.890625q0 -1.921875 0.984375 -2.96875q1.0 -1.0625 2.578125 -1.0625q1.515625 0 2.484375 1.03125q0.96875 1.03125 0.96875 2.921875q0 0.109375 -0.015625 0.34375l-5.65625 0q0.0625 1.25 0.703125 1.921875q0.640625 0.65625 1.59375 0.65625q0.703125 0 1.203125 -0.359375q0.5 -0.375 0.796875 -1.203125zm-4.234375 -2.078125l4.25 0q-0.09375 -0.953125 -0.484375 -1.4375q-0.625 -0.75 -1.609375 -0.75q-0.875 0 -1.484375 0.59375q-0.609375 0.59375 -0.671875 1.59375z" fill-rule="nonzero"/><path fill="#ffffff" d="m262.765 -50.30261l48.0 0l0 -24.000004l-48.0 0z" fill-rule="evenodd"/><path stroke="#000000" stroke-width="1.0" stroke-linejoin="round" stroke-linecap="butt" d="m262.765 -50.30261l48.0 0l0 -24.000004l-48.0 0z" fill-rule="evenodd"/><path fill="#000000" fill-opacity="0.0" d="m287.28098 -53.161373l19.4534 -8.675568" fill-rule="evenodd"/><path stroke="#000000" stroke-width="2.0" stroke-linejoin="round" stroke-linecap="butt" d="m298.2405 -58.048958l8.493866 -3.787983" fill-rule="evenodd"/><path fill="#000000" stroke="#000000" stroke-width="2.0" stroke-linecap="butt" d="m296.895 -61.065998l-6.9437256 6.713764l9.634735 -0.6796875z" fill-rule="evenodd"/><path fill="#000000" fill-opacity="0.0" d="m286.76227 -52.30498l0 -20.697002" fill-rule="evenodd"/><path stroke="#000000" stroke-width="2.0" stroke-linejoin="round" stroke-linecap="butt" d="m286.76227 -64.30498l0 -8.697006" fill-rule="evenodd"/><path fill="#000000" stroke="#000000" stroke-width="2.0" stroke-linecap="butt" d="m283.45883 -64.30498l3.3034363 9.076195l3.3034668 -9.076195z" fill-rule="evenodd"/><path fill="#000000" fill-opacity="0.0" d="m286.24905 -53.161373l-19.4534 -8.675568" fill-rule="evenodd"/><path stroke="#000000" stroke-width="2.0" stroke-linejoin="round" stroke-linecap="butt" d="m275.28952 -58.04896l-8.493866 -3.7879791" fill-rule="evenodd"/><path fill="#000000" stroke="#000000" stroke-width="2.0" stroke-linecap="butt" d="m273.94403 -55.031925l9.634735 0.6796913l-6.943756 -6.713764z" fill-rule="evenodd"/><path fill="#000000" d="m285.35638 -52.994877l0 0c0 0.7685852 0.6230469 1.3916435 1.3916321 1.3916435l0 0c0.3691101 0 0.7230835 -0.14661789 0.9840393 -0.40760422c0.26098633 -0.2609825 0.4076233 -0.6149521 0.4076233 -0.9840393l0 0c0 -0.7685852 -0.6230774 -1.3916435 -1.3916626 -1.3916435l0 0c-0.7685852 0 -1.3916321 0.6230583 -1.3916321 1.3916435z" fill-rule="evenodd"/><path stroke="#000000" stroke-width="1.0" stroke-linejoin="round" stroke-linecap="butt" d="m285.35638 -52.994877l0 0c0 0.7685852 0.6230469 1.3916435 1.3916321 1.3916435l0 0c0.3691101 0 0.7230835 -0.14661789 0.9840393 -0.40760422c0.26098633 -0.2609825 0.4076233 -0.6149521 0.4076233 -0.9840393l0 0c0 -0.7685852 -0.6230774 -1.3916435 -1.3916626 -1.3916435l0 0c-0.7685852 0 -1.3916321 0.6230583 -1.3916321 1.3916435z" fill-rule="evenodd"/><path fill="#ffffff" d="m214.76501 -50.30261l48.0 0l0 -24.000004l-48.0 0z" fill-rule="evenodd"/><path stroke="#000000" stroke-width="1.0" stroke-linejoin="round" stroke-linecap="butt" d="m214.76501 -50.30261l48.0 0l0 -24.000004l-48.0 0z" fill-rule="evenodd"/><path fill="#000000" fill-opacity="0.0" d="m239.28096 -53.161373l19.453415 -8.675568" fill-rule="evenodd"/><path stroke="#000000" stroke-width="2.0" stroke-linejoin="round" stroke-linecap="butt" d="m250.24051 -58.048958l8.493866 -3.787983" fill-rule="evenodd"/><path fill="#000000" stroke="#000000" stroke-width="2.0" stroke-linecap="butt" d="m248.895 -61.065998l-6.943741 6.713764l9.634735 -0.6796875z" fill-rule="evenodd"/><path fill="#000000" fill-opacity="0.0" d="m238.76228 -52.30498l0 -20.697002" fill-rule="evenodd"/><path stroke="#000000" stroke-width="2.0" stroke-linejoin="round" stroke-linecap="butt" d="m238.76228 -64.30498l0 -8.697006" fill-rule="evenodd"/><path fill="#000000" stroke="#000000" stroke-width="2.0" stroke-linecap="butt" d="m235.45882 -64.30498l3.3034668 9.076195l3.3034668 -9.076195z" fill-rule="evenodd"/><path fill="#000000" fill-opacity="0.0" d="m238.24907 -53.161373l-19.453415 -8.675568" fill-rule="evenodd"/><path stroke="#000000" stroke-width="2.0" stroke-linejoin="round" stroke-linecap="butt" d="m227.28952 -58.04896l-8.493851 -3.7879791" fill-rule="evenodd"/><path fill="#000000" stroke="#000000" stroke-width="2.0" stroke-linecap="butt" d="m225.94402 -55.031925l9.63475 0.6796913l-6.943741 -6.713764z" fill-rule="evenodd"/><path fill="#000000" d="m237.35638 -52.994877l0 0c0 0.7685852 0.62306213 1.3916435 1.3916473 1.3916435l0 0c0.3690796 0 0.723053 -0.14661789 0.9840393 -0.40760422c0.26098633 -0.2609825 0.40760803 -0.6149521 0.40760803 -0.9840393l0 0c0 -0.7685852 -0.62306213 -1.3916435 -1.3916473 -1.3916435l0 0c-0.7685852 0 -1.3916473 0.6230583 -1.3916473 1.3916435z" fill-rule="evenodd"/><path stroke="#000000" stroke-width="1.0" stroke-linejoin="round" stroke-linecap="butt" d="m237.35638 -52.994877l0 0c0 0.7685852 0.62306213 1.3916435 1.3916473 1.3916435l0 0c0.3690796 0 0.723053 -0.14661789 0.9840393 -0.40760422c0.26098633 -0.2609825 0.40760803 -0.6149521 0.40760803 -0.9840393l0 0c0 -0.7685852 -0.62306213 -1.3916435 -1.3916473 -1.3916435l0 0c-0.7685852 0 -1.3916473 0.6230583 -1.3916473 1.3916435z" fill-rule="evenodd"/><path fill="#ffffff" d="m262.765 -74.30261l48.0 0l0 -24.0l-48.0 0z" fill-rule="evenodd"/><path stroke="#000000" stroke-width="1.0" stroke-linejoin="round" stroke-linecap="butt" d="m262.765 -74.30261l48.0 0l0 -24.0l-48.0 0z" fill-rule="evenodd"/><path fill="#000000" fill-opacity="0.0" d="m287.28098 -77.16137l19.4534 -8.675568" fill-rule="evenodd"/><path stroke="#000000" stroke-width="2.0" stroke-linejoin="round" stroke-linecap="butt" d="m287.28098 -77.16137l8.493866 -3.7879868" fill-rule="evenodd"/><path fill="#000000" stroke="#000000" stroke-width="2.0" stroke-linecap="butt" d="m297.12033 -77.93232l6.943756 -6.7137604l-9.634735 0.6796875z" fill-rule="evenodd"/><path fill="#000000" fill-opacity="0.0" d="m286.76227 -76.30498l0 -20.697006" fill-rule="evenodd"/><path stroke="#000000" stroke-width="2.0" stroke-linejoin="round" stroke-linecap="butt" d="m286.76227 -76.30498l0 -8.697014" fill-rule="evenodd"/><path fill="#000000" stroke="#000000" stroke-width="2.0" stroke-linecap="butt" d="m290.06573 -85.00199l-3.3034668 -9.076195l-3.3034363 9.076195z" fill-rule="evenodd"/><path fill="#000000" fill-opacity="0.0" d="m286.24905 -77.16137l-19.4534 -8.675568" fill-rule="evenodd"/><path stroke="#000000" stroke-width="2.0" stroke-linejoin="round" stroke-linecap="butt" d="m286.24905 -77.16137l-8.493835 -3.7879791" fill-rule="evenodd"/><path fill="#000000" stroke="#000000" stroke-width="2.0" stroke-linecap="butt" d="m279.1007 -83.966385l-9.634735 -0.6796951l6.9437256 6.713768z" fill-rule="evenodd"/><path fill="#000000" d="m285.35638 -76.99488l0 0c0 0.7685852 0.6230469 1.3916473 1.3916321 1.3916473l0 0c0.3691101 0 0.7230835 -0.1466217 0.9840393 -0.4076004c0.26098633 -0.26098633 0.4076233 -0.6149597 0.4076233 -0.98404694l0 0c0 -0.7685776 -0.6230774 -1.3916397 -1.3916626 -1.3916397l0 0c-0.7685852 0 -1.3916321 0.62306213 -1.3916321 1.3916397z" fill-rule="evenodd"/><path stroke="#000000" stroke-width="1.0" stroke-linejoin="round" stroke-linecap="butt" d="m285.35638 -76.99488l0 0c0 0.7685852 0.6230469 1.3916473 1.3916321 1.3916473l0 0c0.3691101 0 0.7230835 -0.1466217 0.9840393 -0.4076004c0.26098633 -0.26098633 0.4076233 -0.6149597 0.4076233 -0.98404694l0 0c0 -0.7685776 -0.6230774 -1.3916397 -1.3916626 -1.3916397l0 0c-0.7685852 0 -1.3916321 0.62306213 -1.3916321 1.3916397z" fill-rule="evenodd"/><path fill="#ffffff" d="m214.76501 -98.30261l48.0 0l0 24.0l-48.0 0z" fill-rule="evenodd"/><path stroke="#000000" stroke-width="1.0" stroke-linejoin="round" stroke-linecap="butt" d="m214.76501 -98.30261l48.0 0l0 24.0l-48.0 0z" fill-rule="evenodd"/><path fill="#000000" fill-opacity="0.0" d="m239.28096 -95.44385l19.464584 8.661415" fill-rule="evenodd"/><path stroke="#000000" stroke-width="2.0" stroke-linejoin="round" stroke-linecap="butt" d="m239.28096 -95.44385l8.501022 3.7828217" fill-rule="evenodd"/><path fill="#000000" stroke="#000000" stroke-width="2.0" stroke-linecap="butt" d="m246.43896 -88.64289l9.635284 0.6717911l-6.949234 -6.708069z" fill-rule="evenodd"/><path fill="#000000" fill-opacity="0.0" d="m238.76228 -96.30024l0 20.692917" fill-rule="evenodd"/><path stroke="#000000" stroke-width="2.0" stroke-linejoin="round" stroke-linecap="butt" d="m238.76228 -96.30024l0 8.692917" fill-rule="evenodd"/><path fill="#000000" stroke="#000000" stroke-width="2.0" stroke-linecap="butt" d="m235.45882 -87.60732l3.3034668 9.076195l3.3034668 -9.076195z" fill-rule="evenodd"/><path fill="#000000" fill-opacity="0.0" d="m238.24907 -95.44385l-19.46457 8.661415" fill-rule="evenodd"/><path stroke="#000000" stroke-width="2.0" stroke-linejoin="round" stroke-linecap="butt" d="m238.24905 -95.44385l-8.501022 3.7828217" fill-rule="evenodd"/><path fill="#000000" stroke="#000000" stroke-width="2.0" stroke-linecap="butt" d="m228.40501 -94.67917l-6.9492493 6.708069l9.635284 -0.6717911z" fill-rule="evenodd"/><path fill="#000000" d="m237.35638 -95.61616l0 0c0 -0.76537323 0.6204529 -1.3858261 1.3858337 -1.3858261l0 0c0.36753845 0 0.72003174 0.14600372 0.97991943 0.40589905c0.2598877 0.2598877 0.40589905 0.612381 0.40589905 0.97992706l0 0c0 0.76537323 -0.6204529 1.3858261 -1.3858185 1.3858261l0 0c-0.76538086 0 -1.3858337 -0.6204529 -1.3858337 -1.3858261z" fill-rule="evenodd"/><path stroke="#000000" stroke-width="1.0" stroke-linejoin="round" stroke-linecap="butt" d="m237.35638 -95.61616l0 0c0 -0.76537323 0.6204529 -1.3858261 1.3858337 -1.3858261l0 0c0.36753845 0 0.72003174 0.14600372 0.97991943 0.40589905c0.2598877 0.2598877 0.40589905 0.612381 0.40589905 0.97992706l0 0c0 0.76537323 -0.6204529 1.3858261 -1.3858185 1.3858261l0 0c-0.76538086 0 -1.3858337 -0.6204529 -1.3858337 -1.3858261z" fill-rule="evenodd"/><path fill="#ffffff" d="m214.76501 -122.30261l48.0 0l0 24.0l-48.0 0z" fill-rule="evenodd"/><path stroke="#000000" stroke-width="1.0" stroke-linejoin="round" stroke-linecap="butt" d="m214.76501 -122.30261l48.0 0l0 24.0l-48.0 0z" fill-rule="evenodd"/><path fill="#ffffff" d="m212.98549 -180.4128l0 0c0 -1.4901733 1.2080383 -2.6982117 2.6982117 -2.6982117l35.894913 0c0.7156067 0 1.4019165 0.28427124 1.9079285 0.7902832c0.50601196 0.50601196 0.7902832 1.1923218 0.7902832 1.9079285l0 10.7925415c0 1.4901886 -1.2080383 2.698227 -2.6982117 2.698227l-35.894913 0l0 0c-1.4901733 0 -2.6982117 -1.2080383 -2.6982117 -2.698227z" fill-rule="evenodd"/><path stroke="#000000" stroke-width="1.0" stroke-linejoin="round" stroke-linecap="butt" d="m212.98549 -180.4128l0 0c0 -1.4901733 1.2080383 -2.6982117 2.6982117 -2.6982117l35.894913 0c0.7156067 0 1.4019165 0.28427124 1.9079285 0.7902832c0.50601196 0.50601196 0.7902832 1.1923218 0.7902832 1.9079285l0 10.7925415c0 1.4901886 -1.2080383 2.698227 -2.6982117 2.698227l-35.894913 0l0 0c-1.4901733 0 -2.6982117 -1.2080383 -2.6982117 -2.698227z" fill-rule="evenodd"/><path fill="#ffffff" d="m229.24796 -178.88525l0 0c0 -1.0350037 0.83903503 -1.874054 1.874054 -1.874054l19.18103 0c0.49702454 0 0.97369385 0.19744873 1.3251495 0.5489044c0.3514557 0.3514557 0.5489044 0.828125 0.5489044 1.3251495l0 7.495987c0 1.0350189 -0.8390503 1.874054 -1.874054 1.874054l-19.18103 0l0 0c-1.0350189 0 -1.874054 -0.83903503 -1.874054 -1.874054z" fill-rule="evenodd"/><path stroke="#999999" stroke-width="1.0" stroke-linejoin="round" stroke-linecap="butt" d="m229.24796 -178.88525l0 0c0 -1.0350037 0.83903503 -1.874054 1.874054 -1.874054l19.18103 0c0.49702454 0 0.97369385 0.19744873 1.3251495 0.5489044c0.3514557 0.3514557 0.5489044 0.828125 0.5489044 1.3251495l0 7.495987c0 1.0350189 -0.8390503 1.874054 -1.874054 1.874054l-19.18103 0l0 0c-1.0350189 0 -1.874054 -0.83903503 -1.874054 -1.874054z" fill-rule="evenodd"/><path fill="#000000" fill-opacity="0.0" d="m221.13094 -100.614716l0 0c-0.9579468 0 -1.7345123 -1.1112976 -1.7345123 -2.4821472l0 -14.71196l0 0c0 -1.3708496 0.77656555 -2.4821472 1.7345123 -2.4821472z" fill-rule="evenodd"/><path fill="#000000" fill-opacity="0.0" d="m221.13094 -100.614716l0 0c-0.9579468 0 -1.7345123 -1.1112976 -1.7345123 -2.4821472l0 -14.71196l0 0c0 -1.3708496 0.77656555 -2.4821472 1.7345123 -2.4821472" fill-rule="evenodd"/><path stroke="#000000" stroke-width="2.0" stroke-linejoin="round" stroke-linecap="butt" d="m221.13094 -100.614716l0 0c-0.9579468 0 -1.7345123 -1.1112976 -1.7345123 -2.4821472l0 -14.71196l0 0c0 -1.3708496 0.77656555 -2.4821472 1.7345123 -2.4821472" fill-rule="evenodd"/><path fill="#000000" fill-opacity="0.0" d="m257.37643 -100.614716l0 0c0.9579468 0 1.7344971 -1.1112976 1.7344971 -2.4821472l0 -14.71196l0 0c0 -1.3708496 -0.7765503 -2.4821472 -1.7344971 -2.4821472z" fill-rule="evenodd"/><path fill="#000000" fill-opacity="0.0" d="m257.37643 -100.614716l0 0c0.9579468 0 1.7344971 -1.1112976 1.7344971 -2.4821472l0 -14.71196l0 0c0 -1.3708496 -0.7765503 -2.4821472 -1.7344971 -2.4821472" fill-rule="evenodd"/><path stroke="#000000" stroke-width="2.0" stroke-linejoin="round" stroke-linecap="butt" d="m257.37643 -100.614716l0 0c0.9579468 0 1.7344971 -1.1112976 1.7344971 -2.4821472l0 -14.71196l0 0c0 -1.3708496 -0.7765503 -2.4821472 -1.7344971 -2.4821472" fill-rule="evenodd"/><path fill="#000000" fill-opacity="0.0" d="m237.06725 -104.199905l0 0c-0.9579468 0 -1.7345276 -1.1112976 -1.7345276 -2.4821548l0 -7.5415573l0 0c0 -1.3708496 0.7765808 -2.4821472 1.7345276 -2.4821472z" fill-rule="evenodd"/><path fill="#000000" fill-opacity="0.0" d="m237.06725 -104.199905l0 0c-0.9579468 0 -1.7345276 -1.1112976 -1.7345276 -2.4821548l0 -7.5415573l0 0c0 -1.3708496 0.7765808 -2.4821472 1.7345276 -2.4821472" fill-rule="evenodd"/><path stroke="#b7b7b7" stroke-width="2.0" stroke-linejoin="round" stroke-linecap="butt" d="m237.06725 -104.199905l0 0c-0.9579468 0 -1.7345276 -1.1112976 -1.7345276 -2.4821548l0 -7.5415573l0 0c0 -1.3708496 0.7765808 -2.4821472 1.7345276 -2.4821472" fill-rule="evenodd"/><path fill="#000000" fill-opacity="0.0" d="m253.74785 -104.199905l0 0c0.9579468 0 1.7345276 -1.1112976 1.7345276 -2.4821548l0 -7.5415573l0 0c0 -1.3708496 -0.7765808 -2.4821472 -1.7345276 -2.4821472z" fill-rule="evenodd"/><path fill="#000000" fill-opacity="0.0" d="m253.74785 -104.199905l0 0c0.9579468 0 1.7345276 -1.1112976 1.7345276 -2.4821548l0 -7.5415573l0 0c0 -1.3708496 -0.7765808 -2.4821472 -1.7345276 -2.4821472" fill-rule="evenodd"/><path stroke="#b7b7b7" stroke-width="2.0" stroke-linejoin="round" stroke-linecap="butt" d="m253.74785 -104.199905l0 0c0.9579468 0 1.7345276 -1.1112976 1.7345276 -2.4821548l0 -7.5415573l0 0c0 -1.3708496 -0.7765808 -2.4821472 -1.7345276 -2.4821472" fill-rule="evenodd"/><path fill="#ffffff" d="m214.76501 -146.30261l48.0 0l0 24.0l-48.0 0z" fill-rule="evenodd"/><path stroke="#000000" stroke-width="1.0" stroke-linejoin="round" stroke-linecap="butt" d="m214.76501 -146.30261l48.0 0l0 24.0l-48.0 0z" fill-rule="evenodd"/><path fill="#000000" fill-opacity="0.0" d="m225.83606 -136.7411l0 0c2.0608063 -2.8924103 5.8529663 -4.8937225 10.22493 -5.3962097c4.3719635 -0.5024872 8.807922 0.55311584 11.960846 2.846283l-9.811005 7.361618z" fill-rule="evenodd"/><path fill="#000000" fill-opacity="0.0" d="m225.83606 -136.7411l0 0c2.0608063 -2.8924103 5.8529663 -4.8937225 10.22493 -5.3962097c4.3719635 -0.5024872 8.807922 0.55311584 11.960846 2.846283" fill-rule="evenodd"/><path stroke="#000000" stroke-width="2.0" stroke-linejoin="round" stroke-linecap="butt" d="m225.83606 -136.7411l0 0c2.0608063 -2.8924103 5.852951 -4.8937225 10.22493 -5.3962097c1.0929871 -0.12562561 2.189972 -0.15385437 3.269928 -0.08973694l0.17897034 0.012573242" fill-rule="evenodd"/><path fill="#000000" stroke="#000000" stroke-width="2.0" stroke-linecap="butt" d="m238.7915 -140.12285l6.4650726 -0.11791992l-5.0283203 -4.065338z" fill-rule="evenodd"/><path fill="#ffffff" d="m247.93721 -135.06639l0 0c0 1.3220062 1.0716858 2.3937073 2.393692 2.3937073l0 0c0.6348572 0 1.2436981 -0.25219727 1.6926117 -0.7010956c0.44889832 -0.44891357 0.7010956 -1.0577545 0.7010956 -1.6926117l0 0c0 -1.3220062 -1.071701 -2.393692 -2.3937073 -2.393692l0 0c-1.3220062 0 -2.393692 1.0716858 -2.393692 2.393692z" fill-rule="evenodd"/><path stroke="#000000" stroke-width="2.0" stroke-linejoin="round" stroke-linecap="butt" d="m247.93721 -135.06639l0 0c0 1.3220062 1.0716858 2.3937073 2.393692 2.3937073l0 0c0.6348572 0 1.2436981 -0.25219727 1.6926117 -0.7010956c0.44889832 -0.44891357 0.7010956 -1.0577545 0.7010956 -1.6926117l0 0c0 -1.3220062 -1.071701 -2.393692 -2.3937073 -2.393692l0 0c-1.3220062 0 -2.393692 1.0716858 -2.393692 2.393692z" fill-rule="evenodd"/><path fill="#ffffff" d="m226.47847 -133.5243l0 0c0 -1.3220062 -1.071701 -2.393692 -2.3937073 -2.393692l0 0c-0.6348419 0 -1.2436981 0.252182 -1.6925964 0.7010956c-0.44891357 0.44889832 -0.70111084 1.0577545 -0.70111084 1.6925964l0 0c0 1.3220062 1.071701 2.3937073 2.3937073 2.3937073l0 0c1.3220062 0 2.3937073 -1.071701 2.3937073 -2.3937073z" fill-rule="evenodd"/><path stroke="#000000" stroke-width="2.0" stroke-linejoin="round" stroke-linecap="butt" d="m226.47847 -133.5243l0 0c0 -1.3220062 -1.071701 -2.393692 -2.3937073 -2.393692l0 0c-0.6348419 0 -1.2436981 0.252182 -1.6925964 0.7010956c-0.44891357 0.44889832 -0.70111084 1.0577545 -0.70111084 1.6925964l0 0c0 1.3220062 1.071701 2.3937073 2.3937073 2.3937073l0 0c1.3220062 0 2.3937073 -1.071701 2.3937073 -2.3937073z" fill-rule="evenodd"/><path fill="#000000" fill-opacity="0.0" d="m248.9606 -131.93022l0 0c-2.0608215 2.8924103 -5.8529663 4.893715 -10.22493 5.3962097c-4.3719635 0.5024872 -8.807922 -0.55311584 -11.960846 -2.846283l9.811005 -7.361618z" fill-rule="evenodd"/><path fill="#000000" fill-opacity="0.0" d="m248.9606 -131.93022l0 0c-2.0608215 2.8924103 -5.8529663 4.893715 -10.22493 5.3962097c-4.3719635 0.5024872 -8.807922 -0.55311584 -11.960846 -2.846283" fill-rule="evenodd"/><path stroke="#000000" stroke-width="2.0" stroke-linejoin="round" stroke-linecap="butt" d="m248.9606 -131.93022l0 0c-2.0608063 2.8924103 -5.8529663 4.8937225 -10.22493 5.3962173c-1.0930023 0.12561798 -2.1899872 0.15385437 -3.2699432 0.08972931l-0.17893982 -0.012557983" fill-rule="evenodd"/><path fill="#000000" stroke="#000000" stroke-width="2.0" stroke-linecap="butt" d="m236.00516 -128.54846l-6.4650726 0.11790466l5.0283203 4.065346z" fill-rule="evenodd"/><path fill="#ffffff" d="m326.0931 -72.101006l48.0 0l0 -24.0l-48.0 0z" fill-rule="evenodd"/><path stroke="#000000" stroke-width="1.0" stroke-linejoin="round" stroke-linecap="butt" d="m326.0931 -72.101006l48.0 0l0 -24.0l-48.0 0z" fill-rule="evenodd"/><path fill="#ffffff" d="m326.0931 -120.101006l48.0 0l0 24.0l-48.0 0z" fill-rule="evenodd"/><path stroke="#000000" stroke-width="1.0" stroke-linejoin="round" stroke-linecap="butt" d="m326.0931 -120.101006l48.0 0l0 24.0l-48.0 0z" fill-rule="evenodd"/><path fill="#000000" fill-opacity="0.0" d="m350.49374 -115.197586l15.114227 6.7255936" fill-rule="evenodd"/><path stroke="#000000" stroke-width="1.0" stroke-linejoin="round" stroke-linecap="butt" d="m350.4937 -115.197586l9.632477 4.286293" fill-rule="evenodd"/><path fill="#000000" stroke="#000000" stroke-width="1.0" stroke-linecap="butt" d="m359.4547 -109.40222l4.817627 0.33589935l-3.4746094 -3.3540344z" fill-rule="evenodd"/><path fill="#000000" fill-opacity="0.0" d="m350.09097 -115.86257l0 16.068047" fill-rule="evenodd"/><path stroke="#000000" stroke-width="1.0" stroke-linejoin="round" stroke-linecap="butt" d="m350.09097 -115.86257l0 10.068047" fill-rule="evenodd"/><path fill="#000000" stroke="#000000" stroke-width="1.0" stroke-linecap="butt" d="m348.43924 -105.794525l1.6517334 4.5380936l1.6517334 -4.5380936z" fill-rule="evenodd"/><path fill="#000000" fill-opacity="0.0" d="m349.69247 -115.197586l-15.114258 6.7255936" fill-rule="evenodd"/><path stroke="#000000" stroke-width="1.0" stroke-linejoin="round" stroke-linecap="butt" d="m349.69247 -115.197586l-9.632477 4.286293" fill-rule="evenodd"/><path fill="#000000" stroke="#000000" stroke-width="1.0" stroke-linecap="butt" d="m339.3885 -112.420364l-3.47464 3.3540344l4.8176575 -0.33589172z" fill-rule="evenodd"/><path fill="#000000" d="m348.9993 -115.33138l0 0c0 -0.5943146 0.481781 -1.0760956 1.0760803 -1.0760956l0 0c0.2854004 0 0.55911255 0.1133728 0.7609253 0.31517792c0.20181274 0.20180511 0.31518555 0.47551727 0.31518555 0.76091766l0 0c0 0.59430695 -0.481781 1.0760956 -1.0761108 1.0760956l0 0c-0.5942993 0 -1.0760803 -0.48178864 -1.0760803 -1.0760956z" fill-rule="evenodd"/><path stroke="#000000" stroke-width="1.0" stroke-linejoin="round" stroke-linecap="butt" d="m348.9993 -115.33138l0 0c0 -0.5943146 0.481781 -1.0760956 1.0760803 -1.0760956l0 0c0.2854004 0 0.55911255 0.1133728 0.7609253 0.31517792c0.20181274 0.20180511 0.31518555 0.47551727 0.31518555 0.76091766l0 0c0 0.59430695 -0.481781 1.0760956 -1.0761108 1.0760956l0 0c-0.5942993 0 -1.0760803 -0.48178864 -1.0760803 -1.0760956z" fill-rule="evenodd"/><path fill="#ffffff" d="m326.0931 -144.101l48.0 0l0 23.999992l-48.0 0z" fill-rule="evenodd"/><path stroke="#000000" stroke-width="1.0" stroke-linejoin="round" stroke-linecap="butt" d="m326.0931 -144.101l48.0 0l0 23.999992l-48.0 0z" fill-rule="evenodd"/><path fill="#000000" fill-opacity="0.0" d="m332.459 -122.41311l0 0c-0.9579468 0 -1.7344971 -1.11129 -1.7344971 -2.4821472l0 -14.711952l0 0c0 -1.3708496 0.7765503 -2.4821472 1.7344971 -2.4821472z" fill-rule="evenodd"/><path fill="#000000" fill-opacity="0.0" d="m332.459 -122.41311l0 0c-0.9579468 0 -1.7344971 -1.11129 -1.7344971 -2.4821472l0 -14.711952l0 0c0 -1.3708496 0.7765503 -2.4821472 1.7344971 -2.4821472" fill-rule="evenodd"/><path stroke="#000000" stroke-width="1.0" stroke-linejoin="round" stroke-linecap="butt" d="m332.459 -122.41311l0 0c-0.9579468 0 -1.7344971 -1.11129 -1.7344971 -2.4821472l0 -14.711952l0 0c0 -1.3708496 0.7765503 -2.4821472 1.7344971 -2.4821472" fill-rule="evenodd"/><path fill="#000000" fill-opacity="0.0" d="m368.7045 -122.41311l0 0c0.9579468 0 1.7345276 -1.11129 1.7345276 -2.4821472l0 -14.711952l0 0c0 -1.3708496 -0.7765808 -2.4821472 -1.7345276 -2.4821472z" fill-rule="evenodd"/><path fill="#000000" fill-opacity="0.0" d="m368.7045 -122.41311l0 0c0.9579468 0 1.7345276 -1.11129 1.7345276 -2.4821472l0 -14.711952l0 0c0 -1.3708496 -0.7765808 -2.4821472 -1.7345276 -2.4821472" fill-rule="evenodd"/><path stroke="#000000" stroke-width="1.0" stroke-linejoin="round" stroke-linecap="butt" d="m368.7045 -122.41311l0 0c0.9579468 0 1.7345276 -1.11129 1.7345276 -2.4821472l0 -14.711952l0 0c0 -1.3708496 -0.7765808 -2.4821472 -1.7345276 -2.4821472" fill-rule="evenodd"/><path fill="#000000" fill-opacity="0.0" d="m348.39532 -125.9983l0 0c-0.9579468 0 -1.7345276 -1.1112976 -1.7345276 -2.4821548l0 -7.5415497l0 0c0 -1.3708496 0.7765808 -2.4821472 1.7345276 -2.4821472z" fill-rule="evenodd"/><path fill="#000000" fill-opacity="0.0" d="m348.39532 -125.9983l0 0c-0.9579468 0 -1.7345276 -1.1112976 -1.7345276 -2.4821548l0 -7.5415497l0 0c0 -1.3708496 0.7765808 -2.4821472 1.7345276 -2.4821472" fill-rule="evenodd"/><path stroke="#b7b7b7" stroke-width="1.0" stroke-linejoin="round" stroke-linecap="butt" d="m348.39532 -125.9983l0 0c-0.9579468 0 -1.7345276 -1.1112976 -1.7345276 -2.4821548l0 -7.5415497l0 0c0 -1.3708496 0.7765808 -2.4821472 1.7345276 -2.4821472" fill-rule="evenodd"/><path fill="#000000" fill-opacity="0.0" d="m365.07593 -125.9983l0 0c0.9579468 0 1.7345276 -1.1112976 1.7345276 -2.4821548l0 -7.5415497l0 0c0 -1.3708496 -0.7765808 -2.4821472 -1.7345276 -2.4821472z" fill-rule="evenodd"/><path fill="#000000" fill-opacity="0.0" d="m365.07593 -125.9983l0 0c0.9579468 0 1.7345276 -1.1112976 1.7345276 -2.4821548l0 -7.5415497l0 0c0 -1.3708496 -0.7765808 -2.4821472 -1.7345276 -2.4821472" fill-rule="evenodd"/><path stroke="#b7b7b7" stroke-width="1.0" stroke-linejoin="round" stroke-linecap="butt" d="m365.07593 -125.9983l0 0c0.9579468 0 1.7345276 -1.1112976 1.7345276 -2.4821548l0 -7.5415497l0 0c0 -1.3708496 -0.7765808 -2.4821472 -1.7345276 -2.4821472" fill-rule="evenodd"/><path fill="#ffffff" d="m326.0931 -168.101l48.0 0l0 24.0l-48.0 0z" fill-rule="evenodd"/><path stroke="#000000" stroke-width="1.0" stroke-linejoin="round" stroke-linecap="butt" d="m326.0931 -168.101l48.0 0l0 24.0l-48.0 0z" fill-rule="evenodd"/><path fill="#000000" fill-opacity="0.0" d="m337.16415 -158.5395l0 0c2.060791 -2.8924103 5.852936 -4.8937073 10.224915 -5.3962097c4.3719482 -0.5024872 8.807922 0.5531311 11.960846 2.846283l-9.811005 7.361618z" fill-rule="evenodd"/><path fill="#000000" fill-opacity="0.0" d="m337.16415 -158.5395l0 0c2.060791 -2.8924103 5.852936 -4.8937073 10.224915 -5.3962097c4.3719482 -0.5024872 8.807922 0.5531311 11.960846 2.846283" fill-rule="evenodd"/><path stroke="#000000" stroke-width="1.0" stroke-linejoin="round" stroke-linecap="butt" d="m337.16415 -158.5395l0 0c2.060791 -2.8924103 5.852936 -4.8937073 10.224915 -5.3961945c2.1859741 -0.25125122 4.38797 -0.112976074 6.4375305 0.37477112c0.51242065 0.12193298 1.0153198 0.2657013 1.5060425 0.43069458l0.005645752 0.0019683838" fill-rule="evenodd"/><path fill="#000000" stroke="#000000" stroke-width="1.0" stroke-linecap="butt" d="m354.83728 -162.14249l3.209381 0.39071655l-2.2073975 -2.362259z" fill-rule="evenodd"/><path fill="#ffffff" d="m359.2653 -156.86478l0 0c0 1.3220062 1.0716858 2.393692 2.3937073 2.393692l0 0c0.6348572 0 1.2436829 -0.252182 1.6925964 -0.7010956c0.44891357 -0.44889832 0.70111084 -1.0577545 0.70111084 -1.6925964l0 0c0 -1.3220062 -1.0717163 -2.3937073 -2.3937073 -2.3937073l0 0c-1.3220215 0 -2.3937073 1.071701 -2.3937073 2.3937073z" fill-rule="evenodd"/><path stroke="#000000" stroke-width="1.0" stroke-linejoin="round" stroke-linecap="butt" d="m359.2653 -156.86478l0 0c0 1.3220062 1.0716858 2.393692 2.3937073 2.393692l0 0c0.6348572 0 1.2436829 -0.252182 1.6925964 -0.7010956c0.44891357 -0.44889832 0.70111084 -1.0577545 0.70111084 -1.6925964l0 0c0 -1.3220062 -1.0717163 -2.3937073 -2.3937073 -2.3937073l0 0c-1.3220215 0 -2.3937073 1.071701 -2.3937073 2.3937073z" fill-rule="evenodd"/><path fill="#ffffff" d="m337.80655 -155.3227l0 0c0 -1.3220062 -1.0716858 -2.3937073 -2.3937073 -2.3937073l0 0c-0.6348572 0 -1.2436829 0.25219727 -1.6925964 0.7010956c-0.44891357 0.44891357 -0.70111084 1.0577545 -0.70111084 1.6926117l0 0c0 1.3220062 1.0717163 2.393692 2.3937073 2.393692l0 0c1.3220215 0 2.3937073 -1.0716858 2.3937073 -2.393692z" fill-rule="evenodd"/><path stroke="#000000" stroke-width="1.0" stroke-linejoin="round" stroke-linecap="butt" d="m337.80655 -155.3227l0 0c0 -1.3220062 -1.0716858 -2.3937073 -2.3937073 -2.3937073l0 0c-0.6348572 0 -1.2436829 0.25219727 -1.6925964 0.7010956c-0.44891357 0.44891357 -0.70111084 1.0577545 -0.70111084 1.6926117l0 0c0 1.3220062 1.0717163 2.393692 2.3937073 2.393692l0 0c1.3220215 0 2.3937073 -1.0716858 2.3937073 -2.393692z" fill-rule="evenodd"/><path fill="#000000" fill-opacity="0.0" d="m360.2887 -153.7286l0 0c-2.0608215 2.8924103 -5.8529663 4.8937073 -10.224945 5.3962097c-4.3719482 0.5024872 -8.807922 -0.5531311 -11.960846 -2.846283l9.811005 -7.3616333z" fill-rule="evenodd"/><path fill="#000000" fill-opacity="0.0" d="m360.2887 -153.7286l0 0c-2.0608215 2.8924103 -5.8529663 4.8937073 -10.224945 5.3962097c-4.3719482 0.5024872 -8.807922 -0.5531311 -11.960846 -2.846283" fill-rule="evenodd"/><path stroke="#000000" stroke-width="1.0" stroke-linejoin="round" stroke-linecap="butt" d="m360.28867 -153.7286l0 0c-2.0608215 2.8924103 -5.852936 4.8937225 -10.224884 5.3962097c-2.1860046 0.25123596 -4.38797 0.112960815 -6.437561 -0.37477112c-0.51242065 -0.12194824 -1.0152893 -0.26571655 -1.506012 -0.43070984l-0.0056762695 -0.0019836426" fill-rule="evenodd"/><path fill="#000000" stroke="#000000" stroke-width="1.0" stroke-linecap="butt" d="m342.61554 -150.12563l-3.209381 -0.39071655l2.207367 2.362259z" fill-rule="evenodd"/><path fill="#ffffff" d="m374.0931 -120.101006l48.0 0l0 24.0l-48.0 0z" fill-rule="evenodd"/><path stroke="#000000" stroke-width="1.0" stroke-linejoin="round" stroke-linecap="butt" d="m374.0931 -120.101006l48.0 0l0 24.0l-48.0 0z" fill-rule="evenodd"/><path fill="#000000" fill-opacity="0.0" d="m398.49374 -101.00442l15.114227 -6.7255936" fill-rule="evenodd"/><path stroke="#000000" stroke-width="1.0" stroke-linejoin="round" stroke-linecap="butt" d="m398.4937 -101.00442l9.632477 -4.286293" fill-rule="evenodd"/><path fill="#000000" stroke="#000000" stroke-width="1.0" stroke-linecap="butt" d="m408.79773 -103.78164l3.4746094 -3.3540344l-4.817627 0.33589172z" fill-rule="evenodd"/><path fill="#000000" fill-opacity="0.0" d="m398.09097 -100.33943l0 -16.068047" fill-rule="evenodd"/><path stroke="#000000" stroke-width="1.0" stroke-linejoin="round" stroke-linecap="butt" d="m398.09097 -100.33943l0 -10.068047" fill-rule="evenodd"/><path fill="#000000" stroke="#000000" stroke-width="1.0" stroke-linecap="butt" d="m399.7427 -110.40748l-1.6517334 -4.538101l-1.6517334 4.538101z" fill-rule="evenodd"/><path fill="#000000" fill-opacity="0.0" d="m397.69247 -101.00442l-15.114258 -6.7255936" fill-rule="evenodd"/><path stroke="#000000" stroke-width="1.0" stroke-linejoin="round" stroke-linecap="butt" d="m397.69247 -101.00442l-9.632477 -4.2862854" fill-rule="evenodd"/><path fill="#000000" stroke="#000000" stroke-width="1.0" stroke-linecap="butt" d="m388.73154 -106.799774l-4.8176575 -0.33589935l3.47464 3.3540344z" fill-rule="evenodd"/><path fill="#000000" d="m396.9993 -100.87062l0 0c0 0.5943146 0.481781 1.0760956 1.0760803 1.0760956l0 0c0.2854004 0 0.55911255 -0.1133728 0.7609253 -0.31517792c0.20181274 -0.20181274 0.31518555 -0.47551727 0.31518555 -0.76091766l0 0c0 -0.59430695 -0.481781 -1.0760956 -1.0761108 -1.0760956l0 0c-0.5942993 0 -1.0760803 0.48178864 -1.0760803 1.0760956z" fill-rule="evenodd"/><path stroke="#000000" stroke-width="1.0" stroke-linejoin="round" stroke-linecap="butt" d="m396.9993 -100.87062l0 0c0 0.5943146 0.481781 1.0760956 1.0760803 1.0760956l0 0c0.2854004 0 0.55911255 -0.1133728 0.7609253 -0.31517792c0.20181274 -0.20181274 0.31518555 -0.47551727 0.31518555 -0.76091766l0 0c0 -0.59430695 -0.481781 -1.0760956 -1.0761108 -1.0760956l0 0c-0.5942993 0 -1.0760803 0.48178864 -1.0760803 1.0760956z" fill-rule="evenodd"/><path fill="#000000" fill-opacity="0.0" d="m350.49374 -91.197586l15.114227 6.7255936" fill-rule="evenodd"/><path stroke="#000000" stroke-width="1.0" stroke-linejoin="round" stroke-linecap="butt" d="m355.97552 -88.75829l9.632446 4.2863007" fill-rule="evenodd"/><path fill="#000000" stroke="#000000" stroke-width="1.0" stroke-linecap="butt" d="m356.647 -90.267365l-4.817627 -0.33589172l3.4746094 3.3540344z" fill-rule="evenodd"/><path fill="#000000" fill-opacity="0.0" d="m350.09097 -91.86257l0 16.068047" fill-rule="evenodd"/><path stroke="#000000" stroke-width="1.0" stroke-linejoin="round" stroke-linecap="butt" d="m350.09097 -85.86257l0 10.068047" fill-rule="evenodd"/><path fill="#000000" stroke="#000000" stroke-width="1.0" stroke-linecap="butt" d="m351.7427 -85.86257l-1.6517334 -4.538101l-1.6517334 4.538101z" fill-rule="evenodd"/><path fill="#000000" fill-opacity="0.0" d="m349.69247 -91.197586l-15.114258 6.7255936" fill-rule="evenodd"/><path stroke="#000000" stroke-width="1.0" stroke-linejoin="round" stroke-linecap="butt" d="m344.21072 -88.758286l-9.632507 4.286293" fill-rule="evenodd"/><path fill="#000000" stroke="#000000" stroke-width="1.0" stroke-linecap="butt" d="m344.8822 -87.24922l3.4746094 -3.3540268l-4.817627 0.33589172z" fill-rule="evenodd"/><path fill="#000000" d="m348.9993 -91.33138l0 0c0 -0.5943146 0.481781 -1.0760956 1.0760803 -1.0760956l0 0c0.2854004 0 0.55911255 0.1133728 0.7609253 0.31517792c0.20181274 0.20180511 0.31518555 0.47551727 0.31518555 0.76091766l0 0c0 0.59430695 -0.481781 1.0760956 -1.0761108 1.0760956l0 0c-0.5942993 0 -1.0760803 -0.48178864 -1.0760803 -1.0760956z" fill-rule="evenodd"/><path stroke="#000000" stroke-width="1.0" stroke-linejoin="round" stroke-linecap="butt" d="m348.9993 -91.33138l0 0c0 -0.5943146 0.481781 -1.0760956 1.0760803 -1.0760956l0 0c0.2854004 0 0.55911255 0.1133728 0.7609253 0.31517792c0.20181274 0.20180511 0.31518555 0.47551727 0.31518555 0.76091766l0 0c0 0.59430695 -0.481781 1.0760956 -1.0761108 1.0760956l0 0c-0.5942993 0 -1.0760803 -0.48178864 -1.0760803 -1.0760956z" fill-rule="evenodd"/><path fill="#ffffff" d="m374.0931 -72.101006l48.0 0l0 -24.0l-48.0 0z" fill-rule="evenodd"/><path stroke="#000000" stroke-width="1.0" stroke-linejoin="round" stroke-linecap="butt" d="m374.0931 -72.101006l48.0 0l0 -24.0l-48.0 0z" fill-rule="evenodd"/><path fill="#000000" fill-opacity="0.0" d="m398.49374 -77.00442l15.114227 -6.7255936" fill-rule="evenodd"/><path stroke="#000000" stroke-width="1.0" stroke-linejoin="round" stroke-linecap="butt" d="m403.97552 -79.44372l9.632446 -4.286293" fill-rule="evenodd"/><path fill="#000000" stroke="#000000" stroke-width="1.0" stroke-linecap="butt" d="m403.304 -80.95279l-3.4746094 3.3540344l4.817627 -0.33589172z" fill-rule="evenodd"/><path fill="#000000" fill-opacity="0.0" d="m398.09097 -76.33943l0 -16.068047" fill-rule="evenodd"/><path stroke="#000000" stroke-width="1.0" stroke-linejoin="round" stroke-linecap="butt" d="m398.09097 -82.33943l0 -10.068047" fill-rule="evenodd"/><path fill="#000000" stroke="#000000" stroke-width="1.0" stroke-linecap="butt" d="m396.43924 -82.33943l1.6517334 4.5380936l1.6517334 -4.5380936z" fill-rule="evenodd"/><path fill="#000000" fill-opacity="0.0" d="m397.69247 -77.00442l-15.114258 -6.7255936" fill-rule="evenodd"/><path stroke="#000000" stroke-width="1.0" stroke-linejoin="round" stroke-linecap="butt" d="m392.21072 -79.443726l-9.632477 -4.2862854" fill-rule="evenodd"/><path fill="#000000" stroke="#000000" stroke-width="1.0" stroke-linecap="butt" d="m391.53918 -77.934654l4.8176575 0.33589935l-3.47464 -3.3540344z" fill-rule="evenodd"/><path fill="#000000" d="m396.9993 -76.87062l0 0c0 0.5943146 0.481781 1.0760956 1.0760803 1.0760956l0 0c0.2854004 0 0.55911255 -0.1133728 0.7609253 -0.31517792c0.20181274 -0.20181274 0.31518555 -0.47551727 0.31518555 -0.76091766l0 0c0 -0.59430695 -0.481781 -1.0760956 -1.0761108 -1.0760956l0 0c-0.5942993 0 -1.0760803 0.48178864 -1.0760803 1.0760956z" fill-rule="evenodd"/><path stroke="#000000" stroke-width="1.0" stroke-linejoin="round" stroke-linecap="butt" d="m396.9993 -76.87062l0 0c0 0.5943146 0.481781 1.0760956 1.0760803 1.0760956l0 0c0.2854004 0 0.55911255 -0.1133728 0.7609253 -0.31517792c0.20181274 -0.20181274 0.31518555 -0.47551727 0.31518555 -0.76091766l0 0c0 -0.59430695 -0.481781 -1.0760956 -1.0761108 -1.0760956l0 0c-0.5942993 0 -1.0760803 0.48178864 -1.0760803 1.0760956z" fill-rule="evenodd"/><path fill="#ffffff" d="m326.0931 -72.101006l48.0 0l0 24.000004l-48.0 0z" fill-rule="evenodd"/><path stroke="#000000" stroke-width="1.0" stroke-linejoin="round" stroke-linecap="butt" d="m326.0931 -72.101006l48.0 0l0 24.000004l-48.0 0z" fill-rule="evenodd"/><path fill="#000000" fill-opacity="0.0" d="m337.16415 -62.539505l0 0c2.060791 -2.8924026 5.852936 -4.8937073 10.224915 -5.396202c4.3719482 -0.5024948 8.807922 0.55311584 11.960846 2.846283l-9.811005 7.361618z" fill-rule="evenodd"/><path fill="#000000" fill-opacity="0.0" d="m337.16415 -62.539505l0 0c2.060791 -2.8924026 5.852936 -4.8937073 10.224915 -5.396202c4.3719482 -0.5024948 8.807922 0.55311584 11.960846 2.846283" fill-rule="evenodd"/><path stroke="#000000" stroke-width="1.0" stroke-linejoin="round" stroke-linecap="butt" d="m337.16415 -62.539505l0 0c2.060791 -2.8924026 5.852936 -4.8937073 10.224915 -5.396202c2.1859741 -0.2512436 4.38797 -0.112960815 6.4375305 0.37477112c0.51242065 0.12193298 1.0153198 0.26570892 1.5060425 0.4307022l0.005645752 0.0019760132" fill-rule="evenodd"/><path fill="#000000" stroke="#000000" stroke-width="1.0" stroke-linecap="butt" d="m354.83728 -66.142494l3.209381 0.39071655l-2.2073975 -2.3622513z" fill-rule="evenodd"/><path fill="#ffffff" d="m359.2653 -60.86478l0 0c0 1.3220024 1.0716858 2.3936996 2.3937073 2.3936996l0 0c0.6348572 0 1.2436829 -0.25219345 1.6925964 -0.7010994c0.44891357 -0.44890594 0.70111084 -1.0577507 0.70111084 -1.6926003l0 0c0 -1.3220062 -1.0717163 -2.3937035 -2.3937073 -2.3937035l0 0c-1.3220215 0 -2.3937073 1.0716972 -2.3937073 2.3937035z" fill-rule="evenodd"/><path stroke="#000000" stroke-width="1.0" stroke-linejoin="round" stroke-linecap="butt" d="m359.2653 -60.86478l0 0c0 1.3220024 1.0716858 2.3936996 2.3937073 2.3936996l0 0c0.6348572 0 1.2436829 -0.25219345 1.6925964 -0.7010994c0.44891357 -0.44890594 0.70111084 -1.0577507 0.70111084 -1.6926003l0 0c0 -1.3220062 -1.0717163 -2.3937035 -2.3937073 -2.3937035l0 0c-1.3220215 0 -2.3937073 1.0716972 -2.3937073 2.3937035z" fill-rule="evenodd"/><path fill="#000000" d="m337.80655 -59.322697l0 0c0 -1.3220024 -1.0716858 -2.3936996 -2.3937073 -2.3936996l0 0c-0.6348572 0 -1.2436829 0.25219345 -1.6925964 0.7010994c-0.44891357 0.44890594 -0.70111084 1.0577507 -0.70111084 1.6926003l0 0c0 1.3220062 1.0717163 2.3937035 2.3937073 2.3937035l0 0c1.3220215 0 2.3937073 -1.0716972 2.3937073 -2.3937035z" fill-rule="evenodd"/><path stroke="#000000" stroke-width="1.0" stroke-linejoin="round" stroke-linecap="butt" d="m337.80655 -59.322697l0 0c0 -1.3220024 -1.0716858 -2.3936996 -2.3937073 -2.3936996l0 0c-0.6348572 0 -1.2436829 0.25219345 -1.6925964 0.7010994c-0.44891357 0.44890594 -0.70111084 1.0577507 -0.70111084 1.6926003l0 0c0 1.3220062 1.0717163 2.3937035 2.3937073 2.3937035l0 0c1.3220215 0 2.3937073 -1.0716972 2.3937073 -2.3937035z" fill-rule="evenodd"/><path fill="#000000" fill-opacity="0.0" d="m95.9255 33.285694l46.173836 20.81858" fill-rule="evenodd"/><path stroke="#0000ff" stroke-width="4.0" stroke-linejoin="round" stroke-linecap="butt" d="m95.92549 33.285694l24.294891 10.95393" fill-rule="evenodd"/><path fill="#0000ff" stroke="#0000ff" stroke-width="4.0" stroke-linecap="butt" d="m117.50475 50.262657l19.263771 1.4380913l-13.832512 -13.484154z" fill-rule="evenodd"/><path fill="#000000" fill-opacity="0.0" d="m94.69507 31.227272l0 49.737488" fill-rule="evenodd"/><path stroke="#0000ff" stroke-width="4.0" stroke-linejoin="round" stroke-linecap="butt" d="m94.69507 31.227272l0 25.737484" fill-rule="evenodd"/><path fill="#0000ff" stroke="#0000ff" stroke-width="4.0" stroke-linecap="butt" d="m88.088135 56.964756l6.6069336 18.152393l6.606926 -18.152393z" fill-rule="evenodd"/><path fill="#000000" fill-opacity="0.0" d="m93.47762 33.285694l-46.17385 20.81858" fill-rule="evenodd"/><path stroke="#0000ff" stroke-width="4.0" stroke-linejoin="round" stroke-linecap="butt" d="m93.477615 33.285694l-24.294891 10.95393" fill-rule="evenodd"/><path fill="#0000ff" stroke="#0000ff" stroke-width="4.0" stroke-linecap="butt" d="m66.4671 38.216595l-13.832512 13.484154l19.263763 -1.4380913z" fill-rule="evenodd"/><path fill="#0000ff" d="m91.36 32.871525l0 0c0 -1.8396473 1.4718475 -3.3309746 3.2874603 -3.3309746l0 0c0.8718872 0 1.7080612 0.3509407 2.324585 0.97562027c0.6165161 0.62467766 0.96286774 1.4719238 0.96286774 2.3553543l0 0c0 1.8396454 -1.4718399 3.3309708 -3.2874527 3.3309708l0 0c-1.8156128 0 -3.2874603 -1.4913254 -3.2874603 -3.3309708z" fill-rule="evenodd"/><path stroke="#0000ff" stroke-width="8.0" stroke-linejoin="round" stroke-linecap="butt" d="m91.36 32.871525l0 0c0 -1.8396473 1.4718475 -3.3309746 3.2874603 -3.3309746l0 0c0.8718872 0 1.7080612 0.3509407 2.324585 0.97562027c0.6165161 0.62467766 0.96286774 1.4719238 0.96286774 2.3553543l0 0c0 1.8396454 -1.4718399 3.3309708 -3.2874527 3.3309708l0 0c-1.8156128 0 -3.2874603 -1.4913254 -3.2874603 -3.3309708z" fill-rule="evenodd"/><path fill="#000000" fill-opacity="0.0" d="m23.0919 -3.528429l0 0c-3.8317966 0 -6.93808 -4.445185 -6.93808 -9.928599l0 -60.961872l0 0c0 -5.4834137 3.1062832 -9.928604 6.93808 -9.928604z" fill-rule="evenodd"/><path fill="#000000" fill-opacity="0.0" d="m23.0919 -3.528429l0 0c-3.8317966 0 -6.93808 -4.445185 -6.93808 -9.928599l0 -60.961872l0 0c0 -5.4834137 3.1062832 -9.928604 6.93808 -9.928604" fill-rule="evenodd"/><path stroke="#0000ff" stroke-width="4.0" stroke-linejoin="round" stroke-linecap="butt" d="m23.0919 -3.528429l0 0c-3.8317966 0 -6.93808 -4.445185 -6.93808 -9.928599l0 -60.961872l0 0c0 -5.4834137 3.1062832 -9.928604 6.93808 -9.928604" fill-rule="evenodd"/><path fill="#000000" fill-opacity="0.0" d="m168.07382 -3.528429l0 0c3.831787 0 6.93808 -4.445185 6.93808 -9.928599l0 -60.961872l0 0c0 -5.4834137 -3.1062927 -9.928604 -6.93808 -9.928604z" fill-rule="evenodd"/><path fill="#000000" fill-opacity="0.0" d="m168.07382 -3.528429l0 0c3.831787 0 6.93808 -4.445185 6.93808 -9.928599l0 -60.961872l0 0c0 -5.4834137 -3.1062927 -9.928604 -6.93808 -9.928604" fill-rule="evenodd"/><path stroke="#0000ff" stroke-width="4.0" stroke-linejoin="round" stroke-linecap="butt" d="m168.07382 -3.528429l0 0c3.831787 0 6.93808 -4.445185 6.93808 -9.928599l0 -60.961872l0 0c0 -5.4834137 -3.1062927 -9.928604 -6.93808 -9.928604" fill-rule="evenodd"/><path fill="#000000" fill-opacity="0.0" d="m86.83711 -18.254396l0 0c-3.8317947 0 -6.93808 -4.4451847 -6.93808 -9.928598l0 -31.509872l0 0c0 -5.4834175 3.106285 -9.9286 6.93808 -9.9286z" fill-rule="evenodd"/><path fill="#000000" fill-opacity="0.0" d="m86.83711 -18.254396l0 0c-3.8317947 0 -6.93808 -4.4451847 -6.93808 -9.928598l0 -31.509872l0 0c0 -5.4834175 3.106285 -9.9286 6.93808 -9.9286" fill-rule="evenodd"/><path stroke="#b7b7b7" stroke-width="4.0" stroke-linejoin="round" stroke-linecap="butt" d="m86.83711 -18.254396l0 0c-3.8317947 0 -6.93808 -4.4451847 -6.93808 -9.928598l0 -31.509872l0 0c0 -5.4834175 3.106285 -9.9286 6.93808 -9.9286" fill-rule="evenodd"/><path fill="#000000" fill-opacity="0.0" d="m153.55954 -18.254396l0 0c3.831787 0 6.93808 -4.4451847 6.93808 -9.928598l0 -31.509872l0 0c0 -5.4834175 -3.1062927 -9.9286 -6.93808 -9.9286z" fill-rule="evenodd"/><path fill="#000000" fill-opacity="0.0" d="m153.55954 -18.254396l0 0c3.831787 0 6.93808 -4.4451847 6.93808 -9.928598l0 -31.509872l0 0c0 -5.4834175 -3.1062927 -9.9286 -6.93808 -9.9286" fill-rule="evenodd"/><path stroke="#b7b7b7" stroke-width="4.0" stroke-linejoin="round" stroke-linecap="butt" d="m153.55954 -18.254396l0 0c3.831787 0 6.93808 -4.4451847 6.93808 -9.928598l0 -31.509872l0 0c0 -5.4834175 -3.1062927 -9.9286 -6.93808 -9.9286" fill-rule="evenodd"/><path fill="#000000" fill-opacity="0.0" d="m-1.2984425 -199.18538l192.0 0l0 98.551186l-192.0 0z" fill-rule="evenodd"/><path stroke="#000000" stroke-width="4.0" stroke-linejoin="round" stroke-linecap="butt" d="m-1.2984425 -199.18538l192.0 0l0 98.551186l-192.0 0z" fill-rule="evenodd"/><path fill="#000000" fill-opacity="0.0" d="m42.708 -151.51024l0 0c8.181705 -12.10408 23.519386 -20.498856 41.243584 -22.573853c17.72419 -2.0750122 35.685455 2.4214172 48.298492 12.091019l-39.765274 29.837616z" fill-rule="evenodd"/><path fill="#000000" fill-opacity="0.0" d="m42.708 -151.51024l0 0c8.181705 -12.10408 23.519386 -20.498856 41.243584 -22.573853c17.72419 -2.0750122 35.685455 2.4214172 48.298492 12.091019" fill-rule="evenodd"/><path stroke="#0000ff" stroke-width="4.0" stroke-linejoin="round" stroke-linecap="butt" d="m42.708 -151.51024l0 0c8.181705 -12.10408 23.519386 -20.498856 41.243584 -22.573853c8.862099 -1.0375061 17.783455 -0.43214417 26.065926 1.6412811c2.0706253 0.5183563 4.1013107 1.1284637 6.0811615 1.8276062l0.29361725 0.105667114" fill-rule="evenodd"/><path fill="#0000ff" stroke="#0000ff" stroke-width="4.0" stroke-linecap="butt" d="m114.299545 -166.61282l12.798859 1.8530426l-8.613388 -9.646454z" fill-rule="evenodd"/><path fill="#ffffff" d="m131.39032 -145.02655l0 0c0 5.42717 4.286789 9.826767 9.574799 9.826767l0 0c2.5393982 0 4.9747925 -1.0353088 6.7704163 -2.878189c1.7956238 -1.8428802 2.8043823 -4.3423615 2.8043823 -6.948578l0 0c0 -5.427185 -4.2867737 -9.826767 -9.574799 -9.826767l0 0c-5.2880096 0 -9.574799 4.399582 -9.574799 9.826767z" fill-rule="evenodd"/><path stroke="#000000" stroke-width="4.0" stroke-linejoin="round" stroke-linecap="butt" d="m131.39032 -145.02655l0 0c0 5.42717 4.286789 9.826767 9.574799 9.826767l0 0c2.5393982 0 4.9747925 -1.0353088 6.7704163 -2.878189c1.7956238 -1.8428802 2.8043823 -4.3423615 2.8043823 -6.948578l0 0c0 -5.427185 -4.2867737 -9.826767 -9.574799 -9.826767l0 0c-5.2880096 0 -9.574799 4.399582 -9.574799 9.826767z" fill-rule="evenodd"/><path fill="#ffffff" d="m45.55535 -138.70331l0 0c0 -5.427185 -4.286785 -9.826767 -9.574802 -9.826767l0 0c-2.5393944 0 -4.974785 1.0353088 -6.7704086 2.878189c-1.7956238 1.8428802 -2.8043957 4.342346 -2.8043957 6.948578l0 0c0 5.42717 4.286787 9.826767 9.574804 9.826767l0 0c5.2880173 0 9.574802 -4.399597 9.574802 -9.826767z" fill-rule="evenodd"/><path stroke="#000000" stroke-width="4.0" stroke-linejoin="round" stroke-linecap="butt" d="m45.55535 -138.70331l0 0c0 -5.427185 -4.286785 -9.826767 -9.574802 -9.826767l0 0c-2.5393944 0 -4.974785 1.0353088 -6.7704086 2.878189c-1.7956238 1.8428802 -2.8043957 4.342346 -2.8043957 6.948578l0 0c0 5.42717 4.286787 9.826767 9.574804 9.826767l0 0c5.2880173 0 9.574802 -4.399597 9.574802 -9.826767z" fill-rule="evenodd"/><path fill="#000000" fill-opacity="0.0" d="m135.76161 -132.55084l0 0c-8.181709 12.10408 -23.519394 20.498863 -41.243584 22.57386c-17.724197 2.0750046 -35.685463 -2.4214172 -48.298504 -12.091026l39.765278 -29.837616z" fill-rule="evenodd"/><path fill="#000000" fill-opacity="0.0" d="m135.76161 -132.55084l0 0c-8.181709 12.10408 -23.519394 20.498863 -41.243584 22.57386c-17.724197 2.0750046 -35.685463 -2.4214172 -48.298504 -12.091026" fill-rule="evenodd"/><path stroke="#0000ff" stroke-width="4.0" stroke-linejoin="round" stroke-linecap="butt" d="m135.76161 -132.55084l0 0c-8.181717 12.104088 -23.519394 20.498863 -41.24359 22.57386c-8.862091 1.0374908 -17.783455 0.43214417 -26.065926 -1.6412811c-2.0706177 -0.51836395 -4.101303 -1.128479 -6.081154 -1.8276138l-0.29361725 -0.10567474" fill-rule="evenodd"/><path fill="#0000ff" stroke="#0000ff" stroke-width="4.0" stroke-linecap="butt" d="m64.17006 -117.44826l-12.798855 -1.8530273l8.613388 9.646446z" fill-rule="evenodd"/><path fill="#000000" fill-opacity="0.0" d="m42.708 242.81465l0 0c8.181705 -12.104095 23.519386 -20.49887 41.243584 -22.573868c17.72419 -2.074997 35.685455 2.4214172 48.298492 12.091034l-39.765274 29.837616z" fill-rule="evenodd"/><path fill="#000000" fill-opacity="0.0" d="m42.708 242.81465l0 0c8.181705 -12.104095 23.519386 -20.49887 41.243584 -22.573868c17.72419 -2.074997 35.685455 2.4214172 48.298492 12.091034" fill-rule="evenodd"/><path stroke="#0000ff" stroke-width="4.0" stroke-linejoin="round" stroke-linecap="butt" d="m42.708 242.81465l0 0c8.181705 -12.10408 23.519386 -20.49887 41.243584 -22.573883c8.862099 -1.0374756 17.783455 -0.4321289 26.065926 1.6413116c2.0706253 0.51834106 4.1013107 1.1284637 6.0811615 1.827591l0.29361725 0.10568237" fill-rule="evenodd"/><path fill="#0000ff" stroke="#0000ff" stroke-width="4.0" stroke-linecap="butt" d="m114.299545 227.71205l12.798859 1.8530426l-8.61338 -9.646454z" fill-rule="evenodd"/><path fill="#ffffff" d="m131.39032 249.29832l0 0c0 5.42717 4.286789 9.826767 9.574799 9.826767l0 0c2.5393982 0 4.9747925 -1.0353088 6.7704163 -2.8782043c1.7956238 -1.842865 2.8043823 -4.342346 2.8043823 -6.9485626l0 0c0 -5.42717 -4.2867737 -9.826767 -9.574799 -9.826767l0 0c-5.2880096 0 -9.574799 4.399597 -9.574799 9.826767z" fill-rule="evenodd"/><path stroke="#000000" stroke-width="4.0" stroke-linejoin="round" stroke-linecap="butt" d="m131.39032 249.29832l0 0c0 5.42717 4.286789 9.826767 9.574799 9.826767l0 0c2.5393982 0 4.9747925 -1.0353088 6.7704163 -2.8782043c1.7956238 -1.842865 2.8043823 -4.342346 2.8043823 -6.9485626l0 0c0 -5.42717 -4.2867737 -9.826767 -9.574799 -9.826767l0 0c-5.2880096 0 -9.574799 4.399597 -9.574799 9.826767z" fill-rule="evenodd"/><path fill="#000000" d="m45.55535 255.62157l0 0c0 -5.42717 -4.286785 -9.826767 -9.574802 -9.826767l0 0c-2.5393944 0 -4.974785 1.0353088 -6.7704086 2.878189c-1.7956238 1.8428802 -2.8043957 4.3423615 -2.8043957 6.948578l0 0c0 5.42717 4.286787 9.826767 9.574804 9.826767l0 0c5.2880173 0 9.574802 -4.399597 9.574802 -9.826767z" fill-rule="evenodd"/><path stroke="#000000" stroke-width="4.0" stroke-linejoin="round" stroke-linecap="butt" d="m45.55535 255.62157l0 0c0 -5.42717 -4.286785 -9.826767 -9.574802 -9.826767l0 0c-2.5393944 0 -4.974785 1.0353088 -6.7704086 2.878189c-1.7956238 1.8428802 -2.8043957 4.3423615 -2.8043957 6.948578l0 0c0 5.42717 4.286787 9.826767 9.574804 9.826767l0 0c5.2880173 0 9.574802 -4.399597 9.574802 -9.826767z" fill-rule="evenodd"/><path fill="#000000" fill-opacity="0.0" d="m98.37601 132.34055l46.173843 20.818588" fill-rule="evenodd"/><path stroke="#0000ff" stroke-width="4.0" stroke-linejoin="round" stroke-linecap="butt" d="m120.25496 142.2052l24.294891 10.953934" fill-rule="evenodd"/><path fill="#0000ff" stroke="#0000ff" stroke-width="4.0" stroke-linecap="butt" d="m122.97059 136.18217l-19.263771 -1.4380951l13.832512 13.484146z" fill-rule="evenodd"/><path fill="#000000" fill-opacity="0.0" d="m95.42951 134.86542l0 49.737488" fill-rule="evenodd"/><path stroke="#0000ff" stroke-width="4.0" stroke-linejoin="round" stroke-linecap="butt" d="m95.42951 158.86542l0 25.737473" fill-rule="evenodd"/><path fill="#0000ff" stroke="#0000ff" stroke-width="4.0" stroke-linecap="butt" d="m102.036446 158.86542l-6.6069336 -18.15239l-6.606926 18.15239z" fill-rule="evenodd"/><path fill="#000000" fill-opacity="0.0" d="m92.495995 132.34055l-46.173847 20.818588" fill-rule="evenodd"/><path stroke="#0000ff" stroke-width="4.0" stroke-linejoin="round" stroke-linecap="butt" d="m70.61704 142.2052l-24.294895 10.953934" fill-rule="evenodd"/><path fill="#0000ff" stroke="#0000ff" stroke-width="4.0" stroke-linecap="butt" d="m73.332664 148.22823l13.832512 -13.484146l-19.263763 1.4380951z" fill-rule="evenodd"/><path fill="#0000ff" d="m92.094444 131.49736l0 0c0 -1.8396454 1.4718475 -3.3309784 3.2874603 -3.3309784l0 0c0.8718872 0 1.7080612 0.35095215 2.324585 0.9756317c0.6165161 0.62467957 0.96286774 1.4719238 0.96286774 2.3553467l0 0c0 1.8396454 -1.4718399 3.3309784 -3.2874527 3.3309784l0 0c-1.8156128 0 -3.2874603 -1.491333 -3.2874603 -3.3309784z" fill-rule="evenodd"/><path stroke="#0000ff" stroke-width="4.0" stroke-linejoin="round" stroke-linecap="butt" d="m92.094444 131.49736l0 0c0 -1.8396454 1.4718475 -3.3309784 3.2874603 -3.3309784l0 0c0.8718872 0 1.7080612 0.35095215 2.324585 0.9756317c0.6165161 0.62467957 0.96286774 1.4719238 0.96286774 2.3553467l0 0c0 1.8396454 -1.4718399 3.3309784 -3.2874527 3.3309784l0 0c-1.8156128 0 -3.2874603 -1.491333 -3.2874603 -3.3309784z" fill-rule="evenodd"/><path fill="#000000" fill-opacity="0.0" d="m-46.6943 -54.825317l-47.54331 82.80315l-47.543304 -82.80315z" fill-rule="evenodd"/><path stroke="#000000" stroke-width="16.0" stroke-linejoin="round" stroke-linecap="butt" d="m-46.6943 -54.825317l-47.54331 82.80315l-47.543304 -82.80315z" fill-rule="evenodd"/><path fill="#ffffff" d="m96.353485 -227.75386c-6.1441956 4.5554047 -14.739853 3.7177734 -19.888954 -1.9381714c-5.1491013 -5.6559296 -5.1784363 -14.292267 -0.06787872 -19.983047c5.1105576 -5.690796 13.700325 -6.5868225 19.875328 -2.0732422z" fill-rule="evenodd"/><path stroke="#000000" stroke-width="3.0" stroke-linejoin="round" stroke-linecap="butt" d="m96.353485 -227.75386c-6.1441956 4.5554047 -14.739853 3.7177734 -19.888954 -1.9381714c-5.1491013 -5.6559296 -5.1784363 -14.292267 -0.06787872 -19.983047c5.1105576 -5.690796 13.700325 -6.5868225 19.875328 -2.0732422z" fill-rule="evenodd"/><path fill="#ffffff" d="m96.67958 -227.75386c6.1441956 4.5554047 14.739853 3.7177734 19.888954 -1.9381714c5.1491013 -5.6559296 5.1784363 -14.292267 0.06787872 -19.983047c-5.1105576 -5.690796 -13.700325 -6.5868225 -19.875328 -2.0732422z" fill-rule="evenodd"/><path stroke="#000000" stroke-width="3.0" stroke-linejoin="round" stroke-linecap="butt" d="m96.67958 -227.75386c6.1441956 4.5554047 14.739853 3.7177734 19.888954 -1.9381714c5.1491013 -5.6559296 5.1784363 -14.292267 0.06787872 -19.983047c-5.1105576 -5.690796 -13.700325 -6.5868225 -19.875328 -2.0732422z" fill-rule="evenodd"/><path fill="#cfe2f3" d="m196.94612 -238.29211l20.988953 -4.5071106l4.5071106 -20.988953l4.5071106 20.988953l20.988953 4.5071106l-20.988953 4.5071106l-4.5071106 20.988953l-4.5071106 -20.988953z" fill-rule="evenodd"/><path stroke="#000000" stroke-width="1.0" stroke-linejoin="round" stroke-linecap="butt" d="m196.94612 -238.29211l20.988953 -4.5071106l4.5071106 -20.988953l4.5071106 20.988953l20.988953 4.5071106l-20.988953 4.5071106l-4.5071106 20.988953l-4.5071106 -20.988953z" fill-rule="evenodd"/><path fill="#000000" fill-opacity="0.0" d="m22.992723 -240.65715l44.72441 0" fill-rule="evenodd"/><path stroke="#0000ff" stroke-width="4.0" stroke-linejoin="round" stroke-linecap="butt" d="m22.992723 -240.65715l20.724405 0" fill-rule="evenodd"/><path fill="#0000ff" stroke="#0000ff" stroke-width="4.0" stroke-linecap="butt" d="m43.717133 -234.05022l18.15239 -6.6069336l-18.15239 -6.6069336z" fill-rule="evenodd"/><path fill="#000000" fill-opacity="0.0" d="m169.5056 -240.65715l-44.72441 0" fill-rule="evenodd"/><path stroke="#0000ff" stroke-width="4.0" stroke-linejoin="round" stroke-linecap="butt" d="m169.5056 -240.65715l-20.724411 0" fill-rule="evenodd"/><path fill="#0000ff" stroke="#0000ff" stroke-width="4.0" stroke-linecap="butt" d="m148.78119 -247.26408l-18.15239 6.6069336l18.15239 6.6069336z" fill-rule="evenodd"/><path fill="#000000" fill-opacity="0.0" d="m-185.00728 -237.73283l44.72441 0" fill-rule="evenodd"/><path stroke="#0000ff" stroke-width="4.0" stroke-linejoin="round" stroke-linecap="butt" d="m-161.00728 -237.73283l20.724411 0" fill-rule="evenodd"/><path fill="#0000ff" stroke="#0000ff" stroke-width="4.0" stroke-linecap="butt" d="m-161.00728 -244.33977l-18.15239 6.6069336l18.15239 6.6069336z" fill-rule="evenodd"/><path fill="#000000" fill-opacity="0.0" d="m-22.494406 -237.73283l-44.724403 0" fill-rule="evenodd"/><path stroke="#0000ff" stroke-width="4.0" stroke-linejoin="round" stroke-linecap="butt" d="m-46.494404 -237.73283l-20.724415 0" fill-rule="evenodd"/><path fill="#0000ff" stroke="#0000ff" stroke-width="4.0" stroke-linecap="butt" d="m-46.494404 -231.1259l18.15239 -6.6069336l-18.15239 -6.6069336z" fill-rule="evenodd"/><path fill="#ffffff" d="m-127.646515 -224.82954c-6.1441956 4.5554047 -14.739853 3.7177734 -19.888962 -1.9381714c-5.1490936 -5.6559296 -5.1784363 -14.292267 -0.067871094 -19.983047c5.11055 -5.690796 13.700333 -6.5868073 19.875328 -2.0732422z" fill-rule="evenodd"/><path stroke="#000000" stroke-width="3.0" stroke-linejoin="round" stroke-linecap="butt" d="m-127.646515 -224.82954c-6.1441956 4.5554047 -14.739853 3.7177734 -19.888962 -1.9381714c-5.1490936 -5.6559296 -5.1784363 -14.292267 -0.067871094 -19.983047c5.11055 -5.690796 13.700333 -6.5868073 19.875328 -2.0732422z" fill-rule="evenodd"/><path fill="#ffffff" d="m-79.32042 -224.82954c6.1441956 4.5554047 14.739853 3.7177734 19.888954 -1.9381714c5.1491013 -5.6559296 5.1784363 -14.292267 0.06787872 -19.983047c-5.1105576 -5.690796 -13.700325 -6.5868073 -19.875328 -2.0732422z" fill-rule="evenodd"/><path stroke="#000000" stroke-width="3.0" stroke-linejoin="round" stroke-linecap="butt" d="m-79.32042 -224.82954c6.1441956 4.5554047 14.739853 3.7177734 19.888954 -1.9381714c5.1491013 -5.6559296 5.1784363 -14.292267 0.06787872 -19.983047c-5.1105576 -5.690796 -13.700325 -6.5868073 -19.875328 -2.0732422z" fill-rule="evenodd"/><path fill="#000000" fill-opacity="0.0" d="m-127.38449 -248.824l0.09449005 24.0" fill-rule="evenodd"/><path stroke="#ffffff" stroke-width="4.0" stroke-linejoin="round" stroke-linecap="butt" d="m-127.38449 -248.824l0.09449005 24.0" fill-rule="evenodd"/><path fill="#000000" fill-opacity="0.0" d="m-79.410675 -248.824l-0.09449005 24.0" fill-rule="evenodd"/><path stroke="#ffffff" stroke-width="4.0" stroke-linejoin="round" stroke-linecap="butt" d="m-79.410675 -248.824l-0.09449005 24.0" fill-rule="evenodd"/><path fill="#000000" fill-opacity="0.0" d="m-128.97252 -249.58345c4.224411 2.01268 16.820213 12.101486 25.346458 12.076111c8.526245 -0.025360107 21.509186 -10.190277 25.811028 -12.228348" fill-rule="evenodd"/><path stroke="#000000" stroke-width="3.0" stroke-linejoin="round" stroke-linecap="butt" d="m-128.97252 -249.58345c4.224411 2.01268 16.820213 12.101486 25.346458 12.076111c8.526245 -0.025360107 21.509186 -10.190277 25.811028 -12.228348" fill-rule="evenodd"/><path fill="#000000" fill-opacity="0.0" d="m-128.88853 -224.02966c4.1688614 -1.5380554 16.514008 -9.240158 25.01313 -9.228348c8.499123 0.0118255615 21.65136 7.749344 25.981628 9.299225" fill-rule="evenodd"/><path stroke="#000000" stroke-width="3.0" stroke-linejoin="round" stroke-linecap="butt" d="m-128.88853 -224.02966c4.1688614 -1.5380554 16.514008 -9.240158 25.01313 -9.228348c8.499123 0.0118255615 21.65136 7.749344 25.981628 9.299225" fill-rule="evenodd"/><path fill="#ffffff" d="m-103.646515 -323.75388c-6.1441956 4.55542 -14.739853 3.7177734 -19.888954 -1.9381409c-5.1491013 -5.655945 -5.178444 -14.292267 -0.06787872 -19.983063c5.1105576 -5.690796 13.700325 -6.5868225 19.875328 -2.0732422z" fill-rule="evenodd"/><path stroke="#000000" stroke-width="3.0" stroke-linejoin="round" stroke-linecap="butt" d="m-103.646515 -323.75388c-6.1441956 4.55542 -14.739853 3.7177734 -19.888954 -1.9381409c-5.1491013 -5.655945 -5.178444 -14.292267 -0.06787872 -19.983063c5.1105576 -5.690796 13.700325 -6.5868225 19.875328 -2.0732422z" fill-rule="evenodd"/><path fill="#ffffff" d="m-103.32042 -323.75388c6.1441956 4.55542 14.739853 3.7177734 19.888954 -1.9381409c5.1491013 -5.655945 5.1784363 -14.292267 0.06787872 -19.983063c-5.1105576 -5.690796 -13.700325 -6.5868225 -19.875328 -2.0732422z" fill-rule="evenodd"/><path stroke="#000000" stroke-width="3.0" stroke-linejoin="round" stroke-linecap="butt" d="m-103.32042 -323.75388c6.1441956 4.55542 14.739853 3.7177734 19.888954 -1.9381409c5.1491013 -5.655945 5.1784363 -14.292267 0.06787872 -19.983063c-5.1105576 -5.690796 -13.700325 -6.5868225 -19.875328 -2.0732422z" fill-rule="evenodd"/><path fill="#000000" fill-opacity="0.0" d="m-177.00728 -336.65714l44.72441 0" fill-rule="evenodd"/><path stroke="#0000ff" stroke-width="4.0" stroke-linejoin="round" stroke-linecap="butt" d="m-177.00728 -336.65717l20.724411 0" fill-rule="evenodd"/><path fill="#0000ff" stroke="#0000ff" stroke-width="4.0" stroke-linecap="butt" d="m-156.28287 -330.05023l18.15239 -6.6069336l-18.15239 -6.606903z" fill-rule="evenodd"/><path fill="#000000" fill-opacity="0.0" d="m-30.494406 -336.65714l-44.724403 0" fill-rule="evenodd"/><path stroke="#0000ff" stroke-width="4.0" stroke-linejoin="round" stroke-linecap="butt" d="m-30.494404 -336.65717l-20.724411 0" fill-rule="evenodd"/><path fill="#0000ff" stroke="#0000ff" stroke-width="4.0" stroke-linecap="butt" d="m-51.21882 -343.26407l-18.15239 6.606903l18.15239 6.6069336z" fill-rule="evenodd"/><path fill="#ffffff" d="m-109.234985 -346.89642l12.692917 0l0 22.330688l-12.692917 0z" fill-rule="evenodd"/><path fill="#ffffff" d="m-103.646515 -379.75388c-6.1441956 4.55542 -14.739853 3.7177734 -19.888954 -1.9381409c-5.1491013 -5.655945 -5.178444 -14.292267 -0.06787872 -19.983063c5.1105576 -5.690796 13.700325 -6.5868225 19.875328 -2.0732422z" fill-rule="evenodd"/><path stroke="#000000" stroke-width="3.0" stroke-linejoin="round" stroke-linecap="butt" d="m-103.646515 -379.75388c-6.1441956 4.55542 -14.739853 3.7177734 -19.888954 -1.9381409c-5.1491013 -5.655945 -5.178444 -14.292267 -0.06787872 -19.983063c5.1105576 -5.690796 13.700325 -6.5868225 19.875328 -2.0732422z" fill-rule="evenodd"/><path fill="#ffffff" d="m-103.32042 -379.75388c6.1441956 4.55542 14.739853 3.7177734 19.888954 -1.9381409c5.1491013 -5.655945 5.1784363 -14.292267 0.06787872 -19.983063c-5.1105576 -5.690796 -13.700325 -6.5868225 -19.875328 -2.0732422z" fill-rule="evenodd"/><path stroke="#000000" stroke-width="3.0" stroke-linejoin="round" stroke-linecap="butt" d="m-103.32042 -379.75388c6.1441956 4.55542 14.739853 3.7177734 19.888954 -1.9381409c5.1491013 -5.655945 5.1784363 -14.292267 0.06787872 -19.983063c-5.1105576 -5.690796 -13.700325 -6.5868225 -19.875328 -2.0732422z" fill-rule="evenodd"/><path fill="#000000" fill-opacity="0.0" d="m-177.00728 -392.65714l44.72441 0" fill-rule="evenodd"/><path stroke="#0000ff" stroke-width="4.0" stroke-linejoin="round" stroke-linecap="butt" d="m-177.00728 -392.65717l20.724411 0" fill-rule="evenodd"/><path fill="#0000ff" stroke="#0000ff" stroke-width="4.0" stroke-linecap="butt" d="m-156.28287 -386.05023l18.15239 -6.6069336l-18.15239 -6.606903z" fill-rule="evenodd"/><path fill="#000000" fill-opacity="0.0" d="m-30.494406 -392.65714l-44.724403 0" fill-rule="evenodd"/><path stroke="#0000ff" stroke-width="4.0" stroke-linejoin="round" stroke-linecap="butt" d="m-30.494404 -392.65717l-20.724411 0" fill-rule="evenodd"/><path fill="#0000ff" stroke="#0000ff" stroke-width="4.0" stroke-linecap="butt" d="m-51.21882 -399.26407l-18.15239 6.606903l18.15239 6.6069336z" fill-rule="evenodd"/><path fill="#ffffff" d="m97.38029 -381.4011l0 0c-6.1980057 6.1141357 -16.172646 6.0671387 -22.312744 -0.105163574c-6.1400986 -6.1723022 -6.1349335 -16.147034 0.011550903 -22.312988c6.146492 -6.165924 16.121178 -6.202606 22.312843 -0.08203125z" fill-rule="evenodd"/><path stroke="#000000" stroke-width="3.0" stroke-linejoin="round" stroke-linecap="butt" d="m97.38029 -381.4011l0 0c-6.1980057 6.1141357 -16.172646 6.0671387 -22.312744 -0.105163574c-6.1400986 -6.1723022 -6.1349335 -16.147034 0.011550903 -22.312988c6.146492 -6.165924 16.121178 -6.202606 22.312843 -0.08203125z" fill-rule="evenodd"/><path fill="#000000" fill-opacity="0.0" d="m17.835545 -393.65036l47.466015 0" fill-rule="evenodd"/><path stroke="#0000ff" stroke-width="4.0" stroke-linejoin="round" stroke-linecap="butt" d="m17.835545 -393.6504l23.466015 0" fill-rule="evenodd"/><path fill="#0000ff" stroke="#0000ff" stroke-width="4.0" stroke-linecap="butt" d="m41.301563 -387.04346l18.15239 -6.6069336l-18.15239 -6.6069336z" fill-rule="evenodd"/><path fill="#000000" fill-opacity="0.0" d="m173.32965 -393.65036l-47.46601 0" fill-rule="evenodd"/><path stroke="#0000ff" stroke-width="4.0" stroke-linejoin="round" stroke-linecap="butt" d="m173.32967 -393.6504l-23.466019 0" fill-rule="evenodd"/><path fill="#0000ff" stroke="#0000ff" stroke-width="4.0" stroke-linecap="butt" d="m149.86363 -400.25732l-18.15239 6.6069336l18.15239 6.6069336z" fill-rule="evenodd"/><path fill="#ffffff" d="m97.72911 -381.4011l0 0c6.1980057 6.1141357 16.172646 6.0671387 22.312744 -0.105163574c6.1400986 -6.1723022 6.1349335 -16.147034 -0.011550903 -22.312988c-6.146492 -6.165924 -16.121178 -6.202606 -22.312843 -0.08203125z" fill-rule="evenodd"/><path stroke="#000000" stroke-width="3.0" stroke-linejoin="round" stroke-linecap="butt" d="m97.72911 -381.4011l0 0c6.1980057 6.1141357 16.172646 6.0671387 22.312744 -0.105163574c6.1400986 -6.1723022 6.1349335 -16.147034 -0.011550903 -22.312988c-6.146492 -6.165924 -16.121178 -6.202606 -22.312843 -0.08203125z" fill-rule="evenodd"/><path fill="#ffffff" d="m90.547806 -403.04587l13.470993 0l0 20.858307l-13.470993 0z" fill-rule="evenodd"/><path fill="#ffffff" d="m-100.7329 122.85716c-10.346405 7.6710052 -24.820915 6.2604675 -33.491646 -3.2637405c-8.670746 -9.524216 -8.720139 -24.067207 -0.11430359 -33.65011c8.605827 -9.582901 23.07042 -11.091736 33.468697 -3.4911957z" fill-rule="evenodd"/><path stroke="#000000" stroke-width="3.0" stroke-linejoin="round" stroke-linecap="butt" d="m-100.7329 122.85716c-10.346405 7.6710052 -24.820915 6.2604675 -33.491646 -3.2637405c-8.670746 -9.524216 -8.720139 -24.067207 -0.11430359 -33.65011c8.605827 -9.582901 23.07042 -11.091736 33.468697 -3.4911957z" fill-rule="evenodd"/><path fill="#000000" d="m-100.189804 122.85716c10.346405 7.6710052 24.820915 6.2604675 33.491653 -3.2637405c8.670734 -9.524216 8.720135 -24.067207 0.11430359 -33.65011c-8.605835 -9.582901 -23.070427 -11.091736 -33.468704 -3.4911957z" fill-rule="evenodd"/><path stroke="#000000" stroke-width="3.0" stroke-linejoin="round" stroke-linecap="butt" d="m-100.189804 122.85716c10.346405 7.6710052 24.820915 6.2604675 33.491653 -3.2637405c8.670734 -9.524216 8.720135 -24.067207 0.11430359 -33.65011c-8.605835 -9.582901 -23.070427 -11.091736 -33.468704 -3.4911957z" fill-rule="evenodd"/><path fill="#9fc5e8" d="m-85.586174 -168.00482l20.171967 -14.728928l-6.2919464 23.841553l19.433502 -7.3220825l-10.92915 12.364777l25.666843 5.794403l-25.15678 6.801178l4.7135353 9.190353l-10.20845 2.330017l9.458443 16.411362l-19.806519 -9.671158l-1.1148682 12.912682l-12.394371 -8.805702l-5.311432 11.553917l-7.3181686 -7.9180145l-7.805153 8.579857l-4.420418 -7.8198395l-15.880157 11.842415l2.3459778 -14.138016l-17.01561 -5.321396l12.211502 -8.161308l-14.28508 -13.80072l20.530563 -1.3508148l-10.771347 -16.682602l21.120743 2.3919678l-0.67749023 -18.3835l17.60115 15.634735l9.662605 -17.565964z" fill-rule="evenodd"/><path stroke="#000000" stroke-width="1.0" stroke-linejoin="round" stroke-linecap="butt" d="m-85.586174 -168.00482l20.171967 -14.728928l-6.2919464 23.841553l19.433502 -7.3220825l-10.92915 12.364777l25.666843 5.794403l-25.15678 6.801178l4.7135353 9.190353l-10.20845 2.330017l9.458443 16.411362l-19.806519 -9.671158l-1.1148682 12.912682l-12.394371 -8.805702l-5.311432 11.553917l-7.3181686 -7.9180145l-7.805153 8.579857l-4.420418 -7.8198395l-15.880157 11.842415l2.3459778 -14.138016l-17.01561 -5.321396l12.211502 -8.161308l-14.28508 -13.80072l20.530563 -1.3508148l-10.771347 -16.682602l21.120743 2.3919678l-0.67749023 -18.3835l17.60115 15.634735l9.662605 -17.565964z" fill-rule="evenodd"/></g></svg>