<?xml version="1.0" encoding="UTF-8"?>
<!DOCTYPE svg PUBLIC "-//W3C//DTD SVG 1.1//EN" "http://www.w3.org/Graphics/SVG/1.1/DTD/svg11.dtd">
<svg version="1.2" width="29.96mm" height="29.96mm" viewBox="14359 16018 2996 2996" preserveAspectRatio="xMidYMid" fill-rule="evenodd" stroke-width="28.222" stroke-linejoin="round" xmlns="http://www.w3.org/2000/svg" xmlns:ooo="http://xml.openoffice.org/svg/export" xmlns:xlink="http://www.w3.org/1999/xlink" xmlns:presentation="http://sun.com/xmlns/staroffice/presentation" xmlns:smil="http://www.w3.org/2001/SMIL20/" xmlns:anim="urn:oasis:names:tc:opendocument:xmlns:animation:1.0" xml:space="preserve">
 <defs class="EmbeddedBulletChars">
  <g id="bullet-char-template-57356" transform="scale(0.00048828125,-0.00048828125)">
   <path d="M 580,1141 L 1163,571 580,0 -4,571 580,1141 Z"/>
  </g>
  <g id="bullet-char-template-57354" transform="scale(0.00048828125,-0.00048828125)">
   <path d="M 8,1128 L 1137,1128 1137,0 8,0 8,1128 Z"/>
  </g>
  <g id="bullet-char-template-10146" transform="scale(0.00048828125,-0.00048828125)">
   <path d="M 174,0 L 602,739 174,1481 1456,739 174,0 Z M 1358,739 L 309,1346 659,739 1358,739 Z"/>
  </g>
  <g id="bullet-char-template-10132" transform="scale(0.00048828125,-0.00048828125)">
   <path d="M 2015,739 L 1276,0 717,0 1260,543 174,543 174,936 1260,936 717,1481 1274,1481 2015,739 Z"/>
  </g>
  <g id="bullet-char-template-10007" transform="scale(0.00048828125,-0.00048828125)">
   <path d="M 0,-2 C -7,14 -16,27 -25,37 L 356,567 C 262,823 215,952 215,954 215,979 228,992 255,992 264,992 276,990 289,987 310,991 331,999 354,1012 L 381,999 492,748 772,1049 836,1024 860,1049 C 881,1039 901,1025 922,1006 886,937 835,863 770,784 769,783 710,716 594,584 L 774,223 C 774,196 753,168 711,139 L 727,119 C 717,90 699,76 672,76 641,76 570,178 457,381 L 164,-76 C 142,-110 111,-127 72,-127 30,-127 9,-110 8,-76 1,-67 -2,-52 -2,-32 -2,-23 -1,-13 0,-2 Z"/>
  </g>
  <g id="bullet-char-template-10004" transform="scale(0.00048828125,-0.00048828125)">
   <path d="M 285,-33 C 182,-33 111,30 74,156 52,228 41,333 41,471 41,549 55,616 82,672 116,743 169,778 240,778 293,778 328,747 346,684 L 369,508 C 377,444 397,411 428,410 L 1163,1116 C 1174,1127 1196,1133 1229,1133 1271,1133 1292,1118 1292,1087 L 1292,965 C 1292,929 1282,901 1262,881 L 442,47 C 390,-6 338,-33 285,-33 Z"/>
  </g>
  <g id="bullet-char-template-9679" transform="scale(0.00048828125,-0.00048828125)">
   <path d="M 813,0 C 632,0 489,54 383,161 276,268 223,411 223,592 223,773 276,916 383,1023 489,1130 632,1184 813,1184 992,1184 1136,1130 1245,1023 1353,916 1407,772 1407,592 1407,412 1353,268 1245,161 1136,54 992,0 813,0 Z"/>
  </g>
  <g id="bullet-char-template-8226" transform="scale(0.00048828125,-0.00048828125)">
   <path d="M 346,457 C 273,457 209,483 155,535 101,586 74,649 74,723 74,796 101,859 155,911 209,963 273,989 346,989 419,989 480,963 531,910 582,859 608,796 608,723 608,648 583,586 532,535 482,483 420,457 346,457 Z"/>
  </g>
  <g id="bullet-char-template-8211" transform="scale(0.00048828125,-0.00048828125)">
   <path d="M -4,459 L 1135,459 1135,606 -4,606 -4,459 Z"/>
  </g>
  <g id="bullet-char-template-61548" transform="scale(0.00048828125,-0.00048828125)">
   <path d="M 173,740 C 173,903 231,1043 346,1159 462,1274 601,1332 765,1332 928,1332 1067,1274 1183,1159 1299,1043 1357,903 1357,740 1357,577 1299,437 1183,322 1067,206 928,148 765,148 601,148 462,206 346,322 231,437 173,577 173,740 Z"/>
  </g>
 </defs>
 <g class="Page">
  <g class="com.sun.star.drawing.CustomShape">
   <g id="id3">
    <rect class="BoundingBox" stroke="none" fill="none" x="14359" y="16018" width="2996" height="2996"/>
    <path fill="rgb(255,255,255)" stroke="none" d="M 14858,16018 L 14858,16018 C 14771,16018 14684,16041 14609,16085 14533,16129 14470,16192 14426,16268 14382,16343 14359,16430 14359,16517 L 14359,18513 14359,18514 C 14359,18601 14382,18688 14426,18763 14470,18839 14533,18902 14609,18946 14684,18990 14771,19013 14858,19013 L 16854,19012 16855,19013 C 16942,19013 17029,18990 17104,18946 17180,18902 17243,18839 17287,18763 17331,18688 17354,18601 17354,18514 L 17353,16517 17354,16517 17354,16517 C 17354,16430 17331,16343 17287,16268 17243,16192 17180,16129 17104,16085 17029,16041 16942,16018 16855,16018 L 14858,16018 Z"/>
   </g>
  </g>
  <g class="com.sun.star.drawing.OpenBezierShape">
   <g id="id4">
    <rect class="BoundingBox" stroke="none" fill="none" x="15113" y="16452" width="818" height="1676"/>
    <path fill="none" stroke="rgb(0,0,0)" stroke-width="100" stroke-linejoin="round" stroke-linecap="round" d="M 15275,17793 C 15549,17186 15883,16445 15879,16505"/>
    <path fill="rgb(0,0,0)" stroke="none" d="M 15115,17724 L 15113,18105 15116,18117 15123,18125 15136,18126 15146,18121 15431,17867 15435,17863 15436,17861 15437,17853 15437,17845 15433,17839 15427,17834 15143,17706 15136,17704 15127,17705 15121,17710 15117,17716 15116,17719 15115,17724 Z"/>
   </g>
  </g>
  <g class="com.sun.star.drawing.OpenBezierShape">
   <g id="id5">
    <rect class="BoundingBox" stroke="none" fill="none" x="15846" y="16452" width="818" height="1676"/>
    <path fill="none" stroke="rgb(0,0,0)" stroke-width="100" stroke-linejoin="round" stroke-linecap="round" d="M 16499,17794 C 16229,17201 15893,16445 15896,16505"/>
    <path fill="rgb(0,0,0)" stroke="none" d="M 16343,17868 L 16629,18120 16640,18127 16651,18126 16660,18117 16663,18106 16658,17724 16658,17719 16657,17716 16652,17711 16645,17706 16638,17704 16631,17706 16347,17836 16341,17840 16337,17847 16337,17855 16338,17862 16340,17865 16343,17868 Z"/>
   </g>
  </g>
  <g class="com.sun.star.drawing.CustomShape">
   <g id="id6">
    <rect class="BoundingBox" stroke="none" fill="none" x="14859" y="18207" width="382" height="382"/>
    <path fill="rgb(153,153,153)" stroke="none" d="M 15240,18398 C 15240,18431 15231,18464 15214,18493 15198,18522 15174,18546 15145,18562 15116,18579 15083,18588 15050,18588 15016,18588 14983,18579 14954,18562 14925,18546 14901,18522 14885,18493 14868,18464 14859,18431 14859,18398 14859,18364 14868,18331 14885,18302 14901,18273 14925,18249 14954,18233 14983,18216 15016,18207 15050,18207 15083,18207 15116,18216 15145,18233 15174,18249 15198,18273 15214,18302 15231,18331 15240,18364 15240,18398 L 15240,18398 Z"/>
   </g>
  </g>
  <g class="com.sun.star.drawing.CustomShape">
   <g id="id7">
    <rect class="BoundingBox" stroke="none" fill="none" x="16563" y="18229" width="382" height="383"/>
    <path fill="rgb(153,153,153)" stroke="none" d="M 16944,18421 C 16944,18454 16935,18487 16918,18516 16902,18545 16878,18569 16849,18585 16820,18602 16787,18611 16754,18611 16720,18611 16687,18602 16658,18585 16629,18569 16605,18545 16589,18516 16572,18487 16563,18454 16563,18421 16563,18387 16572,18354 16589,18325 16605,18296 16629,18272 16658,18256 16687,18239 16720,18230 16754,18230 16787,18230 16820,18239 16849,18256 16878,18272 16902,18296 16918,18325 16935,18354 16944,18387 16944,18421 L 16944,18421 Z"/>
   </g>
  </g>
 </g>
</svg>