<?xml version="1.0" encoding="UTF-8"?>
<!DOCTYPE svg PUBLIC "-//W3C//DTD SVG 1.1//EN" "http://www.w3.org/Graphics/SVG/1.1/DTD/svg11.dtd">
<svg version="1.2" width="31.93mm" height="36.9mm" viewBox="2847 4036 3193 3690" preserveAspectRatio="xMidYMid" fill-rule="evenodd" stroke-width="28.222" stroke-linejoin="round" xmlns="http://www.w3.org/2000/svg" xmlns:ooo="http://xml.openoffice.org/svg/export" xmlns:xlink="http://www.w3.org/1999/xlink" xmlns:presentation="http://sun.com/xmlns/staroffice/presentation" xmlns:smil="http://www.w3.org/2001/SMIL20/" xmlns:anim="urn:oasis:names:tc:opendocument:xmlns:animation:1.0" xml:space="preserve">
 <defs class="EmbeddedBulletChars">
  <g id="bullet-char-template-57356" transform="scale(0.00048828125,-0.00048828125)">
   <path d="M 580,1141 L 1163,571 580,0 -4,571 580,1141 Z"/>
  </g>
  <g id="bullet-char-template-57354" transform="scale(0.00048828125,-0.00048828125)">
   <path d="M 8,1128 L 1137,1128 1137,0 8,0 8,1128 Z"/>
  </g>
  <g id="bullet-char-template-10146" transform="scale(0.00048828125,-0.00048828125)">
   <path d="M 174,0 L 602,739 174,1481 1456,739 174,0 Z M 1358,739 L 309,1346 659,739 1358,739 Z"/>
  </g>
  <g id="bullet-char-template-10132" transform="scale(0.00048828125,-0.00048828125)">
   <path d="M 2015,739 L 1276,0 717,0 1260,543 174,543 174,936 1260,936 717,1481 1274,1481 2015,739 Z"/>
  </g>
  <g id="bullet-char-template-10007" transform="scale(0.00048828125,-0.00048828125)">
   <path d="M 0,-2 C -7,14 -16,27 -25,37 L 356,567 C 262,823 215,952 215,954 215,979 228,992 255,992 264,992 276,990 289,987 310,991 331,999 354,1012 L 381,999 492,748 772,1049 836,1024 860,1049 C 881,1039 901,1025 922,1006 886,937 835,863 770,784 769,783 710,716 594,584 L 774,223 C 774,196 753,168 711,139 L 727,119 C 717,90 699,76 672,76 641,76 570,178 457,381 L 164,-76 C 142,-110 111,-127 72,-127 30,-127 9,-110 8,-76 1,-67 -2,-52 -2,-32 -2,-23 -1,-13 0,-2 Z"/>
  </g>
  <g id="bullet-char-template-10004" transform="scale(0.00048828125,-0.00048828125)">
   <path d="M 285,-33 C 182,-33 111,30 74,156 52,228 41,333 41,471 41,549 55,616 82,672 116,743 169,778 240,778 293,778 328,747 346,684 L 369,508 C 377,444 397,411 428,410 L 1163,1116 C 1174,1127 1196,1133 1229,1133 1271,1133 1292,1118 1292,1087 L 1292,965 C 1292,929 1282,901 1262,881 L 442,47 C 390,-6 338,-33 285,-33 Z"/>
  </g>
  <g id="bullet-char-template-9679" transform="scale(0.00048828125,-0.00048828125)">
   <path d="M 813,0 C 632,0 489,54 383,161 276,268 223,411 223,592 223,773 276,916 383,1023 489,1130 632,1184 813,1184 992,1184 1136,1130 1245,1023 1353,916 1407,772 1407,592 1407,412 1353,268 1245,161 1136,54 992,0 813,0 Z"/>
  </g>
  <g id="bullet-char-template-8226" transform="scale(0.00048828125,-0.00048828125)">
   <path d="M 346,457 C 273,457 209,483 155,535 101,586 74,649 74,723 74,796 101,859 155,911 209,963 273,989 346,989 419,989 480,963 531,910 582,859 608,796 608,723 608,648 583,586 532,535 482,483 420,457 346,457 Z"/>
  </g>
  <g id="bullet-char-template-8211" transform="scale(0.00048828125,-0.00048828125)">
   <path d="M -4,459 L 1135,459 1135,606 -4,606 -4,459 Z"/>
  </g>
  <g id="bullet-char-template-61548" transform="scale(0.00048828125,-0.00048828125)">
   <path d="M 173,740 C 173,903 231,1043 346,1159 462,1274 601,1332 765,1332 928,1332 1067,1274 1183,1159 1299,1043 1357,903 1357,740 1357,577 1299,437 1183,322 1067,206 928,148 765,148 601,148 462,206 346,322 231,437 173,577 173,740 Z"/>
  </g>
 </defs>
 <g class="Page">
  <g class="com.sun.star.drawing.CustomShape">
   <g id="id3">
    <rect class="BoundingBox" stroke="none" fill="none" x="2849" y="4416" width="2478" height="3239"/>
    <path fill="rgb(255,255,255)" stroke="none" d="M 3563,4467 L 3564,4467 C 3447,4467 3333,4498 3232,4556 3130,4614 3046,4698 2988,4799 2930,4901 2899,5015 2899,5132 L 2899,6939 2899,6939 C 2899,7056 2930,7170 2988,7271 3046,7373 3130,7457 3232,7515 3333,7573 3447,7604 3564,7604 L 4611,7604 4611,7604 C 4728,7604 4842,7573 4944,7515 5045,7457 5129,7373 5187,7271 5245,7170 5276,7056 5276,6939 L 5276,5132 5276,5132 5276,5132 C 5276,5015 5245,4901 5187,4799 5129,4698 5045,4614 4944,4556 4842,4498 4728,4467 4611,4467 L 3563,4467 Z"/>
    <path fill="none" stroke="rgb(0,0,0)" stroke-width="100" stroke-linejoin="round" d="M 3563,4467 L 3564,4467 C 3447,4467 3333,4498 3232,4556 3130,4614 3046,4698 2988,4799 2930,4901 2899,5015 2899,5132 L 2899,6939 2899,6939 C 2899,7056 2930,7170 2988,7271 3046,7373 3130,7457 3232,7515 3333,7573 3447,7604 3564,7604 L 4611,7604 4611,7604 C 4728,7604 4842,7573 4944,7515 5045,7457 5129,7373 5187,7271 5245,7170 5276,7056 5276,6939 L 5276,5132 5276,5132 5276,5132 C 5276,5015 5245,4901 5187,4799 5129,4698 5045,4614 4944,4556 4842,4498 4728,4467 4611,4467 L 3563,4467 Z"/>
   </g>
  </g>
  <g class="com.sun.star.drawing.CustomShape">
   <g id="id4">
    <rect class="BoundingBox" stroke="none" fill="none" x="3562" y="4036" width="2478" height="3239"/>
    <path fill="rgb(255,255,255)" stroke="none" d="M 4276,4087 L 4277,4087 C 4160,4087 4046,4118 3945,4176 3843,4234 3759,4318 3701,4419 3643,4521 3612,4635 3612,4752 L 3612,6559 3612,6559 C 3612,6676 3643,6790 3701,6892 3759,6993 3843,7077 3945,7135 4046,7193 4160,7224 4277,7224 L 5324,7224 5324,7224 C 5441,7224 5555,7193 5657,7135 5758,7077 5842,6993 5900,6892 5958,6790 5989,6676 5989,6559 L 5989,4752 5989,4752 5989,4752 C 5989,4635 5958,4521 5900,4419 5842,4318 5758,4234 5657,4176 5555,4118 5441,4087 5324,4087 L 4276,4087 Z"/>
    <path fill="none" stroke="rgb(0,0,0)" stroke-width="100" stroke-linejoin="round" d="M 4276,4087 L 4277,4087 C 4160,4087 4046,4118 3945,4176 3843,4234 3759,4318 3701,4419 3643,4521 3612,4635 3612,4752 L 3612,6559 3612,6559 C 3612,6676 3643,6790 3701,6892 3759,6993 3843,7077 3945,7135 4046,7193 4160,7224 4277,7224 L 5324,7224 5324,7224 C 5441,7224 5555,7193 5657,7135 5758,7077 5842,6993 5900,6892 5958,6790 5989,6676 5989,6559 L 5989,4752 5989,4752 5989,4752 C 5989,4635 5958,4521 5900,4419 5842,4318 5758,4234 5657,4176 5555,4118 5441,4087 5324,4087 L 4276,4087 Z"/>
   </g>
  </g>
  <g class="Group">
   <g class="com.sun.star.drawing.CustomShape">
    <g id="id5">
     <rect class="BoundingBox" stroke="none" fill="none" x="2847" y="6756" width="970" height="970"/>
     <path fill="rgb(255,255,255)" stroke="none" d="M 3815,7241 C 3815,7325 3793,7409 3750,7482 3708,7556 3647,7617 3573,7659 3500,7702 3416,7724 3332,7724 3247,7724 3163,7702 3090,7659 3016,7617 2955,7556 2913,7482 2870,7409 2848,7325 2848,7241 2848,7156 2870,7072 2913,6999 2955,6925 3016,6864 3090,6822 3163,6779 3247,6757 3332,6757 3416,6757 3500,6779 3573,6822 3647,6864 3708,6925 3750,6999 3793,7072 3815,7156 3815,7241 L 3815,7241 Z"/>
     <path fill="none" stroke="rgb(255,255,255)" d="M 3815,7241 C 3815,7325 3793,7409 3750,7482 3708,7556 3647,7617 3573,7659 3500,7702 3416,7724 3332,7724 3247,7724 3163,7702 3090,7659 3016,7617 2955,7556 2913,7482 2870,7409 2848,7325 2848,7241 2848,7156 2870,7072 2913,6999 2955,6925 3016,6864 3090,6822 3163,6779 3247,6757 3332,6757 3416,6757 3500,6779 3573,6822 3647,6864 3708,6925 3750,6999 3793,7072 3815,7156 3815,7241 L 3815,7241 Z"/>
    </g>
   </g>
   <g class="com.sun.star.drawing.CustomShape">
    <g id="id6">
     <rect class="BoundingBox" stroke="none" fill="none" x="2872" y="6781" width="920" height="920"/>
     <path fill="rgb(255,255,255)" stroke="none" d="M 3331,6831 L 3331,6831 3331,7240 3741,7240 3741,7240 3331,7240 3331,7650 3331,7650 3331,7240 2922,7240 2922,7240 3331,7240 3331,6831 3331,6831 Z"/>
     <path fill="none" stroke="rgb(0,0,0)" stroke-width="100" stroke-linejoin="round" d="M 3331,6831 L 3331,6831 3331,7240 3741,7240 3741,7240 3331,7240 3331,7650 3331,7650 3331,7240 2922,7240 2922,7240 3331,7240 3331,6831 3331,6831 Z"/>
    </g>
   </g>
  </g>
 </g>
</svg>