<svg version="1.1" viewBox="0.0 0.0 189.89501312335958 100.0" fill="none" stroke="none" stroke-linecap="square" stroke-miterlimit="10" xmlns:xlink="http://www.w3.org/1999/xlink" xmlns="http://www.w3.org/2000/svg"><clipPath id="p.0"><path d="m0 0l189.89502 0l0 100.0l-189.89502 0l0 -100.0z" clip-rule="nonzero"/></clipPath><g clip-path="url(#p.0)"><path fill="#ffffff" d="m0 0l189.89502 0l0 100.0l-189.89502 0z" fill-rule="evenodd"/><path fill="#000000" fill-opacity="0.0" d="m216.02682 0.78361994l192.0 0l0 98.55118l-192.0 0z" fill-rule="evenodd"/><path stroke="#000000" stroke-width="4.0" stroke-linejoin="round" stroke-linecap="butt" d="m216.02682 0.78361994l192.0 0l0 98.55118l-192.0 0z" fill-rule="evenodd"/><path fill="#d9d9d9" d="m137.89868 19.475327l0 0l0 0c1.1611023 0 2.2746582 0.4612465 3.0956726 1.2822723c0.82102966 0.82102585 1.2822723 1.9345741 1.2822723 3.0956802l0 72.97638c0 3.8146973E-5 -3.0517578E-5 6.866455E-5 -6.1035156E-5 6.866455E-5l-8.755844 -6.866455E-5l0 0c-3.0517578E-5 0 -7.6293945E-5 -3.8146973E-5 -7.6293945E-5 -7.6293945E-5l7.6293945E-5 -72.9763l0 0c0 -2.4178772 1.960083 -4.3779526 4.37796 -4.3779526z" fill-rule="evenodd"/><path fill="#d9d9d9" d="m41.898678 19.475327l0 0l0 0c1.1611061 0 2.2746544 0.4612465 3.0956802 1.2822723c0.82102585 0.82102585 1.2822723 1.9345741 1.2822723 3.0956802l0 72.97638c0 3.8146973E-5 -3.0517578E-5 6.866455E-5 -7.247925E-5 6.866455E-5l-8.755833 -6.866455E-5l0 0c-3.8146973E-5 0 -7.247925E-5 -3.8146973E-5 -7.247925E-5 -7.6293945E-5l7.247925E-5 -72.9763l0 0c0 -2.4178772 1.9600754 -4.3779526 4.3779526 -4.3779526z" fill-rule="evenodd"/><path fill="#f9dc91" d="m-349.99066 1.9294344l0 0l0 0c2.414093 0 4.729309 0.9589962 6.4363403 2.6660204c1.7070312 1.7070241 2.6660156 4.022245 2.6660156 6.436342l0 163.93701c0 7.6293945E-5 -6.1035156E-5 1.5258789E-4 -1.5258789E-4 1.5258789E-4l-18.20456 -1.5258789E-4l0 0c-9.1552734E-5 0 -1.5258789E-4 -7.6293945E-5 -1.5258789E-4 -1.5258789E-4l1.5258789E-4 -163.93686l0 0c0 -5.027096 4.0752563 -9.102362 9.102356 -9.102362z" fill-rule="evenodd"/><path stroke="#000000" stroke-width="1.0" stroke-linejoin="round" stroke-linecap="butt" d="m-349.99066 1.9294344l0 0l0 0c2.414093 0 4.729309 0.9589962 6.4363403 2.6660204c1.7070312 1.7070241 2.6660156 4.022245 2.6660156 6.436342l0 163.93701c0 7.6293945E-5 -6.1035156E-5 1.5258789E-4 -1.5258789E-4 1.5258789E-4l-18.20456 -1.5258789E-4l0 0c-9.1552734E-5 0 -1.5258789E-4 -7.6293945E-5 -1.5258789E-4 -1.5258789E-4l1.5258789E-4 -163.93686l0 0c0 -5.027096 4.0752563 -9.102362 9.102356 -9.102362z" fill-rule="evenodd"/><path fill="#f9dc91" d="m-245.99066 1.9294344l0 0l0 0c2.414093 0 4.7293243 0.9589962 6.4363403 2.6660204c1.7070312 1.7070241 2.666031 4.022245 2.666031 6.436342l0 163.93701c0 7.6293945E-5 -7.6293945E-5 1.5258789E-4 -1.5258789E-4 1.5258789E-4l-18.204575 -1.5258789E-4l0 0c-9.1552734E-5 0 -1.5258789E-4 -7.6293945E-5 -1.5258789E-4 -1.5258789E-4l1.5258789E-4 -163.93686l0 0c0 -5.027096 4.0752563 -9.102362 9.102356 -9.102362z" fill-rule="evenodd"/><path stroke="#000000" stroke-width="1.0" stroke-linejoin="round" stroke-linecap="butt" d="m-245.99066 1.9294344l0 0l0 0c2.414093 0 4.7293243 0.9589962 6.4363403 2.6660204c1.7070312 1.7070241 2.666031 4.022245 2.666031 6.436342l0 163.93701c0 7.6293945E-5 -7.6293945E-5 1.5258789E-4 -1.5258789E-4 1.5258789E-4l-18.204575 -1.5258789E-4l0 0c-9.1552734E-5 0 -1.5258789E-4 -7.6293945E-5 -1.5258789E-4 -1.5258789E-4l1.5258789E-4 -163.93686l0 0c0 -5.027096 4.0752563 -9.102362 9.102356 -9.102362z" fill-rule="evenodd"/><path fill="#f9dc91" d="m-143.36992 1.9294344l0 0l0 0c2.414093 0 4.729309 0.9589962 6.4363403 2.6660204c1.707016 1.7070241 2.6660156 4.022245 2.6660156 6.436342l0 163.93701c0 7.6293945E-5 -6.1035156E-5 1.5258789E-4 -1.5258789E-4 1.5258789E-4l-18.204575 -1.5258789E-4l0 0c-7.6293945E-5 0 -1.5258789E-4 -7.6293945E-5 -1.5258789E-4 -1.5258789E-4l1.5258789E-4 -163.93686l0 0c0 -5.027096 4.0752716 -9.102362 9.102371 -9.102362z" fill-rule="evenodd"/><path stroke="#000000" stroke-width="1.0" stroke-linejoin="round" stroke-linecap="butt" d="m-143.36992 1.9294344l0 0l0 0c2.414093 0 4.729309 0.9589962 6.4363403 2.6660204c1.707016 1.7070241 2.6660156 4.022245 2.6660156 6.436342l0 163.93701c0 7.6293945E-5 -6.1035156E-5 1.5258789E-4 -1.5258789E-4 1.5258789E-4l-18.204575 -1.5258789E-4l0 0c-7.6293945E-5 0 -1.5258789E-4 -7.6293945E-5 -1.5258789E-4 -1.5258789E-4l1.5258789E-4 -163.93686l0 0c0 -5.027096 4.0752716 -9.102362 9.102371 -9.102362z" fill-rule="evenodd"/><path fill="#ffff00" d="m-401.11172 144.4728l0 0c0 -6.7318115 5.4572144 -12.189026 12.189026 -12.189026l78.393616 0c3.232727 0 6.333069 1.284195 8.618927 3.5700836c2.2858887 2.2858887 3.5700989 5.386215 3.5700989 8.618942l0 18.299118c0 6.7318115 -5.4572144 12.189026 -12.189026 12.189026l-78.393616 0c-6.7318115 0 -12.189026 -5.4572144 -12.189026 -12.189026z" fill-rule="evenodd"/><path stroke="#000000" stroke-width="1.0" stroke-linejoin="round" stroke-linecap="butt" d="m-401.11172 144.4728l0 0c0 -6.7318115 5.4572144 -12.189026 12.189026 -12.189026l78.393616 0c3.232727 0 6.333069 1.284195 8.618927 3.5700836c2.2858887 2.2858887 3.5700989 5.386215 3.5700989 8.618942l0 18.299118c0 6.7318115 -5.4572144 12.189026 -12.189026 12.189026l-78.393616 0c-6.7318115 0 -12.189026 -5.4572144 -12.189026 -12.189026z" fill-rule="evenodd"/><path fill="#6aa84f" d="m-385.2692 100.371284l0 0c0 -6.7318115 5.4572144 -12.189026 12.189026 -12.189026l46.708557 0l0 0c3.232727 0 6.333069 1.2842026 8.6189575 3.5700836c2.2858887 2.2858887 3.5700684 5.386215 3.5700684 8.618942l0 18.299118c0 6.7318115 -5.4572144 12.189018 -12.189026 12.189018l-46.708557 0c-6.7318115 0 -12.189026 -5.4572067 -12.189026 -12.189018z" fill-rule="evenodd"/><path stroke="#000000" stroke-width="1.0" stroke-linejoin="round" stroke-linecap="butt" d="m-385.2692 100.371284l0 0c0 -6.7318115 5.4572144 -12.189026 12.189026 -12.189026l46.708557 0l0 0c3.232727 0 6.333069 1.2842026 8.6189575 3.5700836c2.2858887 2.2858887 3.5700684 5.386215 3.5700684 8.618942l0 18.299118c0 6.7318115 -5.4572144 12.189018 -12.189026 12.189018l-46.708557 0c-6.7318115 0 -12.189026 -5.4572067 -12.189026 -12.189018z" fill-rule="evenodd"/><path fill="#a4c2f4" d="m-375.11172 56.47279l0 0c0 -6.7318115 5.4572144 -12.189026 12.189026 -12.189026l26.393616 0l0 0c3.232727 0 6.333069 1.2841988 8.618927 3.5700836c2.2858887 2.2858849 3.5700989 5.3862114 3.5700989 8.618942l0 18.299114c0 6.7318115 -5.4572144 12.189026 -12.189026 12.189026l-26.393616 0c-6.7318115 0 -12.189026 -5.4572144 -12.189026 -12.189026z" fill-rule="evenodd"/><path stroke="#000000" stroke-width="1.0" stroke-linejoin="round" stroke-linecap="butt" d="m-375.11172 56.47279l0 0c0 -6.7318115 5.4572144 -12.189026 12.189026 -12.189026l26.393616 0l0 0c3.232727 0 6.333069 1.2841988 8.618927 3.5700836c2.2858887 2.2858849 3.5700989 5.3862114 3.5700989 8.618942l0 18.299114c0 6.7318115 -5.4572144 12.189026 -12.189026 12.189026l-26.393616 0c-6.7318115 0 -12.189026 -5.4572144 -12.189026 -12.189026z" fill-rule="evenodd"/><path fill="#000000" fill-opacity="0.0" d="m45.351715 49.73786c7.3132973 -12.820747 21.897163 -21.780128 38.872147 -23.880535c16.97499 -2.1004066 34.099335 2.9355488 45.643616 13.422947l-38.027496 28.533676z" fill-rule="evenodd"/><path fill="#000000" fill-opacity="0.0" d="m45.351715 49.73786c7.3132973 -12.820747 21.897163 -21.780128 38.872147 -23.880535c16.97499 -2.1004066 34.099335 2.9355488 45.643616 13.422947" fill-rule="evenodd"/><path stroke="#0000ff" stroke-width="4.0" stroke-linejoin="round" stroke-linecap="butt" d="m45.351715 49.73786c7.3132973 -12.820747 21.897163 -21.780128 38.872154 -23.880535c8.487488 -1.0502033 17.012321 -0.3163166 24.858315 1.9910469c0.9807434 0.28841972 1.9508896 0.6014271 2.909027 0.93860817c0.47906494 0.16858864 0.95513916 0.34322166 1.4280319 0.5238476c0.23644257 0.09031296 0.47209167 0.18212509 0.70692444 0.27542686l0.45776367 0.1854248" fill-rule="evenodd"/><path fill="#0000ff" stroke="#0000ff" stroke-width="4.0" stroke-linecap="butt" d="m112.2474 33.52728l12.654953 2.6639671l-7.981888 -10.175161z" fill-rule="evenodd"/><path fill="#666666" d="m16.88818 57.29129l0 0c0 -2.29031 1.8566608 -4.146969 4.146967 -4.146969l42.477722 0c1.0998421 0 2.154644 0.43691254 2.9323463 1.2146187c0.77770996 0.77770615 1.2146225 1.8325043 1.2146225 2.9323502l0 6.22575l0 0c0 2.29031 -1.8566666 4.146969 -4.146969 4.146969l-42.477722 0c-2.290306 0 -4.146967 -1.8566589 -4.146967 -4.146969z" fill-rule="evenodd"/><path stroke="#000000" stroke-width="1.0" stroke-linejoin="round" stroke-linecap="butt" d="m16.88818 57.29129l0 0c0 -2.29031 1.8566608 -4.146969 4.146967 -4.146969l42.477722 0c1.0998421 0 2.154644 0.43691254 2.9323463 1.2146187c0.77770996 0.77770615 1.2146225 1.8325043 1.2146225 2.9323502l0 6.22575l0 0c0 2.29031 -1.8566666 4.146969 -4.146969 4.146969l-42.477722 0c-2.290306 0 -4.146967 -1.8566589 -4.146967 -4.146969z" fill-rule="evenodd"/><path fill="#ffffff" d="m112.88818 48.430733l0 0c0 -2.290306 1.8566589 -4.146969 4.146965 -4.146969l42.477715 0c1.0998535 0 2.1546478 0.43691254 2.9323578 1.2146187c0.7776947 0.77770996 1.2146149 1.8325043 1.2146149 2.9323502l0 6.22575l0 0c0 2.290306 -1.8566589 4.146969 -4.1469727 4.146969l-42.477715 0c-2.290306 0 -4.146965 -1.8566628 -4.146965 -4.146969z" fill-rule="evenodd"/><path stroke="#000000" stroke-width="1.0" stroke-linejoin="round" stroke-linecap="butt" stroke-dasharray="4.0,3.0" d="m112.88818 48.430733l0 0c0 -2.290306 1.8566589 -4.146969 4.146965 -4.146969l42.477715 0c1.0998535 0 2.1546478 0.43691254 2.9323578 1.2146187c0.7776947 0.77770996 1.2146149 1.8325043 1.2146149 2.9323502l0 6.22575l0 0c0 2.290306 -1.8566589 4.146969 -4.1469727 4.146969l-42.477715 0c-2.290306 0 -4.146965 -1.8566628 -4.146965 -4.146969z" fill-rule="evenodd"/><path fill="#d9d9d9" d="m17.174269 76.61249l0 0c0 -4.466339 3.6206894 -8.0870285 8.087036 -8.0870285l34.59758 0l0 0c2.1448135 0 4.201782 0.85202026 5.718399 2.368637c1.5166092 1.5166092 2.368637 3.573578 2.368637 5.7183914l0 12.140892c0 4.4663467 -3.6206894 8.087036 -8.087036 8.087036l-34.59758 0c-4.4663467 0 -8.087036 -3.6206894 -8.087036 -8.087036z" fill-rule="evenodd"/><path fill="#d9d9d9" d="m108.940674 70.31214l0 0c0 -5.857422 4.748375 -10.605804 10.605804 -10.605804l39.890762 0l0 0c2.8128204 0 5.5104523 1.1173935 7.49942 3.106369c1.9889832 1.9889755 3.106369 4.6865997 3.106369 7.4994354l0 15.922256l0 0c0 5.857422 -4.7483673 10.605797 -10.605789 10.605797l-39.890762 0c-5.8574295 0 -10.605804 -4.748375 -10.605804 -10.605797z" fill-rule="evenodd"/></g></svg>