<svg version="1.1" viewBox="0.0 0.0 191.002624671916 100.0" fill="none" stroke="none" stroke-linecap="square" stroke-miterlimit="10" xmlns:xlink="http://www.w3.org/1999/xlink" xmlns="http://www.w3.org/2000/svg"><clipPath id="p.0"><path d="m0 0l191.00262 0l0 100.0l-191.00262 0l0 -100.0z" clip-rule="nonzero"/></clipPath><g clip-path="url(#p.0)"><path fill="#000000" fill-opacity="0.0" d="m0 0l191.00262 0l0 100.0l-191.00262 0z" fill-rule="evenodd"/><path fill="#9fc5e8" d="m109.99368 -459.3771l18.091064 -13.210205l-5.6430054 21.382751l17.428741 -6.5672607l-9.801743 11.089752l23.018936 5.19635l-22.56157 6.1001587l4.2272186 8.242432l-9.155334 2.0898743l8.48259 14.718628l-17.763176 -8.673401l-0.9999237 11.580963l-11.1156845 -7.897339l-4.7635574 10.362396l-6.5631638 -7.1012573l-7.0 7.695099l-3.9643478 -7.0132446l-14.2419815 10.621307l2.104042 -12.679932l-15.260204 -4.772278l10.951778 -7.3197937l-12.81131 -12.377136l18.412582 -1.211853l-9.660034 -14.961853l18.941849 2.1448975l-0.60749054 -16.487488l15.785271 14.021942l8.665894 -15.754456z" fill-rule="evenodd"/><path stroke="#000000" stroke-width="1.0" stroke-linejoin="round" stroke-linecap="butt" d="m109.99368 -459.3771l18.091064 -13.210205l-5.6430054 21.382751l17.428741 -6.5672607l-9.801743 11.089752l23.018936 5.19635l-22.56157 6.1001587l4.2272186 8.242432l-9.155334 2.0898743l8.48259 14.718628l-17.763176 -8.673401l-0.9999237 11.580963l-11.1156845 -7.897339l-4.7635574 10.362396l-6.5631638 -7.1012573l-7.0 7.695099l-3.9643478 -7.0132446l-14.2419815 10.621307l2.104042 -12.679932l-15.260204 -4.772278l10.951778 -7.3197937l-12.81131 -12.377136l18.412582 -1.211853l-9.660034 -14.961853l18.941849 2.1448975l-0.60749054 -16.487488l15.785271 14.021942l8.665894 -15.754456z" fill-rule="evenodd"/><path fill="#000000" fill-opacity="0.0" d="m-289.4312 -336.81177l89.44882 0l0 31.62204l-89.44882 0z" fill-rule="evenodd"/><path fill="#000000" d="m-266.62604 -313.73178l0 -0.953125q-0.71875 1.125 -2.125 1.125q-0.90625 0 -1.671875 -0.5q-0.75 -0.5 -1.171875 -1.390625q-0.421875 -0.90625 -0.421875 -2.078125q0 -1.140625 0.375 -2.0625q0.390625 -0.921875 1.140625 -1.40625q0.765625 -0.5 1.703125 -0.5q0.6875 0 1.21875 0.296875q0.53125 0.28125 0.875 0.734375l0 -3.75l1.28125 0l0 10.484375l-1.203125 0zm-4.0625 -3.796875q0 1.46875 0.609375 2.1875q0.625 0.71875 1.453125 0.71875q0.84375 0 1.4375 -0.6875q0.59375 -0.6875 0.59375 -2.109375q0 -1.5625 -0.609375 -2.28125q-0.59375 -0.734375 -1.484375 -0.734375q-0.84375 0 -1.421875 0.703125q-0.578125 0.703125 -0.578125 2.203125zm7.291748 -5.21875l0 -1.46875l1.296875 0l0 1.46875l-1.296875 0zm0 9.015625l0 -7.59375l1.296875 0l0 7.59375l-1.296875 0zm2.740509 -2.265625l1.265625 -0.203125q0.109375 0.765625 0.59375 1.171875q0.5 0.40625 1.375 0.40625q0.890625 0 1.3125 -0.359375q0.4375 -0.359375 0.4375 -0.84375q0 -0.4375 -0.375 -0.6875q-0.265625 -0.171875 -1.3125 -0.4375q-1.421875 -0.359375 -1.96875 -0.609375q-0.546875 -0.265625 -0.828125 -0.734375q-0.28125 -0.46875 -0.28125 -1.015625q0 -0.515625 0.21875 -0.9375q0.234375 -0.4375 0.640625 -0.734375q0.296875 -0.21875 0.8125 -0.359375q0.53125 -0.15625 1.125 -0.15625q0.890625 0 1.5625 0.265625q0.671875 0.25 1.0 0.6875q0.328125 0.4375 0.4375 1.171875l-1.25 0.171875q-0.09375 -0.578125 -0.5 -0.90625q-0.40625 -0.34375 -1.15625 -0.34375q-0.890625 0 -1.28125 0.296875q-0.375 0.296875 -0.375 0.6875q0 0.25 0.15625 0.453125q0.15625 0.203125 0.5 0.34375q0.1875 0.078125 1.140625 0.328125q1.359375 0.359375 1.890625 0.59375q0.546875 0.234375 0.859375 0.6875q0.3125 0.4375 0.3125 1.09375q0 0.640625 -0.375 1.21875q-0.375 0.5625 -1.09375 0.875q-0.703125 0.3125 -1.59375 0.3125q-1.484375 0 -2.265625 -0.609375q-0.765625 -0.625 -0.984375 -1.828125zm10.65625 1.109375l0.1875 1.140625q-0.546875 0.109375 -0.984375 0.109375q-0.6875 0 -1.078125 -0.21875q-0.390625 -0.21875 -0.546875 -0.578125q-0.15625 -0.359375 -0.15625 -1.515625l0 -4.375l-0.953125 0l0 -1.0l0.953125 0l0 -1.890625l1.28125 -0.765625l0 2.65625l1.296875 0l0 1.0l-1.296875 0l0 4.4375q0 0.546875 0.0625 0.71875q0.078125 0.15625 0.21875 0.25q0.15625 0.078125 0.453125 0.078125q0.203125 0 0.5625 -0.046875zm1.2438507 1.15625l0 -7.59375l1.15625 0l0 1.140625q0.453125 -0.796875 0.828125 -1.046875q0.375 -0.265625 0.8125 -0.265625q0.65625 0 1.328125 0.40625l-0.4375 1.203125q-0.46875 -0.28125 -0.953125 -0.28125q-0.421875 0 -0.765625 0.25q-0.328125 0.25 -0.46875 0.703125q-0.21875 0.6875 -0.21875 1.5l0 3.984375l-1.28125 0zm4.8962708 -9.015625l0 -1.46875l1.296875 0l0 1.46875l-1.296875 0zm0 9.015625l0 -7.59375l1.296875 0l0 7.59375l-1.296875 0zm4.4436493 0l-1.203125 0l0 -10.484375l1.296875 0l0 3.734375q0.8125 -1.015625 2.078125 -1.015625q0.703125 0 1.328125 0.28125q0.625 0.28125 1.03125 0.796875q0.40625 0.5 0.625 1.234375q0.234375 0.71875 0.234375 1.53125q0 1.96875 -0.96875 3.03125q-0.953125 1.0625 -2.3125 1.0625q-1.34375 0 -2.109375 -1.125l0 0.953125zm-0.015625 -3.859375q0 1.375 0.375 1.984375q0.609375 0.984375 1.640625 0.984375q0.84375 0 1.453125 -0.734375q0.625 -0.734375 0.625 -2.1875q0 -1.484375 -0.59375 -2.1875q-0.59375 -0.71875 -1.421875 -0.71875q-0.84375 0 -1.46875 0.734375q-0.609375 0.734375 -0.609375 2.125zm11.963608 3.859375l0 -1.109375q-0.890625 1.28125 -2.421875 1.28125q-0.671875 0 -1.25 -0.25q-0.578125 -0.265625 -0.875 -0.65625q-0.28125 -0.390625 -0.390625 -0.953125q-0.078125 -0.375 -0.078125 -1.203125l0 -4.703125l1.28125 0l0 4.203125q0 1.015625 0.078125 1.359375q0.125 0.515625 0.515625 0.8125q0.40625 0.28125 0.984375 0.28125q0.578125 0 1.078125 -0.296875q0.515625 -0.296875 0.71875 -0.8125q0.21875 -0.515625 0.21875 -1.484375l0 -4.0625l1.28125 0l0 7.59375l-1.140625 0zm3.1667328 -9.015625l0 -1.46875l1.296875 0l0 1.46875l-1.296875 0zm0 9.015625l0 -7.59375l1.296875 0l0 7.59375l-1.296875 0zm3.2405243 0l0 -7.59375l1.15625 0l0 1.140625q0.453125 -0.796875 0.828125 -1.046875q0.375 -0.265625 0.8125 -0.265625q0.65625 0 1.328125 0.40625l-0.4375 1.203125q-0.46875 -0.28125 -0.953125 -0.28125q-0.421875 0 -0.765625 0.25q-0.328125 0.25 -0.46875 0.703125q-0.21875 0.6875 -0.21875 1.5l0 3.984375l-1.28125 0zm10.099396 -2.453125l1.328125 0.171875q-0.3125 1.171875 -1.171875 1.8125q-0.84375 0.640625 -2.171875 0.640625q-1.671875 0 -2.65625 -1.015625q-0.96875 -1.03125 -0.96875 -2.890625q0 -1.921875 0.984375 -2.96875q1.0 -1.0625 2.578125 -1.0625q1.515625 0 2.484375 1.03125q0.96875 1.03125 0.96875 2.921875q0 0.109375 -0.015625 0.34375l-5.65625 0q0.0625 1.25 0.703125 1.921875q0.640625 0.65625 1.59375 0.65625q0.703125 0 1.203125 -0.359375q0.5 -0.375 0.796875 -1.203125zm-4.234375 -2.078125l4.25 0q-0.09375 -0.953125 -0.484375 -1.4375q-0.625 -0.75 -1.609375 -0.75q-0.875 0 -1.484375 0.59375q-0.609375 0.59375 -0.671875 1.59375z" fill-rule="nonzero"/><path fill="#000000" fill-opacity="0.0" d="m-301.67004 -314.32794l102.11023 0l0 33.95276l-102.11023 0z" fill-rule="evenodd"/><path fill="#000000" d="m-279.29205 -291.24796l0 -7.59375l1.15625 0l0 1.140625q0.453125 -0.796875 0.828125 -1.046875q0.375 -0.265625 0.8125 -0.265625q0.65625 0 1.328125 0.40625l-0.4375 1.203125q-0.46875 -0.28125 -0.953125 -0.28125q-0.421875 0 -0.765625 0.25q-0.328125 0.25 -0.46875 0.703125q-0.21875 0.6875 -0.21875 1.5l0 3.984375l-1.28125 0zm9.849396 -0.9375q-0.71875 0.609375 -1.375 0.859375q-0.65625 0.25 -1.421875 0.25q-1.25 0 -1.921875 -0.609375q-0.671875 -0.609375 -0.671875 -1.5625q0 -0.5625 0.25 -1.015625q0.25 -0.46875 0.65625 -0.75q0.421875 -0.28125 0.9375 -0.421875q0.375 -0.09375 1.140625 -0.1875q1.5625 -0.1875 2.296875 -0.453125q0.015625 -0.265625 0.015625 -0.328125q0 -0.796875 -0.375 -1.109375q-0.484375 -0.4375 -1.453125 -0.4375q-0.921875 0 -1.359375 0.328125q-0.421875 0.3125 -0.625 1.109375l-1.265625 -0.171875q0.171875 -0.796875 0.5625 -1.296875q0.390625 -0.5 1.140625 -0.765625q0.75 -0.265625 1.71875 -0.265625q0.984375 0 1.59375 0.234375q0.609375 0.21875 0.890625 0.5625q0.28125 0.34375 0.40625 0.875q0.0625 0.328125 0.0625 1.1875l0 1.71875q0 1.796875 0.078125 2.28125q0.078125 0.46875 0.328125 0.90625l-1.34375 0q-0.203125 -0.40625 -0.265625 -0.9375zm-0.109375 -2.875q-0.703125 0.28125 -2.09375 0.484375q-0.796875 0.109375 -1.125 0.265625q-0.328125 0.140625 -0.515625 0.421875q-0.171875 0.265625 -0.171875 0.59375q0 0.515625 0.390625 0.859375q0.390625 0.34375 1.140625 0.34375q0.734375 0 1.3125 -0.3125q0.59375 -0.328125 0.859375 -0.890625q0.203125 -0.4375 0.203125 -1.296875l0 -0.46875zm8.260468 1.03125l1.265625 0.15625q-0.203125 1.3125 -1.0625 2.0625q-0.84375 0.734375 -2.09375 0.734375q-1.5625 0 -2.515625 -1.015625q-0.9375 -1.03125 -0.9375 -2.921875q0 -1.234375 0.40625 -2.15625q0.40625 -0.921875 1.234375 -1.375q0.84375 -0.46875 1.8125 -0.46875q1.25 0 2.03125 0.625q0.78125 0.625 1.015625 1.765625l-1.265625 0.203125q-0.171875 -0.765625 -0.625 -1.15625q-0.453125 -0.390625 -1.09375 -0.390625q-0.984375 0 -1.59375 0.703125q-0.609375 0.703125 -0.609375 2.203125q0 1.53125 0.578125 2.234375q0.59375 0.6875 1.546875 0.6875q0.75 0 1.265625 -0.453125q0.515625 -0.46875 0.640625 -1.4375zm7.328125 0l1.265625 0.15625q-0.203125 1.3125 -1.0625 2.0625q-0.84375 0.734375 -2.09375 0.734375q-1.5625 0 -2.515625 -1.015625q-0.9375 -1.03125 -0.9375 -2.921875q0 -1.234375 0.40625 -2.15625q0.40625 -0.921875 1.234375 -1.375q0.84375 -0.46875 1.8125 -0.46875q1.25 0 2.03125 0.625q0.78125 0.625 1.015625 1.765625l-1.265625 0.203125q-0.171875 -0.765625 -0.625 -1.15625q-0.453125 -0.390625 -1.09375 -0.390625q-0.984375 0 -1.59375 0.703125q-0.609375 0.703125 -0.609375 2.203125q0 1.53125 0.578125 2.234375q0.59375 0.6875 1.546875 0.6875q0.75 0 1.265625 -0.453125q0.515625 -0.46875 0.640625 -1.4375zm1.890625 -1.015625q0 -2.109375 1.171875 -3.125q0.984375 -0.84375 2.390625 -0.84375q1.578125 0 2.5625 1.03125q1.0 1.015625 1.0 2.828125q0 1.46875 -0.4375 2.3125q-0.4375 0.828125 -1.28125 1.296875q-0.84375 0.46875 -1.84375 0.46875q-1.59375 0 -2.578125 -1.015625q-0.984375 -1.03125 -0.984375 -2.953125zm1.328125 0q0 1.453125 0.625 2.1875q0.640625 0.71875 1.609375 0.71875q0.96875 0 1.59375 -0.71875q0.640625 -0.734375 0.640625 -2.234375q0 -1.40625 -0.640625 -2.125q-0.640625 -0.734375 -1.59375 -0.734375q-0.96875 0 -1.609375 0.71875q-0.625 0.71875 -0.625 2.1875zm7.072983 4.421875l1.25 0.1875q0.078125 0.578125 0.4375 0.84375q0.46875 0.359375 1.3125 0.359375q0.890625 0 1.375 -0.359375q0.484375 -0.359375 0.65625 -1.0q0.109375 -0.390625 0.09375 -1.65625q-0.84375 1.0 -2.109375 1.0q-1.5625 0 -2.421875 -1.125q-0.859375 -1.140625 -0.859375 -2.71875q0 -1.09375 0.390625 -2.0q0.40625 -0.921875 1.140625 -1.421875q0.75 -0.5 1.765625 -0.5q1.34375 0 2.21875 1.078125l0 -0.90625l1.1875 0l0 6.5625q0 1.78125 -0.359375 2.515625q-0.359375 0.734375 -1.15625 1.15625q-0.78125 0.4375 -1.921875 0.4375q-1.359375 0 -2.203125 -0.609375q-0.828125 -0.609375 -0.796875 -1.84375zm1.0625 -4.5625q0 1.5 0.59375 2.1875q0.59375 0.6875 1.484375 0.6875q0.890625 0 1.484375 -0.6875q0.609375 -0.6875 0.609375 -2.140625q0 -1.390625 -0.625 -2.09375q-0.609375 -0.71875 -1.484375 -0.71875q-0.859375 0 -1.46875 0.703125q-0.59375 0.6875 -0.59375 2.0625zm7.291733 3.9375l0 -10.484375l1.28125 0l0 10.484375l-1.28125 0zm3.2873993 -9.015625l0 -1.46875l1.296875 0l0 1.46875l-1.296875 0zm0 9.015625l0 -7.59375l1.296875 0l0 7.59375l-1.296875 0zm8.459274 -2.453125l1.328125 0.171875q-0.3125 1.171875 -1.171875 1.8125q-0.84375 0.640625 -2.171875 0.640625q-1.671875 0 -2.65625 -1.015625q-0.96875 -1.03125 -0.96875 -2.890625q0 -1.921875 0.984375 -2.96875q1.0 -1.0625 2.578125 -1.0625q1.515625 0 2.484375 1.03125q0.96875 1.03125 0.96875 2.921875q0 0.109375 -0.015625 0.34375l-5.65625 0q0.0625 1.25 0.703125 1.921875q0.640625 0.65625 1.59375 0.65625q0.703125 0 1.203125 -0.359375q0.5 -0.375 0.796875 -1.203125zm-4.234375 -2.078125l4.25 0q-0.09375 -0.953125 -0.484375 -1.4375q-0.625 -0.75 -1.609375 -0.75q-0.875 0 -1.484375 0.59375q-0.609375 0.59375 -0.671875 1.59375zm7.166733 4.53125l0 -7.59375l1.15625 0l0 1.140625q0.453125 -0.796875 0.828125 -1.046875q0.375 -0.265625 0.8125 -0.265625q0.65625 0 1.328125 0.40625l-0.4375 1.203125q-0.46875 -0.28125 -0.953125 -0.28125q-0.421875 0 -0.765625 0.25q-0.328125 0.25 -0.46875 0.703125q-0.21875 0.6875 -0.21875 1.5l0 3.984375l-1.28125 0zm10.099396 -2.453125l1.328125 0.171875q-0.3125 1.171875 -1.171875 1.8125q-0.84375 0.640625 -2.171875 0.640625q-1.671875 0 -2.65625 -1.015625q-0.96875 -1.03125 -0.96875 -2.890625q0 -1.921875 0.984375 -2.96875q1.0 -1.0625 2.578125 -1.0625q1.515625 0 2.484375 1.03125q0.96875 1.03125 0.96875 2.921875q0 0.109375 -0.015625 0.34375l-5.65625 0q0.0625 1.25 0.703125 1.921875q0.640625 0.65625 1.59375 0.65625q0.703125 0 1.203125 -0.359375q0.5 -0.375 0.796875 -1.203125zm-4.234375 -2.078125l4.25 0q-0.09375 -0.953125 -0.484375 -1.4375q-0.625 -0.75 -1.609375 -0.75q-0.875 0 -1.484375 0.59375q-0.609375 0.59375 -0.671875 1.59375z" fill-rule="nonzero"/><path fill="#000000" fill-opacity="0.0" d="m-303.3971 -388.40582l104.913376 0l0 33.95273l-104.913376 0z" fill-rule="evenodd"/><path fill="#000000" d="m-274.86456 -368.1071l1.265625 0.15625q-0.203125 1.3125 -1.0625 2.0625q-0.84375 0.734375 -2.09375 0.734375q-1.5625 0 -2.515625 -1.015625q-0.9375 -1.03125 -0.9375 -2.921875q0 -1.234375 0.40625 -2.15625q0.40625 -0.921875 1.234375 -1.375q0.84375 -0.46875 1.8125 -0.46875q1.25 0 2.03125 0.625q0.78125 0.625 1.015625 1.765625l-1.265625 0.203125q-0.171875 -0.765625 -0.625 -1.15625q-0.453125 -0.390625 -1.09375 -0.390625q-0.984375 0 -1.59375 0.703125q-0.609375 0.703125 -0.609375 2.203125q0 1.53125 0.578125 2.234375q0.59375 0.6875 1.546875 0.6875q0.75 0 1.265625 -0.453125q0.515625 -0.46875 0.640625 -1.4375zm1.890625 -1.015625q0 -2.109375 1.171875 -3.125q0.984375 -0.84375 2.390625 -0.84375q1.578125 0 2.5625 1.03125q1.0 1.015625 1.0 2.828125q0 1.46875 -0.4375 2.3125q-0.4375 0.828125 -1.28125 1.296875q-0.84375 0.46875 -1.84375 0.46875q-1.59375 0 -2.578125 -1.015625q-0.984375 -1.03125 -0.984375 -2.953125zm1.328125 0q0 1.453125 0.625 2.1875q0.640625 0.71875 1.609375 0.71875q0.96875 0 1.59375 -0.71875q0.640625 -0.734375 0.640625 -2.234375q0 -1.40625 -0.640625 -2.125q-0.640625 -0.734375 -1.59375 -0.734375q-0.96875 0 -1.609375 0.71875q-0.625 0.71875 -0.625 2.1875zm7.307373 3.796875l0 -7.59375l1.15625 0l0 1.0625q0.34375 -0.5625 0.9375 -0.890625q0.609375 -0.34375 1.359375 -0.34375q0.84375 0 1.375 0.34375q0.546875 0.34375 0.765625 0.984375q0.90625 -1.328125 2.359375 -1.328125q1.1249847 0 1.7343597 0.625q0.609375 0.625 0.609375 1.921875l0 5.21875l-1.28125 0l0 -4.78125q0 -0.78125 -0.125 -1.109375q-0.125 -0.34375 -0.453125 -0.546875q-0.32810974 -0.21875 -0.78123474 -0.21875q-0.796875 0 -1.328125 0.53125q-0.53125 0.53125 -0.53125 1.703125l0 4.421875l-1.28125 0l0 -4.9375q0 -0.859375 -0.3125 -1.28125q-0.3125 -0.4375 -1.03125 -0.4375q-0.546875 0 -1.015625 0.296875q-0.453125 0.28125 -0.671875 0.828125q-0.203125 0.546875 -0.203125 1.59375l0 3.9375l-1.28125 0zm12.2087555 0l0 -7.59375l1.15625 0l0 1.0625q0.34375 -0.5625 0.9375 -0.890625q0.609375 -0.34375 1.359375 -0.34375q0.84375 0 1.375 0.34375q0.546875 0.34375 0.765625 0.984375q0.90625 -1.328125 2.359375 -1.328125q1.125 0 1.734375 0.625q0.609375 0.625 0.609375 1.921875l0 5.21875l-1.28125 0l0 -4.78125q0 -0.78125 -0.125 -1.109375q-0.125 -0.34375 -0.453125 -0.546875q-0.328125 -0.21875 -0.78125 -0.21875q-0.796875 0 -1.328125 0.53125q-0.53125 0.53125 -0.53125 1.703125l0 4.421875l-1.28125 0l0 -4.9375q0 -0.859375 -0.3125 -1.28125q-0.3125 -0.4375 -1.03125 -0.4375q-0.546875 0 -1.015625 0.296875q-0.453125 0.28125 -0.671875 0.828125q-0.203125 0.546875 -0.203125 1.59375l0 3.9375l-1.28125 0zm17.193146 0l0 -1.109375q-0.890625 1.28125 -2.421875 1.28125q-0.671875 0 -1.25 -0.25q-0.578125 -0.265625 -0.875 -0.65625q-0.28125 -0.390625 -0.390625 -0.953125q-0.078125 -0.375 -0.078125 -1.203125l0 -4.703125l1.28125 0l0 4.203125q0 1.015625 0.078125 1.359375q0.125 0.515625 0.515625 0.8125q0.40625 0.28125 0.984375 0.28125q0.578125 0 1.078125 -0.296875q0.515625 -0.296875 0.71875 -0.8125q0.21875 -0.515625 0.21875 -1.484375l0 -4.0625l1.28125 0l0 7.59375l-1.140625 0zm5.979233 -1.15625l0.1875 1.140625q-0.546875 0.109375 -0.984375 0.109375q-0.6875 0 -1.078125 -0.21875q-0.390625 -0.21875 -0.546875 -0.578125q-0.15625 -0.359375 -0.15625 -1.515625l0 -4.375l-0.953125 0l0 -1.0l0.953125 0l0 -1.890625l1.28125 -0.765625l0 2.65625l1.296875 0l0 1.0l-1.296875 0l0 4.4375q0 0.546875 0.0625 0.71875q0.078125 0.15625 0.21875 0.25q0.15625 0.078125 0.453125 0.078125q0.203125 0 0.5625 -0.046875zm6.2126007 0.21875q-0.71875 0.609375 -1.375 0.859375q-0.65625 0.25 -1.421875 0.25q-1.25 0 -1.921875 -0.609375q-0.671875 -0.609375 -0.671875 -1.5625q0 -0.5625 0.25 -1.015625q0.25 -0.46875 0.65625 -0.75q0.421875 -0.28125 0.9375 -0.421875q0.375 -0.09375 1.140625 -0.1875q1.5625 -0.1875 2.296875 -0.453125q0.015625 -0.265625 0.015625 -0.328125q0 -0.796875 -0.375 -1.109375q-0.484375 -0.4375 -1.453125 -0.4375q-0.921875 0 -1.359375 0.328125q-0.421875 0.3125 -0.625 1.109375l-1.265625 -0.171875q0.171875 -0.796875 0.5625 -1.296875q0.390625 -0.5 1.140625 -0.765625q0.75 -0.265625 1.71875 -0.265625q0.984375 0 1.59375 0.234375q0.609375 0.21875 0.890625 0.5625q0.28125 0.34375 0.40625 0.875q0.0625 0.328125 0.0625 1.1875l0 1.71875q0 1.796875 0.078125 2.28125q0.078125 0.46875 0.328125 0.90625l-1.34375 0q-0.203125 -0.40625 -0.265625 -0.9375zm-0.109375 -2.875q-0.703125 0.28125 -2.09375 0.484375q-0.796875 0.109375 -1.125 0.265625q-0.328125 0.140625 -0.515625 0.421875q-0.171875 0.265625 -0.171875 0.59375q0 0.515625 0.390625 0.859375q0.390625 0.34375 1.140625 0.34375q0.734375 0 1.3125 -0.3125q0.59375 -0.328125 0.859375 -0.890625q0.203125 -0.4375 0.203125 -1.296875l0 -0.46875zm3.2917328 3.8125l0 -7.59375l1.15625 0l0 1.140625q0.453125 -0.796875 0.828125 -1.046875q0.375 -0.265625 0.8125 -0.265625q0.65625 0 1.328125 0.40625l-0.4375 1.203125q-0.46875 -0.28125 -0.953125 -0.28125q-0.421875 0 -0.765625 0.25q-0.328125 0.25 -0.46875 0.703125q-0.21875 0.6875 -0.21875 1.5l0 3.984375l-1.28125 0zm10.099396 -2.453125l1.328125 0.171875q-0.3125 1.171875 -1.171875 1.8125q-0.84375 0.640625 -2.171875 0.640625q-1.671875 0 -2.65625 -1.015625q-0.96875 -1.03125 -0.96875 -2.890625q0 -1.921875 0.984375 -2.96875q1.0 -1.0625 2.578125 -1.0625q1.515625 0 2.484375 1.03125q0.96875 1.03125 0.96875 2.921875q0 0.109375 -0.015625 0.34375l-5.65625 0q0.0625 1.25 0.703125 1.921875q0.640625 0.65625 1.59375 0.65625q0.703125 0 1.203125 -0.359375q0.5 -0.375 0.796875 -1.203125zm-4.234375 -2.078125l4.25 0q-0.09375 -0.953125 -0.484375 -1.4375q-0.625 -0.75 -1.609375 -0.75q-0.875 0 -1.484375 0.59375q-0.609375 0.59375 -0.671875 1.59375z" fill-rule="nonzero"/><path fill="#000000" fill-opacity="0.0" d="m-293.9898 -363.3882l96.18898 0l0 27.653534l-96.18898 0z" fill-rule="evenodd"/><path fill="#000000" d="m-263.60455 -341.24573q-0.71875 0.609375 -1.375 0.859375q-0.65625 0.25 -1.421875 0.25q-1.25 0 -1.921875 -0.609375q-0.671875 -0.609375 -0.671875 -1.5625q0 -0.5625 0.25 -1.015625q0.25 -0.46875 0.65625 -0.75q0.421875 -0.28125 0.9375 -0.421875q0.375 -0.09375 1.140625 -0.1875q1.5625 -0.1875 2.296875 -0.453125q0.015625 -0.265625 0.015625 -0.328125q0 -0.796875 -0.375 -1.109375q-0.484375 -0.4375 -1.453125 -0.4375q-0.921875 0 -1.359375 0.328125q-0.421875 0.3125 -0.625 1.109375l-1.265625 -0.171875q0.171875 -0.796875 0.5625 -1.296875q0.390625 -0.5 1.140625 -0.765625q0.75 -0.265625 1.71875 -0.265625q0.984375 0 1.59375 0.234375q0.609375 0.21875 0.890625 0.5625q0.28125 0.34375 0.40625 0.875q0.0625 0.328125 0.0625 1.1875l0 1.71875q0 1.796875 0.078125 2.28125q0.078125 0.46875 0.328125 0.90625l-1.34375 0q-0.203125 -0.40625 -0.265625 -0.9375zm-0.109375 -2.875q-0.703125 0.28125 -2.09375 0.484375q-0.796875 0.109375 -1.125 0.265625q-0.328125 0.140625 -0.515625 0.421875q-0.171875 0.265625 -0.171875 0.59375q0 0.515625 0.390625 0.859375q0.390625 0.34375 1.140625 0.34375q0.734375 0 1.3125 -0.3125q0.59375 -0.328125 0.859375 -0.890625q0.203125 -0.4375 0.203125 -1.296875l0 -0.46875zm2.791748 1.546875l1.265625 -0.203125q0.109375 0.765625 0.59375 1.171875q0.5 0.40625 1.375 0.40625q0.890625 0 1.3125 -0.359375q0.4375 -0.359375 0.4375 -0.84375q0 -0.4375 -0.375 -0.6875q-0.265625 -0.171875 -1.3125 -0.4375q-1.421875 -0.359375 -1.96875 -0.609375q-0.546875 -0.265625 -0.828125 -0.734375q-0.28125 -0.46875 -0.28125 -1.015625q0 -0.515625 0.21875 -0.9375q0.234375 -0.4375 0.640625 -0.734375q0.296875 -0.21875 0.8125 -0.359375q0.53125 -0.15625 1.125 -0.15625q0.890625 0 1.5625 0.265625q0.671875 0.25 1.0 0.6875q0.328125 0.4375 0.4375 1.171875l-1.25 0.171875q-0.09375 -0.578125 -0.5 -0.90625q-0.40625 -0.34375 -1.15625 -0.34375q-0.890625 0 -1.28125 0.296875q-0.375 0.296875 -0.375 0.6875q0 0.25 0.15625 0.453125q0.15625 0.203125 0.5 0.34375q0.1875 0.078125 1.140625 0.328125q1.359375 0.359375 1.890625 0.59375q0.546875 0.234375 0.859375 0.6875q0.3125 0.4375 0.3125 1.09375q0 0.640625 -0.375 1.21875q-0.375 0.5625 -1.09375 0.875q-0.703125 0.3125 -1.59375 0.3125q-1.484375 0 -2.265625 -0.609375q-0.765625 -0.625 -0.984375 -1.828125zm7.328125 0l1.265625 -0.203125q0.109375 0.765625 0.59375 1.171875q0.5 0.40625 1.375 0.40625q0.890625 0 1.3125 -0.359375q0.4375 -0.359375 0.4375 -0.84375q0 -0.4375 -0.375 -0.6875q-0.265625 -0.171875 -1.3125 -0.4375q-1.421875 -0.359375 -1.96875 -0.609375q-0.546875 -0.265625 -0.828125 -0.734375q-0.28125 -0.46875 -0.28125 -1.015625q0 -0.515625 0.21875 -0.9375q0.234375 -0.4375 0.640625 -0.734375q0.296875 -0.21875 0.8125 -0.359375q0.53125 -0.15625 1.125 -0.15625q0.890625 0 1.5625 0.265625q0.671875 0.25 1.0 0.6875q0.328125 0.4375 0.4375 1.171875l-1.25 0.171875q-0.09375 -0.578125 -0.5 -0.90625q-0.40625 -0.34375 -1.15625 -0.34375q-0.890625 0 -1.28125 0.296875q-0.375 0.296875 -0.375 0.6875q0 0.25 0.15625 0.453125q0.15625 0.203125 0.5 0.34375q0.1875 0.078125 1.140625 0.328125q1.359375 0.359375 1.890625 0.59375q0.546875 0.234375 0.859375 0.6875q0.3125 0.4375 0.3125 1.09375q0 0.640625 -0.375 1.21875q-0.375 0.5625 -1.09375 0.875q-0.703125 0.3125 -1.59375 0.3125q-1.484375 0 -2.265625 -0.609375q-0.765625 -0.625 -0.984375 -1.828125zm7.359375 -1.53125q0 -2.109375 1.171875 -3.125q0.984375 -0.84375 2.390625 -0.84375q1.578125 0 2.5625 1.03125q1.0 1.015625 1.0 2.828125q0 1.46875 -0.4375 2.3125q-0.4375 0.828125 -1.28125 1.296875q-0.84375 0.46875 -1.84375 0.46875q-1.59375 0 -2.578125 -1.015625q-0.984375 -1.03125 -0.984375 -2.953125zm1.328125 0q0 1.453125 0.625 2.1875q0.640625 0.71875 1.609375 0.71875q0.96875 0 1.59375 -0.71875q0.640625 -0.734375 0.640625 -2.234375q0 -1.40625 -0.640625 -2.125q-0.640625 -0.734375 -1.59375 -0.734375q-0.96875 0 -1.609375 0.71875q-0.625 0.71875 -0.625 2.1875zm12.260483 1.015625l1.265625 0.15625q-0.203125 1.3125 -1.0625 2.0625q-0.84375 0.734375 -2.09375 0.734375q-1.5625 0 -2.515625 -1.015625q-0.9375 -1.03125 -0.9375 -2.921875q0 -1.234375 0.40625 -2.15625q0.40625 -0.921875 1.234375 -1.375q0.84375 -0.46875 1.8125 -0.46875q1.25 0 2.03125 0.625q0.78125 0.625 1.015625 1.765625l-1.265625 0.203125q-0.171875 -0.765625 -0.625 -1.15625q-0.453125 -0.390625 -1.09375 -0.390625q-0.984375 0 -1.59375 0.703125q-0.609375 0.703125 -0.609375 2.203125q0 1.53125 0.578125 2.234375q0.59375 0.6875 1.546875 0.6875q0.75 0 1.265625 -0.453125q0.515625 -0.46875 0.640625 -1.4375zm2.375 -6.234375l0 -1.46875l1.296875 0l0 1.46875l-1.296875 0zm0 9.015625l0 -7.59375l1.296875 0l0 7.59375l-1.296875 0zm8.209274 -0.9375q-0.71875 0.609375 -1.375 0.859375q-0.65625 0.25 -1.421875 0.25q-1.25 0 -1.921875 -0.609375q-0.671875 -0.609375 -0.671875 -1.5625q0 -0.5625 0.25 -1.015625q0.25 -0.46875 0.65625 -0.75q0.421875 -0.28125 0.9375 -0.421875q0.375 -0.09375 1.140625 -0.1875q1.5625 -0.1875 2.296875 -0.453125q0.015625 -0.265625 0.015625 -0.328125q0 -0.796875 -0.375 -1.109375q-0.484375 -0.4375 -1.453125 -0.4375q-0.921875 0 -1.359375 0.328125q-0.421875 0.3125 -0.625 1.109375l-1.265625 -0.171875q0.171875 -0.796875 0.5625 -1.296875q0.390625 -0.5 1.140625 -0.765625q0.75 -0.265625 1.71875 -0.265625q0.984375 0 1.59375 0.234375q0.609375 0.21875 0.890625 0.5625q0.28125 0.34375 0.40625 0.875q0.0625 0.328125 0.0625 1.1875l0 1.71875q0 1.796875 0.078125 2.28125q0.078125 0.46875 0.328125 0.90625l-1.34375 0q-0.203125 -0.40625 -0.265625 -0.9375zm-0.109375 -2.875q-0.703125 0.28125 -2.09375 0.484375q-0.796875 0.109375 -1.125 0.265625q-0.328125 0.140625 -0.515625 0.421875q-0.171875 0.265625 -0.171875 0.59375q0 0.515625 0.390625 0.859375q0.390625 0.34375 1.140625 0.34375q0.734375 0 1.3125 -0.3125q0.59375 -0.328125 0.859375 -0.890625q0.203125 -0.4375 0.203125 -1.296875l0 -0.46875zm3.2917328 3.8125l0 -7.59375l1.15625 0l0 1.140625q0.453125 -0.796875 0.828125 -1.046875q0.375 -0.265625 0.8125 -0.265625q0.65625 0 1.328125 0.40625l-0.4375 1.203125q-0.46875 -0.28125 -0.953125 -0.28125q-0.421875 0 -0.765625 0.25q-0.328125 0.25 -0.46875 0.703125q-0.21875 0.6875 -0.21875 1.5l0 3.984375l-1.28125 0zm10.099396 -2.453125l1.328125 0.171875q-0.3125 1.171875 -1.171875 1.8125q-0.84375 0.640625 -2.171875 0.640625q-1.671875 0 -2.65625 -1.015625q-0.96875 -1.03125 -0.96875 -2.890625q0 -1.921875 0.984375 -2.96875q1.0 -1.0625 2.578125 -1.0625q1.515625 0 2.484375 1.03125q0.96875 1.03125 0.96875 2.921875q0 0.109375 -0.015625 0.34375l-5.65625 0q0.0625 1.25 0.703125 1.921875q0.640625 0.65625 1.59375 0.65625q0.703125 0 1.203125 -0.359375q0.5 -0.375 0.796875 -1.203125zm-4.234375 -2.078125l4.25 0q-0.09375 -0.953125 -0.484375 -1.4375q-0.625 -0.75 -1.609375 -0.75q-0.875 0 -1.484375 0.59375q-0.609375 0.59375 -0.671875 1.59375z" fill-rule="nonzero"/><path fill="#000000" fill-opacity="0.0" d="m-282.3025 -291.08063l88.063 0l0 35.307068l-88.063 0z" fill-rule="evenodd"/><path fill="#000000" d="m-261.43283 -270.26627l1.265625 -0.203125q0.109375 0.765625 0.59375 1.171875q0.5 0.40625 1.375 0.40625q0.890625 0 1.3125 -0.359375q0.4375 -0.359375 0.4375 -0.84375q0 -0.4375 -0.375 -0.6875q-0.265625 -0.171875 -1.3125 -0.4375q-1.421875 -0.359375 -1.96875 -0.609375q-0.546875 -0.265625 -0.828125 -0.734375q-0.28125 -0.46875 -0.28125 -1.015625q0 -0.515625 0.21875 -0.9375q0.234375 -0.4375 0.640625 -0.734375q0.296875 -0.21875 0.8125 -0.359375q0.53125 -0.15625 1.125 -0.15625q0.890625 0 1.5625 0.265625q0.671875 0.25 1.0 0.6875q0.328125 0.4375 0.4375 1.171875l-1.25 0.171875q-0.09375 -0.578125 -0.5 -0.90625q-0.40625 -0.34375 -1.15625 -0.34375q-0.890625 0 -1.28125 0.296875q-0.375 0.296875 -0.375 0.6875q0 0.25 0.15625 0.453125q0.15625 0.203125 0.5 0.34375q0.1875 0.078125 1.140625 0.328125q1.359375 0.359375 1.890625 0.59375q0.546875 0.234375 0.859375 0.6875q0.3125 0.4375 0.3125 1.09375q0 0.640625 -0.375 1.21875q-0.375 0.5625 -1.09375 0.875q-0.703125 0.3125 -1.59375 0.3125q-1.484375 0 -2.265625 -0.609375q-0.765625 -0.625 -0.984375 -1.828125zm7.359375 -1.53125q0 -2.109375 1.171875 -3.125q0.984375 -0.84375 2.390625 -0.84375q1.578125 0 2.5625 1.03125q1.0 1.015625 1.0 2.828125q0 1.46875 -0.4375 2.3125q-0.4375 0.828125 -1.28125 1.296875q-0.84375 0.46875 -1.84375 0.46875q-1.59375 0 -2.578125 -1.015625q-0.984375 -1.03125 -0.984375 -2.953125zm1.328125 0q0 1.453125 0.625 2.1875q0.640625 0.71875 1.609375 0.71875q0.96875 0 1.59375 -0.71875q0.640625 -0.734375 0.640625 -2.234375q0 -1.40625 -0.640625 -2.125q-0.640625 -0.734375 -1.59375 -0.734375q-0.96875 0 -1.609375 0.71875q-0.625 0.71875 -0.625 2.1875zm6.791733 1.53125l1.265625 -0.203125q0.109375 0.765625 0.59375 1.171875q0.5 0.40625 1.375 0.40625q0.890625 0 1.3125 -0.359375q0.4375 -0.359375 0.4375 -0.84375q0 -0.4375 -0.375 -0.6875q-0.265625 -0.171875 -1.3125 -0.4375q-1.421875 -0.359375 -1.96875 -0.609375q-0.546875 -0.265625 -0.828125 -0.734375q-0.28125 -0.46875 -0.28125 -1.015625q0 -0.515625 0.21875 -0.9375q0.234375 -0.4375 0.640625 -0.734375q0.296875 -0.21875 0.8125 -0.359375q0.53125 -0.15625 1.125 -0.15625q0.890625 0 1.5625 0.265625q0.671875 0.25 1.0 0.6875q0.328125 0.4375 0.4375 1.171875l-1.25 0.171875q-0.09375 -0.578125 -0.5 -0.90625q-0.40625 -0.34375 -1.15625 -0.34375q-0.890625 0 -1.28125 0.296875q-0.375 0.296875 -0.375 0.6875q0 0.25 0.15625 0.453125q0.15625 0.203125 0.5 0.34375q0.1875 0.078125 1.140625 0.328125q1.359375 0.359375 1.890625 0.59375q0.546875 0.234375 0.859375 0.6875q0.3125 0.4375 0.3125 1.09375q0 0.640625 -0.375 1.21875q-0.375 0.5625 -1.09375 0.875q-0.703125 0.3125 -1.59375 0.3125q-1.484375 0 -2.265625 -0.609375q-0.765625 -0.625 -0.984375 -1.828125zm10.65625 1.109375l0.1875 1.140625q-0.546875 0.109375 -0.984375 0.109375q-0.6875 0 -1.078125 -0.21875q-0.390625 -0.21875 -0.546875 -0.578125q-0.15625 -0.359375 -0.15625 -1.515625l0 -4.375l-0.953125 0l0 -1.0l0.953125 0l0 -1.890625l1.28125 -0.765625l0 2.65625l1.296875 0l0 1.0l-1.296875 0l0 4.4375q0 0.546875 0.0625 0.71875q0.078125 0.15625 0.21875 0.25q0.15625 0.078125 0.453125 0.078125q0.203125 0 0.5625 -0.046875zm1.2594757 -7.859375l0 -1.46875l1.296875 0l0 1.46875l-1.296875 0zm0 9.015625l0 -7.59375l1.296875 0l0 7.59375l-1.296875 0zm6.0686493 -1.15625l0.1875 1.140625q-0.546875 0.109375 -0.984375 0.109375q-0.6875 0 -1.078125 -0.21875q-0.390625 -0.21875 -0.546875 -0.578125q-0.15625 -0.359375 -0.15625 -1.515625l0 -4.375l-0.953125 0l0 -1.0l0.953125 0l0 -1.890625l1.28125 -0.765625l0 2.65625l1.296875 0l0 1.0l-1.296875 0l0 4.4375q0 0.546875 0.0625 0.71875q0.078125 0.15625 0.21875 0.25q0.15625 0.078125 0.453125 0.078125q0.203125 0 0.5625 -0.046875zm6.2438507 1.15625l0 -1.109375q-0.890625 1.28125 -2.421875 1.28125q-0.671875 0 -1.25 -0.25q-0.578125 -0.265625 -0.875 -0.65625q-0.28125 -0.390625 -0.390625 -0.953125q-0.078125 -0.375 -0.078125 -1.203125l0 -4.703125l1.28125 0l0 4.203125q0 1.015625 0.078125 1.359375q0.125 0.515625 0.515625 0.8125q0.40625 0.28125 0.984375 0.28125q0.578125 0 1.078125 -0.296875q0.515625 -0.296875 0.71875 -0.8125q0.21875 -0.515625 0.21875 -1.484375l0 -4.0625l1.28125 0l0 7.59375l-1.140625 0zm3.1667328 -9.015625l0 -1.46875l1.296875 0l0 1.46875l-1.296875 0zm0 9.015625l0 -7.59375l1.296875 0l0 7.59375l-1.296875 0zm3.2405243 0l0 -7.59375l1.15625 0l0 1.140625q0.453125 -0.796875 0.828125 -1.046875q0.375 -0.265625 0.8125 -0.265625q0.65625 0 1.328125 0.40625l-0.4375 1.203125q-0.46875 -0.28125 -0.953125 -0.28125q-0.421875 0 -0.765625 0.25q-0.328125 0.25 -0.46875 0.703125q-0.21875 0.6875 -0.21875 1.5l0 3.984375l-1.28125 0zm10.099396 -2.453125l1.328125 0.171875q-0.3125 1.171875 -1.171875 1.8125q-0.84375 0.640625 -2.171875 0.640625q-1.671875 0 -2.65625 -1.015625q-0.96875 -1.03125 -0.96875 -2.890625q0 -1.921875 0.984375 -2.96875q1.0 -1.0625 2.578125 -1.0625q1.515625 0 2.484375 1.03125q0.96875 1.03125 0.96875 2.921875q0 0.109375 -0.015625 0.34375l-5.65625 0q0.0625 1.25 0.703125 1.921875q0.640625 0.65625 1.59375 0.65625q0.703125 0 1.203125 -0.359375q0.5 -0.375 0.796875 -1.203125zm-4.234375 -2.078125l4.25 0q-0.09375 -0.953125 -0.484375 -1.4375q-0.625 -0.75 -1.609375 -0.75q-0.875 0 -1.484375 0.59375q-0.609375 0.59375 -0.671875 1.59375z" fill-rule="nonzero"/><path fill="#ffffff" d="m266.38242 -245.92003l48.0 0l0 -23.999985l-48.0 0z" fill-rule="evenodd"/><path stroke="#000000" stroke-width="1.0" stroke-linejoin="round" stroke-linecap="butt" d="m266.38242 -245.92003l48.0 0l0 -23.999985l-48.0 0z" fill-rule="evenodd"/><path fill="#000000" fill-opacity="0.0" d="m290.89838 -248.7788l19.4534 -8.675552" fill-rule="evenodd"/><path stroke="#000000" stroke-width="2.0" stroke-linejoin="round" stroke-linecap="butt" d="m301.8579 -253.66638l8.493866 -3.7879639" fill-rule="evenodd"/><path fill="#000000" stroke="#000000" stroke-width="2.0" stroke-linecap="butt" d="m300.51242 -256.6834l-6.943756 6.7137604l9.634735 -0.6796875z" fill-rule="evenodd"/><path fill="#000000" fill-opacity="0.0" d="m290.3797 -247.9224l0 -20.696991" fill-rule="evenodd"/><path stroke="#000000" stroke-width="2.0" stroke-linejoin="round" stroke-linecap="butt" d="m290.3797 -259.9224l0 -8.6970215" fill-rule="evenodd"/><path fill="#000000" stroke="#000000" stroke-width="2.0" stroke-linecap="butt" d="m287.07623 -259.9224l3.3034668 9.076202l3.3034668 -9.076202z" fill-rule="evenodd"/><path fill="#000000" fill-opacity="0.0" d="m289.8665 -248.7788l-19.4534 -8.675552" fill-rule="evenodd"/><path stroke="#000000" stroke-width="2.0" stroke-linejoin="round" stroke-linecap="butt" d="m278.90692 -253.66638l-8.493835 -3.7879639" fill-rule="evenodd"/><path fill="#000000" stroke="#000000" stroke-width="2.0" stroke-linecap="butt" d="m277.56143 -250.64934l9.634735 0.6796875l-6.9437256 -6.7137604z" fill-rule="evenodd"/><path fill="#000000" d="m288.9738 -248.61229l0 0c0 0.7685852 0.6230774 1.3916473 1.3916626 1.3916473l0 0c0.3690796 0 0.723053 -0.1466217 0.9840393 -0.40760803c0.26098633 -0.26098633 0.40759277 -0.6149597 0.40759277 -0.9840393l0 0c0 -0.7685852 -0.6230469 -1.3916473 -1.3916321 -1.3916473l0 0c-0.7685852 0 -1.3916626 0.62306213 -1.3916626 1.3916473z" fill-rule="evenodd"/><path stroke="#000000" stroke-width="1.0" stroke-linejoin="round" stroke-linecap="butt" d="m288.9738 -248.61229l0 0c0 0.7685852 0.6230774 1.3916473 1.3916626 1.3916473l0 0c0.3690796 0 0.723053 -0.1466217 0.9840393 -0.40760803c0.26098633 -0.26098633 0.40759277 -0.6149597 0.40759277 -0.9840393l0 0c0 -0.7685852 -0.6230469 -1.3916473 -1.3916321 -1.3916473l0 0c-0.7685852 0 -1.3916626 0.62306213 -1.3916626 1.3916473z" fill-rule="evenodd"/><path fill="#ffffff" d="m218.38243 -245.92003l47.999985 0l0 -23.999985l-47.999985 0z" fill-rule="evenodd"/><path stroke="#000000" stroke-width="1.0" stroke-linejoin="round" stroke-linecap="butt" d="m218.38243 -245.92003l47.999985 0l0 -23.999985l-47.999985 0z" fill-rule="evenodd"/><path fill="#000000" fill-opacity="0.0" d="m242.89838 -248.7788l19.4534 -8.675552" fill-rule="evenodd"/><path stroke="#000000" stroke-width="2.0" stroke-linejoin="round" stroke-linecap="butt" d="m253.85793 -253.66638l8.493851 -3.7879639" fill-rule="evenodd"/><path fill="#000000" stroke="#000000" stroke-width="2.0" stroke-linecap="butt" d="m252.51242 -256.6834l-6.943756 6.7137604l9.63475 -0.6796875z" fill-rule="evenodd"/><path fill="#000000" fill-opacity="0.0" d="m242.3797 -247.9224l0 -20.696991" fill-rule="evenodd"/><path stroke="#000000" stroke-width="2.0" stroke-linejoin="round" stroke-linecap="butt" d="m242.3797 -259.9224l0 -8.6970215" fill-rule="evenodd"/><path fill="#000000" stroke="#000000" stroke-width="2.0" stroke-linecap="butt" d="m239.07623 -259.9224l3.3034668 9.076202l3.3034668 -9.076202z" fill-rule="evenodd"/><path fill="#000000" fill-opacity="0.0" d="m241.86649 -248.7788l-19.453415 -8.675552" fill-rule="evenodd"/><path stroke="#000000" stroke-width="2.0" stroke-linejoin="round" stroke-linecap="butt" d="m230.90692 -253.66638l-8.493851 -3.7879639" fill-rule="evenodd"/><path fill="#000000" stroke="#000000" stroke-width="2.0" stroke-linecap="butt" d="m229.56143 -250.64934l9.634735 0.6796875l-6.943741 -6.7137604z" fill-rule="evenodd"/><path fill="#000000" d="m240.9738 -248.61229l0 0c0 0.7685852 0.62306213 1.3916473 1.3916473 1.3916473l0 0c0.3690796 0 0.723053 -0.1466217 0.9840393 -0.40760803c0.26098633 -0.26098633 0.40759277 -0.6149597 0.40759277 -0.9840393l0 0c0 -0.7685852 -0.6230469 -1.3916473 -1.3916321 -1.3916473l0 0c-0.7685852 0 -1.3916473 0.62306213 -1.3916473 1.3916473z" fill-rule="evenodd"/><path stroke="#000000" stroke-width="1.0" stroke-linejoin="round" stroke-linecap="butt" d="m240.9738 -248.61229l0 0c0 0.7685852 0.62306213 1.3916473 1.3916473 1.3916473l0 0c0.3690796 0 0.723053 -0.1466217 0.9840393 -0.40760803c0.26098633 -0.26098633 0.40759277 -0.6149597 0.40759277 -0.9840393l0 0c0 -0.7685852 -0.6230469 -1.3916473 -1.3916321 -1.3916473l0 0c-0.7685852 0 -1.3916473 0.62306213 -1.3916473 1.3916473z" fill-rule="evenodd"/><path fill="#ffffff" d="m266.38242 -269.92l48.0 0l0 -24.0l-48.0 0z" fill-rule="evenodd"/><path stroke="#000000" stroke-width="1.0" stroke-linejoin="round" stroke-linecap="butt" d="m266.38242 -269.92l48.0 0l0 -24.0l-48.0 0z" fill-rule="evenodd"/><path fill="#000000" fill-opacity="0.0" d="m290.89838 -272.77878l19.4534 -8.675568" fill-rule="evenodd"/><path stroke="#000000" stroke-width="2.0" stroke-linejoin="round" stroke-linecap="butt" d="m290.89838 -272.77878l8.493866 -3.7879944" fill-rule="evenodd"/><path fill="#000000" stroke="#000000" stroke-width="2.0" stroke-linecap="butt" d="m300.73773 -273.54974l6.943756 -6.713745l-9.634735 0.6796875z" fill-rule="evenodd"/><path fill="#000000" fill-opacity="0.0" d="m290.3797 -271.9224l0 -20.696991" fill-rule="evenodd"/><path stroke="#000000" stroke-width="2.0" stroke-linejoin="round" stroke-linecap="butt" d="m290.3797 -271.9224l0 -8.6970215" fill-rule="evenodd"/><path fill="#000000" stroke="#000000" stroke-width="2.0" stroke-linecap="butt" d="m293.68317 -280.61942l-3.3034668 -9.076172l-3.3034668 9.076172z" fill-rule="evenodd"/><path fill="#000000" fill-opacity="0.0" d="m289.8665 -272.77878l-19.4534 -8.675568" fill-rule="evenodd"/><path stroke="#000000" stroke-width="2.0" stroke-linejoin="round" stroke-linecap="butt" d="m289.86646 -272.77878l-8.493835 -3.7879944" fill-rule="evenodd"/><path fill="#000000" stroke="#000000" stroke-width="2.0" stroke-linecap="butt" d="m282.7181 -279.5838l-9.634735 -0.6796875l6.943756 6.713745z" fill-rule="evenodd"/><path fill="#000000" d="m288.9738 -272.6123l0 0c0 0.7685852 0.6230774 1.3916626 1.3916626 1.3916626l0 0c0.3690796 0 0.723053 -0.14663696 0.9840393 -0.4076233c0.26098633 -0.2609558 0.40759277 -0.6149292 0.40759277 -0.9840393l0 0c0 -0.7685852 -0.6230469 -1.3916321 -1.3916321 -1.3916321l0 0c-0.7685852 0 -1.3916626 0.6230469 -1.3916626 1.3916321z" fill-rule="evenodd"/><path stroke="#000000" stroke-width="1.0" stroke-linejoin="round" stroke-linecap="butt" d="m288.9738 -272.6123l0 0c0 0.7685852 0.6230774 1.3916626 1.3916626 1.3916626l0 0c0.3690796 0 0.723053 -0.14663696 0.9840393 -0.4076233c0.26098633 -0.2609558 0.40759277 -0.6149292 0.40759277 -0.9840393l0 0c0 -0.7685852 -0.6230469 -1.3916321 -1.3916321 -1.3916321l0 0c-0.7685852 0 -1.3916626 0.6230469 -1.3916626 1.3916321z" fill-rule="evenodd"/><path fill="#ffffff" d="m218.38243 -293.92l47.999985 0l0 24.0l-47.999985 0z" fill-rule="evenodd"/><path stroke="#000000" stroke-width="1.0" stroke-linejoin="round" stroke-linecap="butt" d="m218.38243 -293.92l47.999985 0l0 24.0l-47.999985 0z" fill-rule="evenodd"/><path fill="#000000" fill-opacity="0.0" d="m242.89838 -291.06125l19.46457 8.661407" fill-rule="evenodd"/><path stroke="#000000" stroke-width="2.0" stroke-linejoin="round" stroke-linecap="butt" d="m242.89838 -291.06128l8.501022 3.7828064" fill-rule="evenodd"/><path fill="#000000" stroke="#000000" stroke-width="2.0" stroke-linecap="butt" d="m250.05638 -284.2603l9.6353 0.67178345l-6.9492645 -6.708069z" fill-rule="evenodd"/><path fill="#000000" fill-opacity="0.0" d="m242.3797 -291.91766l0 20.692932" fill-rule="evenodd"/><path stroke="#000000" stroke-width="2.0" stroke-linejoin="round" stroke-linecap="butt" d="m242.3797 -291.91766l0 8.692932" fill-rule="evenodd"/><path fill="#000000" stroke="#000000" stroke-width="2.0" stroke-linecap="butt" d="m239.07623 -283.22473l3.3034668 9.076202l3.3034668 -9.076202z" fill-rule="evenodd"/><path fill="#000000" fill-opacity="0.0" d="m241.86649 -291.06125l-19.46457 8.661407" fill-rule="evenodd"/><path stroke="#000000" stroke-width="2.0" stroke-linejoin="round" stroke-linecap="butt" d="m241.86647 -291.06128l-8.501022 3.7828064" fill-rule="evenodd"/><path fill="#000000" stroke="#000000" stroke-width="2.0" stroke-linecap="butt" d="m232.02242 -290.2966l-6.949234 6.708069l9.635284 -0.67178345z" fill-rule="evenodd"/><path fill="#000000" d="m240.9738 -291.23358l0 0c0 -0.76535034 0.6204529 -1.3858032 1.3858185 -1.3858032l0 0c0.3675537 0 0.720047 0.1459961 0.9799347 0.4058838c0.2598877 0.2598877 0.40589905 0.61239624 0.40589905 0.97991943l0 0c0 0.76538086 -0.6204529 1.3858337 -1.3858337 1.3858337l0 0c-0.7653656 0 -1.3858185 -0.6204529 -1.3858185 -1.3858337z" fill-rule="evenodd"/><path stroke="#000000" stroke-width="1.0" stroke-linejoin="round" stroke-linecap="butt" d="m240.9738 -291.23358l0 0c0 -0.76535034 0.6204529 -1.3858032 1.3858185 -1.3858032l0 0c0.3675537 0 0.720047 0.1459961 0.9799347 0.4058838c0.2598877 0.2598877 0.40589905 0.61239624 0.40589905 0.97991943l0 0c0 0.76538086 -0.6204529 1.3858337 -1.3858337 1.3858337l0 0c-0.7653656 0 -1.3858185 -0.6204529 -1.3858185 -1.3858337z" fill-rule="evenodd"/><path fill="#ffffff" d="m218.38243 -317.92l47.999985 0l0 24.0l-47.999985 0z" fill-rule="evenodd"/><path stroke="#000000" stroke-width="1.0" stroke-linejoin="round" stroke-linecap="butt" d="m218.38243 -317.92l47.999985 0l0 24.0l-47.999985 0z" fill-rule="evenodd"/><path fill="#ffffff" d="m216.6029 -376.0302l0 0c0 -1.4901733 1.2080231 -2.6982117 2.6982117 -2.6982117l35.894913 0c0.7156067 0 1.4019012 0.28427124 1.9079132 0.7902832c0.50601196 0.50601196 0.7902832 1.1923218 0.7902832 1.9079285l0 10.7925415c0 1.4902039 -1.2080078 2.6982117 -2.6981964 2.6982117l-35.894913 0l0 0c-1.4901886 0 -2.6982117 -1.2080078 -2.6982117 -2.6982117z" fill-rule="evenodd"/><path stroke="#000000" stroke-width="1.0" stroke-linejoin="round" stroke-linecap="butt" d="m216.6029 -376.0302l0 0c0 -1.4901733 1.2080231 -2.6982117 2.6982117 -2.6982117l35.894913 0c0.7156067 0 1.4019012 0.28427124 1.9079132 0.7902832c0.50601196 0.50601196 0.7902832 1.1923218 0.7902832 1.9079285l0 10.7925415c0 1.4902039 -1.2080078 2.6982117 -2.6981964 2.6982117l-35.894913 0l0 0c-1.4901886 0 -2.6982117 -1.2080078 -2.6982117 -2.6982117z" fill-rule="evenodd"/><path fill="#ffffff" d="m232.86537 -374.50266l0 0c0 -1.0350342 0.83903503 -1.874054 1.874054 -1.874054l19.18103 0c0.49702454 0 0.97369385 0.19744873 1.3251495 0.54888916c0.3514557 0.35144043 0.5489044 0.828125 0.5489044 1.3251648l0 7.4959717c0 1.0350342 -0.8390503 1.874054 -1.874054 1.874054l-19.18103 0l0 0c-1.0350189 0 -1.874054 -0.8390198 -1.874054 -1.874054z" fill-rule="evenodd"/><path stroke="#999999" stroke-width="1.0" stroke-linejoin="round" stroke-linecap="butt" d="m232.86537 -374.50266l0 0c0 -1.0350342 0.83903503 -1.874054 1.874054 -1.874054l19.18103 0c0.49702454 0 0.97369385 0.19744873 1.3251495 0.54888916c0.3514557 0.35144043 0.5489044 0.828125 0.5489044 1.3251648l0 7.4959717c0 1.0350342 -0.8390503 1.874054 -1.874054 1.874054l-19.18103 0l0 0c-1.0350189 0 -1.874054 -0.8390198 -1.874054 -1.874054z" fill-rule="evenodd"/><path fill="#000000" fill-opacity="0.0" d="m224.74835 -296.23212l0 0c-0.9579468 0 -1.7345123 -1.1112976 -1.7345123 -2.4821472l0 -14.711975l0 0c0 -1.3708496 0.77656555 -2.4821472 1.7345123 -2.4821472z" fill-rule="evenodd"/><path fill="#000000" fill-opacity="0.0" d="m224.74835 -296.23212l0 0c-0.9579468 0 -1.7345123 -1.1112976 -1.7345123 -2.4821472l0 -14.711975l0 0c0 -1.3708496 0.77656555 -2.4821472 1.7345123 -2.4821472" fill-rule="evenodd"/><path stroke="#000000" stroke-width="2.0" stroke-linejoin="round" stroke-linecap="butt" d="m224.74835 -296.23212l0 0c-0.9579468 0 -1.7345123 -1.1112976 -1.7345123 -2.4821472l0 -14.711975l0 0c0 -1.3708496 0.77656555 -2.4821472 1.7345123 -2.4821472" fill-rule="evenodd"/><path fill="#000000" fill-opacity="0.0" d="m260.99384 -296.23212l0 0c0.9579468 0 1.7345276 -1.1112976 1.7345276 -2.4821472l0 -14.711975l0 0c0 -1.3708496 -0.7765808 -2.4821472 -1.7345276 -2.4821472z" fill-rule="evenodd"/><path fill="#000000" fill-opacity="0.0" d="m260.99384 -296.23212l0 0c0.9579468 0 1.7345276 -1.1112976 1.7345276 -2.4821472l0 -14.711975l0 0c0 -1.3708496 -0.7765808 -2.4821472 -1.7345276 -2.4821472" fill-rule="evenodd"/><path stroke="#000000" stroke-width="2.0" stroke-linejoin="round" stroke-linecap="butt" d="m260.99384 -296.23212l0 0c0.9579468 0 1.7345276 -1.1112976 1.7345276 -2.4821472l0 -14.711975l0 0c0 -1.3708496 -0.7765808 -2.4821472 -1.7345276 -2.4821472" fill-rule="evenodd"/><path fill="#000000" fill-opacity="0.0" d="m240.68466 -299.81732l0 0c-0.9579468 0 -1.7345276 -1.1112976 -1.7345276 -2.4821472l0 -7.541565l0 0c0 -1.3708496 0.7765808 -2.4821472 1.7345276 -2.4821472z" fill-rule="evenodd"/><path fill="#000000" fill-opacity="0.0" d="m240.68466 -299.81732l0 0c-0.9579468 0 -1.7345276 -1.1112976 -1.7345276 -2.4821472l0 -7.541565l0 0c0 -1.3708496 0.7765808 -2.4821472 1.7345276 -2.4821472" fill-rule="evenodd"/><path stroke="#b7b7b7" stroke-width="2.0" stroke-linejoin="round" stroke-linecap="butt" d="m240.68466 -299.81732l0 0c-0.9579468 0 -1.7345276 -1.1112976 -1.7345276 -2.4821472l0 -7.541565l0 0c0 -1.3708496 0.7765808 -2.4821472 1.7345276 -2.4821472" fill-rule="evenodd"/><path fill="#000000" fill-opacity="0.0" d="m257.36526 -299.81732l0 0c0.9579468 0 1.7345276 -1.1112976 1.7345276 -2.4821472l0 -7.541565l0 0c0 -1.3708496 -0.7765808 -2.4821472 -1.7345276 -2.4821472z" fill-rule="evenodd"/><path fill="#000000" fill-opacity="0.0" d="m257.36526 -299.81732l0 0c0.9579468 0 1.7345276 -1.1112976 1.7345276 -2.4821472l0 -7.541565l0 0c0 -1.3708496 -0.7765808 -2.4821472 -1.7345276 -2.4821472" fill-rule="evenodd"/><path stroke="#b7b7b7" stroke-width="2.0" stroke-linejoin="round" stroke-linecap="butt" d="m257.36526 -299.81732l0 0c0.9579468 0 1.7345276 -1.1112976 1.7345276 -2.4821472l0 -7.541565l0 0c0 -1.3708496 -0.7765808 -2.4821472 -1.7345276 -2.4821472" fill-rule="evenodd"/><path fill="#ffffff" d="m218.38243 -341.92l47.999985 0l0 24.0l-47.999985 0z" fill-rule="evenodd"/><path stroke="#000000" stroke-width="1.0" stroke-linejoin="round" stroke-linecap="butt" d="m218.38243 -341.92l47.999985 0l0 24.0l-47.999985 0z" fill-rule="evenodd"/><path fill="#000000" fill-opacity="0.0" d="m229.45348 -332.35852l0 0c2.0608063 -2.892395 5.852951 -4.8937073 10.224915 -5.3962097c4.3719788 -0.50250244 8.807922 0.5531311 11.960846 2.846283l-9.810989 7.3616333z" fill-rule="evenodd"/><path fill="#000000" fill-opacity="0.0" d="m229.45348 -332.35852l0 0c2.0608063 -2.892395 5.852951 -4.8937073 10.224915 -5.3962097c4.3719788 -0.50250244 8.807922 0.5531311 11.960846 2.846283" fill-rule="evenodd"/><path stroke="#000000" stroke-width="2.0" stroke-linejoin="round" stroke-linecap="butt" d="m229.45348 -332.35852l0 0c2.060791 -2.892395 5.852951 -4.8937073 10.224915 -5.3962097c1.0930023 -0.12561035 2.1899872 -0.15386963 3.2699432 -0.0897522l0.17897034 0.012573242" fill-rule="evenodd"/><path fill="#000000" stroke="#000000" stroke-width="2.0" stroke-linecap="butt" d="m242.40892 -335.74026l6.4650726 -0.11791992l-5.0283203 -4.065338z" fill-rule="evenodd"/><path fill="#ffffff" d="m251.55463 -330.6838l0 0c0 1.3220215 1.0716858 2.3937073 2.393692 2.3937073l0 0c0.6348572 0 1.2436981 -0.25219727 1.6925964 -0.70111084c0.44892883 -0.44888306 0.7010956 -1.0577393 0.7010956 -1.6925964l0 0c0 -1.321991 -1.0716858 -2.3937073 -2.393692 -2.3937073l0 0c-1.3220062 0 -2.393692 1.0717163 -2.393692 2.3937073z" fill-rule="evenodd"/><path stroke="#000000" stroke-width="2.0" stroke-linejoin="round" stroke-linecap="butt" d="m251.55463 -330.6838l0 0c0 1.3220215 1.0716858 2.3937073 2.393692 2.3937073l0 0c0.6348572 0 1.2436981 -0.25219727 1.6925964 -0.70111084c0.44892883 -0.44888306 0.7010956 -1.0577393 0.7010956 -1.6925964l0 0c0 -1.321991 -1.0716858 -2.3937073 -2.393692 -2.3937073l0 0c-1.3220062 0 -2.393692 1.0717163 -2.393692 2.3937073z" fill-rule="evenodd"/><path fill="#ffffff" d="m230.09587 -329.14172l0 0c0 -1.321991 -1.0716858 -2.3937073 -2.393692 -2.3937073l0 0c-0.6348572 0 -1.2436981 0.25219727 -1.6925964 0.70111084c-0.44891357 0.44891357 -0.70111084 1.0577393 -0.70111084 1.6925964l0 0c0 1.3220215 1.071701 2.3937073 2.3937073 2.3937073l0 0c1.3220062 0 2.393692 -1.0716858 2.393692 -2.3937073z" fill-rule="evenodd"/><path stroke="#000000" stroke-width="2.0" stroke-linejoin="round" stroke-linecap="butt" d="m230.09587 -329.14172l0 0c0 -1.321991 -1.0716858 -2.3937073 -2.393692 -2.3937073l0 0c-0.6348572 0 -1.2436981 0.25219727 -1.6925964 0.70111084c-0.44891357 0.44891357 -0.70111084 1.0577393 -0.70111084 1.6925964l0 0c0 1.3220215 1.071701 2.3937073 2.3937073 2.3937073l0 0c1.3220062 0 2.393692 -1.0716858 2.393692 -2.3937073z" fill-rule="evenodd"/><path fill="#000000" fill-opacity="0.0" d="m252.57802 -327.54764l0 0c-2.0608215 2.8924255 -5.8529663 4.8937073 -10.22493 5.3962097c-4.3719635 0.50250244 -8.807922 -0.5531311 -11.960846 -2.846283l9.811005 -7.361603z" fill-rule="evenodd"/><path fill="#000000" fill-opacity="0.0" d="m252.57802 -327.54764l0 0c-2.0608215 2.8924255 -5.8529663 4.8937073 -10.22493 5.3962097c-4.3719635 0.50250244 -8.807922 -0.5531311 -11.960846 -2.846283" fill-rule="evenodd"/><path stroke="#000000" stroke-width="2.0" stroke-linejoin="round" stroke-linecap="butt" d="m252.57802 -327.54764l0 0c-2.0608215 2.8924255 -5.8529663 4.893738 -10.224945 5.3962097c-1.0929871 0.12564087 -2.189972 0.15386963 -3.269928 0.08972168l-0.17893982 -0.012542725" fill-rule="evenodd"/><path fill="#000000" stroke="#000000" stroke-width="2.0" stroke-linecap="butt" d="m239.62257 -324.1659l-6.4650726 0.11791992l5.0283356 4.065338z" fill-rule="evenodd"/><path fill="#ffffff" d="m329.7105 -267.7184l48.0 0l0 -24.0l-48.0 0z" fill-rule="evenodd"/><path stroke="#000000" stroke-width="1.0" stroke-linejoin="round" stroke-linecap="butt" d="m329.7105 -267.7184l48.0 0l0 -24.0l-48.0 0z" fill-rule="evenodd"/><path fill="#ffffff" d="m329.7105 -315.7184l48.0 0l0 24.0l-48.0 0z" fill-rule="evenodd"/><path stroke="#000000" stroke-width="1.0" stroke-linejoin="round" stroke-linecap="butt" d="m329.7105 -315.7184l48.0 0l0 24.0l-48.0 0z" fill-rule="evenodd"/><path fill="#000000" fill-opacity="0.0" d="m354.11115 -310.815l15.114227 6.725586" fill-rule="evenodd"/><path stroke="#000000" stroke-width="1.0" stroke-linejoin="round" stroke-linecap="butt" d="m354.11115 -310.815l9.632446 4.2862854" fill-rule="evenodd"/><path fill="#000000" stroke="#000000" stroke-width="1.0" stroke-linecap="butt" d="m363.0721 -305.01962l4.8176575 0.33587646l-3.47464 -3.3540344z" fill-rule="evenodd"/><path fill="#000000" fill-opacity="0.0" d="m353.70837 -311.47998l0 16.068054" fill-rule="evenodd"/><path stroke="#000000" stroke-width="1.0" stroke-linejoin="round" stroke-linecap="butt" d="m353.70837 -311.47998l0 10.068054" fill-rule="evenodd"/><path fill="#000000" stroke="#000000" stroke-width="1.0" stroke-linecap="butt" d="m352.05664 -301.41193l1.6517334 4.538086l1.6517334 -4.538086z" fill-rule="evenodd"/><path fill="#000000" fill-opacity="0.0" d="m353.30988 -310.815l-15.114227 6.725586" fill-rule="evenodd"/><path stroke="#000000" stroke-width="1.0" stroke-linejoin="round" stroke-linecap="butt" d="m353.30988 -310.815l-9.632477 4.2862854" fill-rule="evenodd"/><path fill="#000000" stroke="#000000" stroke-width="1.0" stroke-linecap="butt" d="m343.0059 -308.03778l-3.4746094 3.3540344l4.8176575 -0.33587646z" fill-rule="evenodd"/><path fill="#000000" d="m352.6167 -310.9488l0 0c0 -0.59432983 0.481781 -1.0761108 1.0761108 -1.0761108l0 0c0.2854004 0 0.55911255 0.1133728 0.7608948 0.31518555c0.20181274 0.20181274 0.31518555 0.4755249 0.31518555 0.7609253l0 0c0 0.5942993 -0.481781 1.0760803 -1.0760803 1.0760803l0 0c-0.59432983 0 -1.0761108 -0.481781 -1.0761108 -1.0760803z" fill-rule="evenodd"/><path stroke="#000000" stroke-width="1.0" stroke-linejoin="round" stroke-linecap="butt" d="m352.6167 -310.9488l0 0c0 -0.59432983 0.481781 -1.0761108 1.0761108 -1.0761108l0 0c0.2854004 0 0.55911255 0.1133728 0.7608948 0.31518555c0.20181274 0.20181274 0.31518555 0.4755249 0.31518555 0.7609253l0 0c0 0.5942993 -0.481781 1.0760803 -1.0760803 1.0760803l0 0c-0.59432983 0 -1.0761108 -0.481781 -1.0761108 -1.0760803z" fill-rule="evenodd"/><path fill="#ffffff" d="m329.7105 -339.7184l48.0 0l0 24.0l-48.0 0z" fill-rule="evenodd"/><path stroke="#000000" stroke-width="1.0" stroke-linejoin="round" stroke-linecap="butt" d="m329.7105 -339.7184l48.0 0l0 24.0l-48.0 0z" fill-rule="evenodd"/><path fill="#000000" fill-opacity="0.0" d="m336.07645 -318.03052l0 0c-0.9579468 0 -1.7345276 -1.1112976 -1.7345276 -2.4821472l0 -14.711975l0 0c0 -1.3708496 0.7765808 -2.4821472 1.7345276 -2.4821472z" fill-rule="evenodd"/><path fill="#000000" fill-opacity="0.0" d="m336.07645 -318.03052l0 0c-0.9579468 0 -1.7345276 -1.1112976 -1.7345276 -2.4821472l0 -14.711975l0 0c0 -1.3708496 0.7765808 -2.4821472 1.7345276 -2.4821472" fill-rule="evenodd"/><path stroke="#000000" stroke-width="1.0" stroke-linejoin="round" stroke-linecap="butt" d="m336.07645 -318.03052l0 0c-0.9579468 0 -1.7345276 -1.1112976 -1.7345276 -2.4821472l0 -14.711975l0 0c0 -1.3708496 0.7765808 -2.4821472 1.7345276 -2.4821472" fill-rule="evenodd"/><path fill="#000000" fill-opacity="0.0" d="m372.32193 -318.03052l0 0c0.9579468 0 1.7344971 -1.1112976 1.7344971 -2.4821472l0 -14.711975l0 0c0 -1.3708496 -0.7765503 -2.4821472 -1.7344971 -2.4821472z" fill-rule="evenodd"/><path fill="#000000" fill-opacity="0.0" d="m372.32193 -318.03052l0 0c0.9579468 0 1.7344971 -1.1112976 1.7344971 -2.4821472l0 -14.711975l0 0c0 -1.3708496 -0.7765503 -2.4821472 -1.7344971 -2.4821472" fill-rule="evenodd"/><path stroke="#000000" stroke-width="1.0" stroke-linejoin="round" stroke-linecap="butt" d="m372.32193 -318.03052l0 0c0.9579468 0 1.7344971 -1.1112976 1.7344971 -2.4821472l0 -14.711975l0 0c0 -1.3708496 -0.7765503 -2.4821472 -1.7344971 -2.4821472" fill-rule="evenodd"/><path fill="#000000" fill-opacity="0.0" d="m352.01276 -321.61572l0 0c-0.9579773 0 -1.7345276 -1.1112976 -1.7345276 -2.4821472l0 -7.541565l0 0c0 -1.3708496 0.7765503 -2.4821472 1.7345276 -2.4821472z" fill-rule="evenodd"/><path fill="#000000" fill-opacity="0.0" d="m352.01276 -321.61572l0 0c-0.9579773 0 -1.7345276 -1.1112976 -1.7345276 -2.4821472l0 -7.541565l0 0c0 -1.3708496 0.7765503 -2.4821472 1.7345276 -2.4821472" fill-rule="evenodd"/><path stroke="#b7b7b7" stroke-width="1.0" stroke-linejoin="round" stroke-linecap="butt" d="m352.01276 -321.61572l0 0c-0.9579773 0 -1.7345276 -1.1112976 -1.7345276 -2.4821472l0 -7.541565l0 0c0 -1.3708496 0.7765503 -2.4821472 1.7345276 -2.4821472" fill-rule="evenodd"/><path fill="#000000" fill-opacity="0.0" d="m368.69336 -321.61572l0 0c0.9579468 0 1.7344971 -1.1112976 1.7344971 -2.4821472l0 -7.541565l0 0c0 -1.3708496 -0.7765503 -2.4821472 -1.7344971 -2.4821472z" fill-rule="evenodd"/><path fill="#000000" fill-opacity="0.0" d="m368.69336 -321.61572l0 0c0.9579468 0 1.7344971 -1.1112976 1.7344971 -2.4821472l0 -7.541565l0 0c0 -1.3708496 -0.7765503 -2.4821472 -1.7344971 -2.4821472" fill-rule="evenodd"/><path stroke="#b7b7b7" stroke-width="1.0" stroke-linejoin="round" stroke-linecap="butt" d="m368.69336 -321.61572l0 0c0.9579468 0 1.7344971 -1.1112976 1.7344971 -2.4821472l0 -7.541565l0 0c0 -1.3708496 -0.7765503 -2.4821472 -1.7344971 -2.4821472" fill-rule="evenodd"/><path fill="#ffffff" d="m329.7105 -363.7184l48.0 0l0 24.0l-48.0 0z" fill-rule="evenodd"/><path stroke="#000000" stroke-width="1.0" stroke-linejoin="round" stroke-linecap="butt" d="m329.7105 -363.7184l48.0 0l0 24.0l-48.0 0z" fill-rule="evenodd"/><path fill="#000000" fill-opacity="0.0" d="m340.78156 -354.15692l0 0c2.0608215 -2.892395 5.8529663 -4.8937073 10.224915 -5.3962097c4.3719788 -0.5024719 8.807922 0.5531311 11.960846 2.846283l-9.811005 7.3616333z" fill-rule="evenodd"/><path fill="#000000" fill-opacity="0.0" d="m340.78156 -354.15692l0 0c2.0608215 -2.892395 5.8529663 -4.8937073 10.224915 -5.3962097c4.3719788 -0.5024719 8.807922 0.5531311 11.960846 2.846283" fill-rule="evenodd"/><path stroke="#000000" stroke-width="1.0" stroke-linejoin="round" stroke-linecap="butt" d="m340.78156 -354.15692l0 0c2.060791 -2.8924255 5.8529663 -4.893738 10.224915 -5.396179c2.1860046 -0.25128174 4.38797 -0.11300659 6.437561 0.37475586c0.51242065 0.121917725 1.0152893 0.26568604 1.506012 0.43069458l0.0056152344 0.001953125" fill-rule="evenodd"/><path fill="#000000" stroke="#000000" stroke-width="1.0" stroke-linecap="butt" d="m358.45468 -357.75992l3.209381 0.39071655l-2.2073975 -2.3622437z" fill-rule="evenodd"/><path fill="#ffffff" d="m362.8827 -352.4822l0 0c0 1.3220215 1.0717163 2.3937073 2.3937073 2.3937073l0 0c0.6348572 0 1.2437134 -0.25219727 1.6925964 -0.7010803c0.44891357 -0.44891357 0.70111084 -1.0577698 0.70111084 -1.692627l0 0c0 -1.321991 -1.0716858 -2.3936768 -2.3937073 -2.3936768l0 0c-1.321991 0 -2.3937073 1.0716858 -2.3937073 2.3936768z" fill-rule="evenodd"/><path stroke="#000000" stroke-width="1.0" stroke-linejoin="round" stroke-linecap="butt" d="m362.8827 -352.4822l0 0c0 1.3220215 1.0717163 2.3937073 2.3937073 2.3937073l0 0c0.6348572 0 1.2437134 -0.25219727 1.6925964 -0.7010803c0.44891357 -0.44891357 0.70111084 -1.0577698 0.70111084 -1.692627l0 0c0 -1.321991 -1.0716858 -2.3936768 -2.3937073 -2.3936768l0 0c-1.321991 0 -2.3937073 1.0716858 -2.3937073 2.3936768z" fill-rule="evenodd"/><path fill="#ffffff" d="m341.42395 -350.94012l0 0c0 -1.321991 -1.0716858 -2.3936768 -2.3936768 -2.3936768l0 0c-0.6348572 0 -1.2437134 0.25219727 -1.692627 0.7010803c-0.44888306 0.44891357 -0.7010803 1.0577698 -0.7010803 1.6925964l0 0c0 1.3220215 1.0716858 2.3937073 2.3937073 2.3937073l0 0c1.321991 0 2.3936768 -1.0716858 2.3936768 -2.3937073z" fill-rule="evenodd"/><path stroke="#000000" stroke-width="1.0" stroke-linejoin="round" stroke-linecap="butt" d="m341.42395 -350.94012l0 0c0 -1.321991 -1.0716858 -2.3936768 -2.3936768 -2.3936768l0 0c-0.6348572 0 -1.2437134 0.25219727 -1.692627 0.7010803c-0.44888306 0.44891357 -0.7010803 1.0577698 -0.7010803 1.6925964l0 0c0 1.3220215 1.0716858 2.3937073 2.3937073 2.3937073l0 0c1.321991 0 2.3936768 -1.0716858 2.3936768 -2.3937073z" fill-rule="evenodd"/><path fill="#000000" fill-opacity="0.0" d="m363.9061 -349.346l0 0c-2.0608215 2.892395 -5.8529663 4.8937073 -10.224915 5.396179c-4.3719788 0.50250244 -8.807922 -0.5531006 -11.960846 -2.846283l9.810974 -7.361603z" fill-rule="evenodd"/><path fill="#000000" fill-opacity="0.0" d="m363.9061 -349.346l0 0c-2.0608215 2.892395 -5.8529663 4.8937073 -10.224915 5.396179c-4.3719788 0.50250244 -8.807922 -0.5531006 -11.960846 -2.846283" fill-rule="evenodd"/><path stroke="#000000" stroke-width="1.0" stroke-linejoin="round" stroke-linecap="butt" d="m363.9061 -349.346l0 0c-2.0608215 2.892395 -5.852936 4.8937073 -10.224915 5.396179c-2.1859741 0.25125122 -4.38797 0.112976074 -6.4375916 -0.37475586c-0.5123596 -0.12194824 -1.0152588 -0.26571655 -1.5059814 -0.43069458l-0.005645752 -0.0019836426" fill-rule="evenodd"/><path fill="#000000" stroke="#000000" stroke-width="1.0" stroke-linecap="butt" d="m346.23297 -345.74304l-3.209381 -0.39071655l2.207367 2.3622742z" fill-rule="evenodd"/><path fill="#ffffff" d="m377.7105 -315.7184l48.0 0l0 24.0l-48.0 0z" fill-rule="evenodd"/><path stroke="#000000" stroke-width="1.0" stroke-linejoin="round" stroke-linecap="butt" d="m377.7105 -315.7184l48.0 0l0 24.0l-48.0 0z" fill-rule="evenodd"/><path fill="#000000" fill-opacity="0.0" d="m402.11115 -296.62183l15.114227 -6.725586" fill-rule="evenodd"/><path stroke="#000000" stroke-width="1.0" stroke-linejoin="round" stroke-linecap="butt" d="m402.11115 -296.62186l9.632446 -4.2862854" fill-rule="evenodd"/><path fill="#000000" stroke="#000000" stroke-width="1.0" stroke-linecap="butt" d="m412.41513 -299.39905l3.47464 -3.3540344l-4.8176575 0.33587646z" fill-rule="evenodd"/><path fill="#000000" fill-opacity="0.0" d="m401.70837 -295.95685l0 -16.068054" fill-rule="evenodd"/><path stroke="#000000" stroke-width="1.0" stroke-linejoin="round" stroke-linecap="butt" d="m401.70837 -295.95685l0 -10.068054" fill-rule="evenodd"/><path fill="#000000" stroke="#000000" stroke-width="1.0" stroke-linecap="butt" d="m403.3601 -306.0249l-1.6517334 -4.538086l-1.6517334 4.538086z" fill-rule="evenodd"/><path fill="#000000" fill-opacity="0.0" d="m401.30988 -296.62183l-15.114227 -6.725586" fill-rule="evenodd"/><path stroke="#000000" stroke-width="1.0" stroke-linejoin="round" stroke-linecap="butt" d="m401.30988 -296.62186l-9.632416 -4.286255" fill-rule="evenodd"/><path fill="#000000" stroke="#000000" stroke-width="1.0" stroke-linecap="butt" d="m392.34894 -302.4172l-4.817627 -0.33587646l3.4746094 3.3540344z" fill-rule="evenodd"/><path fill="#000000" d="m400.6167 -296.48804l0 0c0 0.5942993 0.481781 1.0761108 1.0761108 1.0761108l0 0c0.2854004 0 0.55911255 -0.1133728 0.7608948 -0.31518555c0.20181274 -0.20181274 0.31518555 -0.4755249 0.31518555 -0.7609253l0 0c0 -0.5942993 -0.481781 -1.0760803 -1.0760803 -1.0760803l0 0c-0.59432983 0 -1.0761108 0.481781 -1.0761108 1.0760803z" fill-rule="evenodd"/><path stroke="#000000" stroke-width="1.0" stroke-linejoin="round" stroke-linecap="butt" d="m400.6167 -296.48804l0 0c0 0.5942993 0.481781 1.0761108 1.0761108 1.0761108l0 0c0.2854004 0 0.55911255 -0.1133728 0.7608948 -0.31518555c0.20181274 -0.20181274 0.31518555 -0.4755249 0.31518555 -0.7609253l0 0c0 -0.5942993 -0.481781 -1.0760803 -1.0760803 -1.0760803l0 0c-0.59432983 0 -1.0761108 0.481781 -1.0761108 1.0760803z" fill-rule="evenodd"/><path fill="#000000" fill-opacity="0.0" d="m354.11115 -286.815l15.114227 6.725586" fill-rule="evenodd"/><path stroke="#000000" stroke-width="1.0" stroke-linejoin="round" stroke-linecap="butt" d="m359.59293 -284.3757l9.632477 4.2862854" fill-rule="evenodd"/><path fill="#000000" stroke="#000000" stroke-width="1.0" stroke-linecap="butt" d="m360.26443 -285.88477l-4.8176575 -0.33590698l3.4746094 3.3540344z" fill-rule="evenodd"/><path fill="#000000" fill-opacity="0.0" d="m353.70837 -287.47998l0 16.068054" fill-rule="evenodd"/><path stroke="#000000" stroke-width="1.0" stroke-linejoin="round" stroke-linecap="butt" d="m353.70837 -281.47998l0 10.068054" fill-rule="evenodd"/><path fill="#000000" stroke="#000000" stroke-width="1.0" stroke-linecap="butt" d="m355.3601 -281.47998l-1.6517334 -4.5381165l-1.6517334 4.5381165z" fill-rule="evenodd"/><path fill="#000000" fill-opacity="0.0" d="m353.30988 -286.815l-15.114227 6.725586" fill-rule="evenodd"/><path stroke="#000000" stroke-width="1.0" stroke-linejoin="round" stroke-linecap="butt" d="m347.82812 -284.3757l-9.632477 4.2862854" fill-rule="evenodd"/><path fill="#000000" stroke="#000000" stroke-width="1.0" stroke-linecap="butt" d="m348.4996 -282.86664l3.47464 -3.3540344l-4.8176575 0.33590698z" fill-rule="evenodd"/><path fill="#000000" d="m352.6167 -286.9488l0 0c0 -0.59432983 0.481781 -1.0761108 1.0761108 -1.0761108l0 0c0.2854004 0 0.55911255 0.1133728 0.7608948 0.31518555c0.20181274 0.20181274 0.31518555 0.4755249 0.31518555 0.7609253l0 0c0 0.5942993 -0.481781 1.0760803 -1.0760803 1.0760803l0 0c-0.59432983 0 -1.0761108 -0.481781 -1.0761108 -1.0760803z" fill-rule="evenodd"/><path stroke="#000000" stroke-width="1.0" stroke-linejoin="round" stroke-linecap="butt" d="m352.6167 -286.9488l0 0c0 -0.59432983 0.481781 -1.0761108 1.0761108 -1.0761108l0 0c0.2854004 0 0.55911255 0.1133728 0.7608948 0.31518555c0.20181274 0.20181274 0.31518555 0.4755249 0.31518555 0.7609253l0 0c0 0.5942993 -0.481781 1.0760803 -1.0760803 1.0760803l0 0c-0.59432983 0 -1.0761108 -0.481781 -1.0761108 -1.0760803z" fill-rule="evenodd"/><path fill="#ffffff" d="m377.7105 -267.7184l48.0 0l0 -24.0l-48.0 0z" fill-rule="evenodd"/><path stroke="#000000" stroke-width="1.0" stroke-linejoin="round" stroke-linecap="butt" d="m377.7105 -267.7184l48.0 0l0 -24.0l-48.0 0z" fill-rule="evenodd"/><path fill="#000000" fill-opacity="0.0" d="m402.11115 -272.62183l15.114227 -6.725586" fill-rule="evenodd"/><path stroke="#000000" stroke-width="1.0" stroke-linejoin="round" stroke-linecap="butt" d="m407.59293 -275.06113l9.632477 -4.2862854" fill-rule="evenodd"/><path fill="#000000" stroke="#000000" stroke-width="1.0" stroke-linecap="butt" d="m406.92142 -276.57022l-3.47464 3.3540344l4.8176575 -0.33587646z" fill-rule="evenodd"/><path fill="#000000" fill-opacity="0.0" d="m401.70837 -271.95685l0 -16.068054" fill-rule="evenodd"/><path stroke="#000000" stroke-width="1.0" stroke-linejoin="round" stroke-linecap="butt" d="m401.70837 -277.95685l0 -10.068054" fill-rule="evenodd"/><path fill="#000000" stroke="#000000" stroke-width="1.0" stroke-linecap="butt" d="m400.05664 -277.95685l1.6517334 4.5381165l1.6517334 -4.5381165z" fill-rule="evenodd"/><path fill="#000000" fill-opacity="0.0" d="m401.30988 -272.62183l-15.114227 -6.725586" fill-rule="evenodd"/><path stroke="#000000" stroke-width="1.0" stroke-linejoin="round" stroke-linecap="butt" d="m395.8281 -275.06116l-9.632446 -4.286255" fill-rule="evenodd"/><path fill="#000000" stroke="#000000" stroke-width="1.0" stroke-linecap="butt" d="m395.1566 -273.55206l4.8176575 0.33587646l-3.47464 -3.3540344z" fill-rule="evenodd"/><path fill="#000000" d="m400.6167 -272.48804l0 0c0 0.5942993 0.481781 1.0761108 1.0761108 1.0761108l0 0c0.2854004 0 0.55911255 -0.1133728 0.7608948 -0.31518555c0.20181274 -0.20181274 0.31518555 -0.4755249 0.31518555 -0.7609253l0 0c0 -0.5942993 -0.481781 -1.0760803 -1.0760803 -1.0760803l0 0c-0.59432983 0 -1.0761108 0.481781 -1.0761108 1.0760803z" fill-rule="evenodd"/><path stroke="#000000" stroke-width="1.0" stroke-linejoin="round" stroke-linecap="butt" d="m400.6167 -272.48804l0 0c0 0.5942993 0.481781 1.0761108 1.0761108 1.0761108l0 0c0.2854004 0 0.55911255 -0.1133728 0.7608948 -0.31518555c0.20181274 -0.20181274 0.31518555 -0.4755249 0.31518555 -0.7609253l0 0c0 -0.5942993 -0.481781 -1.0760803 -1.0760803 -1.0760803l0 0c-0.59432983 0 -1.0761108 0.481781 -1.0761108 1.0760803z" fill-rule="evenodd"/><path fill="#ffffff" d="m329.7105 -267.7184l48.0 0l0 24.0l-48.0 0z" fill-rule="evenodd"/><path stroke="#000000" stroke-width="1.0" stroke-linejoin="round" stroke-linecap="butt" d="m329.7105 -267.7184l48.0 0l0 24.0l-48.0 0z" fill-rule="evenodd"/><path fill="#000000" fill-opacity="0.0" d="m340.78156 -258.15692l0 0c2.0608215 -2.892395 5.8529663 -4.8937073 10.224915 -5.3962097c4.3719788 -0.5024719 8.807922 0.5531311 11.960846 2.846283l-9.811005 7.3616333z" fill-rule="evenodd"/><path fill="#000000" fill-opacity="0.0" d="m340.78156 -258.15692l0 0c2.0608215 -2.892395 5.8529663 -4.8937073 10.224915 -5.3962097c4.3719788 -0.5024719 8.807922 0.5531311 11.960846 2.846283" fill-rule="evenodd"/><path stroke="#000000" stroke-width="1.0" stroke-linejoin="round" stroke-linecap="butt" d="m340.78156 -258.15692l0 0c2.060791 -2.892395 5.8529663 -4.8937073 10.224915 -5.3962097c2.1860046 -0.25125122 4.38797 -0.112976074 6.437561 0.37478638c0.51242065 0.12194824 1.0152893 0.26568604 1.506012 0.43069458l0.0056762695 0.0019836426" fill-rule="evenodd"/><path fill="#000000" stroke="#000000" stroke-width="1.0" stroke-linecap="butt" d="m358.45468 -261.75992l3.209381 0.39071655l-2.207367 -2.3622437z" fill-rule="evenodd"/><path fill="#ffffff" d="m362.8827 -256.4822l0 0c0 1.3220215 1.0717163 2.3937073 2.3937073 2.3937073l0 0c0.6348572 0 1.2437134 -0.252182 1.6925964 -0.7010956c0.44891357 -0.44889832 0.70111084 -1.0577545 0.70111084 -1.6926117l0 0c0 -1.321991 -1.0716858 -2.3936768 -2.3937073 -2.3936768l0 0c-1.321991 0 -2.3937073 1.0716858 -2.3937073 2.3936768z" fill-rule="evenodd"/><path stroke="#000000" stroke-width="1.0" stroke-linejoin="round" stroke-linecap="butt" d="m362.8827 -256.4822l0 0c0 1.3220215 1.0717163 2.3937073 2.3937073 2.3937073l0 0c0.6348572 0 1.2437134 -0.252182 1.6925964 -0.7010956c0.44891357 -0.44889832 0.70111084 -1.0577545 0.70111084 -1.6926117l0 0c0 -1.321991 -1.0716858 -2.3936768 -2.3937073 -2.3936768l0 0c-1.321991 0 -2.3937073 1.0716858 -2.3937073 2.3936768z" fill-rule="evenodd"/><path fill="#000000" d="m341.42395 -254.94011l0 0c0 -1.3220062 -1.0716858 -2.393692 -2.3936768 -2.393692l0 0c-0.6348572 0 -1.2437134 0.25219727 -1.692627 0.7010803c-0.44888306 0.44891357 -0.7010803 1.0577545 -0.7010803 1.6926117l0 0c0 1.3220062 1.0716858 2.3937073 2.3937073 2.3937073l0 0c1.321991 0 2.3936768 -1.071701 2.3936768 -2.3937073z" fill-rule="evenodd"/><path stroke="#000000" stroke-width="1.0" stroke-linejoin="round" stroke-linecap="butt" d="m341.42395 -254.94011l0 0c0 -1.3220062 -1.0716858 -2.393692 -2.3936768 -2.393692l0 0c-0.6348572 0 -1.2437134 0.25219727 -1.692627 0.7010803c-0.44888306 0.44891357 -0.7010803 1.0577545 -0.7010803 1.6926117l0 0c0 1.3220062 1.0716858 2.3937073 2.3937073 2.3937073l0 0c1.321991 0 2.3936768 -1.071701 2.3936768 -2.3937073z" fill-rule="evenodd"/><path fill="#000000" fill-opacity="0.0" d="m99.54291 -162.33173l46.173843 20.818588" fill-rule="evenodd"/><path stroke="#0000ff" stroke-width="4.0" stroke-linejoin="round" stroke-linecap="butt" d="m99.54291 -162.33173l24.294884 10.953934" fill-rule="evenodd"/><path fill="#0000ff" stroke="#0000ff" stroke-width="4.0" stroke-linecap="butt" d="m121.12217 -145.35475l19.263771 1.4380951l-13.832512 -13.484161z" fill-rule="evenodd"/><path fill="#000000" fill-opacity="0.0" d="m98.31248 -164.39014l0 49.73748" fill-rule="evenodd"/><path stroke="#0000ff" stroke-width="4.0" stroke-linejoin="round" stroke-linecap="butt" d="m98.31248 -164.39014l0 25.737488" fill-rule="evenodd"/><path fill="#0000ff" stroke="#0000ff" stroke-width="4.0" stroke-linecap="butt" d="m91.70555 -138.65265l6.606926 18.15239l6.6069336 -18.15239z" fill-rule="evenodd"/><path fill="#000000" fill-opacity="0.0" d="m97.09503 -162.33173l-46.173843 20.818588" fill-rule="evenodd"/><path stroke="#0000ff" stroke-width="4.0" stroke-linejoin="round" stroke-linecap="butt" d="m97.09503 -162.33173l-24.294891 10.953934" fill-rule="evenodd"/><path fill="#0000ff" stroke="#0000ff" stroke-width="4.0" stroke-linecap="butt" d="m70.08451 -157.40082l-13.832508 13.484161l19.263767 -1.4380951z" fill-rule="evenodd"/><path fill="#0000ff" d="m94.97742 -162.7459l0 0c0 -1.8396454 1.4718399 -3.3309631 3.2874527 -3.3309631l0 0c0.87189484 0 1.7080688 0.3509369 2.324585 0.97561646c0.61652374 0.62467957 0.96287537 1.4719238 0.96287537 2.3553467l0 0c0 1.8396454 -1.4718475 3.3309784 -3.2874603 3.3309784l0 0c-1.8156128 0 -3.2874527 -1.491333 -3.2874527 -3.3309784z" fill-rule="evenodd"/><path stroke="#0000ff" stroke-width="8.0" stroke-linejoin="round" stroke-linecap="butt" d="m94.97742 -162.7459l0 0c0 -1.8396454 1.4718399 -3.3309631 3.2874527 -3.3309631l0 0c0.87189484 0 1.7080688 0.3509369 2.324585 0.97561646c0.61652374 0.62467957 0.96287537 1.4719238 0.96287537 2.3553467l0 0c0 1.8396454 -1.4718475 3.3309784 -3.2874603 3.3309784l0 0c-1.8156128 0 -3.2874527 -1.491333 -3.2874527 -3.3309784z" fill-rule="evenodd"/><path fill="#000000" fill-opacity="0.0" d="m26.709312 -199.14584l0 0c-3.8317947 0 -6.938078 -4.4451904 -6.938078 -9.928604l0 -60.96187l0 0c0 -5.4833984 3.1062832 -9.928589 6.938078 -9.928589z" fill-rule="evenodd"/><path fill="#000000" fill-opacity="0.0" d="m26.709312 -199.14584l0 0c-3.8317947 0 -6.938078 -4.4451904 -6.938078 -9.928604l0 -60.96187l0 0c0 -5.4833984 3.1062832 -9.928589 6.938078 -9.928589" fill-rule="evenodd"/><path stroke="#0000ff" stroke-width="4.0" stroke-linejoin="round" stroke-linecap="butt" d="m26.709312 -199.14584l0 0c-3.8317947 0 -6.938078 -4.4451904 -6.938078 -9.928604l0 -60.96187l0 0c0 -5.4833984 3.1062832 -9.928589 6.938078 -9.928589" fill-rule="evenodd"/><path fill="#000000" fill-opacity="0.0" d="m171.69124 -199.14584l0 0c3.831787 0 6.93808 -4.4451904 6.93808 -9.928604l0 -60.96187l0 0c0 -5.4833984 -3.1062927 -9.928589 -6.93808 -9.928589z" fill-rule="evenodd"/><path fill="#000000" fill-opacity="0.0" d="m171.69124 -199.14584l0 0c3.831787 0 6.93808 -4.4451904 6.93808 -9.928604l0 -60.96187l0 0c0 -5.4833984 -3.1062927 -9.928589 -6.93808 -9.928589" fill-rule="evenodd"/><path stroke="#0000ff" stroke-width="4.0" stroke-linejoin="round" stroke-linecap="butt" d="m171.69124 -199.14584l0 0c3.831787 0 6.93808 -4.4451904 6.93808 -9.928604l0 -60.96187l0 0c0 -5.4833984 -3.1062927 -9.928589 -6.93808 -9.928589" fill-rule="evenodd"/><path fill="#000000" fill-opacity="0.0" d="m90.45453 -213.87181l0 0c-3.8317947 0 -6.93808 -4.4451904 -6.93808 -9.928604l0 -31.509872l0 0c0 -5.4834137 3.106285 -9.928604 6.93808 -9.928604z" fill-rule="evenodd"/><path fill="#000000" fill-opacity="0.0" d="m90.45453 -213.87181l0 0c-3.8317947 0 -6.93808 -4.4451904 -6.93808 -9.928604l0 -31.509872l0 0c0 -5.4834137 3.106285 -9.928604 6.93808 -9.928604" fill-rule="evenodd"/><path stroke="#b7b7b7" stroke-width="4.0" stroke-linejoin="round" stroke-linecap="butt" d="m90.45453 -213.87181l0 0c-3.8317947 0 -6.93808 -4.4451904 -6.93808 -9.928604l0 -31.509872l0 0c0 -5.4834137 3.106285 -9.928604 6.93808 -9.928604" fill-rule="evenodd"/><path fill="#000000" fill-opacity="0.0" d="m157.17696 -213.87181l0 0c3.831787 0 6.93808 -4.4451904 6.93808 -9.928604l0 -31.509872l0 0c0 -5.4834137 -3.1062927 -9.928604 -6.93808 -9.928604z" fill-rule="evenodd"/><path fill="#000000" fill-opacity="0.0" d="m157.17696 -213.87181l0 0c3.831787 0 6.93808 -4.4451904 6.93808 -9.928604l0 -31.509872l0 0c0 -5.4834137 -3.1062927 -9.928604 -6.93808 -9.928604" fill-rule="evenodd"/><path stroke="#b7b7b7" stroke-width="4.0" stroke-linejoin="round" stroke-linecap="butt" d="m157.17696 -213.87181l0 0c3.831787 0 6.93808 -4.4451904 6.93808 -9.928604l0 -31.509872l0 0c0 -5.4834137 -3.1062927 -9.928604 -6.93808 -9.928604" fill-rule="evenodd"/><path fill="#000000" fill-opacity="0.0" d="m2.3189716 -378.8028l192.0 0l0 98.55118l-192.0 0z" fill-rule="evenodd"/><path stroke="#000000" stroke-width="4.0" stroke-linejoin="round" stroke-linecap="butt" d="m2.3189716 -378.8028l192.0 0l0 98.55118l-192.0 0z" fill-rule="evenodd"/><path fill="#000000" fill-opacity="0.0" d="m46.325417 -347.12766l0 0c8.181702 -12.104065 23.519386 -20.49887 41.243576 -22.573853c17.724197 -2.0750122 35.685463 2.4214172 48.2985 12.091034l-39.765274 29.837616z" fill-rule="evenodd"/><path fill="#000000" fill-opacity="0.0" d="m46.325417 -347.12766l0 0c8.181702 -12.104065 23.519386 -20.49887 41.243576 -22.573853c17.724197 -2.0750122 35.685463 2.4214172 48.2985 12.091034" fill-rule="evenodd"/><path stroke="#0000ff" stroke-width="4.0" stroke-linejoin="round" stroke-linecap="butt" d="m46.325413 -347.12766l0 0c8.181709 -12.104095 23.51939 -20.49887 41.24358 -22.573883c8.862091 -1.0374756 17.783463 -0.4321289 26.065933 1.6413269c2.0706177 0.51834106 4.101303 1.1284485 6.0811615 1.8276062l0.29360962 0.10568237" fill-rule="evenodd"/><path fill="#0000ff" stroke="#0000ff" stroke-width="4.0" stroke-linecap="butt" d="m117.91696 -362.23022l12.798859 1.8530273l-8.613388 -9.646454z" fill-rule="evenodd"/><path fill="#ffffff" d="m135.00774 -340.64398l0 0c0 5.427185 4.2867737 9.826782 9.574799 9.826782l0 0c2.5393982 0 4.974777 -1.0353088 6.770401 -2.8782043c1.7956238 -1.842865 2.8043976 -4.342346 2.8043976 -6.948578l0 0c0 -5.4271545 -4.286789 -9.826752 -9.574799 -9.826752l0 0c-5.288025 0 -9.574799 4.399597 -9.574799 9.826752z" fill-rule="evenodd"/><path stroke="#000000" stroke-width="4.0" stroke-linejoin="round" stroke-linecap="butt" d="m135.00774 -340.64398l0 0c0 5.427185 4.2867737 9.826782 9.574799 9.826782l0 0c2.5393982 0 4.974777 -1.0353088 6.770401 -2.8782043c1.7956238 -1.842865 2.8043976 -4.342346 2.8043976 -6.948578l0 0c0 -5.4271545 -4.286789 -9.826752 -9.574799 -9.826752l0 0c-5.288025 0 -9.574799 4.399597 -9.574799 9.826752z" fill-rule="evenodd"/><path fill="#ffffff" d="m49.172768 -334.32074l0 0c0 -5.4271545 -4.286789 -9.826752 -9.574806 -9.826752l0 0c-2.5393944 0 -4.974785 1.0353088 -6.7704086 2.8782043c-1.7956219 1.842865 -2.8043938 4.342346 -2.8043938 6.9485474l0 0c0 5.427185 4.286785 9.826782 9.574802 9.826782l0 0c5.2880173 0 9.574806 -4.399597 9.574806 -9.826782z" fill-rule="evenodd"/><path stroke="#000000" stroke-width="4.0" stroke-linejoin="round" stroke-linecap="butt" d="m49.172768 -334.32074l0 0c0 -5.4271545 -4.286789 -9.826752 -9.574806 -9.826752l0 0c-2.5393944 0 -4.974785 1.0353088 -6.7704086 2.8782043c-1.7956219 1.842865 -2.8043938 4.342346 -2.8043938 6.9485474l0 0c0 5.427185 4.286785 9.826782 9.574802 9.826782l0 0c5.2880173 0 9.574806 -4.399597 9.574806 -9.826782z" fill-rule="evenodd"/><path fill="#000000" fill-opacity="0.0" d="m139.37903 -328.16827l0 0c-8.181717 12.104095 -23.519394 20.49887 -41.243584 22.573883c-17.724197 2.0749817 -35.685467 -2.4214172 -48.298504 -12.091034l39.765278 -29.837616z" fill-rule="evenodd"/><path fill="#000000" fill-opacity="0.0" d="m139.37903 -328.16827l0 0c-8.181717 12.104095 -23.519394 20.49887 -41.243584 22.573883c-17.724197 2.0749817 -35.685467 -2.4214172 -48.298504 -12.091034" fill-rule="evenodd"/><path stroke="#0000ff" stroke-width="4.0" stroke-linejoin="round" stroke-linecap="butt" d="m139.37901 -328.16827l0 0c-8.181702 12.104095 -23.519379 20.49887 -41.243576 22.573883c-8.862091 1.0375061 -17.783463 0.43215942 -26.065926 -1.6412964c-2.0706253 -0.51834106 -4.1013107 -1.128479 -6.0811615 -1.8276062l-0.29360962 -0.10568237" fill-rule="evenodd"/><path fill="#0000ff" stroke="#0000ff" stroke-width="4.0" stroke-linecap="butt" d="m67.787476 -313.06567l-12.798859 -1.8530273l8.613384 9.646454z" fill-rule="evenodd"/><path fill="#000000" fill-opacity="0.0" d="m46.325417 47.19723l0 0c8.181702 -12.104084 23.519386 -20.498863 41.243576 -22.573864c17.724197 -2.0750008 35.685463 2.4214172 48.2985 12.09103l-39.765274 29.837605z" fill-rule="evenodd"/><path fill="#000000" fill-opacity="0.0" d="m46.325417 47.19723l0 0c8.181702 -12.104084 23.519386 -20.498863 41.243576 -22.573864c17.724197 -2.0750008 35.685463 2.4214172 48.2985 12.09103" fill-rule="evenodd"/><path stroke="#0000ff" stroke-width="4.0" stroke-linejoin="round" stroke-linecap="butt" d="m46.325413 47.19723l0 0c8.181709 -12.104084 23.51939 -20.498863 41.24358 -22.573864c8.862091 -1.0375023 17.783463 -0.43214607 26.065933 1.641283c2.0706177 0.51835823 4.101303 1.1284714 6.0811615 1.8276081l0.29360962 0.10567284" fill-rule="evenodd"/><path fill="#0000ff" stroke="#0000ff" stroke-width="4.0" stroke-linecap="butt" d="m117.91696 32.094643l12.798859 1.853035l-8.613388 -9.646456z" fill-rule="evenodd"/><path fill="#ffffff" d="m135.00774 53.680912l0 0c0 5.4271736 4.2867737 9.826771 9.574799 9.826771l0 0c2.5393982 0 4.974777 -1.0353165 6.770401 -2.878193c1.7956238 -1.8428802 2.8043976 -4.3423576 2.8043976 -6.948578l0 0c0 -5.4271774 -4.286789 -9.826771 -9.574799 -9.826771l0 0c-5.288025 0 -9.574799 4.3995934 -9.574799 9.826771z" fill-rule="evenodd"/><path stroke="#000000" stroke-width="4.0" stroke-linejoin="round" stroke-linecap="butt" d="m135.00774 53.680912l0 0c0 5.4271736 4.2867737 9.826771 9.574799 9.826771l0 0c2.5393982 0 4.974777 -1.0353165 6.770401 -2.878193c1.7956238 -1.8428802 2.8043976 -4.3423576 2.8043976 -6.948578l0 0c0 -5.4271774 -4.286789 -9.826771 -9.574799 -9.826771l0 0c-5.288025 0 -9.574799 4.3995934 -9.574799 9.826771z" fill-rule="evenodd"/><path fill="#000000" d="m49.172768 60.004154l0 0c0 -5.4271774 -4.286789 -9.826771 -9.574806 -9.826771l0 0c-2.5393944 0 -4.974785 1.0353165 -6.7704086 2.878193c-1.7956219 1.8428764 -2.8043938 4.3423576 -2.8043938 6.948578l0 0c0 5.4271736 4.286785 9.826771 9.574802 9.826771l0 0c5.2880173 0 9.574806 -4.399597 9.574806 -9.826771z" fill-rule="evenodd"/><path stroke="#000000" stroke-width="4.0" stroke-linejoin="round" stroke-linecap="butt" d="m49.172768 60.004154l0 0c0 -5.4271774 -4.286789 -9.826771 -9.574806 -9.826771l0 0c-2.5393944 0 -4.974785 1.0353165 -6.7704086 2.878193c-1.7956219 1.8428764 -2.8043938 4.3423576 -2.8043938 6.948578l0 0c0 5.4271736 4.286785 9.826771 9.574802 9.826771l0 0c5.2880173 0 9.574806 -4.399597 9.574806 -9.826771z" fill-rule="evenodd"/><path fill="#000000" fill-opacity="0.0" d="m101.99342 -15.188672l46.173843 -20.818584" fill-rule="evenodd"/><path stroke="#0000ff" stroke-width="4.0" stroke-linejoin="round" stroke-linecap="butt" d="m123.872375 -25.053322l24.294891 -10.953934" fill-rule="evenodd"/><path fill="#0000ff" stroke="#0000ff" stroke-width="4.0" stroke-linecap="butt" d="m121.156746 -31.076351l-13.832512 13.484154l19.263763 -1.4380932z" fill-rule="evenodd"/><path fill="#000000" fill-opacity="0.0" d="m99.04692 -17.71354l0 -49.737488" fill-rule="evenodd"/><path stroke="#0000ff" stroke-width="4.0" stroke-linejoin="round" stroke-linecap="butt" d="m99.04693 -41.71354l0 -25.737488" fill-rule="evenodd"/><path fill="#0000ff" stroke="#0000ff" stroke-width="4.0" stroke-linecap="butt" d="m92.439995 -41.71354l6.6069336 18.152391l6.606926 -18.152391z" fill-rule="evenodd"/><path fill="#000000" fill-opacity="0.0" d="m96.11341 -15.188672l-46.173847 -20.818584" fill-rule="evenodd"/><path stroke="#0000ff" stroke-width="4.0" stroke-linejoin="round" stroke-linecap="butt" d="m74.23445 -25.053322l-24.294891 -10.953934" fill-rule="evenodd"/><path fill="#0000ff" stroke="#0000ff" stroke-width="4.0" stroke-linecap="butt" d="m71.51882 -19.030293l19.263763 1.4380951l-13.832512 -13.484156z" fill-rule="evenodd"/><path fill="#0000ff" d="m95.71186 -14.345485l0 0c0 1.8396454 1.4718399 3.3309727 3.2874527 3.3309727l0 0c0.87189484 0 1.7080688 -0.3509407 2.324585 -0.9756193c0.61652374 -0.6246786 0.96287537 -1.4719248 0.96287537 -2.3553534l0 0c0 -1.8396463 -1.4718475 -3.3309736 -3.2874603 -3.3309736l0 0c-1.8156128 0 -3.2874527 1.4913273 -3.2874527 3.3309736z" fill-rule="evenodd"/><path stroke="#0000ff" stroke-width="4.0" stroke-linejoin="round" stroke-linecap="butt" d="m95.71186 -14.345485l0 0c0 1.8396454 1.4718399 3.3309727 3.2874527 3.3309727l0 0c0.87189484 0 1.7080688 -0.3509407 2.324585 -0.9756193c0.61652374 -0.6246786 0.96287537 -1.4719248 0.96287537 -2.3553534l0 0c0 -1.8396463 -1.4718475 -3.3309736 -3.2874603 -3.3309736l0 0c-1.8156128 0 -3.2874527 1.4913273 -3.2874527 3.3309736z" fill-rule="evenodd"/><path fill="#000000" fill-opacity="0.0" d="m-43.07689 -250.44273l-47.543304 82.80315l-47.543304 -82.80315z" fill-rule="evenodd"/><path stroke="#000000" stroke-width="16.0" stroke-linejoin="round" stroke-linecap="butt" d="m-43.07689 -250.44273l-47.543304 82.80315l-47.543304 -82.80315z" fill-rule="evenodd"/><path fill="#ffffff" d="m99.970894 -423.37128c-6.144188 4.55542 -14.739845 3.7177734 -19.888947 -1.9381714c-5.1491013 -5.655945 -5.1784363 -14.292267 -0.06787872 -19.983032c5.1105576 -5.690796 13.700325 -6.5868225 19.87532 -2.0732422z" fill-rule="evenodd"/><path stroke="#000000" stroke-width="3.0" stroke-linejoin="round" stroke-linecap="butt" d="m99.970894 -423.37128c-6.144188 4.55542 -14.739845 3.7177734 -19.888947 -1.9381714c-5.1491013 -5.655945 -5.1784363 -14.292267 -0.06787872 -19.983032c5.1105576 -5.690796 13.700325 -6.5868225 19.87532 -2.0732422z" fill-rule="evenodd"/><path fill="#ffffff" d="m100.297 -423.37128c6.144188 4.55542 14.739853 3.7177734 19.888954 -1.9381714c5.1491013 -5.655945 5.1784363 -14.292267 0.06787872 -19.983032c-5.1105576 -5.690796 -13.700333 -6.5868225 -19.875328 -2.0732422z" fill-rule="evenodd"/><path stroke="#000000" stroke-width="3.0" stroke-linejoin="round" stroke-linecap="butt" d="m100.297 -423.37128c6.144188 4.55542 14.739853 3.7177734 19.888954 -1.9381714c5.1491013 -5.655945 5.1784363 -14.292267 0.06787872 -19.983032c-5.1105576 -5.690796 -13.700333 -6.5868225 -19.875328 -2.0732422z" fill-rule="evenodd"/><path fill="#cfe2f3" d="m200.56354 -433.90952l20.988953 -4.5071106l4.5071106 -20.988953l4.5071106 20.988953l20.988953 4.5071106l-20.988953 4.5071106l-4.5071106 20.988953l-4.5071106 -20.988953z" fill-rule="evenodd"/><path stroke="#000000" stroke-width="1.0" stroke-linejoin="round" stroke-linecap="butt" d="m200.56354 -433.90952l20.988953 -4.5071106l4.5071106 -20.988953l4.5071106 20.988953l20.988953 4.5071106l-20.988953 4.5071106l-4.5071106 20.988953l-4.5071106 -20.988953z" fill-rule="evenodd"/><path fill="#000000" fill-opacity="0.0" d="m26.610138 -436.27457l44.72441 0" fill-rule="evenodd"/><path stroke="#0000ff" stroke-width="4.0" stroke-linejoin="round" stroke-linecap="butt" d="m26.610136 -436.27457l20.724413 0" fill-rule="evenodd"/><path fill="#0000ff" stroke="#0000ff" stroke-width="4.0" stroke-linecap="butt" d="m47.33455 -429.66763l18.15239 -6.6069336l-18.15239 -6.6069336z" fill-rule="evenodd"/><path fill="#000000" fill-opacity="0.0" d="m173.12302 -436.27457l-44.72441 0" fill-rule="evenodd"/><path stroke="#0000ff" stroke-width="4.0" stroke-linejoin="round" stroke-linecap="butt" d="m173.12302 -436.27457l-20.724411 0" fill-rule="evenodd"/><path fill="#0000ff" stroke="#0000ff" stroke-width="4.0" stroke-linecap="butt" d="m152.3986 -442.8815l-18.15239 6.6069336l18.15239 6.6069336z" fill-rule="evenodd"/><path fill="#000000" fill-opacity="0.0" d="m-181.38986 -433.35025l44.72441 0" fill-rule="evenodd"/><path stroke="#0000ff" stroke-width="4.0" stroke-linejoin="round" stroke-linecap="butt" d="m-157.38986 -433.35022l20.724411 0" fill-rule="evenodd"/><path fill="#0000ff" stroke="#0000ff" stroke-width="4.0" stroke-linecap="butt" d="m-157.38986 -439.95715l-18.15239 6.6069336l18.15239 6.6069336z" fill-rule="evenodd"/><path fill="#000000" fill-opacity="0.0" d="m-18.876991 -433.35025l-44.724407 0" fill-rule="evenodd"/><path stroke="#0000ff" stroke-width="4.0" stroke-linejoin="round" stroke-linecap="butt" d="m-42.876987 -433.35022l-20.724411 0" fill-rule="evenodd"/><path fill="#0000ff" stroke="#0000ff" stroke-width="4.0" stroke-linecap="butt" d="m-42.876987 -426.7433l18.152388 -6.6069336l-18.152388 -6.6069336z" fill-rule="evenodd"/><path fill="#ffffff" d="m-124.029106 -420.44696c-6.144188 4.55542 -14.739845 3.7177734 -19.888954 -1.9381714c-5.1490936 -5.655945 -5.1784363 -14.292267 -0.067871094 -19.983032c5.11055 -5.690796 13.700333 -6.5868225 19.87532 -2.0732422z" fill-rule="evenodd"/><path stroke="#000000" stroke-width="3.0" stroke-linejoin="round" stroke-linecap="butt" d="m-124.029106 -420.44696c-6.144188 4.55542 -14.739845 3.7177734 -19.888954 -1.9381714c-5.1490936 -5.655945 -5.1784363 -14.292267 -0.067871094 -19.983032c5.11055 -5.690796 13.700333 -6.5868225 19.87532 -2.0732422z" fill-rule="evenodd"/><path fill="#ffffff" d="m-75.703 -420.44696c6.144188 4.55542 14.739849 3.7177734 19.88895 -1.9381714c5.1491013 -5.655945 5.17844 -14.292267 0.06788254 -19.983032c-5.1105576 -5.690796 -13.700333 -6.5868225 -19.875328 -2.0732422z" fill-rule="evenodd"/><path stroke="#000000" stroke-width="3.0" stroke-linejoin="round" stroke-linecap="butt" d="m-75.703 -420.44696c6.144188 4.55542 14.739849 3.7177734 19.88895 -1.9381714c5.1491013 -5.655945 5.17844 -14.292267 0.06788254 -19.983032c-5.1105576 -5.690796 -13.700333 -6.5868225 -19.875328 -2.0732422z" fill-rule="evenodd"/><path fill="#000000" fill-opacity="0.0" d="m-123.76708 -444.4414l0.09449005 24.0" fill-rule="evenodd"/><path stroke="#ffffff" stroke-width="4.0" stroke-linejoin="round" stroke-linecap="butt" d="m-123.76708 -444.4414l0.09449005 24.0" fill-rule="evenodd"/><path fill="#000000" fill-opacity="0.0" d="m-75.79327 -444.4414l-0.09448242 24.0" fill-rule="evenodd"/><path stroke="#ffffff" stroke-width="4.0" stroke-linejoin="round" stroke-linecap="butt" d="m-75.79327 -444.4414l-0.09448242 24.0" fill-rule="evenodd"/><path fill="#000000" fill-opacity="0.0" d="m-125.3551 -445.20087c4.224411 2.0126953 16.820213 12.101501 25.346458 12.076111c8.526245 -0.025360107 21.509186 -10.190277 25.81102 -12.2283325" fill-rule="evenodd"/><path stroke="#000000" stroke-width="3.0" stroke-linejoin="round" stroke-linecap="butt" d="m-125.3551 -445.20087c4.224411 2.0126953 16.820213 12.101501 25.346458 12.076111c8.526245 -0.025360107 21.509186 -10.190277 25.81102 -12.2283325" fill-rule="evenodd"/><path fill="#000000" fill-opacity="0.0" d="m-125.27111 -419.64706c4.1688538 -1.5380554 16.513992 -9.240173 25.013123 -9.228363c8.499123 0.011810303 21.651352 7.749359 25.981628 9.299225" fill-rule="evenodd"/><path stroke="#000000" stroke-width="3.0" stroke-linejoin="round" stroke-linecap="butt" d="m-125.27111 -419.64706c4.1688538 -1.5380554 16.513992 -9.240173 25.013123 -9.228363c8.499123 0.011810303 21.651352 7.749359 25.981628 9.299225" fill-rule="evenodd"/><path fill="#ffffff" d="m-100.029106 -503.37128c-6.144188 4.55542 -14.739845 3.7177734 -19.888947 -1.9381714c-5.1491013 -5.655945 -5.1784363 -14.292236 -0.06787872 -19.983032c5.1105576 -5.690796 13.700325 -6.586792 19.87532 -2.0732422z" fill-rule="evenodd"/><path stroke="#000000" stroke-width="3.0" stroke-linejoin="round" stroke-linecap="butt" d="m-100.029106 -503.37128c-6.144188 4.55542 -14.739845 3.7177734 -19.888947 -1.9381714c-5.1491013 -5.655945 -5.1784363 -14.292236 -0.06787872 -19.983032c5.1105576 -5.690796 13.700325 -6.586792 19.87532 -2.0732422z" fill-rule="evenodd"/><path fill="#ffffff" d="m-99.703 -503.37128c6.144188 4.55542 14.739853 3.7177734 19.888954 -1.9381714c5.1491013 -5.655945 5.1784363 -14.292236 0.06787872 -19.983032c-5.1105576 -5.690796 -13.700333 -6.586792 -19.875328 -2.0732422z" fill-rule="evenodd"/><path stroke="#000000" stroke-width="3.0" stroke-linejoin="round" stroke-linecap="butt" d="m-99.703 -503.37128c6.144188 4.55542 14.739853 3.7177734 19.888954 -1.9381714c5.1491013 -5.655945 5.1784363 -14.292236 0.06787872 -19.983032c-5.1105576 -5.690796 -13.700333 -6.586792 -19.875328 -2.0732422z" fill-rule="evenodd"/><path fill="#000000" fill-opacity="0.0" d="m-173.38986 -516.27454l44.72441 0" fill-rule="evenodd"/><path stroke="#0000ff" stroke-width="4.0" stroke-linejoin="round" stroke-linecap="butt" d="m-173.38986 -516.27454l20.724411 0" fill-rule="evenodd"/><path fill="#0000ff" stroke="#0000ff" stroke-width="4.0" stroke-linecap="butt" d="m-152.66545 -509.66763l18.15239 -6.606903l-18.15239 -6.6069336z" fill-rule="evenodd"/><path fill="#000000" fill-opacity="0.0" d="m-26.876991 -516.27454l-44.72441 0" fill-rule="evenodd"/><path stroke="#0000ff" stroke-width="4.0" stroke-linejoin="round" stroke-linecap="butt" d="m-26.876991 -516.27454l-20.724407 0" fill-rule="evenodd"/><path fill="#0000ff" stroke="#0000ff" stroke-width="4.0" stroke-linecap="butt" d="m-47.6014 -522.8815l-18.152393 6.6069336l18.152393 6.606903z" fill-rule="evenodd"/><path fill="#ffffff" d="m-105.61757 -526.51385l12.692909 0l0 22.330719l-12.692909 0z" fill-rule="evenodd"/><path fill="#ffffff" d="m-100.029106 -575.3713c-6.144188 4.55542 -14.739845 3.7177734 -19.888947 -1.9381714c-5.1491013 -5.655945 -5.1784363 -14.292236 -0.06787872 -19.983032c5.1105576 -5.690796 13.700325 -6.586792 19.87532 -2.0732422z" fill-rule="evenodd"/><path stroke="#000000" stroke-width="3.0" stroke-linejoin="round" stroke-linecap="butt" d="m-100.029106 -575.3713c-6.144188 4.55542 -14.739845 3.7177734 -19.888947 -1.9381714c-5.1491013 -5.655945 -5.1784363 -14.292236 -0.06787872 -19.983032c5.1105576 -5.690796 13.700325 -6.586792 19.87532 -2.0732422z" fill-rule="evenodd"/><path fill="#ffffff" d="m-99.703 -575.3713c6.144188 4.55542 14.739853 3.7177734 19.888954 -1.9381714c5.1491013 -5.655945 5.1784363 -14.292236 0.06787872 -19.983032c-5.1105576 -5.690796 -13.700333 -6.586792 -19.875328 -2.0732422z" fill-rule="evenodd"/><path stroke="#000000" stroke-width="3.0" stroke-linejoin="round" stroke-linecap="butt" d="m-99.703 -575.3713c6.144188 4.55542 14.739853 3.7177734 19.888954 -1.9381714c5.1491013 -5.655945 5.1784363 -14.292236 0.06787872 -19.983032c-5.1105576 -5.690796 -13.700333 -6.586792 -19.875328 -2.0732422z" fill-rule="evenodd"/><path fill="#000000" fill-opacity="0.0" d="m-173.38986 -588.27454l44.72441 0" fill-rule="evenodd"/><path stroke="#0000ff" stroke-width="4.0" stroke-linejoin="round" stroke-linecap="butt" d="m-173.38986 -588.27454l20.724411 0" fill-rule="evenodd"/><path fill="#0000ff" stroke="#0000ff" stroke-width="4.0" stroke-linecap="butt" d="m-152.66545 -581.66766l18.15239 -6.6068726l-18.15239 -6.6069336z" fill-rule="evenodd"/><path fill="#000000" fill-opacity="0.0" d="m-26.876991 -588.27454l-44.72441 0" fill-rule="evenodd"/><path stroke="#0000ff" stroke-width="4.0" stroke-linejoin="round" stroke-linecap="butt" d="m-26.876991 -588.27454l-20.724407 0" fill-rule="evenodd"/><path fill="#0000ff" stroke="#0000ff" stroke-width="4.0" stroke-linecap="butt" d="m-47.6014 -594.8815l-18.152393 6.6069336l18.152393 6.6068726z" fill-rule="evenodd"/><path fill="#ffffff" d="m100.997696 -577.0185l0 0c-6.197998 6.1141357 -16.172638 6.0671387 -22.312737 -0.105163574c-6.1400986 -6.1723022 -6.1349335 -16.147034 0.011550903 -22.312988c6.1464844 -6.1659546 16.12117 -6.2026367 22.312836 -0.08203125z" fill-rule="evenodd"/><path stroke="#000000" stroke-width="3.0" stroke-linejoin="round" stroke-linecap="butt" d="m100.997696 -577.0185l0 0c-6.197998 6.1141357 -16.172638 6.0671387 -22.312737 -0.105163574c-6.1400986 -6.1723022 -6.1349335 -16.147034 0.011550903 -22.312988c6.1464844 -6.1659546 16.12117 -6.2026367 22.312836 -0.08203125z" fill-rule="evenodd"/><path fill="#000000" fill-opacity="0.0" d="m21.45296 -589.26776l47.46602 0" fill-rule="evenodd"/><path stroke="#0000ff" stroke-width="4.0" stroke-linejoin="round" stroke-linecap="butt" d="m21.45296 -589.2678l23.466013 0" fill-rule="evenodd"/><path fill="#0000ff" stroke="#0000ff" stroke-width="4.0" stroke-linecap="butt" d="m44.918976 -582.6609l18.15239 -6.6069336l-18.15239 -6.6069336z" fill-rule="evenodd"/><path fill="#000000" fill-opacity="0.0" d="m176.94707 -589.26776l-47.46602 0" fill-rule="evenodd"/><path stroke="#0000ff" stroke-width="4.0" stroke-linejoin="round" stroke-linecap="butt" d="m176.94708 -589.2678l-23.466034 0" fill-rule="evenodd"/><path fill="#0000ff" stroke="#0000ff" stroke-width="4.0" stroke-linecap="butt" d="m153.48105 -595.87476l-18.15239 6.6069336l18.15239 6.6069336z" fill-rule="evenodd"/><path fill="#ffffff" d="m101.34653 -577.0185l0 0c6.197998 6.1141357 16.172646 6.0671387 22.312744 -0.105163574c6.140091 -6.1723022 6.1349335 -16.147034 -0.011550903 -22.312988c-6.146492 -6.1659546 -16.121178 -6.2026367 -22.312843 -0.08203125z" fill-rule="evenodd"/><path stroke="#000000" stroke-width="3.0" stroke-linejoin="round" stroke-linecap="butt" d="m101.34653 -577.0185l0 0c6.197998 6.1141357 16.172646 6.0671387 22.312744 -0.105163574c6.140091 -6.1723022 6.1349335 -16.147034 -0.011550903 -22.312988c-6.146492 -6.1659546 -16.121178 -6.2026367 -22.312843 -0.08203125z" fill-rule="evenodd"/><path fill="#ffffff" d="m94.16522 -598.66327l13.470993 0l0 20.858276l-13.470993 0z" fill-rule="evenodd"/><path fill="#ffffff" d="m-97.115486 -72.76025c-10.346405 7.6709976 -24.820915 6.2604675 -33.49166 -3.2637482c-8.670731 -9.524216 -8.720139 -24.067207 -0.11430359 -33.65011c8.605843 -9.582893 23.070435 -11.091736 33.46871 -3.4911957z" fill-rule="evenodd"/><path stroke="#000000" stroke-width="3.0" stroke-linejoin="round" stroke-linecap="butt" d="m-97.115486 -72.76025c-10.346405 7.6709976 -24.820915 6.2604675 -33.49166 -3.2637482c-8.670731 -9.524216 -8.720139 -24.067207 -0.11430359 -33.65011c8.605843 -9.582893 23.070435 -11.091736 33.46871 -3.4911957z" fill-rule="evenodd"/><path fill="#000000" d="m-96.57239 -72.76025c10.346405 7.6709976 24.820908 6.2604675 33.49165 -3.2637482c8.670738 -9.524216 8.720139 -24.067207 0.11430359 -33.65011c-8.605831 -9.582893 -23.070423 -11.091736 -33.468708 -3.4911957z" fill-rule="evenodd"/><path stroke="#000000" stroke-width="3.0" stroke-linejoin="round" stroke-linecap="butt" d="m-96.57239 -72.76025c10.346405 7.6709976 24.820908 6.2604675 33.49165 -3.2637482c8.670738 -9.524216 8.720139 -24.067207 0.11430359 -33.65011c-8.605831 -9.582893 -23.070423 -11.091736 -33.468708 -3.4911957z" fill-rule="evenodd"/><path fill="#9fc5e8" d="m-81.96876 -363.62225l20.171963 -14.728912l-6.29195 23.841553l19.433506 -7.3220825l-10.92915 12.364777l25.666843 5.794403l-25.15678 6.801178l4.7135353 9.190338l-10.2084465 2.3300476l9.458443 16.411346l-19.806526 -9.671143l-1.1148605 12.912659l-12.394379 -8.805695l-5.3114243 11.553925l-7.3181763 -7.91803l-7.8051453 8.5798645l-4.420418 -7.819824l-15.880157 11.842407l2.3459778 -14.138031l-17.01561 -5.3213806l12.211487 -8.161316l-14.28508 -13.80072l20.530579 -1.3507996l-10.771347 -16.682617l21.120743 2.3919678l-0.67749023 -18.383484l17.60115 15.634705l9.662605 -17.565948z" fill-rule="evenodd"/><path stroke="#000000" stroke-width="1.0" stroke-linejoin="round" stroke-linecap="butt" d="m-81.96876 -363.62225l20.171963 -14.728912l-6.29195 23.841553l19.433506 -7.3220825l-10.92915 12.364777l25.666843 5.794403l-25.15678 6.801178l4.7135353 9.190338l-10.2084465 2.3300476l9.458443 16.411346l-19.806526 -9.671143l-1.1148605 12.912659l-12.394379 -8.805695l-5.3114243 11.553925l-7.3181763 -7.91803l-7.8051453 8.5798645l-4.420418 -7.819824l-15.880157 11.842407l2.3459778 -14.138031l-17.01561 -5.3213806l12.211487 -8.161316l-14.28508 -13.80072l20.530579 -1.3507996l-10.771347 -16.682617l21.120743 2.3919678l-0.67749023 -18.383484l17.60115 15.634705l9.662605 -17.565948z" fill-rule="evenodd"/></g></svg>