<?xml version="1.0" encoding="UTF-8"?>
<!DOCTYPE svg PUBLIC "-//W3C//DTD SVG 1.1//EN" "http://www.w3.org/Graphics/SVG/1.1/DTD/svg11.dtd">
<svg version="1.2" width="29.96mm" height="29.96mm" viewBox="5360 13019 2996 2996" preserveAspectRatio="xMidYMid" fill-rule="evenodd" stroke-width="28.222" stroke-linejoin="round" xmlns="http://www.w3.org/2000/svg" xmlns:ooo="http://xml.openoffice.org/svg/export" xmlns:xlink="http://www.w3.org/1999/xlink" xmlns:presentation="http://sun.com/xmlns/staroffice/presentation" xmlns:smil="http://www.w3.org/2001/SMIL20/" xmlns:anim="urn:oasis:names:tc:opendocument:xmlns:animation:1.0" xml:space="preserve">
 <defs class="EmbeddedBulletChars">
  <g id="bullet-char-template-57356" transform="scale(0.00048828125,-0.00048828125)">
   <path d="M 580,1141 L 1163,571 580,0 -4,571 580,1141 Z"/>
  </g>
  <g id="bullet-char-template-57354" transform="scale(0.00048828125,-0.00048828125)">
   <path d="M 8,1128 L 1137,1128 1137,0 8,0 8,1128 Z"/>
  </g>
  <g id="bullet-char-template-10146" transform="scale(0.00048828125,-0.00048828125)">
   <path d="M 174,0 L 602,739 174,1481 1456,739 174,0 Z M 1358,739 L 309,1346 659,739 1358,739 Z"/>
  </g>
  <g id="bullet-char-template-10132" transform="scale(0.00048828125,-0.00048828125)">
   <path d="M 2015,739 L 1276,0 717,0 1260,543 174,543 174,936 1260,936 717,1481 1274,1481 2015,739 Z"/>
  </g>
  <g id="bullet-char-template-10007" transform="scale(0.00048828125,-0.00048828125)">
   <path d="M 0,-2 C -7,14 -16,27 -25,37 L 356,567 C 262,823 215,952 215,954 215,979 228,992 255,992 264,992 276,990 289,987 310,991 331,999 354,1012 L 381,999 492,748 772,1049 836,1024 860,1049 C 881,1039 901,1025 922,1006 886,937 835,863 770,784 769,783 710,716 594,584 L 774,223 C 774,196 753,168 711,139 L 727,119 C 717,90 699,76 672,76 641,76 570,178 457,381 L 164,-76 C 142,-110 111,-127 72,-127 30,-127 9,-110 8,-76 1,-67 -2,-52 -2,-32 -2,-23 -1,-13 0,-2 Z"/>
  </g>
  <g id="bullet-char-template-10004" transform="scale(0.00048828125,-0.00048828125)">
   <path d="M 285,-33 C 182,-33 111,30 74,156 52,228 41,333 41,471 41,549 55,616 82,672 116,743 169,778 240,778 293,778 328,747 346,684 L 369,508 C 377,444 397,411 428,410 L 1163,1116 C 1174,1127 1196,1133 1229,1133 1271,1133 1292,1118 1292,1087 L 1292,965 C 1292,929 1282,901 1262,881 L 442,47 C 390,-6 338,-33 285,-33 Z"/>
  </g>
  <g id="bullet-char-template-9679" transform="scale(0.00048828125,-0.00048828125)">
   <path d="M 813,0 C 632,0 489,54 383,161 276,268 223,411 223,592 223,773 276,916 383,1023 489,1130 632,1184 813,1184 992,1184 1136,1130 1245,1023 1353,916 1407,772 1407,592 1407,412 1353,268 1245,161 1136,54 992,0 813,0 Z"/>
  </g>
  <g id="bullet-char-template-8226" transform="scale(0.00048828125,-0.00048828125)">
   <path d="M 346,457 C 273,457 209,483 155,535 101,586 74,649 74,723 74,796 101,859 155,911 209,963 273,989 346,989 419,989 480,963 531,910 582,859 608,796 608,723 608,648 583,586 532,535 482,483 420,457 346,457 Z"/>
  </g>
  <g id="bullet-char-template-8211" transform="scale(0.00048828125,-0.00048828125)">
   <path d="M -4,459 L 1135,459 1135,606 -4,606 -4,459 Z"/>
  </g>
  <g id="bullet-char-template-61548" transform="scale(0.00048828125,-0.00048828125)">
   <path d="M 173,740 C 173,903 231,1043 346,1159 462,1274 601,1332 765,1332 928,1332 1067,1274 1183,1159 1299,1043 1357,903 1357,740 1357,577 1299,437 1183,322 1067,206 928,148 765,148 601,148 462,206 346,322 231,437 173,577 173,740 Z"/>
  </g>
 </defs>
 <g class="Page">
  <g class="com.sun.star.drawing.CustomShape">
   <g id="id3">
    <rect class="BoundingBox" stroke="none" fill="none" x="5360" y="13019" width="2996" height="2996"/>
    <path fill="rgb(255,255,255)" stroke="none" d="M 5859,13019 L 5859,13019 C 5772,13019 5685,13042 5610,13086 5534,13130 5471,13193 5427,13269 5383,13344 5360,13431 5360,13518 L 5360,15514 5360,15515 C 5360,15602 5383,15689 5427,15764 5471,15840 5534,15903 5610,15947 5685,15991 5772,16014 5859,16014 L 7855,16013 7856,16014 C 7943,16014 8030,15991 8105,15947 8181,15903 8244,15840 8288,15764 8332,15689 8355,15602 8355,15515 L 8354,13518 8355,13518 8355,13518 C 8355,13431 8332,13344 8288,13269 8244,13193 8181,13130 8105,13086 8030,13042 7943,13019 7856,13019 L 5859,13019 Z"/>
   </g>
  </g>
  <g class="com.sun.star.drawing.CustomShape">
   <g id="id4">
    <rect class="BoundingBox" stroke="none" fill="none" x="5844" y="14323" width="382" height="382"/>
    <path fill="rgb(153,153,153)" stroke="none" d="M 6225,14514 C 6225,14547 6216,14580 6199,14609 6183,14638 6159,14662 6130,14678 6101,14695 6068,14704 6035,14704 6001,14704 5968,14695 5939,14678 5910,14662 5886,14638 5870,14609 5853,14580 5844,14547 5844,14514 5844,14480 5853,14447 5870,14418 5886,14389 5910,14365 5939,14349 5968,14332 6001,14323 6035,14323 6068,14323 6101,14332 6130,14349 6159,14365 6183,14389 6199,14418 6216,14447 6225,14480 6225,14514 L 6225,14514 Z"/>
   </g>
  </g>
  <g class="com.sun.star.drawing.CustomShape">
   <g id="id5">
    <rect class="BoundingBox" stroke="none" fill="none" x="7498" y="14296" width="482" height="482"/>
    <path fill="rgb(255,255,255)" stroke="none" d="M 7929,14537 C 7929,14570 7920,14603 7903,14632 7887,14661 7863,14685 7834,14701 7805,14718 7772,14727 7739,14727 7705,14727 7672,14718 7643,14701 7614,14685 7590,14661 7574,14632 7557,14603 7548,14570 7548,14537 7548,14503 7557,14470 7574,14441 7590,14412 7614,14388 7643,14372 7672,14355 7705,14346 7739,14346 7772,14346 7805,14355 7834,14372 7863,14388 7887,14412 7903,14441 7920,14470 7929,14503 7929,14537 L 7929,14537 Z"/>
    <path fill="none" stroke="rgb(128,128,128)" stroke-width="100" stroke-linejoin="round" d="M 7929,14537 C 7929,14570 7920,14603 7903,14632 7887,14661 7863,14685 7834,14701 7805,14718 7772,14727 7739,14727 7705,14727 7672,14718 7643,14701 7614,14685 7590,14661 7574,14632 7557,14603 7548,14570 7548,14537 7548,14503 7557,14470 7574,14441 7590,14412 7614,14388 7643,14372 7672,14355 7705,14346 7739,14346 7772,14346 7805,14355 7834,14372 7863,14388 7887,14412 7903,14441 7920,14470 7929,14503 7929,14537 Z"/>
   </g>
  </g>
  <g class="com.sun.star.drawing.OpenBezierShape">
   <g id="id6">
    <rect class="BoundingBox" stroke="none" fill="none" x="6122" y="13946" width="1499" height="382"/>
    <path fill="none" stroke="rgb(0,0,0)" stroke-width="80" stroke-linejoin="round" d="M 6162,14205 C 6460,14064 6956,13987 7400,14146"/>
    <path fill="rgb(0,0,0)" stroke="none" d="M 7462,13946 L 7620,14252 7284,14326 7462,13946 Z"/>
   </g>
  </g>
 </g>
</svg>