<?xml version="1.0" encoding="UTF-8"?>
<!DOCTYPE svg PUBLIC "-//W3C//DTD SVG 1.1//EN" "http://www.w3.org/Graphics/SVG/1.1/DTD/svg11.dtd">
<svg version="1.2" width="26.39mm" height="15.55mm" viewBox="20161 10859 2639 1555" preserveAspectRatio="xMidYMid" fill-rule="evenodd" stroke-width="28.222" stroke-linejoin="round" xmlns="http://www.w3.org/2000/svg" xmlns:ooo="http://xml.openoffice.org/svg/export" xmlns:xlink="http://www.w3.org/1999/xlink" xmlns:presentation="http://sun.com/xmlns/staroffice/presentation" xmlns:smil="http://www.w3.org/2001/SMIL20/" xmlns:anim="urn:oasis:names:tc:opendocument:xmlns:animation:1.0" xml:space="preserve">
 <defs class="EmbeddedBulletChars">
  <g id="bullet-char-template-57356" transform="scale(0.00048828125,-0.00048828125)">
   <path d="M 580,1141 L 1163,571 580,0 -4,571 580,1141 Z"/>
  </g>
  <g id="bullet-char-template-57354" transform="scale(0.00048828125,-0.00048828125)">
   <path d="M 8,1128 L 1137,1128 1137,0 8,0 8,1128 Z"/>
  </g>
  <g id="bullet-char-template-10146" transform="scale(0.00048828125,-0.00048828125)">
   <path d="M 174,0 L 602,739 174,1481 1456,739 174,0 Z M 1358,739 L 309,1346 659,739 1358,739 Z"/>
  </g>
  <g id="bullet-char-template-10132" transform="scale(0.00048828125,-0.00048828125)">
   <path d="M 2015,739 L 1276,0 717,0 1260,543 174,543 174,936 1260,936 717,1481 1274,1481 2015,739 Z"/>
  </g>
  <g id="bullet-char-template-10007" transform="scale(0.00048828125,-0.00048828125)">
   <path d="M 0,-2 C -7,14 -16,27 -25,37 L 356,567 C 262,823 215,952 215,954 215,979 228,992 255,992 264,992 276,990 289,987 310,991 331,999 354,1012 L 381,999 492,748 772,1049 836,1024 860,1049 C 881,1039 901,1025 922,1006 886,937 835,863 770,784 769,783 710,716 594,584 L 774,223 C 774,196 753,168 711,139 L 727,119 C 717,90 699,76 672,76 641,76 570,178 457,381 L 164,-76 C 142,-110 111,-127 72,-127 30,-127 9,-110 8,-76 1,-67 -2,-52 -2,-32 -2,-23 -1,-13 0,-2 Z"/>
  </g>
  <g id="bullet-char-template-10004" transform="scale(0.00048828125,-0.00048828125)">
   <path d="M 285,-33 C 182,-33 111,30 74,156 52,228 41,333 41,471 41,549 55,616 82,672 116,743 169,778 240,778 293,778 328,747 346,684 L 369,508 C 377,444 397,411 428,410 L 1163,1116 C 1174,1127 1196,1133 1229,1133 1271,1133 1292,1118 1292,1087 L 1292,965 C 1292,929 1282,901 1262,881 L 442,47 C 390,-6 338,-33 285,-33 Z"/>
  </g>
  <g id="bullet-char-template-9679" transform="scale(0.00048828125,-0.00048828125)">
   <path d="M 813,0 C 632,0 489,54 383,161 276,268 223,411 223,592 223,773 276,916 383,1023 489,1130 632,1184 813,1184 992,1184 1136,1130 1245,1023 1353,916 1407,772 1407,592 1407,412 1353,268 1245,161 1136,54 992,0 813,0 Z"/>
  </g>
  <g id="bullet-char-template-8226" transform="scale(0.00048828125,-0.00048828125)">
   <path d="M 346,457 C 273,457 209,483 155,535 101,586 74,649 74,723 74,796 101,859 155,911 209,963 273,989 346,989 419,989 480,963 531,910 582,859 608,796 608,723 608,648 583,586 532,535 482,483 420,457 346,457 Z"/>
  </g>
  <g id="bullet-char-template-8211" transform="scale(0.00048828125,-0.00048828125)">
   <path d="M -4,459 L 1135,459 1135,606 -4,606 -4,459 Z"/>
  </g>
  <g id="bullet-char-template-61548" transform="scale(0.00048828125,-0.00048828125)">
   <path d="M 173,740 C 173,903 231,1043 346,1159 462,1274 601,1332 765,1332 928,1332 1067,1274 1183,1159 1299,1043 1357,903 1357,740 1357,577 1299,437 1183,322 1067,206 928,148 765,148 601,148 462,206 346,322 231,437 173,577 173,740 Z"/>
  </g>
 </defs>
 <g class="Page">
  <g class="com.sun.star.drawing.PolyPolygonShape">
   <g id="id3">
    <rect class="BoundingBox" stroke="none" fill="none" x="20702" y="10859" width="1343" height="1424"/>
    <path fill="rgb(0,0,0)" stroke="none" d="M 21968,12020 L 21817,12151 21666,12282 21400,11974 21059,12268 20702,10859 22043,11419 21703,11713 21968,12020 Z"/>
   </g>
  </g>
  <g class="com.sun.star.drawing.ClosedBezierShape">
   <g id="id4">
    <rect class="BoundingBox" stroke="none" fill="none" x="20161" y="11002" width="2639" height="1412"/>
    <path fill="rgb(255,255,255)" stroke="none" d="M 21105,12224 C 21038,12283 20908,12337 20820,12354 20730,12371 20639,12363 20554,12334 20469,12305 20393,12253 20336,12185 20277,12116 20237,12034 20220,11946 20204,11856 20211,11765 20241,11680 20269,11596 20321,11520 20390,11462 20458,11403 20540,11363 20629,11347 20718,11330 20809,11337 20894,11367 21506,11628 21707,11362 21902,11177 21970,11118 22052,11078 22141,11061 22230,11044 22321,11052 22406,11081 22490,11110 22566,11162 22624,11230 22683,11299 22723,11381 22740,11470 22757,11559 22749,11650 22720,11735 22690,11820 22638,11895 22571,11953 22502,12012 22420,12052 22331,12068 22242,12085 22151,12078 22066,12048 21844,11996 21643,11920 21524,11943 21404,11966 21300,12049 21105,12224 Z"/>
    <path fill="none" stroke="rgb(128,128,128)" stroke-width="100" stroke-linejoin="round" d="M 21105,12224 C 21038,12283 20908,12337 20820,12354 20730,12371 20639,12363 20554,12334 20469,12305 20393,12253 20336,12185 20277,12116 20237,12034 20220,11946 20204,11856 20211,11765 20241,11680 20269,11596 20321,11520 20390,11462 20458,11403 20540,11363 20629,11347 20718,11330 20809,11337 20894,11367 21506,11628 21707,11362 21902,11177 21970,11118 22052,11078 22141,11061 22230,11044 22321,11052 22406,11081 22490,11110 22566,11162 22624,11230 22683,11299 22723,11381 22740,11470 22757,11559 22749,11650 22720,11735 22690,11820 22638,11895 22571,11953 22502,12012 22420,12052 22331,12068 22242,12085 22151,12078 22066,12048 21844,11996 21643,11920 21524,11943 21404,11966 21300,12049 21105,12224 Z"/>
   </g>
  </g>
  <g class="com.sun.star.drawing.ClosedBezierShape">
   <g id="id5">
    <rect class="BoundingBox" stroke="none" fill="none" x="20771" y="11279" width="1367" height="1042"/>
    <path fill="rgb(189,189,189)" stroke="none" d="M 21065,12269 C 20903,11665 20960,11863 20821,11329 21344,11527 21750,11329 21750,11329 L 22087,11480 21762,11758 C 21762,11758 21901,11944 21971,12037 21743,11942 21644,11856 21471,11921 21367,11960 21237,12038 21065,12269 Z"/>
    <path fill="none" stroke="rgb(128,128,128)" stroke-width="100" stroke-linejoin="round" d="M 21065,12269 C 20903,11665 20960,11863 20821,11329 21344,11527 21750,11329 21750,11329 L 22087,11480 21762,11758 C 21762,11758 21901,11944 21971,12037 21743,11942 21644,11856 21471,11921 21367,11960 21237,12038 21065,12269 Z"/>
   </g>
  </g>
 </g>
</svg>