<svg version="1.1" viewBox="0.0 0.0 191.002624671916 100.0" fill="none" stroke="none" stroke-linecap="square" stroke-miterlimit="10" xmlns:xlink="http://www.w3.org/1999/xlink" xmlns="http://www.w3.org/2000/svg"><clipPath id="p.0"><path d="m0 0l191.00262 0l0 100.0l-191.00262 0l0 -100.0z" clip-rule="nonzero"/></clipPath><g clip-path="url(#p.0)"><path fill="#000000" fill-opacity="0.0" d="m0 0l191.00262 0l0 100.0l-191.00262 0z" fill-rule="evenodd"/><path fill="#000000" fill-opacity="0.0" d="m-98.03411 50.202747l89.44882 0l0 31.622044l-89.44882 0z" fill-rule="evenodd"/><path fill="#000000" d="m-75.228935 73.282745l0 -0.953125q-0.71875 1.125 -2.125 1.125q-0.90625 0 -1.671875 -0.5q-0.75 -0.5 -1.171875 -1.390625q-0.421875 -0.90625 -0.421875 -2.078125q0 -1.140625 0.375 -2.0625q0.390625 -0.921875 1.140625 -1.40625q0.765625 -0.5 1.703125 -0.5q0.6875 0 1.21875 0.296875q0.53125 0.28125 0.875 0.734375l0 -3.75l1.28125 0l0 10.484375l-1.203125 0zm-4.0625 -3.796875q0 1.46875 0.609375 2.1875q0.625 0.71875 1.453125 0.71875q0.84375 0 1.4375 -0.6875q0.59375 -0.6875 0.59375 -2.109375q0 -1.5625 -0.609375 -2.28125q-0.59375 -0.734375 -1.484375 -0.734375q-0.84375 0 -1.421875 0.703125q-0.578125 0.703125 -0.578125 2.203125zm7.291733 -5.21875l0 -1.46875l1.296875 0l0 1.46875l-1.296875 0zm0 9.015625l0 -7.59375l1.296875 0l0 7.59375l-1.296875 0zm2.7405243 -2.265625l1.265625 -0.203125q0.109375 0.765625 0.59375 1.171875q0.5 0.40625 1.375 0.40625q0.890625 0 1.3125 -0.359375q0.4375 -0.359375 0.4375 -0.84375q0 -0.4375 -0.375 -0.6875q-0.265625 -0.171875 -1.3125 -0.4375q-1.421875 -0.359375 -1.96875 -0.609375q-0.546875 -0.265625 -0.828125 -0.734375q-0.28125 -0.46875 -0.28125 -1.015625q0 -0.515625 0.21875 -0.9375q0.234375 -0.4375 0.640625 -0.734375q0.296875 -0.21875 0.8125 -0.359375q0.53125 -0.15625 1.125 -0.15625q0.890625 0 1.5625 0.265625q0.671875 0.25 1.0000038 0.6875q0.328125 0.4375 0.4375 1.171875l-1.2500038 0.171875q-0.09375 -0.578125 -0.5 -0.90625q-0.40625 -0.34375 -1.15625 -0.34375q-0.890625 0 -1.28125 0.296875q-0.375 0.296875 -0.375 0.6875q0 0.25 0.15625 0.453125q0.15625 0.203125 0.5 0.34375q0.1875 0.078125 1.140625 0.328125q1.359375 0.359375 1.890625 0.59375q0.5468788 0.234375 0.8593788 0.6875q0.3125 0.4375 0.3125 1.09375q0 0.640625 -0.375 1.21875q-0.375 0.5625 -1.0937538 0.875q-0.703125 0.3125 -1.59375 0.3125q-1.484375 0 -2.265625 -0.609375q-0.765625 -0.625 -0.984375 -1.828125zm10.656254 1.109375l0.1875 1.140625q-0.546875 0.109375 -0.984375 0.109375q-0.6875 0 -1.078125 -0.21875q-0.390625 -0.21875 -0.546875 -0.578125q-0.15625 -0.359375 -0.15625 -1.515625l0 -4.375l-0.953125 0l0 -1.0l0.953125 0l0 -1.890625l1.28125 -0.765625l0 2.65625l1.296875 0l0 1.0l-1.296875 0l0 4.4375q0 0.546875 0.0625 0.71875q0.078125 0.15625 0.21875 0.25q0.15625 0.078125 0.453125 0.078125q0.203125 0 0.5625 -0.046875zm1.2438507 1.15625l0 -7.59375l1.15625 0l0 1.140625q0.453125 -0.796875 0.828125 -1.046875q0.375 -0.265625 0.8125 -0.265625q0.65625 0 1.328125 0.40625l-0.4375 1.203125q-0.46875 -0.28125 -0.953125 -0.28125q-0.421875 0 -0.765625 0.25q-0.328125 0.25 -0.46875 0.703125q-0.21875 0.6875 -0.21875 1.5l0 3.984375l-1.28125 0zm4.8962708 -9.015625l0 -1.46875l1.296875 0l0 1.46875l-1.296875 0zm0 9.015625l0 -7.59375l1.296875 0l0 7.59375l-1.296875 0zm4.4436493 0l-1.203125 0l0 -10.484375l1.296875 0l0 3.734375q0.8125 -1.015625 2.078125 -1.015625q0.703125 0 1.328125 0.28125q0.625 0.28125 1.03125 0.796875q0.40625 0.5 0.625 1.234375q0.234375 0.71875 0.234375 1.53125q0 1.96875 -0.96875 3.03125q-0.953125 1.0625 -2.3125 1.0625q-1.34375 0 -2.109375 -1.125l0 0.953125zm-0.015625 -3.859375q0 1.375 0.375 1.984375q0.609375 0.984375 1.640625 0.984375q0.84375 0 1.453125 -0.734375q0.625 -0.734375 0.625 -2.1875q0 -1.484375 -0.59375 -2.1875q-0.59375 -0.71875 -1.421875 -0.71875q-0.84375 0 -1.46875 0.734375q-0.609375 0.734375 -0.609375 2.125zm11.963608 3.859375l0 -1.109375q-0.890625 1.28125 -2.421875 1.28125q-0.671875 0 -1.25 -0.25q-0.578125 -0.265625 -0.875 -0.65625q-0.28125 -0.390625 -0.390625 -0.953125q-0.078125 -0.375 -0.078125 -1.203125l0 -4.703125l1.28125 0l0 4.203125q0 1.015625 0.078125 1.359375q0.125 0.515625 0.515625 0.8125q0.40625 0.28125 0.984375 0.28125q0.578125 0 1.078125 -0.296875q0.515625 -0.296875 0.71875 -0.8125q0.21875 -0.515625 0.21875 -1.484375l0 -4.0625l1.28125 0l0 7.59375l-1.140625 0zm3.1667328 -9.015625l0 -1.46875l1.2968731 0l0 1.46875l-1.2968731 0zm0 9.015625l0 -7.59375l1.2968731 0l0 7.59375l-1.2968731 0zm3.2405224 0l0 -7.59375l1.15625 0l0 1.140625q0.453125 -0.796875 0.828125 -1.046875q0.375 -0.265625 0.8125 -0.265625q0.65625 0 1.328125 0.40625l-0.4375 1.203125q-0.46875 -0.28125 -0.953125 -0.28125q-0.421875 0 -0.765625 0.25q-0.328125 0.25 -0.46875 0.703125q-0.21875 0.6875 -0.21875 1.5l0 3.984375l-1.28125 0zm10.099396 -2.453125l1.328125 0.171875q-0.3125 1.171875 -1.171875 1.8125q-0.84375 0.640625 -2.171875 0.640625q-1.671875 0 -2.65625 -1.015625q-0.96875 -1.03125 -0.96875 -2.890625q0 -1.921875 0.984375 -2.96875q1.0 -1.0625 2.578125 -1.0625q1.515625 0 2.484375 1.03125q0.96875 1.03125 0.96875 2.921875q0 0.109375 -0.015625 0.34375l-5.65625 0q0.0625 1.25 0.703125 1.921875q0.640625 0.65625 1.59375 0.65625q0.703125 0 1.203125 -0.359375q0.5 -0.375 0.796875 -1.203125zm-4.234375 -2.078125l4.25 0q-0.09375 -0.953125 -0.484375 -1.4375q-0.625 -0.75 -1.609375 -0.75q-0.875 0 -1.484375 0.59375q-0.609375 0.59375 -0.671875 1.59375z" fill-rule="nonzero"/><path fill="#000000" fill-opacity="0.0" d="m-110.27296 72.68657l102.11024 0l0 33.95276l-102.11024 0z" fill-rule="evenodd"/><path fill="#000000" d="m-87.89497 95.76657l0 -7.59375l1.15625 0l0 1.140625q0.453125 -0.796875 0.828125 -1.046875q0.375 -0.265625 0.8125 -0.265625q0.65625 0 1.328125 0.40625l-0.4375 1.203125q-0.46875 -0.28125 -0.953125 -0.28125q-0.421875 0 -0.765625 0.25q-0.328125 0.25 -0.46875 0.703125q-0.21875 0.6875 -0.21875 1.5l0 3.984375l-1.28125 0zm9.849396 -0.9375q-0.71875 0.609375 -1.375 0.859375q-0.65625 0.25 -1.421875 0.25q-1.25 0 -1.921875 -0.609375q-0.671875 -0.609375 -0.671875 -1.5625q0 -0.5625 0.25 -1.015625q0.25 -0.46875 0.65625 -0.75q0.421875 -0.28125 0.9375 -0.421875q0.375 -0.09375 1.140625 -0.1875q1.5625 -0.1875 2.296875 -0.453125q0.015625 -0.265625 0.015625 -0.328125q0 -0.796875 -0.375 -1.109375q-0.484375 -0.4375 -1.453125 -0.4375q-0.921875 0 -1.359375 0.328125q-0.421875 0.3125 -0.625 1.109375l-1.265625 -0.171875q0.171875 -0.796875 0.5625 -1.296875q0.390625 -0.5 1.140625 -0.765625q0.75 -0.265625 1.71875 -0.265625q0.984375 0 1.59375 0.234375q0.609375 0.21875 0.890625 0.5625q0.28125 0.34375 0.40625 0.875q0.0625 0.328125 0.0625 1.1875l0 1.71875q0 1.796875 0.078125 2.28125q0.078125 0.46875 0.328125 0.90625l-1.34375 0q-0.203125 -0.40625 -0.265625 -0.9375zm-0.109375 -2.875q-0.703125 0.28125 -2.09375 0.484375q-0.796875 0.109375 -1.125 0.265625q-0.328125 0.140625 -0.515625 0.421875q-0.171875 0.265625 -0.171875 0.59375q0 0.515625 0.390625 0.859375q0.390625 0.34375 1.140625 0.34375q0.734375 0 1.3125 -0.3125q0.59375 -0.328125 0.859375 -0.890625q0.203125 -0.4375 0.203125 -1.296875l0 -0.46875zm8.260483 1.03125l1.265625 0.15625q-0.203125 1.3125 -1.0625 2.0625q-0.84375 0.734375 -2.09375 0.734375q-1.5625 0 -2.515625 -1.015625q-0.9375 -1.03125 -0.9375 -2.921875q0 -1.234375 0.40625 -2.15625q0.40625 -0.921875 1.234375 -1.375q0.84375 -0.46875 1.8125 -0.46875q1.25 0 2.03125 0.625q0.78125 0.625 1.015625 1.765625l-1.265625 0.203125q-0.171875 -0.765625 -0.625 -1.15625q-0.453125 -0.390625 -1.09375 -0.390625q-0.984375 0 -1.59375 0.703125q-0.609375 0.703125 -0.609375 2.203125q0 1.53125 0.578125 2.234375q0.59375 0.6875 1.546875 0.6875q0.75 0 1.265625 -0.453125q0.515625 -0.46875 0.640625 -1.4375zm7.328129 0l1.265625 0.15625q-0.203125 1.3125 -1.0625 2.0625q-0.84375 0.734375 -2.0937538 0.734375q-1.5625 0 -2.515625 -1.015625q-0.9375 -1.03125 -0.9375 -2.921875q0 -1.234375 0.40625 -2.15625q0.40625 -0.921875 1.234375 -1.375q0.84375 -0.46875 1.8125 -0.46875q1.2500038 0 2.0312538 0.625q0.78125 0.625 1.015625 1.765625l-1.265625 0.203125q-0.171875 -0.765625 -0.625 -1.15625q-0.453125 -0.390625 -1.0937538 -0.390625q-0.984375 0 -1.59375 0.703125q-0.609375 0.703125 -0.609375 2.203125q0 1.53125 0.578125 2.234375q0.59375 0.6875 1.546875 0.6875q0.7500038 0 1.2656288 -0.453125q0.515625 -0.46875 0.640625 -1.4375zm1.890625 -1.015625q0 -2.109375 1.171875 -3.125q0.984375 -0.84375 2.390625 -0.84375q1.578125 0 2.5625 1.03125q1.0 1.015625 1.0 2.828125q0 1.46875 -0.4375 2.3125q-0.4375 0.828125 -1.28125 1.296875q-0.84375 0.46875 -1.84375 0.46875q-1.59375 0 -2.578125 -1.015625q-0.984375 -1.03125 -0.984375 -2.953125zm1.328125 0q0 1.453125 0.625 2.1875q0.640625 0.71875 1.609375 0.71875q0.96875 0 1.59375 -0.71875q0.640625 -0.734375 0.640625 -2.234375q0 -1.40625 -0.640625 -2.125q-0.640625 -0.734375 -1.59375 -0.734375q-0.96875 0 -1.609375 0.71875q-0.625 0.71875 -0.625 2.1875zm7.072983 4.421875l1.25 0.1875q0.078125 0.578125 0.4375 0.84375q0.46875 0.359375 1.3125 0.359375q0.890625 0 1.375 -0.359375q0.484375 -0.359375 0.65625 -1.0q0.109375 -0.390625 0.09375 -1.65625q-0.84375 1.0 -2.109375 1.0q-1.5625 0 -2.421875 -1.125q-0.859375 -1.140625 -0.859375 -2.71875q0 -1.09375 0.390625 -2.0q0.40625 -0.921875 1.140625 -1.421875q0.75 -0.5 1.765625 -0.5q1.34375 0 2.21875 1.078125l0 -0.90625l1.1875 0l0 6.5625q0 1.78125 -0.359375 2.515625q-0.359375 0.734375 -1.15625 1.15625q-0.78125 0.4375 -1.921875 0.4375q-1.359375 0 -2.203125 -0.609375q-0.828125 -0.609375 -0.796875 -1.84375zm1.0625 -4.5625q0 1.5 0.59375 2.1875q0.59375 0.6875 1.484375 0.6875q0.890625 0 1.484375 -0.6875q0.609375 -0.6875 0.609375 -2.140625q0 -1.390625 -0.625 -2.09375q-0.609375 -0.71875 -1.484375 -0.71875q-0.859375 0 -1.46875 0.703125q-0.59375 0.6875 -0.59375 2.0625zm7.291733 3.9375l0 -10.484375l1.28125 0l0 10.484375l-1.28125 0zm3.2873993 -9.015625l0 -1.46875l1.296875 0l0 1.46875l-1.296875 0zm0 9.015625l0 -7.59375l1.296875 0l0 7.59375l-1.296875 0zm8.459274 -2.453125l1.328125 0.171875q-0.3125 1.171875 -1.171875 1.8125q-0.84375 0.640625 -2.171875 0.640625q-1.671875 0 -2.65625 -1.015625q-0.96875 -1.03125 -0.96875 -2.890625q0 -1.921875 0.984375 -2.96875q1.0 -1.0625 2.578125 -1.0625q1.515625 0 2.484375 1.03125q0.96875 1.03125 0.96875 2.921875q0 0.109375 -0.015625 0.34375l-5.65625 0q0.0625 1.25 0.703125 1.921875q0.640625 0.65625 1.59375 0.65625q0.703125 0 1.203125 -0.359375q0.5 -0.375 0.796875 -1.203125zm-4.234375 -2.078125l4.25 0q-0.09375 -0.953125 -0.484375 -1.4375q-0.625 -0.75 -1.609375 -0.75q-0.875 0 -1.484375 0.59375q-0.609375 0.59375 -0.671875 1.59375zm7.166733 4.53125l0 -7.59375l1.15625 0l0 1.140625q0.453125 -0.796875 0.828125 -1.046875q0.375 -0.265625 0.8125 -0.265625q0.65625 0 1.328125 0.40625l-0.4375 1.203125q-0.46875 -0.28125 -0.953125 -0.28125q-0.421875 0 -0.765625 0.25q-0.328125 0.25 -0.46875 0.703125q-0.21875 0.6875 -0.21875 1.5l0 3.984375l-1.28125 0zm10.099396 -2.453125l1.328125 0.171875q-0.3125 1.171875 -1.171875 1.8125q-0.84375 0.640625 -2.171875 0.640625q-1.671875 0 -2.65625 -1.015625q-0.96875 -1.03125 -0.96875 -2.890625q0 -1.921875 0.984375 -2.96875q1.0 -1.0625 2.578125 -1.0625q1.515625 0 2.484375 1.03125q0.96875 1.03125 0.96875 2.921875q0 0.109375 -0.015625 0.34375l-5.65625 0q0.0625 1.25 0.703125 1.921875q0.640625 0.65625 1.59375 0.65625q0.703125 0 1.203125 -0.359375q0.5 -0.375 0.796875 -1.203125zm-4.234375 -2.078125l4.25 0q-0.09375 -0.953125 -0.484375 -1.4375q-0.625 -0.75 -1.609375 -0.75q-0.875 0 -1.484375 0.59375q-0.609375 0.59375 -0.671875 1.59375z" fill-rule="nonzero"/><path fill="#000000" fill-opacity="0.0" d="m-112.0 -1.3913244l104.91338 0l0 33.952755l-104.91338 0z" fill-rule="evenodd"/><path fill="#000000" d="m-83.46746 18.907425l1.265625 0.15625q-0.203125 1.3125 -1.0625 2.0625q-0.84375 0.734375 -2.09375 0.734375q-1.5625 0 -2.515625 -1.015625q-0.9375 -1.03125 -0.9375 -2.921875q0 -1.234375 0.40625 -2.156249q0.40625 -0.921875 1.234375 -1.375q0.84375 -0.46875 1.8125 -0.46875q1.25 0 2.03125 0.625q0.78125 0.625 1.015625 1.765624l-1.265625 0.203125q-0.171875 -0.76562405 -0.625 -1.156249q-0.453125 -0.390625 -1.09375 -0.390625q-0.984375 0 -1.59375 0.703125q-0.609375 0.70312405 -0.609375 2.203124q0 1.53125 0.578125 2.234375q0.59375 0.6875 1.546875 0.6875q0.75 0 1.265625 -0.453125q0.515625 -0.46875 0.640625 -1.4375zm1.890625 -1.015625q0 -2.109374 1.171875 -3.124999q0.984375 -0.84375 2.390625 -0.84375q1.578125 0 2.5625 1.03125q1.0 1.015625 1.0 2.828124q0 1.46875 -0.4375 2.3125q-0.4375 0.828125 -1.28125 1.296875q-0.84375 0.46875 -1.84375 0.46875q-1.59375 0 -2.578125 -1.015625q-0.984375 -1.03125 -0.984375 -2.953125zm1.328125 0q0 1.453125 0.625 2.1875q0.640625 0.71875 1.609375 0.71875q0.96875 0 1.59375 -0.71875q0.640625 -0.734375 0.640625 -2.234375q0 -1.40625 -0.640625 -2.124999q-0.640625 -0.734375 -1.59375 -0.734375q-0.96875 0 -1.609375 0.71875q-0.625 0.71874905 -0.625 2.187499zm7.307358 3.796875l0 -7.593749l1.15625 0l0 1.0625q0.34375 -0.5625 0.9375 -0.890625q0.609375 -0.34375 1.359375 -0.34375q0.84375 0 1.375 0.34375q0.546875 0.34375 0.765625 0.984375q0.90625 -1.328125 2.359375 -1.328125q1.125 0 1.734375 0.625q0.609375 0.625 0.609375 1.921874l0 5.21875l-1.28125 0l0 -4.78125q0 -0.78125 -0.125 -1.109374q-0.125 -0.34375 -0.453125 -0.546875q-0.328125 -0.21875 -0.78125 -0.21875q-0.796875 0 -1.328125 0.53125q-0.53125 0.53124905 -0.53125 1.703124l0 4.421875l-1.28125 0l0 -4.9375q0 -0.85937405 -0.3125 -1.281249q-0.3125 -0.4375 -1.03125 -0.4375q-0.546875 0 -1.015625 0.296875q-0.453125 0.28125 -0.671875 0.82812405q-0.203125 0.546875 -0.203125 1.59375l0 3.9375l-1.28125 0zm12.208771 0l0 -7.593749l1.15625 0l0 1.0625q0.34375 -0.5625 0.9375 -0.890625q0.609375 -0.34375 1.359375 -0.34375q0.84375 0 1.375 0.34375q0.546875 0.34375 0.765625 0.984375q0.90625 -1.328125 2.359375 -1.328125q1.125 0 1.734375 0.625q0.609375 0.625 0.609375 1.921874l0 5.21875l-1.28125 0l0 -4.78125q0 -0.78125 -0.125 -1.109374q-0.125 -0.34375 -0.453125 -0.546875q-0.328125 -0.21875 -0.78125 -0.21875q-0.796875 0 -1.328125 0.53125q-0.53125 0.53124905 -0.53125 1.703124l0 4.421875l-1.28125 0l0 -4.9375q0 -0.85937405 -0.3125 -1.281249q-0.3125 -0.4375 -1.03125 -0.4375q-0.546875 0 -1.015625 0.296875q-0.453125 0.28125 -0.671875 0.82812405q-0.203125 0.546875 -0.203125 1.59375l0 3.9375l-1.28125 0zm17.193146 0l0 -1.109375q-0.890625 1.28125 -2.421875 1.28125q-0.671875 0 -1.25 -0.25q-0.578125 -0.265625 -0.875 -0.65625q-0.28125 -0.390625 -0.390625 -0.953125q-0.078125 -0.375 -0.078125 -1.203125l0 -4.703124l1.28125 0l0 4.203124q0 1.015625 0.078125 1.359375q0.125 0.515625 0.515625 0.8125q0.40625 0.28125 0.984375 0.28125q0.578125 0 1.078125 -0.296875q0.515625 -0.296875 0.71875 -0.8125q0.21875 -0.515625 0.21875 -1.484375l0 -4.062499l1.28125 0l0 7.593749l-1.140625 0zm5.979233 -1.15625l0.1875 1.140625q-0.546875 0.109375 -0.984375 0.109375q-0.6875 0 -1.078125 -0.21875q-0.390625 -0.21875 -0.546875 -0.578125q-0.15625 -0.359375 -0.15625 -1.515625l0 -4.374999l-0.953125 0l0 -1.0l0.953125 0l0 -1.890625l1.28125 -0.765625l0 2.65625l1.296875 0l0 1.0l-1.296875 0l0 4.437499q0 0.546875 0.0625 0.71875q0.078125 0.15625 0.21875 0.25q0.15625 0.078125 0.453125 0.078125q0.203125 0 0.5625 -0.046875zm6.2126007 0.21875q-0.71875 0.609375 -1.375 0.859375q-0.65625 0.25 -1.421875 0.25q-1.25 0 -1.921875 -0.609375q-0.671875 -0.609375 -0.671875 -1.5625q0 -0.5625 0.25 -1.015625q0.25 -0.46875 0.65625 -0.75q0.421875 -0.28125 0.9375 -0.421875q0.375 -0.09375 1.140625 -0.1875q1.5625 -0.1875 2.296875 -0.453125q0.015625 -0.265625 0.015625 -0.328125q0 -0.79687405 -0.375 -1.109374q-0.484375 -0.4375 -1.453125 -0.4375q-0.921875 0 -1.359375 0.328125q-0.421875 0.3125 -0.625 1.109374l-1.265625 -0.171875q0.171875 -0.79687405 0.5625 -1.296874q0.390625 -0.5 1.140625 -0.765625q0.75 -0.265625 1.71875 -0.265625q0.984375 0 1.59375 0.234375q0.609375 0.21875 0.890625 0.5625q0.28125 0.34375 0.40625 0.875q0.0625 0.328125 0.0625 1.187499l0 1.71875q0 1.796875 0.078125 2.28125q0.078125 0.46875 0.328125 0.90625l-1.34375 0q-0.203125 -0.40625 -0.265625 -0.9375zm-0.109375 -2.875q-0.703125 0.28125 -2.09375 0.484375q-0.796875 0.109375 -1.125 0.265625q-0.328125 0.140625 -0.515625 0.421875q-0.171875 0.265625 -0.171875 0.59375q0 0.515625 0.390625 0.859375q0.390625 0.34375 1.140625 0.34375q0.734375 0 1.3125 -0.3125q0.59375 -0.328125 0.859375 -0.890625q0.203125 -0.4375 0.203125 -1.296875l0 -0.46875zm3.2917328 3.8125l0 -7.593749l1.15625 0l0 1.140625q0.453125 -0.796875 0.828125 -1.046875q0.375 -0.265625 0.8125 -0.265625q0.65625 0 1.328125 0.40625l-0.4375 1.203125q-0.46875 -0.28125 -0.953125 -0.28125q-0.421875 0 -0.765625 0.25q-0.328125 0.25 -0.46875 0.70312405q-0.21875 0.6875 -0.21875 1.5l0 3.984375l-1.28125 0zm10.099396 -2.453125l1.328125 0.171875q-0.3125 1.171875 -1.171875 1.8125q-0.84375 0.640625 -2.171875 0.640625q-1.671875 0 -2.65625 -1.015625q-0.96875 -1.03125 -0.96875 -2.890625q0 -1.921875 0.984375 -2.968749q1.0 -1.0625 2.578125 -1.0625q1.515625 0 2.484375 1.03125q0.96875 1.03125 0.96875 2.921874q0 0.109375 -0.015625 0.34375l-5.65625 0q0.0625 1.25 0.703125 1.921875q0.640625 0.65625 1.59375 0.65625q0.703125 0 1.203125 -0.359375q0.5 -0.375 0.796875 -1.203125zm-4.234375 -2.078125l4.25 0q-0.09375 -0.953125 -0.484375 -1.437499q-0.625 -0.75 -1.609375 -0.75q-0.875 0 -1.484375 0.59375q-0.609375 0.59374905 -0.671875 1.593749z" fill-rule="nonzero"/><path fill="#000000" fill-opacity="0.0" d="m-102.5927 23.62629l96.18897 0l0 27.653545l-96.18897 0z" fill-rule="evenodd"/><path fill="#000000" d="m-72.20744 45.76879q-0.71875 0.609375 -1.375 0.859375q-0.65625 0.25 -1.421875 0.25q-1.25 0 -1.921875 -0.609375q-0.671875 -0.609375 -0.671875 -1.5625q0 -0.5625 0.25 -1.015625q0.25 -0.46875 0.65625 -0.75q0.421875 -0.28125 0.9375 -0.421875q0.375 -0.09375 1.140625 -0.1875q1.5625 -0.1875 2.296875 -0.453125q0.015625 -0.265625 0.015625 -0.328125q0 -0.796875 -0.375 -1.109375q-0.484375 -0.4375 -1.453125 -0.4375q-0.921875 0 -1.359375 0.328125q-0.421875 0.3125 -0.625 1.109375l-1.265625 -0.171875q0.171875 -0.796875 0.5625 -1.296875q0.390625 -0.5 1.140625 -0.765625q0.75 -0.265625 1.71875 -0.265625q0.984375 0 1.59375 0.234375q0.609375 0.21875 0.890625 0.5625q0.28125 0.34375 0.40625 0.875q0.0625 0.328125 0.0625 1.1875l0 1.71875q0 1.796875 0.078125 2.28125q0.078125 0.46875 0.328125 0.90625l-1.34375 0q-0.203125 -0.40625 -0.265625 -0.9375zm-0.109375 -2.875q-0.703125 0.28125 -2.09375 0.484375q-0.796875 0.109375 -1.125 0.265625q-0.328125 0.140625 -0.515625 0.421875q-0.171875 0.265625 -0.171875 0.59375q0 0.515625 0.390625 0.859375q0.390625 0.34375 1.140625 0.34375q0.734375 0 1.3125 -0.3125q0.59375 -0.328125 0.859375 -0.890625q0.203125 -0.4375 0.203125 -1.296875l0 -0.46875zm2.7917328 1.546875l1.265625 -0.203125q0.109375 0.765625 0.59375 1.171875q0.5 0.40625 1.375 0.40625q0.890625 0 1.3125 -0.359375q0.4375 -0.359375 0.4375 -0.84375q0 -0.4375 -0.375 -0.6875q-0.265625 -0.171875 -1.3125 -0.4375q-1.421875 -0.359375 -1.96875 -0.609375q-0.546875 -0.265625 -0.828125 -0.734375q-0.28125 -0.46875 -0.28125 -1.015625q0 -0.515625 0.21875 -0.9375q0.234375 -0.4375 0.640625 -0.734375q0.296875 -0.21875 0.8125 -0.359375q0.53125 -0.15625 1.125 -0.15625q0.890625 0 1.5625 0.265625q0.671875 0.25 0.9999962 0.6875q0.328125 0.4375 0.4375 1.171875l-1.2499962 0.171875q-0.09375 -0.578125 -0.5 -0.90625q-0.40625 -0.34375 -1.15625 -0.34375q-0.890625 0 -1.28125 0.296875q-0.375 0.296875 -0.375 0.6875q0 0.25 0.15625 0.453125q0.15625 0.203125 0.5 0.34375q0.1875 0.078125 1.140625 0.328125q1.359375 0.359375 1.890625 0.59375q0.5468712 0.234375 0.8593712 0.6875q0.3125 0.4375 0.3125 1.09375q0 0.640625 -0.375 1.21875q-0.375 0.5625 -1.0937462 0.875q-0.703125 0.3125 -1.59375 0.3125q-1.484375 0 -2.265625 -0.609375q-0.765625 -0.625 -0.984375 -1.828125zm7.328121 0l1.265625 -0.203125q0.109375 0.765625 0.59375 1.171875q0.5 0.40625 1.375 0.40625q0.890625 0 1.3125 -0.359375q0.4375 -0.359375 0.4375 -0.84375q0 -0.4375 -0.375 -0.6875q-0.265625 -0.171875 -1.3125 -0.4375q-1.421875 -0.359375 -1.96875 -0.609375q-0.546875 -0.265625 -0.828125 -0.734375q-0.28125 -0.46875 -0.28125 -1.015625q0 -0.515625 0.21875 -0.9375q0.234375 -0.4375 0.640625 -0.734375q0.296875 -0.21875 0.8125 -0.359375q0.53125 -0.15625 1.125 -0.15625q0.890625 0 1.5625 0.265625q0.671875 0.25 1.0 0.6875q0.328125 0.4375 0.4375 1.171875l-1.25 0.171875q-0.09375 -0.578125 -0.5 -0.90625q-0.40625 -0.34375 -1.15625 -0.34375q-0.890625 0 -1.28125 0.296875q-0.375 0.296875 -0.375 0.6875q0 0.25 0.15625 0.453125q0.15625 0.203125 0.5 0.34375q0.1875 0.078125 1.140625 0.328125q1.359375 0.359375 1.890625 0.59375q0.546875 0.234375 0.859375 0.6875q0.3125 0.4375 0.3125 1.09375q0 0.640625 -0.375 1.21875q-0.375 0.5625 -1.09375 0.875q-0.703125 0.3125 -1.59375 0.3125q-1.484375 0 -2.265625 -0.609375q-0.765625 -0.625 -0.984375 -1.828125zm7.359375 -1.53125q0 -2.109375 1.171875 -3.125q0.984375 -0.84375 2.390625 -0.84375q1.578125 0 2.5625 1.03125q1.0 1.015625 1.0 2.828125q0 1.46875 -0.4375 2.3125q-0.4375 0.828125 -1.28125 1.296875q-0.84375 0.46875 -1.84375 0.46875q-1.59375 0 -2.578125 -1.015625q-0.984375 -1.03125 -0.984375 -2.953125zm1.328125 0q0 1.453125 0.625 2.1875q0.640625 0.71875 1.609375 0.71875q0.96875 0 1.59375 -0.71875q0.640625 -0.734375 0.640625 -2.234375q0 -1.40625 -0.640625 -2.125q-0.640625 -0.734375 -1.59375 -0.734375q-0.96875 0 -1.609375 0.71875q-0.625 0.71875 -0.625 2.1875zm12.260483 1.015625l1.265625 0.15625q-0.203125 1.3125 -1.0625 2.0625q-0.84375 0.734375 -2.09375 0.734375q-1.5625 0 -2.515625 -1.015625q-0.9375 -1.03125 -0.9375 -2.921875q0 -1.234375 0.40625 -2.15625q0.40625 -0.921875 1.234375 -1.375q0.84375 -0.46875 1.8125 -0.46875q1.25 0 2.03125 0.625q0.78125 0.625 1.015625 1.765625l-1.265625 0.203125q-0.171875 -0.765625 -0.625 -1.15625q-0.453125 -0.390625 -1.09375 -0.390625q-0.984375 0 -1.59375 0.703125q-0.609375 0.703125 -0.609375 2.203125q0 1.53125 0.578125 2.234375q0.59375 0.6875 1.546875 0.6875q0.75 0 1.265625 -0.453125q0.515625 -0.46875 0.640625 -1.4375zm2.375 -6.234375l0 -1.46875l1.296875 0l0 1.46875l-1.296875 0zm0 9.015625l0 -7.59375l1.296875 0l0 7.59375l-1.296875 0zm8.209276 -0.9375q-0.71875 0.609375 -1.3750019 0.859375q-0.65625 0.25 -1.421875 0.25q-1.25 0 -1.921875 -0.609375q-0.671875 -0.609375 -0.671875 -1.5625q0 -0.5625 0.25 -1.015625q0.25 -0.46875 0.65625 -0.75q0.421875 -0.28125 0.9375 -0.421875q0.375 -0.09375 1.140625 -0.1875q1.5625019 -0.1875 2.296877 -0.453125q0.015625 -0.265625 0.015625 -0.328125q0 -0.796875 -0.375 -1.109375q-0.484375 -0.4375 -1.4531269 -0.4375q-0.921875 0 -1.359375 0.328125q-0.421875 0.3125 -0.625 1.109375l-1.265625 -0.171875q0.171875 -0.796875 0.5625 -1.296875q0.390625 -0.5 1.140625 -0.765625q0.75 -0.265625 1.71875 -0.265625q0.9843769 0 1.5937519 0.234375q0.609375 0.21875 0.890625 0.5625q0.28125 0.34375 0.40625 0.875q0.0625 0.328125 0.0625 1.1875l0 1.71875q0 1.796875 0.078125 2.28125q0.078125 0.46875 0.328125 0.90625l-1.34375 0q-0.203125 -0.40625 -0.265625 -0.9375zm-0.109375 -2.875q-0.703125 0.28125 -2.093752 0.484375q-0.796875 0.109375 -1.125 0.265625q-0.328125 0.140625 -0.515625 0.421875q-0.171875 0.265625 -0.171875 0.59375q0 0.515625 0.390625 0.859375q0.390625 0.34375 1.140625 0.34375q0.734375 0 1.3125019 -0.3125q0.59375 -0.328125 0.859375 -0.890625q0.203125 -0.4375 0.203125 -1.296875l0 -0.46875zm3.2917328 3.8125l0 -7.59375l1.15625 0l0 1.140625q0.453125 -0.796875 0.828125 -1.046875q0.375 -0.265625 0.8125 -0.265625q0.65625 0 1.328125 0.40625l-0.4375 1.203125q-0.46875 -0.28125 -0.953125 -0.28125q-0.421875 0 -0.765625 0.25q-0.328125 0.25 -0.46875 0.703125q-0.21875 0.6875 -0.21875 1.5l0 3.984375l-1.28125 0zm10.099396 -2.453125l1.328125 0.171875q-0.3125 1.171875 -1.171875 1.8125q-0.84375 0.640625 -2.171875 0.640625q-1.671875 0 -2.65625 -1.015625q-0.96875 -1.03125 -0.96875 -2.890625q0 -1.921875 0.984375 -2.96875q1.0 -1.0625 2.578125 -1.0625q1.515625 0 2.484375 1.03125q0.96875 1.03125 0.96875 2.921875q0 0.109375 -0.015625 0.34375l-5.65625 0q0.0625 1.25 0.703125 1.921875q0.640625 0.65625 1.59375 0.65625q0.703125 0 1.203125 -0.359375q0.5 -0.375 0.796875 -1.203125zm-4.234375 -2.078125l4.25 0q-0.09375 -0.953125 -0.484375 -1.4375q-0.625 -0.75 -1.609375 -0.75q-0.875 0 -1.484375 0.59375q-0.609375 0.59375 -0.671875 1.59375z" fill-rule="nonzero"/><path fill="#000000" fill-opacity="0.0" d="m-90.90538 95.93387l88.062996 0l0 35.307083l-88.062996 0z" fill-rule="evenodd"/><path fill="#000000" d="m-70.03573 116.748245l1.265625 -0.203125q0.109375 0.765625 0.59375 1.171875q0.5 0.40625 1.375 0.40625q0.890625 0 1.3125 -0.359375q0.4375 -0.359375 0.4375 -0.84375q0 -0.4375 -0.375 -0.6875q-0.265625 -0.171875 -1.3125 -0.4375q-1.421875 -0.359375 -1.96875 -0.609375q-0.546875 -0.265625 -0.828125 -0.734375q-0.28125 -0.46875 -0.28125 -1.015625q0 -0.515625 0.21875 -0.9375q0.234375 -0.4375 0.640625 -0.734375q0.296875 -0.21875 0.8125 -0.359375q0.53125 -0.15625 1.125 -0.15625q0.890625 0 1.5625 0.265625q0.671875 0.25 1.0 0.6875q0.328125 0.4375 0.4375 1.171875l-1.25 0.171875q-0.09375 -0.578125 -0.5 -0.90625q-0.40625 -0.34375 -1.15625 -0.34375q-0.890625 0 -1.28125 0.296875q-0.375 0.296875 -0.375 0.6875q0 0.25 0.15625 0.453125q0.15625 0.203125 0.5 0.34375q0.1875 0.078125 1.140625 0.328125q1.359375 0.359375 1.890625 0.59375q0.546875 0.234375 0.859375 0.6875q0.3125 0.4375 0.3125 1.09375q0 0.640625 -0.375 1.21875q-0.375 0.5625 -1.09375 0.875q-0.703125 0.3125 -1.59375 0.3125q-1.484375 0 -2.265625 -0.609375q-0.765625 -0.625 -0.984375 -1.828125zm7.359375 -1.53125q0 -2.109375 1.171875 -3.125q0.984375 -0.84375 2.390625 -0.84375q1.578125 0 2.5625 1.03125q1.0 1.015625 1.0 2.828125q0 1.46875 -0.4375 2.3125q-0.4375 0.828125 -1.28125 1.296875q-0.84375 0.46875 -1.84375 0.46875q-1.59375 0 -2.578125 -1.015625q-0.984375 -1.03125 -0.984375 -2.953125zm1.328125 0q0 1.453125 0.625 2.1875q0.640625 0.71875 1.609375 0.71875q0.96875 0 1.59375 -0.71875q0.640625 -0.734375 0.640625 -2.234375q0 -1.40625 -0.640625 -2.125q-0.640625 -0.734375 -1.59375 -0.734375q-0.96875 0 -1.609375 0.71875q-0.625 0.71875 -0.625 2.1875zm6.791733 1.53125l1.265625 -0.203125q0.109375 0.765625 0.59375 1.171875q0.5 0.40625 1.375 0.40625q0.890625 0 1.3125 -0.359375q0.4375 -0.359375 0.4375 -0.84375q0 -0.4375 -0.375 -0.6875q-0.265625 -0.171875 -1.3125 -0.4375q-1.421875 -0.359375 -1.96875 -0.609375q-0.546875 -0.265625 -0.828125 -0.734375q-0.28125 -0.46875 -0.28125 -1.015625q0 -0.515625 0.21875 -0.9375q0.234375 -0.4375 0.640625 -0.734375q0.296875 -0.21875 0.8125 -0.359375q0.53125 -0.15625 1.125 -0.15625q0.890625 0 1.5625 0.265625q0.671875 0.25 1.0 0.6875q0.328125 0.4375 0.4375 1.171875l-1.25 0.171875q-0.09375 -0.578125 -0.5 -0.90625q-0.40625 -0.34375 -1.15625 -0.34375q-0.890625 0 -1.28125 0.296875q-0.375 0.296875 -0.375 0.6875q0 0.25 0.15625 0.453125q0.15625 0.203125 0.5 0.34375q0.1875 0.078125 1.140625 0.328125q1.359375 0.359375 1.890625 0.59375q0.546875 0.234375 0.859375 0.6875q0.3125 0.4375 0.3125 1.09375q0 0.640625 -0.375 1.21875q-0.375 0.5625 -1.09375 0.875q-0.703125 0.3125 -1.59375 0.3125q-1.484375 0 -2.265625 -0.609375q-0.765625 -0.625 -0.984375 -1.828125zm10.65625 1.109375l0.1875 1.140625q-0.546875 0.109375 -0.984375 0.109375q-0.6875 0 -1.078125 -0.21875q-0.390625 -0.21875 -0.546875 -0.578125q-0.15625 -0.359375 -0.15625 -1.515625l0 -4.375l-0.953125 0l0 -1.0l0.953125 0l0 -1.890625l1.28125 -0.765625l0 2.65625l1.296875 0l0 1.0l-1.296875 0l0 4.4375q0 0.546875 0.0625 0.71875q0.078125 0.15625 0.21875 0.25q0.15625 0.078125 0.453125 0.078125q0.203125 0 0.5625 -0.046875zm1.2594757 -7.859375l0 -1.46875l1.296875 0l0 1.46875l-1.296875 0zm0 9.015625l0 -7.59375l1.296875 0l0 7.59375l-1.296875 0zm6.0686493 -1.15625l0.1875 1.140625q-0.546875 0.109375 -0.984375 0.109375q-0.6875 0 -1.078125 -0.21875q-0.390625 -0.21875 -0.546875 -0.578125q-0.15625 -0.359375 -0.15625 -1.515625l0 -4.375l-0.953125 0l0 -1.0l0.953125 0l0 -1.890625l1.28125 -0.765625l0 2.65625l1.296875 0l0 1.0l-1.296875 0l0 4.4375q0 0.546875 0.0625 0.71875q0.078125 0.15625 0.21875 0.25q0.15625 0.078125 0.453125 0.078125q0.203125 0 0.5625 -0.046875zm6.2438526 1.15625l0 -1.109375q-0.890625 1.28125 -2.421877 1.28125q-0.671875 0 -1.25 -0.25q-0.578125 -0.265625 -0.875 -0.65625q-0.28125 -0.390625 -0.390625 -0.953125q-0.078125 -0.375 -0.078125 -1.203125l0 -4.703125l1.28125 0l0 4.203125q0 1.015625 0.078125 1.359375q0.125 0.515625 0.515625 0.8125q0.40625 0.28125 0.984375 0.28125q0.5781269 0 1.0781269 -0.296875q0.515625 -0.296875 0.71875 -0.8125q0.21875 -0.515625 0.21875 -1.484375l0 -4.0625l1.28125 0l0 7.59375l-1.140625 0zm3.1667328 -9.015625l0 -1.46875l1.296875 0l0 1.46875l-1.296875 0zm0 9.015625l0 -7.59375l1.296875 0l0 7.59375l-1.296875 0zm3.2405243 0l0 -7.59375l1.15625 0l0 1.140625q0.453125 -0.796875 0.828125 -1.046875q0.375 -0.265625 0.8125 -0.265625q0.65625 0 1.328125 0.40625l-0.4375 1.203125q-0.46875 -0.28125 -0.953125 -0.28125q-0.421875 0 -0.765625 0.25q-0.328125 0.25 -0.46875 0.703125q-0.21875 0.6875 -0.21875 1.5l0 3.984375l-1.28125 0zm10.099396 -2.453125l1.328125 0.171875q-0.3125 1.171875 -1.171875 1.8125q-0.84375 0.640625 -2.171875 0.640625q-1.671875 0 -2.65625 -1.015625q-0.96875 -1.03125 -0.96875 -2.890625q0 -1.921875 0.984375 -2.96875q1.0 -1.0625 2.578125 -1.0625q1.515625 0 2.484375 1.03125q0.96875 1.03125 0.96875 2.921875q0 0.109375 -0.015625 0.34375l-5.65625 0q0.0625 1.25 0.703125 1.921875q0.640625 0.65625 1.59375 0.65625q0.703125 0 1.203125 -0.359375q0.5 -0.375 0.796875 -1.203125zm-4.234375 -2.078125l4.25 0q-0.09375 -0.953125 -0.484375 -1.4375q-0.625 -0.75 -1.609375 -0.75q-0.875 0 -1.484375 0.59375q-0.609375 0.59375 -0.671875 1.59375z" fill-rule="nonzero"/><path fill="#ffffff" d="m457.77954 141.09448l48.0 0l0 -23.999992l-48.0 0z" fill-rule="evenodd"/><path stroke="#000000" stroke-width="1.0" stroke-linejoin="round" stroke-linecap="butt" d="m457.77954 141.09448l48.0 0l0 -23.999992l-48.0 0z" fill-rule="evenodd"/><path fill="#000000" fill-opacity="0.0" d="m482.29547 138.23573l19.4534 -8.675583" fill-rule="evenodd"/><path stroke="#000000" stroke-width="2.0" stroke-linejoin="round" stroke-linecap="butt" d="m493.255 133.34814l8.4938965 -3.7879944" fill-rule="evenodd"/><path fill="#000000" stroke="#000000" stroke-width="2.0" stroke-linecap="butt" d="m491.90952 130.3311l-6.9437256 6.7137604l9.634735 -0.6796875z" fill-rule="evenodd"/><path fill="#000000" fill-opacity="0.0" d="m481.7768 139.09212l0 -20.697006" fill-rule="evenodd"/><path stroke="#000000" stroke-width="2.0" stroke-linejoin="round" stroke-linecap="butt" d="m481.7768 127.09212l0 -8.696999" fill-rule="evenodd"/><path fill="#000000" stroke="#000000" stroke-width="2.0" stroke-linecap="butt" d="m478.47333 127.09212l3.3034668 9.076202l3.3034363 -9.076202z" fill-rule="evenodd"/><path fill="#000000" fill-opacity="0.0" d="m481.26358 138.23573l-19.4534 -8.675583" fill-rule="evenodd"/><path stroke="#000000" stroke-width="2.0" stroke-linejoin="round" stroke-linecap="butt" d="m470.30405 133.34814l-8.4938965 -3.7879944" fill-rule="evenodd"/><path fill="#000000" stroke="#000000" stroke-width="2.0" stroke-linecap="butt" d="m468.95853 136.36517l9.634766 0.6796875l-6.943756 -6.7137604z" fill-rule="evenodd"/><path fill="#000000" d="m480.3709 138.40222l0 0c0 0.7685852 0.6230469 1.3916473 1.3916321 1.3916473l0 0c0.3690796 0 0.723053 -0.1466217 0.9840393 -0.40760803c0.26098633 -0.26098633 0.40759277 -0.6149597 0.40759277 -0.9840393l0 0c0 -0.7685852 -0.6230469 -1.3916473 -1.3916321 -1.3916473l0 0c-0.7685852 0 -1.3916321 0.62306213 -1.3916321 1.3916473z" fill-rule="evenodd"/><path stroke="#000000" stroke-width="1.0" stroke-linejoin="round" stroke-linecap="butt" d="m480.3709 138.40222l0 0c0 0.7685852 0.6230469 1.3916473 1.3916321 1.3916473l0 0c0.3690796 0 0.723053 -0.1466217 0.9840393 -0.40760803c0.26098633 -0.26098633 0.40759277 -0.6149597 0.40759277 -0.9840393l0 0c0 -0.7685852 -0.6230469 -1.3916473 -1.3916321 -1.3916473l0 0c-0.7685852 0 -1.3916321 0.62306213 -1.3916321 1.3916473z" fill-rule="evenodd"/><path fill="#ffffff" d="m409.77954 141.09448l48.0 0l0 -23.999992l-48.0 0z" fill-rule="evenodd"/><path stroke="#000000" stroke-width="1.0" stroke-linejoin="round" stroke-linecap="butt" d="m409.77954 141.09448l48.0 0l0 -23.999992l-48.0 0z" fill-rule="evenodd"/><path fill="#000000" fill-opacity="0.0" d="m434.29547 138.23573l19.4534 -8.675583" fill-rule="evenodd"/><path stroke="#000000" stroke-width="2.0" stroke-linejoin="round" stroke-linecap="butt" d="m445.255 133.34814l8.4938965 -3.7879944" fill-rule="evenodd"/><path fill="#000000" stroke="#000000" stroke-width="2.0" stroke-linecap="butt" d="m443.90952 130.3311l-6.9437256 6.7137604l9.634735 -0.6796875z" fill-rule="evenodd"/><path fill="#000000" fill-opacity="0.0" d="m433.7768 139.09212l0 -20.697006" fill-rule="evenodd"/><path stroke="#000000" stroke-width="2.0" stroke-linejoin="round" stroke-linecap="butt" d="m433.7768 127.09212l0 -8.696999" fill-rule="evenodd"/><path fill="#000000" stroke="#000000" stroke-width="2.0" stroke-linecap="butt" d="m430.47333 127.09212l3.3034668 9.076202l3.3034363 -9.076202z" fill-rule="evenodd"/><path fill="#000000" fill-opacity="0.0" d="m433.26358 138.23573l-19.4534 -8.675583" fill-rule="evenodd"/><path stroke="#000000" stroke-width="2.0" stroke-linejoin="round" stroke-linecap="butt" d="m422.30405 133.34814l-8.4938965 -3.7879944" fill-rule="evenodd"/><path fill="#000000" stroke="#000000" stroke-width="2.0" stroke-linecap="butt" d="m420.95853 136.36517l9.634766 0.6796875l-6.943756 -6.7137604z" fill-rule="evenodd"/><path fill="#000000" d="m432.3709 138.40222l0 0c0 0.7685852 0.6230469 1.3916473 1.3916321 1.3916473l0 0c0.3690796 0 0.723053 -0.1466217 0.9840393 -0.40760803c0.26098633 -0.26098633 0.40759277 -0.6149597 0.40759277 -0.9840393l0 0c0 -0.7685852 -0.6230469 -1.3916473 -1.3916321 -1.3916473l0 0c-0.7685852 0 -1.3916321 0.62306213 -1.3916321 1.3916473z" fill-rule="evenodd"/><path stroke="#000000" stroke-width="1.0" stroke-linejoin="round" stroke-linecap="butt" d="m432.3709 138.40222l0 0c0 0.7685852 0.6230469 1.3916473 1.3916321 1.3916473l0 0c0.3690796 0 0.723053 -0.1466217 0.9840393 -0.40760803c0.26098633 -0.26098633 0.40759277 -0.6149597 0.40759277 -0.9840393l0 0c0 -0.7685852 -0.6230469 -1.3916473 -1.3916321 -1.3916473l0 0c-0.7685852 0 -1.3916321 0.62306213 -1.3916321 1.3916473z" fill-rule="evenodd"/><path fill="#ffffff" d="m457.77954 117.09449l48.0 0l0 -24.0l-48.0 0z" fill-rule="evenodd"/><path stroke="#000000" stroke-width="1.0" stroke-linejoin="round" stroke-linecap="butt" d="m457.77954 117.09449l48.0 0l0 -24.0l-48.0 0z" fill-rule="evenodd"/><path fill="#000000" fill-opacity="0.0" d="m482.29547 114.235725l19.4534 -8.675568" fill-rule="evenodd"/><path stroke="#000000" stroke-width="2.0" stroke-linejoin="round" stroke-linecap="butt" d="m482.29547 114.235725l8.4938965 -3.7879868" fill-rule="evenodd"/><path fill="#000000" stroke="#000000" stroke-width="2.0" stroke-linecap="butt" d="m492.13486 113.46478l6.9437256 -6.713768l-9.634735 0.6796875z" fill-rule="evenodd"/><path fill="#000000" fill-opacity="0.0" d="m481.7768 115.09212l0 -20.697006" fill-rule="evenodd"/><path stroke="#000000" stroke-width="2.0" stroke-linejoin="round" stroke-linecap="butt" d="m481.7768 115.09212l0 -8.696999" fill-rule="evenodd"/><path fill="#000000" stroke="#000000" stroke-width="2.0" stroke-linecap="butt" d="m485.08023 106.39512l-3.3034363 -9.076195l-3.3034668 9.076195z" fill-rule="evenodd"/><path fill="#000000" fill-opacity="0.0" d="m481.26358 114.235725l-19.4534 -8.675568" fill-rule="evenodd"/><path stroke="#000000" stroke-width="2.0" stroke-linejoin="round" stroke-linecap="butt" d="m481.26358 114.235725l-8.4938965 -3.7879868" fill-rule="evenodd"/><path fill="#000000" stroke="#000000" stroke-width="2.0" stroke-linecap="butt" d="m474.1152 107.4307l-9.634735 -0.6796875l6.9437256 6.713768z" fill-rule="evenodd"/><path fill="#000000" d="m480.3709 114.40222l0 0c0 0.7685852 0.6230469 1.3916397 1.3916321 1.3916397l0 0c0.3690796 0 0.723053 -0.14661407 0.9840393 -0.4076004c0.26098633 -0.26098633 0.40759277 -0.6149521 0.40759277 -0.9840393l0 0c0 -0.7685852 -0.6230469 -1.3916473 -1.3916321 -1.3916473l0 0c-0.7685852 0 -1.3916321 0.62306213 -1.3916321 1.3916473z" fill-rule="evenodd"/><path stroke="#000000" stroke-width="1.0" stroke-linejoin="round" stroke-linecap="butt" d="m480.3709 114.40222l0 0c0 0.7685852 0.6230469 1.3916397 1.3916321 1.3916397l0 0c0.3690796 0 0.723053 -0.14661407 0.9840393 -0.4076004c0.26098633 -0.26098633 0.40759277 -0.6149521 0.40759277 -0.9840393l0 0c0 -0.7685852 -0.6230469 -1.3916473 -1.3916321 -1.3916473l0 0c-0.7685852 0 -1.3916321 0.62306213 -1.3916321 1.3916473z" fill-rule="evenodd"/><path fill="#ffffff" d="m409.77954 93.09449l48.0 0l0 24.0l-48.0 0z" fill-rule="evenodd"/><path stroke="#000000" stroke-width="1.0" stroke-linejoin="round" stroke-linecap="butt" d="m409.77954 93.09449l48.0 0l0 24.0l-48.0 0z" fill-rule="evenodd"/><path fill="#000000" fill-opacity="0.0" d="m434.29547 95.953255l19.46457 8.661415" fill-rule="evenodd"/><path stroke="#000000" stroke-width="2.0" stroke-linejoin="round" stroke-linecap="butt" d="m434.29547 95.95325l8.501038 3.7828217" fill-rule="evenodd"/><path fill="#000000" stroke="#000000" stroke-width="2.0" stroke-linecap="butt" d="m441.4535 102.7542l9.635284 0.6717911l-6.9492493 -6.708069z" fill-rule="evenodd"/><path fill="#000000" fill-opacity="0.0" d="m433.7768 95.09686l0 20.69291" fill-rule="evenodd"/><path stroke="#000000" stroke-width="2.0" stroke-linejoin="round" stroke-linecap="butt" d="m433.7768 95.096855l0 8.692917" fill-rule="evenodd"/><path fill="#000000" stroke="#000000" stroke-width="2.0" stroke-linecap="butt" d="m430.47333 103.78977l3.3034668 9.076195l3.3034363 -9.076195z" fill-rule="evenodd"/><path fill="#000000" fill-opacity="0.0" d="m433.26358 95.953255l-19.46457 8.661415" fill-rule="evenodd"/><path stroke="#000000" stroke-width="2.0" stroke-linejoin="round" stroke-linecap="butt" d="m433.26358 95.95325l-8.501038 3.7828217" fill-rule="evenodd"/><path fill="#000000" stroke="#000000" stroke-width="2.0" stroke-linecap="butt" d="m423.41953 96.717926l-6.9492493 6.708069l9.635284 -0.6717911z" fill-rule="evenodd"/><path fill="#000000" d="m432.3709 95.78094l0 0c0 -0.76537323 0.6204529 -1.3858261 1.3858032 -1.3858261l0 0c0.3675537 0 0.72003174 0.14600372 0.97994995 0.40589905c0.2598877 0.25989532 0.4058838 0.612381 0.4058838 0.97992706l0 0c0 0.76537323 -0.6204529 1.3858261 -1.3858337 1.3858261l0 0c-0.76535034 0 -1.3858032 -0.6204529 -1.3858032 -1.3858261z" fill-rule="evenodd"/><path stroke="#000000" stroke-width="1.0" stroke-linejoin="round" stroke-linecap="butt" d="m432.3709 95.78094l0 0c0 -0.76537323 0.6204529 -1.3858261 1.3858032 -1.3858261l0 0c0.3675537 0 0.72003174 0.14600372 0.97994995 0.40589905c0.2598877 0.25989532 0.4058838 0.612381 0.4058838 0.97992706l0 0c0 0.76537323 -0.6204529 1.3858261 -1.3858337 1.3858261l0 0c-0.76535034 0 -1.3858032 -0.6204529 -1.3858032 -1.3858261z" fill-rule="evenodd"/><path fill="#ffffff" d="m409.77954 69.09449l48.0 0l0 24.0l-48.0 0z" fill-rule="evenodd"/><path stroke="#000000" stroke-width="1.0" stroke-linejoin="round" stroke-linecap="butt" d="m409.77954 69.09449l48.0 0l0 24.0l-48.0 0z" fill-rule="evenodd"/><path fill="#ffffff" d="m408.0 10.984306l0 0c0 -1.4901848 1.2080383 -2.6982174 2.6982117 -2.6982174l35.894897 0c0.7156372 0 1.4019165 0.284276 1.9079285 0.7902899c0.50601196 0.5060139 0.7903137 1.1923151 0.7903137 1.9079275l0 10.792543c0 1.4901829 -1.2080383 2.6982155 -2.6982422 2.6982155l-35.894897 0l0 0c-1.4901733 0 -2.6982117 -1.2080326 -2.6982117 -2.6982155z" fill-rule="evenodd"/><path stroke="#000000" stroke-width="1.0" stroke-linejoin="round" stroke-linecap="butt" d="m408.0 10.984306l0 0c0 -1.4901848 1.2080383 -2.6982174 2.6982117 -2.6982174l35.894897 0c0.7156372 0 1.4019165 0.284276 1.9079285 0.7902899c0.50601196 0.5060139 0.7903137 1.1923151 0.7903137 1.9079275l0 10.792543c0 1.4901829 -1.2080383 2.6982155 -2.6982422 2.6982155l-35.894897 0l0 0c-1.4901733 0 -2.6982117 -1.2080326 -2.6982117 -2.6982155z" fill-rule="evenodd"/><path fill="#ffffff" d="m424.26248 12.511848l0 0c0 -1.0350113 0.8390198 -1.874053 1.874054 -1.874053l19.181 0c0.4970398 0 0.97372437 0.19744396 1.3251648 0.54889774c0.35147095 0.35145283 0.54888916 0.82812595 0.54888916 1.3251553l0 7.495989c0 1.0350094 -0.8390198 1.874052 -1.874054 1.874052l-19.181 0l0 0c-1.0350342 0 -1.874054 -0.83904266 -1.874054 -1.874052z" fill-rule="evenodd"/><path stroke="#999999" stroke-width="1.0" stroke-linejoin="round" stroke-linecap="butt" d="m424.26248 12.511848l0 0c0 -1.0350113 0.8390198 -1.874053 1.874054 -1.874053l19.181 0c0.4970398 0 0.97372437 0.19744396 1.3251648 0.54889774c0.35147095 0.35145283 0.54888916 0.82812595 0.54888916 1.3251553l0 7.495989c0 1.0350094 -0.8390198 1.874052 -1.874054 1.874052l-19.181 0l0 0c-1.0350342 0 -1.874054 -0.83904266 -1.874054 -1.874052z" fill-rule="evenodd"/><path fill="#000000" fill-opacity="0.0" d="m416.14545 90.78239l0 0c-0.9579468 0 -1.7345276 -1.1112976 -1.7345276 -2.4821548l0 -14.711952l0 0c0 -1.3708572 0.7765808 -2.4821548 1.7345276 -2.4821548z" fill-rule="evenodd"/><path fill="#000000" fill-opacity="0.0" d="m416.14545 90.78239l0 0c-0.9579468 0 -1.7345276 -1.1112976 -1.7345276 -2.4821548l0 -14.711952l0 0c0 -1.3708572 0.7765808 -2.4821548 1.7345276 -2.4821548" fill-rule="evenodd"/><path stroke="#000000" stroke-width="2.0" stroke-linejoin="round" stroke-linecap="butt" d="m416.14545 90.78239l0 0c-0.9579468 0 -1.7345276 -1.1112976 -1.7345276 -2.4821548l0 -14.711952l0 0c0 -1.3708572 0.7765808 -2.4821548 1.7345276 -2.4821548" fill-rule="evenodd"/><path fill="#000000" fill-opacity="0.0" d="m452.39093 90.78239l0 0c0.9579468 0 1.7345276 -1.1112976 1.7345276 -2.4821548l0 -14.711952l0 0c0 -1.3708572 -0.7765808 -2.4821548 -1.7345276 -2.4821548z" fill-rule="evenodd"/><path fill="#000000" fill-opacity="0.0" d="m452.39093 90.78239l0 0c0.9579468 0 1.7345276 -1.1112976 1.7345276 -2.4821548l0 -14.711952l0 0c0 -1.3708572 -0.7765808 -2.4821548 -1.7345276 -2.4821548" fill-rule="evenodd"/><path stroke="#000000" stroke-width="2.0" stroke-linejoin="round" stroke-linecap="butt" d="m452.39093 90.78239l0 0c0.9579468 0 1.7345276 -1.1112976 1.7345276 -2.4821548l0 -14.711952l0 0c0 -1.3708572 -0.7765808 -2.4821548 -1.7345276 -2.4821548" fill-rule="evenodd"/><path fill="#000000" fill-opacity="0.0" d="m432.08176 87.19719l0 0c-0.9579468 0 -1.7345276 -1.1112976 -1.7345276 -2.4821472l0 -7.5415573l0 0c0 -1.3708572 0.7765808 -2.4821548 1.7345276 -2.4821548z" fill-rule="evenodd"/><path fill="#000000" fill-opacity="0.0" d="m432.08176 87.19719l0 0c-0.9579468 0 -1.7345276 -1.1112976 -1.7345276 -2.4821472l0 -7.5415573l0 0c0 -1.3708572 0.7765808 -2.4821548 1.7345276 -2.4821548" fill-rule="evenodd"/><path stroke="#b7b7b7" stroke-width="2.0" stroke-linejoin="round" stroke-linecap="butt" d="m432.08176 87.19719l0 0c-0.9579468 0 -1.7345276 -1.1112976 -1.7345276 -2.4821472l0 -7.5415573l0 0c0 -1.3708572 0.7765808 -2.4821548 1.7345276 -2.4821548" fill-rule="evenodd"/><path fill="#000000" fill-opacity="0.0" d="m448.76236 87.19719l0 0c0.9579468 0 1.7345276 -1.1112976 1.7345276 -2.4821472l0 -7.5415573l0 0c0 -1.3708572 -0.7765808 -2.4821548 -1.7345276 -2.4821548z" fill-rule="evenodd"/><path fill="#000000" fill-opacity="0.0" d="m448.76236 87.19719l0 0c0.9579468 0 1.7345276 -1.1112976 1.7345276 -2.4821472l0 -7.5415573l0 0c0 -1.3708572 -0.7765808 -2.4821548 -1.7345276 -2.4821548" fill-rule="evenodd"/><path stroke="#b7b7b7" stroke-width="2.0" stroke-linejoin="round" stroke-linecap="butt" d="m448.76236 87.19719l0 0c0.9579468 0 1.7345276 -1.1112976 1.7345276 -2.4821472l0 -7.5415573l0 0c0 -1.3708572 -0.7765808 -2.4821548 -1.7345276 -2.4821548" fill-rule="evenodd"/><path fill="#ffffff" d="m409.77954 45.09449l48.0 0l0 24.0l-48.0 0z" fill-rule="evenodd"/><path stroke="#000000" stroke-width="1.0" stroke-linejoin="round" stroke-linecap="butt" d="m409.77954 45.09449l48.0 0l0 24.0l-48.0 0z" fill-rule="evenodd"/><path fill="#000000" fill-opacity="0.0" d="m420.85056 54.655987l0 0c2.0608215 -2.8924065 5.8529663 -4.893711 10.224945 -5.396206c4.3719482 -0.502491 8.807922 0.55311966 11.960846 2.846283l-9.811005 7.361618z" fill-rule="evenodd"/><path fill="#000000" fill-opacity="0.0" d="m420.85056 54.655987l0 0c2.0608215 -2.8924065 5.8529663 -4.893711 10.224945 -5.396206c4.3719482 -0.502491 8.807922 0.55311966 11.960846 2.846283" fill-rule="evenodd"/><path stroke="#000000" stroke-width="2.0" stroke-linejoin="round" stroke-linecap="butt" d="m420.85056 54.655987l0 0c2.0608215 -2.8924065 5.8529663 -4.893715 10.224945 -5.396206c1.0929565 -0.12562561 2.1900024 -0.15386581 3.269928 -0.08972931l0.17892456 0.012557983" fill-rule="evenodd"/><path fill="#000000" stroke="#000000" stroke-width="2.0" stroke-linecap="butt" d="m433.806 51.27424l6.465088 -0.11790848l-5.0283203 -4.0653496z" fill-rule="evenodd"/><path fill="#ffffff" d="m442.95172 56.330708l0 0c0 1.3220062 1.0716858 2.3937035 2.3937073 2.3937035l0 0c0.63482666 0 1.2436829 -0.25219345 1.6925964 -0.7010994c0.44891357 -0.44890594 0.7010803 -1.0577545 0.7010803 -1.6926041l0 0c0 -1.3220024 -1.0716858 -2.3936996 -2.3936768 -2.3936996l0 0c-1.3220215 0 -2.3937073 1.0716972 -2.3937073 2.3936996z" fill-rule="evenodd"/><path stroke="#000000" stroke-width="2.0" stroke-linejoin="round" stroke-linecap="butt" d="m442.95172 56.330708l0 0c0 1.3220062 1.0716858 2.3937035 2.3937073 2.3937035l0 0c0.63482666 0 1.2436829 -0.25219345 1.6925964 -0.7010994c0.44891357 -0.44890594 0.7010803 -1.0577545 0.7010803 -1.6926041l0 0c0 -1.3220024 -1.0716858 -2.3936996 -2.3936768 -2.3936996l0 0c-1.3220215 0 -2.3937073 1.0716972 -2.3937073 2.3936996z" fill-rule="evenodd"/><path fill="#ffffff" d="m421.49298 57.872795l0 0c0 -1.3220062 -1.0717163 -2.3937035 -2.3937073 -2.3937035l0 0c-0.6348572 0 -1.2436829 0.25219345 -1.6925964 0.7010994c-0.44891357 0.44890594 -0.70111084 1.0577545 -0.70111084 1.6926041l0 0c0 1.3220024 1.0717163 2.3936996 2.3937073 2.3936996l0 0c1.321991 0 2.3937073 -1.0716972 2.3937073 -2.3936996z" fill-rule="evenodd"/><path stroke="#000000" stroke-width="2.0" stroke-linejoin="round" stroke-linecap="butt" d="m421.49298 57.872795l0 0c0 -1.3220062 -1.0717163 -2.3937035 -2.3937073 -2.3937035l0 0c-0.6348572 0 -1.2436829 0.25219345 -1.6925964 0.7010994c-0.44891357 0.44890594 -0.70111084 1.0577545 -0.70111084 1.6926041l0 0c0 1.3220024 1.0717163 2.3936996 2.3937073 2.3936996l0 0c1.321991 0 2.3937073 -1.0716972 2.3937073 -2.3936996z" fill-rule="evenodd"/><path fill="#000000" fill-opacity="0.0" d="m443.9751 59.46688l0 0c-2.060791 2.8924065 -5.852936 4.893715 -10.224915 5.396202c-4.3719788 0.5024948 -8.807922 -0.55311584 -11.960846 -2.8462791l9.811005 -7.361622z" fill-rule="evenodd"/><path fill="#000000" fill-opacity="0.0" d="m443.9751 59.46688l0 0c-2.060791 2.8924065 -5.852936 4.893715 -10.224915 5.396202c-4.3719788 0.5024948 -8.807922 -0.55311584 -11.960846 -2.8462791" fill-rule="evenodd"/><path stroke="#000000" stroke-width="2.0" stroke-linejoin="round" stroke-linecap="butt" d="m443.9751 59.46688l0 0c-2.0608215 2.8924065 -5.8529663 4.893715 -10.224945 5.396202c-1.0929871 0.12562561 -2.1899414 0.15386963 -3.269928 0.08973694l-0.17892456 -0.012565613" fill-rule="evenodd"/><path fill="#000000" stroke="#000000" stroke-width="2.0" stroke-linecap="butt" d="m431.01965 62.84863l-6.4650574 0.11790848l5.0283203 4.065346z" fill-rule="evenodd"/><path fill="#ffffff" d="m521.1076 119.2961l48.0 0l0 -24.0l-48.0 0z" fill-rule="evenodd"/><path stroke="#000000" stroke-width="1.0" stroke-linejoin="round" stroke-linecap="butt" d="m521.1076 119.2961l48.0 0l0 -24.0l-48.0 0z" fill-rule="evenodd"/><path fill="#ffffff" d="m521.1076 71.2961l48.0 0l0 24.0l-48.0 0z" fill-rule="evenodd"/><path stroke="#000000" stroke-width="1.0" stroke-linejoin="round" stroke-linecap="butt" d="m521.1076 71.2961l48.0 0l0 24.0l-48.0 0z" fill-rule="evenodd"/><path fill="#000000" fill-opacity="0.0" d="m545.50824 76.19952l15.114258 6.725586" fill-rule="evenodd"/><path stroke="#000000" stroke-width="1.0" stroke-linejoin="round" stroke-linecap="butt" d="m545.50824 76.19951l9.632446 4.286293" fill-rule="evenodd"/><path fill="#000000" stroke="#000000" stroke-width="1.0" stroke-linecap="butt" d="m554.46924 81.99488l4.817627 0.33589172l-3.4746094 -3.3540344z" fill-rule="evenodd"/><path fill="#000000" fill-opacity="0.0" d="m545.10547 75.53452l0 16.068047" fill-rule="evenodd"/><path stroke="#000000" stroke-width="1.0" stroke-linejoin="round" stroke-linecap="butt" d="m545.10547 75.53452l0 10.068054" fill-rule="evenodd"/><path fill="#000000" stroke="#000000" stroke-width="1.0" stroke-linecap="butt" d="m543.45374 85.60258l1.6517334 4.538101l1.6517334 -4.538101z" fill-rule="evenodd"/><path fill="#000000" fill-opacity="0.0" d="m544.707 76.19952l-15.114258 6.725586" fill-rule="evenodd"/><path stroke="#000000" stroke-width="1.0" stroke-linejoin="round" stroke-linecap="butt" d="m544.707 76.19951l-9.632446 4.286293" fill-rule="evenodd"/><path fill="#000000" stroke="#000000" stroke-width="1.0" stroke-linecap="butt" d="m534.403 78.97674l-3.4746704 3.3540344l4.817688 -0.33589172z" fill-rule="evenodd"/><path fill="#000000" d="m544.0138 76.06571l0 0c0 -0.59430695 0.48181152 -1.0760956 1.0761108 -1.0760956l0 0c0.2854004 0 0.55908203 0.1133728 0.7609253 0.31518555c0.20178223 0.20180511 0.31518555 0.47550964 0.31518555 0.76091003l0 0c0 0.5943146 -0.48181152 1.0760956 -1.0761108 1.0760956l0 0c-0.5942993 0 -1.0761108 -0.481781 -1.0761108 -1.0760956z" fill-rule="evenodd"/><path stroke="#000000" stroke-width="1.0" stroke-linejoin="round" stroke-linecap="butt" d="m544.0138 76.06571l0 0c0 -0.59430695 0.48181152 -1.0760956 1.0761108 -1.0760956l0 0c0.2854004 0 0.55908203 0.1133728 0.7609253 0.31518555c0.20178223 0.20180511 0.31518555 0.47550964 0.31518555 0.76091003l0 0c0 0.5943146 -0.48181152 1.0760956 -1.0761108 1.0760956l0 0c-0.5942993 0 -1.0761108 -0.481781 -1.0761108 -1.0760956z" fill-rule="evenodd"/><path fill="#ffffff" d="m521.1076 47.296097l48.0 0l0 24.0l-48.0 0z" fill-rule="evenodd"/><path stroke="#000000" stroke-width="1.0" stroke-linejoin="round" stroke-linecap="butt" d="m521.1076 47.296097l48.0 0l0 24.0l-48.0 0z" fill-rule="evenodd"/><path fill="#000000" fill-opacity="0.0" d="m527.4735 68.98399l0 0c-0.9579468 0 -1.7344971 -1.1112976 -1.7344971 -2.4821548l0 -14.711952l0 0c0 -1.3708534 0.7765503 -2.482151 1.7344971 -2.482151z" fill-rule="evenodd"/><path fill="#000000" fill-opacity="0.0" d="m527.4735 68.98399l0 0c-0.9579468 0 -1.7344971 -1.1112976 -1.7344971 -2.4821548l0 -14.711952l0 0c0 -1.3708534 0.7765503 -2.482151 1.7344971 -2.482151" fill-rule="evenodd"/><path stroke="#000000" stroke-width="1.0" stroke-linejoin="round" stroke-linecap="butt" d="m527.4735 68.98399l0 0c-0.9579468 0 -1.7344971 -1.1112976 -1.7344971 -2.4821548l0 -14.711952l0 0c0 -1.3708534 0.7765503 -2.482151 1.7344971 -2.482151" fill-rule="evenodd"/><path fill="#000000" fill-opacity="0.0" d="m563.719 68.98399l0 0c0.9579468 0 1.7345581 -1.1112976 1.7345581 -2.4821548l0 -14.711952l0 0c0 -1.3708534 -0.7766113 -2.482151 -1.7345581 -2.482151z" fill-rule="evenodd"/><path fill="#000000" fill-opacity="0.0" d="m563.719 68.98399l0 0c0.9579468 0 1.7345581 -1.1112976 1.7345581 -2.4821548l0 -14.711952l0 0c0 -1.3708534 -0.7766113 -2.482151 -1.7345581 -2.482151" fill-rule="evenodd"/><path stroke="#000000" stroke-width="1.0" stroke-linejoin="round" stroke-linecap="butt" d="m563.719 68.98399l0 0c0.9579468 0 1.7345581 -1.1112976 1.7345581 -2.4821548l0 -14.711952l0 0c0 -1.3708534 -0.7766113 -2.482151 -1.7345581 -2.482151" fill-rule="evenodd"/><path fill="#000000" fill-opacity="0.0" d="m543.40985 65.398796l0 0c-0.9579468 0 -1.7345581 -1.1112976 -1.7345581 -2.482151l0 -7.5415535l0 0c0 -1.3708534 0.7766113 -2.482151 1.7345581 -2.482151z" fill-rule="evenodd"/><path fill="#000000" fill-opacity="0.0" d="m543.40985 65.398796l0 0c-0.9579468 0 -1.7345581 -1.1112976 -1.7345581 -2.482151l0 -7.5415535l0 0c0 -1.3708534 0.7766113 -2.482151 1.7345581 -2.482151" fill-rule="evenodd"/><path stroke="#b7b7b7" stroke-width="1.0" stroke-linejoin="round" stroke-linecap="butt" d="m543.40985 65.398796l0 0c-0.9579468 0 -1.7345581 -1.1112976 -1.7345581 -2.482151l0 -7.5415535l0 0c0 -1.3708534 0.7766113 -2.482151 1.7345581 -2.482151" fill-rule="evenodd"/><path fill="#000000" fill-opacity="0.0" d="m560.09045 65.398796l0 0c0.9579468 0 1.7344971 -1.1112976 1.7344971 -2.482151l0 -7.5415535l0 0c0 -1.3708534 -0.7765503 -2.482151 -1.7344971 -2.482151z" fill-rule="evenodd"/><path fill="#000000" fill-opacity="0.0" d="m560.09045 65.398796l0 0c0.9579468 0 1.7344971 -1.1112976 1.7344971 -2.482151l0 -7.5415535l0 0c0 -1.3708534 -0.7765503 -2.482151 -1.7344971 -2.482151" fill-rule="evenodd"/><path stroke="#b7b7b7" stroke-width="1.0" stroke-linejoin="round" stroke-linecap="butt" d="m560.09045 65.398796l0 0c0.9579468 0 1.7344971 -1.1112976 1.7344971 -2.482151l0 -7.5415535l0 0c0 -1.3708534 -0.7765503 -2.482151 -1.7344971 -2.482151" fill-rule="evenodd"/><path fill="#ffffff" d="m521.1076 23.296095l48.0 0l0 24.000002l-48.0 0z" fill-rule="evenodd"/><path stroke="#000000" stroke-width="1.0" stroke-linejoin="round" stroke-linecap="butt" d="m521.1076 23.296095l48.0 0l0 24.000002l-48.0 0z" fill-rule="evenodd"/><path fill="#000000" fill-opacity="0.0" d="m532.17865 32.857594l0 0c2.060791 -2.8924046 5.8529663 -4.893711 10.224915 -5.396204c4.3720093 -0.502491 8.807922 0.55311966 11.960876 2.846283l-9.811035 7.36162z" fill-rule="evenodd"/><path fill="#000000" fill-opacity="0.0" d="m532.17865 32.857594l0 0c2.060791 -2.8924046 5.8529663 -4.893711 10.224915 -5.396204c4.3720093 -0.502491 8.807922 0.55311966 11.960876 2.846283" fill-rule="evenodd"/><path stroke="#000000" stroke-width="1.0" stroke-linejoin="round" stroke-linecap="butt" d="m532.17865 32.857594l0 0c2.060791 -2.8924046 5.8529663 -4.893711 10.224915 -5.396202c2.1859741 -0.2512455 4.3880005 -0.11296654 6.437561 0.3747692c0.5124512 0.12193489 1.0153198 0.26570892 1.5060425 0.4307003l0.0056152344 0.0019760132" fill-rule="evenodd"/><path fill="#000000" stroke="#000000" stroke-width="1.0" stroke-linecap="butt" d="m549.8518 29.254606l3.2093506 0.39071655l-2.2073364 -2.362257z" fill-rule="evenodd"/><path fill="#ffffff" d="m554.2798 34.53232l0 0c0 1.3220024 1.0717163 2.3936996 2.3937378 2.3936996l0 0c0.63482666 0 1.2436523 -0.25219345 1.6925659 -0.7010994c0.44891357 -0.44890594 0.70111084 -1.0577545 0.70111084 -1.6926003l0 0c0 -1.3220062 -1.0717163 -2.3937035 -2.3936768 -2.3937035l0 0c-1.3220215 0 -2.3937378 1.0716972 -2.3937378 2.3937035z" fill-rule="evenodd"/><path stroke="#000000" stroke-width="1.0" stroke-linejoin="round" stroke-linecap="butt" d="m554.2798 34.53232l0 0c0 1.3220024 1.0717163 2.3936996 2.3937378 2.3936996l0 0c0.63482666 0 1.2436523 -0.25219345 1.6925659 -0.7010994c0.44891357 -0.44890594 0.70111084 -1.0577545 0.70111084 -1.6926003l0 0c0 -1.3220062 -1.0717163 -2.3937035 -2.3936768 -2.3937035l0 0c-1.3220215 0 -2.3937378 1.0716972 -2.3937378 2.3937035z" fill-rule="evenodd"/><path fill="#ffffff" d="m532.82104 36.0744l0 0c0 -1.3220062 -1.0716553 -2.3936996 -2.3936768 -2.3936996l0 0c-0.6348877 0 -1.2437134 0.25219345 -1.692627 0.7010994c-0.44891357 0.44890594 -0.70111084 1.0577507 -0.70111084 1.6926003l0 0c0 1.3220062 1.0717163 2.3936996 2.3937378 2.3936996l0 0c1.3220215 0 2.3936768 -1.0716934 2.3936768 -2.3936996z" fill-rule="evenodd"/><path stroke="#000000" stroke-width="1.0" stroke-linejoin="round" stroke-linecap="butt" d="m532.82104 36.0744l0 0c0 -1.3220062 -1.0716553 -2.3936996 -2.3936768 -2.3936996l0 0c-0.6348877 0 -1.2437134 0.25219345 -1.692627 0.7010994c-0.44891357 0.44890594 -0.70111084 1.0577507 -0.70111084 1.6926003l0 0c0 1.3220062 1.0717163 2.3936996 2.3937378 2.3936996l0 0c1.3220215 0 2.3936768 -1.0716934 2.3936768 -2.3936996z" fill-rule="evenodd"/><path fill="#000000" fill-opacity="0.0" d="m555.3032 37.668488l0 0c-2.060852 2.8924065 -5.8529663 4.893715 -10.224976 5.396206c-4.3719482 0.502491 -8.807922 -0.55311966 -11.960815 -2.846283l9.810974 -7.361618z" fill-rule="evenodd"/><path fill="#000000" fill-opacity="0.0" d="m555.3032 37.668488l0 0c-2.060852 2.8924065 -5.8529663 4.893715 -10.224976 5.396206c-4.3719482 0.502491 -8.807922 -0.55311966 -11.960815 -2.846283" fill-rule="evenodd"/><path stroke="#000000" stroke-width="1.0" stroke-linejoin="round" stroke-linecap="butt" d="m555.30316 37.668488l0 0c-2.060791 2.8924065 -5.8529663 4.893711 -10.224915 5.396206c-2.1859741 0.2512474 -4.3879395 0.11296463 -6.437561 -0.37477112c-0.51239014 -0.12193298 -1.0152588 -0.26570892 -1.5059814 -0.4306984l-0.0056762695 -0.0019760132" fill-rule="evenodd"/><path fill="#000000" stroke="#000000" stroke-width="1.0" stroke-linecap="butt" d="m537.63007 41.271477l-3.2094116 -0.39071655l2.2073975 2.362259z" fill-rule="evenodd"/><path fill="#ffffff" d="m569.1076 71.2961l48.0 0l0 24.0l-48.0 0z" fill-rule="evenodd"/><path stroke="#000000" stroke-width="1.0" stroke-linejoin="round" stroke-linecap="butt" d="m569.1076 71.2961l48.0 0l0 24.0l-48.0 0z" fill-rule="evenodd"/><path fill="#000000" fill-opacity="0.0" d="m593.50824 90.39268l15.114258 -6.7255936" fill-rule="evenodd"/><path stroke="#000000" stroke-width="1.0" stroke-linejoin="round" stroke-linecap="butt" d="m593.50824 90.39268l9.632446 -4.286293" fill-rule="evenodd"/><path fill="#000000" stroke="#000000" stroke-width="1.0" stroke-linecap="butt" d="m603.81226 87.615456l3.4746094 -3.3540344l-4.817627 0.33589172z" fill-rule="evenodd"/><path fill="#000000" fill-opacity="0.0" d="m593.10547 91.05766l0 -16.068047" fill-rule="evenodd"/><path stroke="#000000" stroke-width="1.0" stroke-linejoin="round" stroke-linecap="butt" d="m593.10547 91.05766l0 -10.068047" fill-rule="evenodd"/><path fill="#000000" stroke="#000000" stroke-width="1.0" stroke-linecap="butt" d="m594.7572 80.98962l-1.6517334 -4.5380936l-1.6517334 4.5380936z" fill-rule="evenodd"/><path fill="#000000" fill-opacity="0.0" d="m592.707 90.39268l-15.114258 -6.7255936" fill-rule="evenodd"/><path stroke="#000000" stroke-width="1.0" stroke-linejoin="round" stroke-linecap="butt" d="m592.707 90.39268l-9.632446 -4.286293" fill-rule="evenodd"/><path fill="#000000" stroke="#000000" stroke-width="1.0" stroke-linecap="butt" d="m583.74603 84.59731l-4.817688 -0.33589172l3.4746704 3.3540344z" fill-rule="evenodd"/><path fill="#000000" d="m592.0138 90.52648l0 0c0 0.59430695 0.48181152 1.076088 1.0761108 1.076088l0 0c0.2854004 0 0.55908203 -0.1133728 0.7609253 -0.31517792c0.20178223 -0.20180511 0.31518555 -0.47551727 0.31518555 -0.76091003l0 0c0 -0.5943146 -0.48181152 -1.0760956 -1.0761108 -1.0760956l0 0c-0.5942993 0 -1.0761108 0.481781 -1.0761108 1.0760956z" fill-rule="evenodd"/><path stroke="#000000" stroke-width="1.0" stroke-linejoin="round" stroke-linecap="butt" d="m592.0138 90.52648l0 0c0 0.59430695 0.48181152 1.076088 1.0761108 1.076088l0 0c0.2854004 0 0.55908203 -0.1133728 0.7609253 -0.31517792c0.20178223 -0.20180511 0.31518555 -0.47551727 0.31518555 -0.76091003l0 0c0 -0.5943146 -0.48181152 -1.0760956 -1.0761108 -1.0760956l0 0c-0.5942993 0 -1.0761108 0.481781 -1.0761108 1.0760956z" fill-rule="evenodd"/><path fill="#000000" fill-opacity="0.0" d="m545.50824 100.19952l15.114258 6.725586" fill-rule="evenodd"/><path stroke="#000000" stroke-width="1.0" stroke-linejoin="round" stroke-linecap="butt" d="m550.99005 102.63881l9.632446 4.286293" fill-rule="evenodd"/><path fill="#000000" stroke="#000000" stroke-width="1.0" stroke-linecap="butt" d="m551.6615 101.129745l-4.817627 -0.33589172l3.4746094 3.3540268z" fill-rule="evenodd"/><path fill="#000000" fill-opacity="0.0" d="m545.10547 99.53452l0 16.068047" fill-rule="evenodd"/><path stroke="#000000" stroke-width="1.0" stroke-linejoin="round" stroke-linecap="butt" d="m545.10547 105.53453l0 10.068047" fill-rule="evenodd"/><path fill="#000000" stroke="#000000" stroke-width="1.0" stroke-linecap="butt" d="m546.7572 105.53453l-1.6517334 -4.538101l-1.6517334 4.538101z" fill-rule="evenodd"/><path fill="#000000" fill-opacity="0.0" d="m544.707 100.19952l-15.114258 6.725586" fill-rule="evenodd"/><path stroke="#000000" stroke-width="1.0" stroke-linejoin="round" stroke-linecap="butt" d="m539.22516 102.63881l-9.632446 4.286293" fill-rule="evenodd"/><path fill="#000000" stroke="#000000" stroke-width="1.0" stroke-linecap="butt" d="m539.8967 104.14788l3.4746094 -3.3540268l-4.817627 0.33589172z" fill-rule="evenodd"/><path fill="#000000" d="m544.0138 100.06571l0 0c0 -0.59430695 0.48181152 -1.0760956 1.0761108 -1.0760956l0 0c0.2854004 0 0.55908203 0.1133728 0.7609253 0.31518555c0.20178223 0.20180511 0.31518555 0.47550964 0.31518555 0.76091003l0 0c0 0.5943146 -0.48181152 1.0760956 -1.0761108 1.0760956l0 0c-0.5942993 0 -1.0761108 -0.481781 -1.0761108 -1.0760956z" fill-rule="evenodd"/><path stroke="#000000" stroke-width="1.0" stroke-linejoin="round" stroke-linecap="butt" d="m544.0138 100.06571l0 0c0 -0.59430695 0.48181152 -1.0760956 1.0761108 -1.0760956l0 0c0.2854004 0 0.55908203 0.1133728 0.7609253 0.31518555c0.20178223 0.20180511 0.31518555 0.47550964 0.31518555 0.76091003l0 0c0 0.5943146 -0.48181152 1.0760956 -1.0761108 1.0760956l0 0c-0.5942993 0 -1.0761108 -0.481781 -1.0761108 -1.0760956z" fill-rule="evenodd"/><path fill="#ffffff" d="m569.1076 119.2961l48.0 0l0 -24.0l-48.0 0z" fill-rule="evenodd"/><path stroke="#000000" stroke-width="1.0" stroke-linejoin="round" stroke-linecap="butt" d="m569.1076 119.2961l48.0 0l0 -24.0l-48.0 0z" fill-rule="evenodd"/><path fill="#000000" fill-opacity="0.0" d="m593.50824 114.39268l15.114258 -6.7255936" fill-rule="evenodd"/><path stroke="#000000" stroke-width="1.0" stroke-linejoin="round" stroke-linecap="butt" d="m598.99005 111.953384l9.632446 -4.2863007" fill-rule="evenodd"/><path fill="#000000" stroke="#000000" stroke-width="1.0" stroke-linecap="butt" d="m598.3185 110.444305l-3.4746094 3.3540344l4.817627 -0.33589172z" fill-rule="evenodd"/><path fill="#000000" fill-opacity="0.0" d="m593.10547 115.05766l0 -16.068047" fill-rule="evenodd"/><path stroke="#000000" stroke-width="1.0" stroke-linejoin="round" stroke-linecap="butt" d="m593.10547 109.05766l0 -10.068047" fill-rule="evenodd"/><path fill="#000000" stroke="#000000" stroke-width="1.0" stroke-linecap="butt" d="m591.45374 109.05766l1.6517334 4.5380936l1.6517334 -4.5380936z" fill-rule="evenodd"/><path fill="#000000" fill-opacity="0.0" d="m592.707 114.39268l-15.114258 -6.7255936" fill-rule="evenodd"/><path stroke="#000000" stroke-width="1.0" stroke-linejoin="round" stroke-linecap="butt" d="m587.22516 111.953384l-9.632446 -4.2863007" fill-rule="evenodd"/><path fill="#000000" stroke="#000000" stroke-width="1.0" stroke-linecap="butt" d="m586.5537 113.46245l4.817627 0.33589172l-3.4746094 -3.3540344z" fill-rule="evenodd"/><path fill="#000000" d="m592.0138 114.52648l0 0c0 0.59430695 0.48181152 1.076088 1.0761108 1.076088l0 0c0.2854004 0 0.55908203 -0.1133728 0.7609253 -0.31517792c0.20178223 -0.20180511 0.31518555 -0.47551727 0.31518555 -0.76091003l0 0c0 -0.5943146 -0.48181152 -1.0760956 -1.0761108 -1.0760956l0 0c-0.5942993 0 -1.0761108 0.481781 -1.0761108 1.0760956z" fill-rule="evenodd"/><path stroke="#000000" stroke-width="1.0" stroke-linejoin="round" stroke-linecap="butt" d="m592.0138 114.52648l0 0c0 0.59430695 0.48181152 1.076088 1.0761108 1.076088l0 0c0.2854004 0 0.55908203 -0.1133728 0.7609253 -0.31517792c0.20178223 -0.20180511 0.31518555 -0.47551727 0.31518555 -0.76091003l0 0c0 -0.5943146 -0.48181152 -1.0760956 -1.0761108 -1.0760956l0 0c-0.5942993 0 -1.0761108 0.481781 -1.0761108 1.0760956z" fill-rule="evenodd"/><path fill="#ffffff" d="m521.1076 119.2961l48.0 0l0 24.0l-48.0 0z" fill-rule="evenodd"/><path stroke="#000000" stroke-width="1.0" stroke-linejoin="round" stroke-linecap="butt" d="m521.1076 119.2961l48.0 0l0 24.0l-48.0 0z" fill-rule="evenodd"/><path fill="#000000" fill-opacity="0.0" d="m532.17865 128.85759l0 0c2.060791 -2.8924026 5.8529663 -4.8937073 10.224915 -5.396202c4.3720093 -0.5024872 8.807922 0.5531235 11.960876 2.846283l-9.811035 7.3616257z" fill-rule="evenodd"/><path fill="#000000" fill-opacity="0.0" d="m532.17865 128.85759l0 0c2.060791 -2.8924026 5.8529663 -4.8937073 10.224915 -5.396202c4.3720093 -0.5024872 8.807922 0.5531235 11.960876 2.846283" fill-rule="evenodd"/><path stroke="#000000" stroke-width="1.0" stroke-linejoin="round" stroke-linecap="butt" d="m532.17865 128.85759l0 0c2.060791 -2.892395 5.8529663 -4.8937073 10.224915 -5.396202c2.1859741 -0.25125122 4.3880005 -0.112960815 6.437561 0.37477875c0.5124512 0.12193298 1.0153198 0.2657013 1.5060425 0.43068695l0.0056152344 0.0019836426" fill-rule="evenodd"/><path fill="#000000" stroke="#000000" stroke-width="1.0" stroke-linecap="butt" d="m549.8518 125.2546l3.2093506 0.39071655l-2.2073364 -2.3622513z" fill-rule="evenodd"/><path fill="#ffffff" d="m554.2798 130.53232l0 0c0 1.3220062 1.0717163 2.393692 2.3937378 2.393692l0 0c0.63482666 0 1.2436523 -0.252182 1.6925659 -0.7010956c0.44891357 -0.44889832 0.70111084 -1.0577545 0.70111084 -1.6925964l0 0c0 -1.3220062 -1.0717163 -2.3937073 -2.3936768 -2.3937073l0 0c-1.3220215 0 -2.3937378 1.071701 -2.3937378 2.3937073z" fill-rule="evenodd"/><path stroke="#000000" stroke-width="1.0" stroke-linejoin="round" stroke-linecap="butt" d="m554.2798 130.53232l0 0c0 1.3220062 1.0717163 2.393692 2.3937378 2.393692l0 0c0.63482666 0 1.2436523 -0.252182 1.6925659 -0.7010956c0.44891357 -0.44889832 0.70111084 -1.0577545 0.70111084 -1.6925964l0 0c0 -1.3220062 -1.0717163 -2.3937073 -2.3936768 -2.3937073l0 0c-1.3220215 0 -2.3937378 1.071701 -2.3937378 2.3937073z" fill-rule="evenodd"/><path fill="#000000" d="m532.82104 132.0744l0 0c0 -1.3220062 -1.0716553 -2.3937073 -2.3936768 -2.3937073l0 0c-0.6348877 0 -1.2437134 0.25219727 -1.692627 0.70111084c-0.44891357 0.44889832 -0.70111084 1.0577545 -0.70111084 1.6925964l0 0c0 1.3220062 1.0717163 2.3937073 2.3937378 2.3937073l0 0c1.3220215 0 2.3936768 -1.071701 2.3936768 -2.3937073z" fill-rule="evenodd"/><path stroke="#000000" stroke-width="1.0" stroke-linejoin="round" stroke-linecap="butt" d="m532.82104 132.0744l0 0c0 -1.3220062 -1.0716553 -2.3937073 -2.3936768 -2.3937073l0 0c-0.6348877 0 -1.2437134 0.25219727 -1.692627 0.70111084c-0.44891357 0.44889832 -0.70111084 1.0577545 -0.70111084 1.6925964l0 0c0 1.3220062 1.0717163 2.3937073 2.3937378 2.3937073l0 0c1.3220215 0 2.3936768 -1.071701 2.3936768 -2.3937073z" fill-rule="evenodd"/><path fill="#000000" fill-opacity="0.0" d="m193.71606 197.37416l192.0 0l0 98.55119l-192.0 0z" fill-rule="evenodd"/><path stroke="#000000" stroke-width="4.0" stroke-linejoin="round" stroke-linecap="butt" d="m193.71606 197.37416l192.0 0l0 98.55119l-192.0 0z" fill-rule="evenodd"/><path fill="#000000" fill-opacity="0.0" d="m290.94 224.68279l46.17386 20.818588" fill-rule="evenodd"/><path stroke="#000000" stroke-width="4.0" stroke-linejoin="round" stroke-linecap="butt" d="m290.94 224.68279l24.294891 10.953949" fill-rule="evenodd"/><path fill="#000000" stroke="#000000" stroke-width="4.0" stroke-linecap="butt" d="m312.51926 241.65974l19.263763 1.4381104l-13.832489 -13.484161z" fill-rule="evenodd"/><path fill="#000000" fill-opacity="0.0" d="m289.70956 222.62437l0 49.737473" fill-rule="evenodd"/><path stroke="#000000" stroke-width="4.0" stroke-linejoin="round" stroke-linecap="butt" d="m289.7096 222.62436l0 25.737503" fill-rule="evenodd"/><path fill="#000000" stroke="#000000" stroke-width="4.0" stroke-linecap="butt" d="m283.10266 248.36186l6.6069336 18.15239l6.6069336 -18.15239z" fill-rule="evenodd"/><path fill="#000000" fill-opacity="0.0" d="m288.49213 224.68279l-46.173843 20.818588" fill-rule="evenodd"/><path stroke="#000000" stroke-width="4.0" stroke-linejoin="round" stroke-linecap="butt" d="m288.49213 224.68279l-24.294891 10.953949" fill-rule="evenodd"/><path fill="#000000" stroke="#000000" stroke-width="4.0" stroke-linecap="butt" d="m261.4816 229.6137l-13.832504 13.484161l19.263779 -1.4381104z" fill-rule="evenodd"/><path fill="#000000" d="m286.3745 224.26862l0 0c0 -1.8396454 1.4718323 -3.3309631 3.287445 -3.3309631l0 0c0.8718872 0 1.7080688 0.3509369 2.324585 0.97561646c0.6165161 0.62467957 0.9628906 1.4719238 0.9628906 2.3553467l0 0c0 1.8396454 -1.4718628 3.3309784 -3.2874756 3.3309784l0 0c-1.8156128 0 -3.287445 -1.491333 -3.287445 -3.3309784z" fill-rule="evenodd"/><path stroke="#000000" stroke-width="8.0" stroke-linejoin="round" stroke-linecap="butt" d="m286.3745 224.26862l0 0c0 -1.8396454 1.4718323 -3.3309631 3.287445 -3.3309631l0 0c0.8718872 0 1.7080688 0.3509369 2.324585 0.97561646c0.6165161 0.62467957 0.9628906 1.4719238 0.9628906 2.3553467l0 0c0 1.8396454 -1.4718628 3.3309784 -3.2874756 3.3309784l0 0c-1.8156128 0 -3.287445 -1.491333 -3.287445 -3.3309784z" fill-rule="evenodd"/><path fill="#000000" fill-opacity="0.0" d="m193.71606 98.79294l192.0 0l0 98.55118l-192.0 0z" fill-rule="evenodd"/><path stroke="#000000" stroke-width="4.0" stroke-linejoin="round" stroke-linecap="butt" d="m193.71606 98.79294l192.0 0l0 98.55118l-192.0 0z" fill-rule="evenodd"/><path fill="#000000" fill-opacity="0.0" d="m218.10641 187.86867l0 0c-3.8318024 0 -6.93808 -4.4451904 -6.93808 -9.928604l0 -60.96187l0 0c0 -5.4834137 3.1062775 -9.9285965 6.93808 -9.9285965z" fill-rule="evenodd"/><path fill="#000000" fill-opacity="0.0" d="m218.10641 187.86867l0 0c-3.8318024 0 -6.93808 -4.4451904 -6.93808 -9.928604l0 -60.96187l0 0c0 -5.4834137 3.1062775 -9.9285965 6.93808 -9.9285965" fill-rule="evenodd"/><path stroke="#000000" stroke-width="4.0" stroke-linejoin="round" stroke-linecap="butt" d="m218.10641 187.86867l0 0c-3.8318024 0 -6.93808 -4.4451904 -6.93808 -9.928604l0 -60.96187l0 0c0 -5.4834137 3.1062775 -9.9285965 6.93808 -9.9285965" fill-rule="evenodd"/><path fill="#000000" fill-opacity="0.0" d="m363.08832 187.86867l0 0c3.8318176 0 6.93808 -4.4451904 6.93808 -9.928604l0 -60.96187l0 0c0 -5.4834137 -3.1062622 -9.9285965 -6.93808 -9.9285965z" fill-rule="evenodd"/><path fill="#000000" fill-opacity="0.0" d="m363.08832 187.86867l0 0c3.8318176 0 6.93808 -4.4451904 6.93808 -9.928604l0 -60.96187l0 0c0 -5.4834137 -3.1062622 -9.9285965 -6.93808 -9.9285965" fill-rule="evenodd"/><path stroke="#000000" stroke-width="4.0" stroke-linejoin="round" stroke-linecap="butt" d="m363.08832 187.86867l0 0c3.8318176 0 6.93808 -4.4451904 6.93808 -9.928604l0 -60.96187l0 0c0 -5.4834137 -3.1062622 -9.9285965 -6.93808 -9.9285965" fill-rule="evenodd"/><path fill="#000000" fill-opacity="0.0" d="m281.85162 173.1427l0 0c-3.831787 0 -6.93808 -4.4451904 -6.93808 -9.928604l0 -31.509872l0 0c0 -5.483406 3.1062927 -9.9285965 6.93808 -9.9285965z" fill-rule="evenodd"/><path fill="#000000" fill-opacity="0.0" d="m281.85162 173.1427l0 0c-3.831787 0 -6.93808 -4.4451904 -6.93808 -9.928604l0 -31.509872l0 0c0 -5.483406 3.1062927 -9.9285965 6.93808 -9.9285965" fill-rule="evenodd"/><path stroke="#b7b7b7" stroke-width="4.0" stroke-linejoin="round" stroke-linecap="butt" d="m281.85162 173.1427l0 0c-3.831787 0 -6.93808 -4.4451904 -6.93808 -9.928604l0 -31.509872l0 0c0 -5.483406 3.1062927 -9.9285965 6.93808 -9.9285965" fill-rule="evenodd"/><path fill="#000000" fill-opacity="0.0" d="m348.57407 173.1427l0 0c3.831787 0 6.9380493 -4.4451904 6.9380493 -9.928604l0 -31.509872l0 0c0 -5.483406 -3.1062622 -9.9285965 -6.9380493 -9.9285965z" fill-rule="evenodd"/><path fill="#000000" fill-opacity="0.0" d="m348.57407 173.1427l0 0c3.831787 0 6.9380493 -4.4451904 6.9380493 -9.928604l0 -31.509872l0 0c0 -5.483406 -3.1062622 -9.9285965 -6.9380493 -9.9285965" fill-rule="evenodd"/><path stroke="#b7b7b7" stroke-width="4.0" stroke-linejoin="round" stroke-linecap="butt" d="m348.57407 173.1427l0 0c3.831787 0 6.9380493 -4.4451904 6.9380493 -9.928604l0 -31.509872l0 0c0 -5.483406 -3.1062622 -9.9285965 -6.9380493 -9.9285965" fill-rule="evenodd"/><path fill="#000000" fill-opacity="0.0" d="m193.71606 0.21172257l192.0 0l0 98.55118l-192.0 0z" fill-rule="evenodd"/><path stroke="#000000" stroke-width="4.0" stroke-linejoin="round" stroke-linecap="butt" d="m193.71606 0.21172257l192.0 0l0 98.55118l-192.0 0z" fill-rule="evenodd"/><path fill="#000000" fill-opacity="0.0" d="m237.72252 39.886868l0 0c8.181702 -12.104088 23.519394 -20.498867 41.243576 -22.573866c17.724182 -2.0750008 35.685455 2.4214172 48.298492 12.091028l-39.76526 29.837608z" fill-rule="evenodd"/><path fill="#000000" fill-opacity="0.0" d="m237.72252 39.886868l0 0c8.181702 -12.104088 23.519394 -20.498867 41.243576 -22.573866c17.724182 -2.0750008 35.685455 2.4214172 48.298492 12.091028" fill-rule="evenodd"/><path stroke="#000000" stroke-width="4.0" stroke-linejoin="round" stroke-linecap="butt" d="m237.7225 39.886864l0 0c8.181717 -12.104084 23.51941 -20.498861 41.24359 -22.573862c8.862091 -1.0375004 17.783447 -0.43214607 26.065948 1.641285c2.0706177 0.5183563 4.101288 1.1284695 6.0811462 1.8276062l0.29360962 0.10567474" fill-rule="evenodd"/><path fill="#000000" stroke="#000000" stroke-width="4.0" stroke-linecap="butt" d="m309.31406 24.784277l12.798859 1.853035l-8.613373 -9.646454z" fill-rule="evenodd"/><path fill="#ffffff" d="m326.40482 46.370544l0 0c0 5.4271774 4.286804 9.826771 9.574829 9.826771l0 0c2.5393677 0 4.974762 -1.0353165 6.7703857 -2.878193c1.7956238 -1.8428764 2.8044128 -4.3423576 2.8044128 -6.948578l0 0c0 -5.4271774 -4.286804 -9.826771 -9.574799 -9.826771l0 0c-5.288025 0 -9.574829 4.3995934 -9.574829 9.826771z" fill-rule="evenodd"/><path stroke="#000000" stroke-width="4.0" stroke-linejoin="round" stroke-linecap="butt" d="m326.40482 46.370544l0 0c0 5.4271774 4.286804 9.826771 9.574829 9.826771l0 0c2.5393677 0 4.974762 -1.0353165 6.7703857 -2.878193c1.7956238 -1.8428764 2.8044128 -4.3423576 2.8044128 -6.948578l0 0c0 -5.4271774 -4.286804 -9.826771 -9.574799 -9.826771l0 0c-5.288025 0 -9.574829 4.3995934 -9.574829 9.826771z" fill-rule="evenodd"/><path fill="#ffffff" d="m240.56987 52.693787l0 0c0 -5.4271774 -4.286789 -9.826771 -9.574814 -9.826771l0 0c-2.5393982 0 -4.974777 1.0353165 -6.770401 2.878193c-1.7956238 1.8428802 -2.8043976 4.3423576 -2.8043976 6.948578l0 0c0 5.4271774 4.286789 9.826771 9.574799 9.826771l0 0c5.288025 0 9.574814 -4.3995934 9.574814 -9.826771z" fill-rule="evenodd"/><path stroke="#000000" stroke-width="4.0" stroke-linejoin="round" stroke-linecap="butt" d="m240.56987 52.693787l0 0c0 -5.4271774 -4.286789 -9.826771 -9.574814 -9.826771l0 0c-2.5393982 0 -4.974777 1.0353165 -6.770401 2.878193c-1.7956238 1.8428802 -2.8043976 4.3423576 -2.8043976 6.948578l0 0c0 5.4271774 4.286789 9.826771 9.574799 9.826771l0 0c5.288025 0 9.574814 -4.3995934 9.574814 -9.826771z" fill-rule="evenodd"/><path fill="#000000" fill-opacity="0.0" d="m330.77612 58.846252l0 0c-8.181702 12.104088 -23.519379 20.498863 -41.24359 22.573868c-17.724182 2.074997 -35.685455 -2.4214172 -48.298492 -12.091034l39.76529 -29.837608z" fill-rule="evenodd"/><path fill="#000000" fill-opacity="0.0" d="m330.77612 58.846252l0 0c-8.181702 12.104088 -23.519379 20.498863 -41.24359 22.573868c-17.724182 2.074997 -35.685455 -2.4214172 -48.298492 -12.091034" fill-rule="evenodd"/><path stroke="#000000" stroke-width="4.0" stroke-linejoin="round" stroke-linecap="butt" d="m330.77612 58.846252l0 0c-8.181702 12.10408 -23.51941 20.498863 -41.24359 22.573868c-8.862091 1.0374985 -17.783447 0.43214417 -26.065948 -1.6412888c-2.0706177 -0.5183563 -4.101288 -1.1284714 -6.0811157 -1.8276062l-0.29360962 -0.105667114" fill-rule="evenodd"/><path fill="#000000" stroke="#000000" stroke-width="4.0" stroke-linecap="butt" d="m259.18457 73.948845l-12.798843 -1.853035l8.613388 9.646454z" fill-rule="evenodd"/><path fill="#000000" fill-opacity="0.0" d="m193.71606 394.5366l192.0 0l0 98.55118l-192.0 0z" fill-rule="evenodd"/><path stroke="#000000" stroke-width="4.0" stroke-linejoin="round" stroke-linecap="butt" d="m193.71606 394.5366l192.0 0l0 98.55118l-192.0 0z" fill-rule="evenodd"/><path fill="#000000" fill-opacity="0.0" d="m237.72252 434.21173l0 0c8.181702 -12.104065 23.519394 -20.49884 41.243576 -22.573853c17.724182 -2.0750122 35.685455 2.4214172 48.298492 12.091034l-39.76526 29.837616z" fill-rule="evenodd"/><path fill="#000000" fill-opacity="0.0" d="m237.72252 434.21173l0 0c8.181702 -12.104065 23.519394 -20.49884 41.243576 -22.573853c17.724182 -2.0750122 35.685455 2.4214172 48.298492 12.091034" fill-rule="evenodd"/><path stroke="#000000" stroke-width="4.0" stroke-linejoin="round" stroke-linecap="butt" d="m237.7225 434.21173l0 0c8.181717 -12.104065 23.51941 -20.49884 41.24359 -22.573853c8.862091 -1.0374756 17.783447 -0.43215942 26.065948 1.6412659c2.0706177 0.5184021 4.101288 1.1285095 6.0811462 1.8276367l0.29360962 0.105651855" fill-rule="evenodd"/><path fill="#000000" stroke="#000000" stroke-width="4.0" stroke-linecap="butt" d="m309.31406 419.10916l12.798859 1.8530273l-8.613373 -9.646454z" fill-rule="evenodd"/><path fill="#ffffff" d="m326.40482 440.69543l0 0c0 5.4271545 4.286804 9.826752 9.574829 9.826752l0 0c2.5393677 0 4.974762 -1.0353088 6.7703857 -2.8781738c1.7956238 -1.8428955 2.8044128 -4.3423767 2.8044128 -6.948578l0 0c0 -5.427185 -4.286804 -9.826782 -9.574799 -9.826782l0 0c-5.288025 0 -9.574829 4.399597 -9.574829 9.826782z" fill-rule="evenodd"/><path stroke="#000000" stroke-width="4.0" stroke-linejoin="round" stroke-linecap="butt" d="m326.40482 440.69543l0 0c0 5.4271545 4.286804 9.826752 9.574829 9.826752l0 0c2.5393677 0 4.974762 -1.0353088 6.7703857 -2.8781738c1.7956238 -1.8428955 2.8044128 -4.3423767 2.8044128 -6.948578l0 0c0 -5.427185 -4.286804 -9.826782 -9.574799 -9.826782l0 0c-5.288025 0 -9.574829 4.399597 -9.574829 9.826782z" fill-rule="evenodd"/><path fill="#000000" d="m240.56987 447.01868l0 0c0 -5.427185 -4.286789 -9.826782 -9.574814 -9.826782l0 0c-2.5393982 0 -4.974777 1.0353088 -6.770401 2.8782043c-1.7956238 1.842865 -2.8043976 4.342346 -2.8043976 6.948578l0 0c0 5.4271545 4.286789 9.826752 9.574799 9.826752l0 0c5.288025 0 9.574814 -4.399597 9.574814 -9.826752z" fill-rule="evenodd"/><path stroke="#000000" stroke-width="4.0" stroke-linejoin="round" stroke-linecap="butt" d="m240.56987 447.01868l0 0c0 -5.427185 -4.286789 -9.826782 -9.574814 -9.826782l0 0c-2.5393982 0 -4.974777 1.0353088 -6.770401 2.8782043c-1.7956238 1.842865 -2.8043976 4.342346 -2.8043976 6.948578l0 0c0 5.4271545 4.286789 9.826752 9.574799 9.826752l0 0c5.288025 0 9.574814 -4.399597 9.574814 -9.826752z" fill-rule="evenodd"/><path fill="#000000" fill-opacity="0.0" d="m194.45052 296.0l191.99998 0l0 98.55118l-191.99998 0z" fill-rule="evenodd"/><path stroke="#000000" stroke-width="4.0" stroke-linejoin="round" stroke-linecap="butt" d="m194.45052 296.0l191.99998 0l0 98.55118l-191.99998 0z" fill-rule="evenodd"/><path fill="#000000" fill-opacity="0.0" d="m293.39053 323.73764l46.17383 20.818604" fill-rule="evenodd"/><path stroke="#000000" stroke-width="4.0" stroke-linejoin="round" stroke-linecap="butt" d="m315.26947 333.6023l24.294891 10.953918" fill-rule="evenodd"/><path fill="#000000" stroke="#000000" stroke-width="4.0" stroke-linecap="butt" d="m317.9851 327.57928l-19.263763 -1.4381104l13.83252 13.484161z" fill-rule="evenodd"/><path fill="#000000" fill-opacity="0.0" d="m290.44403 326.2625l0 49.737488" fill-rule="evenodd"/><path stroke="#000000" stroke-width="4.0" stroke-linejoin="round" stroke-linecap="butt" d="m290.44403 350.2625l0 25.737488" fill-rule="evenodd"/><path fill="#000000" stroke="#000000" stroke-width="4.0" stroke-linecap="butt" d="m297.05096 350.2625l-6.6069336 -18.152405l-6.6069336 18.152405z" fill-rule="evenodd"/><path fill="#000000" fill-opacity="0.0" d="m287.5105 323.73764l-46.173843 20.818604" fill-rule="evenodd"/><path stroke="#000000" stroke-width="4.0" stroke-linejoin="round" stroke-linecap="butt" d="m265.63153 333.6023l-24.294876 10.953918" fill-rule="evenodd"/><path fill="#000000" stroke="#000000" stroke-width="4.0" stroke-linecap="butt" d="m268.34717 339.62534l13.83252 -13.484161l-19.263763 1.4381104z" fill-rule="evenodd"/><path fill="#000000" d="m287.10895 322.89447l0 0c0 -1.8396606 1.4718628 -3.3309937 3.2874756 -3.3309937l0 0c0.8718872 0 1.7080688 0.35095215 2.324585 0.97561646c0.6165161 0.6246948 0.9628601 1.4719238 0.9628601 2.3553772l0 0c0 1.8396301 -1.4718323 3.3309631 -3.287445 3.3309631l0 0c-1.8156128 0 -3.2874756 -1.491333 -3.2874756 -3.3309631z" fill-rule="evenodd"/><path stroke="#000000" stroke-width="4.0" stroke-linejoin="round" stroke-linecap="butt" d="m287.10895 322.89447l0 0c0 -1.8396606 1.4718628 -3.3309937 3.2874756 -3.3309937l0 0c0.8718872 0 1.7080688 0.35095215 2.324585 0.97561646c0.6165161 0.6246948 0.9628601 1.4719238 0.9628601 2.3553772l0 0c0 1.8396301 -1.4718323 3.3309631 -3.287445 3.3309631l0 0c-1.8156128 0 -3.2874756 -1.491333 -3.2874756 -3.3309631z" fill-rule="evenodd"/><path fill="#000000" fill-opacity="0.0" d="m148.3202 8.571779l-47.543304 82.803154l-47.543304 -82.803154z" fill-rule="evenodd"/><path stroke="#000000" stroke-width="16.0" stroke-linejoin="round" stroke-linecap="butt" d="m148.3202 8.571779l-47.543304 82.803154l-47.543304 -82.803154z" fill-rule="evenodd"/></g></svg>