<?xml version="1.0" encoding="UTF-8" standalone="no"?>
<!-- Created with Inkscape (http://www.inkscape.org/) -->

<svg
   xmlns:dc="http://purl.org/dc/elements/1.1/"
   xmlns:cc="http://creativecommons.org/ns#"
   xmlns:rdf="http://www.w3.org/1999/02/22-rdf-syntax-ns#"
   xmlns:svg="http://www.w3.org/2000/svg"
   xmlns="http://www.w3.org/2000/svg"
   xmlns:xlink="http://www.w3.org/1999/xlink"
   version="1.1"
   width="260"
   height="1030"
   id="svg2">
  <metadata
     id="metadata23">
    <rdf:RDF>
      <cc:Work
         rdf:about="">
        <dc:format>image/svg+xml</dc:format>
        <dc:type
           rdf:resource="http://purl.org/dc/dcmitype/StillImage" />
        <dc:title></dc:title>
      </cc:Work>
    </rdf:RDF>
  </metadata>
  <defs
     id="defs21" />
  <path
     d="m 187,200 38,0 0,-183 -38,0 0,14 21,0 0,155 -21,0 0,14 z"
     id="corcht" />
  <use
     transform="matrix(-1,0,0,1,260,0)"
     id="use5"
     x="0"
     y="0"
     width="260"
     height="1030"
     xlink:href="#corcht" />
  <path
     d="m 177,430 5,0 c 6,0 10,0 14,-1 4,-1 8,-4 11,-8 3,-4 4,-8 5,-13 1,-5 1,-14 1,-26 0,-9 0,-15 1,-20 1,-5 3,-10 6,-13 3,-3 7,-5 13,-5 l 0,-16 c -6,0 -10,-2 -13,-5 -3,-3 -5,-8 -6,-13 -1,-5 -1,-11 -1,-20 0,-12 0,-21 -1,-26 -1,-5 -2,-9 -5,-13 -3,-4 -7,-7 -11,-8 -4,-1 -8,-1 -14,-1 l -5,0 0,15 3,0 c 7,0 11,1 13,3 3,3 4,4 4,7 l 0,25 c 0,15 2,25 5,31 3,6 9,10 15,13 -6,3 -12,7 -15,13 -3,6 -5,16 -5,31 l 0,25 c 0,3 -1,4 -4,7 -2,2 -6,3 -13,3 l -3,0 0,15 z"
     id="llv" />
  <use
     transform="matrix(-1,0,0,1,260,0)"
     id="use8"
     x="0"
     y="0"
     width="260"
     height="1030"
     xlink:href="#llv" />
  <path
     d="m 192,656 c 9,-14 20,-29 26,-45 6,-17 9,-33 9,-49 0,-16 -3,-32 -9,-49 -6,-16 -17,-31 -26,-45 l -12,0 c 19,31 29,63 29,94 0,31 -10,63 -29,94 l 12,0 z"
     id="prnts" />
  <use
     transform="matrix(-1,0,0,1,260,0)"
     id="use11"
     x="0"
     y="0"
     width="260"
     height="1030"
     xlink:href="#prnts" />
  <path
     d="m 222,794 -26,92 h -16 l 26,-92 -26,-92 h 16 z"
     id="anglr" />
  <use
     transform="matrix(-1,0,0,1,260,0)"
     id="use14"
     x="0"
     y="0"
     width="260"
     height="1030"
     xlink:href="#anglr" />
  <path
     d="m 242,980 -95,40 0,-18 75,-31 -75,-31 0,-18 95,40 0,18 z"
     id="mayor"
     style="fill:#000000" />
  <use
     transform="matrix(-1,0,0,1,260,0)"
     id="use17"
     x="0"
     y="0"
     width="260"
     height="1030"
     xlink:href="#mayor" />
</svg>
