<svg version="1.1" viewBox="0.0 0.0 278.3333333333333 195.8057742782152" fill="none" stroke="none" stroke-linecap="square" stroke-miterlimit="10" xmlns:xlink="http://www.w3.org/1999/xlink" xmlns="http://www.w3.org/2000/svg"><clipPath id="p.0"><path d="m0 0l278.33334 0l0 195.80577l-278.33334 0l0 -195.80577z" clip-rule="nonzero"/></clipPath><g clip-path="url(#p.0)"><path fill="#000000" fill-opacity="0.0" d="m0 0l278.33334 0l0 195.80577l-278.33334 0z" fill-rule="evenodd"/><path fill="#000000" fill-opacity="0.0" d="m318.7684 49.728573c0.33276367 0.2750435 0.9612732 0.941494 1.9964905 1.6502571c1.0352173 0.7087631 2.6620178 1.8089333 4.2148438 2.6023254c1.5528259 0.7933922 3.3396301 1.5867844 5.1021423 2.1580276c1.7625122 0.5712433 3.858307 0.99438477 5.472931 1.2694283c1.614624 0.2750435 2.797577 0.32793427 4.2148438 0.38082886c1.4172668 0.052890778 2.7727356 0.052890778 4.2887573 -0.06347275c1.5160217 -0.116363525 3.0449219 -0.26446533 4.807434 -0.6347122c1.7625122 -0.3702507 3.9560242 -0.9203377 5.767639 -1.5867844c1.8116455 -0.6664505 3.5123596 -1.4704208 5.102173 -2.4119148c1.5898132 -0.9414902 3.697235 -2.6975327 4.436676 -3.2370415" fill-rule="evenodd"/><path stroke="#000000" stroke-width="3.0" stroke-linejoin="round" stroke-linecap="butt" d="m318.7684 49.728573c0.33276367 0.2750435 0.9612732 0.941494 1.9964905 1.6502571c1.0352173 0.7087631 2.6620178 1.8089333 4.2148438 2.6023254c1.5528259 0.7933922 3.3396301 1.5867844 5.1021423 2.1580276c1.7625122 0.5712433 3.858307 0.99438477 5.472931 1.2694283c1.614624 0.2750435 2.797577 0.32793427 4.2148438 0.38082886c1.4172668 0.052890778 2.7727356 0.052890778 4.2887573 -0.06347275c1.5160217 -0.116363525 3.0449219 -0.26446533 4.807434 -0.6347122c1.7625122 -0.3702507 3.9560242 -0.9203377 5.767639 -1.5867844c1.8116455 -0.6664505 3.5123596 -1.4704208 5.102173 -2.4119148c1.5898132 -0.9414902 3.697235 -2.6975327 4.436676 -3.2370415" fill-rule="evenodd"/><path fill="#000000" fill-opacity="0.0" d="m364.27234 49.966557c-0.33276367 -0.27503967 -0.9612732 -0.9414902 -1.9964905 -1.6502533c-1.0352173 -0.7087631 -2.6620178 -1.8089371 -4.2148438 -2.6023293c-1.5528259 -0.7933922 -3.3396301 -1.5867844 -5.1021423 -2.1580276c-1.7625122 -0.5712395 -3.858307 -0.99438477 -5.472931 -1.2694283c-1.614624 -0.27503967 -2.797577 -0.32793427 -4.2148438 -0.38082504c-1.4172668 -0.052894592 -2.7727356 -0.052894592 -4.2887573 0.06346893c-1.5160217 0.116363525 -3.0449219 0.26446533 -4.807434 0.63471603c-1.7625122 0.3702469 -3.9560242 0.92033386 -5.767639 1.5867844c-1.8116455 0.6664505 -3.5123596 1.4704208 -5.102173 2.411911c-1.5898132 0.941494 -3.6972046 2.6975365 -4.436676 3.2370415" fill-rule="evenodd"/><path stroke="#000000" stroke-width="3.0" stroke-linejoin="round" stroke-linecap="butt" d="m364.27234 49.966557c-0.33276367 -0.27503967 -0.9612732 -0.9414902 -1.9964905 -1.6502533c-1.0352173 -0.7087631 -2.6620178 -1.8089371 -4.2148438 -2.6023293c-1.5528259 -0.7933922 -3.3396301 -1.5867844 -5.1021423 -2.1580276c-1.7625122 -0.5712395 -3.858307 -0.99438477 -5.472931 -1.2694283c-1.614624 -0.27503967 -2.797577 -0.32793427 -4.2148438 -0.38082504c-1.4172668 -0.052894592 -2.7727356 -0.052894592 -4.2887573 0.06346893c-1.5160217 0.116363525 -3.0449219 0.26446533 -4.807434 0.63471603c-1.7625122 0.3702469 -3.9560242 0.92033386 -5.767639 1.5867844c-1.8116455 0.6664505 -3.5123596 1.4704208 -5.102173 2.411911c-1.5898132 0.941494 -3.6972046 2.6975365 -4.436676 3.2370415" fill-rule="evenodd"/><path fill="#000000" fill-opacity="0.0" d="m326.03735 62.570137l0 24.0" fill-rule="evenodd"/><path stroke="#000000" stroke-width="3.0" stroke-linejoin="round" stroke-linecap="butt" d="m326.03735 62.570137l0 24.0" fill-rule="evenodd"/><path fill="#000000" fill-opacity="0.0" d="m342.03735 62.570137l0 24.0" fill-rule="evenodd"/><path stroke="#000000" stroke-width="3.0" stroke-linejoin="round" stroke-linecap="butt" d="m342.03735 62.570137l0 24.0" fill-rule="evenodd"/><path fill="#000000" fill-opacity="0.0" d="m358.03735 62.570137l0 24.0" fill-rule="evenodd"/><path stroke="#000000" stroke-width="3.0" stroke-linejoin="round" stroke-linecap="butt" d="m358.03735 62.570137l0 24.0" fill-rule="evenodd"/><path fill="#000000" fill-opacity="0.0" d="m318.7684 -78.27143c0.33276367 0.2750473 0.9612732 0.9414978 1.9964905 1.6502609c1.0352173 0.7087631 2.6620178 1.8089371 4.2148438 2.6023254c1.5528259 0.793396 3.3396301 1.5867844 5.1021423 2.1580276c1.7625122 0.5712433 3.858307 0.99438477 5.472931 1.2694244c1.614624 0.2750473 2.797577 0.3279419 4.2148438 0.38082886c1.4172668 0.052894592 2.7727356 0.052894592 4.2887573 -0.06346893c1.5160217 -0.116363525 3.0449219 -0.26446533 4.807434 -0.6347122c1.7625122 -0.37025452 3.9560242 -0.92033386 5.767639 -1.5867844c1.8116455 -0.6664505 3.5123596 -1.4704208 5.102173 -2.411911c1.5898132 -0.9414978 3.697235 -2.6975403 4.436676 -3.2370453" fill-rule="evenodd"/><path stroke="#000000" stroke-width="3.0" stroke-linejoin="round" stroke-linecap="butt" d="m318.7684 -78.27143c0.33276367 0.2750473 0.9612732 0.9414978 1.9964905 1.6502609c1.0352173 0.7087631 2.6620178 1.8089371 4.2148438 2.6023254c1.5528259 0.793396 3.3396301 1.5867844 5.1021423 2.1580276c1.7625122 0.5712433 3.858307 0.99438477 5.472931 1.2694244c1.614624 0.2750473 2.797577 0.3279419 4.2148438 0.38082886c1.4172668 0.052894592 2.7727356 0.052894592 4.2887573 -0.06346893c1.5160217 -0.116363525 3.0449219 -0.26446533 4.807434 -0.6347122c1.7625122 -0.37025452 3.9560242 -0.92033386 5.767639 -1.5867844c1.8116455 -0.6664505 3.5123596 -1.4704208 5.102173 -2.411911c1.5898132 -0.9414978 3.697235 -2.6975403 4.436676 -3.2370453" fill-rule="evenodd"/><path fill="#000000" fill-opacity="0.0" d="m364.27234 -78.03344c-0.33276367 -0.2750473 -0.9612732 -0.9414978 -1.9964905 -1.6502609c-1.0352173 -0.7087631 -2.6620178 -1.8089294 -4.2148438 -2.6023254c-1.5528259 -0.79338837 -3.3396301 -1.5867844 -5.1021423 -2.1580276c-1.7625122 -0.5712433 -3.858307 -0.99438477 -5.472931 -1.2694244c-1.614624 -0.2750473 -2.797577 -0.32793427 -4.2148438 -0.38082886c-1.4172668 -0.052894592 -2.7727356 -0.052894592 -4.2887573 0.06346893c-1.5160217 0.116363525 -3.0449219 0.26446533 -4.807434 0.6347122c-1.7625122 0.37025452 -3.9560242 0.9203415 -5.767639 1.5867844c-1.8116455 0.6664505 -3.5123596 1.4704208 -5.102173 2.4119186c-1.5898132 0.9414902 -3.6972046 2.6975327 -4.436676 3.2370377" fill-rule="evenodd"/><path stroke="#000000" stroke-width="3.0" stroke-linejoin="round" stroke-linecap="butt" d="m364.27234 -78.03344c-0.33276367 -0.2750473 -0.9612732 -0.9414978 -1.9964905 -1.6502609c-1.0352173 -0.7087631 -2.6620178 -1.8089294 -4.2148438 -2.6023254c-1.5528259 -0.79338837 -3.3396301 -1.5867844 -5.1021423 -2.1580276c-1.7625122 -0.5712433 -3.858307 -0.99438477 -5.472931 -1.2694244c-1.614624 -0.2750473 -2.797577 -0.32793427 -4.2148438 -0.38082886c-1.4172668 -0.052894592 -2.7727356 -0.052894592 -4.2887573 0.06346893c-1.5160217 0.116363525 -3.0449219 0.26446533 -4.807434 0.6347122c-1.7625122 0.37025452 -3.9560242 0.9203415 -5.767639 1.5867844c-1.8116455 0.6664505 -3.5123596 1.4704208 -5.102173 2.4119186c-1.5898132 0.9414902 -3.6972046 2.6975327 -4.436676 3.2370377" fill-rule="evenodd"/><path fill="#000000" fill-opacity="0.0" d="m341.5204 -66.05039l0 15.748028" fill-rule="evenodd"/><path stroke="#000000" stroke-width="3.0" stroke-linejoin="round" stroke-linecap="butt" d="m341.5204 -66.05039l0 15.748028" fill-rule="evenodd"/><path fill="#000000" fill-opacity="0.0" d="m318.7684 -14.271427c0.33276367 0.27504253 0.9612732 0.9414921 1.9964905 1.6502562c1.0352173 0.7087641 2.6620178 1.8089342 4.2148438 2.6023273c1.5528259 0.7933922 3.3396301 1.5867844 5.1021423 2.1580267c1.7625122 0.5712428 3.858307 0.99438524 5.472931 1.2694278c1.614624 0.275043 2.797577 0.3279357 4.2148438 0.38082838c1.4172668 0.05289316 2.7727356 0.05289316 4.2887573 -0.06347132c1.5160217 -0.116364 3.0449219 -0.2644639 4.807434 -0.63471365c1.7625122 -0.37024975 3.9560242 -0.9203353 5.767639 -1.5867853c1.8116455 -0.66644955 3.5123596 -1.4704199 5.102173 -2.411913c1.5898132 -0.9414921 3.697235 -2.6975336 4.436676 -3.2370405" fill-rule="evenodd"/><path stroke="#000000" stroke-width="3.0" stroke-linejoin="round" stroke-linecap="butt" d="m318.7684 -14.271427c0.33276367 0.27504253 0.9612732 0.9414921 1.9964905 1.6502562c1.0352173 0.7087641 2.6620178 1.8089342 4.2148438 2.6023273c1.5528259 0.7933922 3.3396301 1.5867844 5.1021423 2.1580267c1.7625122 0.5712428 3.858307 0.99438524 5.472931 1.2694278c1.614624 0.275043 2.797577 0.3279357 4.2148438 0.38082838c1.4172668 0.05289316 2.7727356 0.05289316 4.2887573 -0.06347132c1.5160217 -0.116364 3.0449219 -0.2644639 4.807434 -0.63471365c1.7625122 -0.37024975 3.9560242 -0.9203353 5.767639 -1.5867853c1.8116455 -0.66644955 3.5123596 -1.4704199 5.102173 -2.411913c1.5898132 -0.9414921 3.697235 -2.6975336 4.436676 -3.2370405" fill-rule="evenodd"/><path fill="#000000" fill-opacity="0.0" d="m364.27234 -14.033442c-0.33276367 -0.27504253 -0.9612732 -0.9414921 -1.9964905 -1.6502562c-1.0352173 -0.7087641 -2.6620178 -1.8089342 -4.2148438 -2.6023264c-1.5528259 -0.7933941 -3.3396301 -1.5867863 -5.1021423 -2.1580276c-1.7625122 -0.5712433 -3.858307 -0.99438477 -5.472931 -1.2694283c-1.614624 -0.2750435 -2.797577 -0.32793617 -4.2148438 -0.38082886c-1.4172668 -0.052892685 -2.7727356 -0.052892685 -4.2887573 0.06347275c-1.5160217 0.116363525 -3.0449219 0.26446342 -4.807434 0.6347122c-1.7625122 0.3702507 -3.9560242 0.92033577 -5.767639 1.5867863c-1.8116455 0.6664486 -3.5123596 1.4704189 -5.102173 2.411913c-1.5898132 0.9414921 -3.6972046 2.6975336 -4.436676 3.2370405" fill-rule="evenodd"/><path stroke="#000000" stroke-width="3.0" stroke-linejoin="round" stroke-linecap="butt" d="m364.27234 -14.033442c-0.33276367 -0.27504253 -0.9612732 -0.9414921 -1.9964905 -1.6502562c-1.0352173 -0.7087641 -2.6620178 -1.8089342 -4.2148438 -2.6023264c-1.5528259 -0.7933941 -3.3396301 -1.5867863 -5.1021423 -2.1580276c-1.7625122 -0.5712433 -3.858307 -0.99438477 -5.472931 -1.2694283c-1.614624 -0.2750435 -2.797577 -0.32793617 -4.2148438 -0.38082886c-1.4172668 -0.052892685 -2.7727356 -0.052892685 -4.2887573 0.06347275c-1.5160217 0.116363525 -3.0449219 0.26446342 -4.807434 0.6347122c-1.7625122 0.3702507 -3.9560242 0.92033577 -5.767639 1.5867863c-1.8116455 0.6664486 -3.5123596 1.4704189 -5.102173 2.411913c-1.5898132 0.9414921 -3.6972046 2.6975336 -4.436676 3.2370405" fill-rule="evenodd"/><path fill="#000000" fill-opacity="0.0" d="m331.36038 -2.0498688l0 15.748032" fill-rule="evenodd"/><path stroke="#000000" stroke-width="3.0" stroke-linejoin="round" stroke-linecap="butt" d="m331.36038 -2.0498688l0 15.748032" fill-rule="evenodd"/><path fill="#000000" fill-opacity="0.0" d="m351.68036 -2.0498688l0 15.748032" fill-rule="evenodd"/><path stroke="#000000" stroke-width="3.0" stroke-linejoin="round" stroke-linecap="butt" d="m351.68036 -2.0498688l0 15.748032" fill-rule="evenodd"/><path fill="#000000" fill-opacity="0.0" d="m9.432976 -57.406086c1.9163055 1.6377945 5.5359926 5.606304 11.497829 9.826778c5.961838 4.220478 15.3304405 10.771664 24.273197 15.4960785c8.942757 4.724413 19.233025 9.448826 29.383347 12.850405c10.150314 3.401577 22.21994 5.9212646 31.518562 7.559061c9.29863 1.6377974 16.11116 1.9527578 24.273193 2.2677183c8.162048 0.31496143 15.968216 0.31496143 24.69905 -0.37795258c8.730835 -0.692914 17.535645 -1.5748043 27.685959 -3.7795315c10.150314 -2.2047262 22.78273 -5.480319 33.215942 -9.448827c10.433228 -3.9685078 20.227676 -8.755913 29.383347 -14.362217c9.155685 -5.606304 21.292267 -16.063007 25.55075 -19.275608" fill-rule="evenodd"/><path stroke="#000000" stroke-width="12.0" stroke-linejoin="round" stroke-linecap="butt" d="m9.432976 -57.406086c1.9163055 1.6377945 5.5359926 5.606304 11.497829 9.826778c5.961838 4.220478 15.3304405 10.771664 24.273197 15.4960785c8.942757 4.724413 19.233025 9.448826 29.383347 12.850405c10.150314 3.401577 22.21994 5.9212646 31.518562 7.559061c9.29863 1.6377974 16.11116 1.9527578 24.273193 2.2677183c8.162048 0.31496143 15.968216 0.31496143 24.69905 -0.37795258c8.730835 -0.692914 17.535645 -1.5748043 27.685959 -3.7795315c10.150314 -2.2047262 22.78273 -5.480319 33.215942 -9.448827c10.433228 -3.9685078 20.227676 -8.755913 29.383347 -14.362217c9.155685 -5.606304 21.292267 -16.063007 25.55075 -19.275608" fill-rule="evenodd"/><path fill="#000000" fill-opacity="0.0" d="m271.49014 -50.744507c-1.9162903 -1.6377983 -5.53598 -5.606304 -11.497833 -9.826778c-5.9618225 -4.220478 -15.330429 -10.771664 -24.273193 -15.496082c-8.942749 -4.724411 -19.233017 -9.448822 -29.383331 -12.850403c-10.15033 -3.4015732 -22.21994 -5.9212646 -31.51857 -7.559059c-9.29863 -1.6377945 -16.11116 -1.9527588 -24.273193 -2.267723c-8.162048 -0.31495667 -15.968216 -0.31495667 -24.69905 0.3779602c-8.730835 0.69290924 -17.535637 1.5747986 -27.685959 3.7795258c-10.150314 2.2047272 -22.782738 5.480324 -33.21595 9.44883c-10.433216 3.9685059 -20.227665 8.755913 -29.383343 14.362213c-9.15568 5.606308 -21.292278 16.063011 -25.550735 19.275612" fill-rule="evenodd"/><path stroke="#000000" stroke-width="12.0" stroke-linejoin="round" stroke-linecap="butt" d="m271.49014 -50.744507c-1.9162903 -1.6377983 -5.53598 -5.606304 -11.497833 -9.826778c-5.9618225 -4.220478 -15.330429 -10.771664 -24.273193 -15.496082c-8.942749 -4.724411 -19.233017 -9.448822 -29.383331 -12.850403c-10.15033 -3.4015732 -22.21994 -5.9212646 -31.51857 -7.559059c-9.29863 -1.6377945 -16.11116 -1.9527588 -24.273193 -2.267723c-8.162048 -0.31495667 -15.968216 -0.31495667 -24.69905 0.3779602c-8.730835 0.69290924 -17.535637 1.5747986 -27.685959 3.7795258c-10.150314 2.2047272 -22.782738 5.480324 -33.21595 9.44883c-10.433216 3.9685059 -20.227665 8.755913 -29.383343 14.362213c-9.15568 5.606308 -21.292278 16.063011 -25.550735 19.275612" fill-rule="evenodd"/><path fill="#000000" fill-opacity="0.0" d="m43.56221 20.853987l0 149.17165" fill-rule="evenodd"/><path stroke="#000000" stroke-width="12.0" stroke-linejoin="round" stroke-linecap="butt" d="m43.56221 20.853987l0 149.17165" fill-rule="evenodd"/><path fill="#000000" fill-opacity="0.0" d="m143.6278 20.853987l0 149.17165" fill-rule="evenodd"/><path stroke="#000000" stroke-width="12.0" stroke-linejoin="round" stroke-linecap="butt" d="m143.6278 20.853987l0 149.17165" fill-rule="evenodd"/><path fill="#000000" fill-opacity="0.0" d="m243.6934 20.853987l0 149.17165" fill-rule="evenodd"/><path stroke="#000000" stroke-width="12.0" stroke-linejoin="round" stroke-linecap="butt" d="m243.6934 20.853987l0 149.17165" fill-rule="evenodd"/></g></svg>