<?xml version="1.0" encoding="UTF-8"?>
<!DOCTYPE svg PUBLIC "-//W3C//DTD SVG 1.1//EN" "http://www.w3.org/Graphics/SVG/1.1/DTD/svg11.dtd">
<svg version="1.2" width="41.44mm" height="36.81mm" viewBox="12033 24628 4144 3681" preserveAspectRatio="xMidYMid" fill-rule="evenodd" stroke-width="28.222" stroke-linejoin="round" xmlns="http://www.w3.org/2000/svg" xmlns:ooo="http://xml.openoffice.org/svg/export" xmlns:xlink="http://www.w3.org/1999/xlink" xmlns:presentation="http://sun.com/xmlns/staroffice/presentation" xmlns:smil="http://www.w3.org/2001/SMIL20/" xmlns:anim="urn:oasis:names:tc:opendocument:xmlns:animation:1.0" xml:space="preserve">
 <defs class="EmbeddedBulletChars">
  <g id="bullet-char-template-57356" transform="scale(0.00048828125,-0.00048828125)">
   <path d="M 580,1141 L 1163,571 580,0 -4,571 580,1141 Z"/>
  </g>
  <g id="bullet-char-template-57354" transform="scale(0.00048828125,-0.00048828125)">
   <path d="M 8,1128 L 1137,1128 1137,0 8,0 8,1128 Z"/>
  </g>
  <g id="bullet-char-template-10146" transform="scale(0.00048828125,-0.00048828125)">
   <path d="M 174,0 L 602,739 174,1481 1456,739 174,0 Z M 1358,739 L 309,1346 659,739 1358,739 Z"/>
  </g>
  <g id="bullet-char-template-10132" transform="scale(0.00048828125,-0.00048828125)">
   <path d="M 2015,739 L 1276,0 717,0 1260,543 174,543 174,936 1260,936 717,1481 1274,1481 2015,739 Z"/>
  </g>
  <g id="bullet-char-template-10007" transform="scale(0.00048828125,-0.00048828125)">
   <path d="M 0,-2 C -7,14 -16,27 -25,37 L 356,567 C 262,823 215,952 215,954 215,979 228,992 255,992 264,992 276,990 289,987 310,991 331,999 354,1012 L 381,999 492,748 772,1049 836,1024 860,1049 C 881,1039 901,1025 922,1006 886,937 835,863 770,784 769,783 710,716 594,584 L 774,223 C 774,196 753,168 711,139 L 727,119 C 717,90 699,76 672,76 641,76 570,178 457,381 L 164,-76 C 142,-110 111,-127 72,-127 30,-127 9,-110 8,-76 1,-67 -2,-52 -2,-32 -2,-23 -1,-13 0,-2 Z"/>
  </g>
  <g id="bullet-char-template-10004" transform="scale(0.00048828125,-0.00048828125)">
   <path d="M 285,-33 C 182,-33 111,30 74,156 52,228 41,333 41,471 41,549 55,616 82,672 116,743 169,778 240,778 293,778 328,747 346,684 L 369,508 C 377,444 397,411 428,410 L 1163,1116 C 1174,1127 1196,1133 1229,1133 1271,1133 1292,1118 1292,1087 L 1292,965 C 1292,929 1282,901 1262,881 L 442,47 C 390,-6 338,-33 285,-33 Z"/>
  </g>
  <g id="bullet-char-template-9679" transform="scale(0.00048828125,-0.00048828125)">
   <path d="M 813,0 C 632,0 489,54 383,161 276,268 223,411 223,592 223,773 276,916 383,1023 489,1130 632,1184 813,1184 992,1184 1136,1130 1245,1023 1353,916 1407,772 1407,592 1407,412 1353,268 1245,161 1136,54 992,0 813,0 Z"/>
  </g>
  <g id="bullet-char-template-8226" transform="scale(0.00048828125,-0.00048828125)">
   <path d="M 346,457 C 273,457 209,483 155,535 101,586 74,649 74,723 74,796 101,859 155,911 209,963 273,989 346,989 419,989 480,963 531,910 582,859 608,796 608,723 608,648 583,586 532,535 482,483 420,457 346,457 Z"/>
  </g>
  <g id="bullet-char-template-8211" transform="scale(0.00048828125,-0.00048828125)">
   <path d="M -4,459 L 1135,459 1135,606 -4,606 -4,459 Z"/>
  </g>
  <g id="bullet-char-template-61548" transform="scale(0.00048828125,-0.00048828125)">
   <path d="M 173,740 C 173,903 231,1043 346,1159 462,1274 601,1332 765,1332 928,1332 1067,1274 1183,1159 1299,1043 1357,903 1357,740 1357,577 1299,437 1183,322 1067,206 928,148 765,148 601,148 462,206 346,322 231,437 173,577 173,740 Z"/>
  </g>
 </defs>
 <g class="Page">
  <g class="Group">
   <g class="com.sun.star.drawing.CustomShape">
    <g id="id3">
     <rect class="BoundingBox" stroke="none" fill="none" x="13809" y="25959" width="1024" height="1024"/>
     <path fill="rgb(175,208,149)" stroke="none" d="M 14831,26471 C 14831,26560 14807,26648 14763,26726 14718,26803 14653,26868 14576,26913 14498,26957 14410,26981 14321,26981 14231,26981 14143,26957 14065,26913 13988,26868 13923,26803 13878,26726 13834,26648 13810,26560 13810,26471 13810,26381 13834,26293 13878,26215 13923,26138 13988,26073 14065,26028 14143,25984 14231,25960 14321,25960 14410,25960 14498,25984 14576,26028 14653,26073 14718,26138 14763,26215 14807,26293 14831,26381 14831,26471 L 14831,26471 Z"/>
     <path fill="none" stroke="rgb(175,208,149)" d="M 14831,26471 C 14831,26560 14807,26648 14763,26726 14718,26803 14653,26868 14576,26913 14498,26957 14410,26981 14321,26981 14231,26981 14143,26957 14065,26913 13988,26868 13923,26803 13878,26726 13834,26648 13810,26560 13810,26471 13810,26381 13834,26293 13878,26215 13923,26138 13988,26073 14065,26028 14143,25984 14231,25960 14321,25960 14410,25960 14498,25984 14576,26028 14653,26073 14718,26138 14763,26215 14807,26293 14831,26381 14831,26471 Z"/>
    </g>
   </g>
   <g class="com.sun.star.drawing.EllipseShape">
    <g id="id4">
     <rect class="BoundingBox" stroke="none" fill="none" x="12496" y="24628" width="3681" height="3681"/>
     <path fill="none" stroke="rgb(175,208,149)" stroke-width="100" stroke-linejoin="round" d="M 12660,25840 C 12694,25747 12737,25658 12786,25573 12943,25301 13169,25075 13441,24918 13713,24761 14022,24678 14336,24678 14650,24678 14959,24761 15231,24918 15503,25075 15729,25301 15886,25573 16043,25845 16126,26154 16126,26468 16126,26782 16043,27091 15886,27363 15729,27635 15503,27861 15231,28018 14959,28175 14650,28258 14336,28258 14022,28258 13713,28175 13441,28018 13169,27861 12943,27635 12786,27363 12629,27091 12546,26782 12546,26468 12546,26311 12567,26155 12607,26004"/>
    </g>
   </g>
   <g class="com.sun.star.drawing.EllipseShape">
    <g id="id5">
     <rect class="BoundingBox" stroke="none" fill="none" x="12926" y="25058" width="2821" height="2821"/>
     <path fill="none" stroke="rgb(175,208,149)" stroke-width="100" stroke-linejoin="round" d="M 13053,26016 C 13081,25937 13116,25861 13158,25788 13278,25581 13449,25410 13656,25290 13863,25171 14097,25108 14336,25108 14575,25108 14809,25171 15016,25290 15223,25410 15394,25581 15514,25788 15633,25995 15696,26229 15696,26468 15696,26707 15633,26941 15514,27148 15394,27355 15223,27526 15016,27646 14809,27765 14575,27828 14336,27828 14097,27828 13863,27765 13656,27646 13449,27526 13278,27355 13158,27148 13039,26941 12976,26707 12976,26468 12976,26354 12990,26239 13019,26129"/>
    </g>
   </g>
   <g class="com.sun.star.drawing.EllipseShape">
    <g id="id6">
     <rect class="BoundingBox" stroke="none" fill="none" x="13364" y="25496" width="1945" height="1945"/>
     <path fill="none" stroke="rgb(175,208,149)" stroke-width="100" stroke-linejoin="round" d="M 13478,26131 C 13495,26088 13515,26047 13538,26007 13618,25867 13735,25750 13875,25670 14015,25589 14174,25546 14336,25546 14498,25546 14657,25589 14797,25670 14937,25750 15054,25867 15134,26007 15215,26147 15258,26306 15258,26468 15258,26630 15215,26789 15134,26929 15054,27069 14937,27186 14797,27266 14657,27347 14498,27390 14336,27390 14174,27390 14015,27347 13875,27266 13735,27186 13618,27069 13538,26929 13457,26789 13414,26630 13414,26468 13414,26415 13419,26363 13427,26311"/>
    </g>
   </g>
   <g class="com.sun.star.drawing.LineShape">
    <g id="id7">
     <rect class="BoundingBox" stroke="none" fill="none" x="12065" y="25507" width="2236" height="1042"/>
     <path fill="none" stroke="rgb(255,255,255)" stroke-width="300" stroke-linejoin="round" d="M 12215,25657 L 13648,26216"/>
     <path fill="rgb(255,255,255)" stroke="none" d="M 13738,25849 L 14300,26471 13465,26548 13738,25849 Z"/>
    </g>
   </g>
   <g class="com.sun.star.drawing.LineShape">
    <g id="id8">
     <rect class="BoundingBox" stroke="none" fill="none" x="12033" y="25525" width="2186" height="977"/>
     <path fill="none" stroke="rgb(175,208,149)" stroke-width="200" stroke-linejoin="round" d="M 12133,25625 L 13696,26235"/>
     <path fill="rgb(175,208,149)" stroke="none" d="M 13768,25941 L 14218,26439 13550,26500 13768,25941 Z"/>
    </g>
   </g>
  </g>
 </g>
</svg>