<svg version="1.1" viewBox="0.0 0.0 100.63779527559055 177.07874015748033" fill="none" stroke="none" stroke-linecap="square" stroke-miterlimit="10" xmlns:xlink="http://www.w3.org/1999/xlink" xmlns="http://www.w3.org/2000/svg"><clipPath id="p.0"><path d="m0 0l100.637794 0l0 177.07874l-100.637794 0l0 -177.07874z" clip-rule="nonzero"/></clipPath><g clip-path="url(#p.0)"><path fill="#000000" fill-opacity="0.0" d="m0 0l100.637794 0l0 177.07874l-100.637794 0z" fill-rule="evenodd"/><path fill="#f9dc91" d="m-156.3014 3.6824148l0 0l0 0c2.414093 0 4.729309 0.95899606 6.4363403 2.6660202c1.707016 1.7070241 2.6660156 4.022246 2.6660156 6.436342l0 163.93701c0 7.6293945E-5 -6.1035156E-5 1.5258789E-4 -1.5258789E-4 1.5258789E-4l-18.204575 -1.5258789E-4l0 0c-7.6293945E-5 0 -1.5258789E-4 -7.6293945E-5 -1.5258789E-4 -1.5258789E-4l1.5258789E-4 -163.93686l0 0c0 -5.027096 4.0752716 -9.102362 9.102371 -9.102362z" fill-rule="evenodd"/><path stroke="#000000" stroke-width="1.0" stroke-linejoin="round" stroke-linecap="butt" d="m-156.3014 3.6824148l0 0l0 0c2.414093 0 4.729309 0.95899606 6.4363403 2.6660202c1.707016 1.7070241 2.6660156 4.022246 2.6660156 6.436342l0 163.93701c0 7.6293945E-5 -6.1035156E-5 1.5258789E-4 -1.5258789E-4 1.5258789E-4l-18.204575 -1.5258789E-4l0 0c-7.6293945E-5 0 -1.5258789E-4 -7.6293945E-5 -1.5258789E-4 -1.5258789E-4l1.5258789E-4 -163.93686l0 0c0 -5.027096 4.0752716 -9.102362 9.102371 -9.102362z" fill-rule="evenodd"/><path fill="#f9dc91" d="m-52.30141 3.6824148l0 0l0 0c2.4140968 0 4.7293167 0.95899606 6.4363403 2.6660202c1.7070236 1.7070241 2.6660194 4.022246 2.6660194 6.436342l0 163.93701c0 7.6293945E-5 -6.484985E-5 1.5258789E-4 -1.487732E-4 1.5258789E-4l-18.204575 -1.5258789E-4l0 0c-8.392334E-5 0 -1.5258789E-4 -7.6293945E-5 -1.5258789E-4 -1.5258789E-4l1.5258789E-4 -163.93686l0 0c0 -5.027096 4.075268 -9.102362 9.102364 -9.102362z" fill-rule="evenodd"/><path stroke="#000000" stroke-width="1.0" stroke-linejoin="round" stroke-linecap="butt" d="m-52.30141 3.6824148l0 0l0 0c2.4140968 0 4.7293167 0.95899606 6.4363403 2.6660202c1.7070236 1.7070241 2.6660194 4.022246 2.6660194 6.436342l0 163.93701c0 7.6293945E-5 -6.484985E-5 1.5258789E-4 -1.487732E-4 1.5258789E-4l-18.204575 -1.5258789E-4l0 0c-8.392334E-5 0 -1.5258789E-4 -7.6293945E-5 -1.5258789E-4 -1.5258789E-4l1.5258789E-4 -163.93686l0 0c0 -5.027096 4.075268 -9.102362 9.102364 -9.102362z" fill-rule="evenodd"/><path fill="#f9dc91" d="m50.319324 3.6824148l0 0l0 0c2.4140968 0 4.7293167 0.95899606 6.4363403 2.6660202c1.7070236 1.7070241 2.6660194 4.022246 2.6660194 6.436342l0 163.93701c0 7.6293945E-5 -6.484985E-5 1.5258789E-4 -1.487732E-4 1.5258789E-4l-18.204575 -1.5258789E-4l0 0c-8.392334E-5 0 -1.5258789E-4 -7.6293945E-5 -1.5258789E-4 -1.5258789E-4l1.5258789E-4 -163.93686l0 0c0 -5.027096 4.075268 -9.102362 9.102364 -9.102362z" fill-rule="evenodd"/><path stroke="#000000" stroke-width="1.0" stroke-linejoin="round" stroke-linecap="butt" d="m50.319324 3.6824148l0 0l0 0c2.4140968 0 4.7293167 0.95899606 6.4363403 2.6660202c1.7070236 1.7070241 2.6660194 4.022246 2.6660194 6.436342l0 163.93701c0 7.6293945E-5 -6.484985E-5 1.5258789E-4 -1.487732E-4 1.5258789E-4l-18.204575 -1.5258789E-4l0 0c-8.392334E-5 0 -1.5258789E-4 -7.6293945E-5 -1.5258789E-4 -1.5258789E-4l1.5258789E-4 -163.93686l0 0c0 -5.027096 4.075268 -9.102362 9.102364 -9.102362z" fill-rule="evenodd"/><path fill="#ffff00" d="m-207.42247 146.22577l0 0c0 -6.7318115 5.4572144 -12.189026 12.189026 -12.189026l78.39361 0c3.232727 0 6.3330536 1.284195 8.618942 3.5700836c2.2858887 2.2858887 3.5700836 5.386215 3.5700836 8.618942l0 18.299118c0 6.7318115 -5.4572144 12.189026 -12.189026 12.189026l-78.39361 0c-6.7318115 0 -12.189026 -5.4572144 -12.189026 -12.189026z" fill-rule="evenodd"/><path stroke="#000000" stroke-width="1.0" stroke-linejoin="round" stroke-linecap="butt" d="m-207.42247 146.22577l0 0c0 -6.7318115 5.4572144 -12.189026 12.189026 -12.189026l78.39361 0c3.232727 0 6.3330536 1.284195 8.618942 3.5700836c2.2858887 2.2858887 3.5700836 5.386215 3.5700836 8.618942l0 18.299118c0 6.7318115 -5.4572144 12.189026 -12.189026 12.189026l-78.39361 0c-6.7318115 0 -12.189026 -5.4572144 -12.189026 -12.189026z" fill-rule="evenodd"/><path fill="#6aa84f" d="m-191.57994 102.12427l0 0c0 -6.7318115 5.4572144 -12.189026 12.189026 -12.189026l46.708557 0l0 0c3.232727 0 6.333061 1.284195 8.618942 3.5700836c2.2858887 2.2858887 3.5700836 5.386215 3.5700836 8.618942l0 18.299118c0 6.7318115 -5.4572144 12.189026 -12.189026 12.189026l-46.708557 0c-6.7318115 0 -12.189026 -5.4572144 -12.189026 -12.189026z" fill-rule="evenodd"/><path stroke="#000000" stroke-width="1.0" stroke-linejoin="round" stroke-linecap="butt" d="m-191.57994 102.12427l0 0c0 -6.7318115 5.4572144 -12.189026 12.189026 -12.189026l46.708557 0l0 0c3.232727 0 6.333061 1.284195 8.618942 3.5700836c2.2858887 2.2858887 3.5700836 5.386215 3.5700836 8.618942l0 18.299118c0 6.7318115 -5.4572144 12.189026 -12.189026 12.189026l-46.708557 0c-6.7318115 0 -12.189026 -5.4572144 -12.189026 -12.189026z" fill-rule="evenodd"/><path fill="#a4c2f4" d="m-181.42247 58.22577l0 0c0 -6.7318115 5.4572144 -12.189022 12.189026 -12.189022l26.393616 0l0 0c3.232727 0 6.3330536 1.284195 8.618942 3.5700798c2.2858734 2.2858887 3.5700684 5.386215 3.5700684 8.618942l0 18.299118c0 6.7318115 -5.457199 12.189026 -12.189011 12.189026l-26.393616 0c-6.7318115 0 -12.189026 -5.4572144 -12.189026 -12.189026z" fill-rule="evenodd"/><path stroke="#000000" stroke-width="1.0" stroke-linejoin="round" stroke-linecap="butt" d="m-181.42247 58.22577l0 0c0 -6.7318115 5.4572144 -12.189022 12.189026 -12.189022l26.393616 0l0 0c3.232727 0 6.3330536 1.284195 8.618942 3.5700798c2.2858734 2.2858887 3.5700684 5.386215 3.5700684 8.618942l0 18.299118c0 6.7318115 -5.457199 12.189026 -12.189011 12.189026l-26.393616 0c-6.7318115 0 -12.189026 -5.4572144 -12.189026 -12.189026z" fill-rule="evenodd"/></g></svg>