<svg version="1.1" viewBox="0.0 0.0 100.0 100.0" fill="none" stroke="none" stroke-linecap="square" stroke-miterlimit="10" xmlns:xlink="http://www.w3.org/1999/xlink" xmlns="http://www.w3.org/2000/svg"><clipPath id="p.0"><path d="m0 0l100.0 0l0 100.0l-100.0 0l0 -100.0z" clip-rule="nonzero"/></clipPath><g clip-path="url(#p.0)"><path fill="#000000" fill-opacity="0.0" d="m0 0l100.0 0l0 100.0l-100.0 0z" fill-rule="evenodd"/><path fill="#000000" d="m105.64183 155.66422l0 0c-1.6255035 -1.6255188 -1.6255035 -4.2609863 0 -5.88649l0 0c0.7806015 -0.7805939 1.8393173 -1.2191315 2.943245 -1.2191315c1.1039276 0 2.1626434 0.4385376 2.9432373 1.2191315l0 0c1.6255112 1.6255035 1.6255112 4.260971 0 5.88649l0 0c-1.6255035 1.6255035 -4.260971 1.6255035 -5.8864822 0z" fill-rule="evenodd"/><path fill="#000000" d="m119.49813 141.7976l0 0c-1.9130096 -1.9130249 -1.9130096 -5.014618 0 -6.9276276l0 0c0.918663 -0.91867065 2.1646347 -1.4347687 3.4638138 -1.4347687c1.2991791 0 2.5451508 0.516098 3.4638138 1.4347687l0 0c1.9130173 1.9130096 1.9130173 5.0146027 0 6.9276276l0 0c-1.9130096 1.9130096 -5.014618 1.9130096 -6.9276276 0z" fill-rule="evenodd"/><path stroke="#000000" stroke-width="1.0" stroke-linejoin="round" stroke-linecap="butt" d="m119.49813 141.7976l0 0c-1.9130096 -1.9130249 -1.9130096 -5.014618 0 -6.9276276l0 0c0.918663 -0.91867065 2.1646347 -1.4347687 3.4638138 -1.4347687c1.2991791 0 2.5451508 0.516098 3.4638138 1.4347687l0 0c1.9130173 1.9130096 1.9130173 5.0146027 0 6.9276276l0 0c-1.9130096 1.9130096 -5.014618 1.9130096 -6.9276276 0z" fill-rule="evenodd"/><path fill="#000000" d="m134.41032 126.89571l0 0c-1.6255035 -1.6255112 -1.6255035 -4.2609787 0 -5.8864822l0 0c0.78060913 -0.7805939 1.839325 -1.2191315 2.9432526 -1.2191315c1.1039276 0 2.1626434 0.4385376 2.9432373 1.2191315l0 0c1.6255035 1.6255035 1.6255035 4.260971 0 5.8864822l0 0c-1.6255035 1.6255112 -4.260971 1.6255112 -5.88649 0z" fill-rule="evenodd"/><path fill="#000000" d="m16.69754 84.31902l0 0c-4.494628 -4.494629 -4.494628 -11.78186 0 -16.27649l0 0c2.1583977 -2.1584015 5.0858116 -3.3709717 8.138245 -3.3709717c3.052433 0 5.979847 1.2125702 8.138245 3.3709717l0 0c4.494629 4.494629 4.494629 11.78186 0 16.27649l0 0c-4.494629 4.4946213 -11.78186 4.4946213 -16.27649 0z" fill-rule="evenodd"/><path fill="#000000" d="m66.586655 33.47321l0 0c-4.494629 -4.494627 -4.494629 -11.781858 0 -16.276487l0 0c2.1583939 -2.1583967 5.085808 -3.3709707 8.138245 -3.3709707c3.0524368 0 5.979851 1.212574 8.138245 3.3709707l0 0c4.494629 4.494629 4.494629 11.78186 0 16.276487l0 0c-4.494629 4.494629 -11.78186 4.494629 -16.27649 0z" fill-rule="evenodd"/><path fill="#000000" fill-opacity="0.0" d="m5.3228345 94.798836l89.354324 -89.35433" fill-rule="evenodd"/><path stroke="#000000" stroke-width="1.0" stroke-linejoin="round" stroke-linecap="butt" d="m5.3228345 94.798836l89.354324 -89.35433" fill-rule="evenodd"/><path fill="#cfaa78" d="m500.49316 217.46794l0 0c0 -0.19903564 0.16134644 -0.36039734 0.36038208 -0.36039734l0 0l0 0c0.095581055 0 0.18725586 0.037963867 0.2548523 0.1055603c0.06756592 0.06758118 0.1055603 0.15925598 0.1055603 0.25483704l0 0l0 0c0 0.19903564 -0.16137695 0.36039734 -0.3604126 0.36039734l0 0l0 0c-0.19903564 0 -0.36038208 -0.1613617 -0.36038208 -0.36039734z" fill-rule="evenodd"/><path fill="#000000" fill-opacity="0.0" d="m48.744396 91.8663l51.24409 0l0 61.38582l-51.24409 0z" fill-rule="evenodd"/><path fill="#000000" d="m62.32252 134.2792l-2.109375 0l0 -9.703117q0 -4.078125 0.109375 -5.15625q0.1875 -1.953125 0.71875 -3.21875q0.53125 -1.265625 1.6875 -2.484375q1.171875 -1.21875 2.8749962 -1.984375q1.71875 -0.765625 3.65625 -0.765625q1.859375 0 3.53125 0.734375q1.6875 0.71875 2.9375 1.96875q1.25 1.25 1.78125 2.65625q0.546875 1.40625 0.71875 3.515625q0.0625 0.8125 0.0625 4.734375l0 9.703117l-2.09375 0l0 -9.812492q0 -3.546875 -0.09375 -4.53125q-0.15625 -1.78125 -0.578125 -2.828125q-0.40625 -1.0625 -1.28125 -1.984375q-0.859375 -0.921875 -2.21875 -1.515625q-1.34375 -0.59375 -2.78125 -0.59375q-1.4375 0 -2.84375 0.625q-1.40625 0.625 -2.3125 1.65625q-0.8906212 1.015625 -1.2499962 2.234375q-0.359375 1.21875 -0.46875 2.84375q-0.046875 0.84375 -0.046875 4.09375l0 9.812492z" fill-rule="nonzero"/><path fill="#000000" d="m-116.19152 87.02155l0 0c-3.582779 -3.5816422 -3.582779 -9.388634 0 -12.970276l0 0c1.7205124 -1.7199631 4.0540237 -2.686226 6.487198 -2.686226c2.4331741 0 4.7666855 0.9662628 6.487198 2.686226l0 0c3.582779 3.5816422 3.582779 9.388634 0 12.970276l0 0c-3.582779 3.5816422 -9.391617 3.5816422 -12.974396 0z" fill-rule="evenodd"/><path fill="#000000" d="m-52.782875 23.633047l0 0c-3.582779 -3.581644 -3.582779 -9.388633 0 -12.970275l0 0c1.7205124 -1.719965 4.0540276 -2.686232 6.487198 -2.686232c2.4331703 0 4.7666855 0.9662671 6.487198 2.686232l0 0c3.582779 3.5816422 3.582779 9.388631 0 12.970275l0 0c-3.582779 3.5816422 -9.391613 3.5816422 -12.974396 0z" fill-rule="evenodd"/><path fill="#000000" fill-opacity="0.0" d="m-103.217125 74.05128l50.39926 -50.452652" fill-rule="evenodd"/><path stroke="#000000" stroke-width="1.0" stroke-linejoin="round" stroke-linecap="butt" d="m-103.217125 74.05128l50.39926 -50.452652" fill-rule="evenodd"/></g></svg>