<svg version="1.1" viewBox="0.0 0.0 100.0 100.0" fill="none" stroke="none" stroke-linecap="square" stroke-miterlimit="10" xmlns:xlink="http://www.w3.org/1999/xlink" xmlns="http://www.w3.org/2000/svg"><clipPath id="p.0"><path d="m0 0l100.0 0l0 100.0l-100.0 0l0 -100.0z" clip-rule="nonzero"/></clipPath><g clip-path="url(#p.0)"><path fill="#000000" fill-opacity="0.0" d="m0 0l100.0 0l0 100.0l-100.0 0z" fill-rule="evenodd"/><path fill="#000000" d="m7.3426228 93.9441l0 0c-4.073612 -4.073616 -4.073612 -10.678246 0 -14.751854l0 0c1.9562178 -1.9562225 4.609418 -3.055214 7.375928 -3.055214c2.766509 0 5.419709 1.0989914 7.375928 3.055214l0 0c4.073612 4.0736084 4.073612 10.678238 0 14.751854l0 0c-4.073612 4.0736084 -10.678244 4.0736084 -14.751856 0z" fill-rule="evenodd"/><path fill="#000000" d="m42.067284 59.193592l0 0c-4.794117 -4.794113 -4.794117 -12.56691 0 -17.361027l0 0c2.3022156 -2.3022156 5.4246902 -3.5955849 8.680511 -3.5955849c3.255825 0 6.3782997 1.2933693 8.680515 3.5955849l0 0c4.794117 4.794117 4.794117 12.566914 0 17.361027l0 0c-4.794117 4.794117 -12.566914 4.794117 -17.361027 0z" fill-rule="evenodd"/><path stroke="#000000" stroke-width="1.0" stroke-linejoin="round" stroke-linecap="butt" d="m42.067284 59.193592l0 0c-4.794117 -4.794113 -4.794117 -12.56691 0 -17.361027l0 0c2.3022156 -2.3022156 5.4246902 -3.5955849 8.680511 -3.5955849c3.255825 0 6.3782997 1.2933693 8.680515 3.5955849l0 0c4.794117 4.794117 4.794117 12.566914 0 17.361027l0 0c-4.794117 4.794117 -12.566914 4.794117 -17.361027 0z" fill-rule="evenodd"/><path fill="#000000" d="m79.4381 21.848623l0 0c-4.073616 -4.073612 -4.073616 -10.678244 0 -14.751856l0 0c1.9562149 -1.9562178 4.609413 -3.0552092 7.375923 -3.0552092c2.76651 0 5.4197083 1.0989914 7.375931 3.0552092l0 0c4.0736084 4.0736117 4.0736084 10.678244 0 14.751856l0 0c-4.073616 4.073612 -10.678246 4.073612 -14.751854 0z" fill-rule="evenodd"/></g></svg>