<svg xmlns="http://www.w3.org/2000/svg" viewBox="0 0 240 240" fill="none">
  <!-- Sigillo spezzato (broken-heart): lobi morbidi + frattura -->
  <g transform="translate(-12,2) rotate(-10 96 120)">
    <path d="M119.51,43.87 L118.98,41.08 L118.67,46.93 L118.54,50.11 L116.88,38.70 L114.30,36.86 L111.36,35.64 L108.23,35.11 L105.07,35.31 L102.02,36.21 L99.26,37.77 L96.92,39.92 L95.13,42.54 L96.26,50.89 L93.97,45.49 L94.42,48.30 L93.50,48.63 L92.05,46.19 L93.76,51.80 L94.72,54.82 L89.26,44.67 L86.20,43.82 L83.03,43.68 L79.91,44.26 L77.00,45.52 L74.45,47.41 L72.39,49.82 L70.93,52.64 L70.13,55.72 L74.05,63.17 L70.06,58.89 L71.44,61.37 L70.69,62.00 L68.49,60.20 L72.02,64.88 L73.95,67.40 L65.35,59.73 L62.19,59.97 L59.16,60.93 L56.42,62.54 L54.12,64.72 L52.37,67.37 L51.26,70.34 L50.85,73.49 L51.15,76.65 L57.39,82.32 L52.17,79.66 L54.32,81.51 L53.83,82.36 L51.14,81.43 L56.06,84.62 L58.74,86.32 L48.03,82.05 L45.14,83.37 L42.62,85.30 L40.60,87.75 L39.19,90.59 L38.45,93.67 L38.42,96.85 L39.11,99.95 L40.48,102.81 L48.28,106.00 L42.46,105.29 L45.12,106.30 L44.95,107.26 L42.10,107.30 L47.81,108.62 L50.91,109.30 L39.39,108.96 L37.13,111.18 L35.42,113.85 L34.36,116.85 L34.00,120.00 L34.36,123.15 L35.42,126.15 L37.13,128.82 L39.39,131.04 L47.81,131.38 L42.10,132.70 L44.95,132.74 L45.12,133.70 L42.46,134.71 L48.28,134.00 L51.42,133.58 L40.48,137.19 L39.11,140.05 L38.42,143.15 L38.45,146.33 L39.19,149.41 L40.60,152.25 L42.62,154.70 L45.14,156.63 L48.03,157.95 L56.06,155.38 L51.14,158.57 L53.83,157.64 L54.32,158.49 L52.17,160.34 L57.39,157.68 L60.20,156.21 L51.15,163.35 L50.85,166.51 L51.26,169.66 L52.37,172.63 L54.12,175.28 L56.42,177.46 L59.16,179.07 L62.19,180.03 L65.35,180.27 L72.02,175.12 L68.49,179.80 L70.69,178.00 L71.44,178.63 L70.06,181.11 L74.05,176.83 L76.19,174.48 L70.13,184.28 L70.93,187.36 L72.39,190.18 L74.45,192.59 L77.00,194.48 L79.91,195.74 L83.03,196.32 L86.20,196.18 L89.26,195.33 L93.76,188.20 L92.05,193.81 L93.50,191.37 L94.42,191.70 L93.97,194.51 L96.26,189.11 L97.47,186.18 L95.13,197.46 L96.92,200.08 L99.26,202.23 L102.02,203.79 L105.07,204.69 L108.23,204.89 L111.36,204.36 L114.30,203.14 L116.88,201.30 L118.67,193.07 L118.98,198.92 L119.51,196.13 L120.49,196.13 L121.02,198.92 L121.33,193.07 L121.46,189.89 L121.33,46.93 L121.02,41.08 L120.49,43.87 L118.80,205.89 L127.80,191.57 L109.80,177.26 L127.80,162.94 L109.80,148.63 L127.80,134.31 L109.80,120.00 L127.80,105.69 L109.80,91.37 L127.80,77.06 L109.80,62.74 L127.80,48.43 L118.80,34.11 Z" fill="#ffffff" stroke="#111111" stroke-width="3.3" stroke-linejoin="round"/>
    <path d="M118.50,70.00 A50.0,50.0 0 0 0 118.50,170.00" fill="none" stroke="#111111" stroke-width="3.3" stroke-linecap="round"/>
  </g>
  <g transform="translate(12,2) rotate(10 144 120)">
    <path d="M120.49,43.87 L121.02,41.08 L121.33,46.93 L123.12,38.70 L125.70,36.86 L128.64,35.64 L131.77,35.11 L134.93,35.31 L137.98,36.21 L140.74,37.77 L143.08,39.92 L144.87,42.54 L142.53,53.82 L143.74,50.89 L146.03,45.49 L145.58,48.30 L146.50,48.63 L147.95,46.19 L146.24,51.80 L150.74,44.67 L153.80,43.82 L156.97,43.68 L160.09,44.26 L163.00,45.52 L165.55,47.41 L167.61,49.82 L169.07,52.64 L169.87,55.72 L163.81,65.52 L165.95,63.17 L169.94,58.89 L168.56,61.37 L169.31,62.00 L171.51,60.20 L167.98,64.88 L174.65,59.73 L177.81,59.97 L180.84,60.93 L183.58,62.54 L185.88,64.72 L187.63,67.37 L188.74,70.34 L189.15,73.49 L188.85,76.65 L179.80,83.79 L182.61,82.32 L187.83,79.66 L185.68,81.51 L186.17,82.36 L188.86,81.43 L183.94,84.62 L191.97,82.05 L194.86,83.37 L197.38,85.30 L199.40,87.75 L200.81,90.59 L201.55,93.67 L201.58,96.85 L200.89,99.95 L199.52,102.81 L188.58,106.42 L191.72,106.00 L197.54,105.29 L194.88,106.30 L195.05,107.26 L197.90,107.30 L192.19,108.62 L200.61,108.96 L202.87,111.18 L204.58,113.85 L205.64,116.85 L206.00,120.00 L205.64,123.15 L204.58,126.15 L202.87,128.82 L200.61,131.04 L189.09,130.70 L192.19,131.38 L197.90,132.70 L195.05,132.74 L194.88,133.70 L197.54,134.71 L191.72,134.00 L199.52,137.19 L200.89,140.05 L201.58,143.15 L201.55,146.33 L200.81,149.41 L199.40,152.25 L197.38,154.70 L194.86,156.63 L191.97,157.95 L181.26,153.68 L183.94,155.38 L188.86,158.57 L186.17,157.64 L185.68,158.49 L187.83,160.34 L182.61,157.68 L188.85,163.35 L189.15,166.51 L188.74,169.66 L187.63,172.63 L185.88,175.28 L183.58,177.46 L180.84,179.07 L177.81,180.03 L174.65,180.27 L166.05,172.60 L167.98,175.12 L171.51,179.80 L169.31,178.00 L168.56,178.63 L169.94,181.11 L165.95,176.83 L169.87,184.28 L169.07,187.36 L167.61,190.18 L165.55,192.59 L163.00,194.48 L160.09,195.74 L156.97,196.32 L153.80,196.18 L150.74,195.33 L145.28,185.18 L146.24,188.20 L147.95,193.81 L146.50,191.37 L145.58,191.70 L146.03,194.51 L143.74,189.11 L144.87,197.46 L143.08,200.08 L140.74,202.23 L137.98,203.79 L134.93,204.69 L131.77,204.89 L128.64,204.36 L125.70,203.14 L123.12,201.30 L121.46,189.89 L121.33,193.07 L121.02,198.92 L120.49,196.13 L119.51,196.13 L118.98,198.92 L118.67,193.07 L118.54,50.11 L118.67,46.93 L118.98,41.08 L119.51,43.87 L121.20,205.89 L130.20,191.57 L112.20,177.26 L130.20,162.94 L112.20,148.63 L130.20,134.31 L112.20,120.00 L130.20,105.69 L112.20,91.37 L130.20,77.06 L112.20,62.74 L130.20,48.43 L121.20,34.11 Z" fill="#ffffff" stroke="#111111" stroke-width="3.3" stroke-linejoin="round"/>
    <path d="M121.50,70.00 A50.0,50.0 0 0 1 121.50,170.00" fill="none" stroke="#111111" stroke-width="3.3" stroke-linecap="round"/>
  </g>
</svg>
